<svg width="223" height="112" viewBox="0 0 446 225" fill="none" xmlns="http://www.w3.org/2000/svg">
<path d="M27.4286 96H33.2143C43.8 120.214 67.8857 137.143 96 137.143C124.114 137.143 148.2 120.214 158.786 96H164.571C168.343 96 171.429 92.9143 171.429 89.1429V48C171.429 44.2286 168.343 41.1429 164.571 41.1429H158.786C148.2 16.9286 124.114 0 96 0C67.8857 0 43.8 16.9286 33.2143 41.1429H27.4286C23.6571 41.1429 20.5714 44.2286 20.5714 48V89.1429C20.5714 92.9143 23.6571 96 27.4286 96ZM44.5714 58.2857C44.5714 48.8143 53.7857 41.1429 65.1429 41.1429H126.857C138.214 41.1429 147.429 48.8143 147.429 58.2857V68.5714C147.429 91.2857 129 109.714 106.286 109.714H85.7143C63 109.714 44.5714 91.2857 44.5714 68.5714V58.2857ZM75.4286 89.1429L80.5714 73.7143L96 68.5714L80.5714 63.4286L75.4286 48L70.2857 63.4286L54.8571 68.5714L70.2857 73.7143L75.4286 89.1429ZM140.4 137.743C127.586 146.014 112.371 150.857 96 150.857C79.6286 150.857 64.4143 146.014 51.6 137.743C22.6714 140.786 0 165 0 194.743V198.857C0 210.214 9.21429 219.429 20.5714 219.429H54.8571V192C54.8571 184.414 60.9857 178.286 68.5714 178.286H123.429C131.014 178.286 137.143 184.414 137.143 192V219.429H171.429C182.786 219.429 192 210.214 192 198.857V194.743C192 165 169.329 140.786 140.4 137.743ZM116.571 192C112.8 192 109.714 195.086 109.714 198.857C109.714 202.629 112.8 205.714 116.571 205.714C120.343 205.714 123.429 202.629 123.429 198.857C123.429 195.086 120.343 192 116.571 192ZM75.4286 192C71.6571 192 68.5714 195.086 68.5714 198.857V219.429H82.2857V198.857C82.2857 195.086 79.2 192 75.4286 192Z" fill="#FFFCFC"/>
<path d="M235.406 89.9531V57.1875H252.469V63.75H242.016V70.4062H248.062V77.0156H242.016V89.9531H235.406ZM256.031 59.4844C256.031 58.2031 256.609 57.2344 257.766 56.5781C258.297 56.2656 258.859 56.1094 259.453 56.1094C260.766 56.1094 261.75 56.6875 262.406 57.8438C262.688 58.375 262.828 58.9219 262.828 59.4844C262.828 60.7969 262.25 61.7812 261.094 62.4375C260.562 62.7188 260.016 62.8594 259.453 62.8594C258.109 62.8594 257.109 62.2656 256.453 61.0781C256.172 60.5781 256.031 60.0469 256.031 59.4844ZM256.359 90V64.6875H262.641V90H256.359ZM267.141 90V63.2812H273.516V66.2344C274.609 64.8281 276.094 63.8594 277.969 63.3281C278.625 63.1406 279.281 63.0469 279.938 63.0469H281.625L280.172 69.3281C278.203 69.3594 276.5 70.2188 275.062 71.9062C274.031 73.125 273.516 74.3906 273.516 75.7031V90H267.141ZM283.031 82.9688L288.844 81.8906C288.844 82.9219 289.375 83.6562 290.438 84.0938C290.812 84.2188 291.156 84.2969 291.469 84.3281V90.2344C287.844 90.2344 285.328 88.9531 283.922 86.3906C283.328 85.3281 283.031 84.1875 283.031 82.9688ZM283.312 70.5938C283.312 67.6875 284.672 65.5312 287.391 64.125C288.734 63.4062 290.062 63.0469 291.375 63.0469V68.8594C289.844 68.8906 289.078 69.4688 289.078 70.5938C289.078 71.7812 290.516 72.8281 293.391 73.7344C294.453 74.0781 295.703 74.4062 297.141 74.7188C299.297 75.125 300.828 76.3281 301.734 78.3281C302.203 79.3594 302.438 80.5 302.438 81.75C302.438 85 301.156 87.3906 298.594 88.9219C297.125 89.7969 295.453 90.2344 293.578 90.2344V84.3281C294.672 84.3281 295.484 83.9688 296.016 83.25C296.266 82.9062 296.391 82.5312 296.391 82.125C296.391 81.1562 295.203 80.3125 292.828 79.5938C292.453 79.5 291.875 79.3438 291.094 79.125C289.438 78.6875 288.297 78.3281 287.672 78.0469C285.391 76.8906 284.016 75.1875 283.547 72.9375C283.391 72.1875 283.312 71.4062 283.312 70.5938ZM293.484 68.8594L293.531 63.0469C296.344 63.0469 298.609 64.0781 300.328 66.1406C301.422 67.4844 301.969 68.9062 301.969 70.4062L296.203 71.3906C296.203 69.9844 295.453 69.1562 293.953 68.9062C293.766 68.875 293.609 68.8594 293.484 68.8594ZM304.031 69.3281V63.2812H307.312V56.4375H313.594V63.2812H316.688V69.375H313.594V81.7969C313.656 82.9219 314.234 83.5 315.328 83.5312H316.688L318.094 90H315.281C311.188 90 308.688 88.4531 307.781 85.3594C307.469 84.2344 307.312 82.8906 307.312 81.3281V69.3281H304.031ZM221.273 154.594L227.227 152.484C227.227 153.266 227.445 153.953 227.883 154.547C228.32 155.141 228.758 155.531 229.195 155.719L229.852 156.047V162.141C227.195 162.141 224.93 160.984 223.055 158.672C221.898 157.203 221.305 155.844 221.273 154.594ZM221.648 138.188C221.648 134.75 223.117 132.172 226.055 130.453C227.398 129.641 228.664 129.219 229.852 129.188V135.375C229.07 135.594 228.492 136.156 228.117 137.062C227.992 137.344 227.93 137.641 227.93 137.953C227.93 139.234 228.883 140.328 230.789 141.234C231.195 141.422 231.852 141.703 232.758 142.078C234.258 142.672 235.32 143.156 235.945 143.531C238.477 145.031 240.164 146.562 241.008 148.125C241.633 149.344 241.945 150.703 241.945 152.203C241.945 155.047 240.867 157.484 238.711 159.516C236.867 161.266 234.773 162.141 232.43 162.141V156.047C233.648 155.891 234.508 155.25 235.008 154.125C235.227 153.625 235.336 153.078 235.336 152.484C235.336 150.891 234.148 149.578 231.773 148.547C231.336 148.359 230.648 148.094 229.711 147.75C228.617 147.375 227.852 147.078 227.414 146.859C224.727 145.578 223.008 143.922 222.258 141.891C221.852 140.797 221.648 139.562 221.648 138.188ZM232.43 135.375V129.188C235.055 129.188 237.258 130.297 239.039 132.516C240.07 133.828 240.602 135.016 240.633 136.078L234.539 138.094C234.539 136.781 233.898 135.891 232.617 135.422C232.492 135.391 232.43 135.375 232.43 135.375ZM253.664 162V155.906H255.258C256.289 155.844 256.914 155.422 257.133 154.641V142.641C257.133 142.234 256.883 141.891 256.383 141.609C256.039 141.453 255.664 141.375 255.258 141.375H253.664V135.281H255.258C258.195 135.281 260.477 136.531 262.102 139.031C262.914 140.312 263.32 141.484 263.32 142.547V154.734C263.32 156.172 262.695 157.641 261.445 159.141C259.789 161.016 257.727 161.969 255.258 162H253.664ZM244.711 171.328V135.281H251.32V171.328H244.711ZM266.602 155.812V153.422C266.633 151.422 267.477 149.875 269.133 148.781C269.539 148.562 271.18 147.953 274.055 146.953C277.398 145.828 279.07 144.828 279.07 143.953V142.875C279.039 141.75 278.352 141.141 277.008 141.047V135.281C279.352 135.281 281.32 136.078 282.914 137.672C284.352 139.141 285.07 140.734 285.07 142.453V154.688C285.102 155.625 285.539 156.125 286.383 156.188V162C284.477 162 282.945 161.5 281.789 160.5C280.57 161.469 278.992 161.969 277.055 162V156.234C277.305 156.234 277.539 156.203 277.758 156.141C278.633 155.891 279.07 155.297 279.07 154.359V150.516C278.227 151.016 276.586 151.609 274.148 152.297C273.148 152.547 272.57 152.719 272.414 152.812C272.039 153 271.836 153.359 271.805 153.891V154.547C271.805 154.734 271.82 154.922 271.852 155.109C272.039 155.859 272.93 156.234 274.523 156.234V162C272.43 162 270.648 161.469 269.18 160.406C267.461 159.156 266.602 157.625 266.602 155.812ZM266.93 141.984C266.961 140.391 267.617 138.938 268.898 137.625C270.523 136.062 272.414 135.281 274.57 135.281V141.047C273.133 141.078 272.398 142.078 272.367 144.047L266.93 141.984ZM289.336 154.734V142.453C289.367 140.828 290.055 139.297 291.398 137.859C293.023 136.141 295.102 135.281 297.633 135.281V141.281C296.32 141.375 295.602 141.797 295.477 142.547V154.734C295.477 155.484 296.023 155.906 297.117 156C297.305 156.031 297.492 156.047 297.68 156.047V162C294.367 162 291.93 160.703 290.367 158.109C289.68 156.953 289.336 155.828 289.336 154.734ZM299.789 141.328V135.281C302.258 135.281 304.258 136.234 305.789 138.141C306.883 139.484 307.43 141 307.43 142.688L301.711 144.891V143.344C301.648 142.031 301.008 141.359 299.789 141.328ZM299.789 162.047V156C301.133 156 301.914 155.641 302.133 154.922C302.227 154.641 302.273 154.312 302.273 153.938V152.391L307.992 154.594C308.023 156.719 307.055 158.578 305.086 160.172C303.461 161.484 301.695 162.109 299.789 162.047ZM310.711 154.734V142.453C310.742 140.922 311.445 139.422 312.82 137.953C314.508 136.203 316.57 135.312 319.008 135.281V141.188C318.102 141.188 317.477 141.578 317.133 142.359C317.039 142.547 316.992 142.719 316.992 142.875V145.219H323.977V142.922C323.945 141.766 323.133 141.188 321.539 141.188V135.281C323.82 135.281 325.82 136.062 327.539 137.625C329.039 139 329.805 140.594 329.836 142.406V151.266H316.992V154.734C317.211 155.641 317.898 156.141 319.055 156.234V162C316.117 162 313.789 160.797 312.07 158.391C311.164 157.109 310.711 155.891 310.711 154.734ZM321.539 162V156.281C323.227 156.25 324.305 155.453 324.773 153.891L329.883 155.812C329.414 157.812 328.227 159.422 326.32 160.641C324.852 161.547 323.258 162 321.539 162Z" fill="#D55B5D"/>
</svg>
