<?xml version="1.0" standalone="no"?>
<!DOCTYPE svg PUBLIC "-//W3C//DTD SVG 20010904//EN"
 "http://www.w3.org/TR/2001/REC-SVG-20010904/DTD/svg10.dtd">
<svg version="1.0" xmlns="http://www.w3.org/2000/svg"
 width="1920.000000pt" height="1080.000000pt" viewBox="0 0 1920.000000 1080.000000"
 preserveAspectRatio="xMidYMid meet">
<metadata>
Created by potrace 1.16, written by Peter Selinger 2001-2019
</metadata>
<g transform="translate(0.000000,1080.000000) scale(0.100000,-0.100000)"
fill="#000000" stroke="none">
<path d="M0 5400 l0 -5400 9600 0 9600 0 0 5400 0 5400 -9600 0 -9600 0 0
-5400z m16637 5380 l2553 0 -3 -5382 -2 -5383 -9579 -3 c-5269 -1 -9582 1
-9585 5 -4 5 -5 2429 -3 5388 l2 5381 7033 -3 c3867 -1 8181 -2 9584 -3z"/>
<path d="M15888 10363 c-27 -3 -39 -10 -44 -26 -4 -12 -18 -39 -32 -59 -43
-66 -41 -67 294 -68 306 -1 344 4 325 38 -9 15 -32 17 -218 16 l-208 -1 185 7
c102 3 186 7 186 8 1 1 4 11 7 21 4 16 15 20 53 23 41 3 49 6 49 23 0 20 -7
20 -280 21 -154 0 -297 -1 -317 -3z"/>
<path d="M16948 10363 c-10 -2 -18 -8 -18 -13 0 -5 -7 -16 -16 -25 -20 -19
-12 -42 18 -55 21 -8 20 -9 -11 -9 -30 -1 -60 -22 -61 -43 0 -11 616 -10 638
0 69 35 77 41 77 69 0 18 7 31 18 35 11 5 17 16 15 25 -3 17 -27 18 -323 19
-176 1 -328 0 -337 -3z"/>
<path d="M16798 9533 c-756 -2 -958 -6 -958 -16 0 -6 -9 -23 -20 -37 -24 -31
-26 -72 -2 -85 11 -7 386 -9 1063 -7 l1047 2 32 65 c18 36 31 67 29 69 -11 9
-316 11 -1191 9z"/>
<path d="M16185 9310 c-63 -8 -226 -30 -260 -35 -60 -10 -220 -58 -240 -73
-13 -9 -30 -28 -37 -42 -7 -14 -20 -37 -30 -52 -14 -21 -16 -28 -6 -35 7 -4
493 -8 1080 -8 981 0 1068 1 1068 16 0 9 -10 19 -22 23 -13 3 -332 6 -711 6
l-687 0 16 25 16 25 688 0 c378 0 702 3 719 6 26 5 37 18 66 72 19 37 35 70
35 74 0 10 -1614 8 -1695 -2z"/>
<path d="M14560 7903 c-18 -5 -70 -95 -70 -122 0 -15 10 -19 53 -25 66 -8 525
-8 555 0 32 9 31 54 -2 54 -18 0 -23 5 -23 25 0 22 4 24 51 27 44 3 51 6 54
26 l3 22 -303 -1 c-167 -1 -310 -3 -318 -6z"/>
<path d="M15616 7888 c-19 -27 -21 -64 -3 -71 6 -3 2 -6 -9 -6 -30 -1 -51 -28
-35 -44 15 -15 548 -11 629 4 60 12 95 47 72 74 -10 12 -7 15 14 21 17 4 26
13 26 25 0 18 -13 19 -339 19 -340 0 -340 0 -355 -22z"/>
<path d="M4565 5811 c-68 -21 -136 -85 -177 -167 -57 -112 -131 -250 -139
-258 -5 -6 -9 -31 -9 -56 0 -38 5 -51 30 -75 l30 -29 243 1 c133 1 247 2 254
2 6 1 22 18 34 39 13 20 28 40 33 44 6 4 7 8 2 8 -5 0 -3 7 4 15 7 8 10 22 6
30 -5 13 -38 15 -221 15 l-215 0 23 38 c13 20 40 71 61 112 21 41 43 79 47 85
5 5 9 18 9 30 0 20 4 20 216 17 182 -2 220 0 240 13 26 17 77 110 71 128 -4
13 -504 20 -542 8z"/>
<path d="M5220 5793 c-72 -35 -102 -70 -175 -208 -37 -71 -79 -150 -93 -174
-45 -81 -24 -167 44 -182 16 -4 143 -7 282 -8 248 -1 253 -1 300 23 26 13 59
37 73 53 23 25 83 132 171 305 16 32 34 60 39 63 31 20 -11 130 -53 140 -13 2
-140 6 -283 7 -249 3 -262 2 -305 -19z m417 -176 c-13 -23 -48 -86 -76 -139
-34 -63 -59 -98 -69 -98 -15 -1 -354 -1 -359 0 -1 0 9 21 23 48 85 155 113
213 109 224 -4 10 36 12 196 10 l200 -3 -24 -42z"/>
<path d="M6002 5790 c-22 -16 -51 -58 -84 -120 -186 -354 -177 -332 -157 -387
21 -61 45 -65 329 -61 l255 3 48 33 c26 18 55 45 64 60 10 15 20 29 23 32 3 3
22 39 43 80 95 186 132 255 140 261 5 3 8 9 8 13 -1 11 12 41 30 67 10 14 16
29 12 33 -3 3 -39 6 -78 6 -67 0 -74 -2 -108 -32 -20 -19 -58 -76 -88 -133
-114 -222 -139 -263 -162 -268 -32 -7 -317 -9 -317 -2 0 11 63 120 71 123 5 2
9 8 9 14 0 6 19 47 42 92 89 173 100 197 94 203 -4 4 -37 7 -73 7 -56 1 -72
-3 -101 -24z"/>
<path d="M6749 5717 c-62 -123 -149 -290 -159 -302 -22 -28 -90 -177 -85 -185
9 -14 128 -13 159 2 14 6 36 27 48 47 32 53 138 253 145 274 9 27 17 21 37
-31 11 -26 30 -69 43 -96 12 -28 23 -53 23 -58 0 -14 59 -136 68 -142 5 -3 46
-6 91 -7 96 -2 98 -1 152 106 20 39 54 104 76 145 89 166 173 329 173 334 0 3
-34 6 -77 6 -90 0 -123 -19 -161 -91 -13 -24 -37 -69 -53 -99 -17 -30 -45 -83
-63 -118 -36 -69 -32 -70 -72 23 -9 22 -24 58 -34 80 -10 22 -30 72 -45 110
-16 39 -35 76 -44 83 -9 7 -45 12 -95 12 l-81 -1 -46 -92z"/>
<path d="M7572 5798 c-7 -7 -12 -17 -12 -24 0 -7 -3 -14 -7 -16 -16 -7 -45
-78 -39 -93 5 -15 20 -16 96 -13 86 3 90 2 84 -17 -4 -11 -12 -27 -19 -35 -7
-8 -26 -42 -42 -75 -68 -136 -101 -193 -109 -187 -4 4 -4 2 0 -5 4 -7 -5 -30
-19 -52 -14 -23 -25 -45 -25 -50 0 -24 99 -29 151 -7 41 17 56 34 92 102 15
28 40 76 56 105 16 30 47 91 70 137 l42 82 92 0 c72 0 97 4 114 18 29 23 86
119 78 132 -9 15 -587 14 -603 -2z"/>
<path d="M8253 5790 c-42 -25 -36 -15 -210 -350 -36 -69 -70 -129 -74 -134
-17 -19 -9 -65 13 -80 19 -14 64 -16 293 -16 197 1 274 4 286 13 21 16 72 116
66 131 -3 8 -67 11 -219 11 l-215 0 19 31 c10 18 28 34 39 37 10 3 92 6 181 7
89 0 165 3 169 6 16 9 59 98 55 111 -4 10 -44 13 -176 13 -93 0 -170 2 -170 4
0 2 7 16 14 32 8 15 13 31 10 36 -3 4 95 8 218 8 163 1 227 4 240 13 20 16 78
113 78 132 0 13 -43 15 -292 15 -273 0 -295 -1 -325 -20z"/>
<path d="M8950 5797 c-8 -7 -27 -35 -41 -62 -15 -28 -55 -104 -89 -170 -35
-66 -75 -140 -88 -165 -56 -101 -90 -174 -86 -182 3 -4 36 -8 75 -8 65 0 71 2
108 35 21 19 44 49 51 65 l12 30 142 0 142 0 17 -37 c9 -21 21 -50 26 -65 10
-26 15 -28 68 -29 32 0 69 -2 83 -5 14 -2 32 1 40 6 15 9 11 30 -25 112 -5 13
-1 20 16 27 37 14 52 36 129 186 61 119 70 146 66 178 -5 48 -29 74 -75 86
-57 15 -553 13 -571 -2z m450 -156 c0 -5 -7 -14 -15 -21 -8 -7 -15 -18 -15
-24 0 -6 -14 -32 -30 -58 l-30 -48 -165 0 c-91 0 -165 3 -165 7 0 3 16 35 35
70 20 36 33 69 30 74 -4 5 65 9 174 9 100 0 181 -4 181 -9z"/>
<path d="M10246 5785 c-21 -7 -55 -27 -75 -43 -40 -32 -106 -140 -116 -188 -9
-42 17 -101 50 -114 15 -6 103 -10 196 -10 93 0 169 -2 169 -5 0 -9 -25 -50
-35 -57 -5 -4 -113 -8 -240 -8 -168 -1 -234 -4 -246 -13 -9 -7 -31 -39 -49
-71 -25 -46 -29 -61 -18 -67 7 -5 133 -9 279 -9 300 0 328 5 395 68 62 57 116
156 116 211 0 38 -5 50 -31 73 l-31 28 -181 0 c-179 0 -180 0 -169 21 7 11 9
27 6 35 -5 12 33 14 247 14 l253 0 25 28 c33 37 63 98 55 111 -11 17 -550 14
-600 -4z"/>
<path d="M10876 5735 c-20 -36 -36 -70 -36 -75 0 -12 11 -13 107 -10 40 1 77
-1 82 -5 6 -3 -2 -25 -19 -54 -17 -27 -30 -51 -30 -53 0 -3 -19 -41 -43 -84
-95 -173 -127 -234 -127 -245 0 -8 26 -10 79 -8 88 4 104 14 148 83 28 43 85
148 149 276 l44 84 96 3 c85 2 100 5 121 25 29 27 69 105 59 115 -4 5 -140 9
-301 11 l-293 3 -36 -66z"/>
<path d="M11579 5794 c-9 -3 -28 -28 -42 -57 -15 -29 -47 -90 -73 -137 -25
-47 -77 -146 -116 -220 -39 -74 -75 -139 -79 -144 -24 -27 -8 -36 64 -36 65 0
78 3 109 27 19 15 43 44 53 65 l18 38 142 0 141 0 30 -62 29 -63 89 -3 c49 -2
93 1 98 6 6 6 -1 29 -16 60 -14 28 -26 53 -26 56 0 2 15 13 33 24 35 20 48 41
144 230 l57 112 -17 35 c-33 68 -39 70 -347 71 -151 1 -282 0 -291 -2z m441
-152 c0 -7 -55 -110 -72 -134 l-19 -28 -165 0 c-90 0 -164 2 -164 6 0 3 14 31
32 62 17 31 31 66 30 77 -1 19 5 20 178 20 99 0 180 -1 180 -3z"/>
<path d="M12478 5792 c-44 -2 -80 -8 -86 -15 -8 -10 -43 -74 -129 -237 -10
-19 -21 -37 -24 -40 -3 -3 -11 -21 -19 -40 -8 -19 -23 -51 -35 -70 -45 -75
-94 -177 -88 -184 11 -10 140 -7 166 5 14 6 35 30 48 53 38 68 117 216 157
296 20 41 40 77 43 80 8 7 69 131 69 141 0 12 -21 14 -102 11z"/>
<path d="M13245 5790 l-130 -5 -160 -104 c-88 -57 -168 -111 -177 -119 -28
-24 -22 -6 38 105 35 66 53 108 47 114 -6 6 -47 9 -92 7 l-82 -3 -19 -35
c-142 -262 -272 -510 -276 -527 -6 -23 -5 -23 83 -23 l89 0 21 38 c12 20 31
55 42 77 l20 40 90 -3 90 -3 42 -75 43 -74 92 0 c51 0 95 4 98 8 3 4 -1 17 -7
29 -7 11 -24 42 -40 69 -15 27 -33 58 -40 69 -34 55 -57 96 -57 103 0 5 30 29
68 53 37 23 110 70 162 104 52 34 119 77 148 95 47 30 64 54 45 62 -5 2 -66 1
-138 -2z"/>
<path d="M14508 5785 c-27 -32 -33 -42 -50 -74 -34 -63 -42 -61 222 -61 132 0
240 -2 240 -5 0 -4 -7 -19 -15 -35 l-16 -30 -205 0 c-198 0 -206 -1 -253 -25
-27 -13 -62 -41 -78 -62 -40 -50 -155 -272 -147 -284 3 -5 148 -9 340 -9 l334
0 27 55 27 55 -22 23 c-22 21 -32 22 -232 27 l-209 5 15 30 14 30 213 -3 c293
-4 281 -9 378 177 47 92 40 154 -21 186 -44 22 -543 22 -562 0z"/>
<path d="M13463 5783 c-34 -7 -82 -70 -146 -195 -33 -62 -83 -158 -113 -213
-29 -55 -53 -110 -54 -123 0 -51 7 -52 309 -52 276 0 281 0 301 22 30 32 64
108 53 119 -5 5 -102 10 -215 11 l-207 3 15 30 14 30 165 -3 c153 -3 167 -2
194 17 27 19 71 89 71 111 0 6 -69 10 -176 10 -164 0 -176 1 -168 18 4 9 8 29
8 45 l1 27 226 0 c165 0 229 3 241 13 9 6 31 36 48 66 24 42 28 56 18 62 -13
9 -543 10 -585 2z"/>
</g>
</svg>
