<?xml version="1.0" standalone="no"?>
<!DOCTYPE svg PUBLIC "-//W3C//DTD SVG 20010904//EN"
 "http://www.w3.org/TR/2001/REC-SVG-20010904/DTD/svg10.dtd">
<svg version="1.0" xmlns="http://www.w3.org/2000/svg"
 width="1920.000000pt" height="1080.000000pt" viewBox="0 0 1920.000000 1080.000000"
 preserveAspectRatio="xMidYMid meet">
<metadata>
Created by potrace 1.16, written by Peter Selinger 2001-2019
</metadata>
<g transform="translate(0.000000,1080.000000) scale(0.100000,-0.100000)"
fill="#000000" stroke="none">
<path d="M42 10795 c2 -3 2783 -6 6178 -8 4721 -3 6175 -6 6178 -15 2 -7 19
-12 38 -12 19 0 34 -4 34 -10 0 -5 -16 -10 -35 -10 -28 0 -35 -4 -35 -20 0
-11 -7 -20 -15 -20 -8 0 -15 -7 -15 -15 0 -8 -4 -15 -10 -15 -5 0 -12 -11 -16
-25 -3 -14 -10 -25 -15 -25 -5 0 -9 -13 -9 -30 0 -16 5 -30 10 -30 6 0 10 -7
10 -15 0 -8 5 -15 10 -15 6 0 10 -11 10 -25 0 -18 5 -25 20 -25 17 0 20 -7 20
-40 0 -33 3 -40 20 -40 17 0 20 7 20 40 l0 40 41 0 c41 0 41 0 35 32 -3 18
-12 35 -19 40 -7 4 -12 31 -12 72 l0 64 94 4 c61 3 96 8 99 16 2 7 12 12 23
12 12 0 19 7 19 20 0 13 -7 20 -20 20 -11 0 -20 5 -20 10 0 7 293 10 859 10
563 0 862 3 866 10 4 7 -2392 10 -7181 10 -3953 0 -7185 -2 -7182 -5z"/>
<path d="M14540 10785 c0 -8 5 -15 10 -15 24 0 -7 -96 -35 -106 -7 -3 -15 -17
-19 -32 -9 -45 -22 -58 -40 -43 -18 15 -36 7 -37 -17 0 -13 -3 -12 -11 6 -12
25 -21 27 -49 12 -11 -6 -19 -7 -19 -1 0 11 -52 10 -61 -1 -3 -5 -56 -15 -118
-23 -109 -14 -161 -12 -161 6 0 5 -7 6 -15 3 -8 -4 -15 -10 -15 -15 0 -5 -8
-17 -17 -26 -15 -15 -33 -17 -105 -15 -76 3 -88 1 -88 -13 0 -24 18 -55 49
-81 25 -22 34 -23 169 -24 l142 0 0 -40 0 -40 -120 0 c-73 0 -120 4 -120 10 0
6 -9 10 -20 10 -11 0 -20 -4 -20 -10 0 -5 -9 -10 -20 -10 -18 0 -20 -7 -20
-80 l0 -80 30 0 c23 0 30 -4 30 -20 0 -19 -7 -20 -130 -20 -109 0 -130 -2
-130 -15 0 -8 -9 -15 -20 -15 -18 0 -20 7 -20 55 l0 55 -60 0 -60 0 0 180 c0
113 -4 180 -10 180 -5 0 -10 23 -10 51 l0 52 -82 -7 c-159 -12 -178 -16 -178
-37 0 -12 7 -19 20 -19 13 0 20 -7 20 -20 0 -13 7 -20 20 -20 13 0 20 -7 20
-20 0 -13 7 -20 20 -20 11 0 20 7 20 15 0 8 9 15 20 15 16 0 20 -7 20 -35 0
-34 -1 -35 -40 -35 -33 0 -40 -3 -40 -20 0 -15 -7 -20 -25 -20 -22 0 -25 -4
-25 -40 0 -36 3 -40 25 -40 18 0 25 -5 25 -20 0 -11 -7 -20 -15 -20 -15 0 -18
-9 -34 -100 -6 -33 -6 -56 0 -58 5 -2 9 -48 9 -103 l0 -99 120 0 120 0 0 -139
c0 -102 3 -141 13 -145 10 -5 10 -7 0 -12 -7 -3 -13 -14 -13 -25 0 -10 -7 -19
-15 -19 -8 0 -15 -4 -15 -10 0 -5 -20 -10 -45 -10 l-45 0 0 -40 c0 -33 -3 -40
-20 -40 -13 0 -20 -7 -20 -20 0 -17 -7 -20 -40 -20 l-40 0 0 -40 c0 -33 3 -40
20 -40 11 0 20 -5 20 -10 0 -18 53 -33 72 -21 21 13 128 15 128 2 0 -5 -6 -12
-12 -14 -10 -4 -10 -7 -1 -14 17 -12 35 -63 23 -63 -6 0 -10 -21 -10 -47 0
-27 -7 -61 -15 -77 -17 -32 -20 -66 -5 -66 18 0 12 -87 -6 -94 -11 -4 -14 -13
-10 -31 5 -21 3 -25 -18 -25 -25 0 -36 -16 -36 -52 0 -15 -5 -19 -20 -15 -11
3 -23 0 -27 -6 -5 -7 -10 3 -13 23 -4 29 -10 36 -31 38 -31 4 -37 21 -47 122
-6 57 -10 65 -29 68 -13 2 -23 8 -23 13 0 5 -18 9 -40 9 -22 0 -40 5 -40 10 0
6 -17 10 -38 10 -26 0 -42 -6 -52 -20 -8 -11 -20 -20 -27 -20 -7 0 -13 -9 -13
-20 0 -11 -7 -20 -15 -20 -8 0 -15 -9 -15 -20 0 -18 -7 -20 -59 -20 -33 0 -63
-5 -67 -11 -3 -6 -16 -8 -28 -5 -14 3 -28 -1 -37 -12 -8 -9 -27 -26 -42 -37
-15 -11 -27 -25 -27 -32 0 -12 28 -19 54 -14 5 1 5 -4 -1 -11 -6 -7 -13 -37
-15 -66 -3 -29 -8 -55 -12 -59 -12 -12 -81 -3 -92 12 -13 17 -34 20 -34 5 0
-5 -7 -10 -16 -10 -25 0 -43 -25 -49 -72 -11 -79 -15 -88 -35 -88 -11 0 -20
-5 -20 -11 0 -8 -12 -10 -33 -6 -21 3 -48 -1 -73 -13 l-39 -17 78 -8 c66 -6
77 -10 77 -26 0 -11 -7 -19 -15 -19 -8 0 -15 -4 -15 -10 0 -5 -11 -10 -25 -10
-14 0 -25 -4 -25 -10 0 -5 -11 -10 -24 -10 -13 0 -26 -5 -28 -11 -2 -6 -19
-14 -38 -18 -40 -8 -56 -46 -23 -54 14 -4 13 -5 -4 -6 -30 -1 -33 -41 -4 -41
32 0 51 -11 51 -29 0 -26 -11 -32 -27 -15 -8 8 -19 12 -24 9 -5 -4 -9 -1 -9 5
0 8 -18 11 -55 8 -46 -2 -55 0 -55 13 0 18 -41 31 -60 19 -7 -4 -10 -18 -8
-31 2 -20 9 -24 38 -25 65 -3 76 -11 78 -61 2 -64 9 -80 35 -87 21 -5 47 -45
47 -72 0 -6 6 -24 14 -38 13 -25 14 -25 19 -6 6 23 51 28 61 8 5 -10 7 -10 12
0 10 20 26 13 23 -10 -1 -13 3 -36 9 -51 15 -35 16 -87 2 -87 -11 0 -14 -98
-4 -124 9 -25 34 6 34 43 0 41 17 81 34 81 7 0 16 7 20 15 3 8 12 15 21 15 8
0 15 -7 15 -15 0 -8 4 -15 9 -15 5 0 11 -21 14 -47 12 -103 15 -110 58 -117
25 -4 39 -12 39 -21 0 -10 10 -15 30 -15 28 0 30 -2 30 -40 0 -28 4 -40 14
-40 8 0 17 -6 19 -12 3 -7 6 22 6 65 1 102 11 120 59 112 38 -6 56 -15 30 -15
-11 0 -17 -15 -21 -52 -4 -28 -10 -54 -14 -57 -5 -3 -10 -15 -11 -26 -2 -11
-8 -21 -13 -23 -5 -2 -9 -19 -9 -38 0 -27 4 -34 20 -34 13 0 20 -7 20 -20 0
-11 -4 -20 -10 -20 -5 0 -10 5 -10 10 0 6 -13 10 -30 10 -20 0 -30 -5 -30 -15
0 -8 -5 -15 -11 -15 -7 0 -10 -15 -7 -40 2 -22 0 -41 -5 -43 -5 -1 -10 -17
-11 -35 -2 -24 1 -31 11 -27 8 2 11 0 8 -5 -9 -15 -23 -12 -45 10 -26 26 -40
25 -40 -1 0 -23 -16 -56 -37 -77 -26 -27 -11 -58 33 -71 37 -11 354 -1 354 10
0 5 7 9 15 9 8 0 15 -9 15 -20 0 -13 7 -20 20 -20 13 0 20 -7 20 -20 0 -11 5
-20 11 -20 7 0 8 -14 4 -40 -6 -33 -4 -40 9 -40 12 0 16 -10 16 -40 0 -33 4
-41 24 -46 13 -3 37 -4 52 -2 27 3 29 5 26 45 -1 23 2 44 8 48 5 3 10 20 10
36 0 44 41 76 109 84 33 4 53 37 30 50 -7 5 -4 14 7 27 16 16 16 21 4 28 -13
8 -13 10 1 10 18 0 49 -59 49 -94 0 -12 11 -33 25 -46 14 -13 25 -32 25 -42 0
-10 7 -18 15 -18 8 0 15 5 15 10 0 6 27 10 60 10 33 0 60 -4 60 -10 0 -5 18
-10 40 -10 l40 0 0 -40 c0 -22 -4 -40 -10 -40 -16 0 -12 -37 4 -43 8 -3 18
-21 21 -39 5 -24 21 -44 59 -73 28 -22 60 -43 71 -47 19 -6 18 -6 -2 -7 -22
-1 -34 -31 -13 -31 6 0 10 -13 10 -30 0 -16 -4 -30 -9 -30 -16 0 -21 -44 -14
-132 5 -77 8 -88 24 -88 12 0 19 -7 19 -20 0 -13 7 -20 20 -20 13 0 20 7 20
20 0 13 7 20 20 20 19 0 20 7 20 146 0 112 -3 149 -14 159 -11 11 -13 34 -9
97 6 91 17 112 61 114 23 1 27 5 27 29 0 27 -3 29 -38 30 -20 1 -39 4 -41 6
-2 2 1 28 7 58 l11 53 40 -5 c23 -3 42 -11 44 -16 5 -14 72 -14 72 -1 0 6 7
10 15 10 8 0 15 7 15 16 0 8 -7 22 -15 30 -16 16 -20 80 -7 102 10 14 112 33
112 21 0 -5 9 -9 20 -9 13 0 20 -7 20 -20 0 -13 -7 -20 -20 -20 -13 0 -20 -7
-20 -20 0 -13 7 -20 20 -20 13 0 20 7 20 20 0 18 7 20 60 20 l60 0 0 -95 c0
-92 -1 -95 -22 -96 -13 -1 -38 -3 -55 -5 -30 -3 -33 -1 -33 24 0 50 -11 72
-35 72 -28 0 -35 -17 -35 -81 0 -55 31 -125 60 -134 11 -3 22 -15 25 -26 5
-15 16 -19 49 -19 88 0 166 -12 166 -26 0 -8 5 -14 12 -14 6 0 -1 -11 -16 -23
-26 -22 -26 -25 -11 -40 15 -16 15 -17 -4 -17 -14 0 -21 -6 -21 -20 0 -13 -7
-20 -20 -20 -17 0 -20 -7 -20 -40 0 -33 -3 -40 -20 -40 -17 0 -20 -7 -20 -40
l0 -40 120 0 c112 0 120 1 120 19 0 11 -6 22 -12 24 -10 4 -10 6 0 6 6 1 12
10 12 21 0 11 5 20 10 20 6 0 10 7 10 15 0 8 -4 15 -10 15 -5 0 -10 7 -10 15
0 9 -6 12 -15 9 -8 -4 -15 -1 -15 5 0 6 -7 11 -15 11 -8 0 -15 5 -15 10 0 6 7
10 15 10 8 0 15 6 15 14 0 8 4 16 9 18 4 2 18 24 29 51 13 29 30 51 45 56 34
13 77 55 77 75 0 9 4 16 9 16 5 0 9 34 8 75 l-1 75 -43 0 c-36 0 -43 3 -43 20
0 11 5 20 10 20 6 0 10 6 10 14 0 20 62 24 129 8 29 -7 55 -11 58 -8 16 15
-34 86 -61 86 -11 0 -16 9 -16 30 0 23 4 30 20 30 12 0 20 7 20 18 0 13 2 14
9 3 7 -11 17 -11 61 -1 28 7 69 10 91 7 21 -3 41 -2 44 2 2 5 19 8 36 9 18 0
35 6 39 13 6 8 9 8 12 -1 5 -16 58 -2 58 16 0 8 6 14 13 14 7 0 18 9 25 20 13
21 42 28 42 9 0 -5 5 -7 10 -4 6 3 10 -1 10 -9 0 -20 9 -20 34 -1 11 9 41 15
68 15 36 0 48 4 48 15 0 8 7 15 15 15 8 0 15 -4 15 -10 0 -5 -6 -10 -12 -10
-10 0 -10 -2 0 -9 22 -14 -7 -88 -40 -102 -35 -15 -39 -27 -31 -114 l6 -75 86
0 c47 0 91 4 97 8 6 4 14 34 17 67 4 41 12 63 24 72 10 7 24 18 32 24 10 9 20
8 41 -5 30 -17 120 -22 120 -6 0 6 9 10 20 10 11 0 20 -4 20 -10 0 -6 43 -10
110 -10 l109 0 0 -47 c-1 -58 -7 -83 -21 -83 -6 0 -21 -12 -33 -26 -22 -26
-26 -26 -111 -22 -54 3 -89 9 -92 16 -5 17 -42 15 -42 -2 0 -8 -6 -16 -12 -19
-16 -5 -16 -99 1 -105 6 -2 11 -9 11 -15 0 -8 20 -12 53 -13 28 0 73 -4 100
-8 47 -7 47 -7 47 -47 0 -39 0 -39 -40 -39 -33 0 -40 -3 -40 -20 0 -13 -7 -20
-20 -20 -18 0 -20 -7 -20 -60 0 -53 -2 -60 -20 -60 -17 0 -20 -7 -20 -40 l0
-40 40 0 c33 0 40 -3 40 -20 0 -18 7 -20 60 -20 53 0 60 2 60 20 0 17 7 20 40
20 33 0 40 -3 40 -20 0 -17 7 -20 40 -20 33 0 40 -3 40 -20 0 -17 -7 -20 -40
-20 -33 0 -40 -3 -40 -20 0 -19 -7 -20 -180 -20 l-180 0 0 60 c0 53 -2 60 -20
60 -17 0 -20 -7 -20 -40 0 -33 -3 -40 -20 -40 -16 0 -20 7 -20 34 0 34 -1 35
-42 38 -42 3 -146 -13 -180 -27 -15 -6 -18 -21 -18 -105 l0 -98 40 -7 40 -7 0
-54 0 -54 220 0 c213 0 220 -1 220 -20 0 -13 7 -20 20 -20 13 0 20 -7 20 -20
0 -19 -7 -20 -120 -20 -113 0 -120 -1 -120 -20 0 -11 -4 -20 -10 -20 -11 0
-13 -81 -4 -116 3 -12 17 -27 30 -34 13 -8 24 -22 24 -32 0 -14 8 -18 35 -18
28 0 35 4 35 20 0 11 -4 20 -10 20 -5 0 -10 9 -10 20 0 11 7 20 15 20 12 0 15
13 15 60 0 53 2 60 20 60 11 0 20 -7 20 -15 0 -8 7 -15 15 -15 8 0 15 7 15 15
0 9 14 16 38 20 78 13 92 17 92 26 0 5 7 9 16 9 15 0 16 9 10 68 -7 71 -21 92
-63 92 -20 0 -23 -5 -23 -40 0 -38 -2 -40 -30 -40 -23 0 -30 4 -30 20 0 11 6
20 14 20 9 0 17 15 21 40 l7 40 53 0 c45 0 55 3 60 20 6 18 15 20 116 20 l110
0 -1 98 c-1 53 -1 102 0 107 1 6 3 50 3 98 2 66 6 90 17 97 12 8 16 3 18 -25
3 -30 7 -35 28 -35 24 0 25 2 19 44 -7 43 9 74 21 43 3 -8 14 -17 25 -20 10
-3 19 -12 19 -21 0 -12 11 -16 43 -17 23 -1 34 -3 25 -6 -21 -5 -24 -23 -4
-23 13 0 27 -25 56 -97 13 -36 42 -43 82 -22 16 9 29 7 62 -9 81 -39 103 -44
166 -37 33 4 60 11 60 16 0 20 34 7 64 -23 22 -24 31 -42 31 -65 0 -18 -4 -33
-9 -33 -5 0 -3 -7 4 -15 10 -12 10 -19 2 -27 -9 -9 -12 -8 -12 5 0 26 -57 23
-65 -4 -7 -22 21 -52 42 -44 7 2 15 0 18 -5 4 -6 1 -10 -4 -10 -6 0 -11 -6
-11 -14 0 -20 -30 -29 -36 -11 -7 17 -109 22 -119 5 -3 -5 -15 -10 -26 -10
-14 0 -19 -7 -19 -30 l0 -30 -100 0 c-93 0 -100 1 -100 20 0 17 -7 20 -40 20
-29 0 -40 4 -40 15 0 8 -9 15 -20 15 -11 0 -20 -7 -20 -15 0 -12 -13 -15 -60
-15 -53 0 -60 -2 -60 -20 0 -13 -7 -20 -20 -20 -13 0 -20 -7 -20 -20 0 -17 -7
-20 -40 -20 -33 0 -40 -3 -40 -20 0 -11 -7 -20 -15 -20 -11 0 -15 -11 -15 -40
0 -29 4 -40 15 -40 8 0 15 -9 15 -20 0 -17 7 -20 40 -20 33 0 40 -3 40 -20 0
-11 -7 -20 -15 -20 -10 0 -15 -10 -15 -30 0 -29 -2 -30 -43 -30 -37 0 -44 -3
-55 -30 -8 -16 -20 -30 -29 -30 -8 0 -32 -18 -54 -41 -21 -22 -43 -38 -48 -35
-5 4 -21 1 -35 -5 -19 -9 -26 -20 -26 -40 0 -15 -6 -30 -12 -32 -10 -4 -10 -6
0 -6 17 -1 15 -21 -3 -21 -29 0 -14 -19 20 -26 30 -5 35 -10 35 -34 0 -25 -4
-29 -40 -35 -30 -5 -40 -11 -40 -26 0 -10 -5 -19 -11 -19 -7 0 -10 -17 -7 -45
2 -25 0 -45 -4 -45 -5 0 -8 8 -8 18 0 11 -3 13 -8 5 -4 -6 -20 -15 -35 -18
-15 -4 -27 -11 -27 -17 0 -15 -53 -5 -58 11 -3 9 0 11 9 5 12 -7 12 -5 0 9
-12 15 -15 15 -25 3 -8 -11 -32 -15 -86 -14 -41 0 -88 -3 -103 -7 -18 -5 -38
-3 -53 5 -21 12 -24 20 -24 72 0 32 -4 58 -10 58 -5 0 -10 14 -10 30 0 17 -4
30 -9 30 -5 0 -11 -13 -14 -30 -4 -16 -13 -30 -21 -30 -9 0 -16 -15 -20 -42
-3 -24 -8 -60 -12 -80 l-6 -38 -56 0 c-36 0 -61 5 -72 15 -17 15 -50 11 -50
-6 0 -5 -89 -9 -200 -9 l-200 0 0 36 c0 28 5 37 20 41 42 11 33 94 -12 109
-10 3 -18 10 -18 15 0 5 -7 9 -15 9 -8 0 -15 -4 -15 -10 0 -5 -18 -10 -40 -10
-22 0 -40 4 -40 9 0 11 -69 20 -76 10 -2 -4 -26 -11 -52 -14 -26 -3 -57 -8
-69 -11 -16 -3 -23 0 -23 11 0 11 -7 13 -28 9 -25 -5 -31 -2 -41 25 -11 24
-11 36 0 61 8 17 21 30 31 30 11 0 18 8 18 20 0 13 -7 20 -20 20 -11 0 -20 4
-20 9 0 9 -70 23 -160 31 -46 4 -51 1 -49 -27 4 -48 0 -63 -17 -63 -12 0 -14
-7 -9 -29 7 -31 -8 -70 -31 -84 -19 -11 24 -54 57 -59 20 -2 24 -9 24 -38 1
-41 -7 -49 -41 -42 -18 3 -27 13 -31 33 -3 16 -12 29 -20 29 -9 0 -13 6 -9 15
3 9 -4 20 -17 27 -30 17 -122 37 -177 38 -55 0 -35 20 21 20 38 0 66 21 53 41
-4 8 -25 10 -59 6 -52 -5 -52 -5 -52 24 0 22 5 29 19 29 15 0 19 6 16 28 -2
22 -8 28 -35 30 -25 3 -34 9 -39 28 -3 13 -10 24 -15 24 -5 0 -9 7 -9 15 0 12
-3 12 -20 -2 -11 -10 -20 -23 -20 -30 0 -9 -20 -13 -73 -13 -60 0 -75 3 -90
20 -9 11 -26 20 -37 20 -11 0 -20 5 -20 10 0 6 -9 10 -20 10 -16 0 -20 7 -20
30 0 28 -2 30 -40 30 -36 0 -40 -2 -40 -26 0 -42 -26 -59 -92 -60 -42 -1 -66
-6 -80 -19 -20 -16 -30 -17 -112 -7 -138 17 -167 23 -173 38 -3 8 -12 14 -19
14 -8 0 -17 14 -20 30 -4 17 -11 30 -16 30 -6 0 -8 13 -4 33 4 17 4 80 0 140
-6 95 -9 107 -25 107 -11 0 -19 7 -19 15 0 8 -9 15 -20 15 -11 0 -20 7 -20 15
0 13 -20 15 -120 15 -73 0 -120 -4 -120 -10 0 -5 -16 -10 -35 -10 -19 0 -35
-4 -35 -10 0 -5 -9 -18 -20 -28 -15 -14 -23 -38 -29 -90 -4 -39 -10 -75 -15
-79 -4 -4 -38 -9 -77 -11 -38 -2 -69 -8 -69 -13 0 -5 -9 -9 -19 -9 -11 0 -21
-5 -23 -12 -3 -8 -9 -8 -24 0 -18 11 -18 11 4 12 35 0 26 20 -10 20 -46 0 -59
11 -65 58 -5 35 -10 42 -34 47 -16 4 -29 13 -29 21 0 8 -9 14 -20 14 -11 0
-20 -4 -20 -10 0 -5 -21 -10 -46 -10 -28 0 -51 -6 -62 -16 -13 -14 -29 -15
-94 -9 -47 4 -78 3 -78 -3 0 -5 -9 -12 -20 -15 -24 -6 -27 -32 -4 -41 8 -3 13
-9 10 -14 -2 -4 9 -17 25 -27 28 -19 39 -45 19 -45 -5 0 -10 -7 -10 -15 0 -8
6 -15 13 -15 9 0 8 -3 -2 -9 -11 -7 -11 -9 0 -13 11 -4 8 -10 -8 -25 -28 -25
-29 -53 -3 -76 32 -27 67 -22 85 13 25 48 71 38 81 -17 4 -19 13 -37 20 -40 8
-3 14 -16 14 -29 0 -15 6 -24 15 -24 8 0 15 -4 15 -10 0 -5 16 -10 35 -10 28
0 35 4 35 20 0 11 5 20 10 20 6 0 10 -18 10 -39 0 -23 7 -46 16 -55 26 -27 14
-51 -26 -50 -19 1 -137 2 -262 3 l-228 1 0 29 c0 30 -18 41 -72 41 -36 0 -42
-14 -22 -45 15 -24 15 -25 -2 -27 -31 -2 -68 3 -74 10 -3 4 -17 13 -31 21 -34
17 -65 11 -61 -12 2 -14 -6 -17 -52 -17 -30 0 -56 3 -58 8 -3 7 -353 -4 -395
-13 -13 -3 -23 -11 -23 -17 0 -6 -6 -19 -14 -27 -7 -9 -18 -29 -23 -46 -11
-33 -36 -40 -41 -12 -2 9 1 17 7 17 6 0 11 7 11 15 0 8 5 24 12 35 7 10 9 23
4 27 -4 4 -142 8 -305 8 l-298 0 -49 -33 c-48 -33 -114 -117 -114 -146 0 -7
-7 -27 -15 -42 -24 -46 -19 -106 10 -134 22 -21 31 -22 122 -20 122 4 139 4
188 0 22 -1 46 -1 54 1 22 6 23 -15 1 -39 -20 -22 -26 -22 -248 -21 -125 0
-235 -2 -244 -6 -10 -4 -18 -13 -18 -21 0 -17 -16 -18 -24 -1 -4 8 -5 7 -4 -3
1 -23 -23 -80 -34 -80 -5 0 -8 -10 -6 -22 l3 -23 275 -2 c151 0 302 2 335 7
33 4 51 8 40 9 -17 2 -16 4 8 17 15 8 27 19 27 25 0 5 10 14 23 20 13 6 32 27
43 47 10 20 27 44 36 54 18 18 24 79 15 155 -4 29 -1 43 8 47 8 3 15 0 17 -6
3 -7 18 -6 47 3 24 7 39 15 32 17 -13 4 -15 42 -2 42 5 0 12 10 16 23 6 19 8
19 12 5 2 -10 10 -18 18 -18 7 0 19 -10 28 -22 12 -19 18 -21 28 -10 16 14
105 16 114 2 4 -6 11 -8 16 -5 5 4 9 -2 9 -13 0 -20 -39 -62 -57 -62 -14 0
-23 -27 -28 -84 -5 -64 -43 -118 -59 -83 -3 6 -4 0 -3 -15 3 -17 -1 -29 -11
-33 -8 -3 -12 -12 -9 -19 3 -8 -1 -20 -9 -26 -18 -15 -18 -50 -1 -74 12 -16
20 -17 81 -8 37 6 74 8 81 6 8 -3 20 -2 26 2 9 5 8 9 -4 13 -13 5 -10 15 23
63 l38 57 6 -34 c6 -28 13 -36 43 -46 l36 -11 -52 -48 c-28 -26 -51 -51 -51
-56 0 -13 33 -41 59 -49 12 -3 21 -11 21 -17 0 -5 6 -8 14 -5 8 3 23 -3 34
-14 13 -12 35 -19 59 -19 38 0 38 1 39 40 2 50 18 70 56 70 17 0 27 4 23 10
-3 6 -21 10 -38 10 -25 0 -29 3 -17 10 8 6 33 9 56 8 30 -1 47 4 64 20 28 25
50 29 50 7 0 -12 3 -13 19 -3 26 16 33 45 15 62 -15 16 -19 36 -6 36 4 -1 18
-7 32 -15 14 -8 37 -14 53 -15 15 0 27 -4 27 -10 0 -5 11 -10 24 -10 40 0 56
-11 56 -36 0 -15 6 -24 15 -24 15 0 20 -21 16 -73 -2 -18 3 -29 16 -34 10 -3
22 -12 26 -20 5 -7 26 -13 49 -13 29 0 39 -4 35 -13 -8 -20 5 -35 36 -42 20
-5 27 -4 27 8 0 8 9 17 20 20 11 3 20 13 20 23 0 9 11 32 25 50 l26 34 30 -27
c30 -27 59 -76 59 -100 0 -7 7 -13 15 -13 9 0 15 -9 15 -21 0 -20 4 -21 58
-17 57 4 58 3 54 -19 -2 -13 -8 -23 -13 -23 -5 0 -9 -20 -9 -45 l0 -45 -44 0
c-31 0 -46 5 -50 16 -9 23 -8 24 18 24 31 0 40 14 32 46 -7 25 -7 25 -51 -20
-25 -25 -45 -50 -45 -56 0 -6 -6 -18 -14 -26 -19 -19 -212 -20 -219 -1 -4 10
-6 10 -6 0 -1 -18 -21 -16 -21 2 0 8 -6 15 -14 15 -16 0 -29 -69 -31 -160 -1
-30 -5 -74 -9 -97 -8 -40 -7 -43 13 -43 12 0 19 -4 16 -10 -3 -5 -17 -10 -31
-10 -13 0 -24 -4 -24 -8 0 -5 -27 -6 -60 -4 l-60 4 -6 -31 c-5 -21 -12 -31
-25 -31 -11 0 -19 -4 -19 -10 0 -5 -7 -10 -15 -10 -8 0 -15 -5 -15 -11 0 -6
-8 -8 -19 -4 -28 9 -69 -4 -76 -23 -7 -22 -95 -62 -136 -62 -26 0 -29 -2 -20
-14 19 -23 -7 -55 -51 -63 -26 -4 -38 -11 -38 -22 0 -9 -16 -26 -35 -39 -30
-19 -38 -20 -55 -10 -16 10 -24 10 -40 0 -11 -6 -29 -12 -40 -12 -19 0 -21 -4
-15 -43 6 -39 4 -46 -34 -89 -42 -47 -51 -68 -28 -68 8 0 9 -3 1 -8 -6 -4 -19
-29 -29 -57 -10 -27 -23 -54 -29 -60 -11 -10 -21 -29 -51 -95 -8 -19 -22 -46
-30 -60 -8 -14 -15 -37 -15 -52 0 -18 -5 -28 -15 -28 -8 0 -15 -4 -15 -9 0 -5
-12 -24 -27 -41 -18 -22 -32 -30 -46 -26 -15 4 -17 2 -8 -7 6 -6 11 -25 11
-43 0 -23 -5 -33 -20 -37 -11 -3 -18 -11 -15 -19 5 -16 -20 -48 -59 -73 -25
-17 -27 -22 -21 -62 4 -27 2 -43 -4 -43 -6 0 -18 -17 -26 -37 -9 -21 -19 -40
-23 -43 -4 -3 -23 -40 -41 -83 -19 -42 -38 -77 -42 -77 -5 0 -9 -6 -9 -13 0
-7 -9 -20 -20 -30 -11 -9 -20 -29 -20 -43 0 -23 -4 -26 -25 -22 -20 4 -26 0
-35 -27 -6 -18 -24 -43 -41 -56 -19 -15 -29 -29 -26 -41 4 -14 -4 -18 -40 -24
-35 -5 -46 -12 -54 -31 -12 -32 -6 -41 36 -49 42 -8 46 -31 13 -77 -13 -18
-21 -40 -20 -50 3 -15 -1 -17 -24 -11 -25 6 -26 5 -20 -20 8 -34 -13 -98 -31
-92 -9 4 -13 -4 -13 -24 0 -17 -4 -30 -10 -30 -5 0 -10 -12 -10 -27 0 -21 3
-24 12 -15 17 17 79 16 72 -2 -4 -11 4 -13 38 -9 43 5 44 4 62 -35 l18 -39 73
-6 c41 -4 81 -4 88 -1 8 3 17 -2 20 -10 9 -23 37 -20 37 4 0 15 7 20 29 20 24
0 29 5 35 31 3 17 6 35 6 40 0 5 -44 10 -97 12 -54 1 -19 3 77 3 96 1 160 -1
143 -3 -33 -4 -43 -17 -20 -26 9 -3 7 -8 -5 -18 -16 -13 -22 -30 -19 -56 2
-19 171 -18 171 1 0 10 26 15 101 21 72 5 102 11 106 21 3 8 13 14 22 14 14 0
14 2 1 10 -13 8 -13 11 0 24 16 15 143 26 156 13 4 -4 18 -7 31 -7 13 0 23 -3
23 -6 0 -15 -31 -34 -59 -36 -17 -1 -31 -8 -31 -15 0 -7 -4 -13 -10 -13 -5 0
-10 7 -10 15 0 8 -8 15 -17 15 -15 0 -16 2 -3 10 12 8 11 10 -7 10 -19 0 -23
-6 -23 -30 0 -28 2 -30 40 -30 29 0 40 -4 40 -15 0 -8 5 -15 10 -15 6 0 10 -7
10 -15 0 -8 5 -15 10 -15 6 0 10 -4 10 -10 0 -6 -32 -10 -75 -10 -74 0 -82 -2
-126 -43 -26 -23 -39 -21 -39 7 0 19 -4 22 -25 18 -15 -2 -25 0 -25 7 0 6 -7
11 -15 11 -10 0 -15 -10 -15 -30 0 -23 -4 -30 -20 -30 -16 0 -20 7 -20 30 l0
30 -149 0 c-140 0 -149 -1 -154 -20 -5 -19 0 -20 69 -20 66 0 74 -2 74 -19 0
-16 11 -20 83 -27 45 -5 105 -8 132 -6 50 3 114 -13 101 -25 -3 -3 1 -15 11
-25 13 -14 31 -18 85 -18 l68 0 0 -40 c0 -33 3 -40 20 -40 13 0 20 -7 20 -20
0 -13 7 -20 18 -20 17 0 19 -13 25 -144 4 -80 4 -197 0 -260 -5 -104 -8 -116
-25 -116 -11 0 -18 -7 -18 -20 0 -13 7 -20 20 -20 17 0 20 -7 20 -40 0 -33 -3
-40 -20 -40 -11 0 -20 -7 -20 -15 0 -10 -10 -15 -33 -15 -42 0 -62 -24 -71
-84 -6 -38 -5 -46 8 -46 9 0 16 -9 16 -20 0 -11 7 -20 15 -20 8 0 15 -6 15
-14 0 -8 3 -21 6 -29 4 -11 -2 -17 -18 -19 -18 -3 -14 -6 17 -13 44 -9 64 -28
65 -62 0 -13 5 -23 10 -23 6 0 10 -8 10 -19 0 -16 -10 -19 -66 -23 -47 -3 -70
-9 -79 -21 -7 -9 -17 -17 -22 -17 -8 0 -33 -42 -33 -55 0 -3 9 -5 20 -5 11 0
20 -4 20 -10 0 -5 -13 -10 -30 -10 -19 0 -34 -7 -42 -20 -7 -11 -21 -20 -30
-20 -11 0 -18 -8 -18 -20 0 -18 -7 -20 -80 -20 -73 0 -80 -2 -80 -20 0 -13 -7
-20 -20 -20 -17 0 -20 -7 -21 -42 0 -24 -3 -37 -6 -30 -3 8 -33 12 -99 12
l-94 0 0 30 c0 25 -4 30 -24 30 -19 0 -28 8 -37 35 -7 19 -17 35 -21 35 -4 0
-8 7 -8 15 0 8 -6 15 -14 15 -8 0 -16 4 -18 9 -2 5 -20 12 -40 16 -31 6 -38 4
-38 -9 0 -9 -7 -16 -16 -16 -22 0 -42 -22 -46 -51 -2 -16 -9 -23 -19 -21 -20
3 -32 -36 -23 -73 8 -34 -3 -75 -21 -75 -18 0 -20 -36 -2 -43 6 -3 1 -7 -13
-8 -14 -2 74 -6 195 -9 186 -5 157 -6 -189 -7 -298 -2 -406 1 -398 9 8 8 6 15
-5 27 -12 12 -17 13 -21 3 -2 -7 -20 -12 -42 -12 -21 0 -41 -4 -44 -9 -3 -5 0
-9 7 -8 6 0 23 -2 37 -4 14 -2 -147 -6 -358 -9 -210 -3 -381 -7 -380 -10 1 -3
-4 -15 -10 -27 -8 -15 -18 -20 -29 -16 -13 5 -15 2 -10 -12 4 -9 4 -23 -1 -29
-5 -6 -14 -30 -22 -53 -7 -24 -17 -43 -23 -43 -5 0 -7 -6 -4 -14 3 -8 -6 -26
-20 -40 -14 -14 -23 -32 -20 -39 3 -8 -4 -22 -15 -31 -11 -10 -17 -24 -14 -32
3 -9 -1 -23 -10 -32 -15 -14 -122 -16 -1167 -19 -632 -1 -1152 -5 -1155 -8 -3
-3 2036 -5 4532 -5 3809 0 4540 2 4551 14 17 16 329 33 348 18 7 -6 47 -6 102
-1 50 4 128 8 175 8 76 0 83 -1 66 -14 -15 -12 -56 -14 -215 -11 -108 2 -257
0 -331 -4 -103 -5 -47 -7 239 -8 l373 -2 -6 43 c-5 33 -3 47 9 57 8 7 15 18
15 25 0 6 9 22 20 35 11 13 20 29 20 37 0 7 5 13 10 13 6 0 10 7 10 15 0 13
49 121 71 155 5 8 14 27 20 43 6 15 15 27 20 27 5 0 9 7 9 16 0 20 41 94 51
94 5 0 14 18 20 40 7 22 18 45 26 51 7 6 13 16 13 21 0 5 16 24 36 43 31 30
34 37 29 68 -5 24 -3 38 7 43 7 5 26 35 42 66 15 31 31 58 34 60 4 2 24 37 45
80 20 42 44 78 51 81 18 7 30 56 17 71 -12 15 -71 20 -71 6 0 -6 -70 -10 -197
-10 -132 0 -193 4 -183 10 11 7 1 9 -35 9 -43 -1 -46 -2 -20 -9 20 -5 -6 -8
-80 -11 -60 -2 -114 -1 -119 3 -5 4 -1 19 10 35 37 57 70 54 -564 53 -658 -1
-943 1 -894 7 31 4 46 23 18 23 -8 0 -17 6 -19 13 -4 9 -6 9 -6 0 -1 -9 -17
-13 -46 -13 -49 0 -62 -17 -17 -22 15 -2 -197 -5 -470 -6 -424 -2 -498 0 -498
12 0 16 -21 26 -56 26 -17 0 -24 -6 -24 -20 0 -15 -7 -20 -29 -20 -53 0 -92
-12 -87 -26 3 -7 1 -16 -3 -19 -5 -3 -12 2 -15 11 -6 16 18 43 37 44 14 0 -20
30 -35 30 -10 0 -9 3 2 10 8 5 11 12 8 15 -20 21 -41 -41 -53 -155 -8 -80 5
-99 56 -81 44 15 79 14 79 -3 0 -8 -5 -16 -11 -18 -6 -2 88 -2 210 0 165 3
221 1 221 -7 0 -7 5 -9 11 -6 12 8 -14 29 -46 38 -24 7 107 8 1012 12 567 2
685 0 694 -11 14 -17 56 -19 61 -3 4 13 378 24 378 12 -1 -5 -7 -19 -15 -33
-11 -19 -14 -21 -15 -7 0 32 -20 17 -20 -15 0 -18 -9 -49 -19 -68 -30 -53 -42
-83 -44 -102 -1 -10 -4 -18 -7 -19 -29 -6 -520 -6 -524 -1 -5 9 -160 8 -568
-3 -185 -5 -258 -4 -258 4 0 6 5 11 10 11 6 0 5 6 -2 14 -11 12 -17 11 -43 -2
-25 -13 -74 -17 -275 -19 -135 -2 -261 -3 -280 -2 -42 1 -121 0 -187 -3 -85
-4 -173 5 -184 18 -17 20 -1 34 38 34 28 0 34 3 29 16 -3 9 -6 18 -6 20 0 2
-18 4 -40 4 -22 0 -40 -4 -40 -10 0 -5 5 -10 10 -10 6 0 10 -4 10 -10 0 -5
-18 -10 -40 -10 -22 0 -40 5 -40 10 0 22 -43 8 -75 -24 -29 -30 -40 -34 -72
-31 -21 1 -46 3 -55 4 -13 1 -18 9 -18 31 0 17 -4 30 -10 30 -5 0 -10 9 -10
20 0 25 -19 27 -22 3 -4 -51 -23 -90 -47 -98 -14 -4 -21 -15 -21 -33 -1 -28
-24 -79 -34 -74 -15 6 -20 1 -7 -7 12 -8 12 -12 -2 -26 -10 -9 -17 -23 -17
-31 0 -8 -4 -14 -10 -14 -5 0 -10 -5 -10 -12 0 -6 -6 -19 -14 -27 -14 -15 -29
-52 -64 -153 -14 -42 -20 -49 -50 -54 -19 -4 -70 -4 -114 -1 -44 3 -124 2
-177 -1 l-96 -7 90 -6 90 -5 -92 -2 c-60 -1 -93 2 -93 9 0 5 -4 8 -9 5 -5 -4
-20 -2 -33 3 l-23 9 28 7 c15 4 27 12 27 18 0 7 35 8 106 4 58 -3 143 -3 190
0 l84 6 0 63 c0 57 -2 64 -20 64 -13 0 -20 7 -20 20 0 21 -26 28 -32 8 -8 -23
-28 4 -28 38 0 22 -7 40 -20 51 -11 10 -20 25 -20 35 0 9 -4 19 -9 23 -5 3
-12 19 -16 35 -5 23 -12 30 -31 30 -13 0 -24 5 -24 12 0 6 -3 8 -7 4 -4 -4 -6
-22 -5 -41 3 -47 -5 -44 -18 5 -6 24 -17 40 -25 40 -8 0 -15 -4 -15 -8 0 -20
-39 -52 -64 -52 -23 0 -26 -4 -26 -36 0 -52 -16 -64 -76 -53 -27 5 -71 7 -99
4 -62 -7 -74 1 -82 51 -3 21 -12 46 -19 55 -8 8 -17 43 -20 77 l-7 62 -46 0
c-35 0 -50 5 -61 20 -8 11 -22 20 -32 20 -14 0 -18 8 -18 40 0 33 -3 40 -20
40 -22 0 -27 -16 -7 -23 6 -2 9 -8 5 -12 -4 -4 -18 4 -32 18 -22 22 -26 35
-26 82 l0 55 -40 0 -40 0 0 100 c0 93 1 100 20 100 13 0 20 7 20 20 0 17 7 20
40 20 l40 0 0 200 c0 127 4 200 10 200 6 0 10 18 10 40 0 37 3 41 30 47 17 3
30 12 30 19 0 11 19 14 80 14 73 0 80 2 80 20 0 13 -7 20 -20 20 -13 0 -20 7
-20 20 0 11 5 20 10 20 6 0 10 25 10 56 0 48 2 55 16 50 9 -4 51 1 93 10 64
14 86 14 134 4 l57 -11 0 -95 c0 -87 1 -94 20 -94 19 0 20 7 20 100 l0 100 80
0 c72 0 80 2 80 19 0 19 34 31 86 31 12 0 29 7 38 15 8 8 19 15 25 15 6 0 11
9 11 20 0 13 7 20 20 20 13 0 20 -7 20 -20 0 -13 7 -20 20 -20 17 0 20 -7 20
-40 0 -22 5 -40 10 -40 6 0 10 18 10 40 0 22 5 40 10 40 6 0 10 -9 10 -20 0
-13 7 -20 20 -20 13 0 20 -7 20 -20 0 -18 7 -20 69 -20 87 0 131 9 131 26 0 8
8 14 19 14 20 0 37 16 43 40 2 8 8 18 13 22 16 12 -48 9 -104 -4 -45 -10 -53
-9 -71 7 -11 10 -20 26 -20 36 0 9 -6 20 -12 22 -7 3 173 6 400 6 l412 1 0
-24 c0 -14 -4 -27 -9 -30 -5 -3 -23 -31 -40 -61 -17 -30 -36 -55 -42 -55 -6 0
-9 -5 -7 -12 3 -8 109 -11 414 -11 225 1 379 -2 342 -6 -105 -12 -107 -27 -6
-43 63 -11 122 -11 400 -2 134 5 149 7 158 25 10 18 22 19 185 19 151 0 174
-2 169 -15 -4 -8 -1 -15 5 -15 6 0 11 -9 11 -19 0 -11 9 -23 20 -26 22 -7 26
-20 9 -30 -6 -4 -8 -14 -5 -22 4 -8 2 -11 -5 -7 -16 10 -29 -16 -29 -58 0 -31
4 -38 20 -38 14 0 20 -6 19 -22 0 -13 -3 -17 -6 -10 -5 14 -33 17 -33 3 0 -5
7 -16 15 -25 20 -20 19 -26 -5 -26 -11 0 -20 -4 -20 -10 0 -5 9 -10 20 -10 11
0 20 5 20 10 0 6 18 10 40 10 22 0 40 -4 40 -10 0 -6 87 -10 240 -10 233 0
240 1 240 20 0 19 -7 20 -234 20 l-234 0 -7 76 c-5 52 -3 79 4 83 6 4 12 26
15 50 2 24 9 47 16 51 7 4 9 13 6 19 -5 8 12 10 56 9 49 -1 54 -2 21 -5 -42
-4 -55 -16 -30 -27 10 -5 10 -7 0 -12 -7 -3 -13 -23 -13 -45 0 -39 0 -39 40
-39 22 0 40 -4 40 -10 0 -5 9 -10 20 -10 11 0 20 -4 20 -10 0 -6 -27 -10 -60
-10 -52 0 -60 -2 -60 -19 0 -17 10 -19 115 -22 166 -6 205 -1 205 22 0 15 -7
19 -35 19 -19 0 -35 5 -35 10 0 6 16 10 35 10 19 0 35 5 35 10 0 6 18 10 40
10 33 0 40 3 40 20 0 11 -4 20 -10 20 -5 0 -10 9 -10 19 0 26 60 47 90 31 11
-6 20 -15 20 -20 0 -6 9 -10 20 -10 11 0 20 4 20 9 0 5 13 12 30 16 16 3 41
16 55 27 22 17 36 20 81 15 30 -3 54 -2 54 4 0 5 14 9 30 9 17 0 30 -4 30 -9
0 -4 -11 -6 -24 -4 -23 5 -24 3 -19 -34 4 -27 -1 -50 -16 -78 -11 -22 -22 -51
-23 -63 l-3 -24 138 2 c122 1 137 -1 137 -16 0 -14 -3 -14 -15 -4 -9 7 -19 9
-23 5 -4 -4 -1 -10 6 -12 6 -3 12 -18 12 -33 0 -26 -4 -29 -37 -32 -33 -3 -38
-6 -39 -29 -1 -32 -11 -49 -28 -49 -13 0 -36 -69 -36 -104 0 -23 28 -20 35 4
6 20 70 44 88 33 17 -10 57 -12 57 -2 0 5 5 9 10 9 6 0 10 -7 10 -15 0 -11 11
-15 39 -15 37 0 39 -1 50 -44 6 -25 11 -59 11 -75 0 -17 5 -31 10 -31 6 0 10
9 10 20 0 13 7 20 20 20 15 0 20 7 20 25 0 18 5 25 20 25 16 0 20 7 20 35 l0
35 60 0 c53 0 60 2 60 20 0 16 7 20 35 20 28 0 35 4 35 20 0 16 -7 20 -35 20
-19 0 -35 -4 -35 -10 0 -16 -149 -13 -166 4 -16 17 -19 46 -4 46 6 0 10 -9 10
-20 0 -18 7 -20 80 -20 73 0 80 2 80 20 0 11 5 20 10 20 6 0 10 -7 10 -15 0
-11 11 -14 42 -13 24 1 37 3 30 6 -26 8 -10 22 28 22 44 0 47 -6 52 -85 3 -37
5 -40 36 -43 24 -2 32 1 32 12 0 9 7 16 15 16 10 0 15 10 15 28 0 44 38 52
252 52 156 0 187 2 192 15 3 8 12 15 20 15 9 0 18 14 22 35 6 33 9 35 45 35
32 0 39 3 39 20 0 17 -7 20 -39 20 -25 0 -41 5 -45 15 -3 8 -12 15 -21 15 -9
0 -15 9 -15 25 0 23 4 25 40 25 33 0 40 3 40 20 0 18 -7 20 -86 20 -100 0
-114 9 -114 70 0 33 4 43 20 47 11 3 20 14 20 24 0 15 7 19 40 19 33 0 40 -3
40 -20 0 -18 7 -20 60 -20 33 0 60 4 60 10 0 6 9 10 20 10 11 0 20 5 20 10 0
6 9 10 20 10 13 0 20 7 20 20 0 13 7 20 20 20 11 0 20 -5 20 -10 0 -22 30 -22
48 -1 17 22 17 21 14 -28 -3 -33 0 -51 7 -51 6 0 11 15 11 33 0 17 5 39 10 47
7 11 10 0 10 -38 0 -45 3 -53 17 -50 11 2 20 18 26 43 14 67 19 73 28 40 5
-18 5 -33 -1 -39 -15 -15 -12 -26 5 -26 9 0 20 -10 25 -22 7 -18 9 -19 9 -5 1
21 31 23 31 2 0 -8 9 -15 20 -15 18 0 20 -7 22 -77 1 -43 3 -61 5 -40 l4 37
95 0 94 0 1 33 c1 25 3 21 11 -20 9 -52 28 -73 28 -33 0 22 15 27 23 8 4 -10
6 -10 6 0 1 8 21 12 66 12 l65 0 0 60 c0 52 2 60 19 60 11 0 21 6 24 13 3 9 9
9 23 1 15 -9 22 -8 33 3 9 10 25 13 47 10 20 -4 35 -1 37 6 3 8 11 3 22 -10 9
-13 20 -23 26 -23 13 0 11 34 -2 47 -7 7 -9 19 -5 28 5 14 9 15 20 5 16 -13
17 -116 20 -1520 l1 -705 -1327 0 c-729 0 -1330 -3 -1334 -8 -4 -4 596 -7
1334 -7 l1342 0 0 2497 c0 1373 -3 2493 -7 2489 -5 -4 -8 -617 -9 -1362 0
-833 -4 -1354 -10 -1354 -5 0 -9 12 -9 28 0 31 -16 52 -39 52 -9 0 -16 7 -16
15 0 8 -7 15 -15 15 -8 0 -15 -7 -15 -15 0 -8 -4 -15 -10 -15 -5 0 -10 -7 -10
-15 0 -8 5 -15 10 -15 6 0 10 -4 10 -9 0 -15 -82 -19 -87 -4 -7 17 -33 17 -33
-1 0 -8 -11 -17 -25 -20 -24 -6 -24 -8 -18 -66 l6 -60 -42 0 -41 0 0 40 c0 33
-3 40 -20 40 -17 0 -20 7 -20 40 0 33 3 40 20 40 16 0 20 7 20 33 0 19 -3 37
-7 41 -5 4 -13 26 -20 49 -11 41 -11 40 -12 -40 l-1 -83 -40 0 -40 0 0 -40 0
-40 -100 0 -100 0 0 80 c0 73 2 80 20 80 17 0 20 7 20 40 0 38 -2 40 -30 40
-16 0 -30 5 -30 10 0 6 5 10 10 10 6 0 10 5 10 10 0 6 -9 10 -20 10 -11 0 -20
5 -20 10 0 6 -9 10 -20 10 -16 0 -20 7 -20 36 0 48 -19 64 -74 64 l-46 0 0 40
c0 33 3 40 20 40 13 0 20 7 20 20 0 13 -7 20 -20 20 -13 0 -20 -7 -20 -20 0
-16 -7 -20 -30 -20 -28 0 -30 -2 -30 -40 0 -22 -4 -40 -10 -40 -6 0 -10 -41
-10 -104 0 -97 -2 -106 -22 -120 -30 -21 -51 -20 -68 4 -8 11 -20 20 -27 20
-7 0 -13 5 -13 10 0 6 -7 10 -15 10 -8 0 -15 -4 -15 -10 0 -15 -40 -12 -57 5
-11 12 -13 29 -9 73 3 31 9 107 14 168 5 81 12 118 26 139 24 37 32 115 12
115 -8 0 -18 -5 -21 -10 -4 -7 -12 -7 -24 0 -10 5 -21 6 -25 3 -3 -4 -13 2
-21 13 -9 11 -14 14 -15 6 0 -17 -49 -66 -58 -58 -3 4 4 13 16 22 12 8 22 23
22 33 0 11 8 22 17 25 14 6 15 9 4 16 -12 7 -11 11 3 25 9 9 23 32 31 51 14
35 45 73 45 57 1 -4 9 17 20 47 10 30 16 58 14 62 -3 5 0 8 6 8 6 0 15 12 21
26 12 32 24 25 13 -8 -4 -13 -9 -25 -9 -28 -1 -3 -8 -18 -15 -35 -18 -41 -21
-56 -15 -85 l6 -25 107 7 c79 5 110 11 118 23 9 12 17 13 38 5 15 -5 43 -10
62 -10 l34 0 0 100 c0 93 -1 100 -20 100 -11 0 -20 5 -20 10 0 6 -9 10 -20 10
-16 0 -20 -7 -20 -30 0 -23 4 -30 20 -30 30 0 26 -36 -5 -42 -29 -6 -35 -2
-35 24 0 10 -4 18 -10 18 -5 0 -10 14 -10 30 0 25 -4 30 -23 30 -12 0 -29 9
-37 20 -10 15 -16 16 -23 7 -6 -9 -11 -8 -19 4 -10 15 -14 13 -34 -10 -20 -23
-23 -24 -29 -8 -4 9 -4 29 -1 43 6 22 11 25 32 20 20 -5 26 -2 34 18 5 13 18
27 30 31 11 3 18 10 15 15 -9 15 9 19 96 21 46 1 90 6 97 12 15 12 16 47 1 47
-6 0 -17 6 -25 14 -9 10 -26 13 -48 9 -28 -4 -34 -2 -39 17 -6 23 -27 19 -27
-6 0 -8 -4 -14 -10 -14 -5 0 -10 5 -10 10 0 6 -4 10 -10 10 -5 0 -10 -7 -10
-15 0 -8 -4 -15 -10 -15 -5 0 -10 4 -10 9 0 6 5 13 10 16 6 3 10 14 10 24 0
10 9 26 20 36 11 10 20 28 20 39 0 12 4 27 9 35 13 21 24 -5 11 -28 -15 -30
-12 -33 15 -15 14 9 25 24 25 34 0 10 5 20 11 22 14 5 0 38 -17 38 -22 0 -16
16 11 28 26 12 34 32 13 32 -7 1 -2 10 11 20 13 11 18 20 11 20 -10 0 -9 5 2
18 8 9 20 36 27 60 6 23 16 40 21 37 6 -4 10 3 10 14 0 11 4 22 9 25 5 3 7 14
5 24 -3 11 3 21 18 27 13 6 26 24 31 44 9 38 25 57 53 64 10 2 -138 5 -331 6
-243 1 -345 5 -332 12 9 5 17 16 17 24 0 8 6 18 14 22 7 4 17 22 23 38 5 17
12 28 15 25 6 -7 38 26 38 39 0 6 -7 11 -15 11 -9 0 -15 10 -15 26 0 14 -4 22
-10 19 -15 -9 0 26 27 61 13 17 23 35 23 40 0 5 20 50 45 99 24 50 45 96 45
104 0 8 6 11 15 7 11 -4 21 6 33 32 9 20 25 43 36 51 15 11 17 23 13 59 -3 31
-1 50 9 59 8 8 14 17 14 21 0 4 -157 7 -350 8 -192 0 -353 3 -356 7 -9 9 22
37 40 37 8 0 18 -4 21 -10 7 -11 57 -13 93 -4 25 7 30 34 6 34 -11 0 -14 6 -9
20 6 18 2 20 -33 20 -22 0 -59 3 -83 6 -41 6 -46 4 -58 -20 -13 -23 -20 -26
-60 -24 l-46 1 45 6 c43 6 41 7 -28 12 -56 4 -76 9 -83 22 -6 10 -22 17 -38
17 -34 0 -50 28 -27 46 9 6 16 16 16 22 0 19 52 40 95 38 39 -1 40 -2 37 -34
-4 -38 11 -47 63 -38 27 5 35 12 35 28 0 14 -5 18 -15 14 -9 -3 -18 1 -22 10
-11 30 12 36 101 29 81 -7 108 -18 69 -28 -11 -3 -6 -5 11 -6 44 -2 125 -43
126 -63 0 -10 -7 -18 -15 -18 -8 0 -15 -4 -15 -9 0 -5 9 -7 21 -4 12 3 24 0
29 -6 4 -7 10 14 14 48 10 86 20 91 171 90 69 0 112 -4 100 -8 -18 -7 -16 -9
12 -15 17 -4 47 -4 66 -1 20 4 43 2 54 -4 14 -8 3 -10 -49 -11 -38 0 -68 -3
-68 -8 0 -4 24 -13 53 -20 28 -7 54 -17 55 -22 2 -6 15 -10 28 -10 13 0 24 -4
24 -10 0 -5 -7 -10 -15 -10 -8 0 -15 -9 -15 -20 0 -18 7 -20 70 -20 l70 0 0
29 c0 22 -6 31 -22 37 -13 4 -35 19 -50 35 l-27 28 22 8 c16 6 -1 10 -58 14
l-80 5 99 2 c76 2 104 6 118 18 16 16 18 16 24 0 8 -20 30 -21 38 0 9 22 8 24
-9 24 -22 0 -18 40 6 69 17 21 24 23 38 14 20 -13 41 0 41 24 0 7 5 13 11 13
6 0 9 10 7 23 -3 25 -30 30 -40 7 -5 -12 -7 -12 -7 3 -1 10 6 20 14 23 8 4 15
14 15 23 0 9 5 23 11 31 8 12 10 8 8 -15 -2 -47 0 -49 20 -26 11 12 17 30 14
41 -4 17 0 20 26 20 24 0 31 -4 31 -20 0 -11 5 -20 10 -20 6 0 10 7 10 15 0 8
6 15 14 15 8 0 16 6 18 12 3 7 30 15 63 18 l59 5 16 65 16 65 52 3 c29 2 52 7
52 12 0 5 9 12 20 15 15 5 20 15 20 41 0 27 -4 34 -20 34 -11 0 -20 7 -20 15
0 8 -4 15 -9 15 -12 0 -2 73 11 81 11 7 28 67 28 102 0 15 7 30 15 33 13 5 15
36 15 190 0 129 3 184 11 184 6 0 9 9 6 20 -3 11 -1 20 4 20 5 0 9 7 9 15 0 8
14 17 35 21 19 3 35 10 35 15 0 5 11 9 24 9 19 0 24 -6 30 -37 8 -49 8 -576 0
-597 -3 -9 -12 -16 -20 -16 -8 0 -14 -4 -14 -9 0 -5 -13 -11 -30 -14 -18 -4
-30 -13 -30 -22 0 -8 -4 -15 -10 -15 -5 0 -10 -4 -10 -10 0 -5 7 -10 15 -10
11 0 15 -10 14 -32 -1 -24 -3 -27 -6 -10 -5 27 -23 29 -23 2 0 -27 -18 -25
-23 3 l-4 22 -2 -22 c0 -12 10 -33 24 -47 19 -19 25 -36 25 -68 0 -59 10 -70
69 -76 l51 -5 0 1887 c0 1251 -3 1886 -10 1886 -5 0 -10 -6 -10 -12 -8 -778
-8 -792 -23 -815 -5 -7 -5 -17 -2 -23 4 -6 -6 -10 -22 -10 -19 0 -24 3 -14 9
18 12 -33 22 -143 28 -89 5 -116 15 -116 46 0 9 6 17 13 20 21 8 -83 20 -129
14 -33 -3 -44 -1 -44 9 0 8 -10 14 -25 14 -14 0 -25 5 -25 10 0 6 5 10 11 10
6 0 8 7 5 16 -5 12 -1 12 22 -3 36 -25 72 -19 72 11 0 22 -5 23 -97 30 -54 4
-99 11 -101 16 -2 6 -21 10 -43 10 l-39 0 0 50 0 50 -60 0 -60 0 0 120 c0 113
1 120 20 120 17 0 20 7 20 40 0 22 -3 40 -8 40 -11 0 -29 51 -36 103 -3 30 -2
47 5 47 18 0 -17 29 -42 35 -14 3 -41 -1 -61 -10 -27 -11 -73 -15 -171 -15
-121 0 -136 2 -152 20 -10 11 -16 22 -14 24 2 2 291 6 641 7 l638 4 0 218 0
217 -47 1 c-27 0 -259 1 -517 0 -258 0 -473 2 -478 5 -4 3 1 23 13 44 12 22
26 37 30 34 5 -3 11 6 15 20 3 13 13 27 21 31 14 5 14 7 -2 19 -13 9 -15 15
-7 20 18 11 14 36 -5 36 -20 0 -5 20 18 24 8 2 26 6 41 10 34 10 72 -19 47
-35 -12 -8 -12 -10 0 -18 11 -7 9 -10 -8 -16 -21 -6 -29 -25 -11 -25 6 0 10 5
10 10 0 6 5 10 10 10 6 0 10 -6 10 -14 0 -20 58 -28 175 -26 133 3 133 3 140
-20 3 -11 12 -20 20 -20 13 0 25 -21 25 -46 0 -12 -33 -14 -190 -14 -120 0
-190 4 -190 10 0 6 -9 10 -20 10 -11 0 -20 -5 -20 -11 0 -6 -7 -8 -16 -5 -8 3
-12 2 -9 -4 4 -6 176 -9 478 -8 260 0 457 3 440 5 -25 3 -33 9 -33 24 0 10 -7
19 -15 19 -8 0 -15 5 -15 10 0 6 6 10 14 10 8 0 16 7 20 15 3 8 17 15 31 15
24 0 25 3 25 55 0 41 -4 55 -14 55 -8 0 -17 -6 -19 -12 -4 -9 -6 -9 -6 -1 -1
6 -10 9 -21 6 -11 -3 -20 -1 -20 5 0 6 18 13 40 17 l40 7 0 218 0 219 -37 4
-38 4 38 1 37 2 0 79 c0 54 -4 81 -12 84 -10 4 -10 6 0 6 9 1 12 28 12 101 l0
100 -2330 0 c-2064 0 -2330 -2 -2330 -15z m3220 -685 c0 -18 7 -20 80 -20 71
0 80 -2 80 -19 0 -17 -13 -19 -143 -25 -167 -9 -217 -3 -217 25 0 12 -7 19
-20 19 -13 0 -20 7 -20 20 0 19 7 20 120 20 113 0 120 -1 120 -20z m-207 -157
c-244 -2 -642 -2 -885 0 -244 1 -45 2 442 2 487 0 686 -1 443 -2z m-115 -1093
l47 0 0 -65 c0 -36 -4 -65 -9 -65 -5 0 -18 -10 -29 -22 -13 -16 -21 -19 -24
-10 -3 6 -11 12 -19 12 -8 0 -14 5 -14 10 0 6 5 10 10 10 6 0 10 6 10 14 0 15
-21 26 -52 26 -11 0 -33 11 -49 24 -26 22 -27 26 -13 40 8 9 21 16 29 16 7 0
16 11 19 25 6 25 6 25 26 5 14 -14 33 -20 68 -20z m-4398 -260 c0 -43 -3 -50
-20 -50 -11 0 -20 6 -21 13 0 10 -2 10 -6 0 -3 -8 -25 -13 -59 -13 l-54 0 0
-55 c0 -48 2 -55 20 -55 11 0 20 -4 20 -10 0 -5 7 -10 15 -10 8 0 17 -12 21
-27 3 -16 10 -38 16 -50 6 -12 7 -34 4 -49 -10 -39 -62 -87 -95 -86 -46 0 -61
-24 -61 -95 0 -40 -4 -62 -10 -58 -5 3 -10 15 -10 26 0 10 -4 19 -10 19 -5 0
-10 7 -10 16 0 10 6 14 15 10 12 -4 15 3 15 32 0 24 -3 32 -9 23 -12 -19 -51
16 -51 46 0 13 -4 23 -10 23 -5 0 -10 -5 -10 -11 0 -5 -4 -8 -9 -5 -19 12 -41
-7 -41 -35 0 -23 -22 -49 -42 -49 -2 0 -1 35 2 77 l5 78 40 5 c31 4 41 10 43
26 2 15 -4 23 -20 28 l-23 6 25 16 c14 9 36 39 50 66 24 49 60 82 60 56 0 -10
2 -10 9 0 7 11 9 10 14 -3 4 -9 1 -18 -8 -21 -22 -9 -18 -24 5 -24 17 0 20 7
20 45 0 43 -12 60 -23 33 -3 -7 -6 -4 -6 6 -1 11 -11 30 -23 44 -23 23 -23 24
-3 35 32 19 65 25 153 26 l82 1 0 -50z m6128 -1015 c10 -10 -1422 -5 -1438 5
-10 7 225 9 709 6 398 -3 726 -8 729 -11z m-2848 -340 c0 -9 9 -15 25 -15 32
0 33 -5 37 -113 l3 -87 -67 0 c-37 0 -70 5 -73 10 -11 18 6 50 26 50 56 0 81
52 34 70 -36 14 -75 55 -75 80 0 17 6 20 45 20 33 0 45 -4 45 -15z m1515 -531
c12 -13 28 -15 66 -11 73 9 79 4 79 -63 0 -82 -5 -90 -54 -90 -29 0 -44 -5
-53 -19 -7 -11 -27 -20 -47 -23 -33 -4 -36 -2 -41 27 -3 16 -4 67 -3 112 3 70
6 83 20 83 9 0 24 -7 33 -16z m-5035 -694 c0 -5 6 -10 13 -10 6 0 36 -10 64
-22 47 -21 53 -26 53 -54 0 -17 7 -37 16 -44 23 -20 14 -64 -13 -68 -17 -2
-26 4 -35 23 -12 26 -14 27 -84 23 -40 -2 -70 0 -68 4 2 3 0 9 -6 13 -6 4 -2
15 10 27 21 23 27 58 10 58 -5 0 -10 9 -10 20 0 11 7 20 15 20 8 0 15 5 15 10
0 6 5 10 10 10 6 0 10 -4 10 -10z m-2092 -368 c-16 -2 -28 -8 -28 -13 0 -5 -5
-9 -11 -9 -6 0 -17 -7 -26 -15 -20 -20 -37 -14 -41 13 -4 24 -8 25 -76 16 -53
-8 -61 -21 -13 -26 17 -2 -18 -8 -78 -15 -61 -7 -119 -15 -129 -19 -17 -7 -18
-4 -12 26 3 19 12 38 19 42 6 4 104 7 217 6 113 -2 193 -4 178 -6z m1310 -4
c-3 -9 -40 -16 -109 -20 -101 -8 -169 -27 -169 -48 0 -5 -9 -10 -20 -10 -25 0
-26 16 -2 29 16 10 16 10 0 11 -17 0 -35 -40 -25 -57 3 -4 1 -18 -4 -30 -7
-19 -16 -23 -51 -23 -42 0 -43 1 -22 18 11 9 26 35 32 57 6 22 18 49 27 60 14
19 16 19 29 2 12 -16 19 -17 53 -7 21 6 83 14 138 17 55 2 102 7 104 9 9 9 22
3 19 -8z m-603 -8 c5 -8 11 -7 21 0 27 23 33 5 14 -39 -11 -24 -20 -49 -20
-57 0 -8 -4 -14 -10 -14 -5 0 -10 -6 -10 -14 0 -8 -8 -23 -17 -35 -18 -22 -18
-22 -35 -2 -16 19 -16 20 4 26 18 6 19 12 13 53 -4 26 -9 50 -12 55 -8 14 -52
7 -61 -10 -6 -10 -16 -14 -26 -10 -10 4 -16 1 -16 -8 0 -17 -18 -19 -39 -6
-12 8 -12 13 2 35 15 22 25 26 79 29 35 2 73 4 85 5 12 1 25 -3 28 -8z m1738
-374 c-6 -49 22 -84 54 -68 22 11 253 -7 253 -19 0 -5 -4 -9 -10 -9 -5 0 -10
-9 -10 -20 0 -27 -43 -174 -52 -178 -4 -2 -10 -35 -14 -73 -5 -54 -10 -69 -23
-69 -14 0 -14 -2 -1 -10 12 -8 11 -10 -7 -10 -13 0 -23 6 -23 13 0 8 -4 7 -11
-3 -9 -12 -12 -13 -16 -1 -5 11 -7 11 -14 0 -6 -10 -11 -11 -16 -3 -11 16
-148 33 -215 27 l-57 -5 -3 48 c-4 68 11 124 34 124 11 0 18 7 18 20 0 11 7
20 15 20 33 0 14 28 -23 35 -30 5 -41 13 -52 38 -8 18 -16 42 -17 55 -2 21 2
22 61 22 35 0 70 6 80 13 17 13 17 15 -3 47 -22 37 -18 44 27 46 28 1 29 0 25
-40z m1042 34 c-11 -5 -14 -9 -7 -9 6 -1 12 -8 12 -16 0 -10 10 -15 29 -15 16
0 36 -7 45 -15 8 -8 24 -15 35 -15 12 0 21 -4 21 -10 0 -5 9 -10 20 -10 11 0
20 5 20 10 0 6 8 14 17 17 10 4 27 17 39 30 17 19 32 23 78 23 47 0 56 -3 56
-17 0 -15 2 -16 10 -3 6 10 10 11 10 3 0 -7 9 -13 20 -13 16 0 20 -7 20 -35 0
-23 -5 -35 -14 -35 -25 0 -27 -30 -3 -39 20 -8 22 -15 19 -55 -3 -37 -8 -46
-23 -46 -10 0 -19 -7 -19 -15 0 -11 7 -14 25 -9 31 8 55 -10 55 -42 0 -17 -7
-25 -27 -30 -40 -10 -53 -28 -53 -68 0 -31 -4 -36 -32 -44 -18 -5 -32 -14 -30
-21 1 -6 -9 -11 -23 -11 -14 0 -25 5 -25 10 0 6 -30 10 -69 10 -39 0 -73 -4
-76 -10 -3 -5 -35 -10 -69 -10 -55 0 -64 3 -69 20 -4 16 -9 18 -35 11 -17 -5
-38 -13 -48 -19 -10 -5 -31 -6 -53 -1 -55 13 -81 11 -81 -6 0 -8 -7 -15 -15
-15 -8 0 -15 -7 -15 -16 0 -8 4 -13 9 -9 6 3 15 -4 21 -15 10 -19 8 -20 -40
-20 -56 0 -60 6 -29 39 18 19 19 25 8 32 -10 6 -10 9 -1 9 6 0 12 10 12 23 0
27 -50 62 -57 40 -3 -7 -13 -13 -24 -13 -10 0 -19 -7 -19 -15 0 -11 -12 -15
-49 -15 -27 0 -56 3 -65 6 -18 7 -23 64 -6 64 6 0 10 7 10 15 0 8 4 15 9 15 5
0 12 18 16 40 6 37 8 39 36 33 22 -4 29 -2 29 11 0 9 8 16 20 16 11 0 20 5 20
10 0 6 9 10 20 10 11 0 20 5 20 11 0 6 14 9 33 7 20 -2 38 3 50 15 19 19 22
37 7 37 -5 0 -10 14 -10 30 0 23 -5 30 -19 30 -11 0 -22 6 -25 13 -5 10 -7 10
-12 0 -7 -15 -44 -17 -44 -3 0 6 -16 10 -35 10 -29 0 -36 4 -41 26 -9 37 26
63 84 64 36 0 45 -4 49 -20 3 -11 10 -21 17 -21 6 -1 -5 -5 -24 -8 -30 -6 -24
-8 41 -15 73 -7 129 4 129 26 0 4 7 8 15 8 26 0 16 19 -12 26 -52 11 -48 12
42 13 59 0 83 -3 70 -9z m2757 -96 c12 -7 -5 -89 -21 -101 -19 -14 -43 2 -39
26 2 9 -4 24 -14 35 -13 14 -25 17 -53 12 -30 -6 -36 -11 -33 -29 3 -20 -2
-23 -50 -27 -39 -4 -56 -11 -68 -28 -12 -18 -23 -21 -56 -19 -24 2 -45 -2 -53
-10 -8 -7 -18 -13 -24 -13 -6 0 -11 -4 -11 -9 0 -16 -41 -20 -47 -5 -3 8 -11
14 -19 14 -9 0 -14 11 -14 30 0 18 -6 33 -15 36 -9 4 -15 19 -15 39 0 18 -6
35 -12 38 -17 5 29 8 179 10 66 1 125 6 129 10 8 8 221 -1 236 -9z m-1737
-183 c6 -1 -1 -11 -15 -22 -14 -12 -26 -24 -26 -28 -7 -32 -19 -51 -32 -51 -8
0 -25 -11 -38 -25 -16 -18 -33 -25 -59 -25 -20 0 -43 -7 -51 -15 -19 -18 -62
-30 -72 -20 -4 4 -1 10 6 12 15 6 16 40 1 45 -6 2 -13 32 -16 67 l-6 64 44 -5
c24 -3 64 -3 89 1 38 6 143 7 175 2z m1570 -491 c17 -6 14 -9 -18 -15 -20 -4
-47 -5 -59 -2 -12 3 -29 2 -39 -3 -21 -12 -91 -14 -136 -4 -20 4 -33 2 -33 -4
0 -11 58 -37 66 -29 3 3 14 -2 25 -11 13 -11 17 -23 12 -41 -8 -33 -35 -61
-41 -43 -4 14 -82 17 -82 2 0 -5 -18 -10 -40 -10 -33 0 -40 3 -40 20 0 11 -4
20 -10 20 -5 0 -10 5 -10 10 0 6 7 10 16 10 16 0 84 58 84 72 0 4 -28 8 -62 8
-35 0 -81 4 -103 8 -25 4 49 9 195 12 129 3 240 6 245 7 6 1 19 -2 30 -7z
m674 -2 c47 0 70 -3 51 -5 -37 -5 -70 -32 -70 -58 0 -10 -10 -15 -30 -15 -16
0 -30 -4 -30 -9 0 -5 -19 -12 -42 -16 -24 -4 -50 -9 -59 -11 -11 -2 -22 10
-34 36 -23 50 -60 69 -139 72 -38 1 -16 4 59 8 66 4 140 5 164 3 24 -1 83 -4
130 -5z m406 2 c55 -1 92 -4 83 -7 -14 -3 -18 -15 -18 -56 0 -76 -8 -97 -36
-97 -30 0 -40 -21 -24 -49 13 -25 3 -51 -11 -30 -6 10 -9 6 -9 -14 0 -21 -4
-27 -17 -25 -13 2 -19 -5 -21 -22 -2 -15 -15 -34 -32 -45 -17 -11 -30 -28 -30
-39 0 -12 -5 -16 -16 -12 -8 3 -13 2 -9 -3 3 -5 1 -21 -5 -35 -6 -17 -6 -26 0
-26 6 0 10 -9 10 -19 0 -22 -31 -81 -42 -81 -5 0 -8 -7 -8 -15 0 -16 -46 -32
-58 -20 -4 4 3 14 16 22 12 9 22 23 22 32 0 9 5 22 12 29 16 16 -3 35 -28 30
-14 -3 -18 -11 -17 -33 2 -17 0 -36 -2 -44 -9 -23 -45 23 -45 56 0 59 -8 69
-51 65 -30 -3 -39 -8 -39 -23 0 -10 -7 -19 -15 -19 -8 0 -15 -9 -15 -20 0 -11
-4 -20 -10 -20 -5 0 -10 9 -10 20 0 17 -7 20 -40 20 -33 0 -40 3 -40 20 0 15
-7 20 -25 20 -18 0 -25 5 -25 20 0 11 -7 20 -15 20 -10 0 -15 10 -15 28 0 16
-3 32 -7 35 -10 11 -3 130 9 144 6 7 26 13 44 13 25 0 34 4 34 16 0 13 7 15
38 9 20 -4 39 -11 40 -16 5 -13 42 -11 42 2 0 6 6 17 13 24 6 8 18 21 25 30 7
8 17 13 23 10 5 -4 9 -1 9 5 0 6 5 8 10 5 6 -4 16 -3 23 2 7 4 21 8 32 8 23
-1 44 22 45 46 0 11 -12 19 -37 25 l-38 8 45 6 c25 3 65 5 90 4 25 -1 90 -3
145 -4z m-927 -7 c-24 -6 -26 -73 -2 -73 15 0 44 -23 44 -34 0 -3 -9 -6 -20
-6 -11 0 -20 -6 -20 -14 0 -8 -6 -17 -12 -19 -7 -3 -3 -6 10 -6 12 -1 22 -7
22 -16 0 -9 9 -15 24 -15 43 0 56 -11 62 -51 4 -23 12 -39 20 -39 8 0 14 -6
14 -14 0 -9 15 -17 39 -21 35 -6 40 -10 46 -41 8 -48 -24 -84 -76 -84 l-37 0
-7 -80 c-4 -44 -11 -80 -15 -80 -4 0 -10 -13 -13 -30 -4 -18 -13 -30 -22 -30
-8 0 -15 -7 -15 -15 0 -10 -8 -13 -27 -10 -43 6 -112 33 -130 51 -11 11 -18
13 -21 5 -7 -20 -42 -13 -42 9 0 13 7 20 20 20 18 0 20 7 20 68 0 56 -3 70
-20 82 -17 12 -20 26 -20 92 0 71 2 78 20 78 11 0 20 5 20 10 0 6 7 10 15 10
8 0 15 5 15 10 0 6 -7 10 -15 10 -8 0 -15 4 -15 10 0 5 -11 12 -24 16 -15 3
-27 15 -30 30 -4 13 -13 24 -21 24 -18 0 -20 36 -2 43 9 4 8 8 -3 17 -11 9
-12 13 -2 17 7 2 19 11 27 20 8 8 31 17 51 20 28 5 35 10 31 24 -5 17 1 19 61
18 37 -1 59 -3 50 -6z m-373 -193 c4 -25 12 -40 21 -40 10 0 14 -12 14 -40 0
-22 -4 -40 -10 -40 -5 0 -10 -20 -10 -44 0 -54 -8 -76 -26 -76 -10 0 -14 -12
-14 -40 0 -27 4 -40 14 -40 9 0 15 -18 19 -56 7 -63 0 -94 -15 -72 -7 10 -11
10 -15 1 -2 -7 -13 -13 -24 -13 -26 0 -24 -18 4 -23 14 -3 10 -5 -13 -6 -47
-1 -80 9 -80 24 0 9 -19 14 -55 17 -32 2 -55 -1 -55 -7 -1 -27 -20 24 -20 53
0 25 -4 32 -20 32 -11 0 -20 -4 -20 -10 0 -5 -4 -10 -8 -10 -11 0 -32 60 -32
91 0 25 2 25 60 21 l60 -4 0 73 c0 41 -5 90 -10 110 -7 23 -7 51 -1 75 5 22 9
31 10 22 1 -15 9 -17 54 -12 72 7 127 25 127 41 0 7 9 13 19 13 15 0 21 -10
26 -40z m-521 -276 c9 -3 16 -15 16 -25 0 -10 5 -19 10 -19 6 0 10 -9 10 -20
0 -11 -4 -20 -10 -20 -14 0 -12 -37 3 -44 10 -5 10 -7 0 -12 -7 -3 -13 -12
-13 -19 0 -17 -21 -24 -45 -14 -11 4 -36 8 -56 8 -28 1 -38 6 -47 26 -6 14
-18 25 -27 25 -16 0 -18 12 -9 48 5 16 16 24 45 28 22 4 39 12 39 20 0 11 17
18 57 23 6 0 18 -2 27 -5z m1526 -224 c8 -11 22 -20 32 -20 10 0 18 -4 18 -10
0 -5 42 -11 92 -12 84 -3 93 -5 96 -23 3 -17 1 -17 -7 -5 -9 12 -13 13 -20 2
-4 -8 -11 -13 -15 -13 -28 4 -46 -1 -46 -14 0 -8 -4 -15 -10 -15 -5 0 -10 7
-10 15 0 9 -9 15 -25 15 -14 0 -25 -4 -25 -10 0 -5 -7 -10 -15 -10 -11 0 -15
-11 -15 -40 0 -29 4 -40 15 -40 8 0 15 -6 16 -12 0 -10 2 -10 6 0 6 14 29 16
38 2 3 -5 3 -20 0 -33 -5 -19 -11 -23 -31 -19 -19 3 -24 0 -24 -17 0 -14 -6
-21 -20 -21 -11 0 -20 5 -20 10 0 6 7 10 15 10 19 0 19 7 1 26 -8 7 -17 19
-19 26 -4 9 -8 10 -14 2 -4 -6 -17 -14 -28 -18 -16 -6 -18 -5 -7 5 6 7 12 21
12 31 0 13 -8 18 -31 18 -24 0 -30 4 -27 18 3 12 12 16 31 15 15 -1 27 2 27 8
0 5 -4 9 -10 9 -13 0 -13 37 1 42 14 5 0 38 -16 38 -7 0 -15 -3 -18 -7 -2 -5
-2 -2 0 5 1 8 3 25 3 38 0 30 29 33 50 4z m-3636 -254 c6 -27 5 -45 -3 -58 -6
-10 -11 -29 -11 -43 0 -14 -4 -25 -10 -25 -5 0 -10 -25 -10 -55 0 -30 5 -55
10 -55 17 0 11 -14 -11 -28 -17 -11 -26 -11 -50 0 -16 7 -29 19 -29 25 0 7 -7
13 -15 13 -8 0 -15 3 -15 8 0 14 -55 32 -102 32 l-48 0 0 104 0 103 43 11 c23
5 87 9 142 8 l99 -1 10 -39z m-634 -110 c0 -98 -3 -136 -12 -139 -10 -4 -9 -8
2 -17 11 -9 12 -13 3 -17 -7 -2 -13 -13 -13 -23 0 -14 9 -20 33 -23 20 -2 10
-4 -25 -5 -47 -2 -56 1 -52 13 4 8 10 15 15 15 5 0 9 4 9 9 0 17 -59 33 -107
29 -47 -3 -48 -3 -51 29 -3 28 0 32 27 38 17 4 31 13 31 21 0 8 10 15 23 15
l22 2 -22 4 c-13 2 -23 11 -23 19 0 9 -11 14 -30 14 -25 0 -30 4 -36 35 -4 25
-2 41 8 53 8 9 18 24 21 34 5 13 19 16 81 14 42 -1 76 2 76 6 0 5 5 8 10 8 6
0 10 -51 10 -134z m1759 -645 c157 -1 93 -14 -96 -19 -166 -4 -206 -8 -175
-19 6 -3 12 -9 12 -15 0 -10 25 -38 34 -38 3 0 6 11 6 25 l0 25 98 -1 c53 -1
89 -3 80 -6 -10 -2 -18 -13 -18 -24 0 -10 -2 -19 -4 -19 -2 0 -11 -3 -20 -6
-12 -5 -16 0 -16 20 0 24 -4 26 -40 26 -33 0 -40 -3 -40 -20 0 -13 -7 -20 -19
-20 -11 0 -22 -6 -25 -12 -5 -10 -7 -10 -12 0 -10 22 -24 12 -24 -18 0 -16 -4
-30 -10 -30 -5 0 -10 -9 -10 -20 0 -16 -7 -20 -30 -20 -16 0 -30 -5 -30 -11 0
-6 -8 -8 -17 -5 -10 3 -29 -1 -43 -9 -23 -13 -16 -14 85 -16 l110 -2 -155 -9
c-138 -8 -347 -4 -358 6 -2 2 5 19 15 38 l18 33 3 -27 c4 -30 19 -37 28 -13 4
9 19 15 40 15 19 0 34 5 34 10 0 6 7 10 15 10 11 0 15 11 15 40 0 28 -4 40
-14 40 -16 0 -31 34 -21 50 4 6 15 6 31 0 34 -13 36 -13 29 9 -11 35 20 40
230 36 110 -2 242 -4 294 -4z m-2586 -505 c-4 -20 -11 -24 -39 -23 -19 1 -34
4 -34 7 0 16 -57 30 -125 30 -68 0 -75 -2 -75 -20 0 -11 5 -20 10 -20 6 0 10
5 10 10 0 6 5 10 10 10 6 0 10 -8 10 -18 0 -28 -110 -44 -162 -24 -21 8 -38
21 -38 29 0 22 -31 15 -56 -14 -24 -28 -24 -46 1 -36 8 3 15 0 15 -6 0 -6 9
-20 21 -32 13 -13 18 -26 13 -37 -4 -9 -9 -32 -12 -49 -3 -26 -9 -33 -26 -33
-17 0 -28 12 -46 50 -20 42 -28 50 -52 52 -49 2 -53 3 -59 12 -4 4 -15 3 -26
-3 -15 -8 -25 -7 -39 4 -11 8 -14 15 -7 15 6 0 14 18 18 40 6 36 9 39 32 34
17 -5 24 -3 23 7 -6 40 -10 39 319 39 l318 0 -4 -24z m-336 -1742 c17 -5 22
-15 25 -52 2 -26 0 -50 -5 -53 -5 -4 -4 -9 2 -13 8 -5 7 -12 -3 -22 -12 -11
-48 -14 -173 -13 -139 0 -154 2 -123 13 19 7 39 22 45 34 8 19 18 22 67 22 32
0 58 4 58 10 0 6 -7 10 -15 10 -8 0 -15 5 -15 10 0 6 7 10 15 10 8 0 15 9 15
19 0 25 57 38 107 25z m-631 -84 c36 0 64 -4 64 -10 0 -5 -7 -10 -15 -10 -8 0
-15 -7 -15 -15 0 -8 -9 -19 -19 -25 -22 -11 -499 -15 -487 -3 3 4 27 6 53 4
28 -1 49 3 54 10 5 9 20 9 60 2 43 -9 61 -8 94 4 22 9 45 23 52 31 14 17 86
32 91 20 2 -4 33 -8 68 -8z m4033 -53 c221 -2 291 -5 291 -14 0 -7 -7 -10 -15
-7 -11 5 -15 -1 -15 -19 0 -14 -7 -27 -15 -31 -8 -3 -15 -15 -15 -26 0 -11 -3
-20 -7 -20 -5 0 -21 -25 -38 -56 -42 -78 -60 -84 -259 -84 -88 0 -168 5 -176
10 -13 9 -13 10 0 10 11 0 10 4 -4 12 -15 8 -24 8 -40 -3 -22 -13 -155 -22
-301 -19 -89 2 -155 2 -420 0 -114 -1 -181 2 -183 8 -2 7 -15 7 -40 0 -22 -6
-70 -7 -117 -3 -44 4 -96 7 -117 8 -20 1 -34 5 -32 9 2 3 -9 13 -26 21 -21 11
-30 12 -31 4 0 -7 -4 -3 -9 8 -7 17 -9 17 -9 3 -1 -25 -28 -23 -36 2 -3 11
-11 20 -16 20 -14 0 -11 20 6 36 13 14 17 14 31 0 22 -22 54 -21 54 3 0 15
-10 19 -59 24 -33 4 -78 13 -100 20 -27 10 -41 11 -44 4 -2 -7 -40 -6 -121 3
-70 8 -112 17 -104 22 7 4 32 5 56 2 28 -4 42 -3 42 5 0 6 9 11 19 11 11 0 26
6 33 14 8 7 27 16 44 18 16 3 23 3 16 1 -7 -3 -10 -9 -7 -14 8 -12 45 -12 45
0 0 6 9 9 20 8 11 -1 20 -5 20 -9 0 -4 11 -8 25 -8 14 0 25 5 25 10 0 6 28 10
65 10 62 0 65 -1 65 -24 0 -19 4 -23 20 -19 11 3 27 14 34 25 13 18 35 19 572
22 426 3 559 7 562 16 3 9 6 9 12 0 5 -8 86 -12 299 -13z m-2570 -344 c-1 -4
-6 -20 -11 -35 l-10 -28 -246 2 c-139 0 -225 4 -197 8 46 6 47 7 13 8 -33 2
-38 5 -38 27 l0 24 133 3 c205 5 357 1 356 -9z m-2593 -2 c-9 -15 82 -23 223
-22 104 2 138 -1 156 -13 15 -10 55 -16 112 -19 48 -1 -69 -4 -262 -5 -192 0
-369 3 -392 7 -24 5 -43 4 -43 0 0 -14 -48 -10 -53 4 -4 9 -8 8 -16 -3 -10
-13 -12 -13 -21 0 -6 10 -10 11 -10 3 0 -18 -149 -17 -184 0 l-26 14 26 11
c14 7 72 12 130 12 58 0 103 4 100 8 -3 5 56 9 130 10 74 1 132 -2 130 -7z"/>
<path d="M12880 10725 l0 -35 120 0 c68 0 120 4 120 9 0 6 19 12 43 14 l42 4
-42 1 c-36 2 -43 5 -43 22 0 19 -7 20 -120 20 l-120 0 0 -35z"/>
<path d="M0 5345 c0 -2898 2 -5266 5 -5263 7 7 7 10519 0 10526 -3 3 -5 -2365
-5 -5263z"/>
<path d="M18971 9223 c-1 -14 5 -23 14 -23 9 0 15 -10 15 -26 0 -14 -7 -32
-15 -40 -10 -10 -15 -35 -15 -75 l0 -59 35 0 c28 0 35 4 35 20 0 13 7 20 20
20 17 0 20 7 20 40 0 33 -3 40 -20 40 -17 0 -20 7 -20 40 0 33 3 40 20 40 11
0 20 5 20 10 0 6 -22 10 -49 10 -30 0 -51 5 -54 13 -3 6 -6 2 -6 -10z"/>
<path d="M9940 7843 c-11 -8 -20 -11 -20 -7 0 3 -9 -4 -20 -17 -11 -14 -19
-18 -20 -11 0 24 -20 1 -20 -24 0 -17 5 -24 20 -24 13 0 20 -7 20 -20 0 -13 7
-20 20 -20 11 0 20 -5 20 -12 0 -6 7 -3 16 8 8 10 12 12 8 4 -4 -8 3 -5 15 8
12 12 27 20 32 16 6 -3 18 4 28 15 10 12 23 21 30 21 15 0 14 35 -1 48 -7 5
-34 14 -60 20 -37 7 -52 6 -68 -5z"/>
<path d="M12080 7273 c0 -7 -7 -13 -16 -13 -8 0 -22 -6 -30 -14 -12 -13 -10
-16 19 -26 30 -11 32 -15 29 -51 -5 -48 12 -67 64 -71 37 -3 39 -5 42 -39 l3
-35 49 10 c36 7 52 16 56 30 7 22 -20 48 -42 39 -8 -3 -14 0 -14 6 0 6 5 11
11 11 12 0 3 59 -12 75 -5 5 -9 22 -9 37 0 24 -4 28 -30 28 -16 0 -30 5 -30
10 0 6 -16 10 -35 10 -21 0 -35 -5 -35 -12 0 -9 -4 -8 -10 2 -6 10 -10 11 -10
3z"/>
<path d="M14800 7055 c0 -8 -4 -15 -9 -15 -5 0 -11 -11 -13 -24 -4 -20 1 -25
31 -35 20 -6 45 -12 56 -13 12 -2 21 -12 23 -26 2 -12 10 -22 18 -22 10 0 14
-14 14 -56 0 -46 -4 -60 -22 -75 -19 -17 -20 -23 -11 -53 6 -19 8 -55 6 -80
-4 -36 -2 -47 11 -52 11 -4 16 -18 16 -45 0 -32 3 -39 20 -39 11 0 20 -4 20
-10 0 -5 9 -10 20 -10 11 0 20 5 20 10 0 6 9 10 20 10 13 0 20 -7 20 -20 0
-17 7 -20 40 -20 l40 0 0 88 c0 162 -11 272 -28 272 -11 0 -13 8 -8 30 3 18 0
39 -7 50 -12 21 -37 27 -37 10 0 -5 -17 -10 -39 -10 -37 0 -39 2 -46 36 -4 24
-13 38 -26 41 -10 3 -19 11 -19 18 0 8 -10 17 -22 21 -12 3 -28 13 -36 20 -18
19 -52 18 -52 -1z"/>
<path d="M11711 6853 c0 -7 -10 -13 -21 -13 -11 0 -25 -9 -32 -20 -7 -11 -18
-20 -24 -20 -28 0 -32 -66 -5 -73 23 -6 40 -78 42 -175 1 -37 3 -59 6 -49 4
15 18 17 104 17 l99 0 0 40 c0 28 -4 40 -15 40 -10 0 -16 17 -21 60 -5 50 -10
60 -25 60 -15 0 -19 7 -19 33 0 62 -9 77 -45 77 -24 0 -35 5 -38 18 -3 9 -5
11 -6 5z"/>
<path d="M13040 6680 c0 -22 -4 -40 -10 -40 -5 0 -10 -24 -10 -54 0 -59 7 -66
66 -66 24 0 34 -5 34 -15 0 -8 9 -15 20 -15 19 0 20 7 20 95 l0 95 -40 0 c-33
0 -40 3 -40 20 0 13 -7 20 -20 20 -17 0 -20 -7 -20 -40z"/>
<path d="M14040 6380 c0 -13 7 -20 20 -20 19 0 20 -4 14 -51 -8 -63 -1 -69 82
-69 80 0 124 9 124 26 0 10 13 14 40 14 34 0 40 3 40 21 0 19 -5 21 -67 18
-94 -4 -133 7 -133 35 0 34 -19 46 -72 46 -41 0 -48 -3 -48 -20z"/>
<path d="M15401 6233 c-1 -22 -7 -33 -21 -38 -23 -7 -27 -35 -6 -35 9 0 17
-15 21 -40 7 -39 8 -40 46 -40 31 0 39 -4 39 -18 0 -25 19 -42 47 -42 18 0 23
6 23 26 0 16 11 36 25 50 14 13 25 32 25 44 0 11 7 20 15 20 11 0 15 11 15 40
0 29 -4 40 -15 40 -8 0 -15 5 -15 10 0 6 -33 10 -80 10 -47 0 -80 -4 -80 -10
0 -14 -27 -12 -33 3 -3 6 -6 -2 -6 -20z"/>
<path d="M11590 6224 c-51 -17 -90 -39 -90 -51 0 -7 5 -13 10 -13 6 0 10 -9
10 -20 0 -11 5 -20 10 -20 6 0 10 -6 10 -14 0 -8 9 -18 20 -21 11 -3 20 -13
20 -21 0 -19 30 -51 50 -54 8 -2 30 3 48 11 29 12 32 17 32 57 0 32 -7 52 -25
74 -14 16 -25 38 -25 48 0 22 -36 35 -70 24z"/>
<path d="M14963 6163 c-35 -3 -43 -8 -43 -24 0 -10 -7 -19 -15 -19 -11 0 -15
-11 -15 -37 0 -21 4 -43 8 -49 4 -6 43 -14 87 -18 44 -4 94 -9 111 -12 28 -5
32 -3 37 23 3 15 1 51 -6 80 -14 65 -25 68 -164 56z"/>
<path d="M4542 5828 c8 -19 -10 -38 -34 -38 -10 0 -21 -7 -24 -15 -4 -8 -11
-15 -18 -15 -11 0 -56 -59 -56 -74 0 -12 -29 -38 -38 -33 -13 9 -41 -19 -45
-42 -2 -13 -10 -27 -17 -31 -8 -5 -11 -12 -7 -16 4 -4 16 1 27 11 18 16 20 16
20 2 0 -10 -4 -17 -9 -17 -5 0 -12 -10 -16 -22 -4 -13 -8 -26 -10 -30 -1 -5
-3 -11 -4 -15 -1 -5 -10 3 -20 17 -17 22 -19 22 -18 5 1 -11 6 -23 11 -27 6
-4 5 -18 -3 -35 -11 -24 -14 -25 -22 -11 -5 10 -16 15 -24 12 -17 -7 -21 -34
-5 -34 6 0 10 -13 10 -30 0 -16 -4 -30 -10 -30 -14 0 -12 -48 2 -52 7 -3 11
-25 10 -61 -1 -51 1 -57 18 -57 14 0 20 7 20 22 0 20 1 20 20 3 17 -15 31 -17
107 -11 49 3 151 7 228 7 123 1 144 4 171 22 37 24 64 70 67 112 l2 30 -215 3
c-118 1 -210 6 -205 10 6 4 22 32 37 63 20 41 34 58 53 63 21 5 25 11 20 27
-4 11 -3 19 2 18 19 -3 25 2 16 14 -6 6 -8 29 -6 49 l5 37 228 3 c171 2 231 6
243 16 9 8 21 11 27 7 15 -9 -7 -35 -31 -35 -21 0 -34 -16 -19 -25 5 -3 10
-15 10 -25 0 -20 -42 -103 -66 -131 -8 -8 -14 -23 -14 -32 0 -9 -3 -17 -8 -17
-10 0 -32 -73 -32 -105 0 -15 5 -35 10 -46 9 -15 7 -19 -6 -19 -11 0 -14 -5
-10 -16 3 -9 6 -18 6 -20 0 -14 19 0 23 17 l6 21 34 -21 c30 -19 49 -21 158
-20 68 0 187 4 264 8 125 7 146 11 197 36 45 22 61 37 77 69 11 23 34 56 51
74 17 17 38 48 46 67 8 19 20 35 27 35 6 0 4 5 -5 11 -26 15 -22 26 12 32 29
6 30 8 23 52 -3 27 -2 45 4 45 5 0 15 11 21 25 35 76 -8 144 -95 151 -26 1
-57 4 -68 5 -53 6 -516 -4 -490 -11 21 -5 24 -8 10 -9 -11 -1 -33 -15 -49 -31
-27 -28 -30 -29 -42 -12 -6 10 -14 27 -16 39 -3 21 -7 22 -270 27 -147 4 -275
9 -284 13 -13 5 -16 2 -12 -9z m975 -174 c-3 -4 1 -20 9 -35 12 -25 19 -28 44
-24 38 7 40 -12 3 -21 -55 -13 -67 -43 -39 -95 7 -15 10 -32 6 -39 -6 -9 -9
-8 -13 6 -4 13 -5 11 -4 -7 4 -54 -15 -59 -202 -59 -94 0 -171 2 -171 3 0 13
34 68 45 74 7 5 13 12 13 16 -2 14 25 77 33 77 4 0 10 20 13 45 7 41 26 64 26
30 0 -9 6 -12 16 -8 9 3 14 13 11 24 -5 18 3 19 106 19 61 0 108 -3 104 -6z"/>
<path d="M6853 5828 c1 -8 -9 -13 -27 -13 -23 -1 -33 -8 -44 -33 -9 -18 -21
-32 -28 -32 -7 0 -10 -8 -7 -20 8 -31 -14 -52 -38 -37 -16 10 -21 9 -29 -3 -5
-8 -13 -11 -17 -6 -4 5 -2 11 5 13 6 3 12 15 12 27 0 13 9 35 20 49 29 36 25
43 -22 41 -24 -1 -62 -2 -86 -3 -56 -1 -88 -33 -137 -136 -21 -44 -41 -82 -45
-85 -4 -3 -11 -16 -15 -30 -10 -34 -24 -50 -38 -45 -18 7 -48 -62 -41 -91 5
-17 2 -24 -9 -24 -8 0 -17 -5 -19 -12 -3 -8 -41 -11 -129 -11 -153 1 -175 5
-84 13 l70 6 -72 2 c-43 1 -73 -2 -73 -8 0 -5 -7 -10 -15 -10 -18 0 -19 14 -2
32 17 19 47 77 47 91 0 7 9 18 20 25 11 7 20 17 20 22 0 6 7 27 16 48 17 37
17 37 25 12 7 -21 8 -19 5 11 -2 20 0 42 6 50 7 11 9 9 5 -8 -3 -13 1 -24 10
-27 22 -9 23 -8 23 29 0 19 -5 35 -11 35 -5 0 -3 10 5 22 9 12 16 33 16 45 0
13 5 23 11 23 8 0 8 4 0 14 -17 20 -144 21 -161 1 -7 -8 -18 -15 -26 -15 -7 0
-16 -10 -19 -22 -4 -13 -17 -36 -29 -53 -13 -16 -37 -59 -55 -95 -34 -67 -90
-161 -102 -170 -4 -3 -15 -29 -25 -59 -14 -45 -15 -61 -6 -97 7 -24 9 -49 6
-57 -4 -11 6 -14 43 -15 37 0 51 -5 62 -21 7 -12 22 -21 32 -21 11 0 19 -7 19
-15 0 -8 -5 -15 -11 -15 -6 0 -4 -7 5 -15 8 -8 24 -15 36 -15 26 0 61 31 42
38 -16 5 -16 29 1 35 10 4 10 6 0 6 -7 1 -13 5 -13 9 0 9 310 8 348 -1 14 -4
22 -1 22 7 0 16 48 51 83 60 15 3 27 13 27 22 0 8 9 24 20 36 11 12 20 30 20
41 0 13 5 17 15 13 11 -4 15 2 15 23 0 16 6 40 13 55 l14 25 11 -37 c8 -24 8
-38 2 -40 -6 -2 -10 -13 -10 -25 0 -24 -38 -107 -50 -107 -13 0 -18 -36 -8
-54 7 -13 22 -16 66 -15 86 3 125 22 152 75 13 24 27 44 31 44 4 0 10 10 14
23 12 45 40 97 52 97 6 0 18 6 25 14 8 7 24 17 36 20 17 6 22 3 22 -9 0 -9 4
-14 9 -11 10 7 46 -90 43 -115 -4 -25 39 -114 48 -99 6 9 9 6 12 -11 3 -23 5
-24 97 -25 l94 0 28 39 c15 21 47 77 69 123 22 46 44 84 49 84 5 0 17 22 27
49 10 28 21 48 24 46 4 -2 7 2 8 10 1 8 3 21 4 29 1 11 9 13 30 9 21 -4 28 -2
28 10 0 8 -6 18 -12 21 -7 3 -4 4 7 3 21 -2 22 3 9 56 -5 21 -3 27 10 27 9 0
16 8 16 19 0 11 5 21 11 23 9 3 9 10 0 26 -10 18 -21 22 -64 23 -69 2 -91 -1
-98 -12 -3 -5 -13 -7 -22 -3 -12 4 -17 1 -17 -10 0 -8 -9 -20 -19 -26 -20 -10
-37 -45 -33 -67 4 -19 -18 -54 -29 -48 -5 4 -9 1 -9 -4 0 -6 -6 -11 -12 -11
-26 0 -42 -18 -30 -32 13 -16 11 -55 -4 -82 -12 -20 -34 -14 -34 9 0 9 -6 12
-15 9 -8 -4 -12 -10 -9 -15 3 -5 -2 -6 -10 -3 -9 3 -16 14 -16 24 0 11 -5 22
-11 26 -7 4 -9 22 -6 43 3 20 3 30 0 24 -6 -17 -23 -16 -23 1 0 28 -70 165
-89 176 -12 6 -21 9 -21 6 0 -3 -16 2 -35 10 -42 17 -56 18 -52 2z"/>
<path d="M9390 5820 c-8 -5 -102 -10 -210 -10 -133 0 -209 -5 -240 -14 -43
-12 -45 -15 -51 -57 -3 -24 -7 -37 -8 -29 -1 12 -5 11 -17 -5 -9 -12 -13 -30
-9 -45 6 -23 5 -23 -7 -7 -12 16 -15 16 -33 3 -20 -15 -20 -15 3 -16 12 0 22
-4 22 -9 0 -17 -51 -119 -65 -131 -8 -7 -12 -16 -9 -21 3 -5 1 -9 -5 -9 -5 0
-11 -10 -14 -22 -4 -23 -4 -23 -15 2 l-11 25 0 -27 c-1 -16 4 -28 12 -28 8 0
7 -4 -3 -10 -8 -5 -10 -10 -5 -10 6 0 1 -7 -10 -16 -11 -8 -20 -20 -20 -27 -1
-7 -6 -11 -13 -10 -6 2 -11 -5 -10 -15 3 -45 -1 -53 -29 -47 -16 3 -22 2 -15
-1 6 -3 12 -14 12 -25 0 -14 -6 -18 -22 -15 -25 4 -25 13 -1 63 8 18 19 30 24
27 5 -3 9 -1 9 5 0 23 -45 31 -174 31 -84 0 -136 4 -136 10 0 6 19 11 43 12
l42 1 -45 6 c-58 8 -41 18 35 22 72 3 135 -9 114 -22 -10 -6 -4 -9 19 -9 33 0
42 16 21 37 -7 7 4 14 36 23 49 14 65 28 46 40 -9 5 -9 13 0 34 21 45 5 51
-159 53 -81 0 -152 2 -159 2 -13 1 -5 42 11 53 6 4 18 7 26 7 8 0 5 -4 -7 -9
-34 -14 -28 -30 12 -30 34 0 46 12 25 25 -28 17 6 21 182 21 179 -1 194 0 214
19 12 11 24 30 28 43 4 12 13 22 21 22 15 0 25 22 25 56 0 20 -5 24 -32 24
-18 1 -148 1 -289 1 -245 0 -258 -1 -299 -22 -23 -12 -44 -28 -47 -36 -8 -21
-33 4 -33 33 0 28 27 25 -280 27 -248 2 -336 -3 -332 -22 1 -7 -5 -25 -15 -40
-33 -49 -41 -69 -32 -82 4 -7 4 -16 -1 -19 -5 -3 36 -5 90 -5 l99 1 -17 -28
c-9 -15 -21 -28 -26 -28 -5 0 -7 -3 -3 -6 10 -10 -14 -64 -29 -64 -8 0 -14
-10 -14 -26 0 -17 -6 -28 -20 -31 -14 -4 -20 -14 -20 -33 0 -20 -6 -29 -22
-33 -18 -5 -19 -8 -8 -22 11 -13 10 -19 -9 -38 -11 -13 -21 -30 -21 -39 0 -9
-9 -18 -20 -21 -21 -5 -26 -32 -11 -56 7 -11 26 -14 71 -12 89 4 122 21 150
78 14 26 35 63 48 81 14 17 22 32 18 32 -7 0 42 73 55 81 6 3 11 17 11 30 1
13 12 38 25 56 13 17 23 38 23 45 0 28 25 38 92 38 54 0 68 -3 68 -15 0 -8 -5
-15 -12 -15 -6 0 0 -13 15 -28 15 -15 27 -35 27 -43 0 -21 -28 -97 -46 -125
-9 -13 -13 -24 -9 -24 5 0 0 -9 -9 -19 -10 -11 -16 -26 -14 -33 3 -7 -3 -24
-13 -37 -11 -14 -19 -40 -19 -62 l0 -39 123 1 c67 0 133 -3 147 -8 14 -6 36
-6 50 -2 14 4 81 7 150 8 84 1 130 5 138 13 9 9 12 6 12 -15 0 -30 16 -35 46
-12 11 8 41 14 69 15 36 0 46 -3 35 -10 -13 -9 -13 -11 0 -20 8 -5 22 -10 30
-10 21 0 46 17 37 26 -10 10 44 53 60 47 7 -3 13 -10 13 -16 0 -6 3 -7 6 -4 4
4 1 13 -6 22 -31 37 57 111 107 90 10 -5 24 -7 31 -6 6 1 12 -6 12 -15 0 -10
-5 -14 -15 -10 -19 7 -19 3 3 -21 19 -22 62 -36 78 -25 6 4 17 21 25 37 10 21
23 31 41 33 23 3 28 -1 33 -30 4 -18 2 -45 -3 -59 -6 -14 -7 -30 -4 -36 10
-16 64 -19 89 -5 35 19 111 12 97 -9 -11 -18 16 -8 40 14 28 26 26 53 -6 99
l-19 28 35 17 c20 9 36 22 36 28 0 6 15 29 34 51 18 21 39 56 46 76 8 20 22
39 32 41 13 4 18 15 18 40 0 20 5 39 11 42 6 4 9 36 8 77 -2 66 -4 71 -36 95
-30 23 -39 25 -100 19 -45 -4 -61 -3 -48 3 13 7 15 10 5 10 -8 0 -22 -4 -30
-9z m-23 -199 c3 -23 -39 -108 -61 -123 -16 -11 -188 -10 -205 1 -8 5 11 7 50
4 35 -2 82 0 104 5 38 9 36 10 -33 11 -57 1 -74 4 -79 17 -4 11 2 23 18 35
l24 19 -32 0 c-17 0 -39 8 -49 18 -17 16 -14 17 52 22 54 4 61 7 34 11 -19 3
12 5 69 4 102 0 104 -1 108 -24z"/>
<path d="M11279 4958 c0 -24 -3 -37 -6 -30 -6 14 -53 17 -53 2 0 -5 -7 -10
-16 -10 -13 0 -15 -7 -9 -37 10 -57 20 -63 96 -63 38 0 69 2 69 5 0 3 -11 17
-25 31 -14 14 -25 34 -25 44 0 18 7 20 79 20 98 0 111 5 111 40 0 36 -12 40
-126 40 l-94 0 -1 -42z"/>
<path d="M11440 4820 c0 -11 -7 -20 -15 -20 -12 0 -15 -18 -15 -104 l0 -104
31 -12 c29 -12 33 -12 51 11 17 21 18 35 13 114 -3 50 -10 92 -15 93 -6 2 -10
12 -10 23 0 12 -7 19 -20 19 -13 0 -20 -7 -20 -20z"/>
<path d="M11086 4524 c-30 -29 -23 -43 49 -99 21 -16 49 -42 64 -56 32 -32 81
-46 81 -24 0 8 5 15 10 15 6 0 10 9 10 20 0 11 -4 20 -10 20 -5 0 -10 16 -10
35 0 27 -4 35 -18 35 -11 0 -27 9 -37 20 -10 11 -24 20 -32 20 -7 0 -16 7 -19
15 -8 20 -68 20 -88 -1z"/>
<path d="M16080 1600 c0 -47 4 -80 10 -80 6 0 10 -9 10 -20 0 -16 7 -20 30
-20 17 0 30 -4 30 -10 0 -6 33 -10 80 -10 l80 0 0 110 0 110 -120 0 -120 0 0
-80z"/>
<path d="M13833 1643 c-18 -38 -16 -183 2 -207 14 -18 15 -18 34 5 17 20 20
39 21 115 0 87 -8 114 -34 114 -6 0 -17 -12 -23 -27z"/>
<path d="M12400 1450 c0 -5 -9 -10 -20 -10 -13 0 -20 -7 -20 -20 0 -13 -7 -20
-20 -20 -17 0 -20 -7 -20 -40 0 -33 3 -40 20 -40 13 0 20 -7 20 -20 0 -13 -7
-20 -20 -20 -13 0 -20 -7 -20 -20 0 -18 7 -20 80 -20 l80 0 0 29 c0 49 12 91
26 91 8 0 14 9 14 20 0 13 -7 20 -20 20 -11 0 -20 7 -20 15 0 8 -9 15 -20 15
-11 0 -20 7 -20 15 0 8 -9 15 -20 15 -11 0 -20 -4 -20 -10z"/>
<path d="M10688 1168 c-6 -16 14 -88 24 -88 4 0 8 -9 8 -20 0 -18 7 -20 60
-20 53 0 60 2 60 20 0 11 5 20 11 20 6 0 9 7 5 15 -3 8 -2 25 3 38 15 41 5 47
-84 47 -55 0 -85 -4 -87 -12z"/>
<path d="M18900 890 c0 -5 -16 -10 -35 -10 -28 0 -35 -4 -35 -20 0 -11 7 -20
15 -20 8 0 15 -5 15 -11 0 -6 -7 -9 -15 -5 -11 4 -15 -1 -15 -19 0 -16 6 -25
15 -25 11 0 15 -12 15 -49 0 -28 4 -52 8 -55 10 -6 37 10 37 23 0 5 11 18 25
29 22 18 23 23 12 42 -7 11 -10 24 -8 29 3 4 -6 14 -19 21 -14 7 -25 19 -25
27 0 20 17 15 23 -7 8 -31 47 -27 47 5 0 18 -5 25 -20 25 -11 0 -20 7 -20 15
0 8 -4 15 -10 15 -5 0 -10 -4 -10 -10z"/>
<path d="M1299 63 c0 -10 -2 -28 -5 -41 l-4 -22 1727 0 c949 0 1724 2 1722 5
-3 2 -775 5 -1715 6 l-1710 1 4 34 c3 21 0 34 -7 34 -6 0 -11 -8 -12 -17z"/>
<path d="M0 20 c0 -20 3 -20 632 -20 347 0 628 3 624 7 -4 5 -278 8 -609 8
-460 1 -607 4 -624 13 -21 11 -23 10 -23 -8z"/>
<path d="M4955 10 c-93 -3 203 -7 659 -8 456 -1 826 1 822 5 -8 8 -1234 10
-1481 3z"/>
</g>
</svg>
