<?xml version="1.0" standalone="no"?>
<!DOCTYPE svg PUBLIC "-//W3C//DTD SVG 20010904//EN"
 "http://www.w3.org/TR/2001/REC-SVG-20010904/DTD/svg10.dtd">
<svg version="1.0" xmlns="http://www.w3.org/2000/svg"
 width="1920.000000pt" height="1080.000000pt" viewBox="0 0 1920.000000 1080.000000"
 preserveAspectRatio="xMidYMid meet">
<metadata>
Created by potrace 1.16, written by Peter Selinger 2001-2019
</metadata>
<g transform="translate(0.000000,1080.000000) scale(0.100000,-0.100000)"
fill="#000000" stroke="none">
<path d="M0 7523 c0 -3121 1 -3276 18 -3260 13 14 14 20 5 25 -13 8 -12 73 5
312 2 20 4 22 12 10 8 -12 11 -13 19 -1 12 19 2 56 -12 42 -20 -20 -24 -12
-27 47 -1 31 -3 1417 -3 3079 -1 1663 -5 3023 -9 3023 -5 0 -8 -1475 -8 -3277z"/>
<path d="M222 10795 c3 -3 298 -7 656 -8 358 -1 654 -5 658 -9 4 -4 2 -14 -5
-22 -9 -11 -8 -15 3 -19 18 -7 26 1 26 25 0 13 8 18 28 18 15 0 333 0 707 1
374 0 696 4 715 8 20 5 -574 9 -1379 10 -778 1 -1412 -1 -1409 -4z"/>
<path d="M3380 10784 c102 -7 192 -11 201 -8 9 3 344 6 743 8 400 2 730 6 733
10 4 3 -414 5 -928 5 -861 -2 -919 -3 -749 -15z"/>
<path d="M5540 10785 c-7 -9 -13 -34 -12 -57 2 -54 42 -97 90 -98 17 0 31 3
31 8 -4 22 4 22 28 -2 30 -30 26 -44 -7 -24 -18 10 -24 10 -27 1 -3 -7 -17
-13 -33 -13 -28 0 -40 -15 -40 -50 0 -27 13 -31 40 -13 13 9 39 17 59 17 29 1
38 6 50 31 l15 30 12 -30 13 -30 1 38 c0 23 -4 36 -10 32 -5 -3 -10 1 -10 9 0
8 -8 19 -17 24 -9 6 -17 16 -19 25 -1 11 10 14 57 12 33 -2 62 1 65 6 3 5 0 9
-5 9 -19 0 -12 46 7 50 9 2 373 4 807 6 526 1 817 6 870 13 44 6 103 13 130
14 28 2 -430 4 -1016 5 -952 2 -1068 0 -1079 -13z"/>
<path d="M7850 10789 c16 -7 533 -10 1453 -9 1427 1 1429 0 1434 -20 7 -26 17
-25 32 4 12 21 16 22 59 14 47 -9 1871 -1 1897 8 7 3 15 -2 18 -10 7 -17 43
-22 49 -7 4 12 403 15 2243 14 1995 -1 2231 0 2241 10 4 4 -2121 7 -4722 6
-3128 0 -4721 -4 -4704 -10z"/>
<path d="M17520 10790 c0 -7 271 -10 794 -10 436 0 814 -3 840 -6 38 -6 46 -4
46 10 0 15 -69 16 -840 16 -553 0 -840 -3 -840 -10z"/>
<path d="M7091 10581 c-12 -12 -28 -21 -36 -21 -18 0 -19 -12 -3 -28 8 -8 62
-12 177 -12 91 0 215 -5 276 -11 106 -11 113 -10 163 11 28 12 52 25 52 29 0
22 -73 30 -310 34 -140 2 -265 7 -277 11 -15 6 -27 2 -42 -13z"/>
<path d="M9975 10580 c10 -17 -77 -32 -150 -26 -276 24 -406 24 -441 1 l-26
-17 22 -15 c18 -12 36 -14 94 -8 137 14 330 14 346 -1 10 -9 20 -10 30 -4 8 5
66 10 128 10 107 0 112 1 112 21 0 13 -8 23 -22 27 -21 5 -21 6 -2 13 12 5 -1
8 -39 8 -35 1 -56 -3 -52 -9z"/>
<path d="M10403 10580 c-165 -4 -225 -8 -235 -18 -11 -11 -9 -16 7 -28 17 -13
60 -14 285 -9 146 3 281 10 300 15 42 12 40 12 40 0 0 -5 -9 -10 -20 -10 -25
0 -26 -9 -3 -25 13 -10 23 -10 38 -2 13 7 119 10 320 10 197 -1 304 2 312 9
24 20 15 46 -19 54 -56 12 -564 10 -576 -2 -15 -16 -95 -16 -143 1 -23 8 -51
14 -63 13 -11 -1 -121 -5 -243 -8z"/>
<path d="M7815 10570 c-11 -5 -32 -9 -47 -9 -29 -1 -36 -19 -16 -39 17 -17
769 -17 786 0 9 9 20 9 45 1 20 -7 150 -11 347 -11 259 -1 321 1 347 14 42 19
48 30 20 38 -37 10 -177 7 -177 -4 0 -6 -67 -10 -181 -10 -102 0 -178 4 -175
9 3 5 -3 11 -14 14 -29 7 -190 -5 -190 -14 0 -14 -58 -10 -62 4 -4 9 -81 12
-334 14 -181 1 -338 -2 -349 -7z"/>
<path d="M11542 10563 c-15 -3 -22 -10 -20 -21 4 -18 -4 -18 333 -10 123 2
150 0 150 -11 0 -11 20 -13 99 -12 101 2 136 11 136 35 0 9 -23 15 -77 20 -83
7 -584 6 -621 -1z"/>
<path d="M6880 10091 c-69 -6 -90 -14 -90 -35 0 -21 204 -33 498 -28 l152 2 0
35 0 35 -247 -2 c-137 -1 -277 -4 -313 -7z"/>
<path d="M7608 10091 c-103 -6 -138 -17 -124 -39 3 -6 20 -13 36 -17 17 -4 30
-10 30 -13 0 -4 53 -4 117 0 65 4 179 7 253 8 216 2 324 12 328 31 2 12 -7 19
-35 24 -48 10 -464 14 -605 6z"/>
<path d="M8323 10085 c-18 -19 -5 -45 21 -45 12 0 27 -5 33 -11 8 -8 25 -8 62
2 39 10 59 10 88 1 45 -14 506 -4 518 10 2 2 6 13 9 26 7 22 7 22 -98 22 -60
0 -107 -4 -111 -10 -10 -16 -242 -10 -274 6 -37 19 -231 19 -248 -1z"/>
<path d="M9133 10093 c-7 -2 -13 -18 -13 -35 l0 -31 93 7 c78 5 94 9 108 28
17 22 39 17 39 -8 0 -13 15 -15 88 -13 48 1 95 -2 105 -6 10 -4 63 -5 118 -3
55 3 118 2 140 -2 39 -7 39 -7 39 26 0 22 -5 34 -17 38 -27 9 -163 0 -174 -11
-11 -11 -168 -7 -318 7 -110 11 -188 12 -208 3z"/>
<path d="M9933 10094 c-7 -3 -13 -12 -13 -20 0 -11 17 -14 73 -14 91 0 117 -7
117 -32 0 -16 3 -17 22 -7 25 13 80 16 121 5 20 -5 33 -1 49 14 18 16 35 20
93 20 40 0 93 3 119 6 33 5 46 3 46 -5 0 -7 6 -19 14 -27 8 -7 16 -19 18 -26
3 -7 15 -4 35 12 31 22 34 22 215 15 318 -13 318 -13 363 15 l39 24 -34 10
c-34 10 -325 14 -590 9 -69 -2 -249 -1 -400 2 -151 2 -281 2 -287 -1z"/>
<path d="M11280 10069 l0 -32 93 7 c234 16 368 19 391 7 15 -8 57 -11 122 -9
83 2 99 6 102 20 5 24 -18 26 -385 33 l-323 6 0 -32z"/>
<path d="M6675 9619 c-120 -11 -137 -16 -133 -36 5 -29 63 -34 361 -27 233 5
287 9 287 20 0 20 30 17 46 -3 11 -17 45 -18 416 -20 1124 -6 1112 -6 1133
-20 20 -13 65 -18 65 -7 0 3 -11 15 -25 26 -14 11 -25 27 -25 37 0 12 -13 22
-39 29 -54 17 -121 16 -121 -2 0 -20 -47 -26 -219 -26 -112 0 -161 4 -169 13
-18 17 -174 16 -195 -2 -14 -11 -31 -11 -99 -1 -53 8 -247 14 -533 16 -247 2
-497 5 -555 8 -58 2 -145 0 -195 -5z"/>
<path d="M9888 9621 c-184 -5 -240 -9 -250 -20 -10 -10 -10 -12 0 -7 7 4 12 1
12 -8 0 -14 17 -16 105 -16 73 0 108 -4 116 -13 10 -10 26 -11 68 -5 88 14
160 20 236 22 39 0 76 5 84 10 22 14 -46 45 -94 44 -22 -1 -147 -4 -277 -7z"/>
<path d="M10541 9622 c-130 -1 -209 -6 -218 -13 -7 -6 -13 -22 -13 -35 l0 -24
315 4 c173 3 315 8 314 12 -1 11 24 24 49 24 14 0 22 -6 22 -16 0 -11 -5 -14
-16 -10 -24 9 -35 -3 -23 -25 8 -15 14 -18 23 -9 8 6 54 14 102 19 49 4 99 13
111 19 27 15 326 17 303 2 -17 -11 187 -15 214 -4 32 12 17 34 -23 34 -22 0
-43 5 -46 10 -10 16 -631 13 -656 -3 -15 -9 -24 -9 -41 3 -25 15 -73 17 -417
12z"/>
<path d="M9420 9609 c-19 -6 -95 -9 -168 -9 -122 0 -133 -1 -130 -17 3 -16 16
-18 93 -19 50 -1 97 -4 105 -7 8 -3 58 -8 111 -12 80 -5 102 -3 133 11 26 13
36 24 36 41 0 22 -3 23 -72 22 -40 -1 -89 -5 -108 -10z"/>
<path d="M8757 9336 c-7 -18 1 -26 27 -26 15 0 17 -3 8 -12 -15 -15 -16 -55 0
-60 6 -2 -18 -5 -55 -5 -38 0 -73 -6 -82 -13 -18 -15 -20 -51 -3 -68 10 -10
10 -15 -2 -22 -8 -5 -23 -10 -33 -10 -31 0 -15 -33 21 -42 21 -6 30 -13 26
-20 -4 -6 -8 -23 -8 -38 -1 -23 2 -25 27 -22 17 3 27 10 27 21 0 12 13 20 43
27 26 6 42 15 42 24 0 16 92 18 380 10 109 -3 185 4 185 17 0 2 -7 12 -17 21
-18 19 -66 21 -159 9 l-61 -9 -6 31 c-5 21 -11 29 -21 25 -16 -6 -56 24 -56
43 0 19 -37 16 -50 -4 -9 -16 -10 -15 -5 5 7 26 -2 62 -16 62 -6 0 -18 8 -27
17 -16 16 -17 16 -20 0 -4 -18 -62 -25 -62 -7 0 5 -10 21 -22 35 -24 28 -72
34 -81 11z"/>
<path d="M6296 9115 l-13 -30 81 -7 c45 -3 190 -6 322 -7 240 -1 242 -1 257
22 14 21 16 21 29 4 12 -16 45 -18 368 -23 360 -6 410 -3 410 30 0 25 -68 30
-435 31 -198 1 -506 3 -683 6 l-324 4 -12 -30z"/>
<path d="M7835 9131 c-36 -7 -45 -40 -16 -58 15 -10 40 -10 105 -2 55 7 91 7
103 1 19 -10 350 -8 361 2 11 12 130 6 135 -6 3 -7 6 1 6 18 1 47 -19 58 -92
50 -261 -29 -389 -33 -427 -11 -26 15 -120 18 -175 6z"/>
<path d="M9403 9126 c-48 -23 -23 -31 87 -28 80 3 110 1 110 -8 0 -15 379 -3
395 12 7 6 4 14 -8 23 -24 18 -549 19 -584 1z"/>
<path d="M10080 9131 c0 -6 -11 -11 -25 -11 -29 0 -36 -34 -9 -44 21 -8 504
-8 582 0 60 7 77 19 67 47 -7 17 -615 25 -615 8z"/>
<path d="M10793 9133 c-27 -3 -33 -9 -33 -27 0 -17 9 -27 31 -36 27 -11 41
-11 98 5 70 19 224 21 431 6 108 -8 154 -2 158 20 5 27 -129 39 -403 37 -137
0 -265 -3 -282 -5z"/>
<path d="M9233 8733 c-17 -6 -16 -29 2 -56 14 -22 14 -22 -27 -19 -26 3 -43 0
-48 -9 -7 -10 -16 -10 -48 -1 -22 7 -83 12 -136 12 -79 0 -96 -3 -96 -15 0
-17 -54 -21 -93 -6 -30 12 -393 18 -424 7 -26 -8 -31 -41 -8 -50 8 -3 15 -13
14 -23 0 -11 -3 -13 -6 -5 -2 6 -11 12 -19 12 -19 0 -64 40 -64 57 0 8 -12 13
-29 13 -16 0 -31 6 -35 15 -7 18 -46 20 -46 2 0 -7 -23 -18 -52 -25 -42 -10
-103 -10 -294 0 -132 6 -248 8 -257 5 -10 -4 -17 -15 -17 -25 0 -25 51 -31
265 -34 l160 -1 -110 -7 c-60 -4 -141 -8 -180 -10 -52 -1 -63 -4 -45 -10 38
-12 780 -12 780 0 0 6 -7 10 -16 10 -8 0 -13 4 -10 8 6 11 118 3 131 -9 15
-15 22 -11 29 15 l6 25 128 -6 c70 -3 132 -9 137 -14 20 -15 171 -19 192 -4
10 7 27 15 38 17 10 1 28 11 38 22 16 15 21 16 28 5 6 -10 36 -15 101 -17 92
-3 93 -4 125 -38 18 -20 34 -30 38 -24 3 5 24 10 46 10 21 0 39 5 39 10 0 6 7
10 16 10 9 0 22 7 28 15 8 12 37 16 123 18 67 1 111 6 110 12 -1 6 5 9 13 7 8
-1 4 6 -10 17 -23 18 -37 19 -220 15 -107 -3 -205 -6 -217 -8 -17 -2 -23 2
-23 15 0 11 5 19 10 19 15 0 12 16 -6 34 -15 16 -37 19 -61 9z"/>
<path d="M6293 8693 c-7 -2 -13 -12 -13 -20 0 -14 -12 -15 -80 -10 -44 3 -80
2 -80 -3 0 -4 -25 -10 -55 -12 -104 -9 -84 -36 36 -49 119 -12 149 -13 387
-11 l212 2 0 25 c0 29 15 34 23 6 7 -27 49 -30 425 -30 285 0 332 2 332 14 0
18 36 20 43 3 3 -7 6 -3 6 8 1 18 -6 23 -41 29 -24 3 -283 8 -576 11 -319 2
-540 8 -550 14 -14 8 -12 9 11 10 15 0 27 5 27 10 0 10 -84 13 -107 3z"/>
<path d="M10080 8660 c-263 -7 -305 -12 -296 -37 3 -8 6 -19 6 -24 0 -5 130
-9 314 -9 338 0 342 1 334 52 -4 27 13 26 -358 18z"/>
<path d="M10500 8639 c-7 -13 -7 -25 -1 -38 8 -15 19 -17 63 -14 80 6 118 13
118 22 0 4 72 9 160 10 107 1 160 -1 160 -8 0 -17 215 -14 229 2 15 19 4 27
-36 27 -18 0 -33 5 -33 10 0 7 -107 10 -325 10 -310 -1 -326 -2 -335 -21z"/>
<path d="M6492 8191 c-8 -5 -12 -22 -10 -41 l3 -34 372 -4 c269 -3 376 -1 390
7 16 11 16 11 -4 6 -19 -5 -22 -3 -16 11 15 40 -13 44 -381 46 -336 2 -341 3
-131 8 l220 6 -215 2 c-118 1 -221 -2 -228 -7z"/>
<path d="M5843 8170 c-57 -6 -68 -12 -60 -33 9 -25 157 -53 157 -29 0 4 107 6
237 5 l238 -3 27 34 28 33 -288 -1 c-158 0 -310 -3 -339 -6z"/>
<path d="M7318 8164 c-52 -28 -35 -41 65 -47 122 -9 137 -14 137 -43 0 -13 5
-24 10 -24 6 0 10 7 10 15 0 13 20 15 120 15 113 0 120 -1 120 -20 0 -13 7
-20 20 -20 11 0 20 5 20 10 0 6 -6 10 -14 10 -18 0 -15 22 6 43 12 13 34 16
102 14 78 -2 87 0 101 21 9 12 22 22 30 22 8 0 17 5 21 11 9 14 -216 3 -230
-12 -6 -5 -84 -9 -175 -8 -92 0 -157 4 -147 8 18 7 18 8 -5 14 -45 12 -163 7
-191 -9z"/>
<path d="M8105 8170 c17 -7 18 -9 3 -9 -11 -1 -18 -9 -18 -20 0 -19 9 -20 211
-19 172 1 212 -1 220 -13 7 -11 9 -10 9 5 0 15 4 17 23 10 12 -4 91 -9 176
-11 132 -3 156 -2 163 11 12 22 174 22 202 1 11 -8 40 -15 65 -15 26 0 60 -4
78 -9 26 -8 32 -6 36 8 4 18 75 31 168 31 30 0 39 4 39 18 0 16 -25 17 -417
14 -269 -3 -420 -7 -424 -14 -6 -10 -22 -9 -159 8 -25 3 -63 1 -85 -4 -22 -4
-56 -5 -75 -1 -58 11 -237 20 -215 9z"/>
<path d="M9568 8168 c-26 -7 -38 -16 -38 -28 0 -25 40 -29 369 -32 218 -2 285
0 289 10 2 7 7 10 11 8 4 -3 7 4 7 14 0 10 -3 17 -7 14 -4 -2 -23 3 -43 11
-28 12 -85 15 -293 14 -142 -1 -275 -6 -295 -11z"/>
<path d="M10258 8167 c-16 -6 -28 -19 -28 -29 0 -16 11 -18 110 -18 67 0 110
4 110 10 0 12 155 12 260 0 153 -18 230 -21 250 -10 33 18 24 37 -22 45 -75
13 -650 14 -680 2z"/>
<path d="M9279 7715 c-12 -12 -69 -15 -324 -17 -286 -3 -310 -4 -313 -20 -3
-16 6 -18 77 -18 63 0 87 -4 116 -21 25 -15 39 -18 48 -11 6 6 77 13 157 17
191 9 197 10 213 23 16 14 27 6 27 -20 0 -17 16 -18 320 -18 l320 0 12 25 c6
14 8 28 4 33 -12 12 -636 15 -636 2 0 -5 -4 -10 -10 -10 -14 0 -12 28 3 33 6
2 9 7 6 10 -3 4 -12 0 -20 -8z"/>
<path d="M10319 7715 c-3 -2 -73 -9 -156 -14 -83 -6 -164 -16 -179 -22 l-29
-11 24 -19 c18 -14 40 -19 95 -20 55 -1 63 -3 36 -9 l-35 -6 28 -8 c31 -9 81
0 73 13 -14 22 28 30 164 31 136 2 177 -4 222 -30 22 -13 88 -13 88 0 0 5 16
12 35 16 25 4 35 11 35 25 0 36 -35 42 -202 35 -136 -5 -159 -4 -164 9 -6 14
-25 20 -35 10z"/>
<path d="M5567 7689 c-47 -19 -55 -40 -17 -46 14 -2 49 -8 79 -13 98 -18 547
-8 535 12 -3 5 -1 15 6 23 26 31 -25 37 -297 39 -223 1 -271 -2 -306 -15z"/>
<path d="M7617 7694 c-23 -13 -64 -15 -210 -14 -102 0 -186 5 -191 10 -15 15
-169 13 -184 -2 -18 -18 -14 -46 8 -53 11 -3 21 -11 21 -16 1 -5 2 -15 3 -21
1 -9 29 -15 83 -20 46 -4 87 -9 93 -13 6 -4 10 6 10 24 0 16 6 31 13 34 6 2
117 2 245 -1 l233 -5 30 33 c24 25 27 35 18 46 -16 20 -135 18 -172 -2z"/>
<path d="M6221 7689 c-19 -7 -22 -12 -13 -21 16 -16 15 -31 0 -22 -10 5 -10 4
-1 -6 10 -11 85 -13 370 -11 197 2 366 3 376 4 24 2 22 43 -2 57 -25 13 -696
13 -730 -1z"/>
<path d="M8393 7687 c-40 -6 -73 -15 -73 -20 0 -5 -6 -5 -13 1 -14 12 -351 23
-429 15 -40 -5 -48 -9 -48 -27 0 -21 2 -21 230 -19 131 1 232 -3 235 -8 8 -12
112 -12 120 1 3 6 31 10 61 10 41 0 56 -4 61 -16 6 -15 8 -15 20 2 7 10 13 26
13 35 0 12 10 19 28 22 15 2 5 5 -24 6 -28 0 -64 3 -80 5 -16 2 -62 -1 -101
-7z"/>
<path d="M7485 7528 c-6 -16 -54 -22 -157 -23 -63 0 -78 -3 -78 -15 0 -13 -1
-13 -10 0 -6 10 -10 11 -10 3 0 -8 -14 -13 -38 -13 -39 0 -83 -22 -65 -33 5
-3 29 -6 54 -6 24 0 125 0 224 0 142 0 184 3 199 14 11 8 18 16 15 18 -2 2
-17 13 -33 25 -16 12 -42 22 -58 22 -17 0 -27 4 -23 10 3 6 1 10 -5 10 -6 0
-13 -6 -15 -12z"/>
<path d="M8662 7222 c-201 -2 -271 -5 -266 -14 5 -7 0 -9 -14 -6 -18 5 -22 2
-22 -17 0 -13 -8 -26 -17 -29 -24 -9 -37 8 -18 24 14 12 13 15 -16 27 -37 15
-149 18 -149 3 0 -5 -18 -10 -39 -10 -48 0 -71 -8 -71 -24 0 -15 45 -41 57
-33 5 3 25 -3 43 -15 19 -11 36 -16 38 -10 2 6 26 8 62 5 51 -5 65 -2 105 22
42 24 53 26 106 20 32 -4 62 -11 65 -16 3 -5 16 -9 29 -9 13 0 30 -6 37 -13
22 -22 65 -29 72 -12 3 10 19 15 47 15 33 0 42 4 46 21 6 20 10 21 127 14 157
-8 700 -21 747 -17 32 3 38 7 43 34 3 17 5 32 4 33 -6 5 -756 10 -1016 7z"/>
<path d="M5274 7195 c-4 -14 -3 -29 1 -33 9 -9 1445 -14 1445 -4 0 4 7 15 15
26 13 18 15 17 39 -10 l24 -29 254 3 c139 1 297 5 351 9 88 5 99 8 107 27 5
15 3 24 -8 30 -20 11 -176 -1 -180 -14 -5 -14 -307 -13 -333 1 -29 15 -974 25
-983 10 -4 -6 -16 -11 -27 -11 -10 0 -19 -4 -19 -9 0 -18 -31 -21 -37 -3 -4 9
-11 20 -17 24 -6 4 -149 8 -318 8 l-308 0 -6 -25z"/>
<path d="M7593 7204 c-32 -13 -32 -15 -16 -34 15 -17 29 -20 105 -19 48 0 91
5 94 10 3 5 16 9 29 9 13 0 27 5 30 10 12 19 27 -2 20 -29 l-6 -26 17 23 c13
19 23 23 45 18 43 -8 129 5 129 20 0 16 -55 22 -260 28 -122 4 -162 2 -187
-10z"/>
<path d="M9730 7195 c0 -14 8 -29 19 -35 26 -14 174 -13 188 1 15 15 329 26
320 12 -13 -20 39 -31 123 -24 77 5 85 8 88 28 5 36 -65 43 -418 43 l-320 0 0
-25z"/>
<path d="M4006 7203 c-3 -3 -6 -23 -6 -43 0 -42 -6 -51 -26 -43 -9 3 -13 14
-9 27 2 11 2 15 -1 9 -4 -8 -26 -13 -61 -13 -45 0 -58 -4 -74 -22 -10 -13 -18
-29 -19 -37 0 -10 -3 -11 -14 -2 -17 14 -29 0 -20 -23 7 -18 20 -21 29 -6 10
16 27 0 22 -21 -3 -11 -1 -19 4 -19 5 0 9 5 9 10 0 6 5 10 10 10 6 0 10 -6 10
-13 0 -7 8 -13 18 -14 9 -1 28 -3 42 -6 75 -13 143 -19 165 -13 22 6 25 12 25
51 0 25 -4 45 -10 45 -5 0 -10 11 -10 23 0 13 -9 34 -20 47 -11 13 -20 27 -20
31 0 12 -36 30 -44 22z"/>
<path d="M19175 7061 c-12 -27 -15 -49 -10 -68 13 -53 17 -119 6 -103 -10 13
-11 13 -11 0 0 -10 -3 -11 -8 -4 -4 6 -22 17 -39 25 -19 8 -33 21 -33 31 0 10
-7 18 -16 18 -14 0 -16 -10 -12 -60 3 -48 1 -60 -11 -60 -8 0 -11 -3 -7 -7 4
-4 15 -8 23 -8 9 0 18 -5 20 -10 4 -12 -41 -14 -53 -2 -13 12 -23 8 -23 -10
-2 -40 -14 -109 -21 -118 -4 -5 -4 -19 1 -30 6 -17 8 -16 8 9 1 28 2 28 19 13
32 -29 112 -18 112 14 0 14 -8 19 -27 20 -21 1 -23 3 -8 6 11 2 27 7 35 10 18
8 27 10 40 12 6 0 10 15 10 32 0 19 4 28 11 23 7 -4 9 -21 6 -40 -3 -19 -2
-34 4 -34 5 0 9 78 9 190 0 105 -2 190 -3 190 -2 0 -12 -18 -22 -39z"/>
<path d="M5048 6729 c-10 -5 -18 -18 -18 -28 0 -15 12 -19 83 -24 45 -4 185
-7 310 -7 202 0 228 2 234 16 3 9 2 24 -4 33 -9 14 -45 16 -299 18 -179 1
-296 -2 -306 -8z"/>
<path d="M5760 6730 c0 -5 -13 -10 -30 -10 -39 0 -40 -27 -2 -37 15 -5 181 -8
369 -8 334 1 343 1 362 22 19 20 19 20 -17 31 -49 15 -682 16 -682 2z"/>
<path d="M6548 6729 c-32 -18 -21 -37 27 -45 44 -6 58 -18 33 -27 -7 -3 0 -10
16 -16 36 -14 94 -4 101 18 4 14 32 16 261 16 244 0 256 1 270 20 23 31 -6 45
-97 45 -59 0 -78 -3 -83 -15 -4 -13 -34 -15 -181 -15 -149 0 -175 2 -175 15 0
12 -15 15 -77 15 -43 0 -86 -5 -95 -11z"/>
<path d="M7363 6727 c-22 -6 -33 -16 -33 -28 0 -17 9 -19 78 -21 42 -1 86 0
97 1 11 2 58 3 104 3 67 -1 86 -4 93 -17 7 -12 18 -14 46 -9 50 10 81 12 195
13 94 1 98 2 109 27 10 21 9 27 -3 35 -19 12 -129 12 -129 -1 0 -5 -25 -10
-55 -10 -30 0 -55 3 -55 8 0 11 -411 11 -447 -1z"/>
<path d="M8273 6732 c-128 -2 -153 -5 -153 -18 0 -30 107 -47 151 -24 14 8 25
7 41 -5 15 -9 45 -15 85 -15 34 0 65 -5 68 -10 4 -6 16 -3 32 10 31 25 69 26
77 3 4 -10 4 -14 0 -10 -12 12 -32 -36 -21 -50 7 -10 3 -13 -13 -13 -16 0 -20
-4 -16 -16 3 -9 6 -22 6 -30 0 -8 14 -29 32 -46 l31 -30 18 23 c20 25 23 61
10 94 -5 11 -4 28 1 38 11 22 -1 22 -17 0 -11 -15 -12 -14 -7 12 8 45 20 52
79 47 44 -4 56 -1 67 13 12 16 13 16 19 -11 l5 -29 290 2 c160 2 297 6 306 9
9 3 16 1 16 -5 0 -6 5 -11 10 -11 6 0 10 7 10 15 0 8 7 15 15 15 21 0 19 37
-3 44 -16 6 -812 4 -1139 -2z"/>
<path d="M9510 6730 c12 -8 11 -10 -7 -10 -18 0 -23 -6 -23 -24 0 -22 4 -24
73 -28 39 -3 142 -1 227 4 85 4 217 5 293 2 l139 -6 -4 28 c-3 28 -6 29 -63
35 -107 11 -651 10 -635 -1z"/>
<path d="M7086 6253 c-17 -44 -10 -50 81 -57 63 -5 88 -4 93 5 5 8 19 10 40 5
25 -4 36 -2 46 11 12 16 13 16 14 2 0 -14 19 -18 128 -23 70 -3 155 -8 189
-12 34 -3 70 -3 80 2 49 21 108 29 206 26 84 -2 107 -6 107 -17 0 -23 20 -28
34 -9 12 16 20 17 72 7 50 -10 61 -9 71 4 9 12 32 15 106 14 51 -1 101 1 110
5 24 9 21 31 -5 40 -12 4 -203 7 -425 8 -309 1 -405 -2 -415 -12 -6 -6 -20
-12 -29 -12 -10 0 -25 -7 -33 -16 -15 -14 -16 -14 -16 0 0 13 -15 16 -87 16
-63 1 -94 5 -108 16 -28 21 -251 19 -259 -3z"/>
<path d="M4780 6249 c-33 -13 -35 -16 -20 -34 8 -9 30 -15 59 -15 30 0 41 -3
32 -9 -8 -6 11 -7 50 -5 35 2 162 6 283 8 128 3 223 9 228 14 7 7 19 7 37 -1
18 -9 123 -12 361 -11 386 1 404 3 408 32 3 17 -4 22 -40 27 -24 4 -196 5
-381 3 -268 -2 -339 -6 -346 -16 -11 -18 -22 -17 -33 2 -8 14 -45 16 -311 15
-173 0 -313 -4 -327 -10z"/>
<path d="M6310 6251 c-39 -7 -52 -34 -23 -46 29 -13 317 -18 528 -10 182 7
195 8 195 26 0 10 6 19 13 19 8 0 7 4 -3 10 -24 16 -164 12 -196 -5 -42 -22
-329 -22 -350 0 -16 16 -94 19 -164 6z"/>
<path d="M8593 6253 l-73 -4 0 -29 c0 -19 5 -30 14 -30 8 0 16 -6 19 -12 3
-10 11 -10 38 1 19 7 44 13 57 12 28 -3 193 -2 275 1 34 2 105 1 157 -2 82 -4
95 -3 98 12 2 9 -7 26 -19 37 -22 20 -32 21 -258 19 -130 -1 -269 -4 -308 -5z"/>
<path d="M9236 6244 c-16 -41 -7 -51 47 -58 86 -10 117 -8 117 9 0 13 27 15
179 15 123 0 182 -4 187 -11 5 -8 29 -10 76 -5 53 5 74 3 92 -9 22 -14 24 -14
29 2 2 10 8 26 12 36 6 13 2 17 -18 17 -14 0 -29 5 -32 10 -4 6 -130 10 -345
10 -299 0 -339 -2 -344 -16z"/>
<path d="M4685 5779 c-126 -6 -185 -15 -185 -29 0 -4 19 -15 42 -25 35 -14 79
-16 282 -15 275 1 317 5 323 31 7 26 14 24 52 -15 30 -31 36 -33 64 -25 18 5
171 9 341 9 l309 0 23 25 c28 30 48 32 76 5 17 -16 36 -20 85 -20 45 0 62 -4
60 -12 -1 -8 4 -11 13 -8 8 3 105 6 215 7 260 3 369 13 373 33 1 9 -11 21 -29
29 -27 12 -47 12 -113 3 -88 -13 -362 -16 -380 -4 -6 4 -222 7 -481 8 -258 0
-578 2 -710 5 -132 2 -294 1 -360 -2z"/>
<path d="M7500 5780 c-14 -4 -59 -8 -102 -9 -51 -1 -78 -5 -81 -13 -4 -10 -8
-10 -15 1 -8 12 -28 12 -111 5 -79 -7 -102 -6 -106 3 -3 10 -36 13 -120 13
-119 0 -145 -8 -145 -43 0 -20 117 -28 178 -13 33 8 85 9 177 4 304 -20 356
-20 375 -3 15 14 18 14 30 0 16 -20 27 -19 33 3 4 15 5 15 6 -2 1 -17 8 -18
100 -14 55 3 105 2 113 -2 7 -4 45 -3 83 2 39 5 78 10 88 10 9 -1 17 3 17 9 0
5 41 9 90 9 53 0 98 5 110 12 27 17 34 5 16 -31 -9 -16 -16 -32 -16 -36 0 -13
34 -3 51 16 10 11 23 18 28 15 20 -13 582 -8 597 5 21 17 17 47 -7 54 -12 4
-294 6 -628 5 -333 -1 -623 1 -643 5 -27 5 -38 4 -38 -5 0 -7 -7 -9 -15 -6
-32 13 -41 14 -65 6z"/>
<path d="M8966 5773 c-3 -4 -6 -16 -6 -28 0 -17 8 -24 31 -29 54 -11 128 -7
166 9 19 8 57 15 84 15 l49 0 -6 -30 c-5 -24 -3 -30 11 -30 9 0 24 9 34 21 13
16 32 22 83 26 37 3 75 2 85 -2 10 -4 60 -9 110 -11 86 -2 94 -1 104 18 23 42
2 45 -380 46 -197 1 -361 -2 -365 -5z"/>
<path d="M7053 5713 c-17 -2 -37 -12 -45 -20 -9 -12 -10 -15 0 -9 8 5 12 -1
12 -18 0 -14 5 -26 10 -26 6 0 10 -7 10 -15 0 -7 8 -19 18 -24 9 -6 11 -11 5
-11 -16 0 -17 -40 -2 -40 5 0 9 -10 7 -22 -4 -30 33 -48 89 -43 37 3 43 1 43
-16 0 -10 5 -19 12 -19 6 0 8 -3 5 -6 -13 -14 14 -42 44 -46 35 -5 45 8 34 49
-4 18 -9 23 -14 15 -5 -9 -15 -10 -31 -4 l-24 9 25 6 c23 6 25 11 23 54 -1 27
-3 55 -3 64 -1 23 -49 43 -96 41 -22 -1 -34 1 -27 4 6 3 12 12 12 20 0 19 10
18 26 -3 11 -16 13 -16 19 10 4 15 15 31 24 36 14 9 14 10 -3 17 -12 5 -21 3
-24 -4 -5 -15 -102 -16 -102 -2 0 6 -3 9 -7 8 -5 0 -22 -3 -40 -5z"/>
<path d="M6167 5311 c-5 -25 -13 -31 -41 -37 -20 -3 -55 -3 -78 0 -24 4 -88 9
-143 12 -55 3 -104 9 -109 14 -15 14 -36 -1 -36 -26 0 -25 5 -28 95 -40 72 -9
468 -13 480 -3 6 4 37 8 70 10 69 2 85 11 78 40 -5 20 -11 21 -74 15 -38 -3
-100 -9 -139 -12 l-70 -6 0 31 c0 40 -25 42 -33 2z"/>
<path d="M5445 5299 c-55 -4 -190 -6 -300 -3 -168 5 -203 4 -213 -8 -10 -12
-8 -19 8 -33 17 -16 46 -19 188 -25 244 -9 547 2 569 22 10 9 25 18 33 20 8 3
-7 9 -35 12 -27 4 -63 12 -79 17 -16 5 -38 8 -50 7 -12 0 -66 -5 -121 -9z"/>
<path d="M4283 5287 c-36 -12 -42 -25 -15 -33 9 -3 33 -12 52 -21 30 -13 75
-14 325 -7 159 4 282 9 273 12 -11 2 -18 13 -18 27 0 15 -7 25 -22 28 -42 11
-562 5 -595 -6z"/>
<path d="M6555 5275 c-16 -14 -38 -25 -47 -25 -21 0 -23 -13 -5 -28 8 -7 30
-9 53 -5 21 3 74 6 117 7 54 1 77 5 77 13 0 9 16 13 50 13 40 0 48 -3 44 -15
-4 -10 0 -15 11 -15 9 0 13 5 10 10 -3 6 -3 10 2 11 172 10 195 9 200 -9 4
-17 10 -17 71 -9 37 6 83 10 102 11 19 1 38 5 42 11 4 6 13 2 22 -10 15 -19
15 -19 16 9 0 26 2 28 28 21 15 -4 74 -10 132 -15 58 -4 133 -13 167 -19 52
-10 66 -9 85 3 16 11 54 16 126 17 109 1 132 14 71 39 -39 17 -818 7 -850 -11
-13 -7 -24 -7 -32 -1 -7 6 -113 13 -237 16 l-225 6 -30 -25z"/>
<path d="M8105 5291 c-99 -6 -100 -6 -100 -31 l0 -25 321 -3 322 -2 5 27 c3
16 3 30 0 33 -7 7 -425 7 -548 1z"/>
<path d="M8713 5285 c-7 -8 -13 -23 -13 -33 0 -17 10 -20 84 -25 55 -5 95 -3
117 5 41 14 328 17 446 4 63 -7 86 -6 98 4 22 18 19 28 -15 45 -42 22 -698 22
-717 0z"/>
<path d="M5699 4819 c-8 -5 -51 -9 -96 -9 -82 0 -83 0 -83 -25 0 -19 5 -25 23
-25 12 0 30 -6 39 -14 13 -9 34 -10 90 -3 40 5 175 7 300 5 181 -3 228 -1 232
9 3 7 12 13 21 13 10 0 15 10 15 31 l0 31 -67 -7 c-96 -9 -123 -15 -123 -27 0
-13 -277 -3 -294 11 -20 15 -43 19 -57 10z"/>
<path d="M3973 4805 c-10 -27 6 -46 39 -46 430 -9 629 -9 624 0 -4 5 3 15 16
22 16 9 23 9 26 0 2 -6 17 -11 33 -11 16 0 29 -4 29 -10 0 -5 -4 -10 -10 -10
-5 0 -10 -5 -10 -11 0 -8 11 -9 33 -4 17 5 178 10 357 12 318 3 325 4 348 26
49 46 44 47 -745 46 -635 0 -735 -2 -740 -14z"/>
<path d="M6318 4815 c-5 -5 -8 -18 -8 -30 0 -19 7 -24 42 -29 23 -4 73 -4 110
0 59 6 71 4 90 -12 20 -19 21 -19 14 2 -6 21 15 40 33 30 4 -3 56 -6 114 -8
96 -2 108 -4 113 -21 5 -15 8 -16 14 -7 6 10 28 12 84 7 79 -6 116 -1 116 15
0 5 -5 6 -12 2 -6 -4 -8 -3 -5 3 9 14 246 10 274 -5 34 -19 171 -15 191 4 13
14 34 16 126 12 61 -3 105 -3 99 -1 -22 8 -14 23 11 23 15 0 26 -7 29 -20 6
-24 2 -24 350 -20 203 2 257 0 257 -10 0 -9 7 -7 20 5 12 11 20 28 18 39 -3
21 -5 21 -628 22 -404 1 -629 -2 -638 -9 -7 -6 -33 -7 -65 -2 -75 11 -155 10
-207 -1 -43 -10 -116 -8 -420 11 -63 4 -118 4 -122 0z"/>
<path d="M8457 4799 c-6 -23 4 -36 34 -47 16 -7 31 -7 42 0 10 5 156 10 342
10 310 1 325 2 325 20 0 10 -6 21 -12 23 -7 3 -174 6 -370 7 -324 3 -357 1
-361 -13z"/>
<path d="M19182 4562 c2 -91 -4 -104 -41 -100 -28 2 -76 -24 -64 -36 4 -3 -2
-12 -12 -20 -18 -13 -18 -14 6 -27 13 -7 32 -12 42 -10 10 1 17 -4 17 -13 0
-9 5 -16 11 -16 7 0 9 11 6 30 -5 23 -3 30 9 30 11 0 15 6 11 20 -3 11 -1 20
3 20 15 0 22 -20 13 -33 -12 -17 -8 -90 5 -95 7 -2 11 48 11 162 1 98 -3 166
-8 166 -5 0 -9 -35 -9 -78z"/>
<path d="M4028 4408 c-28 -32 -28 -48 -2 -48 8 0 14 -4 14 -10 0 -6 -48 -10
-125 -10 -129 0 -178 -11 -173 -39 2 -12 18 -17 58 -19 30 -1 65 -8 78 -14 17
-9 31 -9 57 0 21 8 87 12 184 11 l150 -1 -5 -28 c-8 -38 11 -46 41 -16 13 13
33 27 43 30 10 4 25 18 32 31 18 34 50 33 50 -1 0 -25 2 -25 41 -19 23 4 39 3
36 -1 -6 -11 579 -7 643 4 37 6 44 11 42 27 -2 11 -6 22 -9 25 -2 3 -252 6
-554 7 -303 0 -556 4 -564 7 -20 7 -19 55 0 62 18 7 20 34 3 34 -7 0 -25 -14
-40 -32z"/>
<path d="M5259 4324 c-24 -29 0 -45 76 -48 39 -2 80 1 93 6 15 5 21 4 17 -2
-7 -12 -22 -11 195 -11 96 1 190 4 208 7 28 5 32 4 32 -15 0 -13 6 -21 16 -21
11 0 15 6 11 19 -5 22 10 31 54 31 17 0 32 6 35 15 9 23 54 19 54 -5 0 -19 7
-20 95 -20 57 0 95 4 95 10 0 6 22 10 49 10 47 0 78 15 49 24 -7 2 -124 7
-259 10 -247 5 -333 1 -307 -15 23 -15 -223 -10 -305 6 -105 20 -191 20 -208
-1z"/>
<path d="M6603 4328 c-2 -5 -58 -8 -124 -8 -96 0 -119 -3 -119 -14 0 -11 20
-15 86 -18 47 -2 92 1 100 5 9 5 18 1 26 -13 26 -41 218 -20 218 25 0 10 10
15 30 15 20 0 30 -5 30 -15 0 -12 15 -15 68 -17 37 0 81 -3 97 -5 97 -12 188
-14 198 -4 7 7 55 11 118 11 88 0 108 3 113 16 3 9 3 20 0 25 -7 12 -833 8
-841 -3z"/>
<path d="M7533 4330 c-43 -14 -47 -50 -5 -50 15 -1 164 -3 331 -5 l303 -5 -7
28 c-4 15 -7 28 -8 29 -9 8 -588 11 -614 3z"/>
<path d="M8243 4327 c-35 -8 -43 -14 -43 -32 0 -18 7 -24 35 -29 20 -4 44 -2
56 5 16 8 105 11 308 9 368 -4 361 -4 361 18 0 32 -103 42 -402 41 -150 -1
-292 -6 -315 -12z"/>
<path d="M1878 4220 c-7 -11 -23 -20 -35 -20 -28 0 -37 -14 -18 -30 8 -7 15
-9 15 -5 0 4 7 2 15 -5 8 -6 14 -15 13 -18 -5 -41 35 -61 72 -35 26 18 26 43
0 43 -11 0 -20 5 -20 11 0 7 14 9 38 5 27 -5 43 -1 60 12 l23 18 -21 22 c-29
31 -123 32 -142 2z"/>
<path d="M537 4223 c-4 -3 -7 -21 -7 -39 0 -27 -5 -34 -31 -43 -22 -8 -36 -8
-45 -1 -13 12 -64 3 -64 -11 0 -5 -7 -9 -15 -9 -8 0 -15 -9 -15 -20 0 -27 26
-25 33 2 l6 23 20 -21 c21 -24 81 -39 111 -29 24 8 26 33 5 41 -12 5 -13 10
-4 20 7 9 30 12 76 9 41 -2 78 2 99 11 39 16 44 28 12 31 -13 1 -40 4 -62 5
-21 2 -44 11 -51 21 -12 17 -55 23 -68 10z"/>
<path d="M0 2623 c0 -860 2 -1563 5 -1563 3 0 14 15 25 33 22 36 27 107 8 107
-15 0 -15 -18 -18 1210 -2 762 0 905 11 905 19 0 22 12 10 33 -10 15 -10 15
-11 -3 -1 -19 -1 -19 -11 -2 -7 12 -9 152 -7 418 2 220 0 405 -4 412 -4 6 -8
-691 -8 -1550z"/>
<path d="M5049 3926 c-17 -8 -25 -21 -27 -46 -2 -19 -8 -38 -14 -41 -6 -4 -8
-14 -5 -22 8 -21 141 -29 427 -24 263 5 291 8 320 37 l20 20 -24 6 c-13 3 -65
3 -117 0 -363 -22 -360 -22 -461 -2 -93 18 -97 20 -82 37 14 16 15 20 2 33
-12 12 -20 12 -39 2z"/>
<path d="M3460 3848 c0 -5 5 -8 10 -8 6 0 10 -7 10 -15 0 -21 42 -26 275 -30
116 -2 236 -6 268 -10 39 -5 57 -3 57 4 0 6 9 11 20 11 10 0 24 9 30 20 9 17
6 20 -22 24 -53 9 -648 12 -648 4z"/>
<path d="M4200 3848 c0 -4 -9 -8 -20 -8 -22 0 -25 -7 -10 -30 8 -13 61 -15
380 -15 395 0 405 1 377 47 -11 18 -28 19 -369 17 -197 -1 -358 -6 -358 -11z"/>
<path d="M5820 3852 c0 -5 -9 -12 -20 -15 -23 -6 -27 -32 -6 -40 30 -12 179
-20 173 -10 -9 15 26 23 47 11 19 -11 39 -1 30 14 -5 7 2 9 20 6 29 -6 39 2
30 25 -4 12 -31 15 -140 16 -76 1 -134 -2 -134 -7z"/>
<path d="M6348 3854 c-2 -2 -56 -4 -121 -5 -116 -1 -117 -1 -117 -25 0 -23 3
-24 73 -24 41 0 135 -3 210 -7 l136 -6 12 26 c14 30 59 39 59 12 0 -12 18 -15
105 -15 87 0 105 -3 105 -15 0 -17 30 -20 46 -6 5 5 83 14 173 20 90 6 167 13
169 16 3 3 1 9 -4 14 -8 8 -839 23 -846 15z"/>
<path d="M7335 3850 c-11 -5 -37 -9 -57 -9 -30 -1 -38 -5 -38 -20 0 -10 7 -22
16 -25 29 -11 656 -7 649 4 -7 11 12 40 25 40 4 0 7 -8 6 -17 -2 -25 89 -38
168 -25 66 11 348 9 514 -3 99 -7 102 -7 102 13 0 12 -4 24 -10 27 -5 3 -10 1
-10 -5 0 -7 -14 -3 -33 9 -33 20 -44 21 -673 20 -351 0 -648 -4 -659 -9z"/>
<path d="M1609 3783 c-1 -5 -1 -19 0 -33 l1 -25 -12 23 c-15 29 -38 28 -38 -2
0 -18 -6 -25 -22 -28 -16 -2 -25 -12 -29 -33 -6 -29 -7 -29 -8 -4 0 16 -8 30
-18 34 -14 4 -15 3 -7 -5 9 -9 5 -18 -12 -35 -15 -15 -24 -36 -24 -56 0 -22
-4 -30 -13 -26 -10 4 -13 -2 -9 -19 3 -19 11 -24 32 -24 26 0 29 4 36 53 6 40
9 47 13 28 7 -27 31 -41 31 -18 0 8 6 20 14 26 11 9 14 9 13 -1 -1 -46 4 -68
18 -68 9 0 18 6 21 14 3 8 18 18 34 21 38 8 53 60 25 88 -18 18 -31 67 -17 67
5 0 12 -9 15 -20 3 -11 13 -20 22 -20 26 0 15 44 -12 48 -13 2 -23 8 -23 13 0
11 -29 12 -31 2z"/>
<path d="M6960 3393 c0 -21 -2 -22 -157 -18 -563 14 -646 15 -656 7 -17 -13
-297 -23 -297 -10 0 6 -105 8 -280 6 -219 -2 -283 -6 -289 -16 -8 -14 -120
-13 -433 4 -115 6 -118 5 -118 -15 0 -14 8 -23 25 -27 32 -8 607 -11 665 -3
25 3 56 12 70 19 17 9 25 10 28 2 8 -26 146 -43 193 -24 32 13 129 16 219 7
36 -4 88 -6 117 -6 28 1 54 -3 58 -9 3 -5 22 -10 41 -10 19 0 34 -5 34 -11 0
-11 88 -7 108 5 17 10 15 26 -4 26 -14 0 -14 3 -4 15 7 8 19 15 27 15 7 0 16
-7 19 -15 7 -17 34 -21 34 -4 0 16 219 -4 258 -23 15 -8 29 -8 45 -1 60 28 85
33 172 33 61 0 96 4 101 12 5 8 10 6 15 -8 6 -16 8 -16 8 -2 1 9 9 21 19 27
16 9 16 11 0 28 -17 17 -18 16 -18 -4z"/>
<path d="M3263 3372 c-17 -2 -23 -10 -23 -28 l0 -24 125 0 c77 0 125 -4 125
-10 0 -6 66 -10 179 -10 164 0 179 2 183 18 5 17 12 17 94 8 181 -22 774 -9
774 16 0 5 -4 7 -9 3 -6 -3 -14 3 -20 12 -11 20 13 19 -561 17 -157 -1 -411
-1 -565 0 -154 1 -290 0 -302 -2z"/>
<path d="M7285 3370 c-231 -4 -300 -8 -299 -17 2 -29 5 -32 18 -27 7 3 16 -2
20 -11 3 -10 11 -13 18 -9 16 10 410 5 423 -6 21 -16 88 -22 96 -8 7 11 11 10
20 -2 8 -11 12 -12 16 -2 7 17 43 15 43 -3 0 -30 30 -7 34 27 2 17 19 21 27 5
7 -12 23 -17 62 -18 38 0 47 -3 32 -9 -14 -6 3 -9 53 -9 68 -1 73 0 67 18 -9
30 41 35 244 26 207 -10 349 -10 359 -1 10 11 -20 26 -53 26 -17 0 -41 7 -53
15 -19 14 -73 16 -396 14 -375 -1 -375 -1 -379 -23 -4 -20 -4 -20 -6 2 -1 17
-6 21 -23 20 -13 -2 -158 -5 -323 -8z"/>
<path d="M19185 3123 c-3 -10 -5 -158 -4 -328 2 -171 0 -316 -5 -323 -10 -17
-26 -15 -26 3 0 17 -36 20 -59 6 -10 -6 -12 -19 -7 -45 6 -32 5 -36 -14 -36
-25 0 -37 -27 -21 -43 7 -7 29 -12 49 -12 36 0 37 -1 37 -35 0 -31 -3 -35 -22
-32 -20 3 -23 -1 -23 -27 0 -17 5 -31 10 -31 6 0 11 -10 11 -22 1 -14 6 -5 12
20 5 23 15 42 21 42 13 0 6 110 -9 144 -7 17 -4 18 28 14 l37 -4 0 363 c0 200
-2 363 -4 363 -2 0 -7 -8 -11 -17z"/>
<path d="M2530 3012 c0 -7 -11 -12 -25 -12 -14 0 -25 -4 -25 -10 0 -5 -18 -10
-40 -10 -36 0 -40 -3 -40 -24 0 -23 19 -38 58 -45 4 0 5 -25 4 -55 -3 -48 -2
-54 20 -61 41 -13 48 -13 48 -4 0 5 10 9 23 9 12 0 32 3 43 6 26 7 50 52 35
67 -12 12 -77 37 -103 41 -25 3 -57 36 -51 52 3 9 14 11 34 7 21 -4 30 -1 35
11 4 10 2 22 -5 29 -8 8 -11 8 -11 -1z"/>
<path d="M3696 2908 c3 -4 -2 -8 -11 -8 -8 0 -24 -5 -35 -12 -15 -10 -22 -9
-38 5 -18 16 -45 18 -317 15 -281 -3 -297 -4 -311 -22 -8 -11 -11 -23 -6 -28
12 -12 636 -23 629 -11 -4 6 4 13 18 16 26 4 45 -8 24 -15 -10 -3 311 -6 874
-8 26 0 37 -4 37 -15 0 -8 7 -15 15 -15 8 0 15 7 15 15 0 13 37 15 278 16 358
0 346 -1 350 25 2 17 -4 23 -29 28 -55 11 -147 7 -152 -6 -5 -16 -310 -12
-340 3 -10 6 -48 10 -85 10 -37 -1 -107 -2 -157 -2 -371 -5 -510 -5 -580 2
-144 14 -184 16 -179 7z"/>
<path d="M7316 2902 c-3 -2 -1416 -13 -1611 -12 -27 0 -116 3 -196 6 -80 3
-167 1 -193 -3 -46 -8 -46 -8 -31 -30 12 -17 26 -23 56 -23 21 0 39 -4 39 -10
0 -15 78 -12 83 3 3 11 67 12 378 7 9 0 20 -10 26 -22 l10 -23 7 23 c7 19 14
22 66 22 50 0 60 3 65 20 7 23 12 24 45 5 17 -10 57 -14 123 -15 78 0 97 -3
97 -14 0 -8 4 -17 8 -20 9 -5 98 11 127 24 34 14 243 20 249 7 3 -9 5 -8 5 1
1 8 9 10 25 6 18 -4 25 -1 29 13 4 15 5 15 6 -4 1 -23 -8 -21 186 -36 26 -3
18 -4 -22 -5 -63 -2 -63 -2 -63 -32 0 -16 5 -30 10 -30 6 0 10 -9 10 -20 0
-11 7 -20 15 -20 8 0 15 -6 15 -13 0 -7 18 -18 40 -23 46 -13 76 1 83 39 3 16
4 15 2 -5 -1 -20 4 -27 20 -30 33 -7 48 1 34 18 -17 20 5 44 23 26 32 -32 54
13 25 52 -16 22 -53 17 -49 -7 2 -14 -5 -17 -37 -17 -22 0 -41 -5 -44 -12 -2
-7 -8 -9 -13 -5 -5 4 -2 12 6 18 13 8 13 10 0 19 -13 8 -13 10 3 11 35 3 38 4
47 19 7 12 36 15 142 17 151 2 191 8 211 28 8 8 27 17 42 21 26 6 27 5 22 -18
l-7 -25 308 0 c169 0 334 -3 367 -5 68 -6 122 8 128 31 3 12 -4 16 -30 17 -19
0 -38 5 -41 11 -5 8 -143 12 -425 14 -230 2 -420 3 -421 1z"/>
<path d="M3675 2682 c-2 -2 -1 -10 2 -18 6 -16 -18 -105 -26 -99 -4 2 -4 -17
-2 -41 2 -35 0 -44 -13 -44 -9 0 -16 -4 -16 -10 0 -5 -18 -10 -40 -10 -22 0
-40 -4 -40 -10 0 -5 -17 -11 -37 -12 -21 -1 -2 -4 42 -7 59 -5 7 -9 -195 -16
-151 -5 -282 -10 -290 -10 -10 0 -14 8 -13 23 2 16 -2 22 -16 22 -10 0 -21 -7
-24 -14 -4 -10 -1 -13 9 -9 7 3 14 0 14 -7 0 -10 -35 -12 -142 -10 -232 5
-227 7 -187 -68 18 -33 28 -41 67 -50 62 -14 95 -1 90 35 -3 24 1 28 47 40 34
9 111 13 245 12 107 0 204 2 216 6 13 4 27 1 37 -9 12 -12 37 -16 106 -16 54
0 91 4 91 10 0 6 34 10 81 10 97 0 139 -21 139 -71 0 -16 4 -29 9 -29 18 0 22
20 12 56 l-10 35 162 -2 c89 -1 172 1 185 5 18 6 22 4 22 -13 0 -13 -7 -21
-17 -22 -10 0 -3 -5 14 -10 20 -6 51 -6 80 0 42 8 44 9 15 10 -22 1 -32 5 -29
14 5 16 645 11 665 -6 15 -12 27 -2 36 28 8 29 -33 45 -115 45 -47 0 -70 -4
-79 -15 -18 -22 -312 -22 -330 0 -9 10 -34 14 -97 14 -111 0 -116 -3 -108 -47
6 -32 5 -34 -9 -22 -9 7 -14 20 -11 30 12 38 -84 87 -104 53 -9 -15 -12 -15
-19 -5 -6 8 -22 12 -42 10 -18 -2 -31 1 -29 7 2 6 16 10 32 9 24 0 27 3 27 34
0 24 -4 33 -13 29 -10 -4 -13 2 -9 19 3 17 0 24 -12 24 -9 0 -16 4 -16 9 0 5
-16 9 -35 8 -19 -1 -35 -5 -35 -10 0 -4 -7 -1 -16 7 -18 18 -47 21 -74 6 -13
-7 -19 -6 -24 5 -3 8 -10 15 -17 15 -6 0 -9 -6 -6 -13 4 -10 -2 -13 -20 -9
l-26 5 28 15 28 14 -24 13 c-27 15 -39 11 -39 -11 0 -9 -7 -14 -17 -12 -14 2
-17 12 -15 44 3 40 3 41 -28 40 -17 -1 -33 -3 -35 -4z"/>
<path d="M5640 2423 c0 -25 -82 -30 -252 -16 -95 7 -211 12 -258 11 -84 -3
-85 -3 -88 -30 l-3 -27 362 1 c342 0 362 1 366 18 6 23 63 25 63 3 0 -12 17
-14 95 -11 52 1 95 -1 95 -5 0 -5 42 -6 93 -3 50 4 140 10 199 14 110 7 130
14 109 35 -13 13 -48 14 -361 7 -107 -2 -246 0 -307 4 -67 5 -113 4 -113 -1z"/>
<path d="M6485 2423 c-34 -9 -40 -21 -20 -43 10 -11 21 -18 25 -15 3 2 17 -1
31 -8 18 -9 97 -11 299 -7 270 5 276 5 308 29 30 21 32 25 19 38 -12 12 -19
13 -37 3 -17 -9 -68 -11 -189 -6 -348 13 -417 14 -436 9z"/>
<path d="M7175 2401 c3 -12 0 -21 -10 -25 -8 -3 -15 -12 -15 -21 0 -8 -9 -15
-19 -15 -23 0 -33 -23 -25 -56 5 -18 12 -24 28 -22 17 2 21 10 21 43 l0 40 82
-3 c45 -2 88 0 95 5 14 9 18 9 303 12 110 1 226 -3 258 -8 55 -10 87 -7 87 8
0 13 -24 31 -42 31 -11 0 -15 5 -12 15 5 13 -40 15 -376 15 -369 0 -381 -1
-375 -19z"/>
<path d="M6150 2263 c0 -15 9 -46 20 -69 16 -32 25 -41 40 -37 21 6 79 -41 66
-54 -4 -4 -15 3 -25 16 -24 32 -51 22 -51 -18 0 -38 16 -47 78 -43 l49 4 -7
31 c-11 46 -21 67 -31 67 -5 0 -9 13 -9 29 0 17 -4 32 -10 36 -5 3 -7 12 -4
19 9 24 -25 46 -72 46 -41 0 -44 -2 -44 -27z"/>
<path d="M4857 2193 c-4 -3 -7 -21 -7 -40 0 -26 4 -33 20 -33 27 0 27 -36 -1
-43 -25 -7 -21 -28 8 -42 12 -5 26 -19 32 -32 6 -13 17 -23 26 -23 8 0 15 -4
15 -10 0 -5 13 -10 29 -10 34 0 41 17 41 98 0 65 -23 97 -63 87 -22 -6 -25 -4
-20 14 4 16 -1 23 -22 31 -31 12 -49 13 -58 3z"/>
<path d="M19185 2068 c-5 -18 -9 -44 -9 -58 -1 -19 -7 -26 -28 -28 -20 -2 -27
2 -30 18 -2 11 -7 22 -13 23 -14 3 -24 -70 -11 -84 8 -8 8 -13 -1 -16 -7 -3
-13 -14 -13 -25 0 -16 5 -19 24 -14 14 3 28 2 31 -4 3 -5 11 -10 16 -10 6 0 7
5 4 10 -3 6 -2 10 3 10 5 0 12 -10 16 -22 9 -35 7 -88 -4 -88 -5 0 -14 -9 -21
-21 -9 -17 -7 -25 10 -43 28 -30 26 -36 -8 -36 -55 0 -49 -27 13 -65 9 -5 20
-30 25 -55 6 -30 9 52 10 248 1 160 -1 292 -3 292 -2 0 -7 -15 -11 -32z"/>
<path d="M7612 1965 l3 -26 -347 1 c-245 0 -348 -3 -348 -10 0 -6 5 -20 10
-31 10 -18 24 -19 320 -19 200 0 310 -4 310 -10 0 -5 18 -10 40 -10 22 0 40
-4 40 -10 0 -5 16 -10 35 -10 19 0 35 5 35 10 0 6 -7 10 -15 10 -8 0 -15 5
-15 10 0 6 9 10 20 10 11 0 20 -7 20 -15 0 -8 5 -15 10 -15 19 0 10 22 -22 54
-20 19 -40 30 -52 28 -12 -3 -17 1 -14 10 3 7 12 12 22 10 9 -2 16 4 16 11 0
16 -21 27 -52 27 -15 0 -19 -6 -16 -25z"/>
<path d="M5420 1937 c-172 -11 -262 -11 -493 -2 -96 4 -137 3 -132 -4 3 -6 1
-11 -4 -11 -7 0 -11 -23 -11 -56 0 -64 16 -87 57 -82 27 3 28 5 25 49 l-3 46
110 8 c61 3 114 11 117 17 4 6 9 7 13 0 3 -5 45 -13 94 -17 84 -7 87 -6 87 14
0 12 5 21 10 21 6 0 10 -6 10 -14 0 -27 159 -37 195 -13 17 12 33 12 100 0 65
-11 87 -12 118 -2 32 10 40 10 47 -1 6 -10 41 -12 172 -7 152 6 264 23 228 35
-8 3 -20 12 -26 20 -8 11 -23 13 -60 8 -52 -7 -163 -7 -364 -2 -69 2 -199 -2
-290 -7z"/>
<path d="M3755 1931 c-43 -9 -45 -38 -3 -46 61 -10 175 1 193 18 21 21 23 21
21 0 -1 -15 9 -19 54 -21 78 -5 157 7 176 25 13 14 17 14 25 2 8 -11 9 -10 7
6 -3 19 -11 20 -223 21 -121 0 -233 -2 -250 -5z"/>
<path d="M6223 1920 c-3 -11 -10 -17 -17 -13 -6 4 -5 -1 3 -11 13 -16 39 -17
323 -14 l308 3 0 28 0 27 -306 0 c-297 0 -306 -1 -311 -20z"/>
<path d="M5561 1871 c-1 -8 -7 -11 -17 -7 -8 3 -33 3 -55 0 -30 -5 -41 -12
-45 -30 -3 -12 -2 -29 3 -36 4 -7 8 -24 8 -38 0 -23 4 -25 48 -28 28 -2 47 1
47 7 0 6 8 11 18 12 13 0 14 2 2 6 -31 12 -39 36 -24 65 8 16 17 28 20 28 3 0
2 -4 -1 -10 -3 -5 -2 -10 4 -10 6 0 8 -7 5 -15 -4 -10 0 -15 11 -15 9 0 13 5
9 11 -3 6 -1 15 6 19 17 11 4 44 -14 37 -8 -3 -17 -1 -20 6 -3 8 -5 8 -5 -2z"/>
<path d="M6140 1610 c0 -24 -8 -25 -32 -3 -17 16 -20 16 -35 0 -16 -16 -16
-18 -1 -34 14 -13 20 -14 32 -3 13 10 16 10 16 -2 0 -11 -15 -17 -50 -22 -27
-4 -55 -13 -63 -20 -8 -8 -49 -18 -92 -23 -47 -5 -80 -13 -83 -20 -2 -8 6 -13
22 -13 14 0 26 -4 26 -10 0 -11 -179 -14 -254 -4 -33 5 -43 10 -37 18 15 18 7
49 -15 57 -32 13 -35 10 -32 -26 1 -21 7 -35 15 -35 7 0 13 -4 13 -9 0 -21
-278 -27 -292 -7 -6 8 -11 6 -17 -3 -8 -12 -12 -12 -25 -2 -15 12 -15 15 1 27
30 22 4 36 -47 25 -62 -14 -74 -31 -22 -31 23 0 42 -4 42 -8 0 -5 -99 -10
-220 -11 -121 -1 -220 2 -220 6 0 12 -212 0 -234 -13 -11 -7 -17 -18 -13 -27
5 -13 51 -14 354 -11 191 1 372 6 402 10 38 5 52 4 47 -4 -8 -13 24 -32 53
-32 12 0 30 9 42 21 17 17 27 20 57 12 47 -10 167 -10 302 0 74 6 101 5 90 -2
-8 -6 -10 -11 -4 -11 5 0 14 4 20 9 5 5 24 12 42 16 26 5 32 4 32 -11 0 -16
13 -17 173 -11 94 4 238 7 320 7 140 0 147 1 147 20 0 19 -7 20 -97 22 -54 0
-147 2 -208 3 l-110 2 -22 33 c-13 18 -23 43 -23 55 0 28 22 47 44 39 20 -8
21 12 2 32 -21 21 -46 17 -46 -6z"/>
<path d="M6855 1479 c-25 -6 -24 -6 8 -4 20 2 37 -1 37 -6 0 -5 -40 -9 -89 -9
-105 0 -141 -10 -141 -41 0 -21 1 -21 213 -19 242 3 266 3 251 -8 -6 -4 -15
-22 -19 -39 -7 -34 -25 -46 -25 -17 0 19 -24 44 -43 44 -8 0 -17 -13 -20 -30
-7 -31 -27 -42 -27 -14 0 8 -4 12 -10 9 -19 -11 -11 -53 11 -60 11 -4 18 -13
15 -20 -5 -13 24 -26 54 -24 8 1 5 4 -8 7 -24 7 -31 27 -9 27 6 0 12 7 12 15
0 20 14 21 45 4 24 -13 24 -13 3 -14 -38 0 -37 -20 1 -20 25 0 36 4 36 15 0 8
6 14 13 12 7 -1 13 11 15 32 3 30 21 61 36 61 3 0 6 -13 6 -30 l0 -30 73 2 72
2 -67 3 c-51 3 -68 8 -68 18 0 11 14 15 55 15 30 0 55 5 55 10 0 6 -25 10 -55
10 -30 0 -55 5 -55 10 0 6 42 10 105 10 100 0 105 1 105 21 0 15 -5 19 -16 15
-8 -3 -12 -2 -9 4 10 16 -11 19 -180 23 -93 2 -169 8 -181 15 -22 12 -145 12
-199 1z"/>
<path d="M19107 1248 c-7 -22 22 -66 45 -70 19 -2 24 -10 26 -47 2 -24 -2 -49
-7 -54 -8 -8 -11 4 -11 41 0 46 -2 52 -20 52 -20 0 -20 -5 -16 -110 3 -90 2
-110 -10 -110 -8 0 -14 -7 -14 -16 0 -8 -4 -12 -10 -9 -5 3 -10 1 -10 -6 0 -8
-4 -8 -12 -1 -7 6 -25 8 -40 5 -25 -5 -27 -9 -33 -82 -4 -42 -11 -94 -17 -116
-6 -22 -11 -51 -12 -65 -1 -14 -4 -30 -8 -35 -3 -6 -4 -22 -1 -36 5 -28 36
-39 107 -39 25 0 27 2 15 16 -15 19 -1 32 34 30 20 -1 22 -7 27 -89 3 -48 9
-86 13 -85 21 7 28 -44 28 -213 0 -99 -2 -183 -4 -186 -3 -2 -54 -8 -114 -12
l-108 -8 123 -2 122 -1 0 621 c0 410 -3 618 -10 614 -5 -3 -20 1 -32 9 -27 19
-45 20 -51 4z"/>
<path d="M7168 1203 c-24 -4 -28 -9 -28 -39 0 -19 5 -34 11 -34 7 0 22 -11 35
-25 13 -14 19 -25 14 -25 -6 0 -10 -7 -10 -16 0 -8 -4 -13 -9 -10 -5 3 -11 0
-14 -8 -4 -11 -14 -12 -41 -6 -27 6 -36 5 -36 -5 0 -8 -7 -21 -16 -29 -14 -15
-14 -16 3 -17 10 -1 -2 -5 -27 -10 -68 -12 -562 -11 -555 1 7 11 -27 12 -64 1
-33 -9 -39 -49 -8 -56 12 -2 182 -3 378 -2 329 2 358 3 377 20 14 13 22 15 27
7 6 -9 10 -9 17 1 7 11 11 11 15 2 6 -15 33 -17 33 -3 0 6 7 10 15 10 8 0 15
9 15 20 0 11 5 20 10 20 6 0 10 16 10 36 0 27 -5 37 -19 41 -14 4 -21 15 -23
42 -3 34 -5 36 -44 39 -38 3 -41 5 -36 28 2 13 3 23 1 23 -2 -1 -16 -4 -31 -6z"/>
<path d="M6260 1144 c0 -19 4 -25 15 -20 10 3 15 -1 15 -12 0 -9 4 -22 8 -29
9 -15 112 -34 109 -20 -1 5 4 12 11 14 17 7 16 -38 -3 -63 -14 -21 -13 -21 18
-15 l32 7 -2 63 c-1 35 -3 65 -5 67 -10 9 -127 34 -160 34 -34 0 -38 -3 -38
-26z"/>
<path d="M18893 1003 c-4 -10 -15 -25 -25 -34 -12 -11 -17 -29 -17 -55 1 -21
-2 -49 -6 -61 -5 -15 -3 -23 4 -23 6 0 11 -7 11 -15 0 -16 36 -20 78 -9 25 7
31 34 7 34 -8 0 -15 4 -15 9 0 5 7 11 15 15 18 7 22 96 4 96 -7 0 -9 -9 -5
-24 4 -16 1 -26 -9 -30 -14 -5 -20 5 -16 27 1 4 -3 16 -9 26 -7 14 -6 20 5 25
20 7 19 36 0 36 -9 0 -19 -8 -22 -17z"/>
<path d="M4385 969 c-77 -3 -141 -7 -142 -8 -2 0 5 -10 15 -20 16 -18 29 -19
178 -14 138 4 163 2 177 -11 8 -9 17 -12 19 -6 2 5 40 10 86 12 70 2 82 5 82
20 0 16 -11 18 -95 18 -61 0 -95 -4 -95 -11 0 -6 -7 -3 -16 5 -8 9 -21 16 -29
16 -7 0 -19 1 -27 3 -7 2 -76 0 -153 -4z"/>
<path d="M18405 820 c-15 -17 -17 -26 -8 -53 8 -26 7 -38 -3 -52 -10 -13 -14
-49 -14 -112 0 -51 -4 -93 -9 -93 -6 0 -9 18 -9 40 0 23 -2 43 -5 46 -10 11
-37 -66 -31 -91 5 -19 2 -25 -10 -25 -9 0 -16 5 -16 11 0 18 -30 -19 -31 -38
0 -15 -2 -14 -9 5 -14 34 -45 29 -46 -8 -1 -17 2 -30 6 -30 4 0 18 -9 31 -21
l24 -21 5 24 c4 14 13 23 25 23 17 0 20 -8 23 -55 3 -54 2 -56 -29 -67 -18 -7
-33 -12 -33 -10 -1 1 -9 16 -18 32 -20 36 -73 48 -81 18 -2 -11 -7 -2 -11 22
-12 63 -15 70 -28 57 -5 -5 -27 -8 -47 -5 l-36 5 23 -19 c24 -19 21 -33 -7
-33 -12 0 -16 -10 -16 -43 0 -23 5 -51 11 -62 6 -11 9 -26 7 -33 -7 -18 -32
16 -33 43 0 24 -36 51 -43 32 -5 -16 -57 -17 -57 -1 0 7 5 16 10 19 15 10 12
35 -5 35 -10 0 -15 10 -15 30 0 17 3 30 6 30 8 0 58 -60 66 -79 4 -10 7 -3 7
19 1 20 -7 47 -16 60 -10 14 -16 33 -15 44 5 27 -7 68 -18 61 -6 -3 -10 3 -10
13 0 19 -2 19 -41 6 -22 -8 -45 -12 -50 -9 -5 4 -12 -7 -15 -24 -5 -21 -12
-31 -25 -31 -25 0 -31 -14 -19 -44 10 -28 30 -35 30 -11 0 8 9 15 21 15 11 0
18 -4 15 -9 -3 -5 1 -14 9 -21 21 -17 9 -30 -26 -30 -17 0 -32 -6 -35 -15 -9
-23 -44 -19 -44 5 0 11 -7 20 -15 20 -8 0 -15 -7 -15 -15 0 -8 5 -15 10 -15
13 0 29 -41 23 -57 -3 -7 -9 -11 -13 -8 -19 12 -21 -18 -3 -38 11 -12 25 -35
32 -52 10 -25 48 -55 71 -55 4 0 7 20 8 44 1 70 6 73 85 50 13 -4 17 0 17 18
0 21 2 20 18 -8 22 -40 58 -84 67 -84 9 0 34 -31 35 -42 0 -5 -18 -8 -40 -8
-23 0 -40 -5 -40 -11 0 -6 7 -9 15 -5 8 3 15 1 15 -5 0 -6 7 -9 15 -5 8 3 15
1 15 -3 0 -14 -28 -21 -34 -8 -3 9 -7 8 -15 -3 -13 -19 -4 -32 19 -25 21 7 33
-7 24 -29 -5 -12 -10 -13 -26 -5 -12 6 -70 10 -141 9 -67 -1 -134 1 -148 5
-18 5 -31 2 -42 -9 -12 -12 -36 -16 -104 -16 -90 1 -115 9 -121 42 -2 13 3 17
20 15 19 -2 23 3 23 23 0 18 -5 25 -19 25 -10 0 -24 9 -30 20 -6 11 -12 22
-14 25 -2 2 -7 -2 -12 -10 -8 -13 -12 -12 -24 5 -15 19 -15 19 -16 -8 0 -24 3
-28 23 -23 12 3 16 3 10 0 -7 -3 -13 -18 -13 -32 0 -40 -12 -51 -56 -55 -23
-2 -46 -7 -53 -11 -17 -11 -31 3 -31 32 0 15 -7 36 -15 46 -15 20 -15 20 -30
0 -12 -15 -14 -16 -15 -3 0 20 -57 22 -64 2 -3 -7 -1 -13 4 -13 5 0 7 -7 4
-15 -5 -11 1 -15 19 -15 23 0 55 -25 45 -35 -2 -3 -360 -5 -795 -6 -441 0
-796 -5 -804 -10 -8 -5 322 -9 803 -9 644 0 817 3 821 13 4 9 6 9 6 0 1 -10
90 -13 412 -13 394 0 411 1 407 18 -3 11 0 19 8 19 8 0 14 -9 14 -19 0 -17 20
-18 424 -18 377 0 425 2 430 16 12 32 6 54 -14 54 -14 0 -20 -7 -20 -24 l0
-24 -157 -4 c-157 -4 -193 1 -193 26 0 18 -57 28 -82 15 -11 -6 -29 -9 -39 -6
-10 3 -22 1 -25 -4 -3 -5 -22 -9 -42 -8 -29 0 -33 2 -17 8 11 5 22 7 25 6 3
-2 16 4 28 14 16 11 21 22 16 35 -5 14 -9 15 -15 4 -7 -10 -9 -10 -9 0 0 6 -6
12 -14 12 -7 0 -16 15 -20 33 -5 26 -9 29 -17 17 -9 -12 -9 -11 -3 5 4 11 8
34 9 50 4 65 22 77 75 50 34 -18 40 -57 14 -86 -18 -20 -11 -39 13 -39 11 0
14 7 11 25 -7 35 17 32 53 -6 32 -35 62 -35 67 -1 2 16 -2 22 -15 23 -16 0
-16 1 2 8 18 8 17 10 -12 27 -22 13 -33 27 -33 42 0 17 -8 26 -30 33 -16 6
-30 17 -30 24 0 7 -7 12 -16 11 -9 0 -19 5 -21 12 -3 6 2 12 10 12 29 0 34 47
15 129 -7 30 -17 51 -25 51 -7 0 -13 5 -13 10 0 14 12 12 61 -10 55 -24 107
-26 116 -4 11 29 -12 49 -63 54 l-49 5 0 60 c0 54 2 60 22 63 14 2 23 -3 26
-15 4 -16 5 -17 6 0 2 31 31 20 31 -12 0 -34 8 -42 36 -35 30 8 19 57 -21 100
-37 39 -74 45 -82 14 -3 -12 -10 -19 -16 -17 -13 4 -29 57 -22 75 7 20 -50 14
-70 -8z m-209 -629 c-4 -10 0 -8 13 6 22 26 31 20 31 -19 0 -36 17 -37 23 0 4
26 4 26 6 -5 0 -17 7 -34 14 -36 9 -4 8 -8 -3 -16 -11 -8 -16 -6 -21 6 -5 15
-6 15 -11 1 -4 -9 -2 -20 4 -26 6 -6 7 -16 2 -24 -9 -14 -14 -38 -9 -38 2 0
15 4 29 10 23 8 26 7 26 -12 0 -19 -4 -20 -46 -14 -26 3 -53 6 -60 6 -8 0 -14
10 -14 23 0 13 -5 28 -12 35 -10 10 -16 5 -30 -20 -9 -18 -17 -26 -18 -17 0
15 17 58 41 101 5 10 9 26 9 36 0 10 3 22 6 25 12 11 26 -4 20 -22z"/>
<path d="M17773 793 c-7 -2 -13 -21 -13 -41 1 -35 1 -36 16 -17 12 17 16 18
24 5 12 -20 -25 -44 -69 -45 -30 0 -35 -4 -38 -28 -3 -22 1 -29 22 -37 26 -10
26 -30 -1 -30 -8 0 -14 -7 -14 -15 0 -9 9 -15 25 -15 15 0 25 -6 25 -14 0 -7
6 -19 14 -25 12 -10 18 -7 31 13 9 14 14 29 11 35 -3 5 2 7 13 4 24 -6 36 24
16 43 -15 15 -19 46 -15 112 1 18 -4 40 -10 48 -13 15 -17 16 -37 7z"/>
<path d="M18665 793 c-16 -13 -16 -33 0 -39 17 -7 21 -34 5 -34 -19 0 -11 -79
10 -100 11 -11 20 -27 20 -35 0 -8 10 -25 21 -36 16 -16 23 -38 27 -85 6 -77
19 -92 59 -67 20 13 27 25 25 41 -4 24 -17 29 -25 10 -3 -7 -6 7 -6 32 -1 25
-4 56 -8 69 -4 17 -3 22 6 17 6 -4 9 -12 5 -17 -3 -6 3 -5 15 3 15 9 21 23 21
50 0 21 -5 38 -11 38 -5 0 -7 5 -4 10 3 6 2 10 -4 10 -5 0 -15 -8 -20 -17 -8
-15 -11 -15 -12 -3 -1 8 -2 20 -3 25 -1 13 -44 55 -55 55 -6 0 -11 17 -13 38
-2 28 -8 38 -23 40 -11 1 -24 -1 -30 -5z"/>
<path d="M3720 492 c0 -23 30 -52 53 -52 9 0 17 -6 17 -14 0 -10 15 -14 59
-14 47 0 58 3 54 14 -3 8 -1 14 4 14 6 0 19 8 31 18 20 18 20 18 -21 29 -23 6
-68 12 -101 12 -32 0 -67 3 -77 6 -14 5 -19 1 -19 -13z"/>
<path d="M4057 488 c-26 -7 -37 -15 -35 -25 3 -14 48 -16 357 -16 288 0 355 3
362 14 4 8 5 17 1 21 -11 11 -135 12 -278 3 -95 -6 -133 -5 -138 4 -9 14 -214
13 -269 -1z"/>
<path d="M6450 490 c-151 -3 -276 -7 -277 -8 -2 -1 -3 -8 -3 -16 0 -11 39 -15
195 -21 212 -8 549 -2 578 10 9 4 17 16 17 26 0 21 47 20 -510 9z"/>
<path d="M18866 378 c-21 -29 -21 -88 -1 -88 8 0 15 -9 15 -19 0 -25 32 -81
46 -81 23 0 44 171 24 195 -19 23 -66 19 -84 -7z"/>
<path d="M1407 293 c-3 -5 -8 -27 -12 -51 -4 -24 -13 -46 -21 -49 -21 -8 -17
-33 6 -33 29 0 35 3 32 18 -2 6 2 12 8 12 5 0 10 -7 10 -15 0 -21 21 -19 80 7
51 22 67 48 30 48 -11 0 -21 5 -21 10 -1 6 -2 15 -3 20 0 6 -5 10 -10 9 -5 0
-13 6 -18 15 -9 16 -73 23 -81 9z"/>
<path d="M17187 272 c-22 -4 -33 -42 -16 -54 11 -7 11 -11 2 -15 -15 -6 -17
-33 -3 -33 6 0 13 0 18 0 4 -1 10 16 14 37 6 35 6 33 5 -12 -2 -48 -1 -50 24
-47 15 1 32 -4 39 -13 11 -13 14 -12 31 8 l18 22 -6 -23 c-5 -20 -2 -22 36
-22 34 0 41 3 41 20 0 11 -6 20 -14 20 -7 0 -16 10 -19 21 -5 20 -7 20 -22 5
-18 -18 -21 -17 -89 49 -23 22 -49 39 -59 37z"/>
<path d="M1287 79 c-13 -8 -17 -18 -13 -34 5 -21 2 -23 -59 -30 -36 -3 -93 -4
-127 -1 -35 3 -133 2 -218 -2 -106 -6 159 -9 833 -10 725 -2 987 1 987 9 0 8
-38 10 -127 8 -71 -2 -270 -2 -444 -1 -300 2 -316 3 -337 22 -22 21 -52 27
-52 10 0 -5 9 -10 20 -10 11 0 20 -4 20 -8 0 -5 -85 -8 -189 -8 l-189 1 -6 26
c-7 36 -60 51 -99 28z"/>
<path d="M3546 61 c4 -16 1 -32 -5 -35 -34 -21 7 -26 226 -26 210 0 235 2 217
15 -10 8 -30 15 -43 15 -24 0 -24 0 -5 14 16 12 22 13 40 1 25 -16 47 -6 34
15 -12 19 -129 23 -153 5 -15 -11 -16 -13 -2 -19 8 -3 15 -10 15 -15 0 -7 -39
-9 -107 -6 -60 2 -125 5 -145 5 -27 0 -38 4 -38 15 0 8 5 15 10 15 6 0 10 7
10 15 0 10 -10 15 -30 15 -27 0 -29 -2 -24 -29z"/>
<path d="M4877 50 c-16 -19 -29 -20 -225 -20 -285 0 -602 -11 -602 -22 0 -4
404 -7 898 -6 493 1 827 4 742 8 -85 3 -160 8 -166 12 -7 4 -117 4 -245 -1
-222 -9 -236 -9 -265 10 -17 10 -43 19 -57 19 -14 0 -29 5 -32 10 -10 16 -29
12 -48 -10z"/>
<path d="M9178 63 c0 -5 -1 -15 -2 -23 -1 -13 -158 -15 -1336 -17 -1588 -3
-1452 -3 -1575 -2 -55 0 -156 -4 -225 -9 -78 -6 1593 -10 4438 -11 3035 -1
4562 2 4562 9 0 10 -1924 17 -3290 12 -410 -1 -571 1 -587 10 -17 8 -26 8 -36
0 -10 -9 -268 -12 -968 -12 l-954 -1 -3 26 c-3 23 -20 36 -24 18z"/>
</g>
</svg>
