<?xml version="1.0" standalone="no"?>
<!DOCTYPE svg PUBLIC "-//W3C//DTD SVG 20010904//EN"
 "http://www.w3.org/TR/2001/REC-SVG-20010904/DTD/svg10.dtd">
<svg version="1.0" xmlns="http://www.w3.org/2000/svg"
 width="1920.000000pt" height="1080.000000pt" viewBox="0 0 1920.000000 1080.000000"
 preserveAspectRatio="xMidYMid meet">
<metadata>
Created by potrace 1.16, written by Peter Selinger 2001-2019
</metadata>
<g transform="translate(0.000000,1080.000000) scale(0.100000,-0.100000)"
fill="#000000" stroke="none">
<path d="M2 10178 l3 -623 2 617 3 618 5702 0 c3136 0 5704 2 5706 5 3 3
-2565 5 -5706 5 l-5712 0 2 -622z"/>
<path d="M12248 10793 c408 -2 1076 -2 1485 0 408 1 74 2 -743 2 -817 0 -1151
-1 -742 -2z"/>
<path d="M2 3308 c-1 -1820 1 -3308 6 -3308 7 0 6 6525 -1 6585 -2 17 -5
-1458 -5 -3277z"/>
<path d="M4582 5812 c-13 -2 -26 -10 -29 -18 -3 -8 -16 -14 -29 -14 -27 0
-104 -73 -104 -98 0 -9 -6 -23 -14 -31 -29 -33 -57 -93 -51 -112 4 -13 2 -19
-9 -19 -9 0 -24 -19 -35 -43 -11 -24 -27 -50 -36 -57 -17 -14 -21 -50 -5 -50
6 0 10 -4 10 -9 0 -5 -8 -8 -17 -7 -14 1 -17 -6 -14 -39 3 -45 25 -75 53 -75
10 0 18 -3 18 -7 0 -5 84 -7 186 -6 143 1 189 4 195 15 7 10 9 10 9 1 0 -9 16
-13 44 -13 48 0 61 12 100 87 16 31 15 33 -6 44 -14 8 -89 13 -213 14 -104 1
-191 3 -193 4 -1 0 7 20 19 42 11 23 18 50 16 60 -4 14 0 19 14 19 12 0 19 7
19 18 0 11 9 27 20 37 11 10 20 23 20 29 0 6 7 24 15 40 11 21 12 31 4 36 -16
10 36 19 53 9 8 -4 44 -4 81 1 43 7 75 6 92 0 15 -6 31 -7 36 -4 6 3 53 7 104
7 82 2 97 5 116 24 12 11 23 33 24 48 2 15 12 33 22 40 14 11 16 16 6 26 -10
10 -15 9 -26 -5 -11 -15 -15 -16 -25 -4 -8 11 -29 13 -79 10 -73 -4 -79 -4
-253 0 -63 2 -125 2 -138 0z"/>
<path d="M5275 5810 c-22 -4 -51 -12 -65 -20 -45 -24 -111 -102 -111 -130 0
-3 -9 -15 -21 -27 -11 -12 -17 -26 -14 -32 4 -5 1 -13 -5 -16 -5 -4 -8 -13 -5
-20 3 -8 -4 -17 -15 -20 -10 -4 -19 -14 -19 -24 0 -10 -7 -24 -14 -31 -13 -10
-42 -80 -37 -88 1 -1 -8 -12 -19 -24 -22 -23 -27 -58 -9 -58 7 0 9 -11 6 -26
-6 -31 22 -64 56 -65 12 0 30 -2 40 -4 9 -2 24 3 32 12 13 13 17 12 32 -2 16
-16 17 -16 29 -1 8 11 13 13 16 5 3 -8 58 -11 193 -11 176 0 193 1 226 21 20
12 47 35 59 51 12 16 26 27 31 24 4 -2 17 12 27 33 19 39 99 190 146 278 33
60 30 104 -10 146 l-26 27 -191 1 c-106 1 -214 3 -242 4 -27 1 -68 0 -90 -3z
m95 -138 c39 5 98 5 145 0 44 -5 99 -7 123 -5 34 4 42 2 42 -11 0 -9 -6 -16
-14 -16 -22 0 -68 -100 -55 -116 9 -11 4 -18 -19 -31 -21 -12 -33 -28 -37 -49
-3 -18 -13 -35 -21 -38 -9 -3 -14 -13 -11 -20 5 -11 -4 -14 -39 -12 -24 1 -44
-2 -44 -7 0 -5 -18 -6 -42 -1 -59 10 -158 11 -158 1 0 -5 -6 -5 -12 0 -17 10
-51 4 -60 -11 -6 -8 -8 -8 -8 2 0 6 -7 12 -16 12 -11 0 -14 5 -9 18 4 9 10 26
13 37 3 11 11 23 18 28 7 4 15 20 19 36 3 16 13 35 21 42 8 6 14 16 14 21 0 5
9 28 20 51 19 39 19 43 4 54 -9 7 -22 9 -28 6 -6 -4 -5 0 2 9 12 15 18 15 50
4 27 -10 54 -11 102 -4z"/>
<path d="M6070 5806 c-19 -5 -39 -16 -43 -23 -10 -17 -30 -17 -22 0 4 6 -5 -1
-19 -18 -45 -51 -48 -56 -42 -62 3 -3 -6 -19 -19 -35 -14 -16 -23 -34 -20 -39
6 -9 -7 -39 -27 -61 -20 -21 -48 -74 -48 -91 0 -8 -14 -32 -31 -53 -20 -25
-29 -46 -26 -61 2 -13 0 -23 -4 -23 -24 0 22 -110 46 -111 65 -2 127 0 132 4
3 4 14 2 24 -3 10 -6 62 -8 116 -6 54 3 136 5 183 5 82 1 87 2 120 33 19 18
38 31 43 30 4 -1 7 5 7 13 0 8 7 15 15 15 8 0 15 6 15 13 0 6 16 41 35 77 19
36 42 80 51 99 8 18 26 51 40 72 13 21 24 45 24 53 0 8 7 22 17 31 21 22 73
132 66 139 -4 3 -32 6 -64 6 -75 0 -112 -22 -141 -82 -13 -27 -25 -48 -28 -48
-3 0 -14 -17 -24 -37 -10 -21 -22 -45 -26 -53 -5 -8 -32 -61 -61 -117 l-52
-103 -56 -1 c-31 0 -90 -1 -133 -2 -42 -1 -75 1 -73 4 2 3 -16 4 -41 2 -30 -2
-44 0 -44 9 0 6 -9 22 -21 34 -16 17 -17 22 -6 27 10 4 17 -2 21 -16 6 -21 7
-21 25 8 10 17 31 50 47 75 16 25 27 48 26 53 -1 4 3 7 9 7 5 0 7 4 4 10 -3 5
19 53 50 106 30 52 55 101 55 109 0 17 -56 23 -100 11z"/>
<path d="M6860 5813 c-54 -8 -70 -14 -70 -26 0 -12 -5 -22 -53 -107 -14 -25
-52 -97 -84 -160 -32 -63 -61 -116 -65 -118 -5 -2 -8 -12 -8 -22 0 -10 -5 -22
-10 -25 -14 -9 -50 -85 -50 -107 0 -24 29 -35 41 -17 7 11 11 11 17 2 14 -21
81 -4 100 26 9 14 28 35 41 46 16 15 23 31 23 57 0 27 5 37 18 41 11 3 25 21
33 40 8 19 20 38 26 41 6 4 11 17 11 30 0 13 9 31 20 41 16 15 21 15 32 4 15
-16 48 -85 48 -100 0 -6 7 -26 15 -45 8 -19 22 -51 32 -71 9 -21 16 -44 16
-50 0 -7 6 -13 14 -13 11 0 17 -12 15 -32 -3 -19 35 -31 93 -30 78 1 105 8
105 29 0 8 9 26 20 40 11 14 20 32 20 39 0 8 4 14 9 14 5 0 12 14 16 30 4 17
10 30 14 30 4 0 34 51 65 113 32 61 62 119 67 127 34 56 79 144 79 156 0 11
-16 14 -65 14 -88 0 -119 -19 -161 -99 -10 -20 -21 -38 -24 -41 -3 -3 -28 -49
-55 -102 -28 -54 -55 -107 -61 -119 -11 -20 -15 -16 -44 47 -18 38 -37 71 -42
72 -4 2 -6 7 -3 11 2 5 -5 32 -16 62 -11 30 -23 62 -26 72 -3 9 -9 17 -13 17
-4 0 -11 16 -14 35 -7 35 -12 38 -78 48 -13 2 -34 2 -48 0z"/>
<path d="M7608 5803 c-27 -3 -39 -10 -44 -26 -4 -12 -18 -39 -31 -61 -14 -21
-21 -42 -16 -47 10 -10 162 -14 186 -4 20 8 22 2 5 -17 -7 -8 -28 -43 -46 -78
-78 -150 -85 -161 -95 -148 -6 9 -7 8 -3 -5 5 -17 -4 -43 -35 -97 -5 -8 -13
-25 -18 -37 -6 -11 -15 -24 -20 -28 -6 -3 -11 -13 -11 -22 0 -14 11 -15 83
-10 78 6 84 8 115 42 18 20 30 39 28 44 -3 5 1 14 9 21 8 7 15 20 15 30 0 10
7 23 15 30 8 7 15 16 15 21 0 4 13 30 29 57 16 27 32 60 36 73 4 13 14 28 21
34 8 5 15 20 17 32 6 41 22 48 109 51 128 4 132 5 166 70 16 31 27 63 25 70
-4 9 -64 12 -261 10 -141 -1 -274 -3 -294 -5z"/>
<path d="M8252 5783 c-23 -15 -47 -41 -54 -57 -6 -17 -15 -33 -18 -36 -3 -3
-30 -54 -60 -115 -30 -60 -58 -112 -62 -115 -3 -3 -10 -18 -13 -33 -4 -16 -14
-31 -21 -34 -8 -3 -14 -11 -14 -19 0 -8 -4 -14 -10 -14 -5 0 -10 -10 -10 -22
0 -13 -7 -36 -15 -51 -17 -33 -10 -56 19 -61 54 -11 77 -13 81 -5 3 4 15 6 28
3 41 -9 228 -11 233 -2 3 4 13 4 23 -1 26 -14 162 -11 192 5 21 10 79 106 79
129 0 3 -100 5 -222 5 -173 0 -219 3 -210 12 7 7 12 18 12 26 0 37 24 42 205
42 130 0 180 3 188 13 14 14 57 98 57 110 0 4 -81 7 -181 7 l-180 0 17 29 c13
22 15 33 7 43 -9 11 28 13 210 13 122 0 233 3 247 8 27 8 94 112 86 133 -3 8
-82 12 -289 12 l-284 2 -41 -27z"/>
<path d="M8941 5784 c-12 -13 -21 -29 -21 -35 0 -5 -13 -33 -29 -62 -83 -150
-120 -219 -150 -282 -19 -38 -37 -72 -41 -75 -13 -10 -52 -101 -46 -107 4 -4
34 -8 67 -9 69 -2 113 21 139 71 27 53 35 57 123 57 196 1 191 1 209 -34 9
-18 20 -44 24 -58 10 -36 20 -40 112 -40 91 0 101 7 81 56 -7 16 -12 32 -11
37 1 4 -2 7 -8 7 -21 0 -9 30 18 46 32 18 38 26 95 133 94 177 99 190 92 227
-8 46 -32 73 -70 79 -16 2 -150 6 -297 8 l-266 5 -21 -24z m459 -141 c-1 -5
-12 -26 -25 -48 -14 -22 -30 -52 -36 -66 -5 -14 -21 -31 -34 -37 -24 -11 -311
-16 -327 -6 -4 3 10 38 31 79 26 48 35 76 28 79 -7 2 72 5 176 5 103 1 187 -2
187 -6z"/>
<path d="M10288 5789 c-88 -10 -142 -54 -197 -161 -50 -97 -42 -165 22 -188
16 -5 106 -10 198 -10 l168 0 -20 -35 -21 -35 -237 0 c-234 0 -238 0 -258 -22
-26 -30 -63 -96 -63 -113 0 -18 70 -23 340 -20 254 2 277 7 341 70 53 52 109
156 109 201 0 89 -36 104 -255 104 -165 0 -166 0 -155 21 7 11 9 26 6 34 -4
10 43 13 247 14 l252 1 28 32 c15 18 30 43 33 56 4 12 10 22 15 22 17 0 9 29
-8 33 -26 8 -479 4 -545 -4z"/>
<path d="M10915 5785 c-12 -10 -75 -118 -75 -129 0 -4 46 -7 103 -7 56 -1 94
-3 84 -6 -11 -3 -16 -11 -13 -19 5 -12 -84 -195 -163 -337 -42 -76 -38 -87 37
-87 49 0 66 5 96 28 41 29 60 60 161 260 38 74 73 132 81 132 8 0 14 6 14 14
0 10 22 13 93 14 89 2 93 3 117 31 35 41 65 100 56 109 -12 11 -577 9 -591 -3z"/>
<path d="M11578 5792 c-9 -2 -19 -11 -22 -20 -3 -9 -23 -48 -44 -87 -136 -249
-242 -456 -242 -472 0 -9 19 -13 63 -13 77 0 117 22 155 85 30 50 13 47 210
47 102 0 116 -7 128 -64 4 -16 11 -28 17 -28 6 0 7 -3 4 -7 -4 -3 -2 -12 4
-20 12 -14 184 -19 192 -5 3 4 -7 32 -23 64 l-28 56 36 23 c20 13 43 38 51 54
8 17 17 32 20 35 3 3 14 21 23 40 10 19 36 69 58 110 49 92 51 130 11 171 -29
28 -32 29 -138 30 -59 0 -187 1 -284 2 -96 1 -183 1 -191 -1z m409 -153 c16
-6 22 -5 18 1 -3 6 -1 10 4 10 17 0 13 -17 -19 -78 -48 -91 -39 -87 -184 -90
-111 -2 -132 0 -148 15 -19 17 -20 17 -34 -1 -29 -40 -26 -4 4 54 18 33 32 68
32 78 0 17 13 18 152 19 83 1 162 -3 175 -8z"/>
<path d="M12425 5790 c-22 -4 -35 -19 -65 -76 -53 -102 -84 -158 -90 -164 -3
-3 -20 -36 -39 -75 -18 -38 -55 -109 -82 -156 -66 -117 -66 -119 25 -119 94 0
111 13 169 128 25 48 60 116 80 152 79 146 147 283 147 295 0 14 -95 24 -145
15z"/>
<path d="M14525 5790 c-15 -5 -85 -113 -85 -131 0 -5 97 -9 245 -9 l245 0 -20
-38 -20 -39 -210 0 c-140 0 -214 -4 -223 -12 -8 -6 -17 -8 -20 -5 -3 4 -13 -1
-21 -9 -9 -9 -26 -24 -38 -34 -13 -10 -30 -29 -39 -43 -35 -55 -138 -258 -133
-263 3 -3 155 -6 338 -6 l332 -2 22 46 c28 57 28 69 0 95 -21 19 -33 21 -128
20 -58 -1 -149 -2 -203 -1 l-97 1 13 33 13 32 230 0 c282 0 269 -5 343 139 62
123 66 161 20 200 -17 14 -43 26 -57 27 -107 4 -495 3 -507 -1z"/>
<path d="M12685 5765 c-8 -14 -23 -37 -32 -52 -10 -16 -18 -30 -18 -33 0 -3
-7 -16 -14 -30 -62 -113 -75 -137 -87 -151 -8 -8 -14 -21 -14 -27 0 -6 -11
-31 -24 -54 -85 -156 -106 -199 -101 -208 3 -6 43 -10 88 -10 l82 0 41 78 41
77 90 1 c100 1 91 6 136 -79 42 -77 42 -77 138 -77 76 0 89 2 89 16 0 9 -24
56 -53 103 -30 47 -64 102 -75 122 l-22 36 23 21 c13 12 27 22 31 22 4 0 47
27 96 60 49 33 92 60 96 60 3 0 23 13 44 30 20 16 48 34 61 40 13 6 38 21 56
34 50 36 27 46 -106 46 l-116 0 -165 -105 c-91 -58 -177 -115 -192 -126 -37
-26 -35 -16 12 65 22 37 40 73 40 80 0 6 9 22 20 36 29 38 11 50 -76 50 -68 0
-75 -2 -89 -25z"/>
<path d="M13469 5782 c-38 -4 -69 -43 -136 -172 -34 -63 -84 -160 -113 -215
-29 -55 -56 -104 -61 -109 -15 -16 -10 -52 9 -69 16 -15 52 -17 294 -17 l275
0 24 28 c33 39 63 98 55 111 -5 7 -78 11 -222 11 l-214 0 22 35 23 35 172 0
c165 0 173 1 195 23 29 28 60 86 52 98 -3 5 -84 9 -181 9 l-175 0 16 25 c19
29 21 51 4 58 -7 3 93 6 222 7 169 0 240 4 251 13 21 16 72 117 64 125 -7 7
-524 10 -576 4z"/>
<path d="M19195 1815 c0 -984 1 -1386 2 -892 2 494 2 1300 0 1790 -1 491 -2
87 -2 -898z"/>
<path d="M3000 10 l-1095 -5 1164 -3 c640 -1 1162 0 1160 2 -11 10 -217 11
-1229 6z"/>
<path d="M6245 10 l-1300 -5 1323 -3 c880 -1 1321 1 1317 8 -3 6 -14 9 -23 8
-9 -2 -602 -5 -1317 -8z"/>
<path d="M13670 10 l-5515 -5 5523 -3 c3676 -1 5522 1 5522 8 0 6 -3 9 -7 8
-5 -2 -2490 -5 -5523 -8z"/>
<path d="M702 3 c219 -2 577 -2 795 0 219 1 40 2 -397 2 -437 0 -616 -1 -398
-2z"/>
</g>
</svg>
