<?xml version="1.0" standalone="no"?>
<!DOCTYPE svg PUBLIC "-//W3C//DTD SVG 20010904//EN"
 "http://www.w3.org/TR/2001/REC-SVG-20010904/DTD/svg10.dtd">
<svg version="1.0" xmlns="http://www.w3.org/2000/svg"
 width="1920.000000pt" height="1080.000000pt" viewBox="0 0 1920.000000 1080.000000"
 preserveAspectRatio="xMidYMid meet">
<metadata>
Created by potrace 1.16, written by Peter Selinger 2001-2019
</metadata>
<g transform="translate(0.000000,1080.000000) scale(0.100000,-0.100000)"
fill="#000000" stroke="none">
<path d="M0 5400 l0 -5400 9600 0 9600 0 -2 5383 -3 5382 -5 -5374 -5 -5375
-9465 -4 c-5206 -2 -9520 -1 -9588 3 l-122 7 2 5379 c2 3622 6 5380 13 5382 5
2 4322 3 9592 3 5271 -1 9583 2 9583 7 0 4 -4320 7 -9600 7 l-9600 0 0 -5400z"/>
<path d="M4545 5807 c-11 -6 -32 -19 -47 -29 -15 -10 -34 -18 -43 -18 -8 0
-15 -8 -15 -18 0 -10 -9 -28 -20 -40 -11 -12 -20 -25 -20 -30 0 -4 -11 -23
-25 -42 -13 -18 -30 -49 -36 -69 -6 -20 -17 -43 -24 -51 -8 -8 -17 -27 -20
-42 -4 -17 -12 -25 -19 -21 -6 3 -8 3 -4 -1 3 -4 -2 -26 -13 -49 -28 -63 -25
-109 10 -148 l30 -32 253 7 253 7 22 27 c20 24 63 104 63 117 0 3 -101 5 -225
5 l-225 0 25 38 c14 20 32 51 39 67 8 17 30 59 50 93 20 35 33 68 30 73 -6 11
-20 10 213 9 190 -1 267 5 258 20 -3 4 2 13 10 20 8 7 15 18 15 26 0 7 8 18
18 23 9 6 14 11 10 11 -4 0 -3 14 2 30 l9 30 -277 -1 c-190 0 -283 -4 -297
-12z"/>
<path d="M5205 5792 c-58 -28 -85 -57 -122 -131 -16 -30 -36 -56 -46 -59 -13
-3 -15 -7 -7 -12 9 -5 -5 -40 -46 -116 -42 -81 -57 -119 -57 -150 0 -43 25
-89 53 -97 9 -2 139 -5 290 -6 l275 -2 47 30 c25 16 50 26 54 23 4 -4 4 -2 0
5 -9 17 14 28 26 12 7 -10 8 -8 3 8 -7 25 32 86 48 76 6 -4 7 4 3 21 -6 25 -5
27 16 20 22 -6 22 -6 6 12 -16 18 -16 21 3 44 11 14 31 50 45 80 14 30 35 68
47 84 24 33 35 146 14 146 -6 0 -18 7 -28 16 -15 13 -57 16 -296 17 -273 2
-280 2 -328 -21z m273 -132 l186 0 -22 -20 c-12 -12 -22 -28 -22 -38 -1 -9
-14 -39 -31 -67 -16 -27 -42 -74 -56 -102 l-27 -53 -182 0 c-177 0 -182 1
-177 20 3 11 9 20 13 20 9 0 33 49 35 74 1 11 7 22 13 24 7 2 12 10 12 18 0 8
7 17 15 20 8 4 13 10 10 14 -3 5 4 25 16 44 12 20 16 36 10 36 -6 0 -11 5 -11
11 0 6 7 8 16 5 9 -3 99 -6 202 -6z"/>
<path d="M6066 5813 c-54 -4 -86 -19 -86 -41 0 -5 -16 -24 -35 -43 -19 -19
-35 -44 -35 -56 0 -13 -8 -31 -17 -41 -10 -10 -19 -25 -21 -33 -2 -8 -10 -19
-17 -25 -8 -6 -13 -13 -10 -15 2 -3 -16 -45 -41 -94 -37 -72 -46 -101 -47
-144 -1 -47 2 -56 28 -80 34 -29 12 -28 384 -22 l194 3 35 33 c71 68 89 89 97
117 4 12 11 28 16 34 5 6 31 54 58 105 77 151 132 253 144 268 21 25 -19 41
-92 37 -69 -3 -121 -26 -121 -52 0 -8 -4 -14 -10 -14 -5 0 -10 -7 -10 -14 0
-8 -13 -35 -30 -59 -16 -25 -30 -48 -30 -52 0 -15 -65 -141 -76 -148 -7 -4
-20 -27 -29 -51 -15 -38 -21 -44 -53 -50 -54 -9 -254 -6 -277 4 -18 8 -19 9
-1 9 14 1 17 6 12 27 -5 17 0 34 14 54 11 15 20 33 20 39 0 6 5 11 10 11 6 0
10 9 10 21 0 11 5 17 10 14 6 -3 10 3 10 14 0 12 4 21 9 21 5 0 11 13 14 29 3
16 13 35 21 44 8 8 18 26 22 41 3 14 10 23 15 20 5 -3 9 2 9 11 0 9 7 29 15
44 14 27 13 29 -8 35 -12 3 -26 5 -32 4 -5 -1 -36 -3 -69 -5z"/>
<path d="M6824 5812 c-36 -12 -74 -49 -75 -73 0 -13 -11 -42 -24 -64 -12 -22
-37 -67 -54 -100 -17 -33 -35 -67 -40 -75 -5 -8 -12 -23 -15 -33 -3 -9 -16
-22 -28 -27 -13 -5 -17 -9 -10 -9 16 -1 15 -16 -1 -33 -7 -7 -19 -29 -27 -48
-7 -19 -19 -42 -27 -51 -7 -8 -13 -20 -13 -26 0 -6 -4 -13 -10 -15 -5 -1 -7
-13 -3 -26 5 -22 9 -23 77 -17 104 9 125 20 151 77 13 28 25 44 28 36 4 -8 6
-7 6 5 1 19 1 19 57 132 39 79 65 100 72 60 2 -11 22 -57 43 -102 22 -45 42
-92 44 -104 2 -12 11 -32 20 -45 8 -13 15 -30 15 -38 0 -12 20 -15 96 -18 111
-4 111 -3 164 102 17 36 37 72 44 80 6 8 43 77 81 153 38 75 72 137 76 137 4
0 9 -6 12 -12 2 -7 2 -2 0 12 -1 14 1 32 7 40 7 11 10 11 10 2 0 -7 5 -10 11
-6 7 4 8 9 0 17 -7 7 -6 19 4 38 13 23 13 28 0 32 -25 10 -159 -5 -176 -19 -9
-8 -18 -12 -21 -9 -3 3 -8 -6 -12 -20 -4 -14 -10 -25 -15 -25 -5 0 -14 -15
-22 -32 -15 -38 -60 -111 -71 -116 -5 -2 -8 -13 -9 -25 0 -12 -9 -35 -20 -52
-10 -16 -23 -39 -28 -50 -9 -19 -10 -19 -10 3 -1 13 -5 20 -11 17 -5 -3 -12 7
-16 22 -12 54 -17 67 -30 81 -8 7 -14 27 -14 43 0 16 -4 29 -8 29 -10 0 -42
65 -42 86 0 9 -6 22 -14 30 -8 7 -16 18 -18 22 -4 12 -127 22 -154 14z"/>
<path d="M7574 5803 c-8 -8 -14 -20 -14 -28 0 -7 -6 -15 -13 -18 -7 -3 -19
-24 -27 -47 -18 -55 -8 -61 93 -58 42 2 77 2 77 0 0 -2 -5 -13 -12 -25 -6 -12
-12 -30 -13 -40 -1 -11 -7 -22 -13 -26 -6 -3 -35 -54 -65 -111 -71 -138 -96
-181 -115 -203 -26 -30 -2 -40 87 -36 78 4 81 5 120 43 21 21 47 58 56 82 9
24 20 44 25 44 5 0 12 15 16 32 8 40 33 80 45 72 5 -3 6 1 3 9 -6 15 40 112
59 124 13 8 13 8 107 13 l65 4 -80 6 -80 6 90 2 c50 1 101 8 114 15 31 16 73
92 69 125 l-3 26 -288 1 c-236 1 -292 -1 -303 -12z"/>
<path d="M8455 5810 c-99 -3 -187 -9 -195 -14 -32 -21 -52 -43 -72 -78 -12
-20 -25 -35 -29 -33 -4 3 -10 -8 -14 -24 -3 -16 -15 -39 -26 -52 -10 -12 -19
-27 -19 -34 0 -13 -71 -166 -92 -200 -64 -99 -68 -114 -40 -148 17 -22 21 -22
304 -19 l287 2 41 68 c22 38 40 74 40 80 0 9 -57 12 -222 12 -177 1 -220 3
-207 13 9 7 14 17 12 24 -6 16 17 27 30 14 13 -13 143 -15 152 -2 3 6 -14 12
-37 14 -24 2 21 4 99 5 l142 2 25 56 c14 31 23 60 20 65 -3 5 -56 9 -117 9
-126 0 -217 9 -217 21 0 4 7 15 16 23 12 12 12 16 2 17 -7 0 -4 4 7 9 11 5
111 9 222 9 129 0 209 4 222 11 25 13 86 129 74 140 -11 12 -195 16 -408 10z"/>
<path d="M8938 5804 c-3 -3 -30 -53 -59 -112 -29 -59 -59 -112 -68 -118 -8 -6
-12 -18 -8 -27 3 -8 -3 -23 -14 -33 -10 -9 -19 -23 -19 -31 0 -7 -7 -16 -15
-19 -8 -4 -15 -16 -15 -28 0 -28 -27 -66 -48 -67 -10 0 -12 -3 -4 -6 17 -7 15
-16 -8 -43 -11 -13 -20 -32 -20 -42 0 -10 -7 -21 -15 -24 -27 -11 -16 -31 23
-42 41 -13 102 -7 143 14 15 7 30 10 34 6 5 -4 5 -2 1 5 -3 7 1 21 11 33 16
19 18 19 25 3 5 -14 7 -13 7 7 1 14 5 31 10 38 10 16 164 26 236 15 l50 -8 24
-63 25 -62 65 0 c36 0 83 3 103 6 l37 6 -29 59 c-33 65 -35 72 -18 67 7 -3 19
3 28 11 38 39 62 70 65 82 11 49 18 60 27 47 7 -9 8 -7 5 9 -3 13 -1 25 3 28
5 3 25 38 45 78 56 116 45 175 -38 206 -29 11 -579 16 -589 5z m442 -169 c0
-8 -5 -15 -11 -15 -6 0 -9 -7 -5 -15 3 -8 -7 -35 -21 -59 -20 -33 -35 -46 -57
-50 -52 -9 -306 -6 -306 5 0 5 5 9 11 9 5 0 7 5 4 10 -3 6 -2 10 3 10 10 0 38
60 34 73 -1 4 3 7 8 7 6 0 10 9 10 20 0 19 7 20 165 20 140 0 165 -2 165 -15z"/>
<path d="M10255 5793 c-81 -19 -96 -26 -105 -47 -4 -13 -24 -47 -43 -77 -31
-49 -44 -78 -54 -119 -4 -14 -4 -26 -2 -52 1 -7 -2 -21 -6 -31 -6 -13 -3 -16
9 -11 9 3 16 1 16 -5 0 -6 11 -11 24 -11 14 0 27 -4 30 -9 3 -4 68 -6 145 -3
147 5 191 0 191 -22 0 -34 -27 -38 -266 -39 l-236 -2 -24 -30 c-13 -16 -24
-34 -24 -38 0 -4 -10 -21 -21 -37 -44 -59 -40 -60 276 -60 l285 0 53 27 c67
35 100 71 143 158 25 49 35 79 32 102 -4 32 -3 33 37 35 l40 1 -40 4 c-22 3
-54 15 -72 29 -31 23 -37 24 -207 24 -97 0 -176 3 -176 8 0 16 16 30 40 35 24
4 24 4 -3 6 -16 0 -26 5 -22 11 4 6 100 10 255 10 158 0 251 4 255 10 4 6 11
7 17 4 6 -4 8 -3 5 3 -7 11 14 63 26 63 4 0 7 7 7 16 0 8 5 12 10 9 6 -3 10 3
10 13 0 12 -9 22 -22 26 -26 7 -553 6 -583 -1z"/>
<path d="M10903 5788 c-5 -7 -15 -26 -23 -43 -8 -16 -17 -32 -20 -35 -14 -14
-31 -53 -25 -58 3 -4 40 -8 81 -10 40 -2 72 -8 69 -12 -3 -5 -1 -11 5 -15 5
-3 10 1 10 9 0 9 7 16 15 16 19 0 19 1 -10 -51 -13 -24 -37 -70 -53 -102 -15
-32 -31 -55 -35 -52 -4 3 -5 2 -2 -1 6 -9 -66 -144 -78 -144 -6 0 -8 -3 -4 -6
3 -4 -1 -20 -9 -36 -8 -16 -12 -33 -9 -38 8 -13 128 -13 157 1 25 11 86 88
105 129 28 64 77 156 87 162 6 4 11 11 12 15 3 30 18 63 29 63 7 0 15 13 18
29 6 29 7 29 83 33 42 2 78 0 81 -4 2 -5 14 -8 26 -7 19 0 20 1 4 8 -15 5 -12
9 17 19 20 8 36 19 36 25 0 7 11 33 25 59 21 40 22 47 9 52 -9 3 -145 6 -304
6 -218 0 -290 -3 -297 -12z"/>
<path d="M11559 5783 c-8 -10 -28 -43 -43 -73 -76 -151 -109 -210 -117 -216
-5 -3 -9 -12 -9 -21 0 -8 -13 -35 -30 -60 -16 -24 -30 -48 -30 -52 0 -5 -7
-14 -15 -21 -8 -7 -13 -16 -10 -20 3 -5 -1 -14 -8 -22 -17 -17 -37 -75 -31
-91 3 -9 26 -11 83 -7 88 6 103 14 149 87 l27 43 127 0 c143 0 155 -6 179 -79
18 -56 24 -60 92 -56 34 2 77 3 95 4 38 1 39 10 8 76 l-24 49 27 17 c37 22 81
77 81 100 0 10 4 19 9 19 5 0 12 9 16 20 3 10 24 52 46 91 30 56 39 83 39 120
0 27 -4 49 -9 49 -5 0 -13 9 -16 20 -3 11 -13 20 -21 20 -8 0 -14 3 -14 8 0 4
-132 9 -293 10 -274 4 -293 3 -308 -15z m450 -149 c7 -6 -49 -114 -59 -114 -5
0 -12 -9 -15 -20 -6 -19 -14 -20 -166 -18 -115 2 -159 6 -159 15 0 7 16 40 36
74 22 38 32 64 26 68 -6 3 67 5 161 3 95 -2 174 -6 176 -8z"/>
<path d="M12365 5740 c-20 -43 -34 -60 -48 -60 -14 0 -17 -3 -9 -13 7 -8 4
-25 -10 -57 -11 -25 -24 -47 -27 -50 -4 -3 -13 -21 -21 -40 -7 -19 -21 -44
-30 -55 -10 -11 -30 -45 -45 -75 -15 -30 -31 -62 -36 -70 -41 -74 -49 -94 -44
-111 6 -18 14 -19 86 -16 75 4 82 6 114 37 19 18 37 47 41 63 6 31 46 110 69
137 7 8 16 26 20 40 4 13 15 36 24 50 35 53 81 143 80 157 -1 3 3 9 8 12 12 9
43 70 43 86 0 19 -24 25 -109 25 l-77 0 -29 -60z"/>
<path d="M12662 5743 c-14 -29 -30 -53 -34 -53 -4 0 -8 -8 -8 -18 0 -10 -11
-33 -25 -52 -14 -19 -25 -40 -25 -48 0 -7 -5 -10 -12 -6 -7 4 -8 3 -4 -4 7
-12 -17 -67 -41 -90 -8 -8 -17 -27 -20 -43 -3 -16 -9 -29 -14 -29 -5 0 -9 -7
-9 -15 0 -8 -9 -23 -20 -32 -11 -10 -20 -23 -20 -30 0 -7 -9 -27 -20 -45 -11
-18 -20 -45 -20 -59 0 -26 0 -26 84 -24 88 1 116 12 116 46 0 10 5 21 11 25 6
3 17 22 25 41 8 18 19 31 24 28 6 -3 10 -1 10 5 0 7 27 10 80 9 76 -2 82 -3
101 -30 11 -16 18 -33 15 -38 -3 -4 3 -16 14 -26 11 -10 20 -27 20 -37 0 -24
47 -43 66 -27 9 8 35 9 78 4 45 -4 66 -3 71 5 6 9 10 9 16 -1 6 -10 9 -8 9 9
0 13 -6 22 -15 22 -8 0 -15 6 -15 14 0 8 -7 21 -15 30 -13 12 -22 38 -24 70
-1 5 -4 7 -7 3 -11 -11 -75 95 -69 114 5 15 3 17 -12 12 -17 -6 -17 -5 1 15
11 13 31 22 48 22 20 0 32 7 39 23 13 29 91 80 100 65 4 -6 9 -3 13 9 3 10 20
28 38 38 133 82 178 116 178 131 0 11 -29 14 -145 14 -80 0 -145 -3 -145 -7 0
-5 -38 -33 -85 -63 -47 -30 -122 -79 -166 -107 -44 -29 -83 -53 -85 -53 -3 0
7 21 22 48 76 133 87 161 74 177 -10 12 -30 15 -92 13 l-79 -3 -27 -52z"/>
<path d="M13494 5793 c-52 -5 -98 -47 -139 -129 -16 -32 -33 -60 -37 -62 -4
-2 -26 -42 -48 -89 -22 -47 -44 -82 -50 -78 -5 3 -7 0 -4 -9 6 -15 -26 -85
-57 -125 -24 -30 -24 -53 -1 -81 18 -23 22 -23 308 -28 l290 -5 19 44 c11 24
26 50 33 58 7 7 12 23 10 35 -3 21 -7 21 -216 24 -165 2 -212 5 -208 15 3 6 9
20 12 30 6 15 24 17 195 17 161 0 189 2 189 15 0 8 4 15 9 15 5 0 13 9 16 20
3 11 12 26 19 33 7 7 17 23 20 35 l7 22 -181 0 c-141 0 -181 3 -178 13 3 6 17
13 31 15 15 2 25 8 21 13 -3 5 -10 6 -16 3 -7 -5 -9 -1 -5 9 3 10 2 17 -3 17
-6 0 -10 3 -10 8 0 4 93 6 207 4 207 -3 278 1 268 17 -3 5 2 11 10 15 8 3 15
12 15 20 0 8 9 31 21 50 11 20 19 40 17 46 -3 10 -478 21 -564 13z"/>
</g>
</svg>
