<?xml version="1.0" standalone="no"?>
<!DOCTYPE svg PUBLIC "-//W3C//DTD SVG 20010904//EN"
 "http://www.w3.org/TR/2001/REC-SVG-20010904/DTD/svg10.dtd">
<svg version="1.0" xmlns="http://www.w3.org/2000/svg"
 width="1920.000000pt" height="1080.000000pt" viewBox="0 0 1920.000000 1080.000000"
 preserveAspectRatio="xMidYMid meet">
<metadata>
Created by potrace 1.16, written by Peter Selinger 2001-2019
</metadata>
<g transform="translate(0.000000,1080.000000) scale(0.100000,-0.100000)"
fill="#000000" stroke="none">
<path d="M0 5400 l0 -5400 9600 0 9600 0 0 5400 0 5400 -9600 0 -9600 0 0
-5400z m17762 5381 l1428 -1 -3 -5382 -2 -5383 -9582 0 -9583 0 0 5070 c0
2789 0 5213 0 5387 l0 317 8158 -4 c4486 -1 8799 -3 9584 -4z"/>
<path d="M7942 10712 c-7 -5 -25 -34 -41 -64 -23 -43 -27 -59 -18 -69 7 -8 8
-10 3 -6 -11 8 -46 -21 -46 -38 0 -21 80 -25 484 -25 322 1 394 3 410 15 47
35 -25 62 -145 53 -52 -4 -59 -2 -44 8 15 11 16 16 5 29 -11 13 2 15 119 15
110 0 131 2 131 15 0 8 6 15 13 16 77 3 224 5 229 2 4 -2 -4 -27 -17 -56 -43
-92 -79 -84 388 -92 442 -7 1283 -2 1331 8 16 3 62 9 101 12 83 8 82 8 119 57
l28 38 227 2 c209 3 226 4 223 21 -2 9 4 20 13 23 8 3 15 13 15 20 0 13 -46
14 -308 12 -278 -3 -310 -5 -326 -20 -15 -15 -37 -18 -147 -18 -121 0 -129 1
-129 19 0 39 -149 41 -180 3 -13 -17 -34 -20 -142 -26 -128 -6 -128 -6 -125
17 2 21 -2 22 -78 25 -44 1 -161 -6 -260 -16 -173 -18 -180 -18 -195 -1 -12
14 -31 19 -88 20 -63 2 -75 -1 -93 -19 -23 -25 -89 -31 -89 -8 0 20 -76 26
-345 25 -259 0 -377 -9 -383 -27 -5 -17 -62 -15 -62 2 0 10 -21 16 -77 20
-137 11 -488 16 -501 8z m2548 -122 c0 -7 -172 -10 -496 -10 -327 0 -493 3
-489 10 4 6 180 10 496 10 319 0 489 -3 489 -10z"/>
<path d="M11580 10713 c-22 -9 -47 -37 -55 -62 l-7 -22 357 3 c356 3 357 3
375 26 10 12 28 22 39 22 12 0 21 5 21 10 0 19 -47 29 -111 23 -137 -13 -452
-18 -468 -8 -15 9 -134 16 -151 8z"/>
<path d="M14744 10709 c-3 -6 -204 -8 -509 -6 -310 3 -507 1 -513 -5 -6 -6
-56 -7 -123 -4 -63 3 -270 9 -461 12 -314 5 -348 4 -348 -10 0 -9 -6 -16 -12
-17 -7 0 -26 -2 -43 -3 -16 -1 -67 -3 -112 -4 -66 -2 -83 -5 -83 -17 0 -12 18
-15 103 -15 124 -1 111 -15 -22 -25 -99 -7 -141 -24 -141 -55 0 -20 44 -35 92
-32 15 1 29 -2 33 -8 4 -7 288 -10 836 -10 706 0 833 2 845 14 34 35 3 50
-101 47 -95 -2 -64 14 44 23 47 4 93 13 105 21 16 12 64 15 247 15 250 0 289
4 296 31 3 10 16 19 29 21 14 2 21 7 16 14 -9 14 -170 25 -178 13z"/>
<path d="M15093 10712 c-81 -3 -83 -4 -98 -33 -9 -16 -13 -34 -10 -39 3 -6 33
-10 66 -10 l60 0 -15 -28 -15 -28 -264 4 c-229 3 -269 2 -296 -12 -17 -9 -31
-20 -31 -24 0 -31 27 -32 674 -32 358 0 661 3 673 6 26 7 38 33 23 48 -7 7
-65 11 -156 11 -79 0 -144 2 -144 3 0 2 7 16 16 30 l15 27 166 -3 c132 -2 164
0 161 10 -3 7 -13 15 -24 16 -38 7 -34 19 7 20 48 2 51 3 41 19 -4 7 -31 12
-62 11 -30 0 -193 -1 -362 -2 -168 -1 -310 -4 -314 -8 -4 -4 -12 -2 -18 5 -7
8 -37 11 -93 9z"/>
<path d="M7573 9652 c-172 -2 -213 -5 -213 -16 0 -7 -7 -19 -15 -26 -8 -7 -12
-16 -9 -21 3 -5 -2 -16 -10 -25 -9 -8 -16 -22 -16 -30 0 -9 -7 -22 -15 -30 -8
-9 -15 -22 -15 -30 0 -12 66 -14 443 -14 449 0 473 2 460 36 -4 12 -81 14
-437 16 -418 3 -421 3 -102 5 329 3 356 6 356 39 0 10 -23 14 -87 17 -49 2
-36 2 27 0 256 -7 303 -3 298 24 -3 13 11 15 92 14 52 -1 109 -4 127 -7 35 -7
35 -15 -4 -73 -13 -19 -23 -42 -23 -52 0 -18 29 -19 896 -19 562 0 902 4 914
10 10 5 43 11 74 12 54 3 56 4 78 44 l21 41 111 7 c61 3 169 6 240 6 109 0
127 2 122 15 -3 9 3 19 15 26 13 6 17 15 12 20 -5 5 -148 9 -318 10 -277 0
-311 -1 -321 -16 -11 -14 -34 -17 -138 -18 -114 -2 -126 0 -126 16 0 9 -3 17
-7 17 -5 1 -41 3 -81 6 -66 5 -75 4 -91 -15 -16 -19 -29 -21 -119 -21 -56 0
-104 -4 -107 -10 -3 -5 -19 -10 -36 -10 -26 0 -28 2 -17 20 7 10 9 22 6 26
-13 12 -164 13 -253 2 -49 -7 -110 -12 -135 -12 -25 -1 -49 -4 -55 -7 -26 -15
-79 -9 -97 11 -15 16 -31 20 -88 20 -60 0 -73 -3 -96 -25 -26 -24 -84 -35 -84
-16 0 5 -7 17 -16 25 -13 14 -55 15 -342 10 -244 -4 -334 -9 -357 -19 -53 -24
-75 -28 -75 -13 0 25 -38 37 -107 35 -37 -1 -164 -3 -280 -5z m2319 -108 c105
-18 -19 -24 -470 -24 -326 0 -493 3 -486 10 6 6 142 11 344 13 184 1 389 3
455 5 66 1 137 -1 157 -4z"/>
<path d="M10982 9629 c-13 -16 -21 -33 -17 -39 7 -12 693 -14 711 -2 14 9 37
52 31 59 -3 2 -115 3 -248 2 -134 -1 -253 -1 -264 0 -11 1 -58 4 -105 6 -84 3
-85 3 -108 -26z"/>
<path d="M12486 9652 c-226 -2 -267 -5 -263 -16 8 -20 -37 -28 -136 -26 -105
3 -107 3 -107 -15 0 -12 17 -15 88 -16 100 0 85 -17 -20 -20 -123 -3 -173 -57
-78 -85 68 -21 1742 -20 1759 0 19 22 -13 46 -62 46 -63 0 -32 18 37 22 43 2
62 8 70 21 10 15 34 17 261 17 211 0 254 2 273 16 24 16 30 54 10 54 -143 5
-704 -3 -708 -10 -5 -8 -158 -6 -352 6 -67 3 -98 2 -98 -5 0 -15 -245 -15
-272 0 -25 14 -66 15 -402 11z"/>
<path d="M14468 9653 c-17 -3 -30 -14 -38 -34 -7 -16 -11 -31 -9 -34 3 -2 32
-5 66 -6 60 -2 61 -3 50 -26 -12 -27 8 -25 -335 -27 l-244 -1 -19 -24 c-13
-16 -16 -28 -10 -34 7 -7 246 -9 683 -8 l673 2 18 21 c18 21 18 22 -9 36 -20
10 -58 13 -155 10 -71 -1 -129 -2 -129 0 0 2 7 17 16 33 11 22 20 29 32 24 19
-8 270 -7 283 1 4 2 5 12 2 21 -4 10 -2 14 4 10 12 -7 40 20 30 29 -3 3 -83 4
-179 3 -95 -2 -200 -2 -233 -2 -33 1 -98 1 -145 0 -132 -2 -180 -1 -255 5 -38
3 -82 4 -97 1z"/>
<path d="M6794 8576 c-8 -11 -14 -27 -14 -34 0 -7 -7 -20 -15 -28 -8 -9 -15
-24 -15 -34 0 -10 -7 -20 -15 -24 -8 -3 -15 -17 -15 -31 l0 -25 449 0 c448 0
450 0 456 21 4 12 3 25 -2 30 -6 6 -135 11 -299 12 -243 1 -257 2 -86 4 112 2
202 7 202 12 0 5 -7 17 -16 25 -14 15 -3 16 116 16 123 0 132 1 137 20 5 19
14 20 129 20 93 0 124 -3 124 -12 0 -21 -36 -69 -45 -61 -4 5 -5 2 -1 -5 4 -7
0 -24 -9 -39 -11 -17 -14 -28 -7 -35 14 -14 1716 -3 1835 11 104 13 112 16
135 62 l17 34 234 3 c223 2 233 3 228 21 -3 13 1 21 14 24 13 3 17 11 13 21
-5 14 -40 16 -303 16 -238 -1 -301 -4 -321 -15 -37 -21 -276 -21 -284 0 -4 12
-23 15 -83 15 -72 0 -80 -2 -97 -25 -18 -25 -24 -26 -105 -25 -47 1 -105 -1
-127 -5 -41 -7 -42 -7 -37 18 5 23 1 26 -29 32 -40 8 -161 2 -341 -16 -116
-12 -131 -11 -157 4 -38 23 -147 23 -179 1 -13 -10 -41 -19 -62 -20 -33 -3
-39 -1 -39 15 0 18 -12 19 -344 17 -302 -2 -348 -5 -370 -19 -34 -23 -58 -21
-74 4 -13 20 -19 20 -298 18 -274 -3 -286 -4 -300 -23z m2574 -98 c-4 -10
-115 -14 -501 -16 -273 -1 -497 2 -497 6 0 5 3 12 7 15 3 4 229 7 501 7 390 0
493 -3 490 -12z"/>
<path d="M10435 8593 c-20 -16 -37 -55 -27 -65 5 -5 151 -8 356 -6 338 3 348
4 365 24 9 11 22 19 28 17 16 -6 53 15 53 28 0 8 -48 9 -152 4 -193 -9 -429
-9 -533 -1 -44 4 -84 3 -90 -1z"/>
<path d="M11663 8585 c-8 -13 -30 -16 -121 -18 -75 -1 -115 -6 -124 -15 -22
-22 6 -29 115 -31 119 -2 143 -10 36 -12 -41 -1 -87 -3 -104 -5 -16 -2 -41 -4
-54 -6 -13 -1 -30 -13 -39 -26 -15 -23 -15 -26 7 -43 22 -18 58 -19 901 -19
756 0 879 2 890 15 21 25 0 35 -78 35 -94 1 -78 15 27 24 41 4 82 13 90 20 12
10 71 14 251 15 242 2 278 5 295 25 6 6 23 16 39 21 16 6 31 16 34 23 3 11
-22 13 -139 7 -318 -15 -452 -16 -462 -6 -14 14 -160 14 -174 0 -10 -10 -173
-7 -347 6 -52 5 -87 3 -101 -5 -14 -8 -64 -9 -155 -6 -74 3 -280 8 -457 12
-290 5 -322 4 -330 -11z"/>
<path d="M13876 8578 c-32 -45 -22 -58 44 -58 63 0 72 -8 46 -43 -13 -16 -36
-18 -295 -17 -154 1 -285 -2 -291 -5 -5 -3 -10 -15 -10 -26 0 -19 12 -19 688
-17 679 3 687 3 687 23 0 19 -8 20 -153 23 -85 1 -152 6 -150 10 2 4 10 19 17
34 l13 26 148 -5 c81 -3 156 -3 166 1 18 7 18 8 1 21 -16 12 -15 14 13 23 16
6 30 16 30 22 0 11 -47 10 -357 -6 -77 -3 -113 -2 -113 5 0 14 -176 15 -185 1
-3 -5 -28 -10 -55 -10 -27 0 -52 5 -55 10 -3 6 -44 10 -90 10 -75 0 -85 -2
-99 -22z"/>
<path d="M6241 7521 c-12 -16 -21 -33 -21 -39 0 -5 -6 -15 -14 -21 -13 -11
-12 -15 6 -33 l21 -21 -21 -8 c-13 -5 -22 -17 -22 -29 0 -20 4 -20 423 -20
398 0 425 1 440 18 10 10 17 22 17 25 0 4 -152 8 -337 9 -254 2 -283 3 -118 5
234 3 271 10 259 46 -5 17 -3 19 17 14 63 -16 129 -18 165 -7 74 22 71 20 50
36 -17 12 2 14 160 12 98 -1 162 -3 141 -5 -30 -3 -40 -10 -48 -31 -6 -15 -13
-29 -17 -32 -17 -13 -42 -74 -34 -82 7 -7 1647 -6 1862 1 43 1 90 31 107 67
l17 34 232 0 c190 0 233 3 237 14 7 18 -1 26 -27 27 -12 1 -4 5 16 8 30 5 36
9 28 21 -7 12 -58 15 -302 18 l-293 4 -24 -26 c-24 -25 -28 -26 -150 -26 -121
0 -127 1 -136 23 -9 20 -17 22 -88 22 -68 0 -80 -3 -95 -22 -15 -19 -29 -21
-140 -25 -114 -4 -122 -3 -116 14 12 38 -49 44 -261 23 -22 -2 -89 -9 -149
-14 -60 -6 -111 -13 -114 -16 -3 -2 -10 5 -16 18 -10 19 -20 22 -83 25 -67 3
-74 1 -94 -23 -25 -28 -86 -35 -95 -11 -12 32 -74 37 -359 32 -364 -7 -363 -7
-368 -28 -6 -21 -67 -26 -67 -5 0 31 -52 37 -311 37 l-258 0 -20 -29z m2563
-106 c-6 -13 -68 -15 -500 -15 -306 1 -494 4 -494 10 0 6 133 11 338 13 185 1
410 3 499 5 142 2 162 0 157 -13z"/>
<path d="M9882 7543 c-7 -3 -20 -19 -28 -36 -28 -52 -17 -54 278 -51 378 5
404 7 444 40 18 16 31 31 28 36 -3 4 -130 5 -283 1 -206 -4 -280 -3 -285 5 -7
12 -128 16 -154 5z"/>
<path d="M11114 7542 c-6 -4 -13 -15 -17 -24 -6 -16 -21 -18 -127 -18 -95 0
-120 -3 -120 -14 0 -19 49 -27 123 -20 40 3 57 2 47 -4 -8 -5 -50 -12 -93 -16
-43 -3 -86 -10 -97 -16 -18 -10 -36 -47 -27 -56 18 -19 261 -25 980 -24 681 0
811 3 823 15 31 30 15 35 -128 36 -108 1 -131 4 -93 9 28 5 85 9 128 9 53 1
90 7 120 20 37 17 73 20 290 24 l248 4 30 29 c28 27 29 29 12 42 -13 10 -38
12 -93 7 -155 -13 -443 -16 -454 -5 -15 15 -137 12 -166 -5 -31 -18 -260 -21
-277 -4 -16 16 -151 18 -171 2 -26 -19 -281 -17 -306 2 -16 12 -71 15 -320 15
-166 0 -306 -4 -312 -8z"/>
<path d="M13624 7535 c-22 -16 -110 -20 -119 -5 -3 6 -43 10 -89 10 -86 0
-103 -8 -119 -52 -7 -21 11 -28 74 -28 53 0 57 -4 33 -38 -15 -22 -17 -22
-299 -22 -271 0 -285 -1 -295 -19 -5 -11 -10 -22 -10 -25 0 -3 308 -6 685 -6
658 0 685 1 694 19 6 10 7 21 4 25 -3 3 -73 6 -155 6 -83 0 -148 4 -148 9 0 5
8 23 18 40 12 22 22 29 32 24 25 -12 303 -9 307 3 2 6 -16 16 -39 22 l-43 11
50 -2 c36 -1 50 2 50 12 0 30 -31 36 -132 23 -54 -7 -144 -16 -200 -19 -85 -5
-106 -3 -127 11 -33 21 -144 22 -172 1z"/>
<path d="M5705 6460 c-3 -11 -11 -20 -17 -20 -5 0 -8 -6 -5 -14 3 -8 -1 -20
-9 -27 -9 -7 -13 -21 -11 -31 3 -11 0 -18 -9 -18 -15 0 -41 -46 -32 -55 10
-10 832 -12 855 -2 64 28 20 59 -87 63 -41 2 -79 3 -84 3 -5 1 -3 8 4 16 10
12 10 15 -1 16 -8 1 -3 5 11 9 14 4 70 8 125 9 89 1 103 3 118 22 11 12 25 18
33 15 9 -3 60 -6 114 -6 l99 0 -36 -67 c-35 -64 -35 -67 -17 -80 16 -12 141
-14 789 -13 424 1 795 6 825 11 30 4 109 12 175 17 132 10 163 22 172 65 3 15
11 27 17 27 6 1 111 0 232 0 195 -1 222 1 228 15 9 24 9 23 -26 28 -29 3 -28
4 8 5 27 1 44 7 48 17 5 13 -34 15 -313 15 -274 0 -320 -2 -325 -15 -4 -12
-29 -15 -136 -15 -109 0 -130 2 -130 15 0 12 -16 15 -85 15 -73 0 -88 -3 -102
-20 -16 -18 -30 -20 -139 -20 -113 0 -122 1 -127 20 -5 18 -13 20 -114 20 -59
0 -175 -7 -258 -15 -82 -8 -151 -15 -152 -15 -2 0 -3 7 -3 15 0 12 -17 15 -95
15 -54 0 -95 -4 -95 -10 0 -5 -16 -12 -37 -16 -28 -5 -39 -3 -48 10 -11 14
-48 16 -352 16 -283 0 -342 -2 -359 -15 -25 -19 -73 -19 -80 0 -5 13 -46 15
-284 15 -270 0 -279 -1 -285 -20z m2535 -94 c0 -14 -52 -16 -479 -16 -454 0
-529 3 -501 20 6 4 229 8 496 9 432 2 484 0 484 -13z"/>
<path d="M9294 6459 c-21 -23 -17 -46 9 -53 12 -3 163 -6 335 -6 264 0 318 2
343 16 22 11 29 21 27 37 l-3 22 -348 0 c-305 0 -350 -2 -363 -16z"/>
<path d="M10535 6470 c9 -15 -25 -20 -132 -20 -94 0 -104 -2 -101 -17 2 -14
16 -19 58 -23 67 -6 56 -15 -30 -24 -36 -4 -70 -12 -77 -18 -17 -13 -17 -47 0
-53 57 -22 304 -29 1010 -30 746 0 769 1 783 19 27 38 3 46 -150 47 l-141 2
115 8 c154 10 199 15 213 28 8 6 110 12 252 15 261 5 298 10 303 44 2 13 -2
22 -10 23 -113 6 -2097 5 -2093 -1z"/>
<path d="M12747 6450 c-15 -24 -14 -27 3 -38 12 -7 36 -9 65 -5 49 6 50 5 33
-32 l-11 -25 -288 0 c-283 0 -289 0 -300 -21 -8 -16 -8 -24 1 -33 8 -8 192
-11 681 -11 652 0 671 1 685 19 31 43 23 46 -146 46 l-159 0 17 30 c20 36 52
47 91 30 19 -7 68 -10 138 -8 92 3 108 6 111 21 3 14 -5 17 -45 19 l-48 1 44
6 c25 3 46 11 48 16 2 7 -150 11 -451 11 l-454 1 -15 -27z"/>
<path d="M4565 5812 c-70 -24 -136 -86 -177 -168 -57 -112 -131 -250 -139
-258 -5 -6 -9 -31 -9 -56 0 -39 5 -51 31 -76 l30 -29 232 -1 c128 -1 242 1
254 3 13 3 33 21 45 42 12 20 26 39 30 42 5 3 10 19 11 35 l2 29 -218 3 -217
2 23 38 c13 20 40 71 61 112 21 41 43 79 47 85 5 5 9 18 9 30 0 20 4 20 216
17 182 -2 220 0 240 13 28 18 78 111 70 130 -4 11 -56 14 -263 14 -142 -1
-267 -4 -278 -7z"/>
<path d="M5220 5794 c-72 -34 -102 -70 -175 -209 -37 -71 -79 -150 -93 -174
-43 -77 -27 -158 34 -181 14 -6 142 -10 285 -10 255 0 261 0 307 24 65 33 90
64 157 191 32 61 64 121 71 135 10 19 11 26 1 32 -15 10 -158 10 -173 0 -6 -4
-35 -52 -64 -107 -29 -55 -58 -103 -64 -107 -6 -4 -93 -8 -193 -8 l-181 0 25
48 c89 164 112 213 107 227 -5 11 0 14 17 13 19 -3 29 9 61 66 21 38 38 70 38
72 0 1 -26 4 -57 6 -44 2 -69 -2 -103 -18z"/>
<path d="M14508 5785 c-27 -32 -33 -42 -50 -74 -37 -69 -45 -66 222 -63 132 2
240 1 240 -3 0 -3 -7 -19 -15 -35 l-16 -30 -205 0 c-198 0 -206 -1 -254 -25
-27 -14 -61 -40 -75 -58 -38 -47 -157 -276 -150 -287 4 -6 140 -10 341 -10
l334 0 18 38 c9 20 20 39 25 40 16 8 5 42 -19 61 -25 20 -39 21 -230 21 l-203
0 13 31 13 30 215 -1 c294 -1 284 -6 374 169 52 103 47 163 -16 196 -44 22
-543 22 -562 0z"/>
<path d="M13462 5783 c-42 -8 -102 -101 -233 -363 -13 -25 -38 -71 -56 -103
-39 -69 -38 -68 -14 -95 18 -22 24 -22 298 -22 208 0 283 3 295 13 23 17 70
108 64 124 -4 10 -56 13 -215 15 l-210 3 15 30 14 30 165 -3 c153 -3 167 -2
194 17 27 19 71 89 71 111 0 6 -69 10 -175 10 -161 0 -197 5 -164 26 6 3 9 19
7 35 l-5 29 223 0 c122 0 229 3 238 6 9 3 32 33 52 66 30 48 34 62 23 69 -14
9 -543 10 -587 2z"/>
<path d="M5953 5612 c-34 -2 -66 -8 -71 -15 -22 -27 -132 -251 -132 -268 0
-39 27 -86 57 -98 22 -9 99 -11 284 -9 l254 3 47 33 c26 17 57 46 69 63 21 30
149 273 149 284 0 8 -174 6 -186 -3 -6 -4 -35 -52 -63 -107 -29 -55 -57 -104
-62 -110 -9 -9 -339 -17 -339 -8 0 2 13 27 29 56 16 29 37 68 47 87 11 19 23
38 27 41 5 3 7 17 5 29 -3 25 -13 27 -115 22z"/>
<path d="M6714 5612 c-16 -2 -33 -25 -62 -80 -22 -42 -66 -126 -97 -185 -67
-127 -65 -137 23 -130 95 7 106 15 166 122 30 53 69 126 88 163 18 37 35 68
38 68 3 0 21 -39 40 -86 19 -47 38 -88 42 -90 4 -3 8 -13 8 -22 1 -9 15 -46
33 -82 l32 -65 89 -3 c99 -3 105 0 142 73 11 22 50 97 87 167 37 70 67 132 67
138 0 12 -169 14 -185 2 -10 -7 -44 -66 -75 -130 -19 -38 -15 -42 -64 70 -14
31 -30 60 -37 64 -12 7 -292 12 -335 6z"/>
<path d="M7683 5603 c-12 -10 -50 -75 -86 -145 -36 -69 -68 -125 -71 -122 -3
2 -4 1 -1 -2 2 -4 -7 -29 -22 -56 -23 -42 -25 -51 -12 -59 22 -13 102 -11 140
5 41 17 56 34 92 102 15 28 40 76 56 105 40 73 81 159 81 170 0 5 -29 9 -64 9
-35 0 -71 2 -79 5 -7 3 -23 -2 -34 -12z"/>
<path d="M8126 5589 c-12 -14 -37 -55 -55 -90 -18 -35 -50 -98 -72 -139 -77
-148 -73 -150 276 -150 197 1 274 4 286 13 22 17 71 116 65 132 -3 10 -51 12
-220 9 l-216 -5 21 36 c12 19 24 36 27 36 4 1 88 4 186 8 l180 6 27 45 c50 82
53 80 -142 80 -160 0 -171 1 -176 19 -4 17 -16 20 -85 23 -76 3 -82 2 -102
-23z"/>
<path d="M8844 5602 c-10 -6 -38 -57 -170 -311 -21 -40 -30 -69 -25 -74 5 -5
43 -8 83 -6 70 4 76 6 106 39 17 19 36 47 43 63 l11 27 142 0 142 0 24 -57
c12 -32 26 -61 29 -65 9 -10 179 -14 188 -4 6 6 -6 47 -32 108 -5 13 -1 20 16
27 13 5 31 17 40 27 27 32 120 215 114 225 -4 5 -44 9 -90 9 l-84 0 -34 -57
-33 -58 -167 -3 c-92 -1 -167 1 -167 5 0 5 11 28 25 51 14 24 22 48 19 53 -6
11 -164 12 -180 1z"/>
<path d="M10071 5596 c-36 -44 -15 -137 35 -156 14 -6 100 -10 190 -10 91 0
164 -3 162 -7 -2 -5 -10 -20 -17 -35 l-14 -28 -229 0 c-132 0 -237 -4 -248
-10 -21 -11 -82 -128 -74 -141 3 -5 113 -9 244 -9 191 0 241 3 253 14 11 11
83 15 368 20 195 3 438 5 540 6 148 0 189 3 205 15 30 23 1 35 -91 35 -97 1
-83 16 20 23 39 2 84 11 102 20 27 15 69 17 277 17 l245 0 27 25 c15 14 33 25
40 25 8 0 14 6 14 13 0 10 -75 12 -372 9 -205 -2 -435 -6 -510 -8 -76 -3 -138
-1 -138 4 0 5 -131 8 -292 8 -161 -1 -298 3 -305 7 -9 6 -6 17 11 41 26 39 51
95 44 101 -2 2 -70 5 -150 6 -113 1 -150 4 -159 15 -16 20 -162 20 -178 0z"/>
<path d="M12501 5423 c-19 -15 -107 -17 -116 -3 -10 16 -171 13 -188 -5 -8 -8
-16 -12 -18 -10 -2 2 -4 -10 -5 -26 -1 -32 -2 -31 73 -29 51 1 53 1 44 -22
l-8 -23 -286 -5 c-259 -5 -288 -7 -304 -23 -17 -17 -17 -19 2 -33 16 -12 116
-14 670 -14 576 0 650 -1 647 -15 -2 -12 7 -15 43 -15 37 0 45 3 45 19 0 10
-13 33 -29 50 l-29 31 -147 -7 -146 -6 18 37 c17 37 18 38 68 33 27 -3 57 -6
65 -7 40 -8 220 1 220 10 0 6 -13 13 -30 17 -41 8 -38 21 7 25 20 2 39 9 41
17 4 12 -14 13 -114 7 -66 -3 -167 -9 -226 -13 -82 -4 -111 -3 -123 7 -21 17
-152 19 -174 3z"/>
<path d="M10366 4369 c-13 -8 -87 -10 -243 -8 l-225 4 -39 -74 c-21 -40 -44
-79 -49 -87 -9 -9 -7 -15 7 -23 21 -11 1030 -13 1072 -2 35 10 41 47 9 57 -13
4 -36 7 -53 6 -51 -1 -5 17 49 19 28 2 58 10 71 21 21 16 47 18 273 18 214 0
253 2 266 16 9 8 16 24 16 34 0 25 -95 36 -176 20 -58 -11 -280 -8 -428 5 -54
5 -75 3 -100 -10 -28 -15 -45 -16 -161 -5 -225 19 -269 21 -289 9z"/>
<path d="M11664 4374 c-21 -5 -58 -57 -47 -68 3 -3 33 -6 65 -6 32 0 58 -2 58
-5 0 -2 -5 -16 -12 -30 l-11 -25 -285 0 c-260 0 -286 -2 -298 -17 -33 -44 -48
-43 664 -43 708 0 702 0 702 42 0 17 -12 18 -150 18 -157 0 -166 3 -136 43 12
15 32 17 169 17 93 0 158 4 162 10 3 6 1 10 -4 10 -6 0 -11 5 -11 10 0 6 9 10
21 10 14 0 19 5 17 18 -3 15 -15 17 -118 13 -125 -5 -596 -2 -700 3 -36 2 -74
2 -86 0z"/>
<path d="M9335 3301 c-3 -12 -11 -21 -16 -21 -5 0 -9 -8 -9 -19 0 -10 -7 -24
-15 -31 -8 -7 -15 -20 -15 -30 0 -10 -7 -23 -15 -30 -8 -7 -15 -19 -15 -26 0
-11 93 -14 541 -16 563 -3 579 -2 579 38 0 11 -16 14 -71 14 -90 0 -82 15 12
23 40 3 78 12 88 21 13 11 61 15 241 17 286 3 286 3 308 22 10 10 25 17 33 17
16 1 49 24 49 34 0 4 -66 4 -147 1 -202 -8 -442 -8 -537 0 -52 4 -86 3 -101
-5 -21 -11 -165 -9 -349 5 -52 5 -87 3 -101 -5 -22 -12 -197 -9 -372 5 -77 7
-81 6 -88 -14z"/>
<path d="M11066 3289 c-24 -41 -11 -54 59 -53 l54 1 -15 -28 -14 -29 -293 -2
-292 -3 0 -23 0 -23 680 1 c377 0 683 4 688 9 5 5 7 17 5 26 -3 15 -19 17
-155 16 -84 -1 -153 1 -153 5 0 3 8 19 17 35 l17 29 111 -5 c60 -3 135 -8 166
-10 53 -4 57 -3 52 15 -4 15 -14 20 -42 21 -35 1 -35 2 13 13 27 7 52 18 54
25 4 11 -19 12 -119 7 -68 -3 -128 -6 -134 -7 -5 -1 -96 1 -201 5 -136 6 -194
5 -198 -3 -9 -14 -93 -15 -101 -1 -3 6 -45 10 -93 10 -87 0 -88 0 -106 -31z"/>
</g>
</svg>
