<?xml version="1.0" standalone="no"?>
<!DOCTYPE svg PUBLIC "-//W3C//DTD SVG 20010904//EN"
 "http://www.w3.org/TR/2001/REC-SVG-20010904/DTD/svg10.dtd">
<svg version="1.0" xmlns="http://www.w3.org/2000/svg"
 width="1920.000000pt" height="1080.000000pt" viewBox="0 0 1920.000000 1080.000000"
 preserveAspectRatio="xMidYMid meet">
<metadata>
Created by potrace 1.16, written by Peter Selinger 2001-2019
</metadata>
<g transform="translate(0.000000,1080.000000) scale(0.100000,-0.100000)"
fill="#000000" stroke="none">
<path d="M0 5400 l0 -5400 9600 0 9600 0 0 5400 0 5400 -9600 0 -9600 0 0
-5400z m15970 5381 l3215 -1 -2 -5381 -3 -5381 -9467 0 c-5208 0 -9520 1
-9583 1 l-115 1 2 5343 c2 2938 3 5360 3 5382 l0 40 6368 -2 c3502 -1 7814 -2
9582 -2z"/>
<path d="M4566 5813 c-26 -7 -96 -51 -118 -74 -17 -17 -43 -63 -120 -209 -22
-41 -50 -95 -64 -119 -26 -48 -32 -116 -11 -141 34 -42 40 -43 293 -47 l244
-4 30 33 c17 18 30 38 30 44 0 7 4 14 10 16 5 2 12 18 16 36 l7 32 -223 0
c-177 0 -220 3 -212 13 5 6 31 53 58 102 26 50 51 92 54 95 9 6 25 52 22 63
-1 4 96 7 217 7 200 0 220 2 243 19 30 24 73 105 65 124 -4 12 -51 14 -264 15
-142 0 -267 -2 -277 -5z"/>
<path d="M5215 5795 c-71 -42 -101 -78 -167 -205 -36 -69 -78 -147 -93 -174
-37 -65 -37 -129 0 -165 l25 -26 270 -3 c255 -3 272 -2 318 18 66 29 100 67
162 185 29 55 72 137 96 182 48 90 52 109 28 154 -28 54 -56 59 -341 58 -251
-1 -259 -2 -298 -24z m445 -132 c0 -9 -146 -270 -154 -275 -6 -4 -94 -8 -195
-8 -145 0 -181 3 -173 13 26 32 131 247 127 259 -4 10 33 13 195 13 110 0 200
-1 200 -2z"/>
<path d="M6072 5810 c-58 -6 -122 -47 -122 -80 0 -10 -3 -20 -7 -22 -5 -1 -23
-32 -42 -68 -18 -36 -60 -116 -92 -179 -63 -120 -65 -130 -48 -180 20 -57 40
-61 320 -61 l252 0 49 31 c63 41 92 80 163 219 32 63 68 133 80 155 62 112 95
178 92 182 -6 5 -41 7 -104 5 -68 -3 -102 -32 -158 -138 -23 -43 -47 -78 -53
-77 -6 2 -9 -3 -6 -11 4 -11 -39 -101 -92 -190 -10 -17 -25 -19 -155 -19 -79
1 -154 1 -167 2 l-23 1 32 58 c18 31 36 59 41 60 4 2 8 8 8 13 0 11 55 124
104 212 21 37 36 73 34 79 -5 13 -31 15 -106 8z"/>
<path d="M6810 5812 c-8 -1 -41 -55 -73 -120 -33 -64 -74 -144 -92 -177 -101
-186 -145 -270 -145 -281 0 -18 28 -25 86 -20 83 7 100 20 159 125 29 53 68
126 87 163 18 37 35 68 38 68 3 0 21 -39 40 -86 19 -47 38 -88 42 -90 4 -3 8
-13 8 -22 1 -9 15 -46 33 -82 l32 -65 89 -3 c103 -3 104 -2 153 93 91 180 178
340 185 343 4 2 8 10 8 18 0 7 14 36 30 62 17 27 30 54 30 61 0 10 -32 14
-118 13 -45 -1 -93 -39 -123 -99 -13 -26 -26 -50 -29 -53 -3 -3 -15 -25 -28
-50 -70 -134 -85 -160 -91 -156 -4 3 -33 67 -65 143 -78 188 -87 204 -115 214
-21 9 -100 9 -141 1z"/>
<path d="M7572 5798 c-7 -7 -12 -17 -12 -24 0 -7 -3 -14 -7 -16 -5 -1 -18 -22
-31 -45 l-22 -42 21 -12 c13 -7 52 -9 100 -6 44 2 79 2 79 0 0 -4 -39 -77
-157 -297 -35 -65 -62 -125 -59 -133 7 -18 103 -17 147 1 30 13 69 47 69 61 0
3 22 44 50 91 27 48 70 129 96 180 l47 94 93 0 c82 0 96 3 118 23 31 27 79
114 71 127 -9 15 -588 13 -603 -2z"/>
<path d="M8249 5789 c-27 -16 -47 -42 -81 -108 -41 -78 -115 -220 -182 -346
-32 -59 -33 -89 -4 -109 19 -14 64 -16 293 -16 197 1 274 4 286 13 19 15 69
110 69 132 0 14 -26 15 -218 13 l-218 -3 19 33 19 32 116 2 c65 1 145 2 178 3
34 0 68 6 76 13 17 13 64 110 57 116 -3 3 -82 6 -177 7 -94 1 -172 3 -172 4 0
2 7 15 14 31 8 15 13 31 10 36 -3 4 95 8 218 8 196 0 226 3 244 18 23 19 74
107 74 128 0 12 -51 14 -292 14 -278 0 -295 -1 -329 -21z"/>
<path d="M8948 5798 c-8 -7 -26 -35 -39 -63 -13 -27 -38 -75 -55 -105 -31 -54
-115 -212 -180 -339 -19 -35 -31 -68 -28 -72 3 -5 36 -9 74 -9 63 0 72 3 104
31 19 17 45 46 56 65 l22 34 134 0 134 0 31 -65 30 -65 57 -1 c31 0 67 -2 80
-5 13 -2 32 1 42 6 19 10 19 12 -5 66 -25 57 -25 74 0 74 21 0 57 53 129 191
72 138 80 178 46 222 -12 15 -38 31 -58 37 -56 15 -554 13 -574 -2z m452 -157
c0 -6 -4 -12 -9 -15 -5 -3 -21 -29 -36 -58 -43 -84 -30 -79 -212 -77 -89 0
-163 2 -163 3 0 1 16 32 35 69 20 38 33 72 30 78 -4 5 63 9 174 9 107 0 181
-4 181 -9z"/>
<path d="M10225 5780 c-22 -10 -54 -33 -71 -51 -40 -42 -104 -164 -104 -196 0
-36 28 -83 56 -93 14 -6 91 -10 172 -10 81 0 157 -3 168 -6 20 -5 21 -7 7 -35
l-14 -29 -238 0 c-174 0 -241 -3 -253 -12 -22 -18 -80 -127 -73 -139 4 -5 123
-9 288 -9 312 0 323 2 399 69 43 38 108 158 110 204 3 95 -24 107 -242 107
-153 0 -171 2 -166 16 3 9 6 24 6 35 0 18 10 19 249 19 l249 0 26 31 c14 17
26 35 26 40 0 6 5 7 12 3 7 -4 8 -3 4 5 -4 6 -2 18 4 26 7 8 10 22 6 30 -5 13
-45 15 -293 14 -256 0 -292 -2 -328 -19z"/>
<path d="M10914 5792 c-16 -11 -79 -130 -72 -137 4 -4 47 -7 97 -8 50 -1 91
-5 91 -8 0 -3 -15 -35 -34 -70 -19 -35 -49 -93 -68 -129 -18 -36 -52 -101 -76
-144 -26 -49 -39 -83 -33 -89 5 -5 41 -8 79 -5 62 3 74 7 110 38 22 19 41 41
41 48 1 8 15 39 32 70 17 32 56 104 86 162 30 58 58 108 62 113 4 4 48 8 98
10 104 2 125 14 165 95 19 37 20 45 8 52 -18 11 -570 13 -586 2z"/>
<path d="M11574 5792 c-7 -4 -35 -52 -64 -107 -29 -55 -56 -104 -60 -110 -7
-9 -69 -125 -136 -255 -15 -30 -31 -57 -35 -60 -4 -3 -11 -18 -14 -33 l-7 -27
70 0 c91 0 112 10 153 75 l34 54 140 1 141 0 29 -62 30 -63 98 -3 c53 -1 97 0
97 3 0 3 -7 21 -14 40 -8 19 -12 35 -9 35 3 0 -2 10 -13 21 -18 21 -18 22 0
33 43 26 65 48 83 83 105 205 133 262 133 272 0 6 -9 29 -20 51 -15 30 -29 41
-57 49 -43 12 -562 15 -579 3z m416 -209 c-53 -105 -36 -98 -224 -98 -91 0
-166 2 -166 4 0 2 15 32 34 65 18 34 31 67 29 74 -4 9 36 12 176 12 l181 0
-30 -57z"/>
<path d="M12408 5787 c-14 -5 -33 -28 -47 -60 -14 -29 -27 -54 -30 -57 -3 -3
-24 -41 -46 -85 -22 -44 -42 -82 -45 -85 -8 -8 -150 -286 -150 -294 0 -11 151
-6 173 6 31 16 38 25 81 108 21 41 55 107 76 145 21 39 61 115 90 170 29 55
57 105 62 112 5 7 8 20 6 30 -3 15 -15 17 -76 18 -39 0 -82 -4 -94 -8z"/>
<path d="M12760 5790 c-61 -4 -76 -9 -85 -25 -6 -11 -37 -69 -68 -130 -31 -60
-81 -154 -109 -207 -29 -54 -68 -125 -86 -158 -24 -46 -29 -62 -19 -66 8 -3
51 -4 96 -2 l83 3 37 70 36 70 92 3 92 3 32 -62 c46 -92 46 -92 152 -90 50 1
94 5 97 7 2 3 -3 19 -13 36 -9 16 -15 34 -12 38 3 5 -4 11 -15 15 -11 3 -20
11 -20 17 0 6 -20 44 -45 86 -25 41 -45 78 -45 82 0 9 177 120 190 120 5 0 10
3 12 8 5 11 67 55 128 90 78 45 102 66 95 82 -4 12 -28 14 -132 12 l-128 -3
-57 -37 c-31 -20 -93 -59 -138 -87 -45 -27 -102 -65 -126 -82 -24 -18 -44 -30
-44 -27 0 7 78 152 97 179 32 48 7 62 -97 55z"/>
<path d="M14508 5793 c-10 -2 -18 -13 -18 -24 0 -10 -4 -19 -8 -19 -4 0 -14
-16 -21 -35 -7 -19 -17 -35 -22 -35 -14 0 -11 -28 4 -33 6 -2 117 -2 245 1
127 3 232 3 232 0 0 -3 -7 -19 -16 -36 l-15 -32 -205 0 c-198 0 -206 -1 -253
-25 -27 -13 -62 -40 -77 -59 -29 -34 -154 -268 -154 -286 0 -6 129 -10 341
-10 l341 0 15 40 c9 22 20 40 25 40 18 0 6 40 -18 59 -25 20 -39 21 -230 21
l-203 0 10 30 11 30 222 0 c288 0 286 -1 362 150 41 81 51 111 47 135 -17 92
-30 95 -340 94 -142 -1 -266 -3 -275 -6z"/>
<path d="M13445 5775 c-37 -19 -48 -36 -173 -270 -132 -247 -135 -256 -116
-283 15 -22 20 -22 297 -22 226 1 287 4 307 15 14 8 22 14 18 15 -4 0 5 24 21
54 17 30 27 57 24 60 -4 3 -103 6 -220 6 -118 0 -213 3 -211 8 2 4 9 18 16 32
l13 25 165 -3 c153 -3 167 -2 194 18 27 20 79 105 69 115 -3 2 -83 5 -178 5
-157 2 -172 3 -165 18 4 10 8 30 8 45 1 27 3 28 41 26 22 -1 125 -1 228 0
l188 1 24 26 c31 33 67 103 60 115 -4 5 -126 9 -293 9 -234 0 -293 -3 -317
-15z"/>
</g>
</svg>
