<?xml version="1.0" standalone="no"?>
<!DOCTYPE svg PUBLIC "-//W3C//DTD SVG 20010904//EN"
 "http://www.w3.org/TR/2001/REC-SVG-20010904/DTD/svg10.dtd">
<svg version="1.0" xmlns="http://www.w3.org/2000/svg"
 width="1920.000000pt" height="1080.000000pt" viewBox="0 0 1920.000000 1080.000000"
 preserveAspectRatio="xMidYMid meet">
<metadata>
Created by potrace 1.16, written by Peter Selinger 2001-2019
</metadata>
<g transform="translate(0.000000,1080.000000) scale(0.100000,-0.100000)"
fill="#000000" stroke="none">
<path d="M2 5438 c1 -2950 4 -5302 5 -5228 7 331 7 10590 1 10590 -5 0 -7
-2413 -6 -5362z"/>
<path d="M1682 10795 c3 -4 1949 -7 4323 -8 l4318 -2 15 -22 c18 -28 42 -30
42 -4 0 11 4 23 10 26 21 13 9 -32 -18 -65 -37 -45 -52 -74 -52 -99 0 -11 -7
-26 -15 -35 -8 -8 -15 -18 -15 -23 0 -5 -9 -16 -21 -26 -13 -12 -18 -24 -14
-37 4 -13 -1 -24 -19 -35 -42 -28 -37 -47 21 -77 28 -16 58 -25 66 -22 9 3 26
-1 39 -9 15 -9 40 -12 70 -10 42 4 47 8 53 34 4 17 15 35 26 42 10 6 19 17 19
24 0 9 118 12 508 13 1836 6 2404 5 2407 0 2 -4 30 -3 61 1 74 10 435 0 451
-12 7 -6 12 -6 15 1 2 8 110 11 373 11 204 -1 406 0 450 1 185 5 257 1 265
-12 7 -11 11 -11 26 1 14 11 86 14 413 15 463 1 442 1 438 16 -1 7 8 14 21 16
12 2 22 -1 22 -7 0 -6 -6 -11 -12 -12 -7 0 -1 -5 15 -11 15 -5 25 -14 22 -19
-6 -8 19 -2 40 10 17 10 190 8 197 -3 4 -6 14 -3 27 8 17 15 23 17 36 6 9 -8
30 -11 55 -7 23 3 40 1 40 -5 0 -9 18 -7 88 9 16 4 22 1 22 -12 0 -10 5 -13
11 -9 12 7 75 16 94 14 69 -9 185 -10 185 -1 0 13 36 15 44 3 5 -8 89 -6 129
2 10 3 17 -2 17 -10 0 -8 5 -14 10 -14 6 0 10 4 10 10 0 5 38 8 93 6 50 -2
101 0 112 4 11 4 27 4 36 -1 11 -6 21 -4 29 6 11 13 14 13 26 -2 11 -15 16
-16 33 -6 16 10 23 10 36 -3 10 -10 24 -14 40 -10 14 4 25 2 25 -3 0 -5 17 -5
43 1 23 5 84 8 135 5 51 -2 95 0 98 4 3 5 16 3 29 -3 31 -14 43 -4 23 19 -23
28 -30 43 -19 43 6 0 11 -6 11 -13 0 -8 11 -20 25 -27 14 -7 25 -18 25 -24 0
-7 3 -6 8 1 10 17 84 21 90 5 2 -7 8 -12 13 -12 4 0 6 7 3 15 -4 8 -1 15 5 15
6 0 9 6 7 13 -1 6 -1 9 1 5 3 -5 10 -8 16 -8 6 0 18 -7 28 -15 14 -14 54 -16
260 -16 147 0 238 -3 230 -9 -13 -7 -13 -11 -1 -25 12 -15 12 -18 -2 -26 -15
-8 -34 -54 -29 -72 1 -4 -6 -15 -15 -24 -14 -14 -14 -17 0 -31 13 -13 60 -15
333 -14 175 1 346 2 381 2 l62 0 0 103 0 104 -62 11 c-41 7 -155 9 -327 6
-232 -4 -262 -3 -252 10 7 8 10 20 6 26 -3 5 -2 10 4 10 6 0 14 15 19 33 l8
32 155 4 c85 2 220 2 302 1 l147 -1 0 105 0 106 -1609 0 c-1264 0 -1611 -3
-1615 -13 -5 -9 -7 -9 -12 1 -8 16 -561 17 -581 0 -9 -7 -13 -7 -13 1 0 8
-1791 11 -6847 11 -3765 0 -6844 -2 -6841 -5z"/>
<path d="M18320 10110 c0 -27 -3 -32 -20 -27 -25 6 -30 -1 -36 -55 -3 -24 -11
-46 -19 -50 -7 -5 -11 -17 -8 -28 6 -23 -20 -49 -49 -50 -10 0 -18 -5 -18 -11
0 -6 -7 -4 -15 5 -10 10 -27 13 -52 9 -21 -2 -52 -4 -70 -4 -18 1 -35 -4 -39
-10 -5 -8 -9 -8 -14 1 -7 12 -158 21 -165 9 -2 -3 -19 -4 -37 -3 -18 2 -120 4
-226 5 -145 1 -197 -2 -208 -12 -13 -11 -17 -10 -24 2 -8 13 -37 15 -190 13
-172 -2 -183 -3 -197 -23 -21 -31 -90 -30 -95 1 -3 21 -5 21 -188 20 -102 -1
-192 -2 -200 -2 -8 0 -53 1 -100 2 l-85 2 2 -27 c2 -34 -13 -35 -21 -2 -5 20
-13 25 -36 25 -17 0 -39 -5 -50 -12 -14 -9 -24 -9 -42 -1 -13 7 -54 15 -93 19
-100 10 -417 5 -431 -7 -8 -6 -21 -6 -40 2 -16 6 -58 10 -94 9 -36 -1 -69 -1
-75 0 -39 7 -327 0 -344 -9 -16 -9 -22 -8 -30 6 -6 10 -11 14 -11 8 0 -7 -421
-9 -1247 -8 -842 2 -1259 -1 -1283 -8 -19 -6 -42 -13 -50 -16 -26 -9 -84 -7
-111 5 -37 15 -282 9 -342 -8 -40 -12 -51 -12 -69 -1 -18 11 -20 11 -15 -3 6
-14 -8 -16 -114 -16 -66 0 -129 -5 -139 -10 -11 -6 -84 -13 -162 -17 -90 -3
-153 -11 -170 -20 -16 -7 -39 -11 -53 -7 -14 3 -45 2 -68 -4 -23 -6 -82 -14
-132 -18 -49 -4 -84 -9 -77 -11 21 -8 13 -25 -8 -18 -11 3 -35 1 -54 -6 -28
-10 -38 -10 -50 0 -13 11 -16 11 -16 -2 0 -15 -40 -27 -93 -27 -17 0 -47 -5
-66 -11 -20 -6 -48 -14 -63 -19 -16 -5 -30 -5 -33 0 -7 11 -98 -1 -110 -15 -5
-7 -41 -23 -80 -35 -94 -31 -104 -35 -148 -54 -46 -20 -47 -20 -47 -1 0 8 -4
15 -9 15 -5 0 -11 -7 -15 -15 -3 -8 -10 -15 -17 -15 -6 0 -23 -9 -38 -19 -24
-17 -33 -18 -70 -9 -42 11 -67 4 -42 -12 19 -11 6 -38 -24 -50 -14 -5 -25 -17
-25 -25 0 -21 -27 -30 -45 -15 -15 12 -35 6 -35 -11 0 -5 6 -9 14 -9 22 0 26
-13 13 -38 -11 -21 -20 -23 -141 -26 -121 -4 -131 -6 -147 -28 -13 -17 -15
-26 -7 -36 8 -10 6 -17 -10 -28 -11 -8 -22 -24 -24 -37 -2 -12 -9 -22 -16 -22
-8 0 -20 -16 -27 -35 -33 -90 -37 -100 -44 -95 -5 2 -7 -28 -5 -68 1 -40 0
-57 -3 -39 -3 22 -10 32 -22 32 -14 0 -21 -14 -31 -61 -12 -58 -12 -63 6 -76
32 -24 66 -28 76 -9 12 22 25 20 31 -5 3 -12 10 -18 16 -14 6 3 11 -1 11 -9 0
-9 9 -16 20 -16 15 0 20 -7 20 -25 0 -14 -4 -25 -10 -25 -5 0 -10 7 -10 15 0
8 -4 15 -10 15 -14 0 -13 -27 1 -32 10 -3 -47 -109 -63 -116 -5 -2 -8 -12 -8
-21 0 -34 -40 -43 -168 -39 l-122 3 0 -27 c0 -28 -6 -37 -62 -99 -28 -31 -29
-33 -12 -46 10 -7 12 -13 6 -13 -7 0 -12 -6 -12 -14 0 -8 -7 -16 -15 -19 -8
-4 -26 -28 -40 -54 -14 -26 -29 -55 -34 -63 -31 -55 -41 -81 -36 -90 3 -6 1
-10 -4 -10 -17 0 -13 -19 9 -50 15 -22 32 -31 65 -36 76 -11 93 -40 71 -119
-5 -16 -14 -37 -21 -45 -7 -8 -16 -25 -19 -37 -11 -34 -72 -47 -188 -39 -53 3
-104 9 -113 12 -15 6 -16 2 -10 -25 6 -27 4 -33 -13 -38 -20 -5 -32 -30 -32
-70 0 -13 -6 -23 -12 -23 -13 0 -38 -44 -38 -66 0 -7 -11 -26 -25 -42 -14 -17
-25 -37 -25 -45 0 -26 -23 -70 -52 -101 -20 -21 -28 -40 -28 -65 0 -35 2 -36
58 -53 31 -10 83 -22 115 -27 67 -12 87 -4 108 43 l14 30 460 -2 c253 -2 485
-5 516 -8 40 -5 64 -2 86 9 31 16 72 13 85 -7 5 -8 11 -7 19 1 9 9 18 9 31 2
12 -7 24 -7 31 -1 18 15 390 13 400 -2 4 -7 10 -8 15 -1 4 6 60 8 150 5 110
-4 142 -2 142 8 0 14 16 16 25 3 3 -6 401 -9 1045 -8 572 1 1040 -1 1040 -5 0
-14 29 4 33 20 3 12 5 10 6 -5 1 -20 7 -23 41 -23 29 0 42 5 50 21 9 15 15 18
25 9 22 -18 116 -25 126 -9 7 12 12 12 29 1 26 -16 757 -15 778 1 8 6 12 6 12
0 0 -6 51 -11 127 -12 70 -1 138 -4 150 -7 15 -4 23 -2 23 6 0 9 4 10 13 2 13
-11 178 -9 196 3 5 3 22 0 37 -5 16 -7 30 -7 33 -2 7 11 143 9 181 -2 14 -4
44 -3 67 2 43 10 56 6 66 -18 4 -13 6 -12 6 1 1 9 12 20 26 23 29 7 45 1 45
-18 0 -10 10 -10 53 2 40 11 138 15 444 18 l392 3 4 -22 c4 -22 4 -22 6 1 1
21 4 22 44 17 23 -3 65 -5 92 -3 28 2 105 3 172 3 66 0 119 3 116 8 -6 9 11 9
21 0 4 -4 56 -6 117 -4 97 3 109 1 109 -14 0 -12 5 -15 18 -10 44 18 56 19 49
2 -4 -11 -1 -17 8 -17 8 0 15 7 15 15 0 12 14 15 69 15 77 0 125 -13 118 -33
-2 -6 -10 -12 -18 -12 -8 0 -15 -12 -17 -30 -2 -16 -14 -40 -27 -53 -33 -32
-23 -62 18 -56 18 2 43 6 57 8 14 1 33 7 44 11 10 5 21 4 25 -2 5 -9 710 -19
1071 -16 306 3 431 7 435 13 3 4 22 4 42 0 23 -6 40 -5 43 1 4 6 42 6 104 -1
54 -5 101 -8 106 -5 4 2 15 -4 25 -15 17 -19 18 -19 35 3 14 17 21 19 32 9 20
-16 172 -7 219 14 35 15 37 15 99 -15 35 -17 65 -31 67 -31 2 0 3 59 3 130 l0
130 -97 2 c-54 1 -111 2 -128 1 -46 -2 -234 -3 -285 -2 -25 1 -256 0 -515 -1
-307 -1 -471 2 -473 8 -2 7 -13 7 -32 1 -19 -7 -41 -7 -68 0 -29 8 -48 8 -68
0 -16 -6 -78 -9 -140 -8 -61 1 -116 -1 -122 -5 -6 -3 -31 -1 -57 5 -27 7 -95
10 -170 7 -69 -2 -125 -1 -126 2 0 3 -2 13 -4 22 -2 9 12 34 30 55 31 36 34
37 94 35 43 -2 61 1 61 10 0 6 6 3 14 -7 12 -16 16 -17 30 -6 13 11 20 11 42
-4 24 -16 26 -16 40 2 9 12 13 14 14 4 0 -10 3 -11 13 -3 15 12 58 5 69 -12 5
-7 8 -7 8 2 0 11 20 13 88 11 48 -1 219 -2 379 0 173 1 300 -2 310 -7 10 -6
26 -6 39 -2 33 13 354 14 385 2 15 -6 32 -7 39 -2 8 5 43 6 78 3 42 -4 71 -2
87 7 14 8 36 10 57 6 39 -8 329 -8 376 1 l32 5 0 148 0 149 -55 6 c-56 7 -92
4 -157 -13 -25 -6 -100 -6 -220 0 -101 6 -196 10 -213 10 -16 -1 -201 -4 -410
-7 -209 -3 -410 -7 -447 -8 -38 -1 -68 0 -68 3 0 11 -106 8 -119 -3 -9 -8 -16
-8 -18 -2 -2 6 -40 8 -100 5 -54 -3 -133 -3 -175 -1 l-77 3 2 39 c1 21 5 39
10 39 4 0 18 11 30 24 20 21 28 23 64 17 22 -5 67 -4 99 0 33 5 77 7 99 4 22
-3 76 -7 119 -10 44 -3 89 -8 101 -11 11 -3 43 0 70 6 51 12 818 16 836 4 5
-3 9 0 9 5 0 17 40 13 46 -4 4 -8 10 -15 16 -15 5 0 6 5 3 10 -7 11 41 14 145
10 36 -1 67 -6 68 -11 2 -5 18 -9 35 -9 l32 1 -25 15 c-24 15 -24 15 15 9 22
-4 45 -11 52 -16 7 -7 13 -5 16 3 3 8 6 6 6 -5 1 -16 6 -17 34 -12 17 4 34 11
35 16 2 5 35 9 73 9 l69 0 0 115 0 114 -637 -2 c-475 -2 -644 -6 -660 -15 -17
-9 -22 -9 -26 1 -3 9 -68 12 -275 13 -149 0 -274 2 -276 5 -5 5 1 16 39 77 18
28 25 32 67 32 26 0 49 4 52 9 3 5 34 8 68 6 35 -2 117 -4 183 -5 66 -1 126
-6 132 -12 9 -7 17 -7 26 0 7 6 57 11 112 11 55 0 212 0 349 1 168 0 253 4
263 11 9 8 17 8 26 1 14 -12 268 -19 286 -8 5 4 12 2 16 -3 8 -14 94 -11 108
4 10 9 15 9 25 -1 10 -11 65 -13 115 -5 4 0 7 66 7 145 0 111 -3 146 -14 155
-9 7 -17 8 -20 2 -4 -6 -307 -8 -831 -5 l-825 3 -15 -29 c-8 -16 -15 -36 -15
-44 0 -8 -9 -20 -20 -26 -28 -15 -914 -14 -942 1 -14 8 -64 9 -152 5 -382 -17
-456 -18 -470 -7 -10 9 -16 9 -21 1 -4 -6 -15 -8 -26 -5 -12 4 -21 1 -25 -9
-8 -22 -34 -20 -34 2 0 15 -9 17 -67 14 -38 -1 -78 -8 -91 -14 -18 -9 -25 -9
-31 0 -8 13 -211 15 -211 1 0 -4 -11 -2 -25 4 -14 7 -23 18 -20 25 2 6 0 12
-5 12 -6 0 -10 -9 -10 -20 0 -22 -15 -27 -23 -7 -3 7 -6 4 -6 -6 -1 -15 -6
-17 -23 -11 -13 5 -50 6 -83 5 -33 -2 -71 -3 -85 -2 -74 6 -892 6 -930 0 -32
-5 -54 -3 -74 7 -34 16 -66 18 -66 4 0 -8 -191 -8 -455 0 -11 0 -186 -1 -390
-3 -255 -2 -372 0 -377 7 -12 17 -9 26 7 26 11 0 15 11 15 35 0 23 8 44 21 58
12 12 27 36 34 52 7 17 23 39 35 50 15 13 19 26 15 42 -4 19 -1 23 20 23 21 0
25 5 26 30 1 17 2 33 4 38 6 22 21 49 36 65 10 11 16 34 16 57 -1 50 14 66 66
74 55 8 904 9 917 1 6 -3 10 -3 10 2 0 4 107 7 237 6 163 -1 240 2 244 9 4 6
15 8 25 4 11 -4 80 -10 154 -12 73 -3 136 -7 138 -9 3 -2 11 3 20 11 9 10 17
12 21 5 4 -6 64 -10 160 -10 84 0 155 -2 158 -5 3 -3 12 2 18 11 11 15 15 15
29 4 9 -7 22 -11 31 -8 8 4 17 1 21 -4 3 -6 20 -8 38 -5 17 3 124 6 238 8 166
1 208 4 213 16 4 11 7 11 19 0 11 -11 85 -14 400 -14 248 1 388 -3 390 -9 3
-7 5 -7 5 0 1 7 201 10 581 9 319 -1 580 1 580 5 0 3 226 5 503 4 649 -3 639
-3 659 3 9 3 19 0 23 -6 5 -7 11 -5 20 7 10 13 16 15 26 6 19 -15 51 -19 67
-9 7 4 18 3 25 -3 7 -5 19 -6 26 -2 8 5 31 6 52 4 l39 -6 0 152 0 153 -202 -3
c-112 -2 -208 0 -215 4 -15 10 -274 9 -488 -2 -105 -5 -175 -5 -182 1 -7 5
-16 7 -20 5 -5 -3 -39 -8 -76 -12 l-67 -7 0 26 c0 16 6 26 15 26 17 0 35 30
35 60 0 21 1 21 208 13 268 -10 569 -10 805 1 l187 9 0 109 0 108 -111 0 c-95
0 -110 2 -105 15 3 8 1 15 -4 15 -6 0 -10 -6 -10 -12 0 -9 -17 -13 -52 -14
-286 -2 -480 -8 -513 -15 -22 -4 -42 -4 -45 1 -6 10 -102 6 -119 -5 -7 -4 -21
1 -31 10 -14 12 -24 15 -32 8 -7 -5 -24 -6 -38 -2 -14 4 -19 7 -12 8 6 1 12 6
12 12 0 5 11 35 25 66 24 52 27 55 56 49 24 -5 31 -2 39 17 6 15 9 17 9 6 1
-20 30 -29 94 -29 37 0 54 6 74 24 27 26 43 26 43 1 0 -8 10 -17 23 -20 17 -4
205 -1 262 4 6 1 25 -2 43 -5 30 -6 32 -4 32 20 0 16 4 25 10 21 6 -3 10 -15
10 -26 0 -19 7 -20 170 -17 l170 2 0 153 c0 84 -2 153 -4 153 -3 0 -16 -4 -30
-10 -28 -10 -558 -22 -552 -12 2 4 -12 6 -32 5 -21 -1 -37 -2 -37 -3 0 -1 -28
-3 -62 -5 -54 -3 -61 -1 -56 13 5 14 3 15 -8 5 -7 -7 -21 -13 -31 -13 -10 0
-18 6 -19 13 0 6 -4 4 -8 -7 -7 -17 -8 -17 -24 -2 -16 16 -17 16 -17 -14z"/>
<path d="M10081 10121 c-7 -5 -11 -12 -9 -17 1 -5 -10 -11 -27 -14 -24 -5 -29
-10 -28 -28 2 -13 -5 -26 -17 -32 -11 -6 -20 -19 -20 -29 0 -10 -7 -24 -15
-31 -8 -7 -15 -19 -15 -27 0 -7 -6 -16 -14 -19 -8 -3 -12 -13 -9 -25 4 -13 0
-19 -11 -19 -9 0 -16 -6 -16 -13 0 -7 -8 -31 -19 -53 -10 -21 -24 -56 -32 -76
-7 -21 -17 -38 -21 -38 -12 0 -10 -22 4 -51 14 -30 48 -47 104 -54 21 -3 55
-8 75 -11 54 -9 72 6 93 78 11 34 24 68 30 73 6 6 26 39 44 75 58 114 109 197
125 203 16 6 21 83 7 92 -6 4 -34 7 -62 7 -29 -1 -56 2 -62 6 -16 10 -90 12
-105 3z"/>
<path d="M17692 8931 c-8 -4 -13 -11 -13 -15 4 -26 -2 -36 -19 -36 -11 0 -20
-7 -20 -15 0 -8 -4 -15 -10 -15 -5 0 -10 -11 -10 -25 0 -14 -7 -37 -16 -50 -8
-13 -14 -34 -12 -47 3 -22 6 -23 83 -19 44 2 83 8 87 14 5 8 10 7 20 -1 15
-12 858 -20 877 -7 6 3 17 3 24 -2 17 -10 371 -3 375 8 5 14 74 10 102 -6 14
-8 28 -14 33 -15 4 0 7 52 7 115 l0 115 -32 1 c-18 1 -76 1 -128 1 -189 -1
-766 0 -815 2 -27 1 -61 -2 -74 -6 -16 -6 -27 -5 -31 2 -4 7 -20 8 -46 2 -21
-4 -88 -6 -147 -3 -61 4 -112 2 -117 -3 -6 -6 -19 -5 -35 2 -30 14 -64 15 -83
3z"/>
<path d="M18720 7055 c-1 -16 -4 -24 -7 -17 -8 20 -23 14 -24 -10 l0 -23 -11
23 c-14 27 -43 25 -43 -3 0 -22 -12 -35 -33 -35 -8 0 -10 8 -6 25 l6 25 -107
0 c-69 0 -104 4 -100 10 4 7 -22 8 -77 5 -130 -9 -888 -11 -888 -3 0 4 -12 3
-26 -2 -43 -17 -131 -13 -138 6 -5 13 -9 14 -21 4 -8 -7 -24 -10 -34 -7 -11 3
-22 0 -25 -7 -3 -7 -8 -6 -15 4 -8 11 -11 12 -11 2 0 -11 -44 -13 -235 -11
-224 3 -235 2 -250 -16 -8 -11 -18 -30 -21 -42 -3 -13 -10 -23 -14 -23 -11 0
-80 -143 -80 -165 0 -13 -4 -15 -17 -9 -10 5 -112 10 -227 12 -185 2 -210 1
-221 -14 -10 -15 -12 -15 -18 -1 -5 13 -32 16 -176 17 -164 1 -170 0 -176 -20
l-7 -21 -18 21 c-11 12 -21 27 -24 33 -3 9 -7 9 -13 0 -12 -17 -419 -21 -449
-5 -11 6 -30 9 -42 6 -11 -3 -28 -2 -38 4 -9 5 -26 7 -38 4 -18 -6 -17 -7 9
-13 29 -6 29 -7 -7 -8 -21 0 -38 4 -38 9 0 6 -7 10 -15 10 -8 0 -15 -4 -15
-10 0 -5 -20 -10 -45 -10 -25 0 -45 4 -45 10 0 10 -79 34 -87 27 -2 -3 5 -8
16 -12 12 -3 21 -13 21 -22 0 -11 -8 -14 -30 -11 -17 3 -33 1 -36 -4 -3 -5
-10 -6 -15 -2 -6 3 -3 12 8 20 17 13 17 13 -4 14 -12 0 -23 -4 -25 -9 -3 -10
-358 -20 -358 -11 0 3 -102 5 -227 5 -126 0 -242 3 -259 6 -20 3 -30 1 -28 -6
4 -9 -2045 -11 -2908 -3 -157 2 -284 0 -281 -4 2 -5 -29 -9 -69 -10 -40 0
-112 -2 -160 -4 -56 -1 -88 2 -88 8 0 6 -6 6 -15 -2 -9 -7 -50 -13 -105 -14
-68 -1 -90 -4 -90 -15 0 -7 -6 -11 -14 -8 -11 5 -61 2 -301 -17 -16 -2 -37 -6
-45 -9 -8 -3 -62 -7 -119 -9 -83 -3 -106 -7 -116 -21 -9 -12 -27 -17 -68 -17
-31 0 -59 5 -62 10 -9 15 -31 12 -49 -6 -15 -15 -172 -38 -189 -27 -4 2 -14
-3 -23 -11 -9 -10 -33 -16 -60 -16 -25 0 -43 -4 -40 -9 9 -14 -20 -21 -82 -21
-32 0 -81 -9 -112 -20 -30 -11 -64 -20 -76 -20 -12 0 -27 -7 -34 -15 -7 -8
-23 -15 -36 -15 -12 0 -35 -5 -51 -11 -50 -19 -126 -37 -139 -32 -7 2 -25 -2
-41 -10 -15 -8 -33 -12 -40 -10 -7 2 -15 -7 -19 -22 -5 -22 -10 -25 -34 -20
-20 4 -29 2 -33 -9 -5 -11 -14 -14 -36 -10 -24 5 -31 2 -42 -17 -7 -13 -18
-30 -26 -37 -8 -8 -17 -28 -20 -44 l-6 -29 -76 3 c-42 1 -108 1 -148 -1 -72
-4 -73 -4 -83 -37 -6 -19 -9 -38 -5 -44 3 -5 2 -10 -4 -10 -5 0 -11 3 -14 8
-2 4 -2 1 0 -6 2 -8 -6 -25 -17 -39 -11 -14 -20 -30 -20 -35 0 -10 -16 -31
-42 -56 -10 -9 -18 -23 -18 -30 0 -17 -25 -43 -34 -35 -3 4 -6 -8 -6 -25 0
-17 -14 -56 -30 -86 -17 -30 -29 -61 -28 -68 2 -10 -22 -14 -97 -18 -80 -4
-100 -8 -100 -20 0 -23 -49 -19 -55 4 -3 10 -15 22 -27 27 -17 6 -21 5 -16 -7
6 -16 -12 -20 -22 -4 -9 15 -58 12 -81 -4 -13 -10 -23 -11 -31 -4 -10 8 -13 5
-13 -11 0 -14 -6 -21 -20 -21 -23 0 -35 -21 -45 -77 -4 -27 -12 -43 -21 -43
-8 0 -14 -4 -14 -9 0 -5 -10 -11 -22 -15 -17 -4 -20 -8 -10 -15 16 -9 7 -77
-11 -88 -35 -21 -97 6 -97 42 0 7 -6 18 -13 24 -8 6 -12 23 -10 38 3 18 -4 41
-19 63 -13 20 -32 53 -42 73 -27 53 -34 56 -117 63 l-74 6 -13 -31 c-8 -17
-20 -31 -27 -31 -18 0 -45 -55 -45 -91 0 -18 -7 -32 -20 -39 -11 -6 -20 -21
-21 -33 0 -12 -9 -35 -20 -52 -10 -16 -23 -40 -29 -52 -5 -13 -14 -23 -20 -23
-5 0 -10 -6 -10 -13 0 -7 -9 -18 -19 -24 -17 -11 -21 -9 -26 7 -10 31 3 58 35
72 31 13 42 48 15 48 -8 0 -15 4 -15 9 0 5 7 11 15 15 8 3 15 12 15 20 0 7 6
16 13 19 7 3 21 28 30 57 9 28 26 64 37 80 36 50 21 64 -63 54 -109 -12 -122
-19 -154 -82 -23 -45 -35 -58 -56 -60 -23 -3 -27 -8 -27 -36 0 -22 -16 -60
-47 -111 -26 -43 -49 -93 -52 -111 l-6 -34 -166 -3 -166 -2 14 22 c9 13 19 23
24 23 5 0 15 16 24 36 8 19 23 47 34 62 10 15 24 46 30 68 6 23 18 47 26 54 8
7 15 26 15 42 0 17 8 37 19 46 11 10 21 33 23 52 l3 35 -73 1 c-72 0 -73 0
-113 -40 -22 -23 -54 -67 -70 -98 -16 -32 -33 -58 -38 -58 -5 0 -19 -25 -31
-55 -12 -30 -27 -55 -33 -55 -6 0 -8 -3 -4 -6 3 -4 -7 -31 -23 -61 -16 -30
-32 -77 -36 -104 -4 -27 -10 -46 -15 -44 -4 3 -10 1 -14 -5 -3 -5 3 -10 14
-10 10 0 31 -13 44 -30 25 -29 28 -30 119 -31 90 -1 187 -15 128 -18 -40 -2
-3 -21 42 -21 37 0 57 -13 38 -25 -5 -3 -10 -13 -10 -21 0 -21 106 -19 128 3
12 12 13 18 4 21 -14 4 -16 32 -2 32 6 0 10 6 10 14 0 10 19 16 62 21 45 5 68
14 85 31 13 13 33 24 44 24 14 0 21 9 25 29 4 16 14 31 24 34 10 3 20 15 22
28 2 13 4 -11 3 -54 0 -43 3 -83 7 -90 15 -24 188 3 188 31 0 5 19 28 42 51
33 32 40 44 29 50 -11 7 -9 15 10 40 20 27 29 31 72 31 49 0 77 -15 77 -43 0
-8 7 -17 15 -21 8 -3 15 -14 15 -24 0 -28 27 -89 50 -112 15 -15 34 -20 79
-20 90 0 122 9 140 41 9 15 23 30 32 32 11 3 15 13 12 34 -4 23 2 37 21 56 14
14 26 37 26 49 0 13 13 39 28 58 16 19 39 54 52 78 13 23 27 42 31 42 4 0 10
16 14 36 6 37 44 104 58 104 4 0 7 -11 7 -25 0 -14 5 -25 10 -25 6 0 10 -6 10
-14 0 -22 28 -27 104 -20 80 8 79 11 21 -80 -27 -43 -41 -57 -55 -53 -20 5
-46 -32 -38 -55 3 -7 -6 -37 -18 -67 -13 -29 -24 -60 -24 -67 0 -8 -4 -14 -10
-14 -5 0 -20 -19 -32 -41 -32 -57 -41 -72 -56 -89 -7 -8 -26 -36 -42 -61 -24
-37 -29 -53 -24 -78 5 -23 11 -30 21 -27 8 4 27 -3 42 -13 15 -11 41 -23 57
-26 16 -3 36 -8 44 -10 8 -2 23 -4 33 -4 9 -1 17 -6 17 -12 0 -6 -7 -8 -16 -5
-13 5 -14 1 -9 -23 5 -23 1 -31 -20 -45 -14 -9 -25 -26 -25 -37 0 -23 -28 -81
-44 -91 -6 -4 -68 -8 -138 -8 -69 0 -133 -3 -142 -6 -10 -4 -16 -18 -16 -39 0
-24 -5 -35 -19 -40 -11 -3 -19 -14 -18 -24 1 -21 -23 -81 -33 -81 -9 0 -21
-32 -29 -79 -8 -46 -29 -51 -34 -9 -3 29 -4 28 -5 -9 -2 -31 -8 -46 -22 -55
-11 -7 -20 -20 -20 -30 0 -9 -4 -19 -9 -22 -4 -3 -9 -28 -9 -55 -2 -54 7 -61
81 -61 25 0 37 -5 37 -14 0 -44 147 -31 181 17 3 5 73 8 155 8 139 -1 150 -3
165 -22 15 -20 17 -20 33 -4 14 15 40 18 151 20 74 2 139 6 145 10 6 4 9 1 8
-7 -4 -16 87 -24 105 -9 8 6 150 6 410 0 237 -5 405 -5 415 0 23 12 72 2 72
-15 0 -8 7 -14 16 -14 11 0 14 5 10 16 -5 14 -4 15 8 5 11 -9 15 -8 20 5 5 13
15 15 54 10 26 -3 535 -5 1132 -4 597 1 1104 1 1128 1 33 0 47 -6 58 -22 19
-27 38 -27 31 -1 -4 17 0 20 23 20 19 0 30 -6 33 -17 4 -17 5 -17 6 0 1 13 10
17 45 17 25 0 48 4 51 10 10 17 44 11 66 -11 19 -19 25 -20 64 -10 54 13 228
14 273 2 18 -6 30 -6 28 -2 -3 4 251 8 565 8 327 1 571 -3 575 -8 3 -5 14 -4
26 2 14 8 153 10 462 8 242 -2 447 0 454 5 7 4 19 3 27 -4 11 -9 19 -10 28 -1
8 6 17 8 21 4 10 -11 159 -3 173 9 9 7 13 7 13 -1 0 -19 55 -12 70 8 15 22 32
19 23 -4 -4 -13 46 -15 381 -15 372 0 386 -1 386 -19 0 -10 -7 -21 -15 -25 -8
-3 -15 -12 -15 -21 0 -8 -3 -15 -7 -15 -5 0 -8 -17 -8 -38 l0 -37 65 1 c61 1
1330 1 1415 1 22 -1 182 0 355 2 173 1 426 2 563 2 l247 -1 -6 -27 c-4 -16
-13 -33 -20 -39 -8 -6 -17 -26 -20 -43 -5 -25 -10 -30 -23 -24 -13 7 -358 8
-1881 5 -30 0 -192 1 -360 2 -395 1 -442 -1 -435 -23 3 -10 -2 -26 -10 -37 -8
-10 -15 -29 -15 -41 0 -12 -3 -23 -8 -25 -4 -1 -22 -25 -40 -52 -34 -53 -40
-87 -18 -105 12 -10 750 -16 1331 -10 173 2 333 1 525 -1 74 0 137 -1 140 0 3
0 134 2 291 4 157 1 290 5 295 8 14 9 9 -63 -6 -99 -12 -26 -20 -32 -54 -35
-35 -3 -1110 -3 -1609 1 -160 1 -169 2 -174 21 -3 11 -9 20 -13 20 -5 0 -6 -9
-3 -20 5 -17 0 -20 -26 -20 -18 0 -138 -1 -269 -1 -130 -1 -287 -1 -348 0
l-112 1 2 69 c0 38 -1 71 -4 74 -3 2 -43 0 -90 -4 -53 -5 -98 -4 -120 2 -20 6
-79 8 -140 5 -58 -3 -150 -9 -204 -12 -71 -4 -107 -2 -123 7 -17 9 -26 10 -31
3 -4 -6 -23 -11 -42 -11 -19 0 -77 -1 -127 -3 -64 -2 -98 1 -108 10 -12 10
-18 10 -30 0 -11 -9 -22 -9 -46 -1 -21 7 -36 8 -44 1 -6 -5 -14 -8 -16 -6 -2
2 -17 6 -32 10 -19 4 -26 3 -22 -4 3 -5 -1 -10 -9 -10 -9 0 -15 3 -15 8 3 18
-2 26 -9 14 -9 -13 -156 -19 -349 -13 -97 3 -103 5 -104 25 0 21 0 21 -9 -1
-7 -16 -17 -23 -37 -23 -27 1 -27 1 -9 15 19 14 18 15 -13 15 -29 0 -32 -2
-21 -15 11 -13 0 -15 -89 -15 -63 0 -101 -4 -101 -10 0 -7 -7 -7 -17 -2 -10 4
-30 8 -45 7 -17 0 -28 4 -28 12 0 25 -18 13 -25 -17 -8 -36 -17 -38 -37 -8
-17 25 23 24 -436 16 -85 -2 -152 1 -152 6 0 5 -41 6 -97 2 -169 -12 -323 -14
-329 -5 -7 12 -177 12 -190 0 -12 -12 -163 -20 -170 -10 -3 5 -20 9 -39 9 -22
0 -38 6 -44 17 -10 16 -12 16 -23 2 -16 -19 -56 -31 -64 -18 -3 5 -14 9 -25 9
-10 0 -19 5 -19 12 0 7 -6 6 -17 -4 -29 -24 -49 -28 -72 -12 -21 15 -70 29
-57 17 9 -9 -14 -32 -27 -27 -17 6 -231 16 -312 14 -253 -6 -516 -2 -529 9
-11 10 -16 9 -23 -3 -7 -13 -29 -14 -163 -5 -85 5 -162 11 -170 14 -9 3 -15
18 -16 36 -2 57 -42 60 -62 5 -13 -36 -20 -39 -150 -65 -44 -9 -58 -8 -84 5
-17 9 -39 14 -49 11 -11 -3 -19 -1 -19 4 0 5 -7 9 -15 9 -8 0 -15 -7 -15 -16
0 -12 -5 -14 -17 -8 -24 10 -112 5 -135 -7 -11 -6 -85 -9 -172 -8 -84 1 -158
-1 -164 -5 -6 -3 -13 4 -15 16 l-4 23 -8 -22 c-7 -21 -9 -21 -28 -8 -28 19
-57 19 -57 0 0 -11 -13 -15 -52 -16 -116 -2 -315 -15 -443 -28 -55 -6 -128
-11 -161 -11 -34 0 -77 -7 -96 -14 -21 -9 -97 -18 -194 -24 -134 -7 -170 -13
-229 -35 -46 -18 -89 -27 -128 -27 -50 0 -59 -3 -66 -22 -4 -12 -10 -17 -14
-11 -8 12 -190 -17 -225 -36 -11 -6 -27 -8 -36 -5 -8 3 -30 -1 -47 -10 -18 -9
-37 -16 -44 -16 -15 0 -65 -23 -65 -31 0 -3 -13 -4 -28 -1 -19 2 -35 -3 -47
-15 -19 -18 -27 -20 -97 -25 -21 -1 -40 -8 -42 -15 -3 -7 -13 -13 -23 -13 -30
0 -123 -59 -141 -89 -9 -15 -23 -26 -29 -24 -7 3 -13 0 -13 -6 0 -7 -43 -11
-130 -11 -123 0 -130 -1 -130 -20 0 -11 -6 -20 -13 -20 -15 0 -91 -145 -83
-158 3 -5 -1 -15 -9 -22 -8 -7 -17 -27 -21 -46 -3 -19 -10 -32 -14 -29 -5 3
-18 -16 -30 -41 -12 -25 -33 -58 -47 -74 -20 -24 -22 -34 -15 -62 8 -31 11
-33 57 -36 27 -2 55 -8 61 -13 7 -5 24 -7 38 -3 15 4 32 1 41 -6 13 -10 13
-14 0 -27 -8 -8 -15 -28 -15 -45 0 -40 -27 -96 -51 -103 -12 -4 -19 -16 -19
-31 0 -24 0 -24 -104 -24 -59 0 -108 -4 -111 -10 -3 -6 -21 -10 -40 -10 -48 0
-65 -9 -65 -34 0 -12 -9 -32 -19 -43 -21 -22 -95 -161 -96 -178 0 -5 -10 -20
-22 -32 -15 -14 -23 -34 -23 -54 0 -17 -9 -47 -21 -65 -16 -26 -18 -38 -10
-53 22 -40 43 -53 76 -47 23 5 37 1 53 -14 12 -12 22 -16 22 -10 0 13 37 13
45 0 3 -6 -1 -10 -10 -10 -12 0 -15 -6 -10 -20 4 -11 0 -29 -9 -42 -9 -12 -16
-31 -16 -41 0 -9 -7 -20 -15 -23 -8 -4 -15 -12 -15 -19 0 -7 -6 -15 -14 -18
-8 -3 -12 -15 -9 -31 l5 -25 -153 -3 -153 -3 -9 -44 c-5 -24 -16 -51 -25 -60
-8 -9 -31 -49 -49 -88 -19 -40 -37 -73 -41 -73 -4 0 -23 -30 -42 -67 -19 -38
-39 -71 -43 -74 -5 -3 -7 -19 -5 -35 2 -22 12 -33 38 -46 26 -13 37 -26 41
-50 6 -31 6 -31 8 -6 l1 28 2728 -5 c1500 -3 2746 -8 2770 -11 23 -3 45 -10
48 -15 3 -5 15 -2 27 5 17 11 64 14 222 12 110 -1 215 -6 233 -10 21 -6 37 -4
47 4 20 17 1055 16 1066 -1 4 -7 20 -9 40 -6 94 17 173 26 178 22 2 -3 -4 -11
-13 -18 -17 -13 -17 -14 -1 -30 19 -20 43 -22 42 -5 -1 36 4 59 12 54 8 -5
516 -8 616 -4 17 1 40 -2 52 -6 19 -6 23 -3 29 21 11 53 13 48 10 -29 -2 -45
1 -81 7 -87 17 -17 153 -13 187 4 27 14 30 14 30 0 0 -14 126 -15 1191 -14
655 0 1193 -2 1195 -4 3 -2 -3 -29 -13 -58 l-18 -54 -105 -7 c-58 -4 -112 -7
-120 -8 -8 -1 -130 1 -270 4 -140 3 -316 4 -390 3 -74 -1 -358 0 -630 2 -272
1 -502 2 -510 2 -8 -1 -155 -1 -326 0 -348 1 -356 0 -368 -65 -4 -18 -15 -41
-26 -51 -11 -10 -20 -27 -20 -37 0 -10 -7 -30 -16 -43 -9 -14 -14 -31 -11 -38
3 -7 -3 -19 -14 -25 -31 -20 -12 -41 44 -49 48 -6 49 -8 22 -14 -21 -5 -11 -7
35 -7 46 0 56 2 35 7 -43 10 536 23 1038 23 359 0 427 2 427 14 0 9 11 14 30
14 19 0 30 -5 30 -14 0 -15 57 -30 81 -22 8 3 206 7 442 10 451 5 429 7 430
-36 0 -7 -7 -30 -17 -51 -17 -39 -28 -43 -124 -37 -23 1 -38 -4 -47 -17 -12
-15 -14 -16 -20 -3 -5 14 -74 16 -603 15 -328 0 -601 -3 -607 -6 -5 -4 -37 -3
-70 2 -33 4 -258 8 -500 7 -653 -1 -675 0 -675 15 0 8 9 24 20 37 41 48 32 50
-220 50 -136 0 -218 4 -234 11 -19 9 -29 9 -39 1 -10 -9 -22 -8 -46 1 -24 9
-34 9 -39 0 -6 -10 -204 -21 -237 -13 -5 1 -12 2 -15 1 -3 -1 -38 -3 -77 -4
-52 -2 -74 1 -77 10 -6 15 -42 17 -51 3 -3 -5 -31 -10 -62 -10 -45 0 -54 3
-49 15 3 8 1 15 -4 15 -6 0 -10 -7 -10 -15 0 -16 -33 -19 -215 -17 -55 1 -275
2 -489 2 -265 1 -394 4 -403 12 -9 7 -17 7 -25 0 -9 -7 -178 -9 -508 -7 -715
5 -1237 7 -1710 6 -228 0 -464 1 -525 3 -60 2 -236 0 -390 -5 -154 -5 -375
-11 -490 -13 -116 -3 -222 -7 -235 -10 -14 -3 -132 -13 -262 -21 -131 -8 -247
-19 -257 -25 -27 -14 -64 -13 -86 4 -16 12 -26 11 -64 -2 -26 -8 -54 -19 -63
-23 -10 -5 -63 -12 -118 -15 -65 -5 -104 -12 -111 -20 -9 -11 -36 -13 -126 -7
-108 6 -115 5 -134 -15 -18 -20 -36 -26 -65 -23 -6 1 -17 -6 -24 -14 -9 -11
-32 -15 -81 -15 -55 0 -69 -3 -69 -15 0 -10 -10 -15 -33 -15 -18 0 -42 -7 -53
-15 -10 -8 -41 -15 -67 -15 -27 0 -46 -4 -42 -9 3 -5 -21 -13 -52 -17 -32 -4
-67 -13 -78 -20 -11 -7 -32 -12 -47 -10 -16 2 -28 -1 -28 -5 0 -5 6 -9 13 -10
28 -1 -36 -18 -78 -20 -25 -2 -45 -5 -45 -8 0 -9 -52 -31 -72 -31 -10 0 -24
-15 -34 -35 l-16 -35 -138 0 -139 0 -21 -27 c-12 -15 -24 -40 -27 -55 -4 -19
-12 -28 -24 -28 -11 0 -19 -4 -19 -10 0 -7 1958 -10 5853 -10 l5854 0 25 53
c14 28 32 69 41 89 9 21 23 38 32 38 8 0 15 5 15 10 0 6 -5 10 -10 10 -6 0 -2
10 9 21 11 12 28 42 38 65 10 24 21 44 26 44 4 0 7 8 7 18 0 15 43 88 60 102
3 3 14 26 24 52 9 26 28 63 42 83 13 20 24 46 24 59 0 12 11 33 25 46 14 13
25 27 25 31 0 5 9 33 20 63 15 40 27 56 42 58 12 2 24 10 28 18 39 84 56 116
63 119 5 2 12 14 17 27 6 13 21 29 35 34 23 9 25 15 25 69 0 47 4 64 19 78 11
10 24 31 30 46 6 15 17 27 24 27 19 0 37 44 37 90 0 29 6 43 25 58 18 14 27
34 31 66 6 39 10 46 25 41 13 -4 19 -1 19 9 0 9 3 15 8 15 23 -4 32 4 32 26 0
17 -6 25 -17 25 -15 0 -15 1 0 18 50 53 57 64 57 85 0 30 11 44 35 49 23 4 36
18 28 31 -3 5 -9 3 -14 -4 -7 -11 -9 -9 -9 6 0 34 16 51 33 36 13 -10 15 -6
15 31 -1 40 32 122 55 139 14 11 -41 39 -75 38 -28 0 -30 -2 -13 -9 13 -5 -29
-9 -113 -9 -86 -1 -131 3 -127 9 4 6 -25 10 -79 10 -51 0 -86 -4 -86 -10 0 -5
-22 -10 -50 -10 -27 0 -50 4 -50 9 0 6 -17 11 -37 13 -33 3 -38 6 -38 28 0 37
-31 38 -38 1 -6 -26 -11 -30 -52 -36 -24 -4 -61 -4 -82 0 -53 10 -145 8 -176
-4 -15 -6 -108 -10 -214 -10 -104 1 -218 1 -255 0 -59 -1 -68 1 -68 16 -1 16
-2 16 -13 2 -10 -14 -40 -15 -232 -12 -121 2 -240 3 -265 3 -25 -1 -187 -3
-360 -4 -173 -2 -326 -4 -340 -5 -14 -1 -103 -2 -199 -2 -126 0 -177 4 -189
13 -12 10 -16 10 -19 1 -3 -9 -29 -13 -86 -12 -45 0 -76 3 -69 6 20 8 13 25
-8 18 -11 -3 -20 -3 -20 2 0 5 9 15 20 23 11 8 20 20 20 27 0 18 56 41 130 53
89 14 140 13 140 -2 0 -10 3 -9 9 1 7 11 9 11 14 0 4 -10 6 -10 6 -1 1 16 201
18 201 1 0 -8 5 -8 15 1 17 14 270 14 475 1 99 -7 117 -5 128 8 11 13 14 14
21 2 5 -7 13 -11 18 -8 5 3 41 7 81 8 56 3 75 0 83 -11 6 -11 11 -12 17 -3 8
13 122 20 141 9 6 -4 18 -3 25 3 7 6 15 8 19 5 3 -3 57 -8 121 -11 85 -3 134
-1 185 11 67 15 131 13 131 -5 0 -5 9 -9 20 -9 11 0 20 4 20 9 0 16 72 21 93
6 12 -8 28 -11 41 -6 11 4 36 6 54 4 31 -4 109 -6 162 -5 246 5 310 3 310 -8
0 -26 44 17 47 46 3 16 10 36 17 44 11 12 20 32 32 70 10 35 28 70 35 70 5 0
9 9 9 20 0 10 8 24 18 29 32 19 -5 28 -109 26 -84 -2 -98 0 -88 11 9 11 8 14
-4 14 -8 0 -17 -5 -19 -10 -2 -7 -341 -12 -978 -15 -786 -5 -979 -8 -995 -19
-16 -11 -23 -11 -32 -1 -17 18 -155 28 -278 20 -80 -6 -109 -4 -121 6 -13 11
-20 8 -44 -17 -15 -17 -31 -45 -35 -63 -5 -22 -11 -31 -21 -27 -10 4 -14 -3
-14 -23 0 -16 -6 -31 -12 -33 -7 -3 -408 -3 -891 -2 -631 3 -883 7 -898 15
-16 8 -23 8 -29 -1 -5 -8 -306 -10 -1206 -8 -659 1 -1290 1 -1401 -1 -136 -2
-203 0 -203 7 0 6 5 14 10 17 6 3 10 19 10 34 0 16 9 40 20 53 10 14 28 49 40
79 11 30 30 70 43 90 12 20 31 50 42 67 11 18 26 32 33 32 8 0 12 16 12 49 0
30 5 51 13 54 9 3 12 -8 10 -42 -1 -25 1 -36 3 -23 3 12 11 22 18 22 16 0 9
51 -8 62 -8 6 -7 8 1 8 7 0 23 11 37 25 l25 25 221 0 c194 0 220 -2 220 -16 0
-9 6 -14 13 -11 6 2 11 13 10 23 -1 18 -1 18 11 2 8 -10 16 -14 22 -8 5 5 104
10 221 12 206 3 212 2 216 -17 4 -20 4 -20 11 0 7 19 15 20 229 18 144 -1 223
-6 225 -12 5 -14 42 -14 42 -1 0 15 187 13 193 -2 4 -10 7 -10 14 -1 7 9 78
12 290 10 155 -2 285 -6 289 -10 11 -11 44 -8 44 3 0 14 28 12 32 -2 3 -9 11
-9 34 1 17 6 57 11 90 9 32 -2 70 1 83 6 20 7 23 6 18 -8 -7 -18 17 -23 28 -6
3 5 43 10 87 10 61 0 86 -4 100 -16 15 -14 20 -15 34 -3 20 16 135 19 146 4 4
-5 10 -2 13 7 6 15 10 15 40 2 22 -9 36 -10 40 -4 11 17 25 11 25 -10 0 -19 2
-20 29 -5 20 10 62 15 130 16 86 1 101 4 101 18 0 13 2 13 9 2 5 -8 16 -11 30
-6 18 5 24 2 28 -15 4 -15 10 -19 22 -14 71 30 86 33 98 17 6 -8 17 -12 23 -8
6 4 84 6 172 6 109 0 164 3 169 11 5 7 17 4 38 -11 26 -19 33 -20 51 -9 11 7
20 15 20 19 0 3 27 2 61 -3 64 -8 548 -17 617 -10 27 3 39 8 36 16 -3 7 0 25
6 41 l11 28 89 -7 c50 -4 90 -3 90 1 0 13 74 9 83 -4 9 -15 61 -17 86 -4 9 5
111 11 226 14 160 3 214 1 234 -9 15 -8 28 -9 31 -4 3 5 116 9 260 9 140 1
338 1 440 2 163 2 258 1 569 -2 40 0 89 2 110 5 26 5 32 4 21 -3 -10 -8 35
-10 150 -9 133 1 150 3 85 8 l-80 6 88 2 c74 2 90 -1 106 -17 11 -11 29 -25
40 -31 18 -9 22 -7 30 14 6 13 15 28 22 32 18 11 545 5 575 -6 14 -6 47 -10
73 -10 42 0 49 3 54 23 19 79 58 140 83 130 8 -3 14 0 14 7 0 6 -4 8 -10 5
-13 -8 -13 25 0 45 9 13 10 13 10 0 1 -22 40 28 40 51 0 10 5 19 10 19 6 0 10
4 10 10 0 15 32 50 41 44 4 -2 6 5 4 16 -2 12 0 31 5 43 12 31 18 51 16 58 0
4 6 15 15 25 9 11 21 34 27 52 6 18 19 45 30 60 10 15 27 44 37 65 11 20 23
37 26 37 10 0 59 97 59 115 0 9 5 13 10 10 6 -3 10 -15 10 -26 0 -11 5 -17 10
-14 13 8 13 42 0 47 -13 4 13 78 34 93 9 7 16 17 16 22 0 6 16 41 35 78 19 37
32 72 29 76 -3 5 -2 14 2 20 4 8 9 7 14 -2 5 -8 16 13 30 58 12 39 41 101 66
139 24 37 42 70 39 72 -3 3 3 15 14 26 26 28 71 115 71 136 0 10 7 23 15 30 8
7 15 19 15 27 0 8 5 11 10 8 6 -3 10 0 10 8 0 18 37 94 50 102 5 3 10 14 10
23 1 29 34 89 48 85 7 -3 12 5 12 21 0 13 5 28 10 31 6 4 8 11 4 16 -3 5 6 23
19 39 14 16 31 46 38 67 12 39 23 60 67 125 13 20 21 42 17 47 -3 6 1 11 9 11
9 0 16 5 16 11 0 5 -4 8 -9 4 -5 -3 -12 -1 -15 4 -4 5 6 11 21 13 21 2 29 10
35 35 5 18 20 40 33 49 14 9 25 25 25 36 0 10 5 16 10 13 6 -3 10 1 10 9 0 9
-4 16 -9 16 -5 0 -5 16 1 38 20 71 18 69 34 48 12 -17 14 92 14 837 l0 857
-172 -1 c-96 0 -176 5 -181 10 -6 6 -17 6 -28 0 -11 -5 -28 -14 -39 -19 -24
-13 -38 -6 -50 24 -8 19 -9 18 -10 -9z m-2120 -296 c0 -9 28 -10 99 -6 55 3
102 3 105 0 3 -3 94 -5 202 -4 175 2 196 0 191 -13 -8 -19 10 -21 50 -4 18 7
120 12 292 14 145 1 284 5 307 9 26 4 52 2 65 -5 16 -9 23 -9 29 0 8 13 52 10
170 -10 48 -8 71 -8 86 1 14 7 39 9 65 4 24 -3 73 -8 109 -9 36 -2 92 -6 126
-10 58 -7 60 -7 72 19 10 21 16 25 30 18 9 -4 130 -9 267 -10 138 -1 268 -2
289 -2 38 -1 39 -2 22 -20 -13 -14 -16 -28 -11 -49 6 -28 4 -31 -27 -37 -48
-11 -411 -23 -423 -14 -6 4 -24 5 -40 3 -59 -10 -768 -12 -754 -2 9 6 -15 7
-71 3 -46 -3 -87 -11 -91 -16 -4 -8 -15 -6 -31 5 -14 9 -27 14 -30 11 -9 -9
-1191 -6 -1200 3 -5 5 1 17 12 27 11 10 20 26 20 37 0 10 5 18 10 18 6 0 10 9
10 20 0 13 5 18 15 14 8 -4 15 -1 15 5 0 6 5 11 10 11 6 0 10 -5 10 -11z
m2004 -295 c10 -27 7 -44 -9 -44 -8 0 -15 -5 -15 -11 0 -6 9 -8 20 -4 12 4 20
2 20 -5 0 -15 326 -5 345 10 16 13 35 5 35 -13 0 -7 -9 -29 -20 -50 -11 -20
-20 -43 -20 -51 0 -8 -5 -16 -11 -18 -23 -8 -365 2 -384 11 -11 5 -29 13 -40
17 -16 6 -17 8 -4 11 11 3 14 12 11 34 -4 25 2 37 32 65 40 38 43 44 21 44 -8
0 -15 5 -15 10 0 16 27 11 34 -6z m-152 -72 c42 4 52 -14 18 -32 -24 -13 -25
-33 -3 -67 17 -25 17 -26 -5 -18 -13 4 -29 2 -37 -5 -9 -8 -15 -8 -20 0 -3 6
-11 8 -16 4 -20 -12 -59 6 -65 31 -3 14 -10 25 -15 25 -12 0 -12 -17 0 -25 6
-3 9 -23 8 -45 -1 -36 -3 -38 -16 -25 -9 9 -15 32 -15 55 1 22 -2 37 -7 34 -5
-3 -9 -14 -9 -25 0 -10 -7 -19 -15 -19 -8 0 -15 -7 -15 -15 0 -18 -41 -20 -57
-4 -6 6 -82 12 -194 15 -103 3 -185 9 -187 14 -2 6 -12 4 -23 -4 -13 -9 -41
-12 -92 -8 -58 3 -75 1 -86 -12 -11 -13 -15 -13 -27 -1 -11 10 -58 14 -216 16
-112 1 -214 1 -228 0 -14 0 -161 -1 -327 -2 -175 0 -305 -4 -308 -10 -8 -12
-52 -12 -60 1 -4 6 -12 10 -18 9 -7 -1 -29 -1 -49 0 l-38 1 0 55 0 55 34 0
c19 0 37 6 39 13 4 9 8 9 15 -2 8 -11 32 -13 123 -7 87 5 1623 11 1674 7 6 -1
3 -6 -5 -11 -27 -17 20 -12 74 8 43 17 52 18 90 5 22 -8 58 -13 78 -11z
m-1423 -406 c13 -10 38 -12 116 -6 55 4 108 10 118 15 12 5 17 3 17 -9 0 -16
21 -22 34 -9 4 4 23 6 43 4 20 -1 39 2 43 9 5 8 13 9 26 2 14 -7 1004 -16
1282 -12 6 0 11 -5 10 -11 -2 -6 3 -14 10 -16 6 -3 12 2 12 11 0 9 8 16 20 16
12 0 20 -7 20 -16 0 -20 -30 -75 -50 -91 -11 -9 -137 -12 -490 -13 -495 -2
-1124 -6 -1150 -9 -22 -2 -713 8 -727 10 -7 1 -13 6 -13 10 0 5 -7 6 -15 3 -8
-4 -13 -9 -11 -13 2 -3 -58 -5 -135 -3 -127 3 -140 1 -146 -15 -4 -10 -9 -20
-12 -23 -3 -3 -15 -23 -26 -44 -11 -22 -26 -45 -33 -53 -7 -7 -17 -26 -22 -43
-7 -25 -5 -32 11 -40 31 -17 1604 -11 1626 6 10 7 30 10 44 7 15 -3 30 0 34 6
5 9 10 9 20 1 22 -18 53 -20 59 -3 5 12 9 11 24 -7 l17 -21 413 3 c226 2 412
0 412 -3 0 -4 -10 -13 -23 -22 -15 -9 -23 -26 -25 -48 -1 -18 -8 -36 -14 -40
-7 -4 -97 -7 -200 -7 -117 0 -194 -4 -201 -11 -12 -9 -42 -7 -77 7 -25 9 -113
10 -146 0 -19 -5 -41 -5 -58 1 -14 6 -36 7 -48 2 -13 -4 -53 -5 -90 -2 -54 5
-68 4 -68 -7 0 -12 -5 -11 -24 2 -25 16 -47 16 -286 4 -14 -1 -65 -1 -115 0
-49 0 -121 1 -160 1 -38 1 -108 1 -155 2 -63 0 -87 -3 -94 -14 -7 -12 -13 -12
-35 -1 -33 16 -70 17 -538 15 -210 -1 -388 0 -395 1 -8 2 -14 -10 -16 -32 -2
-19 -9 -39 -16 -45 -7 -5 -16 -22 -20 -37 -5 -21 -13 -28 -31 -28 -13 0 -27 5
-30 10 -4 6 -11 7 -17 4 -16 -10 -801 -4 -813 6 -7 6 -15 7 -18 3 -4 -3 -19
-7 -35 -8 -32 -3 -287 -5 -322 -3 -14 1 -61 0 -105 -1 -44 -1 -82 -2 -85 -1
-20 5 -320 1 -329 -5 -7 -4 -18 -1 -26 5 -10 8 -26 10 -48 5 -51 -12 -161 -14
-174 -3 -7 6 -21 7 -30 3 -21 -8 -314 -7 -322 1 -14 13 32 24 106 24 45 0 94
5 110 11 23 8 30 7 41 -8 10 -15 14 -15 21 -4 6 9 18 11 35 7 15 -4 26 -2 26
4 0 5 9 10 19 10 11 0 18 -6 17 -16 0 -9 4 -19 10 -21 6 -2 11 2 12 9 3 36 17
76 33 99 20 28 15 46 -8 28 -10 -9 -13 -8 -13 4 0 10 -10 14 -32 14 -219 0
-289 4 -286 16 3 6 17 13 32 15 15 2 29 10 32 18 16 52 15 50 26 29 6 -11 12
-22 14 -24 3 -3 19 9 54 40 13 13 21 14 29 6 7 -7 48 -12 104 -12 82 0 92 -2
89 -17 -2 -14 4 -18 31 -18 40 0 97 18 97 31 0 5 -15 9 -32 10 -30 0 -31 1
-10 9 12 5 25 18 29 27 3 10 13 26 20 35 8 9 12 21 9 27 -3 5 0 12 6 15 10 3
8 9 -5 19 -24 20 -170 30 -233 17 -35 -8 -59 -8 -78 -1 -18 8 -41 8 -73 1 -25
-6 -79 -10 -118 -8 -59 1 -77 -2 -100 -18 l-28 -21 -23 24 c-19 19 -34 23 -86
24 -35 1 -83 3 -108 4 -39 2 -91 -15 -110 -36 -3 -3 -21 -17 -40 -32 -30 -22
-44 -26 -88 -22 -40 3 -52 0 -52 -11 0 -8 -4 -14 -10 -14 -5 0 -10 7 -10 15 0
8 -4 15 -10 15 -17 0 -11 -25 10 -40 28 -20 25 -30 -10 -30 -16 0 -30 -4 -30
-10 0 -5 -9 -10 -20 -10 -28 0 -25 16 6 37 24 15 26 21 22 70 -3 30 -9 57 -14
61 -5 5 -35 6 -66 4 -57 -4 -58 -4 -52 -30 6 -26 6 -26 -9 -7 -15 19 -16 19
-35 2 -18 -16 -20 -16 -26 -2 -3 9 -6 29 -6 45 0 41 -10 60 -31 60 -29 0 -68
-21 -74 -40 -7 -22 -31 -29 -88 -25 -43 2 -44 2 -58 -38 -8 -23 -23 -46 -34
-52 -14 -7 -19 -18 -17 -37 2 -21 -1 -28 -13 -28 -9 0 -13 -4 -10 -10 3 -5 -1
-10 -9 -10 -10 0 -16 -9 -16 -21 0 -20 -46 -108 -62 -119 -4 -3 -11 -24 -16
-45 -7 -38 -9 -40 -51 -43 -62 -5 -75 2 -60 30 7 13 13 31 14 40 1 10 9 26 17
35 9 10 19 28 22 41 4 12 11 22 16 22 18 0 50 79 50 122 0 70 -9 88 -41 88
-15 0 -31 5 -34 10 -3 6 -33 10 -65 10 -32 0 -61 4 -65 9 -3 6 3 10 12 10 10
0 36 4 58 9 31 7 19 8 -54 6 -52 -2 -97 -7 -100 -12 -3 -5 -70 -12 -148 -14
-117 -4 -143 -3 -143 8 0 8 -5 14 -11 14 -6 0 -9 -7 -5 -15 3 -9 0 -15 -10
-15 -8 0 -19 10 -24 23 -8 20 -9 21 -10 2 -1 -18 -2 -18 -11 3 -9 25 -29 21
-29 -5 0 -10 -6 -14 -20 -10 -11 3 -18 1 -14 -4 3 -5 -19 -9 -48 -9 -56 0 -92
14 -72 28 6 4 14 18 17 32 7 25 67 101 67 84 0 -8 65 -11 125 -5 17 1 18 3 5
11 -10 7 10 9 65 9 60 -1 72 -3 50 -9 -17 -5 42 -6 130 -4 88 3 295 6 460 8
165 2 308 7 318 11 12 5 17 2 17 -9 0 -16 17 -16 243 1 39 3 73 0 80 -5 12
-10 217 -15 512 -13 101 1 155 5 146 10 -10 6 28 9 102 9 64 -1 114 -5 111
-10 -3 -4 2 -8 10 -8 9 0 16 4 16 8 0 8 589 6 598 -2 2 -3 25 -3 51 0 25 3
199 7 386 8 187 2 345 4 350 4 6 1 169 -1 363 -3 214 -2 352 0 352 6 0 5 9 9
20 9 11 0 20 -4 20 -10 0 -5 4 -10 10 -10 5 0 9 3 9 8 -3 20 2 32 16 32 8 0
14 -3 14 -7 -4 -24 4 -32 30 -31 15 1 33 -2 39 -6 13 -8 26 29 16 45 -4 8 -1
8 12 1 26 -13 807 -7 831 7 24 14 34 13 52 -3z m-3647 -286 c-3 -42 -6 -47
-88 -136 -17 -18 -27 -37 -23 -41 4 -4 -6 -36 -23 -70 -28 -55 -34 -62 -55
-57 -13 4 -23 2 -23 -4 0 -17 -38 -21 -44 -5 -5 12 -9 13 -20 4 -11 -9 -19 -9
-36 1 -17 11 -22 11 -30 -2 -7 -12 -12 -9 -22 15 -8 19 -20 30 -33 30 -13 0
-20 7 -20 19 0 10 9 24 20 30 11 6 24 17 28 24 4 6 17 12 29 12 16 0 18 3 9
14 -15 18 7 37 36 30 13 -4 22 0 26 10 4 9 15 16 26 16 10 0 26 11 35 25 9 14
20 24 24 23 4 0 15 2 25 7 26 11 34 -3 11 -19 -10 -8 -15 -18 -11 -22 4 -5 19
4 32 18 24 26 24 27 5 33 -11 4 -20 10 -20 14 0 9 45 31 64 31 7 0 23 11 36
25 32 34 46 26 42 -25z m-765 -11 c12 -12 -67 -197 -102 -237 -11 -13 -22 -33
-25 -45 -4 -15 -17 -24 -43 -30 -40 -10 -72 -3 -62 13 3 5 0 10 -7 11 -7 0 -3
4 9 9 13 5 24 21 28 42 10 46 50 129 83 171 15 19 32 43 39 53 10 17 11 16 6
-6 -3 -14 -2 -22 2 -17 5 4 17 -1 28 -10 11 -10 17 -12 13 -5 -9 15 0 62 12
62 4 0 13 -5 19 -11z m-619 -68 c2 -12 -6 -40 -16 -64 -11 -23 -23 -50 -26
-59 -5 -16 -19 -18 -101 -18 -78 0 -95 3 -95 15 0 17 -45 21 -55 5 -3 -5 -26
-10 -49 -10 -41 0 -43 1 -38 26 2 14 11 28 18 31 8 3 14 9 14 13 0 5 5 21 11
37 6 15 10 30 9 33 -4 11 41 15 177 13 141 -1 148 -2 151 -22z m-688 -33 c0 6
12 12 26 12 23 0 26 -3 21 -26 -4 -23 -2 -25 27 -22 26 2 32 -1 34 -20 2 -13
-7 -35 -22 -53 -14 -17 -29 -41 -32 -55 -3 -13 -11 -24 -18 -24 -6 -1 -33 -3
-61 -6 -27 -2 -65 -2 -83 1 -30 6 -33 9 -28 31 4 13 18 49 33 80 25 53 26 54
49 39 27 -18 40 -5 36 35 -2 20 -1 22 7 10 7 -10 11 -11 11 -2z m6270 -338
c-8 -5 -18 -6 -22 -4 -4 3 -8 0 -8 -5 0 -6 -1 -14 -2 -18 -2 -3 7 -7 20 -8 12
-1 22 4 22 12 0 16 -1 16 38 2 23 -8 36 -7 53 2 19 9 24 9 34 -5 16 -21 45
-21 45 1 0 15 2 14 15 -4 13 -18 20 -20 44 -13 16 4 31 6 34 4 2 -2 55 -4 118
-4 63 1 147 1 188 1 40 -1 78 2 84 6 5 3 50 7 98 8 69 2 86 0 82 -10 -2 -8 0
-22 6 -33 7 -13 7 -22 0 -29 -6 -6 -11 -17 -13 -24 -1 -8 -7 -24 -14 -35 -6
-12 -8 -24 -5 -28 4 -3 -3 -15 -15 -26 -13 -13 -22 -33 -22 -50 0 -23 -5 -30
-20 -30 -14 0 -20 -7 -20 -23 0 -12 -9 -28 -20 -35 -12 -7 -20 -23 -20 -41 0
-16 -6 -31 -15 -35 -11 -4 -15 2 -15 24 0 29 3 38 28 87 7 13 12 31 12 42 0
10 7 21 15 25 8 3 15 12 15 21 0 8 8 15 17 15 14 0 11 6 -12 30 -28 28 -33 29
-68 19 -29 -8 -52 -7 -88 2 -40 11 -54 11 -70 0 -27 -16 -86 -23 -94 -11 -10
15 -82 12 -99 -5 -18 -19 -26 -19 -26 0 0 12 -47 15 -342 15 -630 0 -728 -1
-742 -6 -8 -3 -23 -1 -33 4 -11 7 -24 7 -35 1 -10 -6 -22 -7 -27 -4 -5 3 -234
6 -509 8 -275 1 -503 5 -507 9 -8 8 35 88 47 88 5 0 6 5 3 10 -5 9 468 19 608
13 20 -1 37 3 37 9 0 7 4 7 13 0 15 -13 825 -14 833 -1 2 5 20 -1 39 -11 19
-11 35 -16 35 -11 0 5 -6 11 -12 14 -10 4 -10 7 0 18 9 10 12 10 12 0 0 -9 12
-10 48 -5 26 3 51 10 57 15 15 15 22 10 29 -17 5 -18 12 -24 22 -20 9 3 28 6
43 6 22 0 27 4 27 22 -1 17 6 24 29 28 35 7 46 3 25 -10z m535 -388 c55 3 65
2 63 -12 -1 -8 1 -20 5 -27 5 -7 -3 -14 -23 -18 -16 -4 -30 -12 -30 -18 0 -7
-4 -6 -10 3 -7 12 -12 12 -22 2 -10 -10 -10 -15 2 -22 28 -19 -11 -30 -105
-30 -49 0 -501 -2 -1002 -5 -601 -3 -913 -1 -913 5 0 13 -87 13 -95 -1 -4 -6
-13 -8 -21 -5 -8 3 -118 6 -244 6 -127 1 -230 4 -230 7 0 2 9 16 20 30 11 14
20 39 20 54 l0 29 398 2 c218 0 404 0 412 -1 14 -2 652 0 1117 3 101 0 183 -3
183 -7 0 -5 5 -5 11 -1 6 4 84 6 173 6 88 -1 170 3 181 7 12 5 25 4 32 -1 7
-6 42 -8 78 -6z m105 -109 c0 -14 -16 -48 -35 -77 -19 -29 -35 -58 -35 -65 0
-6 -4 -11 -9 -11 -5 0 -16 -12 -24 -27 -8 -16 -28 -54 -46 -87 -17 -32 -31
-66 -31 -75 0 -9 -7 -26 -15 -37 -8 -10 -15 -27 -15 -36 0 -10 -7 -18 -15 -18
-8 0 -14 -6 -12 -12 2 -14 -40 -12 -58 2 -5 4 -232 7 -502 7 -438 -1 -493 -3
-493 -16 0 -14 -1 -14 -10 -1 -8 13 -108 15 -762 17 -414 2 -781 3 -815 3 -74
0 -78 9 -35 78 l27 43 1330 1 1330 1 27 41 c14 23 41 73 59 111 17 39 36 73
41 76 5 3 9 8 7 10 -8 13 16 48 34 51 14 2 23 11 23 23 1 11 2 26 3 34 2 25
31 -9 31 -36z m-975 -1424 c82 2 93 0 97 -16 7 -26 -9 -63 -26 -63 -9 0 -13
-6 -10 -14 3 -8 -3 -19 -14 -25 -14 -8 -407 -11 -1287 -11 -1052 0 -1270 2
-1292 13 -16 9 -22 17 -14 21 6 4 11 17 11 28 0 12 3 18 7 15 3 -4 15 0 25 10
15 13 47 17 170 20 84 3 160 7 168 10 8 3 104 7 213 8 184 2 199 1 211 -17 11
-15 15 -16 19 -5 5 13 87 15 544 17 797 4 1053 7 1060 13 3 4 10 4 16 0 5 -3
51 -5 102 -4z m-923 -1534 c117 0 196 -4 200 -10 5 -6 8 -5 8 3 0 6 7 12 15
12 8 0 15 -7 15 -15 0 -9 -7 -18 -15 -21 -8 -4 -15 -12 -15 -20 0 -7 -9 -18
-20 -24 -11 -6 -20 -17 -20 -24 0 -8 -8 -17 -17 -21 -10 -3 -128 -6 -263 -5
-743 4 -815 3 -857 -10 -37 -11 -45 -11 -68 4 -14 9 -30 14 -36 10 -6 -3 -70
-5 -142 -4 -382 6 -784 5 -799 -2 -9 -5 -19 -5 -21 -1 -3 5 -99 8 -215 7 -208
-1 -209 -1 -204 20 3 12 12 26 20 32 8 6 15 23 16 38 l1 28 1103 -2 c1052 -1
1102 0 1102 17 0 15 2 16 10 3 8 -12 42 -15 202 -15z m-244 -435 c5 -13 82
-13 82 0 0 6 34 10 81 10 70 0 80 -2 69 -15 -6 -8 -9 -19 -5 -25 3 -5 2 -10
-4 -10 -5 0 -12 -13 -16 -30 -5 -21 -12 -30 -27 -30 -18 0 -19 -2 -7 -17 12
-15 12 -16 -4 -10 -9 4 -117 6 -240 6 -122 -1 -276 -1 -342 0 -66 0 -250 0
-410 0 -159 0 -348 0 -420 0 -71 0 -256 -1 -410 -2 -506 -3 -579 -3 -667 1
-104 5 -127 17 -107 53 8 13 20 28 27 32 6 4 12 16 12 27 0 12 8 20 23 22 12
2 548 2 1192 1 798 -2 1171 -6 1173 -13z m-1198 -1101 c0 -7 68 -10 219 -8
121 2 223 0 228 -4 4 -5 95 -5 203 -2 135 4 188 2 172 -5 -13 -5 -20 -14 -17
-20 3 -5 1 -10 -4 -10 -6 0 -11 -13 -11 -30 0 -16 -5 -30 -11 -30 -5 0 -8 -4
-4 -9 3 -5 -3 -11 -12 -14 -10 -2 -186 -4 -390 -3 -366 1 -373 1 -374 -19 -1
-16 -2 -17 -6 -3 -2 9 -16 19 -31 22 -15 3 -425 5 -912 5 -751 -2 -884 0 -882
12 2 8 5 32 6 54 l2 40 60 6 c44 5 902 11 1449 11 11 0 79 -2 152 -4 103 -4
133 -2 137 9 6 16 26 18 26 2z m-7482 -13 c3 -3 49 -6 103 -6 81 0 98 -3 103
-17 4 -9 1 -20 -6 -24 -10 -6 -10 -13 -2 -26 9 -14 8 -21 -5 -30 -14 -11 -13
-12 7 -13 12 0 22 -5 22 -11 0 -6 -7 -8 -16 -5 -9 3 -281 6 -605 6 l-589 0 0
25 c0 16 -6 25 -15 25 -9 0 -15 -9 -15 -25 0 -14 -4 -25 -10 -25 -16 0 -12 50
5 56 8 4 15 15 15 27 0 20 1 20 25 -3 l25 -23 0 30 c0 25 5 32 26 36 14 2 184
5 377 6 193 1 352 3 353 4 5 5 197 -2 202 -7z"/>
<path d="M8437 7048 c-19 -7 -34 -25 -52 -63 -13 -30 -33 -59 -45 -65 -11 -6
-20 -20 -20 -31 0 -11 -9 -29 -20 -41 -11 -12 -20 -29 -20 -37 0 -9 -11 -34
-25 -56 -49 -79 -85 -162 -79 -179 9 -23 56 -46 94 -46 21 0 30 -5 30 -16 0
-12 9 -15 47 -12 37 2 48 0 48 -12 0 -8 -6 -18 -15 -22 -10 -4 -6 -7 13 -7 20
-1 30 5 37 24 5 14 17 25 25 25 21 0 33 35 28 81 -5 42 10 79 32 79 8 0 15 5
15 11 0 18 43 99 52 99 4 0 8 9 8 19 0 11 6 21 12 23 7 3 13 13 13 24 0 12 6
18 16 16 17 -2 49 61 49 97 0 36 10 48 36 43 14 -2 24 0 24 7 0 6 -9 11 -20
11 -11 0 -20 5 -20 10 0 6 -44 10 -111 10 -71 0 -108 4 -104 10 8 12 -11 12
-48 -2z"/>
<path d="M5110 5831 c0 -9 -337 -17 -489 -12 -68 2 -116 -11 -125 -35 -3 -8
-17 -14 -30 -14 -28 0 -56 -33 -56 -66 0 -12 -8 -32 -19 -45 -10 -13 -22 -35
-26 -49 -4 -14 -15 -36 -25 -50 -9 -14 -20 -33 -23 -44 -4 -10 -13 -16 -20
-13 -9 3 -12 -3 -9 -22 4 -32 -24 -64 -38 -42 -4 8 -8 -27 -9 -78 l-2 -91 38
-36 38 -35 105 7 c58 4 159 8 225 9 156 2 186 14 210 91 9 29 14 58 10 64 -4
6 -63 10 -155 10 -82 0 -151 4 -154 9 -4 5 -7 21 -8 36 -2 23 -6 26 -30 21
-33 -6 -33 -5 -12 37 25 48 36 60 44 46 4 -6 8 8 9 32 1 24 2 56 3 72 l1 27
221 1 c122 1 232 4 246 8 15 4 26 15 28 29 4 23 7 25 35 14 16 -7 14 -11 -14
-40 -17 -17 -35 -32 -40 -32 -5 0 -5 -10 -1 -22 9 -26 5 -58 -8 -58 -4 0 -11
-11 -14 -25 -7 -27 -22 -33 -29 -12 -2 6 -3 0 -1 -15 2 -17 -5 -35 -21 -52
-14 -15 -27 -44 -31 -72 -4 -26 -10 -41 -14 -34 -9 15 -20 -11 -20 -47 0 -19
4 -24 16 -19 8 3 12 2 9 -4 -3 -6 -1 -10 4 -10 15 0 14 -27 -1 -32 -7 -3 -9
-11 -4 -24 8 -18 9 -18 19 4 11 25 19 27 49 11 13 -7 107 -10 274 -9 218 1
254 -1 254 -14 0 -8 -10 -17 -22 -19 -20 -4 -19 -4 5 -6 20 -1 30 5 36 23 10
25 30 36 65 36 16 0 27 10 39 35 9 19 21 35 26 35 5 0 12 11 15 25 4 14 11 25
16 25 6 0 12 0 15 0 15 0 41 38 37 54 -3 10 -1 21 4 25 14 9 34 59 34 81 0 11
4 20 9 20 5 0 12 12 15 26 4 15 17 34 28 44 19 15 22 28 22 89 1 62 -2 74 -22
91 -12 11 -36 20 -52 20 -21 0 -30 5 -30 16 0 13 -7 15 -37 10 -21 -4 -108 -7
-193 -7 -194 1 -370 -10 -320 -20 29 -5 31 -7 9 -8 -15 0 -29 -8 -33 -16 -8
-21 -26 -19 -26 4 0 10 -11 26 -25 35 -14 9 -25 12 -25 7z m335 -201 c26 -50
79 -64 134 -35 27 14 29 13 24 -5 -7 -26 -24 -31 -128 -37 -49 -3 -92 -8 -95
-10 -3 -3 -5 -30 -6 -61 0 -36 -4 -56 -11 -55 -6 1 -16 -4 -22 -11 -10 -11 -3
-15 38 -21 57 -8 91 0 91 21 0 14 -17 19 -55 16 -16 -2 -17 0 -5 8 20 13 107
13 115 -1 4 -5 4 -21 1 -35 l-6 -24 -190 0 c-115 0 -190 4 -190 10 0 10 40 50
51 50 3 0 9 19 12 42 3 24 11 44 16 46 6 2 11 10 11 18 0 8 4 14 9 14 5 0 12
18 16 40 6 38 25 57 25 25 0 -8 7 -15 15 -15 8 0 15 6 15 14 0 9 7 12 20 9 11
-3 22 0 25 8 3 8 21 15 40 16 30 1 38 -3 50 -27z"/>
<path d="M6789 3964 c-8 -3 -23 -18 -33 -34 -9 -17 -21 -30 -27 -30 -5 0 -9
-13 -9 -29 0 -16 -6 -31 -13 -34 -15 -6 -78 -128 -99 -192 -7 -22 -15 -42 -18
-45 -39 -37 -53 -117 -22 -126 9 -3 31 -11 47 -19 17 -7 64 -17 105 -22 80
-10 85 -8 96 37 9 40 43 110 53 110 5 0 14 13 19 29 7 19 25 37 49 50 21 11
32 20 26 21 -12 0 -11 17 3 88 3 15 11 22 22 20 10 -2 16 3 14 10 -1 7 5 27
15 45 13 25 18 28 21 15 2 -10 10 -18 18 -18 13 0 13 3 0 22 -21 29 -20 35 4
43 11 3 20 15 20 26 0 21 -16 26 -23 7 -3 -9 -9 -7 -20 7 -14 18 -28 20 -124
22 -59 1 -115 -1 -124 -3z"/>
<path d="M19188 1893 l-3 -1878 -1307 0 c-718 0 -1310 -3 -1314 -8 -4 -4 587
-7 1314 -7 l1322 0 0 1885 c0 1037 -2 1885 -5 1885 -3 0 -6 -845 -7 -1877z"/>
<path d="M14420 2780 c-32 -5 -35 -8 -36 -37 0 -18 -7 -40 -15 -50 -41 -50
-69 -101 -63 -117 6 -15 31 -17 258 -17 138 0 289 -3 334 -6 46 -3 117 -2 158
2 68 6 74 8 74 30 0 12 7 28 15 35 10 9 15 9 15 1 0 -6 -4 -11 -10 -11 -5 0
-10 -11 -10 -25 0 -15 5 -25 13 -24 20 4 77 -12 77 -22 0 -4 27 3 61 18 46 20
63 23 68 14 6 -9 185 -12 797 -13 434 0 803 2 821 6 32 7 46 26 37 49 -2 7 6
22 19 33 31 27 56 112 36 124 -7 5 -220 9 -474 9 -253 0 -838 2 -1300 3 -462
2 -856 1 -875 -2z"/>
<path d="M5129 895 c0 0 -2 -10 -5 -22 -2 -12 -17 -45 -34 -73 -16 -28 -30
-55 -30 -60 0 -6 -4 -10 -10 -10 -5 0 -16 -15 -24 -34 -8 -19 -30 -59 -50 -90
-20 -31 -36 -64 -36 -74 0 -9 -9 -34 -20 -55 -11 -20 -20 -41 -20 -46 0 -15
68 -53 87 -49 10 1 29 -5 43 -15 26 -18 146 -25 135 -8 -3 5 0 13 6 17 6 3 26
39 45 80 19 40 43 79 53 86 10 7 22 28 25 46 9 37 28 42 43 10 10 -22 11 -22
19 -4 5 13 3 21 -4 24 -16 5 -15 67 1 84 15 16 47 84 47 100 0 6 7 19 15 28
12 13 13 23 6 44 l-10 26 -141 -3 c-77 -1 -140 -2 -141 -2z"/>
<path d="M445 10 c-110 -3 268 -7 839 -8 572 -1 1037 0 1035 3 -7 7 -1637 11
-1874 5z"/>
</g>
</svg>
