<?xml version="1.0" standalone="no"?>
<!DOCTYPE svg PUBLIC "-//W3C//DTD SVG 20010904//EN"
 "http://www.w3.org/TR/2001/REC-SVG-20010904/DTD/svg10.dtd">
<svg version="1.0" xmlns="http://www.w3.org/2000/svg"
 width="1920.000000pt" height="1080.000000pt" viewBox="0 0 1920.000000 1080.000000"
 preserveAspectRatio="xMidYMid meet">
<metadata>
Created by potrace 1.16, written by Peter Selinger 2001-2019
</metadata>
<g transform="translate(0.000000,1080.000000) scale(0.100000,-0.100000)"
fill="#000000" stroke="none">
<path d="M0 5400 l0 -5400 9600 0 9600 0 0 5400 0 5400 -9600 0 -9600 0 0
-5400z m15990 5381 l3195 -1 -2 -5381 -2 -5382 -9273 2 c-5100 0 -9412 1
-9583 1 l-310 0 2 5312 c2 2922 3 5345 3 5383 l0 70 6388 -2 c3513 -1 7825 -2
9582 -2z"/>
<path d="M4565 5812 c-74 -25 -135 -85 -185 -183 -47 -90 -87 -167 -116 -218
-35 -63 -33 -119 6 -156 l30 -28 232 -4 c128 -2 243 -1 255 2 12 3 32 22 44
42 13 21 27 41 31 44 5 3 10 19 11 35 l2 29 -218 3 -217 2 23 38 c13 20 40 71
61 112 21 41 43 79 47 85 5 5 9 18 9 30 0 20 4 20 218 17 249 -3 246 -4 291
82 39 76 46 74 -246 74 -142 0 -267 -3 -278 -6z"/>
<path d="M5218 5794 c-70 -35 -100 -73 -174 -211 -37 -71 -78 -148 -92 -172
-43 -77 -27 -158 34 -181 14 -6 142 -10 285 -10 255 0 261 0 307 24 65 33 90
64 157 191 154 292 147 273 120 325 -27 53 -38 55 -326 56 -259 1 -267 0 -311
-22z m442 -132 c0 -9 -146 -268 -154 -274 -6 -4 -93 -8 -193 -8 l-181 0 25 48
c88 162 112 213 107 225 -4 12 29 14 195 13 111 0 201 -2 201 -4z"/>
<path d="M6072 5810 c-58 -6 -122 -47 -122 -80 0 -10 -3 -20 -7 -22 -5 -1 -23
-32 -41 -68 -19 -36 -60 -116 -93 -178 -63 -120 -67 -135 -45 -186 23 -54 44
-58 327 -54 l254 3 47 33 c56 39 77 67 138 186 40 77 68 130 129 243 5 10 20
40 32 66 20 41 21 50 9 58 -8 5 -24 7 -35 4 -11 -2 -39 -5 -62 -5 -57 0 -97
-37 -146 -132 -99 -191 -149 -284 -157 -292 -7 -7 -340 -16 -340 -9 0 1 16 30
35 65 20 35 55 101 79 148 24 47 57 111 75 144 18 32 30 63 28 69 -4 12 -31
14 -105 7z"/>
<path d="M6810 5812 c-8 -1 -34 -42 -58 -90 -24 -48 -70 -136 -103 -197 -172
-319 -172 -317 -71 -308 97 8 107 16 166 122 30 53 69 126 88 163 18 37 35 67
38 67 3 1 21 -38 40 -85 19 -47 38 -88 42 -90 4 -3 8 -13 8 -22 1 -9 15 -46
33 -82 l32 -65 89 -3 c99 -3 105 0 142 73 11 22 48 94 83 160 35 66 84 158
109 205 24 47 51 94 58 105 27 38 18 45 -60 45 -90 0 -127 -21 -165 -95 -14
-27 -28 -52 -31 -55 -3 -3 -13 -21 -22 -40 -10 -19 -35 -68 -56 -108 l-39 -73
-17 38 c-29 64 -34 75 -76 175 -22 53 -40 101 -40 105 0 4 -9 19 -19 32 -17
22 -27 25 -87 25 -38 1 -76 0 -84 -2z"/>
<path d="M7562 5783 c-6 -16 -22 -47 -36 -69 -35 -57 -23 -66 88 -62 48 2 86
2 86 1 0 -2 -36 -70 -80 -152 -44 -83 -80 -155 -80 -161 0 -6 -6 -8 -12 -4 -7
4 -10 4 -6 -1 4 -4 -4 -30 -19 -57 -23 -42 -25 -51 -12 -59 22 -13 102 -11
140 5 41 17 56 34 92 102 15 28 40 76 56 105 16 30 48 91 71 137 l42 82 93 0
c83 0 97 3 119 23 31 27 79 114 71 127 -4 6 -121 10 -305 10 l-298 0 -10 -27z"/>
<path d="M8249 5788 c-28 -15 -47 -41 -78 -102 -23 -44 -64 -121 -91 -171 -27
-49 -65 -122 -84 -161 -72 -142 -68 -144 279 -144 197 1 274 4 286 13 22 17
71 116 65 132 -3 10 -51 12 -220 9 l-216 -5 21 36 c12 19 24 36 27 36 4 1 88
4 187 8 l180 6 27 50 c15 28 28 56 28 63 0 9 -42 12 -175 12 -96 0 -175 2
-175 4 0 2 7 16 14 32 8 15 13 31 10 36 -3 4 95 8 218 8 196 0 226 3 244 18
23 19 74 107 74 128 0 12 -51 14 -292 14 -280 0 -295 -1 -329 -22z"/>
<path d="M8940 5790 c-11 -11 -20 -24 -20 -28 0 -5 -23 -51 -51 -103 -49 -90
-123 -230 -195 -368 -18 -35 -31 -68 -28 -72 3 -5 36 -9 74 -9 63 0 72 3 104
31 19 17 45 46 56 65 l22 34 137 0 137 0 24 -57 c12 -32 26 -61 29 -64 10 -11
167 -17 182 -8 14 8 8 32 -26 111 -5 13 -1 20 16 27 36 13 51 34 128 182 77
149 86 187 51 232 -12 15 -38 31 -58 37 -21 5 -150 10 -299 10 -250 0 -264 -1
-283 -20z m460 -149 c0 -6 -4 -12 -9 -15 -5 -3 -21 -29 -36 -58 -43 -84 -30
-79 -212 -77 -89 0 -163 2 -163 3 0 1 16 32 35 69 20 38 33 72 30 78 -4 5 63
9 174 9 107 0 181 -4 181 -9z"/>
<path d="M10232 5784 c-55 -24 -105 -78 -146 -158 -42 -83 -44 -122 -7 -168
18 -22 25 -23 183 -26 89 -1 173 -4 185 -7 20 -5 21 -6 7 -35 l-15 -30 -235 0
c-136 0 -243 -4 -254 -10 -21 -11 -82 -128 -74 -141 3 -5 132 -9 287 -9 254 0
286 2 323 19 42 19 124 86 124 102 0 4 14 32 31 60 46 79 42 151 -9 181 -24
14 -59 17 -199 18 l-169 2 0 34 1 34 251 0 250 0 25 28 c33 37 63 98 55 111
-12 18 -572 13 -614 -5z"/>
<path d="M10914 5792 c-14 -10 -79 -130 -73 -136 2 -3 46 -6 97 -8 50 -2 92
-7 92 -11 0 -4 -17 -40 -39 -80 -43 -80 -115 -216 -155 -291 -16 -31 -23 -53
-17 -59 5 -5 40 -8 78 -5 108 6 106 4 270 318 30 58 59 109 63 114 5 5 42 8
83 7 112 -2 134 10 179 97 16 31 19 45 11 50 -16 10 -575 13 -589 4z"/>
<path d="M11574 5792 c-7 -4 -35 -52 -64 -107 -29 -55 -56 -104 -60 -110 -4
-5 -43 -77 -85 -160 -43 -82 -81 -152 -86 -155 -4 -3 -11 -18 -14 -33 l-7 -27
70 0 c91 0 112 10 153 75 l34 54 140 1 141 0 29 -62 30 -63 98 -3 99 -3 -7 23
c-4 13 -16 41 -27 63 -17 37 -18 41 -2 50 43 26 64 49 87 93 104 203 127 251
127 261 0 7 -9 29 -20 51 -15 30 -29 41 -57 49 -43 12 -562 15 -579 3z m354
-152 l92 0 -27 -52 c-14 -29 -35 -66 -46 -81 l-19 -28 -164 2 c-90 1 -164 4
-164 6 0 3 16 33 35 67 19 35 32 66 28 70 -15 14 17 21 94 19 43 -1 120 -2
171 -3z"/>
<path d="M12398 5785 c-7 -6 -24 -33 -38 -60 -13 -28 -27 -52 -30 -55 -3 -3
-23 -41 -45 -85 -22 -44 -42 -82 -45 -85 -7 -7 -150 -287 -150 -294 0 -11 148
-6 173 5 13 6 31 23 39 37 34 60 124 226 208 387 29 55 56 104 61 110 11 11
12 45 2 46 -60 5 -166 2 -175 -6z"/>
<path d="M12761 5790 c-70 -5 -75 -7 -91 -35 -9 -16 -49 -93 -89 -170 -79
-151 -126 -239 -173 -323 -35 -63 -34 -64 81 -60 l83 3 37 70 36 70 92 3 92 3
32 -62 c17 -35 37 -68 44 -76 9 -9 43 -13 109 -13 103 0 111 5 80 48 -8 12
-13 26 -9 31 3 5 -4 12 -15 16 -11 3 -20 11 -20 17 0 6 -20 44 -45 86 -25 41
-45 78 -45 82 0 7 27 26 125 87 11 7 31 18 45 25 14 7 27 15 30 18 7 8 82 59
163 110 102 64 92 74 -68 71 -126 -2 -131 -3 -172 -31 -23 -17 -44 -30 -47
-30 -7 0 -214 -133 -248 -160 -16 -12 -28 -19 -28 -17 0 3 25 52 55 110 30 57
55 107 55 110 0 15 -41 22 -109 17z"/>
<path d="M14475 5737 c-19 -35 -35 -70 -35 -78 0 -13 36 -14 240 -11 132 2
240 1 240 -2 0 -4 -7 -20 -15 -36 l-16 -30 -205 0 c-198 0 -206 -1 -254 -25
-27 -14 -61 -40 -76 -58 -37 -47 -156 -276 -149 -288 4 -5 142 -9 341 -9 l334
0 18 38 c9 20 20 39 25 40 16 8 5 42 -19 61 -25 20 -39 21 -230 21 l-203 0 13
31 13 30 219 -1 c209 0 221 0 263 22 39 21 50 34 97 128 41 81 51 111 47 135
-17 92 -29 95 -347 95 l-265 0 -36 -63z"/>
<path d="M13463 5783 c-38 -7 -67 -48 -166 -230 -144 -268 -159 -303 -143
-328 13 -19 26 -20 282 -25 183 -3 279 -1 299 6 22 8 38 26 59 67 15 31 25 61
21 66 -4 7 -80 11 -215 11 l-210 0 16 33 15 32 165 -3 c153 -3 167 -2 194 18
27 20 79 105 69 115 -3 2 -83 5 -178 5 -157 2 -172 3 -165 18 4 10 8 30 8 45
1 27 3 28 41 26 22 -1 125 -1 228 0 l188 1 24 26 c13 14 33 44 45 66 17 33 19
43 8 49 -13 9 -543 10 -585 2z"/>
</g>
</svg>
