<?xml version="1.0" standalone="no"?>
<!DOCTYPE svg PUBLIC "-//W3C//DTD SVG 20010904//EN"
 "http://www.w3.org/TR/2001/REC-SVG-20010904/DTD/svg10.dtd">
<svg version="1.0" xmlns="http://www.w3.org/2000/svg"
 width="1920.000000pt" height="1080.000000pt" viewBox="0 0 1920.000000 1080.000000"
 preserveAspectRatio="xMidYMid meet">
<metadata>
Created by potrace 1.16, written by Peter Selinger 2001-2019
</metadata>
<g transform="translate(0.000000,1080.000000) scale(0.100000,-0.100000)"
fill="#000000" stroke="none">
<path d="M0 5400 l0 -5400 9600 0 9600 0 0 5400 0 5400 -9600 0 -9600 0 0
-5400z m16156 5381 l3031 -1 -3 -5380 -3 -5380 -9188 -1 c-5053 0 -9366 0
-9583 0 l-395 1 2 5303 c1 2916 2 5338 2 5383 l1 81 6553 -3 c3603 -1 7916 -3
9583 -3z"/>
<path d="M4565 5812 c-70 -24 -136 -86 -177 -168 -57 -112 -131 -250 -139
-258 -5 -6 -9 -31 -9 -56 0 -38 5 -51 30 -75 l30 -28 232 -4 c128 -2 243 -1
255 2 26 6 98 119 89 140 -4 13 -41 15 -221 15 l-215 0 23 38 c13 20 40 71 61
112 21 41 43 79 47 85 5 5 9 18 9 30 0 20 4 20 216 17 182 -2 220 0 240 13 28
18 78 111 70 130 -4 11 -56 14 -263 14 -142 -1 -267 -4 -278 -7z"/>
<path d="M5222 5794 c-74 -34 -104 -70 -177 -209 -37 -71 -79 -150 -93 -174
-43 -77 -27 -158 34 -181 14 -6 142 -10 285 -10 255 0 261 0 307 24 65 33 90
64 157 191 154 292 147 273 120 325 -27 53 -38 55 -323 56 -252 1 -266 0 -310
-22z m433 -136 c4 -4 -130 -249 -145 -265 -8 -10 -60 -13 -195 -13 l-183 0 25
48 c88 162 112 213 107 226 -5 12 25 13 192 10 108 -2 198 -4 199 -6z"/>
<path d="M6072 5810 c-58 -6 -122 -47 -122 -80 0 -10 -3 -20 -7 -22 -5 -1 -23
-32 -41 -68 -18 -36 -60 -116 -93 -179 -32 -62 -59 -122 -59 -132 0 -39 27
-86 57 -98 22 -9 99 -11 284 -9 l254 3 47 33 c56 39 77 67 138 186 40 77 68
130 129 243 27 50 54 113 50 118 -7 6 -35 8 -96 7 -68 -2 -105 -34 -156 -134
-89 -173 -149 -284 -158 -293 -9 -9 -339 -17 -339 -8 0 2 12 25 27 51 14 26
46 85 71 132 24 47 62 118 84 159 21 40 37 78 35 84 -4 12 -32 14 -105 7z"/>
<path d="M6809 5812 c-8 -1 -33 -42 -57 -90 -24 -48 -70 -136 -103 -197 -127
-237 -151 -286 -139 -300 12 -14 108 -10 153 7 27 11 86 105 169 270 18 37 35
68 38 68 3 0 21 -39 40 -86 19 -47 38 -88 42 -90 4 -3 8 -13 8 -22 1 -9 15
-46 33 -82 l32 -65 89 -3 c99 -3 105 0 142 73 11 22 48 94 83 160 35 66 83
156 106 200 24 44 51 94 61 112 10 17 16 34 13 37 -14 14 -137 8 -168 -8 -31
-16 -91 -97 -91 -122 0 -7 -3 -14 -7 -16 -5 -1 -16 -19 -25 -38 -10 -19 -35
-68 -56 -108 -43 -81 -37 -82 -82 23 -12 28 -27 64 -35 80 -8 17 -25 57 -37
91 -40 104 -44 107 -124 108 -39 1 -77 0 -85 -2z"/>
<path d="M7562 5783 c-6 -16 -22 -47 -36 -69 -35 -57 -23 -66 88 -62 48 2 86
2 86 1 0 -2 -36 -70 -80 -152 -44 -83 -80 -155 -80 -161 0 -6 -6 -8 -12 -4 -7
4 -10 4 -6 -1 4 -4 -4 -30 -19 -57 -23 -42 -25 -51 -12 -59 22 -13 102 -11
140 5 41 17 56 34 92 102 15 28 40 76 56 105 16 30 48 91 71 137 l42 82 93 0
c83 0 97 3 119 23 31 27 79 114 71 127 -4 6 -121 10 -305 10 l-298 0 -10 -27z"/>
<path d="M8249 5788 c-28 -15 -47 -41 -78 -102 -23 -44 -64 -121 -91 -171 -27
-49 -65 -122 -84 -161 -72 -142 -68 -144 279 -144 197 1 274 4 286 13 22 17
71 116 65 132 -3 10 -51 12 -220 9 l-216 -5 21 36 c12 19 24 36 27 36 4 1 88
4 187 8 l180 6 27 50 c15 28 28 56 28 63 0 9 -42 12 -175 12 -96 0 -175 2
-175 4 0 2 7 16 14 32 8 15 13 31 10 36 -3 4 95 8 218 8 163 1 227 4 240 13
20 16 78 113 78 132 0 13 -43 15 -292 15 -280 0 -295 -1 -329 -22z"/>
<path d="M8940 5790 c-11 -11 -20 -24 -20 -28 0 -5 -23 -51 -51 -103 -49 -90
-123 -230 -195 -368 -18 -35 -31 -68 -28 -72 3 -5 36 -9 75 -9 65 0 71 2 108
35 21 19 44 49 51 65 l12 30 142 0 142 0 24 -57 c12 -32 26 -61 29 -64 10 -11
167 -17 182 -8 14 8 8 32 -26 111 -5 13 -1 20 16 27 36 13 51 34 128 182 77
149 86 187 51 232 -12 15 -38 31 -58 37 -21 5 -150 10 -299 10 -250 0 -264 -1
-283 -20z m460 -149 c0 -6 -4 -12 -9 -15 -5 -3 -21 -29 -36 -58 -43 -83 -30
-78 -211 -78 -90 0 -164 2 -164 5 0 2 16 34 35 70 20 36 33 70 30 75 -4 6 60
10 174 10 107 0 181 -4 181 -9z"/>
<path d="M10232 5784 c-55 -24 -105 -78 -146 -158 -42 -83 -44 -122 -7 -168
19 -22 24 -23 205 -26 102 -2 186 -5 186 -6 0 -2 -7 -17 -16 -34 l-15 -32
-235 0 c-136 0 -243 -4 -254 -10 -21 -11 -82 -128 -74 -141 3 -5 132 -9 287
-9 254 0 286 2 323 19 42 19 124 86 124 102 0 4 14 32 31 60 46 79 42 151 -9
181 -24 14 -59 17 -199 18 l-169 2 0 34 1 34 251 0 250 0 25 28 c33 37 63 98
55 111 -12 18 -572 13 -614 -5z"/>
<path d="M10914 5792 c-14 -10 -79 -130 -73 -136 2 -3 46 -6 97 -8 50 -2 92
-7 92 -11 0 -4 -17 -40 -39 -80 -43 -80 -115 -216 -155 -291 -16 -31 -23 -53
-17 -59 5 -5 40 -8 78 -5 108 6 106 4 270 318 30 58 59 109 63 114 5 5 42 8
83 7 112 -2 134 10 179 97 16 31 19 45 11 50 -16 10 -575 13 -589 4z"/>
<path d="M11574 5793 c-7 -4 -35 -53 -64 -108 -29 -55 -56 -104 -60 -110 -4
-5 -42 -77 -85 -160 -43 -82 -82 -152 -86 -155 -4 -3 -11 -18 -14 -33 l-7 -27
70 0 c91 0 112 10 153 75 l34 54 141 1 140 0 30 -62 29 -63 98 -3 99 -3 -7 23
c-4 13 -16 41 -27 63 -17 37 -18 41 -2 50 47 29 67 54 122 162 33 65 67 132
76 148 9 17 16 36 16 43 0 23 -39 89 -57 98 -24 10 -585 17 -599 7z m419 -206
c-15 -29 -35 -64 -45 -79 l-19 -28 -165 0 c-90 0 -164 3 -164 6 0 3 15 33 34
67 18 34 32 67 29 74 -5 14 101 20 259 15 l98 -3 -27 -52z"/>
<path d="M12398 5785 c-7 -6 -29 -42 -48 -80 -48 -94 -104 -199 -110 -205 -7
-7 -150 -287 -150 -294 0 -11 148 -6 173 5 13 6 31 23 39 37 34 60 124 226
208 387 29 55 56 104 61 110 11 11 12 45 2 46 -60 5 -166 2 -175 -6z"/>
<path d="M12761 5790 c-70 -5 -75 -7 -91 -35 -9 -16 -49 -93 -89 -170 -79
-151 -126 -239 -173 -323 -35 -63 -34 -64 81 -60 l83 3 37 70 36 70 92 3 92 3
32 -62 c17 -35 37 -68 44 -76 9 -9 43 -13 110 -13 95 0 96 0 89 22 -4 13 -17
39 -29 58 -46 73 -115 193 -115 200 0 7 80 62 115 80 6 3 51 32 100 64 50 32
118 77 153 100 94 61 84 70 -73 67 -126 -2 -131 -3 -172 -31 -23 -17 -44 -30
-47 -30 -7 0 -214 -133 -248 -160 -16 -12 -28 -18 -28 -15 0 4 25 53 55 110
30 56 55 105 55 108 0 15 -41 22 -109 17z"/>
<path d="M14476 5741 c-62 -101 -73 -96 204 -93 132 2 240 1 240 -3 0 -3 -7
-19 -15 -35 l-16 -30 -205 0 c-198 0 -206 -1 -254 -25 -27 -14 -61 -40 -76
-58 -36 -46 -155 -277 -148 -288 3 -5 149 -9 340 -9 l334 0 18 38 c9 20 20 39
25 40 16 8 5 42 -19 61 -25 20 -39 21 -230 21 l-203 0 13 31 13 30 215 -1
c296 -1 285 -6 377 176 23 45 39 88 37 95 -2 8 -7 27 -10 42 -4 16 -20 36 -39
47 -30 19 -51 20 -298 20 l-266 0 -37 -59z"/>
<path d="M13444 5774 c-32 -16 -62 -60 -142 -214 -28 -52 -73 -139 -101 -192
-28 -54 -51 -107 -51 -118 0 -48 10 -49 304 -50 163 -1 283 3 294 9 24 13 78
119 66 131 -5 5 -103 11 -216 12 l-207 3 15 30 14 30 165 -3 c153 -3 167 -2
194 17 27 19 71 89 71 111 0 6 -69 10 -175 10 -161 0 -197 5 -164 26 6 3 9 19
7 35 l-5 29 227 0 c166 0 230 3 242 13 9 6 31 36 48 66 24 42 28 56 18 62 -7
5 -139 9 -293 9 -229 0 -286 -3 -311 -16z"/>
<path d="M2593 2123 c-53 -3 -73 -8 -73 -17 0 -8 6 -16 13 -18 15 -5 146 -1
172 6 11 2 116 5 233 5 181 1 212 3 212 16 0 13 -33 15 -242 13 -134 -1 -276
-4 -315 -5z"/>
<path d="M2385 1793 c-97 -10 -47 -43 66 -43 38 0 69 4 69 10 0 6 87 11 227
12 170 2 227 6 231 16 3 9 -56 12 -275 10 -153 -1 -296 -3 -318 -5z"/>
</g>
</svg>
