<?xml version="1.0" standalone="no"?>
<!DOCTYPE svg PUBLIC "-//W3C//DTD SVG 20010904//EN"
 "http://www.w3.org/TR/2001/REC-SVG-20010904/DTD/svg10.dtd">
<svg version="1.0" xmlns="http://www.w3.org/2000/svg"
 width="1920.000000pt" height="1080.000000pt" viewBox="0 0 1920.000000 1080.000000"
 preserveAspectRatio="xMidYMid meet">
<metadata>
Created by potrace 1.16, written by Peter Selinger 2001-2019
</metadata>
<g transform="translate(0.000000,1080.000000) scale(0.100000,-0.100000)"
fill="#000000" stroke="none">
<path d="M2 5438 c1 -2950 4 -5235 8 -5078 3 157 5 2563 4 5348 -1 2882 2
5065 7 5068 14 8 10 24 -6 24 -13 0 -15 -602 -13 -5362z"/>
<path d="M42 10794 c3 -3 4217 -5 9364 -5 5148 0 9454 -2 9569 -5 l210 -6 0
-5382 0 -5381 -7192 0 c-3955 0 -7195 -3 -7199 -8 -4 -4 3236 -7 7199 -7
l7207 0 0 5400 0 5400 -9582 0 c-5270 0 -9579 -3 -9576 -6z"/>
<path d="M6853 5834 c-3 -8 -16 -14 -29 -14 -16 0 -28 -9 -38 -29 -9 -16 -22
-31 -30 -34 -9 -4 -12 -14 -9 -26 3 -14 0 -23 -11 -27 -9 -3 -16 -17 -16 -30
0 -13 -9 -33 -20 -44 -24 -24 -34 -26 -26 -5 3 9 0 15 -9 15 -17 0 -20 26 -5
35 6 3 10 1 10 -6 0 -8 4 -8 15 1 10 8 12 18 6 28 -10 18 -4 48 17 80 22 34 3
43 -79 38 -70 -4 -103 -16 -113 -41 -3 -8 -12 -15 -21 -15 -9 0 -15 -9 -15
-25 0 -14 -7 -28 -15 -31 -8 -4 -15 -14 -15 -24 0 -10 -6 -25 -14 -32 -7 -8
-19 -31 -27 -51 -7 -21 -21 -46 -30 -55 -8 -10 -19 -30 -22 -44 -4 -15 -13
-33 -21 -41 -8 -7 -16 -22 -18 -33 -2 -12 -11 -19 -25 -19 -11 0 -30 -8 -42
-19 -18 -16 -33 -18 -136 -14 -63 2 -120 9 -125 14 -10 10 113 268 157 330 13
17 24 46 25 65 l3 33 -74 3 c-68 3 -76 1 -105 -24 -17 -16 -33 -32 -35 -38 -2
-5 -17 -32 -33 -60 -16 -27 -33 -57 -37 -65 -4 -8 -15 -28 -25 -45 -9 -16 -39
-76 -67 -133 -47 -94 -50 -106 -44 -150 10 -77 20 -80 334 -85 l264 -4 27 26
c16 14 39 35 54 46 14 11 25 25 26 30 0 6 8 18 18 27 31 30 43 48 38 57 -3 5
1 11 9 15 8 3 15 13 15 21 0 9 7 23 15 31 8 9 22 39 30 68 9 29 26 62 39 73
l24 21 6 -29 c7 -35 -4 -64 -23 -64 -8 0 -16 -6 -19 -14 -3 -9 0 -11 8 -6 8 5
11 1 8 -11 -2 -11 -9 -18 -14 -17 -6 1 -11 -3 -12 -10 -1 -7 -3 -23 -5 -36 -2
-13 -14 -31 -27 -41 -12 -9 -20 -22 -16 -28 3 -6 2 -13 -4 -17 -5 -3 -10 -15
-10 -25 0 -10 -6 -23 -13 -27 -21 -13 -36 -57 -25 -76 11 -21 115 -22 168 -2
19 7 32 14 28 14 -7 1 24 52 57 96 8 10 15 25 15 33 0 18 40 84 57 95 7 4 13
15 13 24 0 23 22 83 31 83 3 0 12 -21 19 -47 8 -27 19 -57 26 -68 7 -11 14
-29 16 -40 2 -11 9 -26 16 -34 7 -7 18 -33 24 -57 7 -24 15 -44 19 -44 4 0 12
-15 18 -33 l11 -33 93 4 c50 2 97 8 103 13 6 5 19 27 29 49 10 22 22 40 27 40
4 0 8 6 8 14 0 16 64 132 86 157 8 8 14 23 14 32 0 10 9 25 20 34 11 10 20 24
20 31 0 9 6 12 16 8 29 -11 52 24 43 64 -12 50 -11 60 6 60 8 0 15 9 15 20 0
11 5 20 10 20 12 0 13 20 0 40 -7 11 -26 14 -82 11 -40 -1 -75 -7 -79 -12 -3
-5 -13 -7 -22 -3 -12 4 -17 1 -17 -10 0 -9 -4 -16 -8 -16 -4 0 -14 -16 -21
-35 -7 -19 -17 -33 -22 -30 -5 4 -9 -7 -9 -23 0 -16 -8 -40 -17 -53 -31 -42
-44 -69 -38 -79 4 -6 -1 -13 -9 -16 -9 -3 -16 -13 -16 -20 0 -8 -7 -17 -15
-20 -8 -4 -15 -15 -15 -26 0 -30 -17 -12 -24 26 -4 19 -10 36 -14 38 -5 2 -21
35 -36 73 -74 185 -90 207 -169 231 -32 10 -39 10 -44 -2z"/>
<path d="M4538 5818 c-2 -14 -11 -24 -23 -26 -11 -2 -24 -9 -30 -16 -5 -7 -17
-15 -25 -18 -9 -3 -24 -23 -35 -44 -24 -47 -42 -67 -53 -60 -5 3 -16 0 -25 -7
-19 -15 -27 -53 -9 -49 6 1 12 -4 12 -11 0 -18 -24 -67 -32 -67 -5 0 -8 -5 -8
-11 0 -6 -9 -23 -19 -37 -10 -15 -19 -31 -19 -35 0 -14 -12 -22 -12 -9 0 7 -7
12 -15 12 -8 0 -15 -4 -15 -10 0 -5 4 -10 9 -10 6 0 7 -10 4 -22 -15 -63 7
-176 36 -178 38 -3 276 -4 391 -2 119 2 127 3 153 28 15 14 25 29 22 34 -3 5
3 14 13 19 13 7 19 20 18 43 l-1 33 -201 3 -201 2 5 28 c7 38 46 107 59 105
12 -2 34 67 38 117 l2 31 224 -1 225 -1 26 28 c32 34 58 85 58 113 0 20 -4 20
-275 20 -177 0 -275 4 -275 10 0 20 -19 9 -22 -12z"/>
<path d="M5226 5806 c-22 -7 -42 -18 -44 -24 -2 -7 -8 -12 -14 -12 -13 0 -78
-67 -70 -74 3 -3 -1 -14 -9 -23 -9 -10 -37 -63 -64 -118 -27 -55 -52 -102 -55
-105 -34 -27 -67 -180 -40 -180 6 0 10 -7 10 -15 0 -8 7 -15 15 -15 9 0 26 -6
38 -13 17 -9 85 -11 287 -7 l265 5 58 29 c31 16 57 35 57 43 0 7 4 13 8 13 5
0 16 18 26 39 9 22 28 50 41 63 14 13 25 30 25 38 0 14 32 78 83 169 10 18 21
55 24 82 5 46 4 52 -26 83 l-32 33 -272 1 c-192 0 -284 -3 -311 -12z m394
-206 c-18 -35 -35 -58 -41 -54 -6 4 -9 -2 -8 -12 3 -22 -22 -94 -32 -94 -4 0
-10 6 -12 13 -3 6 -6 -1 -6 -16 -2 -54 -14 -57 -200 -57 -94 0 -171 2 -171 4
0 15 32 76 40 76 6 0 10 11 10 24 0 24 22 51 33 40 3 -3 3 3 0 15 -3 12 -1 21
5 21 5 0 13 11 16 25 4 14 11 25 17 25 6 0 7 5 4 10 -3 6 1 13 10 16 13 6 14
8 3 15 -7 5 68 9 175 9 l187 0 -30 -60z"/>
<path d="M7603 5812 c-30 -2 -43 -8 -43 -18 0 -8 -12 -32 -26 -54 -17 -26 -25
-48 -22 -64 3 -14 0 -28 -6 -30 -6 -3 12 -5 39 -4 108 4 135 -1 135 -21 0 -11
-4 -22 -8 -25 -4 -3 -21 -31 -37 -63 -16 -32 -37 -70 -47 -85 -10 -14 -18 -31
-18 -38 0 -6 -11 -26 -24 -43 -13 -18 -26 -44 -30 -59 -3 -15 -15 -30 -26 -33
-22 -7 -25 -26 -11 -53 8 -15 19 -16 83 -10 109 11 113 12 116 37 2 14 14 26
32 32 28 10 47 45 27 52 -12 4 29 77 42 77 4 0 13 18 20 40 8 28 17 40 28 38
11 -2 17 5 18 21 1 14 7 27 13 29 6 2 14 20 18 40 10 59 28 72 96 72 33 0 68
-5 79 -11 16 -8 23 -7 33 7 11 15 13 13 15 -17 5 -63 1 -94 -12 -104 -7 -5
-17 -19 -21 -30 -6 -16 -9 -17 -17 -5 -9 13 -10 13 -7 0 1 -8 -4 -26 -12 -40
-7 -14 -12 -27 -11 -30 1 -3 -6 -9 -15 -15 -31 -17 -43 -38 -33 -57 6 -11 5
-18 -3 -20 -13 -5 -18 -101 -6 -113 10 -11 590 -6 603 5 14 12 39 -12 27 -25
-4 -5 2 -5 13 0 11 4 59 9 107 11 65 3 93 9 108 21 11 10 24 17 27 15 4 -2 14
16 22 39 18 47 50 64 106 54 17 -2 65 -5 108 -6 43 -1 77 -6 77 -11 0 -6 11
-19 24 -29 14 -11 30 -35 36 -53 l11 -34 54 5 c45 5 56 3 61 -11 9 -22 27 -20
56 7 29 27 31 63 6 89 -24 24 -23 45 2 53 11 4 35 29 54 56 18 27 36 46 39 42
4 -3 7 7 7 23 0 34 24 74 45 74 18 0 30 20 17 29 -7 4 -3 20 9 46 14 28 19 57
18 95 -2 48 -6 58 -33 78 -29 22 -35 22 -318 22 -276 0 -289 -1 -308 -20 -12
-12 -25 -18 -29 -15 -5 2 -11 -10 -14 -28 -11 -64 -23 -101 -35 -105 -6 -2
-12 1 -12 7 0 6 -11 11 -25 11 l-24 0 21 38 c12 20 27 44 34 52 6 8 15 25 18
38 l7 22 -300 0 c-286 0 -302 -1 -341 -21 -25 -13 -40 -28 -40 -40 0 -10 -6
-19 -14 -19 -9 0 -14 12 -14 36 0 19 -2 37 -4 39 -4 5 -511 11 -565 7z m1237
-175 c0 -4 -9 -24 -19 -45 -10 -20 -18 -39 -18 -42 4 -18 -70 -143 -94 -161
-19 -13 -29 -29 -29 -45 0 -42 -16 -62 -45 -57 -25 5 -33 18 -16 25 4 2 11 13
15 25 6 19 2 23 -26 28 -19 4 -118 5 -221 3 -110 -2 -186 1 -184 6 5 15 36 19
132 19 76 -1 81 0 35 6 -39 4 -49 8 -35 13 27 10 128 11 190 3 43 -5 47 -4 30
6 -18 12 -16 14 30 23 42 9 50 15 53 36 2 14 8 35 14 47 5 11 9 26 7 32 -3 7
-63 12 -166 14 -90 2 -165 5 -167 8 -10 10 7 58 23 63 27 8 491 2 491 -7z
m507 6 c29 -5 31 -7 23 -34 -14 -47 -50 -100 -77 -110 -27 -10 -235 -12 -271
-2 -21 5 -23 10 -18 37 4 17 11 33 16 34 6 2 17 19 24 37 12 27 21 35 48 38
46 6 216 6 255 0z"/>
<path d="M12686 5799 c2 -4 -5 -18 -16 -32 -11 -14 -20 -29 -20 -33 0 -17 -42
-92 -60 -109 -11 -10 -20 -24 -20 -31 0 -7 -6 -25 -14 -41 -57 -118 -70 -141
-83 -136 -7 3 -13 1 -13 -5 0 -6 4 -12 9 -14 6 -1 0 -23 -13 -48 -19 -37 -27
-44 -46 -42 -21 4 -22 2 -11 -12 12 -14 12 -21 1 -41 -7 -14 -19 -25 -27 -25
-22 0 -15 -20 11 -30 13 -4 56 -10 96 -12 72 -2 73 -2 101 32 16 19 29 40 29
48 0 7 5 10 10 7 6 -4 9 -3 8 2 -1 4 1 17 5 29 6 16 14 20 32 16 14 -2 36 3
49 12 15 10 42 15 72 13 46 -2 48 -4 56 -37 5 -19 18 -42 29 -52 10 -9 19 -21
19 -27 0 -25 59 -41 143 -39 72 2 84 5 83 20 -2 28 -60 128 -78 134 -11 3 -18
15 -18 30 0 13 -4 24 -9 24 -5 0 -13 9 -16 20 -3 11 -13 27 -22 35 -13 14 -12
18 9 40 22 24 56 35 43 15 -3 -6 1 -7 9 -4 9 3 16 14 16 24 0 12 17 25 50 39
28 12 50 26 50 32 0 6 4 8 9 5 5 -3 11 0 14 8 5 13 57 29 57 17 0 -4 10 -7 23
-8 21 -2 21 -2 2 9 -11 6 -22 13 -24 15 -6 4 31 31 41 29 4 0 13 8 21 18 10
13 16 15 21 8 4 -7 12 -12 18 -12 7 0 7 4 0 13 -9 10 -6 17 8 30 24 20 50 22
49 5 0 -15 -60 -124 -102 -186 -15 -23 -29 -52 -30 -64 -2 -12 -9 -24 -15 -26
-7 -2 -12 -10 -12 -18 0 -16 -36 -89 -64 -127 -21 -28 -24 -92 -6 -111 5 -5
124 -8 264 -7 226 2 256 0 256 -13 0 -20 5 -20 36 1 22 14 27 14 36 2 8 -11 9
-11 5 3 -8 22 2 29 24 17 15 -7 17 -6 13 6 -10 26 5 82 24 87 10 3 18 15 19
26 2 26 6 25 -231 26 l-159 1 -3 27 -2 26 114 7 c62 4 139 4 170 0 78 -9 108
4 112 52 1 20 7 42 14 50 22 27 -9 33 -174 36 -92 1 -170 5 -174 9 -4 5 0 16
9 26 10 10 17 25 17 33 0 12 35 14 208 13 114 0 221 3 238 8 24 7 35 19 56 66
14 31 23 63 20 70 -7 18 -603 13 -610 -5 -5 -17 -32 -16 -46 1 -8 11 -43 16
-146 18 l-135 3 -33 -32 c-18 -18 -43 -35 -55 -39 -12 -3 -51 -26 -86 -51 -35
-24 -65 -42 -68 -40 -2 3 -16 -6 -30 -19 -31 -29 -83 -56 -83 -43 0 5 5 9 10
9 6 0 10 7 10 15 0 8 7 15 15 15 9 0 15 9 15 23 0 26 33 83 66 114 27 24 30
39 12 42 -40 7 -205 15 -202 10z"/>
<path d="M10223 5781 c-90 -41 -173 -172 -173 -272 0 -88 0 -88 223 -82 159 5
190 3 180 -8 -7 -7 -13 -24 -13 -37 l0 -23 -128 7 c-71 3 -185 3 -255 -1 -116
-6 -127 -9 -127 -26 0 -19 -14 -26 -23 -11 -2 4 -2 2 -1 -5 2 -7 -1 -15 -7
-19 -6 -3 -8 -12 -5 -20 3 -8 -4 -23 -16 -33 -12 -12 -18 -26 -15 -35 6 -14
43 -16 297 -16 193 0 298 4 312 11 15 8 19 8 14 0 -5 -7 3 -11 21 -10 19 1 22
3 10 6 -16 4 -14 10 18 39 21 19 43 34 51 34 7 0 16 10 20 22 3 12 14 30 24
40 37 40 65 129 50 158 -10 19 -8 20 42 22 l53 2 -49 3 c-34 3 -59 12 -79 29
-27 23 -35 24 -170 24 -154 0 -187 5 -187 26 0 8 -5 14 -12 14 -9 0 -9 3 0 12
17 17 468 18 496 2 15 -9 24 -9 38 0 16 9 22 8 32 -6 15 -21 26 -23 26 -5 0
19 94 21 110 2 7 -8 16 -12 21 -9 5 3 9 -4 9 -16 0 -11 -6 -23 -14 -26 -8 -3
-16 -14 -19 -25 -4 -13 -10 -17 -23 -12 -15 5 -16 2 -11 -25 4 -21 2 -36 -8
-46 -8 -8 -15 -26 -15 -39 0 -25 -39 -83 -40 -59 0 6 -5 12 -11 12 -7 0 -9 -9
-6 -22 6 -22 -17 -78 -32 -78 -13 0 -19 -46 -9 -64 5 -9 22 -23 38 -31 27 -14
30 -14 30 0 0 10 11 16 38 17 20 1 44 2 52 4 8 1 20 2 27 3 6 1 9 9 6 20 -3
11 3 24 14 32 10 8 29 38 42 67 17 35 29 51 38 47 8 -3 11 0 7 6 -8 13 24 99
37 99 5 0 9 7 9 16 0 18 40 95 54 106 5 3 15 4 23 1 9 -4 11 0 7 11 -4 11 0
16 12 17 11 0 52 1 92 3 39 2 72 0 72 -4 0 -4 7 -7 16 -7 10 0 14 7 11 19 -6
22 8 24 17 2 3 -8 -3 -35 -14 -59 -11 -24 -20 -49 -20 -54 0 -6 -4 -11 -10
-11 -5 0 -10 -4 -10 -10 0 -15 -47 -80 -54 -73 -6 7 -7 5 -11 -43 -2 -26 -45
-107 -66 -124 -3 -3 -8 -18 -11 -33 -7 -35 9 -43 83 -46 42 -1 61 3 81 19 14
11 31 20 36 20 6 0 14 9 17 20 3 11 10 20 15 20 5 0 6 7 3 17 -4 11 -3 14 5 9
8 -5 12 0 12 13 0 20 5 21 130 21 91 0 133 -4 141 -12 6 -7 23 -38 37 -68 l27
-55 79 -3 c50 -2 87 -9 102 -19 22 -14 24 -14 24 2 0 9 -5 26 -11 37 -6 11
-11 35 -11 53 0 24 -6 36 -21 43 -23 10 -23 11 28 27 8 2 15 13 15 24 0 11 6
24 13 28 6 4 19 21 27 36 8 16 24 40 37 53 12 13 20 30 17 38 -3 7 1 20 8 28
20 21 38 56 38 72 0 8 5 16 12 18 18 6 13 100 -6 131 -9 13 -26 27 -36 30 -11
3 -298 5 -638 6 l-617 0 -27 -33 c-15 -19 -30 -46 -34 -60 -8 -33 -22 -42 -31
-21 -3 10 0 21 7 25 7 4 10 15 7 24 -4 9 0 19 9 24 9 5 12 15 8 25 -6 15 -33
17 -298 17 -264 0 -295 -2 -333 -19z m1787 -145 c0 -12 -48 -104 -65 -123 -22
-26 -40 -30 -31 -8 4 10 -1 15 -14 15 -11 0 -20 -4 -20 -9 0 -5 -28 -12 -62
-16 -35 -3 -72 -8 -83 -11 -11 -2 -2 5 20 15 l40 20 -41 0 c-26 1 -46 -5 -54
-14 -7 -9 -29 -15 -54 -15 -33 1 -37 3 -23 11 9 5 17 21 17 35 0 14 9 43 20
64 l20 40 165 0 c91 0 165 -2 165 -4z"/>
<path d="M12387 5779 c-3 -12 -10 -18 -17 -14 -6 3 -10 3 -9 -2 5 -28 -4 -55
-28 -84 -15 -17 -29 -41 -30 -52 -2 -10 -12 -32 -23 -47 -11 -16 -20 -35 -20
-44 0 -9 -4 -16 -10 -16 -5 0 -13 -12 -16 -27 -4 -15 -18 -39 -31 -53 -12 -13
-23 -30 -23 -37 0 -7 -4 -13 -8 -13 -5 0 -16 -24 -25 -53 -9 -30 -26 -62 -37
-72 -23 -21 -25 -34 -9 -69 9 -19 16 -23 28 -16 10 5 43 8 75 7 54 -1 61 1 87
31 16 18 29 39 29 47 0 8 4 15 10 15 5 0 14 18 20 40 6 22 15 38 20 35 6 -4
10 1 10 10 0 10 5 13 12 9 6 -4 8 -3 5 4 -4 5 -3 21 2 34 l10 23 1 -25 1 -25
17 28 c9 15 23 27 30 27 9 0 12 7 9 20 -3 11 -1 20 4 20 5 0 9 7 9 15 0 8 -6
15 -12 15 -10 0 -9 3 1 9 7 5 10 14 6 20 -4 7 1 24 10 38 14 20 19 23 26 12 7
-9 8 -5 3 13 -4 20 3 43 30 91 20 35 36 74 36 85 0 21 -4 22 -94 22 -87 0 -94
-2 -99 -21z"/>
<path d="M14490 5785 c0 -8 -16 -40 -35 -72 -19 -32 -35 -61 -35 -65 0 -4 113
-5 251 -1 243 5 250 5 241 -13 -6 -11 -13 -27 -16 -37 -5 -17 -21 -18 -206
-16 -111 1 -204 -1 -207 -5 -4 -3 -14 -6 -24 -6 -10 0 -30 -11 -45 -25 -15
-14 -31 -25 -36 -25 -12 0 -38 -26 -38 -38 0 -6 -7 -12 -15 -16 -8 -3 -15 -14
-15 -25 0 -11 -7 -26 -15 -35 -8 -8 -15 -21 -15 -30 0 -8 -6 -19 -12 -23 -15
-9 -58 -97 -58 -117 0 -36 23 -38 347 -37 174 1 321 5 327 9 6 4 14 7 19 8 4
1 10 2 13 3 4 0 1 7 -5 15 -8 10 -9 16 -1 21 5 3 10 26 10 49 0 41 -2 44 -31
50 -17 3 -113 6 -213 7 -99 0 -175 3 -168 6 14 6 16 33 2 33 -5 0 -10 5 -10
10 0 6 84 10 231 10 151 0 228 -3 224 -10 -3 -5 1 -10 9 -10 9 0 15 5 14 12
-2 7 6 12 17 13 13 0 22 10 29 33 5 18 18 43 30 55 24 27 37 52 60 122 22 67
20 92 -6 132 l-23 33 -297 -1 c-245 0 -298 -3 -298 -14z"/>
<path d="M0 20 l0 -20 2372 0 c1304 0 2369 2 2366 5 -3 3 -1060 7 -2349 8
-1888 2 -2348 4 -2366 15 -21 11 -23 11 -23 -8z"/>
</g>
</svg>
