<?xml version="1.0" standalone="no"?>
<!DOCTYPE svg PUBLIC "-//W3C//DTD SVG 20010904//EN"
 "http://www.w3.org/TR/2001/REC-SVG-20010904/DTD/svg10.dtd">
<svg version="1.0" xmlns="http://www.w3.org/2000/svg"
 width="1920.000000pt" height="1080.000000pt" viewBox="0 0 1920.000000 1080.000000"
 preserveAspectRatio="xMidYMid meet">
<metadata>
Created by potrace 1.16, written by Peter Selinger 2001-2019
</metadata>
<g transform="translate(0.000000,1080.000000) scale(0.100000,-0.100000)"
fill="#000000" stroke="none">
<path d="M212 10794 c3 -3 493 -7 1089 -9 596 -2 1109 -4 1139 -5 30 -1 132
-1 225 0 105 0 189 -4 220 -11 28 -7 87 -12 133 -11 58 2 82 -1 82 -10 0 -6 6
-3 14 7 13 18 36 20 442 25 236 3 717 4 1069 4 2758 -7 10250 -2 10264 6 10 6
-2683 10 -7333 10 -4042 0 -7347 -3 -7344 -6z"/>
<path d="M15140 10791 c33 -10 2561 -12 2805 -2 110 4 -442 8 -1320 8 -830 1
-1499 -2 -1485 -6z"/>
<path d="M1 8389 c1 -1317 5 -2380 9 -2364 4 17 7 284 8 594 1 557 6 696 23
669 5 -8 9 11 9 49 0 83 12 113 42 107 l23 -5 -22 10 c-37 17 -27 29 15 19 48
-13 101 4 82 27 -8 9 -22 12 -41 8 -22 -4 -29 -2 -29 10 0 8 -7 20 -15 27 -12
10 -15 9 -15 -6 -1 -18 -1 -18 -15 0 -15 19 -15 19 -15 -2 0 -37 -17 -25 -28
21 -8 29 -13 553 -17 1632 -4 874 -8 1592 -11 1594 -2 2 -3 -1073 -3 -2390z"/>
<path d="M19190 10718 c-1 -2 -3 -48 -6 -103 -3 -55 -10 -104 -15 -109 -16
-17 -10 -64 9 -69 13 -4 11 -5 -5 -6 -27 -1 -31 -31 -5 -37 15 -4 17 -16 14
-92 -2 -48 -8 -97 -14 -109 -6 -11 -8 -27 -5 -35 3 -7 6 -3 6 10 1 12 4 22 9
22 4 0 6 -77 4 -171 -3 -117 -1 -174 7 -182 8 -8 11 107 11 436 0 246 -2 447
-5 447 -3 0 -5 -1 -5 -2z"/>
<path d="M3028 10633 c-13 -3 -18 -14 -18 -36 0 -40 9 -54 40 -65 16 -6 -7 -8
-71 -6 -51 2 -127 3 -168 4 -90 0 -85 13 7 21 62 5 59 6 -36 7 -67 1 -101 -2
-97 -8 3 -5 15 -10 26 -10 12 0 17 -4 13 -11 -3 -6 -15 -9 -25 -6 -14 4 -19 0
-19 -16 0 -12 -9 -33 -20 -47 -11 -14 -20 -29 -20 -35 0 -16 -43 -97 -62 -119
-10 -11 -18 -25 -18 -32 0 -7 -4 -14 -9 -16 -5 -1 -11 -10 -13 -18 -2 -8 -6
-17 -9 -20 -16 -14 -69 -127 -69 -147 0 -16 -6 -23 -19 -23 -13 0 -21 -10 -25
-34 -5 -28 -11 -34 -29 -33 -12 0 -25 5 -28 9 -3 5 -13 6 -22 2 -13 -5 -15
-15 -10 -52 3 -26 12 -54 19 -63 12 -13 12 -19 -4 -37 -10 -12 -33 -50 -51
-86 -29 -56 -39 -67 -80 -85 l-47 -20 -1 -82 c0 -64 -4 -85 -17 -94 -9 -7 -16
-18 -16 -24 0 -7 -11 -22 -25 -35 -20 -19 -25 -33 -25 -71 0 -41 2 -46 18 -40
21 9 18 9 114 7 l76 -2 7 -32 c11 -58 16 -68 30 -68 17 0 14 72 -3 93 -10 12
-8 16 10 21 13 3 44 6 70 6 25 0 48 4 50 9 2 5 37 11 78 14 48 3 74 8 73 15
-2 6 12 15 30 20 22 6 31 14 29 26 -2 12 7 21 27 29 21 8 31 18 31 33 0 11 9
31 20 43 l19 23 -3 -34 c-2 -18 -1 -24 1 -13 5 19 10 25 72 75 22 18 30 34 31
58 0 36 -6 39 -31 16 -25 -22 -32 -1 -9 26 11 13 20 28 20 35 0 6 11 17 25 23
16 8 23 17 19 27 -4 8 -1 21 5 29 6 7 8 16 4 19 -3 4 -2 7 4 7 5 0 18 17 28
38 10 20 29 57 41 82 12 25 25 61 29 82 6 30 12 37 38 43 37 7 162 25 195 28
12 1 25 10 28 20 8 24 -4 36 -16 17 -13 -19 -12 -4 0 41 13 45 45 52 36 7 -6
-31 9 -39 19 -9 3 10 15 21 27 24 15 4 19 10 13 24 -20 47 -29 94 -19 101 13
9 54 97 54 115 0 8 -5 28 -11 46 -11 31 -41 42 -55 20 -4 -8 -9 -7 -16 2 -7
11 -11 11 -15 1 -2 -6 -10 -9 -16 -5 -7 4 -26 6 -44 4 -26 -2 -32 1 -35 21 -2
17 -11 24 -31 26 -20 2 -31 11 -38 30 -25 70 -34 77 -81 65z"/>
<path d="M14010 8875 c0 -7 -9 -15 -21 -18 -16 -4 -20 -12 -17 -34 3 -24 -1
-28 -25 -31 -15 -2 -25 -8 -22 -13 4 -5 -1 -12 -9 -15 -18 -7 -22 -59 -6 -69
6 -3 10 -1 10 4 0 6 9 11 19 11 12 0 23 -11 30 -31 14 -40 14 -37 -6 -42 -11
-3 -5 -5 12 -6 34 -2 72 -26 56 -35 -5 -4 -12 -2 -16 4 -8 12 -52 13 -59 1 -3
-5 -7 -30 -8 -57 -1 -46 -18 -76 -48 -86 -15 -5 -5 -98 11 -98 5 0 9 -7 9 -15
0 -8 3 -15 8 -15 4 0 9 -54 10 -119 4 -113 3 -119 -17 -126 -24 -7 -27 -30 -7
-51 10 -9 37 -14 85 -14 39 0 71 -4 71 -9 0 -5 10 -12 23 -14 12 -3 -62 -5
-164 -4 -151 1 -184 4 -173 14 7 8 36 13 68 13 56 0 56 0 56 30 l0 30 -62 1
c-35 1 -69 1 -76 0 -8 -1 -25 5 -38 14 -14 9 -37 15 -52 13 -25 -3 -27 -6 -28
-55 0 -29 3 -50 7 -47 4 2 10 0 14 -6 4 -7 -63 -10 -199 -10 -197 0 -206 1
-206 19 0 11 -4 23 -10 26 -17 10 -140 10 -137 0 1 -6 20 -9 43 -7 26 2 45 -2
52 -11 10 -12 -1 -16 -71 -26 -45 -6 -99 -11 -119 -11 -20 0 -40 -5 -44 -11
-4 -8 -25 -9 -60 -5 -48 6 -54 4 -54 -13 0 -16 -11 -20 -72 -27 -40 -4 -85 -7
-99 -5 -17 1 -29 -4 -33 -14 -8 -21 2 -38 16 -29 7 4 8 2 4 -4 -4 -6 -13 -9
-21 -5 -9 3 -15 -1 -15 -11 0 -9 -7 -16 -15 -16 -8 0 -15 6 -15 13 0 6 -10 -3
-21 -20 -12 -18 -27 -33 -35 -33 -10 0 -14 -12 -14 -40 0 -22 -3 -40 -7 -40
-5 0 -17 -13 -28 -29 -10 -16 -22 -28 -26 -25 -4 2 -9 -5 -12 -16 -6 -23 -27
-27 -27 -5 0 8 -5 15 -11 15 -7 0 -8 -14 -4 -40 6 -38 6 -40 -19 -40 -19 0
-26 5 -26 20 0 11 5 20 10 20 6 0 10 9 10 20 0 11 -4 20 -10 20 -5 0 -10 -4
-10 -10 0 -5 -9 -10 -20 -10 -13 0 -20 -7 -20 -20 0 -13 -7 -20 -20 -20 -19 0
-20 -7 -20 -100 0 -106 3 -100 -50 -104 -30 -2 -58 -36 -30 -36 6 0 10 7 10
15 0 8 5 15 10 15 6 0 10 -7 10 -15 0 -18 46 -21 53 -2 3 6 4 -1 2 -18 -4 -41
-4 -42 -15 -25 -15 25 -24 2 -9 -26 12 -23 11 -27 -4 -39 -9 -7 -17 -24 -17
-39 0 -19 -5 -26 -19 -26 -11 0 -22 -4 -26 -10 -3 -5 -12 -7 -20 -3 -9 3 -15
-1 -15 -11 0 -9 -4 -16 -8 -16 -5 0 -15 -23 -22 -50 -11 -41 -17 -49 -32 -44
-15 4 -18 -1 -18 -34 0 -23 5 -42 12 -44 8 -3 1 -15 -18 -34 -17 -16 -34 -36
-37 -44 -3 -9 -6 -5 -6 10 -1 20 -3 22 -12 10 -8 -11 -12 -12 -16 -2 -6 14
-43 16 -43 2 0 -5 -9 -10 -20 -10 -11 0 -20 5 -20 10 0 6 -18 10 -40 10 -22 0
-40 -4 -40 -10 0 -5 -9 -10 -20 -10 -11 0 -20 5 -20 10 0 6 -9 10 -20 10 -16
0 -20 -7 -20 -30 0 -23 -4 -30 -20 -30 -13 0 -20 -7 -20 -20 0 -13 7 -20 20
-20 17 0 20 -7 20 -40 l0 -40 91 0 90 0 12 33 11 32 7 -40 c6 -34 3 -44 -16
-65 -13 -14 -27 -38 -31 -54 -11 -46 -31 -80 -37 -64 -5 12 -11 -26 -10 -59 1
-7 -5 -13 -13 -13 -8 0 -14 7 -14 16 0 9 -6 14 -12 11 -16 -5 -68 24 -68 38 0
6 -12 12 -26 13 -14 1 -39 13 -56 27 -16 14 -38 25 -47 25 -10 0 -31 13 -48
28 -22 22 -26 31 -17 40 6 6 15 8 18 5 3 -4 6 1 6 10 0 8 6 18 13 21 10 5 10
7 0 12 -8 3 -13 25 -13 55 0 46 -2 49 -26 49 -14 0 -33 -4 -42 -9 -51 -27
-231 -13 -225 17 2 7 -3 12 -11 12 -7 0 -16 9 -19 20 -6 23 -55 28 -87 8 -26
-16 -37 -3 -15 18 12 13 15 26 10 51 -14 78 -67 90 -86 21 -10 -38 -24 -44
-24 -11 0 9 -13 21 -30 26 -16 6 -38 19 -50 29 -22 21 -92 58 -110 58 -6 0
-23 6 -39 13 -22 10 -26 16 -20 37 3 14 8 53 11 88 4 58 3 62 -16 62 -18 0
-21 6 -21 40 0 33 3 40 20 40 11 0 20 7 20 15 0 11 12 15 49 15 77 0 111 10
116 34 18 74 6 95 -52 96 -18 0 -33 5 -33 10 0 6 -47 10 -120 10 -73 0 -120 4
-120 10 0 6 -9 10 -20 10 -13 0 -20 -7 -20 -20 0 -18 -7 -20 -82 -22 -46 -1
-100 -1 -120 0 -21 1 -38 -2 -38 -8 0 -5 -9 -10 -20 -10 -11 0 -20 -4 -20 -10
0 -5 -9 -10 -20 -10 -22 0 -27 -15 -7 -24 10 -5 10 -7 0 -12 -7 -3 -13 -14
-13 -25 0 -35 -51 -19 -101 32 -16 16 -35 29 -42 29 -8 0 -17 14 -20 30 -4 17
-13 30 -21 30 -8 0 -17 6 -19 13 -4 9 -8 8 -16 -3 -10 -13 -12 -13 -21 0 -9
13 -10 13 -10 0 0 -10 -3 -11 -8 -4 -4 6 -24 17 -44 25 -24 8 -34 17 -28 23 6
6 5 16 -1 28 -6 12 -6 18 1 18 5 0 10 9 10 20 0 13 -7 20 -20 20 -11 0 -20 5
-20 10 0 14 -38 12 -43 -2 -2 -8 -8 -9 -13 -4 -5 5 -4 11 4 13 19 7 14 23 -7
23 -11 0 -23 9 -26 20 -5 17 -15 20 -65 20 -54 0 -87 -13 -58 -22 9 -3 9 -6 0
-12 -7 -4 -12 -3 -12 3 0 6 -12 8 -30 5 -18 -4 -30 -2 -30 4 0 5 -21 23 -47
38 -42 24 -87 67 -73 70 3 0 -1 9 -9 18 -8 9 -20 15 -28 12 -7 -3 -13 -1 -13
4 0 6 -29 10 -65 10 -36 0 -65 4 -65 9 0 19 22 22 71 10 43 -11 52 -11 59 1
16 24 11 40 -10 40 -12 0 -20 7 -21 18 0 10 -3 12 -6 5 -2 -7 -13 -13 -24 -13
-10 0 -19 -7 -19 -15 0 -8 -9 -15 -19 -15 -11 0 -23 -5 -27 -11 -3 -6 -16 -8
-28 -4 -91 29 -353 42 -883 44 -230 1 -342 4 -345 12 -4 13 -82 19 -100 8 -11
-7 -10 -11 2 -18 10 -7 -2 -11 -40 -13 -52 -3 -55 -5 -65 -35 -5 -18 -14 -33
-20 -33 -5 0 -23 -26 -40 -58 -16 -31 -36 -62 -44 -68 -7 -6 -16 -34 -18 -61
-4 -39 -10 -52 -24 -56 -12 -3 -17 -11 -13 -21 9 -24 -5 -39 -23 -24 -14 11
-15 10 -9 -10 5 -13 3 -22 -3 -22 -6 0 -11 -10 -12 -22 0 -13 -3 -17 -6 -10
-7 19 -17 15 -56 -20 -30 -29 -36 -41 -42 -98 -4 -36 -9 -74 -10 -85 -2 -11
-4 -26 -4 -32 -1 -7 -6 -12 -12 -10 -6 1 -16 -7 -22 -18 -7 -10 -18 -25 -24
-33 -7 -7 -13 -24 -13 -37 0 -13 -4 -27 -10 -30 -5 -3 -10 -18 -10 -32 0 -21
-3 -23 -14 -14 -12 10 -14 9 -9 -7 3 -12 -1 -22 -11 -25 -9 -4 -16 -16 -16
-27 0 -11 -4 -20 -10 -20 -5 0 -10 -9 -10 -20 0 -23 -18 -27 -26 -5 -13 32
-25 1 -19 -46 5 -33 3 -49 -4 -49 -6 0 -11 -7 -11 -15 0 -8 -4 -15 -10 -15 -5
0 -10 8 -10 18 0 9 -5 24 -10 32 -6 10 -9 -5 -9 -50 1 -82 1 -90 -8 -89 -27 4
-35 -3 -31 -25 3 -15 0 -27 -8 -30 -8 -3 -14 -19 -14 -36 0 -18 -5 -30 -13
-30 -16 0 -79 -124 -75 -148 2 -11 -1 -19 -5 -20 -5 -1 -22 -30 -40 -64 -18
-35 -37 -66 -43 -70 -6 -4 -19 -28 -28 -53 -15 -37 -22 -45 -44 -46 -24 -2
-24 -2 -4 -6 26 -5 28 -18 5 -32 -17 -9 -17 -11 2 -25 17 -13 64 -15 315 -15
575 2 574 2 603 -25 32 -30 87 -49 113 -39 10 3 30 14 44 24 27 18 194 33 342
29 l76 -1 7 31 c10 46 44 120 55 120 14 0 12 -20 -4 -51 -18 -34 -28 -79 -18
-79 22 0 47 76 47 142 0 56 3 71 18 79 9 6 17 16 17 23 0 9 9 12 25 8 20 -3
24 -9 20 -23 -4 -13 -1 -19 9 -19 9 0 16 9 16 20 0 11 -4 20 -9 20 -12 0 -23
63 -15 84 8 22 32 20 52 -5 11 -13 23 -18 35 -14 20 8 23 25 5 25 -7 0 -2 7
10 16 13 9 27 27 32 40 12 30 39 42 51 23 14 -22 29 7 29 56 0 38 20 80 44 97
6 4 0 16 -17 30 -15 13 -27 31 -27 40 0 21 -17 32 -23 16 -3 -7 -6 -3 -6 9 -1
12 3 24 8 27 4 3 11 20 15 38 5 24 9 29 15 19 6 -9 12 3 21 38 13 54 38 81 77
81 18 0 22 6 22 28 -1 67 3 82 22 82 11 0 19 -4 19 -9 0 -5 21 -19 48 -32 26
-12 55 -31 65 -41 17 -17 17 -18 -5 -18 -43 0 -52 -14 -44 -67 3 -26 11 -49
16 -51 6 -2 10 -15 10 -28 0 -15 6 -24 15 -24 8 0 15 5 15 10 0 6 9 10 20 10
11 0 20 -4 20 -9 0 -5 16 -12 36 -16 43 -8 64 -26 64 -54 0 -12 5 -21 10 -21
6 0 10 -33 10 -80 l0 -80 -60 0 c-53 0 -60 -2 -60 -20 0 -13 -7 -20 -20 -20
-15 0 -20 -7 -20 -29 0 -41 22 -131 32 -131 4 0 8 -9 8 -19 0 -14 -5 -18 -20
-14 -14 4 -20 0 -20 -11 0 -9 -5 -16 -11 -16 -40 0 -52 -83 -14 -104 11 -6 24
-17 28 -23 4 -7 15 -13 23 -13 13 0 14 8 9 40 -4 26 -3 40 4 40 6 0 11 18 11
40 l0 40 95 0 c88 0 95 1 95 20 0 18 7 20 80 20 73 0 80 -2 80 -20 0 -13 7
-20 20 -20 18 0 20 -7 20 -80 0 -64 -3 -80 -15 -80 -8 0 -15 -9 -15 -20 0 -16
7 -20 35 -20 24 0 35 -5 35 -15 0 -11 11 -15 40 -15 33 0 40 -3 40 -20 0 -27
26 -25 34 3 3 12 6 64 6 115 0 57 4 92 11 92 5 0 15 14 20 30 6 17 17 30 25
30 8 0 14 5 14 10 0 6 57 10 151 10 117 0 154 -3 165 -14 18 -19 18 -26 -1
-26 -8 0 -15 -9 -15 -20 0 -11 7 -20 15 -20 11 0 15 -11 15 -40 l0 -40 100 0
c60 0 100 -4 100 -10 0 -5 11 -10 24 -10 15 0 27 -7 30 -17 5 -16 20 -18 113
-19 88 -1 115 -5 148 -22 32 -17 37 -22 23 -27 -21 -8 -24 -45 -4 -45 7 0 16
9 19 20 4 17 14 20 72 20 63 0 66 -1 49 -17 -13 -13 -19 -14 -22 -5 -4 14 -38
16 -47 2 -3 -5 -13 -10 -21 -10 -22 0 -53 -32 -36 -38 6 -2 12 -8 12 -13 0 -5
-36 -9 -80 -9 l-80 0 0 -58 c0 -45 -5 -63 -18 -76 -11 -9 -25 -34 -32 -56 -13
-39 -12 -41 16 -65 21 -18 41 -25 71 -25 23 0 45 -4 48 -10 3 -5 9 -10 13 -10
8 0 30 47 48 104 7 23 13 37 13 33 1 -5 11 -1 23 7 12 9 34 16 48 16 44 0 55
15 31 39 -26 26 -27 51 -2 51 11 0 22 8 24 18 4 13 5 11 6 -5 1 -29 31 -31 31
-2 0 18 5 20 48 18 42 -3 47 -1 50 19 2 12 7 22 12 22 5 0 11 14 15 30 7 30
35 43 35 15 0 -8 7 -15 15 -15 9 0 18 7 21 15 5 12 26 15 105 15 l99 0 0 -40
c0 -22 5 -40 10 -40 6 0 10 5 10 10 0 6 9 10 20 10 22 0 27 -15 8 -23 -7 -3
33 -6 90 -6 84 -1 102 -4 102 -16 0 -8 9 -15 20 -15 11 0 20 6 20 14 0 9 12
16 28 18 33 4 42 37 16 62 -9 9 -15 19 -13 21 2 2 193 6 424 10 267 4 415 3
406 -3 -11 -8 -11 -10 0 -15 10 -4 10 -6 2 -6 -7 -1 -13 -7 -13 -15 0 -8 -5
-16 -10 -18 -7 -2 -6 -13 2 -30 12 -26 18 -28 69 -28 l56 0 7 -37 c3 -21 6
-91 6 -155 0 -72 4 -118 10 -118 6 0 10 -17 10 -39 l0 -38 68 -6 c37 -3 69 -3
71 -1 9 8 1 79 -9 82 -5 2 -10 15 -10 28 0 14 4 22 10 19 6 -3 10 -14 10 -23
0 -18 42 -42 73 -42 14 0 17 -4 12 -17 -17 -42 -17 -53 0 -53 12 0 15 -5 10
-20 -4 -11 -2 -20 4 -20 6 0 11 18 11 40 0 51 20 53 21 3 1 -21 3 -30 6 -20 7
28 43 22 43 -8 l0 -25 100 0 c93 0 100 -1 100 -20 0 -13 7 -20 20 -20 18 0 20
-7 20 -60 0 -52 -2 -60 -19 -60 -10 0 -22 7 -25 16 -3 9 -13 14 -21 10 -12 -4
-13 -2 -3 14 9 14 14 16 20 7 5 -8 8 -5 8 9 0 15 -6 20 -22 20 -13 -1 -22 4
-21 12 2 6 -4 12 -12 12 -8 0 -15 -4 -15 -10 0 -5 -6 -10 -14 -10 -8 0 -18 -9
-21 -20 -3 -11 -13 -20 -21 -20 -8 0 -14 -9 -14 -20 0 -11 5 -20 10 -20 6 0
10 -18 10 -40 0 -33 -3 -40 -20 -40 -17 0 -20 -7 -20 -40 l0 -40 -80 0 c-73 0
-80 2 -80 20 0 14 -7 20 -24 20 -13 0 -27 6 -30 13 -5 10 -7 10 -12 0 -3 -8
-26 -14 -52 -15 l-47 -1 45 -6 c57 -8 58 -25 3 -29 -28 -2 -43 -8 -43 -16 0
-16 54 -41 68 -32 5 3 15 -1 22 -9 10 -12 37 -15 121 -15 l109 0 0 35 c0 28 4
35 20 35 16 0 20 -7 20 -34 0 -33 0 -33 56 -39 31 -3 58 -8 61 -11 3 -2 7 -22
10 -44 4 -33 9 -39 24 -35 14 4 19 14 19 37 0 24 3 27 10 16 8 -12 10 -11 10
8 0 18 6 22 30 22 l30 0 0 -60 c0 -47 -3 -60 -15 -60 -8 0 -15 -9 -15 -20 0
-11 -4 -20 -10 -20 -5 0 -10 -9 -10 -20 0 -30 40 -27 41 3 1 15 3 17 6 6 4
-16 31 -29 61 -29 8 0 12 19 12 60 0 53 -2 60 -20 60 -13 0 -20 7 -20 20 0 13
7 20 20 20 13 0 20 7 20 20 0 19 7 20 120 20 l120 0 0 110 c0 91 -3 110 -15
110 -11 0 -15 -12 -15 -50 0 -49 0 -50 -31 -50 -30 0 -31 2 -25 31 3 17 6 53
6 79 0 43 3 49 30 60 17 7 30 16 30 21 0 5 5 9 10 9 6 0 10 -9 10 -20 0 -13 7
-20 20 -20 11 0 20 -5 20 -10 0 -7 19 -9 49 -6 46 5 49 3 54 -19 2 -14 -2 -30
-9 -36 -11 -9 -14 -52 -14 -190 0 -172 1 -179 20 -179 19 0 20 7 20 99 0 70 4
101 13 104 9 3 9 9 -1 27 -12 19 -11 25 2 38 15 15 16 14 16 -6 0 -15 6 -22
20 -22 15 0 20 7 20 25 0 20 -5 25 -25 25 -14 0 -25 5 -25 10 0 6 8 10 18 10
9 0 24 5 32 11 13 9 12 10 -2 5 -35 -11 -48 4 -48 53 0 32 3 42 10 31 15 -23
20 -8 23 67 2 45 8 75 17 84 18 16 150 20 163 4 5 -6 7 2 4 18 -2 15 0 27 4
27 5 0 9 6 9 13 1 16 35 57 48 57 6 0 12 5 14 10 2 6 31 15 66 21 58 10 62 13
62 38 0 15 -5 32 -11 38 -13 13 -4 33 17 33 8 0 14 -10 14 -25 0 -29 34 -36
44 -9 9 22 8 24 -11 24 -10 0 -28 12 -42 28 -15 17 -25 23 -28 15 -3 -7 -9
-13 -14 -13 -5 0 -9 70 -9 160 0 153 1 160 20 160 11 0 20 6 20 14 0 18 45 26
151 26 l89 0 0 60 c0 47 3 60 15 60 11 0 15 11 15 40 0 40 0 40 39 40 l38 0 7
92 c3 50 6 113 6 140 0 45 -2 48 -25 48 -18 0 -25 5 -25 20 0 15 -7 20 -29 20
-33 0 -45 19 -31 54 8 23 7 24 -33 20 -23 -2 -33 -1 -22 2 28 8 43 24 23 24
-11 0 -16 9 -15 28 3 86 -4 152 -16 152 -7 0 -17 15 -22 33 -9 30 -13 32 -55
33 -25 1 -51 2 -57 3 -8 1 -13 17 -13 46 0 41 2 45 24 45 28 0 33 13 34 79 1
24 2 44 4 45 2 1 33 0 71 -2 l67 -4 0 -59 c0 -52 2 -59 20 -59 13 0 20 -7 20
-20 0 -17 7 -20 40 -20 27 0 40 -4 40 -14 0 -9 15 -13 53 -13 81 1 147 -12
147 -29 0 -8 9 -14 20 -14 11 0 20 7 20 15 0 12 13 15 61 15 l62 0 -6 -52 c-6
-63 21 -188 41 -188 7 0 29 -17 47 -37 l35 -38 0 38 c0 30 4 37 20 37 11 0 20
5 20 10 0 6 33 10 80 10 47 0 80 4 80 10 0 6 33 10 80 10 73 0 80 -2 80 -20 0
-11 9 -25 20 -32 21 -13 29 -68 10 -68 -5 0 -10 -8 -10 -18 0 -10 -5 -23 -11
-29 -8 -8 -11 -44 -10 -100 3 -118 5 -133 14 -133 4 0 7 -7 7 -16 0 -14 11
-16 70 -12 39 2 70 0 70 -4 0 -4 9 -8 20 -8 11 0 20 -7 20 -15 0 -8 9 -15 20
-15 12 0 20 7 20 18 0 10 9 25 20 35 25 21 37 22 20 2 -9 -11 -10 -18 -1 -28
6 -8 8 -17 4 -20 -3 -4 -2 -7 4 -7 13 0 23 23 24 58 1 17 3 21 6 10 3 -13 15
-18 44 -18 21 0 39 5 39 10 0 6 9 10 20 10 22 0 29 35 8 43 -9 3 -6 11 10 24
12 11 22 28 22 37 0 9 4 16 9 16 9 0 41 83 41 107 0 7 -7 13 -15 13 -8 0 -15
9 -15 19 0 12 -8 21 -22 24 l-23 4 23 2 c12 0 22 8 22 16 0 8 9 15 20 15 11 0
20 7 20 15 0 8 8 15 18 16 15 0 14 1 -3 8 -16 7 -14 9 14 14 51 11 151 8 151
-3 0 -5 15 -10 34 -10 29 0 33 -3 29 -20 -4 -15 -9 -18 -18 -10 -10 8 -15 0
-20 -40 -4 -28 -12 -50 -19 -50 -6 0 -17 -20 -25 -44 -7 -24 -28 -62 -47 -83
-19 -21 -34 -45 -34 -53 0 -8 -9 -30 -20 -48 -11 -18 -20 -46 -20 -62 0 -24
-5 -31 -27 -36 -49 -13 -62 -32 -56 -85 5 -41 3 -48 -16 -58 -12 -7 -19 -17
-15 -23 4 -6 1 -9 -7 -6 -8 3 -13 12 -11 22 4 22 -15 20 -28 -3 -13 -25 -13
-34 0 -26 17 10 23 -22 11 -57 -12 -35 -3 -49 29 -41 18 5 22 -10 37 -159 l5
-58 79 0 c46 0 79 -4 79 -10 0 -5 9 -10 20 -10 13 0 20 7 20 20 0 13 7 20 20
20 13 0 20 7 20 20 0 13 -7 20 -20 20 -13 0 -20 7 -20 20 0 13 7 20 20 20 13
0 20 7 20 20 0 13 7 20 20 20 22 0 28 -35 8 -43 -8 -3 -6 -6 5 -6 9 -1 17 -5
17 -11 0 -5 -8 -14 -17 -19 -10 -6 -12 -11 -5 -11 6 0 12 -7 12 -15 0 -8 9
-15 20 -15 13 0 20 7 20 20 0 11 5 20 10 20 6 0 10 -5 10 -11 0 -6 7 -4 15 5
17 17 20 46 5 46 -5 0 -10 9 -10 20 0 11 6 20 14 20 8 0 16 5 18 11 2 7 38 11
97 10 80 0 95 -3 110 -20 16 -19 31 -20 352 -20 209 -1 335 -5 337 -11 2 -6
10 -10 17 -10 8 0 34 -13 58 -30 25 -16 54 -30 66 -30 12 0 21 -4 21 -10 0 -5
18 -10 40 -10 33 0 40 -3 40 -20 0 -13 7 -20 20 -20 13 0 20 7 20 20 0 13 7
20 19 20 13 0 21 10 25 34 7 34 0 66 -14 66 -4 0 -10 12 -13 28 -11 50 -21 57
-84 61 -23 2 -43 33 -43 67 0 35 13 46 24 19 10 -26 25 -16 36 24 6 22 14 41
19 43 5 2 18 20 29 41 11 21 23 38 26 38 19 -2 24 1 30 16 4 9 1 20 -6 25 -10
8 -10 11 0 15 6 2 12 14 12 25 0 17 -2 18 -15 8 -22 -18 -42 2 -23 21 8 8 33
42 56 77 24 34 50 62 58 62 11 0 15 9 14 28 -3 43 -1 52 13 47 11 -5 54 73 46
85 -2 3 11 26 29 53 18 26 38 60 43 76 15 42 35 46 51 10 7 -16 15 -29 18 -29
3 0 5 -21 6 -47 1 -33 -4 -52 -15 -60 -15 -12 -14 -14 2 -27 9 -7 17 -18 17
-24 0 -6 9 -14 20 -17 11 -3 20 -15 20 -26 0 -12 7 -19 20 -19 13 0 20 7 20
20 0 13 7 20 20 20 14 0 22 11 31 40 7 22 16 40 21 40 4 0 8 18 8 40 0 22 -4
40 -10 40 -5 0 -10 -10 -10 -22 0 -12 -2 -19 -5 -16 -3 3 0 40 6 82 13 100 2
117 -77 115 -36 -2 -57 3 -68 14 -24 24 -19 37 14 37 32 0 50 22 50 64 0 19 5
26 20 26 11 0 20 -4 20 -10 0 -5 14 -10 30 -10 19 0 30 -5 30 -14 0 -22 23
-26 136 -26 l104 0 0 -60 c0 -53 2 -60 20 -60 13 0 20 7 20 20 0 13 7 20 20
20 13 0 20 -7 20 -20 0 -17 7 -20 40 -20 33 0 40 3 40 20 0 13 -7 20 -20 20
-17 0 -20 7 -20 40 0 33 3 40 20 40 13 0 20 7 20 20 0 17 7 20 40 20 l40 0 0
40 c0 33 3 40 20 40 17 0 20 7 20 40 l0 40 60 0 c33 0 60 4 60 10 0 6 -27 10
-60 10 -33 0 -60 4 -60 10 0 6 -9 10 -20 10 -13 0 -20 -7 -20 -20 0 -18 -7
-20 -80 -20 -80 0 -80 0 -80 26 l0 26 -95 -4 c-52 -2 -95 -1 -95 3 0 11 321
15 690 9 262 -4 321 -3 348 10 23 10 38 11 50 4 9 -5 27 -8 40 -6 l22 3 -2
252 -3 252 -40 -3 c-23 -2 -60 3 -83 11 -23 8 -39 11 -37 6 3 -4 -412 -6 -922
-5 -1244 5 -1470 7 -1455 13 8 3 12 26 12 65 0 49 3 59 15 54 8 -3 15 -3 15 0
0 13 -72 32 -142 39 l-78 7 0 -51 c0 -54 -3 -59 -26 -37 -16 17 -19 46 -4 46
6 0 10 9 10 20 0 11 5 20 10 20 6 0 10 23 10 50 0 45 -4 54 -40 90 -23 23 -38
45 -35 49 3 5 -4 7 -15 4 -15 -4 -20 0 -21 13 0 19 -1 19 -8 0 -13 -33 -41 7
-41 60 0 37 -3 44 -20 44 -16 0 -20 -7 -20 -35 0 -28 -4 -35 -20 -35 -16 0
-20 7 -20 36 0 27 -5 37 -20 41 -11 3 -20 10 -20 17 0 8 -2 8 -8 -1 -4 -6 -23
-16 -42 -21 -19 -6 -27 -11 -17 -11 9 -1 17 -7 17 -15 0 -8 5 -16 11 -18 7 -2
5 -13 -4 -31 -8 -16 -18 -24 -21 -18 -4 5 -2 12 4 16 18 11 11 25 -13 25 -24
0 -52 -34 -41 -51 3 -6 23 -9 43 -7 34 3 37 1 33 -19 -4 -23 -22 -33 -22 -13
0 6 -11 10 -25 10 -14 0 -25 -4 -25 -10 0 -5 -6 -10 -14 -10 -8 0 -18 -9 -21
-20 -3 -11 -13 -20 -21 -20 -10 0 -14 -12 -14 -40 l0 -40 -50 0 c-27 0 -50 -4
-50 -10 0 -5 -18 -10 -40 -10 -22 0 -40 5 -40 10 0 6 -18 10 -40 10 -33 0 -40
-3 -40 -20 0 -13 -7 -20 -20 -20 -13 0 -20 -7 -20 -20 0 -17 -7 -20 -40 -20
-33 0 -40 3 -40 19 0 11 6 22 13 25 10 5 10 7 0 12 -15 7 -18 64 -3 64 6 0 10
9 10 20 0 11 -7 20 -15 20 -8 0 -15 7 -15 15 0 8 -7 15 -15 15 -9 0 -15 9 -15
25 0 14 -3 25 -7 25 -5 0 -9 12 -9 26 -1 14 0 23 3 20 11 -11 38 28 35 51 -2
12 1 23 7 23 6 0 11 9 11 20 0 11 -4 20 -10 20 -5 0 -10 9 -10 19 0 23 -23 33
-56 25 -15 -4 -24 -13 -24 -25 0 -21 16 -26 23 -6 3 6 6 2 6 -10 1 -18 -5 -23
-24 -23 -23 0 -25 -4 -24 -42 0 -24 3 -38 5 -31 3 7 11 10 18 7 8 -3 16 2 19
10 6 16 37 23 37 9 -1 -10 -86 -53 -105 -53 -9 0 -15 9 -15 21 0 16 -5 20 -20
16 -11 -3 -23 -1 -26 4 -3 5 0 9 5 9 6 0 11 4 11 9 0 5 -6 9 -12 8 -35 -1 -48
5 -48 21 -1 14 -2 15 -9 2 -13 -23 -1 -90 15 -90 8 0 14 7 14 15 0 8 5 15 10
15 6 0 10 -11 10 -24 0 -19 -4 -23 -20 -19 -11 3 -27 0 -35 -7 -12 -10 -15 -9
-15 4 0 9 -4 16 -10 16 -13 0 -13 -37 1 -42 5 -2 7 -11 4 -21 -5 -11 -18 -17
-41 -17 -22 0 -34 -5 -34 -14 0 -8 -11 -17 -24 -20 -13 -3 -26 -15 -29 -26 -3
-11 -12 -20 -21 -20 -9 0 -16 -8 -16 -20 0 -11 -7 -20 -15 -20 -8 0 -15 5 -15
10 0 6 -7 10 -15 10 -8 0 -15 -4 -15 -10 0 -5 -6 -10 -14 -10 -8 0 -18 -9 -21
-20 -3 -11 -13 -20 -21 -20 -8 0 -14 -9 -14 -21 0 -11 4 -18 9 -15 5 3 15 -14
22 -39 7 -25 17 -45 21 -45 3 0 10 -9 13 -20 8 -27 23 -25 27 3 2 17 11 23 36
25 22 2 32 -1 32 -11 0 -15 45 -23 205 -36 62 -5 -16 -8 -247 -9 -185 -1 -343
1 -352 4 -9 3 -13 10 -10 15 3 5 -2 9 -11 9 -12 0 -15 -5 -9 -22 11 -35 7 -55
-15 -77 -12 -12 -21 -25 -21 -30 0 -13 -25 -20 -49 -14 -12 3 -21 13 -21 24 0
11 -4 19 -10 19 -5 0 -10 9 -10 20 0 11 7 20 15 20 11 0 15 11 15 40 0 38 2
40 30 40 27 0 30 3 30 30 0 17 -4 30 -10 30 -5 0 -10 -4 -10 -10 0 -5 -9 -10
-20 -10 -11 0 -20 3 -20 6 0 11 29 34 44 34 9 0 16 5 16 10 0 6 9 10 20 10 11
0 20 -4 20 -10 0 -5 9 -10 20 -10 11 0 20 5 20 10 0 14 37 12 44 -2 3 -7 3 -3
0 10 -4 18 -1 22 20 22 19 0 26 5 26 19 0 10 -7 21 -14 24 -12 5 -16 36 -19
144 -3 76 -8 155 -12 176 l-7 37 -82 2 c-118 3 -118 3 -149 -5 -16 -4 -26 -4
-24 0 3 4 -25 7 -63 5 -57 -3 -69 -7 -73 -23 -3 -10 -1 -19 5 -19 6 0 8 -6 5
-14 -4 -10 3 -17 23 -21 37 -8 49 -45 14 -45 -13 0 -24 5 -24 10 0 6 -7 10
-15 10 -8 0 -15 -7 -15 -15 0 -8 -5 -15 -11 -15 -6 0 -20 -11 -31 -25 -19 -24
-21 -25 -34 -8 -12 16 -13 15 -14 -14 0 -17 -4 -35 -10 -38 -5 -3 -10 -23 -10
-44 0 -67 -11 -101 -31 -101 -11 0 -19 -3 -19 -8 0 -14 -95 -1 -107 16 -7 9
-13 37 -13 62 0 97 -12 169 -29 173 -9 3 2 5 24 6 43 1 79 19 58 28 -7 2 -13
11 -13 18 0 7 -7 15 -15 19 -9 3 -15 18 -15 40 0 21 -6 36 -15 40 -8 3 -15 15
-15 26 0 11 -3 20 -8 20 -4 0 -6 18 -4 40 2 22 9 40 15 40 5 0 -3 11 -19 25
-16 14 -24 25 -18 25 15 0 25 26 18 45 -8 20 -40 19 -48 -1 -3 -9 -6 -34 -6
-56 0 -57 -9 -43 -13 21 -3 36 -11 59 -27 75 -26 28 -60 40 -60 21z m1680
-1415 c53 -7 51 -8 -40 -11 -85 -3 -88 -3 -29 -6 65 -4 67 -4 73 -35 3 -17 6
-46 6 -65 0 -19 7 -42 16 -50 11 -11 14 -26 9 -50 -4 -23 -2 -33 7 -34 7 0 3
-5 -9 -11 -24 -12 -93 -3 -93 12 0 6 -7 10 -15 10 -8 0 -15 -7 -15 -15 0 -10
-10 -15 -34 -15 -52 0 -66 -9 -66 -41 0 -16 -4 -29 -10 -29 -5 0 -10 -18 -10
-40 l0 -40 -55 0 -55 0 0 53 c1 83 15 124 59 172 40 43 41 47 41 114 0 104 -1
103 89 95 42 -3 101 -10 131 -14z m-5270 -30 c0 -5 17 -10 38 -10 41 0 52 -6
68 -35 8 -15 23 -21 60 -23 27 -2 52 -9 56 -15 6 -9 10 -8 17 3 6 8 13 11 18
7 4 -5 1 -12 -7 -18 -12 -7 -12 -11 -2 -17 10 -7 10 -11 -3 -22 -8 -7 -15 -19
-15 -26 0 -17 -4 -17 -52 -3 -21 5 -38 14 -38 19 0 5 -17 14 -38 20 -22 5 -47
19 -57 30 -10 11 -24 20 -31 20 -7 0 -16 5 -20 11 -12 19 -14 69 -4 69 6 0 10
-4 10 -10z m-676 -590 c67 -39 95 -60 92 -71 -2 -12 3 -15 22 -11 21 4 24 2
20 -16 -5 -18 -3 -19 13 -9 15 9 27 7 61 -11 74 -39 93 -52 81 -52 -9 0 -13
-17 -13 -49 0 -39 4 -51 18 -54 9 -3 -13 -5 -50 -6 -62 -1 -68 1 -68 19 0 15
-7 20 -25 20 -18 0 -25 5 -25 19 0 13 -10 20 -31 25 -72 14 -119 5 -119 -24 0
-10 -9 -22 -20 -25 -11 -3 -20 -13 -20 -21 0 -10 -12 -14 -40 -14 -33 0 -40 3
-40 20 0 11 -4 20 -10 20 -6 0 -10 28 -10 65 0 37 4 65 10 65 6 0 10 16 10 35
0 34 1 35 40 35 36 0 40 3 40 25 0 15 -6 26 -15 26 -28 3 -33 4 -40 11 -10 10
3 41 14 36 5 -2 53 -28 105 -58z"/>
<path d="M14703 8833 c-19 -4 -23 -11 -23 -39 l0 -34 79 0 c44 0 81 -4 83 -10
2 -5 39 -16 83 -23 70 -12 83 -12 105 2 14 8 26 16 28 17 8 4 -13 36 -30 45
-34 18 -64 19 -102 4 -19 -8 -47 -15 -61 -15 -21 0 -25 5 -25 30 l0 30 -57 -1
c-32 -1 -68 -4 -80 -6z"/>
<path d="M2070 8040 c-8 -11 -24 -20 -35 -20 -29 0 -43 -12 -50 -43 -6 -22
-13 -27 -36 -27 -16 0 -44 6 -62 13 -18 8 -38 12 -44 10 -7 -3 -13 -1 -13 4 0
4 -108 8 -241 8 -229 0 -241 -1 -255 -20 -9 -11 -20 -19 -25 -17 -5 1 -9 -7
-9 -18 0 -11 -7 -28 -16 -38 -8 -10 -26 -50 -39 -88 -29 -83 -42 -109 -72
-151 -27 -37 -93 -177 -93 -197 0 -7 -9 -16 -21 -19 -11 -3 -23 -15 -26 -26
-6 -22 -23 -29 -23 -10 0 6 -7 4 -15 -5 -8 -8 -15 -22 -15 -31 0 -9 -5 -25
-10 -36 -10 -17 -13 -40 -19 -113 0 -11 -6 -16 -15 -13 -9 4 -16 -3 -20 -19
-4 -13 -15 -33 -25 -43 -17 -17 -51 -106 -51 -134 0 -8 -7 -17 -15 -21 -8 -3
-15 0 -15 7 0 8 -4 7 -9 -3 -6 -8 -7 -18 -5 -22 3 -4 -1 -6 -8 -3 -20 7 -62
-87 -54 -119 4 -15 2 -26 -4 -26 -17 0 -11 -48 8 -59 16 -10 16 -10 0 -11 -11
0 -18 -8 -18 -18 0 -26 41 -21 51 5 8 23 31 28 169 38 47 4 117 13 157 21 40
8 89 14 110 14 21 0 48 6 59 14 11 8 30 16 43 18 13 1 27 10 31 18 4 8 12 25
18 37 7 13 12 35 12 49 0 31 62 144 68 125 2 -7 -3 -20 -12 -30 -18 -19 -21
-47 -7 -55 5 -3 12 -36 16 -73 7 -62 5 -68 -17 -84 -12 -10 -23 -21 -23 -26
-1 -18 -27 -53 -39 -53 -15 0 -35 -44 -67 -150 -13 -41 -29 -79 -36 -83 -7 -4
-13 -15 -13 -22 0 -8 -7 -15 -15 -15 -8 0 -18 -12 -21 -27 -4 -16 -11 -31 -17
-34 -5 -4 -13 -27 -18 -52 -9 -48 -43 -96 -53 -74 -2 7 -5 -5 -5 -25 -1 -28 3
-38 14 -38 8 0 15 3 15 8 0 4 1119 8 2487 10 1369 2 2490 6 2493 8 2 3 -3 2
-13 -2 -20 -7 -21 -1 -6 27 5 11 15 17 20 13 6 -3 13 3 16 15 6 23 19 28 26 9
3 -7 6 4 6 25 1 20 6 37 11 37 6 0 10 8 10 19 0 10 11 30 24 43 13 14 26 45
30 67 5 34 13 46 41 62 19 12 35 28 35 37 0 37 87 229 113 251 9 7 19 29 23
50 7 36 33 71 55 71 6 0 8 -7 5 -16 -3 -9 -6 -20 -6 -25 0 -6 -4 -8 -9 -5 -5
4 -7 -3 -4 -14 4 -16 11 -18 32 -13 14 3 29 11 33 17 13 20 1 79 -18 89 -11 5
-20 11 -22 13 -6 4 26 60 42 73 9 8 16 24 16 37 0 12 5 26 11 30 10 6 20 8 67
13 6 0 12 8 12 16 0 9 7 18 15 21 8 4 15 13 15 21 0 10 6 12 20 8 26 -8 43 31
31 72 -5 15 -7 40 -5 56 2 21 -2 27 -17 27 -10 0 -19 5 -19 10 0 6 5 10 10 10
6 0 10 7 10 15 0 9 6 12 16 8 24 -9 54 34 54 77 0 20 6 44 14 55 32 48 76 136
76 153 0 11 6 24 13 30 7 6 20 35 27 63 8 28 26 64 41 80 35 37 41 56 28 80
-10 20 -20 20 -557 16 -478 -3 -553 -6 -592 -20 -50 -19 -120 -23 -120 -7 0 6
-9 10 -20 10 -22 0 -27 -15 -7 -23 7 -3 5 -6 -5 -6 -10 -1 -18 -5 -18 -11 0
-5 -12 -10 -28 -10 -15 0 -48 -11 -74 -25 -49 -26 -78 -32 -78 -15 0 6 -5 10
-12 10 -6 0 -8 -3 -5 -7 4 -4 -6 -12 -23 -19 -24 -10 -30 -19 -30 -42 0 -16
-7 -35 -15 -42 -8 -7 -17 -27 -21 -45 -3 -20 -18 -42 -35 -56 -16 -12 -29 -28
-29 -34 0 -7 -7 -15 -15 -19 -9 -3 -15 -19 -15 -41 0 -19 -4 -35 -9 -35 -5 0
-12 -18 -16 -40 -9 -50 -31 -97 -53 -110 -9 -5 -13 -10 -9 -10 5 0 -1 -13 -13
-29 -11 -17 -32 -55 -46 -86 -15 -31 -32 -59 -40 -62 -8 -3 -14 -11 -14 -17 0
-17 -24 -66 -32 -66 -4 0 -9 4 -12 8 -9 15 -76 0 -87 -19 -9 -17 -6 -19 36
-19 36 0 45 -3 45 -17 0 -15 -2 -16 -10 -3 -7 12 -12 12 -22 2 -8 -8 -9 -12
-1 -12 26 0 10 -41 -64 -165 -7 -11 -15 -27 -18 -35 -4 -8 -11 -22 -16 -30 -5
-8 -12 -22 -15 -30 -13 -35 -39 -77 -61 -99 -13 -13 -23 -33 -23 -43 0 -11 -6
-32 -14 -46 -7 -15 -24 -47 -36 -72 -13 -25 -28 -52 -35 -60 -7 -8 -10 -21 -8
-27 3 -7 -2 -13 -11 -13 -9 0 -16 6 -16 14 0 9 -7 12 -20 9 -11 -3 -20 -11
-20 -18 0 -7 -6 -16 -12 -18 -7 -3 -3 -6 10 -6 12 -1 22 4 22 10 0 5 4 7 10 4
16 -10 12 -38 -5 -31 -8 3 -15 1 -15 -4 0 -6 -8 -10 -18 -10 -10 0 -22 -3 -25
-7 -4 -3 -31 -15 -59 -25 -50 -17 -120 -18 -1567 -18 -1199 0 -1517 3 -1523
13 -6 9 -10 9 -18 -3 -8 -12 -10 -9 -10 13 0 23 4 27 30 27 23 0 30 4 30 20 0
11 6 20 14 20 16 0 31 34 22 49 -3 5 1 22 9 37 8 16 15 37 15 47 0 10 7 20 15
23 8 4 15 17 15 30 0 13 4 24 8 24 14 0 32 48 25 67 -5 15 -3 15 11 -2 10 -11
15 -14 11 -7 -3 6 -1 12 4 12 8 0 9 19 5 55 -5 38 -3 55 5 55 6 0 11 8 11 18
0 11 9 27 20 37 11 10 20 29 20 42 0 27 18 31 27 6 6 -15 7 -14 14 3 4 10 5
29 2 40 -2 12 0 25 6 28 7 4 11 -1 11 -12 0 -18 3 -19 25 -9 30 14 34 42 5 34
-17 -4 -20 0 -19 26 0 29 1 30 9 10 5 -13 17 -23 27 -22 11 0 13 3 6 6 -24 9
-15 44 42 168 8 16 15 36 17 44 2 7 13 25 25 39 17 18 20 29 13 43 -7 12 -7
20 0 24 5 3 10 -3 10 -14 0 -12 5 -21 10 -21 6 0 10 7 10 15 0 15 16 19 53 16
11 -2 17 5 17 18 0 12 -6 21 -14 21 -18 0 -32 20 -20 29 14 10 44 67 44 84 0
8 7 20 15 27 8 7 15 24 15 37 0 21 2 23 15 13 19 -16 35 -4 35 25 0 13 4 25 9
27 5 2 11 24 13 49 3 28 13 55 26 69 11 12 23 34 27 48 7 28 23 52 34 52 4 0
7 -28 6 -62 0 -71 19 -98 62 -90 19 3 23 11 23 37 0 18 -5 35 -11 37 -9 3 -9
12 -1 34 8 22 11 24 12 9 1 -20 30 58 30 83 0 19 -48 15 -54 -6 -3 -10 -14
-18 -23 -18 -10 -1 -26 -4 -35 -9 -14 -5 -18 -2 -18 12 0 25 52 63 85 63 40 0
29 32 -13 41 -19 4 -39 12 -45 18 -6 6 -21 11 -34 11 -33 0 -113 23 -113 32 0
14 -15 8 -30 -12z m-363 -525 c5 -39 12 -45 20 -17 3 13 13 22 25 22 18 0 19
-4 13 -37 -4 -21 -10 -40 -15 -43 -4 -3 -10 -15 -14 -27 -4 -11 -18 -24 -33
-27 -21 -6 -24 -11 -20 -34 6 -32 -16 -82 -28 -62 -12 19 -25 -8 -25 -52 0
-27 -4 -38 -15 -38 -8 0 -15 -7 -15 -16 0 -9 -7 -22 -16 -28 -9 -7 -20 -28
-25 -46 -8 -32 -8 -31 -3 10 3 24 9 49 13 55 12 15 31 97 25 107 -3 5 -10 6
-15 3 -12 -8 -11 -2 3 32 6 15 12 31 12 35 1 4 7 13 14 20 6 6 12 17 12 24 0
23 64 154 73 151 6 -2 12 -16 14 -32z"/>
<path d="M19160 7056 c0 -8 -18 -18 -44 -25 -65 -16 -75 -35 -25 -48 37 -10
41 -9 49 11 8 19 9 18 11 -9 1 -16 1 -67 0 -111 -3 -89 5 -147 20 -138 5 3 9
-37 9 -96 0 -87 -2 -101 -15 -96 -9 3 -15 0 -15 -9 0 -8 9 -15 20 -15 11 0 20
-5 20 -11 0 -6 -9 -8 -20 -4 -24 7 -27 -16 -9 -62 7 -17 13 -108 14 -228 3
-274 9 -402 18 -411 4 -5 7 279 7 629 -1 622 -2 637 -21 637 -10 0 -19 -6 -19
-14z"/>
<path d="M15643 6298 c-12 -13 -25 -40 -28 -61 -4 -21 -14 -41 -21 -44 -31
-12 1 -93 36 -93 6 0 10 -4 10 -10 0 -5 9 -10 20 -10 11 0 20 6 20 14 0 8 11
17 24 20 22 5 24 12 28 88 3 46 1 91 -4 101 -13 24 -60 22 -85 -5z"/>
<path d="M1 4914 c1 -474 3 -545 14 -519 8 17 14 35 15 41 0 14 48 104 65 124
7 8 20 32 28 53 9 20 22 37 30 37 8 0 22 21 32 48 10 26 23 54 30 62 7 8 16
25 19 36 4 12 15 29 26 39 19 17 20 17 20 -3 0 -37 30 -21 67 35 9 13 21 22
27 20 6 -2 20 -1 30 3 17 6 16 10 -17 40 -53 47 -48 56 28 52 60 -3 66 -2 75
20 6 12 19 37 30 53 11 17 25 43 31 58 10 26 13 27 28 12 18 -16 31 -11 31 12
0 19 53 92 68 93 6 0 12 6 12 14 0 8 3 21 6 29 3 9 -3 16 -16 20 -19 5 -20 8
-10 27 9 16 15 19 23 11 17 -17 27 -13 27 12 -1 32 -37 53 -107 61 -34 4 -75
14 -92 22 -20 10 -71 16 -158 19 -70 2 -181 7 -245 11 l-118 6 1 -548z"/>
<path d="M12984 5043 c-16 -3 -24 -14 -29 -41 -4 -23 -3 -38 4 -40 6 -2 11
-12 11 -22 0 -27 24 -47 65 -54 47 -9 65 10 68 72 1 33 -3 53 -14 64 -18 18
-71 29 -105 21z"/>
<path d="M12635 4833 c-3 -16 -14 -36 -22 -45 -17 -19 -53 -24 -53 -8 0 6 10
10 22 10 12 0 19 3 16 6 -11 11 -78 -8 -78 -22 0 -8 -4 -14 -10 -14 -5 0 -10
-13 -10 -30 0 -20 -5 -30 -15 -30 -12 0 -15 -15 -15 -77 0 -43 5 -109 10 -148
7 -48 7 -71 0 -73 -5 -2 -10 -21 -10 -43 0 -53 -18 -50 -23 4 l-4 42 -1 -42
c-2 -36 -5 -43 -22 -43 -17 0 -20 -7 -20 -40 0 -22 -4 -40 -9 -40 -5 0 -12
-19 -16 -42 -4 -24 -11 -48 -16 -54 -5 -6 -12 -63 -15 -125 -4 -85 -9 -116
-20 -122 -8 -5 -12 -12 -9 -17 3 -4 -12 -11 -32 -15 -20 -3 -42 -13 -49 -20
-17 -17 -18 -42 -1 -48 9 -3 9 -9 -2 -30 -16 -30 -72 -58 -79 -39 -4 14 -32
16 -32 2 0 -5 -9 -10 -20 -10 -18 0 -20 -7 -20 -60 0 -53 -2 -60 -20 -60 -17
0 -20 -8 -23 -82 l-3 -83 -2 83 c-2 68 -5 82 -18 82 -14 0 -16 13 -14 93 3
123 3 127 -16 127 -32 0 -64 -48 -64 -96 0 -24 -4 -44 -10 -44 -5 0 -10 -11
-10 -24 0 -43 -10 -56 -44 -56 -23 0 -34 -6 -43 -25 -6 -14 -7 -25 -2 -25 18
0 8 -23 -23 -52 -28 -26 -37 -29 -68 -22 -19 4 -70 7 -113 5 -72 -2 -79 0 -84
18 -3 12 -10 21 -17 21 -7 0 -11 19 -10 50 1 36 -2 50 -12 50 -8 0 -14 5 -14
10 0 6 -38 10 -95 10 l-95 0 0 40 0 40 -100 0 c-93 0 -100 -1 -100 -20 0 -12
-7 -20 -16 -20 -15 0 -44 -23 -44 -35 0 -4 -7 -13 -15 -21 -13 -14 -15 -14
-15 0 0 9 -4 16 -9 16 -5 0 -12 10 -14 23 -2 12 -5 -7 -6 -43 -2 -36 -5 -59
-8 -52 -3 7 -25 12 -57 12 -45 0 -54 3 -66 24 -14 26 -37 36 -89 36 -26 0 -32
-3 -27 -15 3 -10 -1 -18 -12 -22 -9 -4 -20 -11 -24 -17 -7 -11 -95 -18 -127
-9 -12 3 -21 11 -21 17 0 7 -14 10 -40 8 -33 -3 -40 -8 -40 -26 0 -35 -36 -66
-78 -67 -20 0 -49 -2 -64 -4 -16 -2 -28 1 -28 6 0 5 -18 9 -40 9 -29 0 -40 4
-40 15 0 8 -9 15 -20 15 -11 0 -20 -5 -20 -11 0 -6 -7 -17 -15 -25 -9 -9 -15
-34 -15 -60 0 -24 -6 -53 -12 -64 -10 -16 -10 -22 -1 -28 6 -4 14 -24 18 -45
4 -20 11 -37 17 -37 5 0 6 -5 2 -11 -4 -8 -12 -2 -21 14 -9 18 -19 24 -29 20
-9 -3 -20 0 -26 8 -7 10 -8 4 -4 -18 4 -25 2 -33 -9 -33 -8 0 -15 -7 -15 -16
0 -9 -7 -31 -16 -50 -13 -28 -22 -34 -46 -34 -29 0 -30 -2 -24 -30 4 -22 2
-30 -9 -30 -8 0 -15 -7 -15 -15 0 -8 -4 -15 -10 -15 -5 0 -10 -7 -10 -15 0 -8
4 -15 9 -15 20 0 19 -43 -2 -64 -12 -12 -21 -30 -19 -39 2 -9 -2 -17 -8 -17
-7 0 -9 -8 -5 -20 7 -22 -20 -30 -28 -7 -3 8 -9 6 -19 -7 -15 -20 -88 -32 -88
-15 0 6 -19 8 -47 4 -90 -12 -93 -13 -93 -45 0 -17 -4 -30 -10 -30 -6 0 -10
-33 -10 -80 0 -47 4 -80 10 -80 6 0 10 -9 10 -20 0 -11 5 -20 10 -20 6 0 10
-9 10 -20 0 -13 7 -20 20 -20 11 0 20 -5 20 -11 0 -5 -4 -8 -9 -5 -4 3 -18 -3
-30 -13 -16 -14 -21 -30 -21 -65 l0 -46 -50 0 c-27 0 -50 -4 -50 -10 0 -6 -53
-10 -140 -10 -133 0 -140 1 -140 20 0 17 -7 20 -40 20 l-40 0 0 80 c0 73 -2
80 -20 80 -16 0 -20 -7 -20 -30 0 -23 -4 -30 -20 -30 -11 0 -20 5 -20 10 0 6
-18 10 -40 10 -22 0 -40 -4 -40 -10 0 -5 -9 -10 -20 -10 -11 0 -20 5 -20 10 0
6 -47 10 -120 10 l-120 0 0 40 0 40 60 0 60 0 0 40 0 40 -100 0 c-93 0 -100 1
-100 20 0 18 -7 20 -72 21 -97 1 -181 13 -186 27 -7 22 -60 13 -80 -13 -22
-28 -62 -34 -62 -9 0 11 6 15 20 11 18 -5 20 0 20 49 0 47 -2 54 -20 54 -13 0
-20 7 -20 20 0 15 -7 20 -29 20 -18 0 -41 10 -57 25 -15 14 -45 30 -67 37 -24
7 -43 21 -50 35 -8 17 -18 23 -44 23 -26 0 -33 4 -33 20 0 18 -7 20 -60 20
l-60 0 0 -40 c0 -22 5 -40 10 -40 6 0 10 -13 10 -30 0 -35 -13 -39 -33 -10 -8
11 -17 17 -20 13 -4 -3 -7 1 -7 9 0 9 -6 19 -12 22 -10 5 -10 7 0 12 9 4 12
41 12 135 l0 129 -40 0 c-39 0 -40 1 -40 34 0 19 -4 38 -10 41 -5 3 -10 15
-10 26 0 18 -8 19 -130 19 l-130 0 0 -40 c0 -33 -3 -40 -20 -40 -18 0 -20 7
-20 60 0 45 -4 60 -14 60 -15 0 -26 21 -26 51 0 10 -4 19 -9 19 -5 0 -16 3
-24 6 -10 3 -17 -3 -21 -19 -4 -19 -11 -24 -26 -20 -18 5 -20 0 -20 -36 0 -22
5 -41 10 -41 6 0 10 -10 9 -22 0 -13 -3 -17 -6 -10 -2 6 -11 12 -18 12 -7 0
-16 6 -18 13 -4 10 -6 10 -6 0 -1 -7 -7 -13 -13 -13 -7 0 -24 -14 -37 -30
l-24 -31 -19 21 c-10 11 -28 20 -40 20 -11 0 -26 7 -32 16 -7 8 -32 18 -56 21
-25 3 -50 9 -56 14 -6 5 -37 12 -70 15 -32 4 -64 13 -71 19 -16 17 -113 27
-152 15 -47 -13 -600 -13 -617 1 -7 5 -41 12 -76 13 -35 2 -55 1 -45 -1 9 -3
15 -9 12 -14 -4 -5 -15 -5 -27 2 -15 8 -22 8 -28 -1 -6 -10 -49 -11 -184 -5
l-176 7 0 -24 c0 -27 -21 -78 -32 -78 -5 0 -11 0 -15 -1 -5 0 -11 10 -15 23
l-6 23 -1 -22 c-1 -24 -26 -32 -34 -10 -3 7 -6 4 -6 -6 -1 -10 -8 -25 -16 -34
-12 -11 -15 -33 -14 -81 2 -56 -1 -68 -19 -82 -13 -11 -22 -32 -25 -59 -2 -24
-10 -46 -17 -51 -8 -5 -15 -15 -16 -24 -1 -9 -10 -23 -19 -32 -9 -10 -14 -26
-12 -36 4 -13 1 -18 -7 -15 -11 5 -36 -32 -50 -75 -3 -11 -15 -18 -31 -18 -24
0 -25 -2 -19 -35 5 -28 1 -43 -19 -73 -13 -20 -27 -49 -31 -63 -5 -21 -10 -25
-29 -22 -17 3 -33 -3 -51 -22 -15 -15 -30 -24 -33 -21 -4 3 4 14 15 25 27 23
28 31 3 31 -11 0 -22 6 -24 13 -4 10 -6 10 -6 0 -1 -7 -10 -13 -21 -13 -13 0
-20 -7 -20 -20 0 -11 -7 -20 -15 -20 -8 0 -15 -4 -15 -10 0 -5 -21 -10 -46
-10 -55 0 -74 -16 -74 -64 0 -29 -4 -36 -20 -36 -13 0 -20 -7 -20 -20 0 -13 7
-20 19 -20 15 0 19 -7 19 -37 0 -21 5 -39 11 -41 17 -6 14 -130 -4 -148 -19
-19 -19 -53 0 -78 21 -28 18 -43 -7 -42 -13 1 -26 -3 -30 -9 -5 -6 -8 -6 -8 3
0 6 -4 12 -10 12 -5 0 -10 -13 -10 -30 0 -16 5 -30 10 -30 6 0 10 -13 10 -30
0 -24 -4 -30 -21 -30 -15 0 -19 -5 -15 -15 3 -8 1 -15 -4 -15 -6 0 -10 20 -10
45 0 38 -3 45 -20 45 -11 0 -20 5 -20 10 0 6 -7 10 -15 10 -8 0 -15 5 -15 10
0 6 -9 10 -20 10 -12 0 -20 -7 -20 -18 0 -9 -9 -23 -20 -30 -33 -20 -26 -136
10 -145 9 -2 23 -18 31 -36 8 -17 19 -31 25 -31 16 0 25 -26 17 -47 -3 -10
-17 -30 -30 -45 -17 -17 -23 -33 -19 -45 6 -19 21 -20 224 -27 119 -4 228 -9
242 -11 14 -1 37 -3 53 -4 20 -1 27 -6 27 -21 0 -11 5 -20 10 -20 6 0 10 -9
10 -20 0 -11 7 -20 15 -20 8 0 15 -7 15 -15 0 -8 7 -15 15 -15 8 0 15 7 15 15
0 8 9 15 20 15 13 0 20 7 20 20 0 17 7 20 40 20 33 0 40 3 40 20 0 18 7 20 80
20 73 0 80 -2 80 -20 0 -11 5 -20 10 -20 6 0 10 -27 10 -60 0 -33 4 -60 9 -60
5 0 11 -9 14 -20 3 -11 12 -20 21 -20 14 0 16 15 16 100 l0 100 78 0 c43 0 82
4 88 9 5 6 81 12 169 15 219 6 236 9 234 44 0 14 -2 15 -7 2 -4 -8 -15 -16
-25 -18 -15 -3 -17 1 -12 19 4 12 12 27 17 33 5 6 15 20 23 31 13 20 14 20 22
-3 8 -22 9 -22 26 8 10 17 29 41 41 53 13 13 25 28 27 34 5 13 19 16 77 14 35
-1 42 -4 42 -21 0 -11 -7 -20 -15 -20 -8 0 -15 -4 -15 -10 0 -15 18 -12 51 7
35 21 36 26 44 125 3 53 12 89 27 115 39 70 45 73 118 73 37 0 95 3 129 6 l61
7 0 38 c0 39 0 39 -40 39 -33 0 -40 3 -40 20 0 13 7 20 20 20 22 0 24 9 11 60
-5 19 -12 61 -16 93 l-7 59 21 -21 c38 -38 71 -20 71 37 0 30 2 33 23 26 12
-3 30 -15 40 -25 10 -11 28 -19 41 -19 14 0 30 -10 41 -26 10 -15 22 -23 31
-20 8 3 14 1 14 -4 0 -5 15 -17 33 -26 17 -9 36 -23 40 -30 9 -16 71 -44 96
-44 15 0 41 -41 41 -66 0 -13 22 -24 51 -24 15 0 19 -7 19 -39 0 -52 8 -71 31
-71 10 0 19 -7 19 -15 0 -16 43 -31 59 -20 6 3 26 -1 45 -10 34 -16 56 -14 56
6 0 26 53 52 62 31 3 -10 138 -92 149 -92 4 0 10 -14 14 -31 6 -28 10 -31 39
-26 32 5 112 -32 129 -59 4 -7 21 -15 37 -19 32 -7 51 -25 26 -25 -9 0 -16 -7
-16 -16 0 -15 -2 -15 -25 0 -16 11 -46 16 -90 16 l-65 0 0 -40 c0 -33 3 -40
20 -40 13 0 20 -7 20 -20 0 -18 7 -20 60 -20 53 0 60 2 60 20 0 16 7 20 34 20
19 0 41 -3 50 -6 20 -8 21 -34 1 -34 -12 0 -15 -13 -15 -59 0 -54 2 -59 25
-65 14 -4 25 -13 25 -21 0 -11 13 -15 50 -15 l50 0 0 -40 c0 -22 5 -40 10 -40
6 0 10 -27 10 -60 0 -53 2 -60 20 -60 13 0 20 -7 20 -20 0 -17 7 -20 40 -20
l40 0 0 -40 0 -40 40 0 40 0 0 60 c0 45 4 60 14 60 10 0 16 22 21 80 6 69 10
80 26 80 14 0 19 7 19 25 0 26 26 46 39 29 3 -5 41 -9 84 -9 67 -1 77 2 77 17
0 9 -7 21 -16 26 -33 18 216 22 1156 17 525 -3 966 -6 980 -6 14 -1 -28 -7
-93 -13 -76 -7 -219 -9 -405 -5 -378 9 -1216 11 -1236 3 -23 -9 -24 -164 -1
-164 8 0 15 -9 15 -20 0 -11 5 -20 10 -20 6 0 10 -7 10 -15 0 -9 12 -18 30
-21 21 -5 30 -12 30 -25 0 -16 8 -19 60 -19 53 0 60 2 60 20 0 19 7 20 220 20
213 0 220 1 220 20 0 13 7 20 19 20 13 0 20 10 25 31 4 19 10 28 17 23 8 -5
10 1 7 20 -5 23 -2 26 23 26 16 0 49 -14 74 -32 40 -28 45 -36 45 -70 l0 -38
75 0 75 0 0 -40 0 -40 -60 0 -60 0 0 -80 0 -80 160 0 160 0 0 40 c0 33 3 40
20 40 17 0 20 7 20 40 l0 40 40 0 c22 0 40 5 40 10 0 6 9 10 20 10 13 0 20 -7
20 -20 0 -13 7 -20 20 -20 11 0 20 -6 20 -14 0 -8 7 -16 15 -20 8 -3 15 -16
15 -29 0 -31 22 -77 38 -77 6 0 12 -9 12 -20 0 -11 7 -20 15 -20 11 0 15 -11
15 -38 0 -37 2 -40 42 -53 32 -10 42 -11 46 -1 2 7 12 12 21 12 11 0 25 16 37
40 10 22 22 40 27 40 4 0 7 6 7 14 0 18 22 26 71 26 l39 0 0 60 c0 53 2 60 20
60 17 0 20 -7 20 -50 0 -27 5 -50 10 -50 6 0 10 30 10 70 l0 70 30 0 c28 0 30
2 30 40 l0 40 -40 0 c-39 0 -40 1 -40 34 0 32 2 35 40 41 30 5 40 11 40 26 0
10 6 19 14 19 8 0 16 10 18 23 2 14 11 23 26 25 12 2 22 10 22 18 0 11 15 14
60 14 33 0 60 4 60 10 0 6 22 10 48 10 26 0 61 6 76 13 27 12 28 14 22 67 -6
65 1 100 20 100 17 0 19 37 2 43 -10 4 -10 6 0 6 6 1 12 8 12 17 0 12 7 15 29
12 17 -2 27 0 24 4 -3 5 4 12 16 15 12 3 21 12 21 19 0 9 12 14 35 14 24 0 35
-5 35 -15 0 -8 9 -20 20 -27 16 -10 20 -24 20 -70 0 -58 0 -58 30 -58 23 0 30
-4 30 -20 0 -11 6 -20 14 -20 7 0 16 -13 19 -29 5 -26 11 -30 38 -29 17 1 35
-5 40 -13 7 -11 9 -9 9 9 0 15 6 22 20 22 13 0 20 7 20 20 0 11 5 20 10 20 6
0 10 9 10 20 0 11 4 20 8 20 8 0 13 57 15 175 0 28 2 42 5 32 2 -12 9 -16 23
-12 11 4 19 2 19 -5 0 -6 11 -16 25 -22 14 -6 25 -17 25 -23 0 -14 107 -25
248 -25 l95 0 -6 -59 c-6 -54 -5 -60 13 -66 11 -3 25 -3 32 1 7 4 32 11 56 14
42 7 43 6 49 -22 4 -22 10 -28 27 -26 29 4 36 48 7 48 -11 0 -22 3 -24 7 -3 5
9 8 26 7 25 -1 34 -7 44 -30 7 -16 12 -39 13 -51 0 -13 6 -23 14 -23 8 0 18
-9 21 -20 3 -11 15 -20 26 -20 16 0 19 7 19 40 l0 40 40 0 c22 0 40 -4 40 -10
0 -5 9 -10 20 -10 11 0 20 -4 20 -10 0 -5 18 -10 40 -10 29 0 40 -4 40 -15 0
-8 9 -15 20 -15 11 0 20 6 20 14 0 8 10 16 23 18 19 3 22 8 19 43 -2 22 2 66
9 98 10 49 10 60 -2 68 -12 8 -11 12 4 23 25 19 23 50 -3 43 -11 -3 -18 -1
-14 4 3 5 12 9 20 9 8 0 14 8 14 18 1 29 28 -27 41 -85 9 -40 17 -53 31 -53
21 0 21 -3 18 178 l-2 132 131 0 c124 0 131 -1 131 -20 0 -11 -4 -20 -10 -20
-6 0 -10 -33 -10 -80 0 -73 -2 -80 -20 -80 -17 0 -20 -7 -20 -40 0 -33 3 -40
20 -40 13 0 20 -7 20 -20 0 -13 7 -20 20 -20 24 0 46 -33 55 -82 4 -21 11 -38
16 -38 5 0 9 -18 9 -40 0 -22 -4 -40 -10 -40 -5 0 -10 -18 -10 -40 l0 -40 -40
0 c-33 0 -40 -3 -40 -20 0 -16 -7 -20 -32 -22 -18 0 -39 -2 -47 -2 -8 -1 -18
-10 -22 -21 -10 -26 -11 -85 -1 -85 4 -1 82 -3 175 -6 l167 -6 0 41 0 41 80 0
80 0 0 39 c0 22 -6 42 -12 45 -7 3 -1 3 15 -1 42 -8 117 6 117 23 0 8 9 14 20
14 11 0 20 -7 20 -15 0 -8 5 -15 10 -15 6 0 10 7 10 15 0 8 5 15 10 15 6 0 10
7 10 15 0 15 -36 29 -59 23 -8 -2 -16 3 -18 10 -4 9 72 12 359 12 743 1 772 2
776 25 2 11 27 70 57 130 30 61 58 122 64 138 6 15 15 27 20 27 5 0 13 9 16
20 3 11 13 20 21 20 9 0 14 10 14 28 1 26 29 89 30 65 0 -22 30 -14 30 7 0 11
-4 20 -9 20 -5 0 0 18 12 39 25 46 38 45 30 -4 -6 -36 4 -44 25 -23 18 18 15
58 -4 58 -14 0 -16 8 -11 42 3 24 11 44 17 46 6 2 15 15 20 28 5 13 16 24 24
24 8 0 23 16 35 36 12 19 26 32 31 29 6 -3 10 0 10 7 0 9 3 9 10 -2 8 -12 10
-9 10 13 0 22 4 27 25 27 14 0 25 5 25 10 0 6 -7 10 -15 10 -18 0 -20 16 -3
26 6 4 14 2 16 -4 7 -21 22 -13 22 12 0 13 7 27 15 30 9 3 22 21 30 41 22 52
18 164 -5 150 -5 -3 -3 9 3 25 10 26 13 28 19 13 5 -11 7 -3 5 22 l-2 40 54 3
c30 2 64 10 75 18 14 10 16 14 6 14 -11 0 -12 2 -3 8 7 4 108 7 225 7 367 -3
378 -3 378 -20 0 -12 14 -15 73 -14 39 0 66 3 60 6 -20 8 -15 23 7 23 13 0 20
-7 20 -18 0 -16 14 -18 159 -20 159 -2 160 -2 163 21 l3 22 235 0 c128 0 225
2 215 4 -13 3 -5 8 25 16 25 6 60 8 78 4 24 -5 44 -1 82 19 27 14 48 30 47 35
-1 6 6 13 16 15 10 2 17 -2 17 -11 0 -8 6 -17 13 -19 17 -7 38 2 31 13 -3 5 0
9 5 9 6 0 11 8 11 18 0 21 50 142 59 142 4 0 8 14 9 31 1 17 14 56 27 85 14
30 25 59 25 65 0 5 7 23 15 40 15 28 15 30 -7 39 -20 7 -20 9 -4 9 26 1 13 13
-19 16 -14 2 -23 -1 -20 -6 3 -5 -132 -8 -315 -8 -320 1 -415 11 -212 23 166
10 175 13 60 14 -97 2 -107 4 -113 22 -3 11 -10 20 -15 20 -5 0 -11 8 -14 18
-6 16 -48 42 -69 42 -11 0 -47 39 -47 52 0 4 -18 8 -40 8 -33 0 -40 3 -40 20
0 17 -7 20 -40 20 -33 0 -40 -3 -40 -20 0 -13 -7 -20 -20 -20 -13 0 -20 -7
-20 -20 0 -18 -7 -20 -59 -20 -38 0 -61 -5 -65 -12 -5 -10 -7 -10 -12 0 -3 6
-12 12 -20 12 -8 0 -14 9 -14 21 0 16 -4 19 -21 14 -11 -4 -36 -4 -55 0 -32 6
-34 8 -34 45 0 33 -3 40 -20 40 -13 0 -20 7 -20 20 0 18 -7 20 -65 20 -36 0
-65 -2 -65 -4 0 -2 16 -20 36 -40 20 -20 31 -36 25 -36 -6 0 -11 -9 -11 -20 0
-13 7 -20 18 -20 10 0 24 -9 32 -20 8 -11 20 -20 27 -20 9 0 13 -18 13 -60 0
-55 2 -60 25 -66 20 -5 22 -8 11 -19 -10 -10 -79 -12 -327 -10 -383 4 -347 2
-324 19 17 12 15 14 -29 17 -26 3 -53 1 -59 -3 -9 -6 -9 -8 1 -8 6 0 12 -5 12
-10 0 -7 -31 -8 -86 -4 -65 5 -88 4 -94 -6 -6 -9 -23 -11 -65 -5 -61 7 -63 21
-5 28 19 2 2 5 -37 5 -43 1 -73 -2 -73 -8 0 -5 -7 -10 -15 -10 -9 0 -15 9 -15
23 0 17 2 19 10 7 14 -23 22 -5 15 34 -4 21 -13 36 -21 36 -8 0 -14 5 -14 10
0 6 -7 10 -15 10 -8 0 -15 -4 -15 -10 0 -5 -6 -10 -14 -10 -14 0 -26 -46 -18
-68 2 -7 16 -12 30 -12 25 0 25 -1 9 -17 -13 -13 -22 -15 -35 -7 -9 5 -39 7
-67 3 -41 -5 -53 -3 -67 12 -10 10 -18 23 -18 29 0 14 -40 3 -55 -15 -16 -20
-45 -26 -45 -11 0 8 6 16 12 18 9 3 8 9 -4 21 -9 10 -20 26 -23 37 -3 11 -11
20 -16 20 -17 0 -59 -32 -53 -41 3 -5 -2 -9 -10 -9 -11 0 -16 -9 -16 -26 0
-24 -3 -25 -27 -19 -16 3 -29 11 -31 16 -7 18 -73 10 -91 -12 -13 -16 -32 -22
-81 -26 -70 -5 -177 17 -192 39 -11 18 -10 110 1 104 5 -3 16 5 25 19 9 14 25
25 36 25 18 0 20 7 20 60 0 33 4 60 10 60 6 0 10 20 10 45 0 44 0 44 30 39
l30 -6 0 121 0 121 -48 0 c-43 0 -50 -3 -60 -25 -15 -32 -16 -85 -2 -85 6 0
10 -5 10 -11 0 -16 -26 -39 -44 -39 -12 0 -16 -10 -16 -40 0 -33 3 -40 20 -40
18 0 20 -7 20 -64 l0 -64 -37 -7 c-24 -4 -39 -3 -41 4 -2 6 -21 11 -43 11 -21
0 -39 5 -39 10 0 6 -24 10 -54 10 -30 0 -58 5 -61 10 -3 6 1 10 9 10 9 0 16 5
16 10 0 14 -35 12 -73 -3 -18 -8 -38 -12 -44 -10 -7 3 -13 0 -13 -6 0 -6 7
-11 17 -11 15 0 15 -1 0 -18 -9 -9 -20 -29 -26 -42 -9 -24 -10 -24 -10 -3 -1
12 4 25 9 28 20 13 10 35 -16 35 -24 0 -26 -3 -20 -27 4 -16 7 -36 7 -47 0
-10 7 -25 15 -33 18 -18 18 -34 0 -27 -7 3 -20 -2 -29 -10 -20 -20 -33 -20
-41 -1 -4 11 -21 15 -66 15 -47 0 -60 3 -60 15 0 8 -9 15 -20 15 -13 0 -20 7
-20 20 0 13 -7 20 -20 20 -11 0 -20 5 -20 10 0 6 -12 10 -26 10 -20 0 -24 -4
-19 -19 5 -16 2 -18 -15 -14 -16 4 -20 13 -20 49 0 37 -3 44 -20 44 -17 0 -20
7 -20 40 0 28 -4 40 -14 40 -17 0 -26 22 -26 66 0 21 -7 41 -19 52 -59 53 -72
63 -100 73 -32 11 -33 34 -1 24 13 -4 20 2 28 23 10 30 40 42 103 42 26 0 29
3 29 35 0 28 -4 35 -20 35 -11 0 -20 7 -20 15 0 8 -9 15 -20 15 -11 0 -20 5
-20 10 0 6 9 10 20 10 11 0 20 7 20 15 0 11 -11 15 -40 15 -29 0 -40 -4 -40
-15 0 -12 -19 -15 -115 -15 l-115 0 0 -34 c0 -19 -4 -38 -10 -41 -6 -4 -10 10
-10 35 0 25 -4 39 -10 35 -5 -3 -10 -22 -10 -41 0 -29 -3 -34 -24 -34 -13 0
-26 6 -29 13 -2 6 -8 -1 -12 -17 -5 -20 -4 -31 6 -37 11 -7 12 -12 2 -29 -7
-11 -13 -43 -13 -71 0 -43 5 -56 26 -75 14 -13 32 -24 40 -24 7 0 14 -4 14
-10 0 -5 -18 -10 -40 -10 -22 0 -40 -4 -40 -10 0 -5 -7 -10 -15 -10 -11 0 -15
-11 -15 -40 0 -29 -4 -40 -15 -40 -8 0 -15 9 -15 20 0 17 -7 20 -40 20 -33 0
-40 3 -40 20 0 13 -7 20 -20 20 -13 0 -20 7 -20 20 0 13 -7 20 -20 20 -18 0
-20 7 -20 60 0 53 -2 60 -20 60 -18 0 -20 -7 -20 -80 0 -72 -2 -80 -19 -80
-11 0 -21 -6 -23 -12 -3 -7 -8 10 -11 37 -5 31 -3 51 3 53 5 2 10 22 10 44 l0
40 -40 -4 c-39 -3 -39 -3 -21 17 14 15 17 26 10 43 -11 29 -43 26 -47 -6 -7
-44 -21 -21 -19 30 2 51 1 53 -28 58 -36 6 -45 35 -14 43 17 5 21 11 17 31 -3
14 -2 23 3 21 12 -8 78 28 79 42 0 8 10 11 30 7 16 -4 45 -3 63 0 33 6 35 10
51 72 16 64 14 104 -5 104 -5 0 -9 5 -9 10 0 6 7 10 15 10 8 0 15 9 15 20 0
16 7 20 30 20 17 0 30 4 30 9 0 5 20 9 45 8 25 -1 45 -5 45 -9 0 -5 7 -8 15
-8 8 0 15 9 15 20 0 29 37 27 43 -2 3 -15 5 -9 6 14 0 20 -3 40 -9 43 -5 3
-10 15 -10 27 0 17 -4 19 -25 14 -18 -5 -25 -2 -25 9 0 8 -7 15 -15 15 -8 0
-15 5 -15 10 0 6 -25 10 -55 10 -30 0 -55 -4 -55 -10 0 -5 -4 -10 -10 -10 -5
0 -10 16 -10 35 0 19 5 35 10 35 6 0 10 14 10 30 0 20 -5 30 -15 30 -8 0 -15
-7 -15 -15 0 -8 -8 -16 -17 -16 -44 -4 -89 4 -96 17 -13 22 -75 44 -127 44
-44 0 -48 -2 -55 -27z m-924 -1578 c7 -30 16 -55 21 -55 14 0 9 -19 -12 -40
-11 -11 -15 -20 -10 -20 6 0 10 -6 9 -12 -4 -36 2 -48 26 -48 18 0 25 -5 25
-20 0 -11 -7 -20 -15 -20 -8 0 -15 -9 -15 -20 0 -11 -4 -20 -10 -20 -5 0 -10
-18 -10 -40 0 -29 -4 -40 -15 -40 -10 0 -15 10 -15 33 0 77 -24 96 -73 57 -14
-11 -31 -20 -39 -20 -9 0 -10 3 -2 8 7 4 11 38 10 89 -1 77 0 82 21 88 18 4
24 15 29 47 4 22 15 49 26 60 10 10 18 23 18 29 0 28 20 -8 31 -56z m-187
-361 c20 -8 21 -38 1 -54 -8 -7 -15 -23 -15 -36 0 -19 7 -26 30 -30 56 -12 31
-74 -29 -74 -12 0 -21 -4 -21 -10 0 -5 -7 -10 -15 -10 -8 0 -15 -6 -15 -14 0
-14 -42 -26 -91 -26 -25 0 -29 4 -29 26 0 21 4 25 18 19 20 -8 21 -8 45 -6 16
1 18 9 16 57 -2 45 1 61 17 78 11 11 31 36 44 54 13 17 25 32 26 32 1 0 9 -3
18 -6z m956 -474 c0 -17 7 -20 40 -20 l40 0 0 -60 c0 -53 2 -60 20 -60 17 0
20 -7 20 -40 0 -33 -3 -40 -20 -40 -17 0 -20 -7 -20 -40 0 -28 -4 -40 -14 -40
-9 0 -17 -15 -21 -40 -4 -22 -10 -40 -15 -40 -5 0 -11 -18 -14 -40 -3 -22 -9
-58 -12 -80 l-6 -40 -79 0 c-72 0 -79 2 -79 20 0 17 -7 20 -40 20 l-40 0 0
110 c0 103 -1 110 -20 110 -11 0 -20 5 -20 10 0 6 -4 10 -10 10 -5 0 -10 -5
-10 -11 0 -6 -7 -18 -16 -26 -13 -13 -17 -14 -24 -3 -4 7 -13 9 -20 5 -7 -4
-16 -2 -20 5 -12 19 -80 -17 -80 -42 0 -17 5 -20 29 -15 33 7 41 -4 41 -59 0
-33 -12 -45 -25 -24 -3 6 -19 10 -36 10 -29 0 -29 1 -29 56 0 52 -2 56 -21 51
-13 -4 -22 0 -26 11 -3 9 -7 24 -9 32 -4 10 -10 6 -23 -14 -11 -16 -21 -23
-25 -18 -3 6 -2 14 4 17 6 4 8 15 5 26 -5 14 -1 19 14 20 12 1 26 3 31 4 6 1
15 3 20 4 6 0 10 8 10 16 0 8 6 15 13 16 10 0 10 2 0 6 -15 6 -17 33 -3 33 6
0 10 6 10 14 0 20 58 28 92 14 15 -7 28 -18 28 -24 0 -12 44 -24 85 -24 21 0
23 6 30 80 l7 80 99 0 c92 0 99 1 99 20 0 13 7 20 20 20 13 0 20 -7 20 -20z
m-4198 -682 c2 -7 2 -29 -2 -48 -5 -34 -7 -35 -54 -38 -61 -4 -86 18 -86 76 0
34 3 39 33 48 25 8 40 6 68 -8 20 -9 38 -23 41 -30z m2347 -295 c-3 -21 2 -33
16 -33 8 0 15 -4 15 -10 0 -5 -4 -10 -10 -10 -5 0 -10 -16 -10 -35 0 -19 5
-35 11 -35 6 0 9 -19 7 -47 -3 -54 -18 -63 -68 -41 -30 13 -30 14 -30 89 0 68
2 77 20 82 12 3 20 14 20 26 0 12 6 21 15 21 8 0 14 -3 14 -7z"/>
<path d="M12119 4563 l-46 -4 -8 -112 c-9 -137 -9 -148 5 -157 19 -12 -16 -20
-86 -20 l-64 0 0 34 c0 37 -12 46 -60 46 -24 0 -28 -4 -34 -40 -4 -23 -11 -38
-16 -35 -12 7 -33 -43 -26 -61 2 -6 -1 -17 -7 -23 -8 -8 -7 -11 6 -11 9 0 17
-6 17 -14 0 -7 12 -19 28 -25 18 -8 27 -19 28 -35 1 -14 10 -33 20 -44 16 -17
22 -18 37 -7 13 9 16 21 12 41 -5 26 -4 26 4 7 6 -13 16 -21 23 -19 7 3 26 7
41 10 15 4 25 11 22 16 -3 5 0 12 6 16 9 5 10 -1 5 -20 -6 -24 -4 -26 25 -26
28 0 31 3 27 25 -4 17 -1 25 8 25 9 0 14 12 15 33 1 35 26 122 28 96 1 -13 14
-16 65 -17 56 -1 64 1 74 21 17 35 25 87 13 87 -6 0 -11 14 -11 30 0 20 -5 30
-15 30 -12 0 -15 14 -15 63 0 34 -4 68 -9 75 -9 15 -47 20 -112 15z"/>
<path d="M13703 4563 c-21 -4 -23 -10 -23 -63 0 -37 4 -60 12 -62 10 -4 10
-13 1 -41 -6 -21 -7 -37 -2 -37 16 0 10 -36 -11 -60 -22 -25 -26 -55 -10 -65
18 -11 11 -35 -10 -35 -13 0 -20 -7 -20 -20 0 -13 7 -20 20 -20 17 0 20 -7 20
-40 l0 -40 60 0 60 0 0 98 c0 75 -5 107 -20 141 -19 42 -20 46 -4 102 9 33 20
59 25 59 6 0 2 67 -5 77 -4 5 -75 10 -93 6z"/>
<path d="M13382 4540 c-2 -20 -4 -22 -12 -10 -5 8 -10 10 -10 3 0 -8 -13 -7
-47 3 -62 19 -113 18 -113 -1 0 -8 -9 -15 -20 -15 -13 0 -20 -7 -20 -20 0 -13
7 -20 20 -20 11 0 20 -6 20 -14 0 -8 9 -24 20 -37 16 -20 19 -21 20 -6 0 14
10 17 69 17 79 0 111 8 89 21 -9 6 -7 9 10 9 12 0 22 5 22 10 0 6 -9 10 -19
10 -15 0 -21 8 -24 38 -2 22 -4 27 -5 12z"/>
<path d="M14561 4406 c-7 -9 -11 -25 -8 -35 8 -31 -31 -58 -95 -65 -37 -4 -58
-2 -58 4 0 5 -11 10 -25 10 -14 0 -25 5 -25 10 0 6 -4 10 -10 10 -5 0 -10 -7
-10 -15 0 -8 -7 -15 -15 -15 -8 0 -15 -7 -15 -15 0 -8 -4 -15 -10 -15 -5 0
-10 -9 -10 -20 0 -13 7 -20 19 -20 15 0 21 -10 26 -40 l7 -40 133 0 134 0 4
-37 c2 -21 3 -12 1 19 -2 36 1 58 8 60 6 2 11 25 12 51 1 52 -14 70 -49 61
-18 -4 -18 -4 -2 6 9 6 17 17 17 25 0 8 11 17 25 21 16 4 25 13 25 25 0 21 -8
23 -29 10 -8 -5 -10 -14 -6 -21 5 -8 3 -11 -6 -8 -7 2 -16 15 -19 28 -5 20 -7
21 -19 6z"/>
<path d="M1 3590 c0 -607 2 -730 13 -705 10 23 11 91 6 305 -7 282 -6 620 5
910 4 131 2 171 -9 195 -13 26 -14 -60 -15 -705z"/>
<path d="M6840 3906 c0 -63 -3 -61 118 -65 l82 -3 0 41 c0 23 -4 41 -10 41 -5
0 -10 9 -10 20 0 19 -7 20 -90 20 l-90 0 0 -54z"/>
<path d="M3520 3463 c-14 -2 -32 -7 -40 -10 -28 -12 -55 -15 -130 -16 -51 0
-65 -2 -45 -7 32 -7 28 -10 -40 -30 -45 -13 -58 -18 -132 -50 -29 -13 -60 -31
-69 -41 -9 -10 -22 -15 -29 -13 -9 4 -26 -21 -51 -75 -21 -45 -44 -81 -52 -81
-9 0 -13 -7 -9 -20 5 -19 -30 -77 -48 -77 -13 -1 -45 -63 -45 -89 0 -29 -44
-122 -64 -137 -9 -7 -23 -30 -31 -52 l-14 -40 -1 44 c0 40 -2 43 -22 37 -13
-3 -26 -6 -30 -6 -4 0 -10 -9 -13 -20 -3 -11 -13 -20 -21 -20 -8 0 -14 -9 -14
-20 0 -11 6 -20 14 -20 8 0 17 -6 20 -12 5 -10 7 -10 12 0 9 19 34 14 34 -8 0
-11 -6 -20 -13 -20 -12 0 -30 -43 -48 -118 -6 -23 -15 -40 -20 -36 -5 3 -9 -6
-9 -20 0 -29 -18 -44 -26 -22 -3 9 -17 16 -31 16 -18 0 -23 -4 -19 -17 11 -39
10 -98 -2 -96 -7 2 -12 -10 -12 -30 0 -17 -9 -43 -20 -57 -11 -14 -20 -33 -20
-42 0 -20 -16 -24 -22 -6 -3 8 -9 8 -24 0 -10 -6 -13 -12 -6 -12 6 0 12 -9 12
-20 0 -22 -16 -27 -23 -7 -8 23 -18 0 -19 -45 -1 -47 -27 -115 -28 -72 0 26
-48 37 -74 19 -25 -19 -21 -63 7 -67 19 -3 22 -8 20 -47 -2 -48 -25 -77 -31
-39 -3 16 -6 18 -12 8 -7 -11 -11 -10 -24 3 -19 19 -21 43 -3 51 9 5 10 7 0
12 -7 3 -13 14 -13 25 0 10 -7 19 -15 19 -8 0 -15 -9 -15 -20 0 -11 -7 -20
-15 -20 -8 0 -15 -9 -15 -20 0 -11 7 -20 15 -20 8 0 15 -9 15 -20 0 -11 9 -28
20 -37 34 -29 25 -56 -26 -81 -64 -31 -126 -39 -146 -18 -21 20 -113 21 -148
1 -19 -11 -67 -14 -201 -15 -255 0 -389 9 -389 28 0 11 -8 13 -36 9 -44 -7
-53 -15 -34 -28 11 -7 -11 -9 -70 -8 -47 1 -331 1 -632 1 l-548 -2 0 -60 0
-60 63 -1 c34 -1 389 -1 790 1 527 2 727 -1 727 -9 0 -7 -95 -12 -323 -13
-177 -2 -38 -3 308 -3 387 0 520 2 345 5 -157 3 -267 8 -245 11 22 3 511 4
1088 2 l1047 -4 0 52 c0 49 -1 51 -24 45 l-24 -6 19 62 c21 66 43 98 67 98 10
0 12 7 8 26 -5 19 -2 33 12 48 27 30 99 168 107 205 4 17 12 31 18 31 7 1 21
20 32 43 14 29 27 43 44 45 29 4 45 20 49 47 2 11 15 29 28 42 13 12 24 26 24
31 0 5 9 17 20 27 20 18 28 55 12 55 -5 0 -9 6 -9 13 0 6 -4 24 -8 39 -5 21
-3 29 9 34 9 3 16 13 16 22 0 8 15 29 33 47 18 18 38 51 46 78 7 26 17 47 22
47 5 0 9 16 9 36 0 19 4 33 9 30 11 -7 71 62 71 81 0 7 5 12 12 10 7 -1 17 14
24 33 6 19 19 36 28 38 20 4 21 18 0 26 -21 8 -24 8 -24 -5 0 -6 -7 -17 -15
-25 -21 -21 -19 -6 5 39 11 20 20 39 20 42 0 3 0 12 0 20 0 8 5 15 10 15 6 0
10 -11 10 -25 0 -14 5 -25 11 -25 8 0 10 12 6 36 -6 36 8 92 20 80 4 -4 7 -23
6 -44 0 -20 1 -27 4 -14 2 12 9 22 14 22 5 0 9 20 9 45 0 60 23 112 54 127 30
13 32 25 8 56 l-17 22 -490 3 c-270 2 -501 6 -515 9 -14 3 -36 4 -50 1z"/>
<path d="M9467 3339 c-3 -11 -1 -19 4 -19 5 0 9 -27 9 -60 0 -53 2 -60 20 -60
11 0 20 -7 20 -15 0 -8 11 -17 25 -21 16 -4 25 -13 25 -25 0 -10 7 -19 15 -19
8 0 15 9 15 20 0 11 -6 20 -12 20 -9 0 -10 2 -2 8 6 4 15 22 19 40 3 18 13 32
21 32 9 0 14 11 14 30 0 17 -4 30 -9 30 -4 0 -19 11 -33 24 -13 14 -36 28 -51
31 -23 6 -27 4 -28 -16 -1 -16 -3 -18 -6 -8 -6 25 -40 31 -46 8z"/>
<path d="M15730 2879 c-13 -17 -23 -20 -62 -16 l-48 4 0 -33 0 -34 110 0 110
0 0 25 0 25 116 0 c114 0 115 0 112 23 -3 22 -6 22 -163 25 -153 2 -161 2
-175 -19z"/>
<path d="M1 2408 c0 -229 4 -385 9 -373 12 29 12 765 0 765 -7 0 -10 -137 -9
-392z"/>
<path d="M15649 2393 c-27 -3 -39 -10 -44 -26 -13 -39 -13 -47 -5 -47 5 0 6
-15 3 -34 -3 -19 -1 -36 6 -40 6 -4 11 -18 11 -32 0 -29 21 -54 44 -54 12 0
16 10 16 38 0 79 4 82 86 82 l74 0 0 40 c0 33 -3 40 -20 40 -13 0 -20 7 -20
20 0 18 -6 20 -57 18 -32 -1 -74 -3 -94 -5z"/>
<path d="M7520 1750 c0 -5 -16 -10 -36 -10 -40 0 -75 -24 -49 -34 9 -3 20 -17
25 -31 10 -26 72 -61 78 -44 5 13 29 11 36 -3 5 -10 7 -10 12 0 3 6 14 12 25
12 15 0 19 7 19 39 l0 39 -52 -2 c-49 -1 -53 1 -51 22 2 12 1 22 -2 22 -3 0
-5 -4 -5 -10z"/>
<path d="M11451 1691 c-6 -11 -11 -39 -11 -64 l0 -44 -62 -2 c-35 0 -96 -6
-137 -13 -57 -9 -76 -9 -79 0 -5 15 -42 16 -42 2 0 -5 -18 -10 -40 -10 l-40 0
0 -60 0 -60 -30 0 c-28 0 -30 -2 -30 -40 0 -22 -4 -40 -10 -40 -5 0 -10 -9
-10 -21 0 -15 4 -19 15 -15 8 3 22 9 30 12 8 3 15 1 15 -4 0 -6 8 -12 18 -15
13 -3 10 -6 -10 -11 -23 -7 -28 -14 -28 -38 0 -25 3 -29 20 -25 10 3 21 0 24
-7 2 -6 5 -3 5 7 1 10 5 16 11 12 13 -8 1 -35 -15 -35 -10 0 -13 -20 -11 -82
2 -46 6 -91 10 -100 5 -11 0 -24 -13 -37 -12 -12 -21 -25 -21 -31 0 -5 -4 -10
-10 -10 -5 0 -10 6 -10 13 0 8 -4 7 -10 -3 -15 -23 -12 -27 19 -22 16 2 32 -1
35 -7 5 -7 -2 -11 -18 -11 -19 0 -26 -5 -26 -20 0 -12 7 -20 18 -20 15 0 17
-8 14 -61 -2 -33 -1 -71 2 -85 6 -22 12 -24 59 -24 76 0 97 22 97 100 0 33 4
60 10 60 6 0 10 9 10 21 0 22 22 49 39 49 7 0 7 8 1 25 -9 23 -8 25 9 15 13
-7 18 -17 14 -32 -4 -19 -3 -20 6 -8 9 13 11 13 11 -2 0 -22 32 -31 80 -23 30
5 40 11 40 26 0 15 7 19 35 19 19 0 35 3 35 8 0 4 17 8 37 10 42 3 53 10 34
22 -8 4 -11 15 -8 24 5 12 0 20 -16 26 -12 5 -17 9 -11 9 6 1 14 19 17 42 3
22 7 42 9 43 1 2 32 6 68 8 36 3 59 4 53 1 -7 -3 -13 -13 -13 -24 0 -10 -6
-19 -12 -19 -28 0 18 -20 46 -20 16 0 45 -5 63 -12 32 -12 34 -14 28 -48 -5
-27 -2 -40 9 -50 9 -7 16 -26 16 -43 l0 -30 26 24 c14 13 29 23 32 22 22 -8
42 12 47 45 12 73 12 81 5 84 -4 2 -10 14 -14 28 -6 22 -4 21 14 -7 15 -22 30
-33 46 -33 13 0 24 4 24 10 0 15 73 32 82 18 10 -18 15 -9 22 45 7 43 5 49
-12 54 -12 3 -22 16 -25 33 -7 33 -47 50 -47 20 0 -27 -17 -34 -23 -10 -7 28
-25 25 -33 -5 -3 -14 -14 -26 -23 -27 -9 -1 -23 -2 -31 -3 -28 -3 -60 -16 -60
-26 0 -5 -16 -9 -35 -9 -19 0 -35 5 -35 10 0 6 -7 10 -15 10 -12 0 -15 19 -15
110 l0 110 -42 2 c-109 4 -105 5 -100 -14 7 -28 -7 -21 -21 10 -7 16 -12 75
-12 149 0 67 -2 123 -5 126 -3 2 -22 7 -42 11 -31 6 -39 3 -47 -13z"/>
<path d="M2 843 c1 -543 4 -807 9 -733 5 63 8 428 7 810 -1 382 1 709 6 727 7
30 11 32 54 36 42 3 40 4 -15 5 l-63 2 2 -847z"/>
<path d="M14000 1645 c0 -8 -9 -15 -20 -15 -16 0 -20 -7 -20 -35 l0 -35 60 0
c53 0 60 -2 60 -20 0 -17 7 -20 40 -20 33 0 40 3 40 20 0 17 7 20 40 20 39 0
40 1 40 35 0 34 -1 35 -40 35 -29 0 -40 4 -40 15 0 12 -16 15 -80 15 -64 0
-80 -3 -80 -15z"/>
<path d="M10792 798 c-18 -18 -16 -108 3 -108 19 0 20 -24 2 -42 -8 -7 -12
-18 -10 -25 2 -6 -1 -14 -6 -18 -7 -3 -11 3 -11 16 0 16 -5 20 -20 16 -13 -3
-20 0 -21 9 -1 8 -2 20 -3 27 -2 19 -56 16 -67 -5 -6 -10 -15 -16 -21 -12 -5
4 -14 0 -19 -7 -7 -12 -9 -11 -9 1 0 13 -1 13 -10 0 -7 -11 -10 -7 -10 18 0
17 -4 32 -9 32 -5 0 -13 10 -17 22 -13 41 -33 47 -146 48 -102 0 -107 -1 -114
-22 -4 -13 -12 -26 -18 -30 -8 -6 -7 -8 2 -8 6 0 12 -7 12 -16 0 -11 -6 -15
-19 -11 -14 3 -18 -1 -18 -19 0 -21 4 -24 33 -24 19 0 34 -4 34 -10 0 -5 -15
-10 -34 -10 -19 0 -38 -4 -41 -10 -4 -6 8 -10 29 -10 19 0 38 -4 41 -10 3 -5
33 -10 65 -10 l59 0 7 36 c8 44 26 52 56 25 28 -27 50 -23 59 9 7 24 7 24 8 3
1 -21 11 -28 34 -24 4 0 7 -7 7 -18 0 -12 -9 -20 -29 -24 -45 -9 -47 -36 -6
-72 19 -18 35 -37 35 -43 0 -5 6 -13 13 -15 9 -4 9 -8 -2 -15 -8 -6 -12 -19
-8 -31 3 -12 1 -21 -4 -21 -5 0 -9 15 -9 34 0 19 -4 38 -10 41 -5 3 -10 -1
-10 -10 0 -8 -11 -20 -24 -25 -13 -5 -27 -15 -30 -22 -3 -7 -4 -3 -2 10 2 12
0 22 -4 22 -17 0 -20 -19 -9 -44 15 -32 9 -39 -24 -27 -20 8 -27 7 -31 -5 -6
-15 20 -30 35 -22 11 6 39 -31 39 -50 0 -11 7 -22 15 -26 8 -3 15 -1 15 4 0 6
16 10 35 10 28 0 35 -4 35 -20 0 -17 7 -20 45 -20 25 0 45 5 45 10 0 6 9 10
20 10 28 0 38 30 15 46 -15 12 -14 13 11 10 48 -5 54 2 54 65 0 46 -3 59 -15
59 -11 0 -15 11 -15 40 0 40 0 40 -39 40 -38 0 -40 2 -39 30 1 29 13 41 20 20
2 -5 19 -11 38 -12 31 -3 36 0 47 32 6 19 12 29 12 23 1 -7 5 -13 10 -13 10 0
32 114 28 145 -7 48 -57 81 -85 53z"/>
<path d="M10917 663 c-11 -10 -8 -20 9 -38 16 -15 16 -16 -2 -13 -11 2 -18 -2
-16 -9 3 -20 -16 -15 -21 5 -3 9 -5 -4 -6 -30 -1 -51 12 -62 35 -30 18 24 48
4 51 -34 1 -16 -1 -21 -3 -11 -7 23 -24 22 -24 -3 0 -11 7 -20 15 -20 8 0 15
-9 15 -20 0 -11 -7 -20 -15 -20 -8 0 -15 -9 -15 -20 0 -11 5 -20 10 -20 6 0
10 -33 10 -80 0 -73 2 -80 20 -80 13 0 20 -7 20 -20 0 -13 7 -20 20 -20 15 0
20 -7 20 -25 0 -18 -5 -25 -19 -25 -11 0 -22 -4 -25 -9 -3 -5 -26 -14 -52 -20
-50 -13 -56 -34 -11 -39 15 -2 27 -8 27 -13 0 -5 9 -9 20 -9 34 0 22 -19 -17
-26 -50 -10 -626 -9 -730 1 -54 5 -83 12 -83 20 0 16 -447 26 -690 16 -96 -4
-140 -8 -97 -9 43 -1 77 -6 77 -12 0 -6 31 -10 73 -11 39 0 81 -4 92 -8 27
-11 -359 -17 -660 -11 -232 5 -240 6 -240 25 0 30 -39 27 -43 -3 l-4 -23 -646
6 c-1008 9 -1287 7 -1367 -7 -58 -11 519 -13 3239 -16 1820 -1 3312 0 3314 3
3 3 2 8 -2 13 -4 4 -315 6 -691 4 -482 -3 -685 0 -689 7 -5 7 3 11 18 11 14 0
26 5 26 10 0 19 -75 11 -93 -10 -15 -18 -28 -20 -114 -19 -54 1 -111 5 -128 9
l-30 8 28 1 c21 1 27 6 27 24 0 17 -2 19 -9 8 -15 -23 -37 7 -44 58 -3 24 -10
47 -15 50 -5 3 -12 15 -15 26 -4 11 -4 3 -1 -17 4 -28 1 -38 -9 -38 -10 0 -13
8 -9 25 3 20 1 24 -12 19 -9 -3 -24 -3 -33 0 -13 5 -14 9 -4 19 9 9 14 9 22
-3 6 -10 7 19 3 88 -5 74 -4 102 5 102 20 0 11 32 -16 56 -23 20 -36 23 -95
20 -38 -2 -72 -6 -75 -10 -16 -15 -33 -4 -33 22 0 32 -16 53 -35 46 -17 -7 -7
-42 14 -47 14 -4 14 -5 -1 -6 -10 0 -18 -5 -18 -11 0 -5 -7 -10 -15 -10 -10 0
-15 -10 -15 -30 0 -29 -2 -30 -46 -30 l-46 0 3 88 4 87 -47 -1 c-44 0 -47 1
-45 24 1 13 7 26 14 29 8 3 7 10 -5 24 -16 19 -43 25 -55 12z"/>
<path d="M11900 529 c-14 -18 -30 -46 -36 -63 -7 -20 -17 -30 -28 -28 -10 2
-16 -4 -16 -16 0 -10 -9 -27 -20 -37 -16 -15 -20 -29 -18 -64 l3 -46 84 -6
c89 -7 120 4 107 36 -3 8 -2 15 2 15 4 0 13 14 20 30 8 17 20 30 28 30 10 0
13 8 9 25 -3 14 -7 36 -10 50 -3 14 -11 25 -19 25 -13 0 -36 41 -36 65 0 27
-44 16 -70 -16z"/>
<path d="M17653 62 c-18 -2 -33 -7 -33 -13 0 -5 -14 -9 -30 -9 -17 0 -47 -9
-67 -20 l-38 -20 460 2 c485 1 482 9 -10 24 -169 5 -260 11 -230 15 28 3 102
5 165 3 l115 -4 -55 14 c-50 13 -194 18 -277 8z"/>
<path d="M3377 24 c-1 -2 -319 -4 -707 -5 -388 -2 -770 -6 -850 -9 -80 -4 782
-7 1914 -8 1648 -2 2057 0 2047 10 -9 10 -265 13 -1207 13 -657 1 -1196 0
-1197 -1z"/>
</g>
</svg>
