<?xml version="1.0" standalone="no"?>
<!DOCTYPE svg PUBLIC "-//W3C//DTD SVG 20010904//EN"
 "http://www.w3.org/TR/2001/REC-SVG-20010904/DTD/svg10.dtd">
<svg version="1.0" xmlns="http://www.w3.org/2000/svg"
 width="1920.000000pt" height="1080.000000pt" viewBox="0 0 1920.000000 1080.000000"
 preserveAspectRatio="xMidYMid meet">
<metadata>
Created by potrace 1.16, written by Peter Selinger 2001-2019
</metadata>
<g transform="translate(0.000000,1080.000000) scale(0.100000,-0.100000)"
fill="#000000" stroke="none">
<path d="M2 10794 c9 -8 1916 -9 1925 -1 3 4 -429 7 -962 7 -533 0 -966 -3
-963 -6z"/>
<path d="M2310 10789 c98 -11 3683 -11 3735 0 22 5 -820 9 -1885 8 -1094 0
-1893 -4 -1850 -8z"/>
<path d="M7155 10789 c23 -6 860 -11 1965 -13 1059 -2 1943 -4 1965 -5 22 -1
156 1 298 5 253 6 333 2 322 -16 -3 -5 18 -2 47 7 48 15 177 17 1358 16 2900
-1 3030 -2 3030 -18 0 -20 27 -19 38 0 7 14 166 16 1438 15 786 0 1464 -3
1507 -6 67 -6 77 -5 77 10 0 15 -443 16 -6042 15 -3653 -1 -6027 -5 -6003 -10z"/>
<path d="M19187 10008 c-3 -18 -6 -186 -6 -373 -1 -187 -3 -358 -6 -380 -2
-22 -7 -61 -10 -87 -6 -44 -4 -48 14 -48 21 0 21 2 21 460 0 253 -2 460 -4
460 -2 0 -6 -15 -9 -32z"/>
<path d="M1 8188 c1 -997 5 -1788 9 -1757 12 95 13 3556 1 3564 -8 4 -11 -540
-10 -1807z"/>
<path d="M2777 9574 c-17 -17 -3 -24 48 -24 30 0 55 -4 55 -9 0 -5 -48 -9
-107 -8 -60 0 -126 -6 -148 -12 -22 -7 -58 -11 -80 -9 l-40 4 43 8 c36 7 41
11 30 22 -12 11 -50 18 -86 15 -17 -1 -6 -41 15 -58 13 -10 13 -12 -3 -12 -32
1 -99 -14 -104 -22 -3 -5 -42 -14 -85 -21 -49 -8 -86 -19 -97 -30 -10 -10 -27
-18 -38 -18 -11 0 -20 -7 -20 -15 0 -8 -14 -17 -35 -21 -19 -3 -35 -10 -35
-15 0 -5 -9 -18 -19 -28 -11 -11 -38 -55 -61 -98 -22 -43 -45 -85 -50 -93 -4
-8 -20 -39 -35 -69 -15 -30 -38 -63 -50 -73 -13 -10 -27 -33 -31 -51 -3 -17
-25 -63 -47 -102 -22 -38 -53 -93 -69 -122 -38 -68 -35 -110 8 -153 25 -24 34
-43 39 -82 5 -38 12 -52 26 -55 20 -6 26 -23 8 -23 -6 0 -4 -7 4 -15 9 -8 13
-24 10 -35 -3 -13 0 -20 8 -20 12 0 12 -2 0 -9 -8 -5 -11 -16 -8 -26 4 -9 11
-14 16 -11 5 4 12 0 15 -6 4 -10 8 -10 11 -2 7 13 45 7 45 -7 0 -5 7 -9 15 -9
8 0 15 5 15 10 0 14 57 13 62 -1 5 -16 247 -17 256 -2 4 6 21 14 37 16 17 3
-3 4 -42 3 -40 -2 -73 1 -73 5 0 5 -7 9 -15 9 -8 0 -15 5 -15 10 0 6 -7 10
-15 10 -8 0 -15 -4 -15 -9 0 -5 -9 -7 -20 -4 -12 3 -29 -2 -40 -12 -25 -23
-37 -13 -42 35 -4 47 1 48 74 19 29 -12 68 -21 87 -20 19 1 38 -4 42 -11 7
-10 210 -14 1041 -16 568 -1 1040 -5 1048 -9 8 -3 21 -7 28 -9 40 -8 16 -13
-44 -9 -112 7 -1376 14 -1407 8 -21 -4 -26 -10 -21 -22 3 -9 14 -43 23 -76 9
-33 21 -66 28 -72 6 -8 36 -13 67 -13 31 0 56 -4 56 -10 0 -7 189 -10 546 -10
479 0 547 -2 561 -15 8 -9 12 -19 8 -23 -4 -4 -10 -1 -12 6 -6 15 -1083 18
-1083 2 0 -6 -199 -11 -562 -13 -310 -1 -43 -3 592 -3 635 0 1140 1 1123 3
-51 6 -39 23 16 23 44 0 48 -2 48 -22 l0 -23 -1291 2 c-710 1 -1360 3 -1444 4
-95 2 -156 -1 -160 -7 -4 -6 -15 -13 -24 -17 -10 -3 -18 -13 -18 -21 0 -14
-53 -118 -73 -144 -8 -11 -12 -11 -18 0 -7 10 -9 10 -9 1 0 -7 -11 -13 -25
-13 -35 0 -52 -43 -30 -76 20 -31 19 -56 -5 -82 -11 -12 -20 -30 -20 -42 0
-11 -7 -23 -15 -26 -18 -7 -19 -33 -2 -54 10 -13 50 -15 245 -15 127 0 480 -1
782 -3 l550 -2 0 -45 0 -45 -40 0 c-29 0 -40 -4 -40 -15 0 -8 9 -15 20 -15 13
0 20 -7 20 -20 0 -13 7 -20 20 -20 13 0 20 -7 20 -20 0 -13 -7 -20 -20 -20
-13 0 -20 -7 -20 -20 0 -13 7 -20 20 -20 17 0 20 -7 20 -40 l0 -40 424 0 c233
0 431 3 440 6 9 3 16 12 16 20 0 15 4 15 85 19 28 2 55 4 60 6 18 5 95 -12 95
-22 0 -5 7 -9 16 -9 17 0 44 -23 44 -38 0 -12 86 -20 151 -14 42 4 52 9 60 29
11 30 33 25 37 -8 2 -15 -5 -32 -18 -44 -18 -16 -36 -18 -143 -16 -67 1 -137
4 -154 7 -29 5 -33 3 -33 -15 0 -11 -4 -21 -9 -21 -5 0 -12 -13 -16 -30 -4
-16 -13 -30 -20 -30 -8 0 -17 -10 -20 -22 -12 -40 -50 -113 -62 -121 -7 -4
-13 -17 -13 -28 0 -11 -7 -22 -15 -25 -8 -4 -15 -15 -15 -27 0 -32 -49 -129
-62 -121 -6 4 -8 3 -4 -4 8 -14 -27 -77 -44 -77 -7 0 -15 -11 -17 -25 -2 -13
-8 -29 -13 -34 -19 -19 -10 -46 23 -63 28 -15 68 -18 307 -21 164 -2 280 -8
287 -14 9 -7 17 -5 28 6 9 9 21 16 26 16 5 0 8 6 7 13 -2 8 13 12 47 13 28 1
68 6 90 13 22 6 60 11 85 11 25 0 65 7 90 15 25 8 72 22 105 31 33 10 83 28
112 41 28 13 67 23 86 23 26 0 44 9 74 39 57 54 133 103 163 106 34 2 55 15
69 42 7 14 8 24 1 28 -5 3 -10 13 -10 22 0 13 3 13 15 3 8 -7 23 -9 32 -5 17
6 17 7 1 19 -23 17 -23 26 2 26 11 0 20 -5 20 -12 0 -6 8 -4 20 7 10 9 24 42
30 72 8 36 21 64 40 83 17 17 32 46 35 67 8 44 8 45 40 98 14 22 29 50 34 62
13 28 29 37 45 24 9 -8 18 -7 32 4 18 13 18 14 1 27 -18 13 -18 16 -3 52 9 21
16 51 16 67 0 18 5 29 14 29 10 0 15 25 18 103 5 88 3 107 -14 141 -11 21 -21
47 -23 57 -8 38 -40 93 -78 130 -25 25 -33 39 -23 39 10 0 13 6 10 15 -4 8
-12 15 -20 15 -8 0 -14 5 -14 11 0 6 -7 3 -16 -5 -19 -20 -34 -21 -34 -2 0 26
-25 38 -55 24 -25 -11 -29 -10 -43 10 -8 12 -23 22 -33 22 -11 0 -19 5 -19 10
0 6 -16 10 -35 10 -19 0 -35 5 -35 10 0 6 6 10 14 10 20 0 32 40 15 51 -8 5
-39 9 -70 9 -30 0 -60 5 -67 12 -9 9 -12 9 -12 0 0 -7 -15 -13 -32 -13 l-33
-2 33 -6 c36 -7 44 -27 9 -24 -12 2 -107 6 -212 11 l-190 9 141 1 c78 1 156 5
173 8 28 6 31 10 31 45 0 32 -3 39 -20 39 -17 0 -20 7 -20 39 0 22 -5 42 -12
44 -10 4 -9 8 2 17 11 9 12 13 3 17 -18 7 -16 43 2 43 11 0 14 7 10 23 -5 19
1 25 37 40 58 23 129 22 156 -2 12 -10 22 -22 22 -25 0 -13 28 -36 44 -36 13
0 16 -14 16 -80 0 -73 2 -80 20 -80 11 0 20 -7 20 -15 0 -9 11 -27 25 -40 20
-21 34 -25 80 -25 l55 0 0 40 c0 33 -3 40 -20 40 -13 0 -20 7 -20 20 0 13 7
20 20 20 17 0 20 7 20 49 0 30 5 52 13 55 10 5 10 7 0 12 -7 3 -13 18 -13 34
0 33 -14 40 -84 40 -29 0 -73 7 -97 15 -36 12 -87 15 -254 13 l-210 -3 3 -36
c3 -29 -1 -37 -20 -46 -32 -14 -48 5 -48 57 l0 40 661 0 c414 0 658 4 654 9
-3 6 11 13 32 17 70 13 138 74 178 159 16 33 24 43 25 30 1 -11 12 11 26 49
13 38 29 82 36 98 14 31 38 45 38 23 0 -8 5 -15 10 -15 14 0 13 13 -2 28 -10
10 -7 22 12 60 14 26 30 54 37 62 12 16 13 19 13 51 0 11 5 17 10 14 6 -3 10
0 10 8 0 8 -10 17 -22 21 -13 3 -282 7 -598 8 -454 2 -521 3 -320 8 140 3 257
7 260 9 3 1 -4 6 -15 11 -17 8 -16 9 9 9 24 1 28 4 22 24 -3 12 -6 28 -6 35 0
6 -9 12 -20 12 -16 0 -20 7 -20 33 0 55 -10 78 -31 72 -11 -4 -19 -2 -19 4 0
6 -7 11 -15 11 -8 0 -15 7 -15 15 0 8 -4 15 -9 15 -5 0 -12 14 -16 30 -5 23
-12 30 -31 30 -13 0 -24 5 -24 11 0 11 -25 39 -35 39 -3 0 -10 -12 -15 -26 -6
-14 -19 -28 -30 -31 -11 -3 -20 -10 -20 -15 0 -5 4 -7 9 -4 17 11 61 -19 61
-40 0 -25 -23 -34 -87 -34 -39 0 -43 2 -43 25 0 24 -3 25 -60 25 -50 0 -60 -3
-61 -17 -1 -11 -4 -9 -8 7 -5 19 -14 26 -39 28 -30 3 -43 16 -24 24 15 6 63
76 55 81 -44 26 -161 30 -1069 29 -538 0 -968 4 -1005 9 -87 13 -283 21 -292
13z m414 -604 c10 -6 19 -17 19 -25 0 -8 8 -15 18 -15 14 0 15 -2 2 -10 -10
-6 -11 -10 -2 -10 6 0 12 -9 12 -20 0 -17 7 -20 40 -20 22 0 40 -4 40 -9 0 -5
10 -11 23 -13 17 -3 13 -7 -21 -17 -30 -8 -53 -9 -79 -2 -25 7 -41 7 -47 1 -7
-7 -3 -10 9 -10 15 0 17 -2 7 -9 -16 -10 543 -25 609 -17 24 3 193 2 374 -3
284 -7 212 -8 -520 -9 -552 -1 -845 2 -835 8 8 5 23 10 33 10 9 0 17 7 17 15
0 8 -8 15 -17 15 -15 0 -16 2 -3 10 8 5 20 24 26 42 l11 33 6 -35 7 -36 88 8
c48 4 112 10 142 14 l55 7 -32 13 c-34 14 -48 42 -38 74 7 22 26 25 56 10z
m1134 -1476 c-8 -6 -15 -21 -15 -32 0 -11 -4 -23 -9 -26 -4 -3 -6 6 -3 19 5
28 -3 32 -24 11 -16 -17 -19 -36 -4 -36 6 0 10 -7 10 -15 0 -8 -4 -15 -10 -15
-5 0 -10 -7 -10 -15 0 -9 -6 -12 -15 -9 -8 4 -15 15 -15 25 0 10 -1 20 -2 20
-2 1 -50 4 -108 8 -100 6 -105 7 -108 29 -6 41 18 47 178 47 113 0 147 -3 135
-11z"/>
<path d="M16920 9340 c0 -11 -7 -20 -15 -20 -11 0 -15 -11 -15 -40 0 -29 4
-40 15 -40 8 0 15 -9 15 -20 0 -13 7 -20 20 -20 13 0 20 -7 20 -20 0 -17 7
-20 40 -20 l40 0 0 40 c0 33 3 40 20 40 17 0 20 7 20 40 0 33 -3 40 -20 40
-11 0 -20 5 -20 10 0 6 -9 10 -20 10 -11 0 -20 5 -20 10 0 6 -18 10 -40 10
-33 0 -40 -3 -40 -20z"/>
<path d="M11430 9315 c-6 -8 -9 -19 -5 -25 3 -5 -1 -13 -9 -16 -9 -3 -16 -12
-16 -20 0 -7 -19 -18 -42 -24 -67 -17 -73 -22 -73 -74 0 -40 -3 -48 -22 -52
-12 -3 -24 -17 -27 -30 -4 -13 -11 -24 -16 -24 -6 0 -10 -11 -10 -25 0 -14 -7
-28 -15 -31 -8 -4 -15 -16 -16 -28 0 -13 -2 -16 -6 -6 -2 8 -7 22 -10 30 -3 8
-5 41 -3 73 1 52 -1 57 -19 57 -18 0 -21 6 -21 40 0 33 3 40 20 40 13 0 20 7
20 20 0 18 -7 20 -60 20 -47 0 -60 3 -60 15 0 17 -79 19 -378 8 -142 -5 -182
-9 -182 -20 0 -7 -7 -13 -15 -13 -8 0 -15 -7 -15 -15 0 -8 -5 -15 -11 -15 -6
0 -18 -7 -26 -16 -11 -11 -26 -14 -46 -10 -16 3 -51 6 -78 6 -39 0 -49 3 -49
16 0 15 -15 16 -147 9 -155 -7 -173 -13 -173 -57 l0 -23 -947 2 -948 1 -2 33
c-4 41 -12 50 -20 21 -3 -12 -10 -22 -17 -22 -6 0 -4 -4 4 -10 8 -5 11 -13 6
-17 -4 -4 -265 -9 -579 -10 -315 -1 -580 -2 -590 -2 -10 -1 -21 -9 -24 -18 -4
-10 -17 -27 -30 -38 -13 -11 -23 -26 -23 -32 0 -7 -6 -16 -14 -20 -9 -5 -16
-30 -19 -68 -3 -42 -8 -60 -18 -60 -15 0 -59 -79 -59 -106 0 -9 -6 -19 -14
-22 -8 -3 -20 -24 -27 -47 -7 -23 -23 -51 -36 -63 -12 -12 -23 -27 -23 -34 0
-6 -3 -13 -7 -15 -5 -1 -16 -18 -27 -37 -15 -28 -16 -35 -5 -42 8 -5 115 -9
239 -9 181 -1 229 -3 244 -15 17 -13 22 -13 42 0 19 12 61 15 206 15 101 0
211 -5 246 -10 35 -6 139 -12 232 -13 153 -2 167 -3 154 -18 -8 -8 -14 -28
-14 -44 0 -23 -2 -26 -15 -15 -13 11 -15 7 -15 -24 0 -20 -4 -36 -10 -36 -5 0
-10 -13 -10 -28 0 -26 -3 -28 -29 -24 -16 2 -32 -1 -35 -7 -4 -6 -22 -11 -39
-11 -32 0 -33 -1 -35 -50 -1 -30 2 -50 9 -50 6 0 17 -7 26 -15 14 -14 14 -18
-1 -34 -9 -10 -16 -25 -16 -35 0 -9 -7 -19 -15 -22 -8 -4 -15 -12 -15 -20 0
-19 -22 -64 -31 -64 -4 0 -10 8 -12 18 -2 9 -3 4 -1 -11 5 -39 -5 -77 -19 -72
-13 4 -67 -101 -67 -131 0 -11 -9 -25 -20 -32 -13 -8 -20 -23 -20 -45 0 -21
-7 -36 -20 -45 -11 -7 -20 -16 -20 -21 0 -6 -4 -20 -9 -33 -5 -13 -9 -26 -10
-30 0 -5 -9 -17 -18 -27 -54 -58 -63 -70 -63 -83 0 -16 -39 -100 -50 -108 -4
-3 -15 -22 -25 -42 -15 -33 -19 -36 -32 -23 -19 20 -30 12 -38 -26 -5 -22 -3
-34 6 -40 11 -6 11 -13 3 -26 -6 -10 -23 -40 -38 -68 -15 -27 -32 -54 -37 -59
-5 -6 -9 -16 -9 -23 0 -6 -13 -34 -28 -60 -15 -26 -34 -64 -42 -83 -8 -19 -22
-41 -32 -48 -10 -7 -15 -18 -12 -24 4 -5 -4 -23 -16 -40 -12 -16 -23 -40 -26
-53 -2 -12 -21 -52 -43 -87 -21 -34 -41 -73 -45 -85 -4 -11 -13 -24 -21 -27
-18 -7 -19 -35 -2 -57 11 -15 54 -17 419 -18 412 -2 506 5 494 34 -3 9 9 15
37 19 124 16 128 18 137 42 5 13 17 24 26 24 9 0 29 12 45 28 50 45 139 169
141 194 0 13 4 3 8 -22 6 -47 -7 -83 -40 -107 -9 -6 -29 -30 -44 -52 -32 -46
-30 -95 6 -104 11 -3 18 -10 15 -14 -3 -5 12 -10 34 -11 25 -2 41 2 43 10 2 7
11 42 19 78 11 50 16 59 20 40 3 -14 9 -43 14 -65 9 -43 43 -64 43 -27 0 23
31 34 64 24 34 -12 119 -7 124 6 5 17 22 15 22 -3 0 -10 11 -15 35 -15 24 0
35 5 35 14 0 8 10 17 23 19 l22 4 -22 2 c-17 1 -23 7 -23 26 0 16 -6 25 -15
25 -12 0 -15 19 -15 115 0 108 -1 115 -20 115 -13 0 -20 7 -20 20 0 11 -4 20
-10 20 -5 0 -10 7 -10 15 0 25 -50 74 -79 77 -25 3 -26 5 -23 56 2 32 -1 52
-7 52 -21 0 -11 57 14 85 14 15 29 41 32 59 3 17 16 41 28 53 12 12 28 42 35
65 7 24 23 57 35 73 12 17 32 52 44 80 12 27 31 57 41 67 11 11 20 30 20 43 0
13 10 31 23 40 14 11 18 19 10 22 -14 5 22 72 43 80 7 3 21 26 30 51 10 26 25
56 34 67 10 11 37 61 61 112 25 54 52 97 65 103 14 8 24 25 28 51 3 21 11 39
16 39 6 0 10 11 10 24 0 14 4 27 9 31 5 3 12 19 16 35 6 28 45 63 45 41 0 -6
8 -7 18 -4 15 6 15 4 4 -9 -11 -13 -11 -29 -2 -79 9 -50 9 -64 -2 -70 -10 -7
-7 -11 10 -15 24 -7 29 -20 10 -27 -10 -4 -9 -6 1 -6 8 -1 20 7 27 17 10 12
16 14 22 5 4 -7 17 -16 28 -20 18 -7 19 -13 12 -40 -7 -26 -14 -33 -33 -33
-14 0 -25 5 -25 10 0 6 -4 10 -10 10 -5 0 -10 -9 -10 -20 0 -16 7 -20 34 -20
30 0 34 -4 40 -31 3 -17 6 -71 6 -120 l0 -89 60 0 60 0 0 -60 0 -60 180 0 180
0 0 -40 0 -40 -80 0 c-73 0 -80 -2 -80 -20 0 -11 7 -20 15 -20 8 0 15 -9 15
-20 0 -11 4 -20 8 -20 5 0 7 -45 4 -100 l-5 -100 141 0 141 0 3 37 3 37 38
-57 c20 -31 37 -66 37 -77 0 -17 7 -20 40 -20 33 0 40 -3 40 -20 0 -19 -7 -20
-149 -20 -82 0 -163 -3 -180 -6 -27 -6 -31 -10 -31 -40 0 -28 4 -34 22 -34 21
0 21 -2 15 -121 l-7 -121 33 6 c79 15 114 17 147 9 28 -7 37 -16 44 -43 7 -25
7 -35 -2 -38 -7 -2 -12 -10 -12 -17 0 -11 -16 -13 -71 -10 -59 3 -73 1 -90
-16 -10 -10 -19 -23 -19 -29 0 -15 37 -12 43 4 6 16 57 28 57 13 0 -17 -34
-36 -63 -37 -20 0 -30 -6 -34 -20 -5 -18 -14 -20 -94 -20 -82 0 -89 2 -89 20
0 12 -7 20 -17 20 -11 0 -26 16 -37 40 -15 31 -25 40 -45 41 -57 2 -95 -3
-108 -16 -15 -16 -18 -65 -3 -65 6 0 10 -40 10 -100 0 -92 2 -100 19 -100 11
0 21 -5 23 -10 2 -6 38 -11 81 -12 42 -1 77 -5 77 -10 0 -4 36 -8 80 -8 l80 0
0 -40 c0 -22 5 -40 10 -40 6 0 10 -9 10 -20 0 -17 7 -20 50 -20 43 0 50 -3 50
-20 0 -19 7 -20 100 -20 93 0 100 -1 100 -20 0 -11 5 -20 10 -20 6 0 10 -9 10
-20 0 -18 7 -20 70 -20 63 0 70 -2 70 -20 0 -11 5 -20 10 -20 6 0 10 -9 10
-20 0 -18 7 -20 70 -20 63 0 70 -2 70 -20 0 -18 -7 -20 -80 -20 -73 0 -80 -2
-80 -20 0 -18 -7 -20 -80 -20 -47 0 -80 4 -80 10 0 6 -18 10 -39 10 -42 0 -51
11 -51 60 0 30 -15 40 -61 40 -28 0 -29 -2 -30 -47 -1 -27 -5 -61 -8 -78 -5
-18 -3 -40 5 -55 7 -14 15 -33 18 -42 4 -13 16 -18 46 -18 33 0 40 -3 40 -20
0 -13 7 -20 20 -20 13 0 20 -7 20 -20 0 -13 -7 -20 -20 -20 -11 0 -20 -6 -20
-14 0 -11 -39 -27 -75 -30 -5 -1 -17 -8 -25 -17 -8 -8 -23 -18 -32 -22 -23 -8
-24 -37 -2 -37 9 0 24 -8 33 -17 11 -12 31 -18 64 -18 41 0 47 3 47 21 0 11 6
21 14 21 8 0 15 -3 14 -6 -2 -25 4 -41 18 -41 12 0 14 7 9 30 l-7 30 81 0 c76
0 109 13 59 23 -17 3 -14 5 10 6 22 1 32 -3 32 -14 0 -12 18 -15 100 -15 60 0
100 4 100 10 0 6 7 10 15 10 9 0 15 9 15 24 0 19 -4 23 -20 19 -32 -9 -68 45
-41 61 5 3 7 15 4 25 -5 18 -2 19 33 8 22 -6 47 -16 57 -23 10 -6 28 -9 40 -6
20 5 20 6 1 13 -14 6 -9 8 19 8 33 1 37 4 37 26 0 15 -6 25 -14 25 -17 0 -26
22 -26 66 l0 34 80 0 c47 0 80 4 80 10 0 6 33 10 80 10 47 0 80 4 80 10 0 6
-60 10 -160 10 -100 0 -160 4 -160 10 0 6 -13 10 -30 10 -16 0 -30 5 -30 10 0
6 -22 10 -50 10 l-50 0 0 80 c0 73 2 80 20 80 13 0 20 7 20 20 0 13 7 20 20
20 16 0 20 7 20 30 0 23 4 30 20 30 16 0 20 7 20 30 0 28 2 30 40 30 22 0 40
-4 40 -10 0 -5 -9 -10 -20 -10 -11 0 -20 -4 -20 -10 0 -5 9 -10 20 -10 11 0
20 5 20 10 0 6 27 10 60 10 33 0 60 -4 60 -10 0 -6 33 -10 80 -10 47 0 80 4
80 10 0 6 11 10 25 10 43 0 27 20 -17 21 l-43 1 55 10 c30 5 67 10 82 9 15 0
30 4 33 9 4 6 14 10 23 10 10 0 23 9 30 20 7 11 20 20 29 20 9 0 24 6 32 14
21 18 66 32 57 17 -4 -6 -1 -11 7 -11 16 0 67 -61 67 -80 0 -14 -19 -33 -47
-48 -12 -7 -57 -12 -100 -13 -43 0 -72 -3 -65 -6 14 -5 17 -33 3 -33 -5 0 -11
3 -14 8 -2 4 -2 1 0 -6 1 -8 3 -56 3 -108 l0 -94 40 0 c33 0 40 -3 40 -20 0
-17 7 -20 40 -20 l40 0 0 40 c0 33 -3 40 -20 40 -17 0 -20 7 -20 40 0 33 3 40
20 40 13 0 20 7 20 20 0 18 7 20 80 20 73 0 80 -2 80 -20 0 -18 7 -20 80 -20
73 0 80 2 80 20 0 17 -7 20 -40 20 -33 0 -40 3 -40 20 0 17 -7 20 -40 20 -39
0 -40 1 -40 35 0 34 1 35 40 35 33 0 40 -3 40 -20 0 -13 7 -20 20 -20 11 0 20
-6 20 -13 0 -18 35 -49 44 -40 4 4 9 -3 13 -15 3 -12 12 -22 19 -22 8 0 14 -4
14 -10 0 -5 -11 -10 -25 -10 -18 0 -25 -5 -25 -20 0 -17 7 -20 40 -20 28 0 40
4 40 15 0 11 12 14 53 12 l52 -2 3 69 c3 58 6 69 22 73 11 3 20 8 20 12 0 3
29 6 65 6 45 0 65 -4 65 -12 0 -8 15 -13 40 -13 l40 0 0 -58 c0 -51 2 -58 20
-59 17 -2 20 4 20 46 0 40 5 52 33 79 30 30 38 32 100 32 60 0 67 -2 67 -20 0
-13 7 -20 20 -20 11 0 20 -4 20 -10 0 -5 -9 -10 -20 -10 -16 0 -20 -7 -20 -30
0 -25 4 -30 25 -30 16 0 25 6 25 16 0 9 9 27 20 41 17 22 21 23 26 9 3 -9 4
-26 2 -39 -3 -17 1 -22 19 -23 20 -2 23 3 23 36 0 29 -4 39 -20 43 -14 4 -20
14 -20 34 0 22 5 29 20 30 16 1 20 -4 20 -33 0 -27 4 -34 20 -34 13 0 20 7 20
20 0 11 5 20 10 20 6 0 10 9 10 20 0 19 7 20 120 20 l120 0 0 60 c0 53 2 60
20 60 11 0 20 5 20 10 0 6 6 10 14 10 8 0 17 8 19 18 3 10 5 5 7 -13 1 -16 4
-24 7 -17 2 6 11 12 19 12 8 0 14 7 14 15 0 8 5 15 10 15 6 0 10 6 10 14 0 21
23 26 126 26 l94 0 0 54 c0 42 -4 56 -17 62 -10 4 -22 6 -27 5 -5 -1 -6 5 -3
12 5 14 -30 37 -57 37 -8 0 -16 6 -19 13 -3 9 5 12 32 10 l36 -2 -33 11 c-40
14 -37 32 7 36 19 2 31 8 28 15 -2 7 7 22 21 33 13 12 22 26 19 31 -4 6 -78
11 -173 11 -92 1 -169 4 -172 7 -3 3 103 5 235 5 l241 0 14 -30 c17 -40 30
-38 23 3 l-6 32 175 -3 c158 -3 174 -4 169 -19 -4 -11 -8 -13 -11 -5 -3 9 -45
12 -150 12 -149 0 -193 -9 -61 -12 41 -1 64 -4 52 -6 -13 -2 -23 -8 -23 -13 0
-6 37 -10 93 -9 50 1 99 1 108 1 9 -1 22 -14 29 -31 10 -24 17 -29 36 -24 18
5 26 1 31 -12 3 -11 17 -33 30 -51 15 -19 20 -34 14 -38 -6 -3 -11 -2 -11 4 0
17 -41 24 -135 25 -96 1 -115 -6 -115 -46 0 -39 14 -48 81 -54 70 -6 139 -32
139 -51 0 -7 4 -13 9 -13 5 0 7 -9 4 -20 -3 -12 1 -22 11 -26 13 -5 16 -23 16
-104 l0 -98 73 -4 c56 -4 75 -2 84 10 8 9 35 17 68 20 30 2 55 6 55 8 0 2 -13
23 -30 46 -24 33 -28 44 -18 55 12 15 10 18 117 -107 l34 -40 588 0 c369 0
590 4 594 10 11 18 -28 75 -96 141 -38 36 -69 71 -69 77 0 19 -35 59 -184 212
-40 40 -54 60 -42 60 9 0 14 5 11 10 -3 6 -12 10 -19 10 -15 0 -99 80 -92 87
2 3 28 1 58 -4 48 -7 53 -11 56 -36 3 -22 7 -27 21 -22 33 10 51 -5 51 -41 0
-19 5 -34 10 -34 6 0 10 5 10 10 0 20 19 9 22 -12 2 -13 4 3 5 35 1 40 -2 57
-11 57 -7 0 -23 9 -36 20 -21 18 -21 20 -4 20 16 0 17 2 4 10 -13 8 -12 10 2
10 10 0 52 16 94 35 41 19 79 35 82 35 12 0 72 61 72 73 0 9 3 8 8 -1 6 -9 14
-1 26 27 16 34 44 56 69 52 4 -1 7 6 7 15 0 10 6 14 15 10 10 -3 15 1 16 12 2
33 -3 57 -14 64 -9 5 -9 10 1 20 6 6 12 20 12 30 0 10 4 18 10 18 5 0 18 19
29 43 11 23 29 56 41 72 11 17 20 42 20 57 0 15 9 34 23 45 12 10 23 29 25 42
1 13 16 39 32 58 17 18 30 40 30 48 0 8 5 15 10 15 6 0 10 8 10 19 0 10 7 25
16 32 16 13 64 109 64 127 0 5 9 17 20 27 11 10 20 26 20 36 0 10 8 23 18 28
9 5 25 33 36 62 17 49 19 52 32 34 8 -10 11 -27 8 -38 -3 -10 -3 -34 1 -53 5
-27 11 -34 30 -34 13 0 26 6 28 13 3 6 6 2 6 -10 1 -17 -5 -23 -19 -23 -13 0
-20 -7 -20 -20 0 -17 7 -20 40 -20 22 0 40 5 40 10 0 6 -4 10 -9 10 -5 0 -12
45 -16 100 -5 64 -11 100 -19 100 -6 0 -17 14 -25 31 -12 28 -12 32 7 44 27
20 59 105 72 195 6 41 13 76 15 79 3 2 5 -21 5 -52 0 -49 3 -57 19 -57 10 0
31 -2 47 -6 25 -4 31 -1 42 23 7 15 15 71 19 124 l6 98 -49 14 c-31 9 -51 11
-55 5 -4 -6 -9 -6 -13 1 -13 21 -26 0 -26 -40 0 -51 -16 -50 -32 4 -24 79 -63
136 -134 194 -38 31 -71 59 -74 62 -5 6 -17 10 -59 19 -13 3 -32 13 -42 23
-11 11 -25 19 -33 19 -7 0 -19 7 -26 15 -7 8 -27 15 -44 15 -22 0 -27 3 -17 9
21 13 -11 20 -97 20 -42 0 -80 5 -88 12 -10 8 -61 10 -171 8 -87 -2 -240 -3
-340 -1 -176 2 -183 3 -183 22 0 13 -7 20 -19 20 -30 0 -51 -11 -51 -26 0 -12
-140 -14 -915 -14 l-915 0 0 30 0 30 -60 0 -60 0 0 -30 0 -30 -119 0 -120 0
-3 33 c-2 24 -8 32 -23 32 -15 0 -21 -8 -23 -32 l-3 -33 -205 0 -204 0 0 55 0
54 -60 7 c-53 6 -60 9 -60 29 0 24 -38 65 -62 65 -9 0 -21 -7 -28 -15z m1910
-828 c0 -8 7 -21 17 -28 15 -13 16 -11 11 14 l-5 27 588 0 c546 0 587 -1 585
-17 -4 -23 -23 -28 -41 -10 -13 13 -89 16 -560 16 l-545 1 0 -22 c0 -17 2 -20
9 -9 8 12 15 10 46 -7 38 -23 89 -29 100 -12 10 17 25 11 25 -10 0 -13 7 -20
20 -20 24 0 26 16 3 28 -10 6 -14 16 -10 26 6 14 10 15 29 5 13 -7 26 -17 30
-22 4 -7 16 -6 35 3 21 10 74 13 216 11 130 -2 187 1 187 8 0 7 49 11 150 11
93 0 150 -4 150 -10 0 -5 21 -10 48 -10 69 0 75 -7 61 -63 -6 -26 -15 -47 -19
-47 -5 0 -12 -15 -15 -32 -4 -18 -18 -49 -31 -70 -13 -21 -24 -46 -24 -57 0
-11 -11 -32 -24 -47 -50 -56 -56 -65 -56 -86 0 -13 -9 -34 -20 -48 l-20 -25 0
24 c0 23 -2 24 -54 17 -72 -8 -83 -13 -90 -42 -8 -30 -26 -31 -26 -1 0 12 -7
31 -16 42 -11 15 -18 17 -32 9 -9 -6 -17 -22 -17 -34 0 -19 9 -26 43 -37 25
-9 42 -21 42 -30 0 -12 9 -14 40 -11 56 5 67 -30 30 -102 -22 -43 -49 -52 -57
-20 -3 13 -14 20 -29 20 -27 0 -29 -8 -12 -45 15 -33 5 -42 -28 -25 -22 12
-27 12 -35 0 -5 -8 -7 -25 -4 -36 4 -18 -1 -23 -26 -28 -17 -3 -258 -6 -535
-6 l-504 0 0 40 c0 36 -2 40 -25 40 -24 0 -25 2 -25 76 0 67 -2 76 -20 81 -11
3 -20 11 -20 17 0 7 -9 22 -20 34 -24 25 -25 32 -5 32 27 0 16 28 -15 35 -16
4 -32 15 -35 26 -4 10 -14 19 -24 19 -13 0 -20 10 -24 30 -5 22 -12 30 -27 30
-34 0 -47 22 -54 93 -7 57 -5 67 8 67 12 0 16 10 16 40 0 38 -2 40 -30 40 -28
0 -30 -2 -30 -41 l0 -42 -36 6 c-42 7 -77 34 -70 54 3 8 -1 16 -9 19 -8 4 -15
11 -15 16 0 6 7 8 14 5 10 -4 13 -1 9 9 -3 7 0 14 6 14 7 0 11 6 10 13 -6 48
-4 49 98 46 58 -2 98 1 100 7 2 6 115 11 298 13 254 2 295 1 295 -12z m-3229
-87 c10 0 19 -4 19 -10 0 -5 -10 -10 -21 -10 -19 0 -21 -4 -15 -37 3 -21 6
-89 6 -150 l0 -113 30 0 30 0 0 -120 0 -120 -160 0 -160 0 0 80 0 80 -60 0
-60 0 0 40 0 40 60 0 60 0 0 120 0 120 -40 0 c-38 0 -40 2 -40 30 0 27 3 30
33 31 17 0 43 2 57 4 14 2 71 7 128 11 63 4 102 11 103 18 0 7 3 6 6 -1 2 -7
13 -13 24 -13z m2449 -460 c0 -84 -2 -100 -16 -100 -17 0 -44 -23 -44 -38 0
-5 -22 -7 -48 -4 -44 4 -49 2 -60 -22 -7 -15 -12 -33 -12 -41 0 -8 -4 -15 -10
-15 -6 0 -10 40 -10 100 l0 100 -40 0 -40 0 0 50 c0 43 3 50 20 50 11 0 20 -4
20 -10 0 -5 18 -10 40 -10 33 0 40 3 40 20 0 18 7 20 80 20 l80 0 0 -100z
m-300 -881 c-51 -8 -170 -16 -335 -20 l-70 -3 70 -6 70 -6 -67 -2 c-40 -1 -68
-7 -70 -14 -3 -7 -38 -14 -88 -17 -52 -4 -85 -11 -88 -19 -2 -8 -30 -12 -86
-12 -56 0 -93 -5 -115 -16 -24 -12 -50 -15 -109 -10 -42 2 -78 5 -79 5 -2 1
-3 14 -3 31 0 22 4 28 15 24 12 -5 15 2 15 31 l0 38 323 -5 c177 -3 331 -1
342 3 11 4 90 7 175 7 124 -1 144 -3 100 -9z m-240 -31 c0 -8 28 -9 100 -5
l100 6 0 -40 c0 -61 -14 -69 -124 -69 -75 0 -96 3 -96 14 0 8 7 16 15 20 8 3
15 10 15 16 0 5 -7 10 -15 10 -10 0 -15 10 -15 30 0 17 5 30 10 30 6 0 10 -5
10 -12z"/>
<path d="M16851 9121 c-6 -10 -8 -35 -4 -55 5 -34 4 -36 -23 -36 -16 0 -24 4
-18 8 19 13 25 42 9 42 -8 0 -15 7 -15 15 0 20 -59 20 -66 0 -3 -8 -21 -17
-40 -21 -43 -8 -46 -34 -4 -34 23 0 30 -4 30 -20 0 -11 6 -20 14 -20 8 0 18
-9 21 -20 3 -11 12 -20 20 -20 21 0 26 -29 9 -56 -21 -32 -30 -30 -37 6 -5 24
-12 30 -32 30 -14 0 -25 -4 -25 -10 0 -5 -5 -10 -11 -10 -20 0 -38 -34 -39
-72 0 -21 5 -38 11 -38 16 0 8 -72 -13 -102 -10 -14 -18 -38 -18 -52 0 -26 0
-26 -25 -10 -24 16 -27 16 -40 -2 -19 -25 -19 -63 0 -84 20 -22 1 -87 -20 -70
-16 13 -25 -7 -25 -56 0 -19 -4 -34 -9 -34 -5 0 -22 -26 -37 -57 -15 -32 -42
-79 -61 -106 -18 -26 -33 -56 -33 -66 0 -11 -5 -21 -10 -23 -6 -2 -12 -12 -15
-23 -11 -46 -30 -95 -38 -95 -16 0 -37 -29 -37 -49 0 -16 -32 -88 -58 -130 -1
-3 -8 4 -16 14 -13 18 -14 18 -20 -3 -4 -12 -4 -32 -1 -44 7 -23 7 -23 -9 -3
-8 11 -16 33 -16 48 0 35 -21 59 -41 46 -8 -5 -26 -9 -41 -9 -16 0 -28 -4 -28
-10 0 -5 -9 -10 -20 -10 -18 0 -20 -7 -20 -80 0 -47 4 -80 10 -80 6 0 10 -11
10 -25 0 -14 12 -37 26 -51 18 -19 24 -34 22 -57 -3 -33 -28 -51 -28 -20 0 15
-2 16 -10 3 -5 -8 -10 -32 -10 -52 0 -39 -15 -52 -23 -20 -6 27 -27 -32 -29
-81 -1 -52 -6 -61 -24 -46 -20 17 -31 2 -16 -22 11 -18 10 -23 -10 -41 -13
-11 -28 -33 -34 -51 -10 -30 -21 -40 -59 -52 -18 -6 -18 -8 -5 -18 15 -11 26
-67 14 -67 -12 0 -34 30 -34 47 -1 15 -2 16 -9 3 -5 -8 -6 -35 -1 -60 9 -45
-3 -79 -16 -47 -10 27 -22 20 -26 -17 -2 -19 0 -32 4 -30 17 11 7 -9 -14 -27
-19 -15 -20 -20 -9 -28 12 -8 12 -12 -2 -26 -9 -9 -24 -33 -34 -53 -9 -20 -28
-45 -40 -55 -18 -14 -23 -29 -23 -63 0 -31 -4 -44 -14 -44 -8 0 -22 -20 -31
-44 -13 -33 -21 -43 -33 -39 -12 5 -14 1 -10 -15 4 -12 2 -24 -2 -27 -5 -3
-19 -27 -33 -55 -20 -40 -22 -51 -12 -60 10 -8 162 -10 509 -8 l496 3 15 23
c9 12 24 22 34 22 9 0 40 11 69 25 28 13 65 26 82 27 16 1 30 7 30 14 0 23 32
73 51 79 10 4 17 11 14 16 -4 5 5 9 19 9 20 0 26 -5 26 -23 0 -12 -9 -29 -20
-37 -12 -8 -20 -26 -20 -42 0 -21 -5 -28 -20 -28 -11 0 -20 -4 -20 -10 0 -5
-10 -10 -22 -10 -21 -1 -22 -2 -5 -14 9 -7 28 -11 42 -8 15 2 25 0 25 -7 0 -6
9 -11 20 -11 11 0 20 -4 20 -10 0 -6 40 -10 100 -10 l100 0 0 50 0 50 -40 0
c-38 0 -40 2 -40 30 0 17 -4 30 -10 30 -5 0 -10 14 -10 30 0 17 5 30 13 30 8
0 7 4 -3 10 -24 16 -30 12 -30 -20 0 -16 -4 -30 -10 -30 -11 0 -13 70 -2 85 4
6 17 15 29 20 18 9 19 12 7 23 -12 11 -14 10 -14 -3 0 -9 -6 -15 -12 -12 -9 2
-12 23 -11 63 2 81 5 111 10 97 3 -7 13 -13 24 -13 26 0 24 -18 -3 -23 l-23
-4 23 -8 c22 -7 31 -25 12 -25 -5 0 -10 -4 -10 -10 0 -5 23 -10 50 -10 49 0
50 1 50 30 0 17 -4 30 -10 30 -5 0 -10 5 -10 10 0 6 11 10 24 10 15 0 26 7 29
20 3 12 14 20 26 20 20 0 21 5 21 80 0 62 -3 80 -14 80 -8 0 -17 -6 -20 -12
-4 -8 -8 -9 -11 -3 -18 36 -24 40 -37 27 -19 -19 -28 -14 -28 14 0 22 4 25 21
21 18 -5 20 -2 15 18 -6 24 58 175 75 175 18 0 13 -39 -13 -97 -15 -35 -28
-69 -28 -78 0 -8 -5 -15 -11 -15 -6 0 -3 -7 6 -17 14 -14 18 -14 27 -2 7 11
11 11 15 2 12 -31 83 -5 83 31 0 16 24 24 58 18 20 -4 22 -10 22 -63 l0 -59
80 0 c73 0 80 2 80 20 0 13 -7 20 -20 20 -18 0 -20 7 -20 80 0 73 2 80 20 80
11 0 20 6 20 14 0 8 -9 18 -20 21 -20 6 -29 45 -10 45 6 0 10 22 10 48 l0 48
40 2 c23 2 40 -2 40 -8 0 -5 7 -10 15 -10 8 0 15 -9 15 -20 0 -16 7 -20 35
-20 34 0 35 -1 35 -40 0 -33 3 -40 20 -40 18 0 20 -7 20 -60 0 -53 2 -60 20
-60 13 0 20 -7 20 -19 0 -13 10 -20 31 -25 57 -11 69 -8 69 19 0 14 8 29 21
35 31 17 35 4 11 -41 -12 -23 -22 -47 -22 -55 0 -21 -29 -74 -40 -74 -5 0 -13
12 -16 26 -8 30 -55 54 -109 54 -32 0 -35 -3 -35 -29 0 -57 12 -91 31 -91 15
0 19 -8 19 -40 0 -22 -4 -40 -10 -40 -5 0 -10 -9 -10 -20 0 -13 7 -20 20 -20
15 0 20 7 20 25 0 16 6 25 16 25 11 0 14 -6 8 -22 -3 -13 -11 -24 -15 -26 -5
-2 -9 -9 -9 -16 0 -7 -13 -40 -30 -74 -16 -34 -30 -69 -30 -77 0 -8 -4 -15
-10 -15 -5 0 -10 -7 -10 -15 0 -8 -3 -15 -7 -15 -5 0 -21 -26 -38 -58 -16 -31
-36 -61 -42 -65 -7 -4 -13 -23 -13 -41 0 -31 3 -34 38 -39 20 -4 109 -5 197
-3 88 2 139 2 113 -1 -99 -9 -42 -19 102 -19 82 1 150 4 150 9 0 4 36 7 80 7
47 0 80 -4 80 -10 0 -6 -33 -10 -80 -10 l-80 0 0 -29 0 -28 128 -5 c70 -3 134
-2 143 3 17 9 15 59 -2 59 -5 0 -9 4 -9 8 0 5 48 12 108 16 143 9 148 10 179
67 20 38 30 48 45 43 10 -3 18 -1 18 5 0 6 -7 11 -15 11 -16 0 -20 12 -8 23 3
4 12 2 20 -4 8 -8 13 -8 13 -1 0 6 -5 12 -12 14 -13 5 -4 38 11 38 5 0 12 -8
15 -17 3 -10 4 1 2 25 -3 28 0 45 9 50 7 4 26 38 41 76 17 43 34 70 45 73 11
3 16 9 14 14 -9 13 6 59 17 53 13 -8 28 14 28 42 0 12 6 27 14 33 11 9 15 6
20 -14 9 -36 -2 -72 -25 -78 -10 -3 -19 -12 -19 -21 0 -9 -4 -16 -10 -16 -5 0
-10 -7 -10 -15 0 -8 7 -15 15 -15 21 0 19 -27 -4 -39 -20 -11 -36 -51 -20 -51
5 0 9 -9 9 -20 0 -14 7 -20 21 -20 12 0 23 8 26 20 4 15 14 20 39 20 19 0 34
5 34 10 0 6 -4 10 -10 10 -5 0 -10 5 -10 10 0 6 14 10 30 10 17 0 30 5 30 10
0 6 -4 10 -10 10 -5 0 -10 23 -10 50 0 28 5 50 10 50 6 0 10 -18 10 -40 l0
-40 100 0 100 0 0 170 0 169 -112 4 -113 3 113 2 112 2 0 960 0 960 -173 0
-174 0 -13 -55 c-12 -51 -20 -60 -44 -56 -18 4 -53 -9 -73 -26 -21 -19 -39
-93 -22 -93 5 0 9 -12 9 -26 0 -14 -4 -23 -9 -19 -6 3 -13 -11 -16 -32 -10
-60 -21 -79 -64 -109 -37 -27 -55 -64 -31 -64 6 0 10 -16 10 -35 0 -24 -5 -35
-14 -35 -8 0 -31 -33 -51 -74 -40 -78 -75 -126 -94 -126 -6 0 -10 -3 -8 -8 3
-12 -35 -92 -45 -92 -4 0 -8 -23 -8 -50 0 -43 -3 -50 -17 -48 -13 2 -18 -4
-20 -22 0 -14 -1 -30 -2 -37 -1 -7 -8 -10 -16 -7 -8 4 -15 1 -15 -5 0 -23 -75
-171 -87 -171 -6 0 -16 -14 -22 -31 -6 -17 -15 -28 -21 -24 -5 3 -10 -3 -10
-14 0 -16 -6 -21 -25 -21 -27 0 -58 -41 -36 -48 13 -4 15 -102 2 -102 -5 0
-12 6 -14 13 -4 9 -8 9 -15 -2 -9 -12 -13 -12 -28 3 -18 19 -76 16 -82 -4 -2
-6 -10 -10 -18 -10 -8 0 -14 -9 -14 -20 0 -11 5 -20 10 -20 6 0 10 -9 10 -20
0 -11 -4 -20 -10 -20 -5 0 -10 -9 -10 -20 0 -11 -4 -20 -8 -20 -4 0 -14 9 -22
20 -12 17 -26 20 -82 20 l-68 0 0 40 0 40 -40 0 -40 0 0 60 0 60 -40 0 c-29 0
-40 -4 -40 -15 0 -8 -9 -15 -20 -15 -11 0 -20 5 -20 10 0 6 -7 10 -15 10 -8 0
-17 -14 -21 -35 -4 -25 -11 -35 -25 -35 -11 0 -19 -7 -19 -15 0 -22 -52 -73
-58 -57 -2 7 -9 12 -17 12 -42 0 -42 65 0 102 14 12 25 31 25 42 0 12 11 41
25 65 29 49 31 68 11 90 -18 20 -10 72 10 64 8 -3 14 -11 14 -19 0 -7 10 -19
23 -25 12 -7 24 -15 27 -20 3 -4 17 -5 33 -2 18 4 27 12 27 24 0 11 -4 19 -10
19 -5 0 -10 14 -10 30 0 19 -5 30 -14 30 -20 0 -29 46 -15 73 7 12 11 41 10
63 -1 33 3 46 21 60 13 11 31 35 41 54 l17 35 -3 -41 -2 -40 30 10 c41 14 41
14 18 33 -11 10 -25 28 -32 40 -10 19 -8 24 9 35 11 7 20 18 20 25 0 7 8 28
17 48 18 39 53 49 53 15 0 -13 5 -18 15 -14 10 4 15 0 15 -15 0 -12 5 -21 10
-21 13 0 13 47 -1 55 -6 4 -9 32 -8 64 1 32 -1 63 -5 70 -5 7 -5 15 -1 19 4 4
10 2 12 -5 2 -7 11 -9 19 -6 8 3 14 0 14 -6 0 -6 9 -11 20 -11 16 0 20 7 20
33 0 18 6 41 14 52 7 11 16 41 20 67 4 26 11 50 17 53 5 4 6 11 3 17 -4 7 -2
8 4 4 6 -3 16 2 21 13 13 24 14 64 2 57 -16 -11 -23 28 -7 40 9 6 16 16 16 23
0 6 13 36 30 67 16 30 27 61 24 68 -4 10 -121 14 -562 19 -366 4 -558 10 -560
17 -6 16 -20 12 -31 -9z"/>
<path d="M17720 8280 c0 -13 -7 -20 -19 -20 -11 0 -23 -12 -31 -29 -8 -20 -21
-32 -40 -36 -33 -7 -48 -47 -28 -73 31 -40 32 -40 55 -13 l23 26 0 -27 c0 -26
3 -28 40 -28 l40 0 0 40 c0 22 -4 40 -10 40 -5 0 -10 18 -10 39 0 22 -6 42
-12 45 -10 5 -10 7 0 12 14 7 16 44 2 44 -5 0 -10 -9 -10 -20z"/>
<path d="M8824 6495 c-4 -8 -13 -15 -21 -15 -13 0 -14 -9 -10 -42 3 -24 2 -36
-3 -29 -6 11 -9 10 -13 -5 -3 -11 -5 -4 -6 16 -1 37 -15 68 -24 54 -2 -5 -8
-24 -12 -41 -5 -28 -4 -32 9 -27 11 4 16 0 16 -14 0 -11 7 -22 16 -24 29 -5
44 -83 44 -225 0 -82 -4 -133 -10 -133 -5 0 -10 7 -10 15 0 8 -7 15 -15 15 -8
0 -15 -4 -15 -10 0 -5 -27 -12 -59 -16 -52 -6 -60 -9 -64 -30 -6 -35 21 -54
80 -54 36 0 56 -6 74 -21 18 -16 31 -19 59 -14 19 4 88 7 153 6 l117 -1 0 30
c0 20 5 30 15 30 8 0 15 9 15 20 0 18 7 20 80 20 73 0 80 2 80 20 0 17 7 20
40 20 33 0 40 3 40 20 0 13 -7 20 -20 20 -13 0 -20 7 -20 20 0 13 -7 20 -20
20 -13 0 -20 7 -20 19 0 18 -10 20 -137 23 -98 2 -138 7 -141 16 -2 6 -19 12
-38 12 -22 0 -37 6 -40 15 -4 8 -14 15 -24 15 -24 0 -28 16 -28 135 0 93 -2
102 -26 127 -28 31 -54 36 -62 13z"/>
<path d="M19186 5773 c4 -390 8 -710 10 -712 2 -2 4 316 4 707 0 471 -3 712
-10 712 -7 0 -8 -236 -4 -707z"/>
<path d="M8545 6424 c-34 -8 -46 -39 -39 -96 10 -71 41 -103 92 -93 20 4 39 9
41 11 3 2 6 42 8 89 3 68 1 85 -10 85 -8 0 -27 2 -43 4 -16 2 -38 2 -49 0z"/>
<path d="M11200 6140 c0 -19 -7 -20 -160 -20 -153 0 -160 -1 -160 -20 0 -18
-7 -20 -80 -20 -47 0 -80 -4 -80 -10 0 -6 33 -10 80 -10 47 0 80 4 80 10 0 6
18 10 40 10 l40 0 0 -80 0 -80 40 0 c29 0 40 -4 40 -15 0 -12 16 -15 80 -15
64 0 80 3 80 15 0 8 9 15 20 15 19 0 20 7 20 120 0 113 -1 120 -20 120 -13 0
-20 -7 -20 -20z"/>
<path d="M10513 6044 c-7 -7 -13 -17 -13 -23 0 -5 -7 -11 -15 -15 -8 -3 -15
-13 -15 -22 0 -18 39 -87 52 -92 4 -2 8 -10 8 -18 0 -8 7 -14 15 -14 8 0 15
-4 15 -10 0 -5 18 -10 40 -10 l40 0 0 40 c0 38 2 40 30 40 28 0 30 -2 30 -40
0 -22 5 -40 10 -40 6 0 10 15 10 33 0 24 3 28 10 17 9 -13 10 -13 10 0 0 11 2
12 8 3 6 -9 12 -7 22 7 11 15 26 20 62 20 41 0 48 -3 48 -20 0 -11 5 -20 10
-20 6 0 10 9 10 20 0 11 -4 20 -10 20 -5 0 -10 18 -10 40 l0 40 -120 0 c-113
0 -120 -1 -120 -20 0 -17 -7 -20 -40 -20 l-40 0 0 40 c0 28 -4 40 -14 40 -8 0
-16 4 -18 9 -1 5 -9 3 -15 -5z"/>
<path d="M4533 5804 c-29 -13 -53 -28 -53 -33 0 -5 -9 -11 -20 -14 -11 -3 -20
-13 -20 -23 0 -10 -10 -28 -22 -39 -29 -26 -39 -42 -88 -142 -22 -46 -44 -83
-48 -83 -8 0 -35 -55 -39 -80 -1 -8 -5 -40 -9 -71 -6 -54 -5 -57 17 -64 13 -5
30 -17 38 -28 14 -20 21 -20 262 -14 159 4 250 3 254 -3 12 -19 25 -10 25 18
0 26 29 62 50 62 6 0 10 5 10 10 0 19 20 10 30 -12 5 -13 19 -34 31 -48 l21
-25 316 0 317 0 13 28 c7 15 18 27 23 27 15 0 39 26 39 43 0 8 9 22 20 32 10
9 24 34 31 54 15 47 26 58 33 33 8 -23 -9 -72 -24 -72 -5 0 -10 -9 -10 -21 0
-11 -7 -28 -16 -37 -12 -12 -13 -17 -4 -20 7 -3 17 2 22 9 8 12 10 12 15 0 10
-25 75 -91 84 -85 5 3 126 6 270 7 l262 3 26 30 c14 17 39 34 55 38 21 5 27
12 23 25 -2 11 4 26 14 35 31 26 42 20 35 -21 -4 -21 -8 -54 -9 -73 l-2 -35
83 4 c92 3 125 16 130 46 2 11 5 27 8 35 4 13 6 13 15 0 8 -12 10 -10 6 8 -3
12 -2 22 3 22 4 0 11 11 14 25 11 42 29 30 22 -14 -3 -23 -2 -42 4 -46 6 -3
45 -6 88 -6 76 0 77 0 96 -32 17 -30 19 -30 27 -12 7 17 8 17 8 -7 l1 -28 94
0 c82 0 95 -2 99 -17 2 -13 9 -7 23 22 23 48 38 67 102 123 29 26 33 36 30 72
-1 29 3 46 13 54 9 6 14 17 12 23 -3 7 5 28 16 47 12 18 21 40 21 49 0 14 26
32 43 29 10 -3 9 5 -5 27 -9 15 -9 23 1 35 20 24 31 19 31 -14 0 -28 2 -29 26
-20 41 16 164 13 164 -4 0 -7 -7 -19 -15 -26 -8 -7 -15 -9 -15 -4 0 5 -7 -2
-16 -14 -8 -12 -13 -26 -10 -30 3 -5 -5 -29 -17 -53 l-22 -44 -3 53 c-3 43 -6
53 -18 48 -9 -3 -18 -6 -20 -6 -2 0 -4 -18 -4 -39 0 -27 5 -41 16 -45 21 -8
12 -61 -14 -85 -10 -9 -24 -32 -32 -51 -8 -19 -22 -44 -32 -54 -25 -27 -32
-54 -18 -71 10 -12 9 -15 -6 -16 -11 -1 -22 -1 -26 0 -5 0 -8 -8 -8 -19 0 -11
5 -20 10 -20 6 0 10 -7 10 -15 0 -15 17 -14 66 0 6 2 9 17 6 34 l-4 31 53 0
c30 1 64 6 76 13 40 22 93 77 93 96 0 10 6 24 14 30 12 10 15 8 19 -11 4 -18
5 -17 5 7 1 40 17 102 32 120 7 8 27 45 45 81 22 47 34 62 38 50 9 -23 27 -20
27 5 0 13 -4 18 -12 13 -8 -5 -9 -2 -5 10 4 10 7 20 7 22 0 2 47 4 104 4 96 0
105 2 119 23 l16 22 0 -23 c1 -12 -10 -40 -23 -61 -13 -21 -26 -49 -28 -62 -2
-16 -9 -24 -23 -24 -16 0 -21 -8 -23 -39 -2 -24 -12 -47 -27 -62 -13 -13 -26
-33 -30 -44 -3 -11 -11 -20 -16 -20 -5 0 -9 -9 -9 -20 0 -11 -4 -20 -8 -20 -9
0 -12 -93 -3 -100 3 -3 11 -14 17 -25 10 -17 20 -19 85 -18 41 1 99 9 129 17
75 21 77 21 72 -19 -3 -27 -1 -35 12 -35 9 0 16 4 16 9 0 5 8 12 18 14 16 4
16 5 0 6 -10 0 -18 5 -18 11 0 6 64 11 158 12 157 3 157 3 155 26 -3 21 35
117 43 109 2 -1 -3 -27 -11 -57 -18 -68 -18 -70 -2 -70 8 0 22 -9 32 -20 21
-23 62 -26 89 -5 11 8 29 16 40 16 12 1 5 5 -14 9 -32 7 -33 7 -7 9 36 1 64
16 93 50 19 21 23 23 24 9 0 -10 5 -18 11 -18 7 0 10 15 7 40 l-4 40 143 0
c139 0 144 -1 153 -22 48 -119 44 -117 156 -124 64 -4 91 18 79 63 -4 15 -9
35 -10 43 -1 8 -4 20 -6 26 -2 6 15 29 38 51 40 38 73 97 104 187 8 21 20 41
26 43 7 3 13 14 13 25 0 10 5 16 10 13 6 -4 10 16 10 53 0 52 -4 64 -29 91
l-29 31 -304 0 c-172 0 -318 -4 -337 -10 -23 -6 -38 -6 -47 1 -13 11 -544 13
-603 3 -19 -4 -35 -14 -38 -23 -2 -9 -17 -25 -33 -36 -16 -11 -31 -24 -33 -30
-2 -5 -2 -1 0 10 3 11 7 34 10 51 l5 32 -224 6 c-289 8 -576 2 -610 -12 -27
-11 -35 -23 -82 -120 -17 -35 -30 -51 -37 -46 -8 4 -9 3 -5 -4 4 -7 3 -12 -2
-12 -13 0 -36 -56 -28 -68 3 -5 -1 -16 -10 -23 -8 -7 -21 -26 -29 -43 -7 -17
-14 -24 -14 -15 -1 8 -9 24 -18 35 -10 10 -27 45 -37 77 -11 31 -23 57 -28 57
-4 0 -8 20 -8 44 0 25 -5 48 -10 51 -6 4 -17 22 -24 40 -16 37 -27 41 -139 48
-56 4 -59 3 -88 -32 -16 -20 -29 -45 -29 -57 0 -12 -11 -29 -24 -37 -13 -9
-30 -33 -36 -53 -15 -46 -49 -104 -60 -104 -5 0 -11 -12 -13 -27 -3 -23 -4
-21 -6 10 0 22 -6 37 -13 37 -10 0 -10 2 -1 8 6 4 19 27 29 52 9 25 25 53 35
62 10 10 23 33 30 53 7 19 17 35 21 35 19 0 6 38 -14 44 -37 10 -156 7 -163
-4 -3 -5 -17 -10 -31 -10 -25 0 -47 -36 -42 -69 3 -20 -33 -89 -67 -130 -16
-18 -29 -49 -33 -76 -4 -25 -11 -45 -15 -45 -5 1 -18 -16 -29 -37 -11 -21 -23
-42 -28 -46 -4 -4 -73 -11 -153 -14 l-147 -6 0 32 c0 24 6 34 23 40 12 5 27 7
32 4 6 -2 10 14 9 39 0 24 5 50 12 58 6 8 14 24 16 35 2 11 10 19 16 18 7 -2
12 3 12 11 0 8 9 30 19 48 28 47 53 127 46 145 -5 13 -19 15 -94 9 -58 -4 -92
-3 -96 4 -3 5 -14 10 -24 10 -14 0 -20 -11 -26 -42 -4 -24 -10 -36 -13 -28
-20 54 -63 61 -390 60 -203 -1 -279 -5 -297 -14 -14 -8 -39 -12 -55 -11 -19 2
-27 -2 -24 -10 3 -7 -8 -26 -23 -43 -41 -43 -53 -60 -53 -71 0 -27 -37 -71
-60 -72 -25 0 -25 0 -2 -9 12 -5 22 -13 22 -17 -1 -13 -38 -53 -49 -53 -6 0
-11 -10 -11 -22 0 -13 -15 -45 -32 -73 -18 -28 -31 -60 -29 -74 2 -15 -1 -21
-8 -17 -6 4 -11 16 -11 27 0 22 14 21 -267 19 -123 -1 -183 2 -183 9 0 6 7 11
15 11 8 0 15 6 15 13 0 8 9 22 19 31 18 17 21 17 47 -1 16 -10 25 -12 21 -5
-5 6 -4 12 2 12 6 0 11 10 11 23 0 32 31 46 112 50 70 3 92 -8 111 -56 8 -23
56 -34 68 -16 5 8 6 36 2 62 -5 43 -4 49 16 54 12 3 21 13 21 24 0 19 -8 19
-157 17 -153 -3 -158 -4 -161 -25 -4 -26 -32 -40 -32 -15 0 9 8 31 18 47 16
25 16 32 5 40 -9 7 61 9 215 7 l228 -4 32 27 c18 15 32 33 32 41 0 8 7 14 15
14 9 0 15 9 15 25 0 14 6 25 13 25 6 0 -2 9 -19 19 -29 18 -53 19 -280 19
-242 1 -250 0 -301 -24z m1107 -150 c0 -3 -9 -18 -19 -33 -11 -15 -21 -42 -23
-61 -2 -19 -6 -33 -10 -30 -9 6 -38 -32 -32 -41 2 -4 -3 -9 -11 -13 -8 -3 -15
-16 -15 -28 0 -13 -3 -33 -6 -45 -6 -23 -7 -23 -203 -23 -165 1 -193 3 -178
14 9 7 17 18 17 24 0 6 8 16 18 21 9 5 26 32 36 60 10 28 24 51 32 51 9 0 14
11 14 31 0 17 4 28 10 24 6 -4 10 7 10 24 l0 31 180 0 c99 0 180 -3 180 -6z
m3122 -54 c-2 -25 -8 -49 -13 -54 -5 -6 -9 -35 -9 -66 0 -47 -4 -60 -24 -79
-22 -21 -27 -22 -60 -10 -33 12 -49 29 -27 29 5 0 9 19 8 43 -1 30 4 49 16 61
9 10 17 22 17 27 0 5 1 12 3 15 1 3 -76 6 -170 7 -133 2 -173 5 -173 15 0 7 7
15 15 18 9 4 13 13 10 23 -4 14 15 16 203 16 l207 0 -3 -45z m618 40 c0 -5 -5
-10 -10 -10 -6 0 -8 -10 -5 -23 4 -14 -1 -30 -15 -44 -11 -12 -20 -27 -20 -33
0 -5 -7 -10 -15 -10 -8 0 -15 -4 -15 -10 0 -6 -58 -9 -157 -8 -137 1 -146 3
-73 8 47 3 77 7 68 8 -15 2 -18 12 -18 62 l0 59 123 4 c67 1 125 4 130 5 4 1
7 -2 7 -8z"/>
<path d="M10720 5541 c0 -16 -8 -18 -56 -17 -64 0 -77 -12 -69 -62 6 -30 4
-32 -12 -24 -20 11 -53 -1 -53 -19 0 -11 27 -42 32 -37 2 1 12 -3 23 -10 11
-6 14 -12 8 -12 -21 0 -15 -34 9 -50 12 -8 30 -23 40 -32 10 -10 32 -18 48
-18 17 0 30 -4 30 -10 0 -5 6 -10 14 -10 8 0 17 -10 19 -22 2 -13 5 -4 6 20 1
35 4 42 21 42 19 0 20 7 20 120 0 113 -1 120 -20 120 -13 0 -20 7 -20 20 0 13
-7 20 -20 20 -13 0 -20 -7 -20 -19z"/>
<path d="M0 4793 c0 -425 4 -723 9 -718 5 6 10 282 12 620 3 740 2 825 -11
825 -7 0 -10 -249 -10 -727z"/>
<path d="M0 3756 l0 -244 75 -7 c74 -7 101 -2 90 16 -8 12 68 12 81 -1 7 -7
280 -10 842 -8 825 3 831 3 834 -17 3 -17 7 -14 24 16 12 20 25 47 29 59 4 12
18 38 31 57 13 20 24 44 24 54 0 10 9 21 20 24 11 4 18 10 15 15 -7 11 37 95
50 94 27 -1 42 34 48 108 l5 78 -1084 0 -1084 0 0 -244z"/>
<path d="M19185 3177 c-4 -57 -3 -398 2 -758 l10 -654 1 758 c1 416 0 757 -2
757 -2 0 -7 -46 -11 -103z"/>
<path d="M0 2995 l0 -245 765 2 c842 3 775 -2 794 65 5 17 18 41 29 53 10 11
28 38 38 60 18 38 34 52 34 30 0 -5 4 -10 9 -10 6 0 9 22 9 50 -1 34 4 56 15
68 9 10 17 22 17 25 0 4 9 16 20 27 11 11 20 29 20 40 0 11 5 20 10 20 6 0 10
14 10 30 l0 30 -885 0 -885 0 0 -245z"/>
<path d="M14280 2752 c0 -4 -18 -6 -40 -4 -32 3 -40 1 -40 -12 0 -9 -4 -16
-10 -16 -5 0 -10 -9 -10 -20 0 -11 5 -20 10 -20 6 0 10 -9 10 -20 0 -18 7 -20
60 -20 53 0 60 -2 60 -20 0 -17 7 -20 40 -20 33 0 40 3 40 20 0 11 5 20 10 20
6 0 10 6 10 14 0 8 10 16 22 18 12 2 23 8 25 14 6 19 -25 24 -42 8 -8 -9 -15
-11 -15 -5 0 6 -11 11 -25 11 -20 0 -25 5 -25 24 0 18 -7 25 -31 30 -41 8 -49
8 -49 -2z"/>
<path d="M172 2493 l-172 -3 0 -249 0 -249 543 -4 c550 -3 602 0 618 34 4 7
15 39 25 72 11 34 27 64 40 72 13 9 24 30 28 54 3 22 17 50 32 65 25 25 32 40
33 76 1 9 13 29 28 45 25 26 30 49 16 64 -2 3 -217 8 -476 11 -260 4 -488 8
-507 11 -19 2 -113 3 -208 1z"/>
<path d="M11772 2320 c-15 -24 -16 -57 -2 -65 6 -3 10 -17 10 -31 0 -15 6 -24
15 -24 8 0 15 -4 15 -9 0 -5 9 -11 20 -14 11 -3 20 -2 20 2 0 3 10 11 22 16
22 10 56 59 57 82 1 7 -10 24 -24 38 -34 33 -113 36 -133 5z"/>
<path d="M0 1233 c0 -405 3 -733 8 -729 4 4 9 329 12 723 5 693 6 715 24 729
19 13 18 14 -12 14 l-32 0 0 -737z"/>
<path d="M13371 1858 c-11 -35 -20 -56 -20 -47 -1 26 -112 49 -155 33 -32 -12
-15 -24 37 -26 28 -1 3 -4 -58 -7 -60 -4 -111 -3 -113 1 -2 5 -19 8 -39 8 -26
0 -36 -5 -40 -20 -5 -19 -24 -25 -65 -22 -13 1 -18 -6 -18 -23 0 -24 9 -30 38
-26 6 1 12 -7 12 -19 0 -11 -4 -20 -10 -20 -5 0 -10 4 -10 10 0 5 -7 7 -15 4
-8 -4 -15 -19 -15 -34 0 -19 -6 -31 -18 -34 -14 -5 -17 -14 -14 -41 2 -20 0
-35 -6 -35 -6 0 -16 -17 -23 -37 -14 -44 -39 -86 -47 -78 -3 2 -11 -3 -18 -13
-12 -16 -13 -15 -14 6 0 13 -6 22 -16 22 -10 0 -14 -6 -11 -15 4 -8 2 -17 -3
-20 -6 -4 -10 -15 -10 -26 0 -10 -4 -19 -10 -19 -5 0 -10 -9 -10 -20 0 -11 5
-20 10 -20 13 0 13 -57 1 -65 -5 -3 -12 4 -16 15 -3 11 -13 20 -21 20 -8 0
-14 7 -14 15 0 19 -7 19 -26 1 -19 -20 -18 -40 6 -61 24 -22 27 -86 5 -109 -8
-8 -15 -21 -15 -29 0 -11 -64 -152 -74 -164 -5 -6 -56 23 -56 32 -1 6 -7 -1
-15 -15 -19 -34 -19 -75 2 -95 13 -14 14 -21 5 -36 -7 -10 -12 -28 -12 -39 0
-11 -7 -23 -15 -26 -8 -3 -17 -14 -20 -25 -4 -10 -22 -42 -41 -70 -19 -28 -34
-56 -34 -63 0 -6 -10 -22 -23 -36 -12 -14 -29 -41 -37 -60 -8 -19 -20 -41 -26
-47 -7 -7 -20 -34 -29 -60 -28 -80 -79 -176 -96 -180 -22 -6 -39 -45 -39 -87
0 -25 -5 -35 -20 -39 -11 -3 -20 -12 -20 -21 0 -9 -7 -16 -15 -16 -8 0 -17
-11 -21 -25 -3 -14 -11 -25 -18 -25 -6 -1 -87 0 -181 0 -236 1 -565 -11 -565
-22 0 -4 432 -8 960 -8 l960 0 10 25 c5 14 16 25 23 25 9 0 19 21 26 55 13 60
29 79 38 46 6 -24 16 -27 31 -8 8 9 6 22 -5 45 -13 28 -14 37 -3 57 15 28 30
33 30 10 0 -8 7 -15 15 -15 19 0 19 29 0 44 -25 19 -8 54 28 58 24 2 33 10 40
32 7 20 6 35 -2 48 -9 14 -7 22 9 38 11 11 20 25 20 30 0 7 6 7 19 0 18 -9 19
-7 14 23 -5 35 18 97 37 97 5 0 12 -11 16 -25 3 -14 10 -25 15 -25 14 0 11 58
-4 72 -17 15 -10 58 10 65 8 3 19 0 25 -8 7 -10 8 -4 4 19 -3 17 -1 44 5 60
l11 27 11 -22 c11 -25 31 -30 43 -11 5 7 3 8 -6 3 -9 -5 -10 -2 -6 13 4 12 1
22 -7 25 -20 7 -10 55 14 68 12 6 19 21 19 40 0 30 40 96 40 68 0 -8 7 -22 14
-32 13 -17 15 -17 35 4 15 16 18 26 11 33 -8 8 -13 7 -19 -3 -6 -9 -12 -4 -20
20 -13 38 -13 40 -3 36 4 -1 9 3 11 8 2 6 12 21 22 34 11 13 19 31 19 41 0 9
9 25 20 35 20 18 20 17 20 -8 0 -18 5 -27 15 -27 12 0 15 12 13 58 -1 38 3 65
14 82 9 14 21 42 28 64 9 28 15 35 21 25 8 -12 11 -11 22 1 6 9 19 14 29 12
10 -2 19 5 23 17 3 12 12 21 20 21 20 0 45 28 39 44 -3 7 1 20 8 27 8 8 24 35
36 62 12 26 26 47 30 47 5 0 14 17 21 38 7 20 15 43 17 50 3 6 -1 12 -9 12
-16 0 -37 62 -37 109 0 24 -4 31 -20 31 -11 0 -20 -4 -20 -10 0 -5 -22 -10
-50 -10 -39 0 -50 3 -50 16 0 10 -6 14 -14 11 -8 -3 -16 -1 -18 5 -2 6 -57 12
-136 16 -73 2 -135 9 -138 13 -3 5 -39 9 -81 9 -73 0 -153 22 -153 42 0 4 -11
8 -25 8 -21 0 -27 -8 -44 -62z"/>
<path d="M988 1818 c-20 -7 -28 -17 -28 -34 0 -14 -7 -27 -15 -30 -8 -4 -15
-12 -15 -19 0 -6 -12 -25 -26 -40 -28 -31 -44 -65 -44 -98 0 -12 -16 -39 -35
-60 -19 -21 -32 -44 -29 -51 4 -11 0 -13 -16 -9 -18 5 -20 2 -16 -18 13 -58
10 -68 -26 -108 -39 -42 -47 -61 -25 -61 6 0 3 -7 -8 -15 -10 -9 -21 -28 -22
-43 l-4 -27 691 0 c379 0 690 3 690 8 0 4 -5 7 -11 7 -5 0 -7 5 -4 11 4 6 19
7 35 4 38 -8 70 13 70 46 0 29 33 65 50 54 7 -4 5 -15 -6 -35 -17 -27 -14 -60
5 -60 15 0 51 65 51 94 0 27 -24 37 -33 14 -3 -7 -6 -2 -6 12 -1 35 35 105 96
188 18 24 37 60 44 80 7 20 23 61 36 90 45 98 49 96 -182 103 -334 10 -1187 8
-1217 -3z"/>
<path d="M3068 1822 l-138 -3 -15 -29 c-8 -16 -15 -35 -15 -43 0 -19 -29 -75
-43 -84 -7 -5 -25 -33 -41 -63 -16 -30 -35 -60 -42 -66 -8 -6 -14 -16 -14 -23
0 -6 -4 -11 -10 -11 -5 0 -10 -15 -11 -32 0 -18 -3 -27 -6 -20 -8 20 -29 -14
-37 -60 -4 -21 -12 -43 -19 -51 -25 -27 -37 -58 -37 -95 l0 -37 689 3 690 4
-17 -36 c-9 -21 -18 -32 -20 -27 -9 26 -22 8 -17 -21 5 -26 1 -38 -17 -58 -13
-14 -30 -40 -37 -57 -7 -18 -17 -33 -22 -33 -5 0 -9 -6 -9 -12 0 -7 -9 -24
-20 -38 -11 -14 -20 -39 -20 -56 0 -23 -5 -33 -20 -37 -15 -4 -20 -14 -20 -41
0 -22 -5 -36 -13 -36 -24 0 -67 -81 -67 -125 0 -20 -6 -35 -15 -38 -8 -4 -21
-23 -30 -44 -9 -20 -28 -53 -43 -72 -30 -40 -29 -37 -31 -85 -1 -25 -6 -35
-21 -39 -12 -3 -20 -14 -20 -25 0 -11 -6 -22 -14 -25 -15 -6 -46 -62 -46 -83
0 -7 -6 -17 -13 -21 -7 -4 -26 -34 -42 -65 -15 -32 -32 -58 -37 -58 -4 0 -8
-7 -8 -15 0 -8 -5 -23 -11 -33 -10 -16 -62 -17 -846 -15 -518 2 -841 -1 -852
-7 -10 -6 498 -10 1410 -10 l1425 0 23 51 c12 28 27 57 34 65 33 37 40 48 48
80 10 35 29 47 29 18 0 -27 32 13 39 49 5 25 12 33 33 35 34 4 54 27 40 45
-13 15 3 93 24 118 8 9 12 18 9 20 -2 3 9 38 25 78 17 40 30 79 30 87 0 8 13
26 30 40 16 15 39 48 51 73 12 25 38 82 59 126 21 44 41 93 44 109 4 15 22 45
41 65 19 20 42 58 51 84 9 27 22 51 29 53 7 3 73 1 146 -4 111 -7 121 -9 58
-11 -83 -1 -89 -5 -89 -72 l0 -25 113 3 c129 5 146 8 129 25 -7 7 -12 17 -12
23 0 5 4 3 10 -5 8 -12 10 -12 15 3 8 19 -12 43 -41 49 -45 10 274 20 556 16
168 -1 323 1 344 6 32 8 38 7 32 -5 -4 -8 -1 -6 6 3 8 9 35 22 61 29 26 6 47
15 47 19 0 5 13 12 28 18 38 13 72 -14 72 -57 0 -17 -4 -31 -9 -31 -5 0 -14
-13 -21 -30 -7 -16 -16 -30 -21 -30 -5 0 -9 -58 -9 -130 0 -80 -4 -130 -10
-130 -5 0 -10 5 -10 10 0 6 -16 10 -35 10 -19 0 -35 -4 -35 -10 0 -5 -16 -10
-35 -10 -19 0 -35 -4 -35 -10 0 -5 -16 -10 -35 -10 -34 0 -35 1 -35 38 0 20
-4 42 -8 47 -14 20 -49 33 -78 29 -16 -2 -21 -1 -11 2 24 7 22 28 -3 21 -10
-3 -20 -1 -22 4 -2 5 -39 10 -83 11 l-79 3 -12 -62 c-6 -34 -19 -78 -28 -98
-10 -20 -15 -39 -12 -43 4 -3 25 -8 49 -11 41 -6 42 -7 39 -41 -2 -19 -12 -40
-22 -47 -15 -11 -17 -19 -10 -44 5 -18 12 -66 15 -108 4 -42 9 -87 12 -101 l6
-25 7 25 c8 25 8 25 9 -4 1 -42 23 -96 38 -96 7 0 13 -4 13 -10 0 -5 9 -10 20
-10 11 0 20 -7 20 -15 0 -8 7 -15 15 -15 8 0 15 -4 15 -8 0 -5 20 -17 45 -28
41 -17 45 -21 45 -54 0 -29 -5 -37 -30 -48 -16 -7 -32 -22 -35 -33 -7 -20 -25
-27 -25 -9 0 6 -5 10 -11 10 -6 0 -9 -12 -7 -28 3 -26 5 -27 71 -30 37 -2 67
-7 67 -13 0 -5 11 -2 25 8 18 13 24 27 25 54 0 36 1 37 45 41 25 2 45 1 45 -2
-1 -12 -28 -40 -39 -40 -6 0 -11 -13 -11 -30 0 -16 -4 -30 -9 -30 -5 0 -11
-11 -13 -25 l-5 -25 2372 0 2372 0 12 27 c7 15 20 33 30 40 10 7 24 33 31 58
7 26 19 49 26 52 6 2 15 24 19 48 6 42 25 73 25 41 0 -52 57 -7 66 52 5 35 4
42 -10 42 -22 0 -20 12 5 39 26 27 69 106 69 126 0 7 11 27 25 43 31 37 68
119 60 132 -3 5 1 12 8 17 19 11 57 77 57 98 0 9 9 19 19 22 11 3 24 18 29 33
6 15 24 36 41 46 43 25 78 117 49 126 -7 3 -9 11 -3 24 7 17 8 17 12 2 9 -36
23 -16 23 31 0 38 6 56 25 79 21 25 25 41 25 89 0 67 -9 102 -49 183 -50 105
-113 180 -150 180 -6 0 -11 4 -11 10 0 5 -18 19 -40 30 -23 12 -38 25 -35 30
3 4 -9 11 -27 15 -18 4 -46 13 -63 20 -25 11 -77 28 -130 41 -5 1 -53 10 -105
19 -86 16 -182 17 -1005 14 -969 -4 -1705 1 -1705 12 0 8 -1000 2 -1055 -7
-46 -7 -101 -60 -111 -106 -4 -15 -10 -25 -15 -22 -5 3 -22 -1 -38 -9 -27 -13
-30 -13 -36 2 -6 14 -8 14 -21 -3 -8 -11 -14 -14 -14 -8 0 7 -4 12 -10 12 -5
0 -10 -12 -10 -26 0 -21 -4 -24 -20 -19 -16 5 -20 2 -20 -14 0 -12 5 -21 10
-21 6 0 10 -9 10 -20 0 -11 5 -20 10 -20 6 0 10 9 10 20 0 24 6 25 26 6 16
-17 19 -62 4 -71 -5 -3 -10 -22 -10 -41 0 -23 -5 -34 -14 -34 -8 0 -27 -26
-43 -57 -15 -32 -31 -59 -35 -61 -5 -2 -8 -11 -8 -20 0 -26 -43 -81 -72 -91
-16 -6 -28 -14 -28 -20 0 -5 -10 -11 -22 -13 -13 -2 -23 -7 -24 -13 -3 -40
-15 -45 -105 -45 -82 0 -89 1 -89 20 0 11 -6 20 -14 20 -8 0 -17 9 -21 19 -3
11 -15 23 -26 26 -14 5 -19 15 -19 39 0 28 5 36 30 46 30 13 40 30 17 30 -19
0 -9 88 14 111 10 10 19 25 19 33 0 8 4 16 9 18 6 2 12 16 15 32 3 15 12 39
21 52 9 14 13 29 10 33 -3 5 0 11 7 13 6 2 12 23 12 45 1 23 4 39 9 36 4 -2 9
2 11 9 2 7 9 32 17 56 7 26 9 46 3 52 -8 8 -3448 19 -3806 12z m6335 -630
c831 -1 1247 -5 1247 -12 0 -6 -9 -18 -20 -27 -11 -10 -20 -23 -20 -30 0 -7
-9 -13 -21 -13 -18 0 -20 -4 -14 -29 3 -16 2 -32 -4 -35 -5 -4 -8 -21 -6 -38
3 -24 -2 -38 -22 -57 -14 -14 -34 -45 -44 -68 -10 -24 -23 -43 -29 -43 -5 0
-10 -6 -10 -13 0 -21 -36 -89 -64 -121 -14 -16 -26 -38 -26 -48 0 -11 -5 -16
-10 -13 -16 10 -40 -59 -40 -115 0 -47 -2 -50 -25 -50 -15 0 -35 -11 -48 -26
-58 -67 -257 -78 -1287 -70 -432 4 -798 9 -813 13 -69 14 11 23 217 23 121 0
217 2 215 5 -6 5 -496 9 -519 3 -8 -1 -20 -10 -27 -18 -15 -20 -253 -29 -253
-10 0 9 18 11 70 6 47 -5 70 -4 70 3 0 7 -24 11 -60 11 -72 0 -75 10 -26 74
18 24 36 56 40 70 3 14 10 26 15 26 11 0 26 -104 17 -119 -8 -12 38 -20 117
-19 42 0 57 4 57 14 0 9 11 14 30 14 23 0 30 4 30 20 0 11 5 20 10 20 6 0 10
-16 10 -35 0 -38 24 -50 33 -16 3 13 11 18 28 15 13 -2 32 2 42 10 18 14 18
15 -1 34 -11 11 -23 18 -26 15 -3 -3 -12 0 -21 7 -10 9 -15 31 -15 71 l0 59
-60 0 c-46 0 -60 3 -60 15 0 11 -5 12 -24 5 -13 -5 -27 -6 -30 -3 -3 4 -6 -1
-6 -10 0 -11 -8 -17 -21 -17 -17 0 -19 3 -10 14 6 8 12 35 13 61 0 32 7 54 19
66 15 15 19 16 19 4 0 -8 5 -15 10 -15 6 0 10 9 10 20 0 11 6 20 13 20 8 0 7
3 -3 10 -9 6 -17 5 -23 -3 -12 -16 -4 12 24 93 l23 65 9 -35 c15 -58 19 -66
24 -52 3 6 11 12 19 12 9 0 14 11 14 35 0 19 -4 35 -9 35 -5 0 -11 22 -15 49
-8 59 -31 83 -78 79 -20 -1 -52 7 -75 19 -23 12 -50 19 -61 16 -23 -6 -95 15
-88 25 2 4 75 7 163 7 87 0 719 -1 1406 -3z"/>
<path d="M14985 1789 c-21 -11 -55 -69 -55 -95 0 -8 -4 -13 -8 -10 -5 3 -18
-2 -30 -10 -16 -11 -21 -21 -16 -40 3 -13 3 -32 0 -41 -6 -15 -8 -15 -16 -3
-8 12 -10 9 -10 -10 0 -17 -3 -21 -8 -12 -9 14 -42 6 -42 -10 0 -5 5 -18 11
-29 7 -14 7 -29 -2 -54 -12 -33 -29 -47 -29 -25 0 6 -4 10 -9 10 -5 0 -8 -12
-8 -26 0 -14 -8 -40 -17 -57 -8 -18 -22 -48 -30 -67 -8 -19 -21 -46 -30 -60
-8 -14 -29 -56 -48 -95 -18 -38 -39 -74 -45 -78 -7 -4 -13 -13 -13 -18 0 -6
-9 -22 -20 -36 -11 -14 -20 -34 -20 -44 0 -11 -4 -19 -10 -19 -5 0 -10 -7 -10
-15 0 -9 -12 -33 -26 -55 -14 -21 -23 -43 -20 -48 3 -5 -1 -15 -9 -22 -8 -7
-15 -18 -15 -25 0 -7 -7 -18 -15 -25 -8 -7 -15 -21 -15 -31 0 -11 -6 -19 -14
-19 -7 0 -19 -6 -25 -14 -6 -7 -22 -11 -36 -8 -18 3 -25 0 -25 -12 0 -9 -4
-16 -10 -16 -5 0 -10 -22 -10 -50 0 -35 -9 -68 -30 -112 -16 -34 -30 -66 -30
-71 0 -18 -54 -122 -68 -130 -7 -5 -12 -21 -10 -35 2 -17 -2 -26 -10 -24 -6 1
-12 -4 -12 -10 0 -23 -54 -118 -67 -118 -19 0 -33 -34 -33 -79 l0 -41 1163 0
1163 0 19 37 c11 21 29 63 40 93 16 40 28 56 43 58 16 3 23 13 27 40 8 47 39
109 43 88 2 -9 8 -16 13 -16 5 0 6 18 3 43 -4 23 -3 39 1 35 10 -9 35 16 35
35 0 8 7 20 14 27 8 6 20 28 27 48 20 61 53 126 76 151 12 13 24 40 28 60 5
30 12 39 37 49 28 10 30 14 24 44 -4 20 -3 28 3 19 7 -10 12 -8 25 10 10 16
16 18 16 9 1 -8 7 -1 15 15 9 20 14 24 14 13 1 -26 41 -24 41 1 0 23 -15 34
-50 39 -33 4 -35 8 -16 27 9 9 16 23 16 31 0 23 18 16 22 -8 3 -22 4 -22 33
11 17 18 43 40 58 48 22 11 28 20 25 40 -2 15 -10 28 -18 30 -12 4 -13 3 -1
-5 29 -21 -13 -41 -53 -26 -22 9 -20 23 8 48 13 11 29 38 36 60 7 22 20 41 31
43 11 3 19 10 20 17 0 6 3 20 5 31 15 75 16 98 3 106 -17 11 -58 2 -79 -16 -8
-7 -33 -15 -55 -17 -39 -4 -39 -4 -15 -16 l25 -12 -30 1 c-44 2 -55 0 -54 -8
3 -21 -3 -24 -18 -12 -11 10 -14 10 -9 2 4 -7 2 -13 -3 -13 -6 0 -11 -7 -11
-15 0 -8 -6 -15 -14 -15 -7 0 -19 -7 -26 -15 -7 -8 -23 -15 -36 -15 -12 0 -39
-9 -58 -21 -19 -11 -39 -18 -44 -15 -5 3 -17 -3 -26 -13 -10 -10 -37 -22 -61
-25 -36 -6 -42 -10 -38 -26 4 -16 0 -20 -20 -20 -14 0 -52 -13 -84 -30 -41
-21 -72 -30 -106 -30 l-49 0 6 -30 c5 -26 3 -30 -17 -30 -28 0 -127 -48 -127
-62 0 -5 -9 -7 -19 -3 -30 9 -72 -5 -81 -29 -6 -16 -23 -25 -71 -35 -46 -11
-69 -22 -87 -42 -12 -15 -32 -31 -42 -34 -11 -3 -19 -11 -17 -18 2 -13 -83
-26 -129 -20 -28 5 -32 2 -37 -25 -6 -30 -43 -52 -88 -52 -25 0 -24 27 1 42
11 7 20 21 20 31 0 17 7 28 41 67 10 10 20 31 23 48 6 24 12 29 34 28 21 -1
28 4 30 22 2 13 -2 30 -9 39 -11 12 -11 17 2 27 9 6 21 27 28 47 6 20 19 44
29 55 29 32 52 72 52 92 0 10 7 27 15 38 8 10 15 27 15 37 0 9 5 17 10 17 6 0
10 9 10 21 0 15 4 19 16 15 12 -5 15 -2 10 9 -3 9 -2 14 3 11 14 -9 61 34 61
55 0 25 -17 25 -25 0 -3 -11 -12 -25 -21 -31 -16 -14 -16 -16 19 62 9 21 28
45 41 53 14 9 33 41 46 75 14 38 28 60 41 63 19 5 20 1 17 -61 -3 -59 -1 -67
16 -70 11 -2 26 4 33 14 10 13 13 14 13 3 1 -33 18 18 25 74 5 41 4 57 -5 57
-26 0 -62 56 -50 79 4 9 15 38 24 66 16 47 16 50 -1 62 -21 16 -1056 18 -1088
2z"/>
<path d="M12650 1661 c0 -5 6 -12 13 -14 7 -3 5 -6 -5 -6 -11 -1 -18 -9 -18
-21 0 -13 -7 -20 -20 -20 -17 0 -20 -7 -20 -40 0 -33 -3 -40 -20 -40 -17 0
-20 -7 -20 -40 l0 -40 60 0 60 0 0 60 c0 55 2 60 21 60 19 0 21 4 15 31 -3 17
-6 35 -6 40 0 5 -7 9 -15 9 -8 0 -15 7 -15 15 0 8 -7 15 -15 15 -8 0 -15 -4
-15 -9z"/>
<path d="M19190 1093 c0 -5 -2 -244 -3 -534 -2 -289 -6 -529 -9 -535 -4 -5
-420 -7 -1115 -4 -1182 5 -1503 3 -1503 -11 0 -5 563 -9 1320 -9 l1320 0 0
550 c0 303 -2 550 -5 550 -3 0 -5 -3 -5 -7z"/>
<path d="M460 860 c0 -18 -80 -174 -92 -178 -4 -2 -8 -22 -8 -44 0 -35 -2 -40
-20 -35 -15 4 -20 0 -20 -15 0 -10 -11 -34 -25 -52 -14 -18 -25 -40 -25 -48 0
-9 -7 -21 -15 -28 -9 -8 -15 -30 -15 -56 0 -41 -19 -65 -21 -26 0 13 -2 14 -6
2 -4 -8 -14 -21 -25 -28 -10 -7 -18 -19 -18 -25 0 -7 -7 -24 -14 -39 -8 -16
-18 -49 -22 -74 -7 -46 -7 -46 17 -34 14 8 77 14 162 17 l138 3 -18 -32 c-10
-18 -27 -44 -39 -58 -12 -14 -25 -44 -29 -67 l-7 -43 556 0 555 0 26 37 c14
21 25 42 25 48 0 6 9 28 20 50 11 22 20 47 20 56 0 9 7 22 15 29 10 8 15 31
16 64 1 95 14 158 37 177 22 17 32 79 13 79 -5 0 -13 9 -16 20 -5 15 -15 20
-41 20 -20 0 -34 5 -34 13 0 8 -4 7 -10 -3 -8 -13 -11 -13 -19 -1 -5 7 -13 11
-18 8 -9 -6 -110 62 -110 73 1 21 -26 48 -48 48 -14 0 -33 6 -43 13 -26 21
-81 46 -132 59 -25 6 -61 16 -80 22 -55 16 -199 26 -409 27 -172 1 -195 3
-207 19 -11 13 -13 14 -14 2z"/>
<path d="M0 95 l0 -95 56 0 57 0 -7 75 c-4 47 -3 82 4 95 10 19 8 20 -50 20
l-60 0 0 -95z"/>
<path d="M5005 23 c-88 -2 -164 -8 -169 -13 -7 -7 267 -10 777 -10 697 0 787
2 787 15 0 13 -24 15 -187 9 -195 -6 -814 -7 -963 -1 -47 2 -157 2 -245 0z"/>
</g>
</svg>
