<?xml version="1.0" standalone="no"?>
<!DOCTYPE svg PUBLIC "-//W3C//DTD SVG 20010904//EN"
 "http://www.w3.org/TR/2001/REC-SVG-20010904/DTD/svg10.dtd">
<svg version="1.0" xmlns="http://www.w3.org/2000/svg"
 width="1920.000000pt" height="1080.000000pt" viewBox="0 0 1920.000000 1080.000000"
 preserveAspectRatio="xMidYMid meet">
<metadata>
Created by potrace 1.16, written by Peter Selinger 2001-2019
</metadata>
<g transform="translate(0.000000,1080.000000) scale(0.100000,-0.100000)"
fill="#000000" stroke="none">
<path d="M0 5400 l0 -5400 9600 0 9600 0 0 5400 0 5400 -9600 0 -9600 0 0
-5400z m16317 5380 l2873 0 -3 -5382 -2 -5383 -9579 -3 c-5269 -1 -9582 1
-9585 5 -4 5 -5 2430 -3 5389 l2 5382 6713 -4 c3691 -2 8005 -3 9584 -4z"/>
<path d="M4565 5812 c-70 -24 -136 -86 -177 -168 -57 -112 -131 -250 -139
-258 -5 -6 -9 -31 -9 -56 0 -39 5 -51 31 -76 l30 -29 232 -1 c128 -1 242 1
254 3 13 3 33 21 45 42 12 20 27 39 32 43 6 4 7 8 2 8 -5 0 -3 7 4 15 7 8 10
22 6 30 -5 13 -38 15 -221 15 l-215 0 23 38 c13 20 40 71 61 112 21 41 43 79
47 85 5 5 9 18 9 30 0 20 4 20 216 17 182 -2 220 0 240 13 28 18 78 111 70
130 -4 11 -56 14 -263 14 -142 -1 -267 -4 -278 -7z"/>
<path d="M5223 5795 c-75 -35 -104 -70 -178 -210 -37 -71 -78 -148 -91 -170
-44 -79 -34 -149 26 -180 52 -27 73 -14 111 65 l34 69 240 3 c355 3 326 1 349
32 37 49 33 49 -337 46 l-209 -2 51 96 c28 53 48 101 46 108 -4 10 36 12 195
10 l200 -3 -15 -28 c-8 -16 -11 -31 -8 -35 4 -3 44 -6 89 -6 l83 0 31 44 c16
25 30 56 30 71 0 36 -24 78 -52 92 -14 7 -118 13 -285 16 -256 5 -262 5 -310
-18z"/>
<path d="M6062 5812 c-26 -2 -53 -12 -68 -25 -31 -27 -108 -177 -97 -188 11
-11 32 -13 113 -11 l65 2 54 105 c29 59 51 109 47 112 -7 7 -54 9 -114 5z"/>
<path d="M6809 5812 c-16 -4 -121 -207 -111 -216 5 -6 362 -9 362 -3 0 3 -32
90 -55 147 -10 25 -22 50 -27 55 -9 10 -141 23 -169 17z"/>
<path d="M6530 5781 c-36 -29 -118 -176 -106 -189 8 -7 151 -5 177 3 9 3 24
26 35 50 10 25 22 45 26 45 4 0 7 3 6 8 -2 11 13 43 33 73 10 14 16 29 12 33
-3 3 -38 6 -77 6 -64 0 -75 -3 -106 -29z"/>
<path d="M7333 5783 c-17 -16 -43 -50 -57 -76 -14 -26 -33 -59 -42 -73 -12
-18 -14 -28 -6 -36 14 -14 160 -12 178 3 13 11 114 190 114 203 0 3 -35 6 -78
6 -71 0 -81 -3 -109 -27z"/>
<path d="M7572 5798 c-7 -7 -12 -17 -12 -24 0 -7 -3 -14 -7 -16 -5 -1 -17 -20
-27 -40 -29 -58 -13 -70 91 -66 71 3 82 1 77 -12 -20 -48 -20 -48 58 -52 88
-4 115 3 128 37 9 24 12 25 102 25 73 0 98 4 115 18 29 23 86 119 78 132 -9
15 -587 14 -603 -2z"/>
<path d="M8245 5783 c-37 -28 -120 -167 -109 -185 3 -4 46 -8 95 -8 84 0 90 1
98 23 5 12 7 25 4 30 -2 4 96 7 219 7 163 1 227 4 240 13 20 16 78 113 78 132
0 13 -43 15 -294 15 l-293 0 -38 -27z"/>
<path d="M8947 5793 c-18 -21 -110 -193 -105 -198 2 -2 46 -5 97 -6 90 -2 95
-1 103 21 4 12 6 26 2 31 -3 5 70 9 175 9 100 0 181 -4 181 -9 0 -5 -7 -14
-15 -21 -8 -7 -15 -18 -15 -24 0 -6 -14 -32 -30 -58 l-30 -48 -75 0 c-63 0
-78 -3 -92 -20 -16 -19 -30 -20 -200 -20 -177 0 -182 -1 -197 -22 -9 -12 -16
-33 -16 -46 0 -20 4 -23 23 -18 12 3 93 9 180 12 152 7 158 6 155 -12 -2 -16
4 -19 43 -22 48 -3 52 -7 88 -104 10 -26 15 -28 68 -29 32 0 69 -2 83 -5 14
-2 32 1 40 6 15 9 11 30 -25 112 -5 13 -1 20 16 27 37 13 51 35 128 184 45 89
71 151 71 172 0 43 -32 82 -78 95 -21 5 -150 10 -298 10 -236 0 -262 -2 -277
-17z"/>
<path d="M10233 5785 c-48 -21 -102 -74 -129 -127 -13 -26 -24 -52 -24 -58 0
-6 35 -10 89 -10 81 0 90 2 96 20 3 11 3 24 0 30 -4 7 79 10 248 10 l253 0 25
28 c33 37 63 98 55 111 -11 18 -572 14 -613 -4z"/>
<path d="M10874 5729 c-19 -39 -33 -73 -30 -76 3 -3 47 -7 98 -8 110 -3 103
-2 90 -17 -5 -7 -23 -38 -39 -68 -31 -57 -113 -210 -157 -294 -14 -26 -23 -52
-20 -57 3 -5 37 -9 76 -9 71 0 72 0 112 43 41 43 54 66 168 287 l59 115 94 0
c85 0 96 2 120 25 14 13 35 44 47 68 19 37 20 45 8 52 -8 6 -144 10 -302 10
l-288 0 -36 -71z"/>
<path d="M11574 5793 c-6 -5 -33 -48 -59 -98 -26 -49 -58 -108 -70 -130 -12
-22 -55 -103 -95 -180 -40 -77 -77 -144 -81 -149 -24 -27 -8 -36 64 -36 65 0
78 3 109 27 19 15 43 44 53 65 l18 38 142 0 141 0 30 -62 29 -63 89 -3 c49 -2
93 1 98 6 6 6 -1 29 -16 60 -14 28 -26 53 -26 56 0 2 15 13 33 24 35 20 48 41
144 230 l57 112 -17 35 c-33 68 -39 70 -352 73 -154 1 -285 -1 -291 -5z m446
-151 c0 -7 -55 -110 -72 -134 l-19 -28 -165 0 c-90 0 -164 2 -164 6 0 3 14 31
32 62 17 31 31 66 30 77 -1 19 5 20 178 20 99 0 180 -1 180 -3z"/>
<path d="M12478 5792 c-44 -2 -80 -8 -86 -15 -10 -13 -77 -136 -121 -222 -14
-27 -29 -52 -32 -55 -3 -3 -11 -21 -19 -40 -8 -19 -23 -51 -35 -70 -45 -75
-94 -177 -88 -184 11 -10 140 -7 166 5 14 6 35 30 48 53 38 68 117 216 157
296 20 41 40 77 43 80 8 7 69 131 69 141 0 12 -21 14 -102 11z"/>
<path d="M13245 5790 l-130 -5 -160 -104 c-88 -57 -168 -111 -177 -119 -28
-24 -22 -7 38 104 30 57 53 108 49 114 -3 5 -43 10 -88 10 -95 0 -80 14 -166
-150 -30 -58 -90 -170 -133 -250 -110 -202 -110 -190 -1 -190 l89 0 21 38 c12
20 31 55 42 77 l20 40 90 -3 90 -3 41 -75 41 -74 94 0 c52 0 96 4 99 8 3 4 -1
17 -7 29 -7 11 -24 42 -40 69 -28 50 -33 60 -74 126 -13 21 -23 42 -23 46 0 5
30 29 68 53 37 23 110 70 162 104 52 34 119 77 148 95 47 30 64 54 45 62 -5 2
-66 1 -138 -2z"/>
<path d="M14508 5785 c-27 -32 -33 -42 -50 -74 -37 -69 -45 -66 222 -63 132 2
240 1 240 -3 0 -3 -7 -19 -15 -35 l-16 -30 -205 0 c-198 0 -206 -1 -254 -25
-27 -14 -61 -40 -75 -58 -38 -47 -157 -276 -150 -287 4 -6 140 -10 341 -10
l334 0 18 38 c9 20 20 39 25 40 16 8 5 42 -19 61 -25 20 -39 21 -230 21 l-203
0 13 31 13 30 215 -1 c294 -1 284 -6 374 169 52 103 47 163 -16 196 -44 22
-543 22 -562 0z"/>
<path d="M13465 5782 c-50 -17 -67 -39 -150 -197 -31 -60 -81 -155 -111 -210
-56 -104 -64 -137 -40 -161 20 -19 563 -21 588 -1 23 17 70 108 64 124 -4 10
-56 13 -215 15 l-210 3 15 30 14 30 165 -3 c153 -3 167 -2 194 17 27 19 71 89
71 111 0 6 -69 10 -176 10 -164 0 -176 1 -168 18 4 9 8 29 8 45 l1 27 226 0
c165 0 229 3 241 13 9 6 31 36 48 66 24 42 28 56 18 62 -15 10 -553 10 -583 1z"/>
<path d="M10535 5567 c-5 -7 -21 -36 -34 -64 l-24 -53 -206 -1 c-234 0 -287
-6 -285 -32 1 -9 -4 -17 -12 -17 -8 0 -11 -6 -8 -15 5 -13 42 -15 242 -15
l235 0 -20 -22 c-21 -24 -73 -122 -73 -139 0 -16 78 -10 132 11 46 17 128 82
128 102 0 4 14 31 31 59 30 51 39 103 25 145 -13 42 -106 71 -131 41z"/>
<path d="M6408 5452 c-43 -2 -71 -8 -78 -17 -10 -12 -44 -15 -171 -15 -99 0
-159 -4 -159 -10 0 -5 -5 -10 -11 -10 -7 0 -9 10 -5 25 l6 25 -87 0 c-49 0
-94 -4 -101 -8 -7 -5 -16 -22 -21 -38 l-8 -29 86 -2 c47 -2 133 -8 189 -14 73
-9 106 -9 110 -2 4 7 71 13 170 15 l163 4 14 28 c8 16 15 32 15 36 0 11 -37
15 -112 12z"/>
<path d="M6619 5447 c-29 -22 -42 -56 -28 -74 10 -11 25 -13 68 -8 72 8 131
24 131 34 0 11 110 2 138 -11 16 -9 25 -9 34 0 8 8 17 8 30 1 21 -11 86 -18
211 -22 72 -2 80 0 98 22 10 13 19 32 19 43 0 19 -5 20 -89 16 -54 -2 -96 -9
-105 -17 -19 -16 -152 -9 -275 14 -92 18 -210 19 -232 2z"/>
<path d="M7393 5443 c-7 -2 -13 -11 -13 -19 0 -11 20 -14 96 -14 90 0 96 -1
91 -19 -7 -26 5 -29 97 -21 56 5 83 12 91 23 10 14 30 17 104 17 90 0 137 11
126 31 -6 9 -569 12 -592 2z"/>
<path d="M8043 5431 c-32 -27 -29 -47 8 -55 58 -11 597 -7 605 5 3 6 1 15 -6
19 -9 6 -7 11 9 19 11 7 21 16 21 21 0 6 -116 10 -307 10 -286 -1 -310 -2
-330 -19z"/>
<path d="M5258 4429 c-10 -5 -18 -21 -18 -34 0 -14 7 -26 18 -29 9 -3 166 -4
349 -3 326 2 333 2 354 24 40 39 20 53 -76 53 -74 0 -86 -3 -97 -20 -12 -19
-24 -20 -175 -20 -156 0 -163 1 -163 20 0 18 -7 20 -87 20 -49 0 -96 -5 -105
-11z"/>
<path d="M6051 4409 c-6 -17 -8 -36 -5 -41 9 -15 155 -7 185 10 22 13 43 13
150 3 68 -7 179 -15 245 -18 115 -5 122 -5 143 16 12 12 21 30 19 39 -3 14
-18 17 -90 20 -75 2 -90 0 -106 -16 -19 -19 -22 -19 -178 -1 -88 10 -202 18
-256 19 l-96 0 -11 -31z"/>
<path d="M6850 4425 c0 -17 22 -20 123 -16 l68 3 -7 -26 -6 -26 86 0 c74 0 88
3 105 22 17 18 30 21 85 19 83 -3 136 7 136 25 0 12 -50 14 -295 14 -256 0
-295 -2 -295 -15z"/>
<path d="M7495 4414 c-13 -20 -14 -28 -4 -40 10 -12 61 -14 318 -12 l306 3 -1
23 c0 12 5 22 13 22 7 0 13 7 13 15 0 13 -42 15 -314 15 l-314 0 -17 -26z"/>
<path d="M8201 4405 c-27 -46 -18 -50 102 -40 118 10 333 10 515 0 128 -7 142
-6 142 9 0 9 -6 16 -14 16 -8 0 -17 8 -21 19 -8 26 -74 31 -415 31 l-288 0
-21 -35z"/>
<path d="M9488 4433 c-29 -3 -38 -10 -48 -34 -7 -16 -11 -31 -9 -33 2 -2 111
-6 242 -9 l238 -7 19 33 c36 58 40 57 -192 55 -117 -1 -229 -3 -250 -5z"/>
<path d="M4046 3402 c-9 -19 -14 -37 -11 -41 10 -9 385 -14 503 -6 l102 7 0
28 c0 39 -19 42 -321 45 l-257 2 -16 -35z"/>
<path d="M4745 3428 c-25 -14 -35 -28 -35 -49 0 -14 21 -17 148 -23 170 -7
398 -7 492 0 51 4 69 10 82 27 10 12 18 25 18 28 0 14 -56 29 -110 29 -51 0
-61 -3 -78 -25 -20 -25 -21 -25 -184 -25 -160 0 -163 0 -173 23 -9 19 -18 22
-75 24 -36 2 -74 -2 -85 -9z"/>
<path d="M5543 3429 c-24 -9 -39 -57 -23 -73 7 -7 40 -10 83 -8 56 2 76 7 94
24 19 17 27 19 50 10 15 -6 90 -14 166 -17 118 -6 137 -5 137 9 0 23 -46 33
-200 41 -63 4 -120 11 -126 16 -13 11 -151 9 -181 -2z"/>
</g>
</svg>
