<?xml version="1.0" standalone="no"?>
<!DOCTYPE svg PUBLIC "-//W3C//DTD SVG 20010904//EN"
 "http://www.w3.org/TR/2001/REC-SVG-20010904/DTD/svg10.dtd">
<svg version="1.0" xmlns="http://www.w3.org/2000/svg"
 width="1920.000000pt" height="1080.000000pt" viewBox="0 0 1920.000000 1080.000000"
 preserveAspectRatio="xMidYMid meet">
<metadata>
Created by potrace 1.16, written by Peter Selinger 2001-2019
</metadata>
<g transform="translate(0.000000,1080.000000) scale(0.100000,-0.100000)"
fill="#000000" stroke="none">
<path d="M0 9718 c0 -595 3 -1078 7 -1075 9 9 10 2157 1 2157 -5 0 -8 -487 -8
-1082z"/>
<path d="M3408 10748 c-6 -14 -35 -16 -275 -17 -276 -1 -333 -5 -333 -24 0
-18 -43 -107 -52 -107 -4 0 -8 -7 -8 -15 0 -8 -9 -22 -19 -32 -10 -10 -20 -27
-23 -38 -2 -13 -13 -21 -31 -23 -20 -3 -27 -8 -25 -20 3 -15 24 -17 181 -20
107 -1 177 -6 177 -12 0 -6 14 -10 30 -10 45 0 44 -1 -52 -170 -24 -41 -45
-79 -47 -85 -18 -49 -43 -94 -54 -98 -8 -3 -26 -36 -41 -74 -15 -37 -34 -73
-42 -80 -8 -6 -16 -20 -17 -32 -1 -12 -5 -21 -10 -21 -4 0 -5 -5 -2 -10 4 -6
-5 -26 -19 -44 -14 -18 -28 -45 -31 -59 -4 -14 -13 -31 -21 -38 -15 -12 -19
-49 -6 -49 4 0 12 -10 17 -22 6 -13 26 -28 45 -35 43 -15 240 -17 240 -3 0 6
-9 10 -21 10 -16 0 -19 4 -13 23 3 12 7 23 8 23 0 1 195 4 431 8 237 3 450 8
475 11 l45 5 -38 -13 c-43 -13 -40 -27 5 -27 16 0 31 6 34 15 4 8 18 15 33 15
35 0 83 44 100 90 7 19 20 49 27 67 8 17 14 36 14 42 0 5 8 14 17 20 10 5 15
12 13 15 -3 3 -145 5 -315 6 -355 1 -685 10 -685 19 0 3 18 25 39 49 23 25 38
51 37 65 -2 20 8 50 37 120 l12 27 167 0 c93 0 168 3 168 8 0 4 -73 7 -162 7
-100 0 -164 4 -166 10 -1 6 135 12 385 17 214 3 432 11 485 17 54 6 119 11
147 11 42 0 53 4 74 30 14 16 29 40 33 52 4 13 10 25 14 28 3 3 14 25 24 49
16 41 16 44 -1 63 -15 17 -26 19 -68 14 -28 -3 -147 -5 -265 -5 -118 1 -232 0
-254 0 -21 -1 -44 4 -52 10 -10 8 -18 9 -27 0 -9 -7 -68 -11 -166 -10 -97 0
-157 -4 -166 -11 -8 -7 -16 -7 -19 -2 -3 6 1 12 9 16 8 3 15 10 15 15 0 5 18
42 41 82 36 62 40 76 32 103 -8 27 -13 31 -40 29 -23 -2 -32 2 -35 15 -3 15
-4 16 -10 0z"/>
<path d="M10747 10504 c-1 -1 -285 -5 -630 -9 -346 -3 -635 -9 -643 -12 -7 -2
-18 -21 -25 -41 -6 -21 -15 -41 -19 -47 -4 -5 -10 -22 -14 -37 -5 -24 -12 -28
-41 -28 -18 0 -46 5 -62 11 -15 6 -127 12 -254 13 -140 2 -234 8 -247 15 -13
7 -48 9 -94 5 -40 -3 -163 1 -273 10 -110 9 -267 16 -348 16 -82 0 -157 4
-167 10 -10 5 -119 14 -241 20 -123 6 -282 16 -354 22 -71 6 -201 9 -288 8
-87 -1 -163 3 -170 8 -28 22 -431 34 -1019 30 l-596 -3 -26 -24 c-14 -13 -28
-31 -30 -40 -21 -80 -32 -111 -38 -111 -13 0 -9 -68 3 -76 7 -4 284 -8 616 -8
333 -1 596 1 586 5 -10 5 11 8 50 8 53 1 67 4 67 16 0 8 8 23 19 34 10 10 23
31 28 47 6 18 19 30 36 35 34 9 267 2 507 -14 102 -7 217 -12 255 -11 69 1 70
1 15 -6 -52 -6 -51 -7 32 -8 148 -3 347 -12 493 -22 77 -5 226 -12 330 -16
108 -4 199 -12 210 -18 11 -6 75 -12 145 -12 69 -1 215 -7 325 -13 277 -16
1807 -29 1820 -16 6 6 17 26 25 45 7 19 24 46 37 61 14 15 23 37 23 57 0 18 5
32 10 32 6 0 10 13 10 29 0 24 -5 29 -30 33 -17 3 -31 4 -33 2z"/>
<path d="M12212 10501 l-754 -6 -19 -24 c-19 -24 -19 -25 -2 -40 16 -14 95
-15 776 -11 417 3 765 2 772 -3 7 -4 25 -2 40 5 32 15 52 0 36 -28 -5 -11 -12
-31 -15 -46 -4 -19 -14 -28 -36 -33 -24 -5 -30 -12 -30 -31 0 -54 12 -61 97
-58 193 7 1073 6 1112 -1 39 -7 44 -6 38 8 -5 14 0 17 31 17 45 0 55 6 71 47
7 17 21 39 32 49 10 9 19 25 19 34 0 42 -3 41 812 40 510 0 800 3 832 10 49
10 69 25 63 45 -3 9 -773 26 -782 17 -2 -2 -173 -4 -292 -3 -5 1 -442 3 -973
5 -531 3 -990 7 -1020 8 -30 2 -394 2 -808 -1z"/>
<path d="M17170 10500 c-8 -5 -76 -6 -162 -3 -108 4 -151 3 -162 -6 -9 -8 -28
-10 -51 -5 -35 6 -67 -3 -103 -30 -11 -8 -11 -11 0 -18 10 -8 10 -11 1 -15 -7
-2 -13 -18 -13 -34 0 -21 -6 -32 -22 -39 -13 -5 -17 -9 -8 -9 10 -1 4 -10 -15
-26 l-30 -25 24 -19 c31 -24 -74 -22 1306 -27 742 -3 1141 -8 1143 -14 2 -6 8
-10 13 -10 6 0 7 5 4 10 -3 6 5 10 19 10 14 0 28 -4 31 -10 3 -5 17 -10 31
-10 22 0 24 4 24 45 l0 46 -47 -1 c-198 -6 -853 2 -853 10 0 6 165 10 450 10
l450 0 0 28 0 28 -296 2 c-173 1 -303 6 -314 12 -26 14 -100 13 -80 -1 11 -7
-59 -9 -234 -5 -231 5 -267 8 -255 21 3 2 269 5 592 5 l587 1 0 30 c0 22 -5
29 -19 29 -11 0 -23 5 -26 10 -10 16 -72 11 -91 -7 -12 -13 -19 -14 -21 -6 -3
9 -93 13 -366 13 -199 1 -531 4 -737 8 -206 4 -376 4 -378 0 -5 -12 -270 -10
-277 2 -8 13 -95 13 -115 0z"/>
<path d="M13964 9935 c-24 -18 -299 -22 -310 -4 -5 8 -26 9 -68 4 -65 -8 -76
-8 -294 1 -79 3 -151 2 -160 -2 -27 -12 -566 -12 -574 -1 -4 7 -11 7 -21 -2
-18 -14 -917 -15 -1185 -1 -89 5 -169 7 -177 4 -8 -4 -15 -15 -15 -25 0 -12
-7 -19 -20 -19 -13 0 -20 -7 -20 -20 0 -14 7 -20 23 -20 12 0 381 0 820 0
l797 0 -11 -22 c-26 -49 -29 -59 -29 -83 0 -15 -4 -24 -10 -20 -6 4 -10 -8
-10 -29 0 -33 14 -57 22 -36 2 6 220 10 601 10 365 1 597 5 597 11 0 15 50 10
57 -6 5 -14 8 -14 26 2 11 10 28 37 38 61 10 23 23 42 28 42 5 0 11 12 13 28
3 24 8 28 48 33 25 4 395 7 822 8 503 1 787 5 806 12 25 8 49 45 38 56 -1 2
-175 3 -387 4 -258 0 -397 4 -423 12 -31 9 -41 8 -44 -1 -5 -16 -762 -18 -762
-2 0 6 -9 10 -20 10 -11 0 -20 -4 -20 -10 0 -16 -94 -12 -116 5 -24 18 -36 19
-60 0z"/>
<path d="M5045 9929 c-135 -19 -125 -13 -125 -74 0 -48 -2 -54 -22 -57 -15 -2
-24 -11 -26 -25 -2 -12 -14 -29 -28 -37 -44 -30 -27 -76 31 -83 21 -2 46 -8
56 -13 23 -13 99 -13 99 0 0 6 -15 11 -32 11 -20 1 -9 5 27 9 33 4 306 8 608
9 436 1 547 4 547 14 0 19 48 113 65 127 22 19 632 -6 748 -30 26 -5 115 -10
197 -10 83 0 150 -4 150 -8 0 -4 75 -6 166 -4 131 4 168 2 175 -9 6 -10 55
-15 192 -20 102 -3 189 -9 195 -13 6 -3 12 -2 14 3 2 6 23 4 51 -3 26 -7 45
-15 41 -18 -13 -14 88 -20 137 -8 38 9 101 11 233 6 99 -4 183 -9 187 -11 16
-10 445 -19 999 -20 333 0 621 -4 640 -9 34 -7 35 -7 48 31 7 21 17 53 21 70
5 18 23 49 40 68 17 20 31 40 31 45 0 6 7 10 16 10 9 0 14 7 12 17 -5 29 -75
34 -415 31 -215 -2 -324 0 -327 7 -3 6 -7 6 -13 -1 -5 -8 -79 -12 -240 -13
-128 -1 -240 -4 -250 -8 -9 -4 -44 -7 -78 -7 -59 -1 -60 -2 -63 -31 -2 -16
-11 -34 -19 -40 -9 -6 -15 -24 -15 -38 0 -15 -3 -29 -7 -31 -7 -5 -293 10
-486 25 -77 5 -196 12 -265 15 -93 4 -128 9 -136 20 -13 16 -36 18 -50 4 -14
-14 -162 -22 -184 -10 -16 9 -216 21 -437 26 -50 2 -101 8 -113 14 -13 7 -68
10 -147 9 -74 -1 -128 2 -130 7 -2 6 -19 8 -38 6 -19 -2 -135 1 -257 8 -123 6
-274 14 -337 16 -62 2 -117 6 -120 9 -4 2 -283 5 -619 7 -337 1 -612 6 -612
10 0 10 -54 8 -135 -3z"/>
<path d="M17046 9923 c-1 -1 -144 -3 -319 -4 -254 -1 -317 -4 -317 -15 0 -7
-6 -17 -14 -21 -21 -11 -76 -133 -76 -166 0 -16 4 -26 9 -23 5 3 25 -1 44 -9
37 -15 107 -16 1786 -15 409 0 747 -3 752 -6 5 -3 9 -1 9 5 0 6 6 8 13 5 8 -3
71 -6 140 -7 l127 -2 0 83 0 82 -427 0 c-236 0 -567 1 -738 1 -217 0 -303 3
-285 10 16 6 277 9 737 7 l713 -3 0 38 0 37 -547 2 c-785 3 -1604 3 -1607 1z
m2139 -173 c4 -7 -243 -10 -734 -10 -476 0 -742 4 -746 10 -4 6 250 10 734 10
482 0 742 -3 746 -10z"/>
<path d="M19190 9440 l0 -80 -97 0 c-784 1 -2906 -10 -2930 -15 -24 -5 -33
-13 -33 -28 0 -11 -3 -17 -7 -14 -9 9 -53 -33 -53 -50 0 -7 -3 -13 -7 -13 -15
0 -43 -62 -43 -94 l0 -33 178 -6 c163 -6 511 -7 2340 -7 l662 0 0 35 0 35
-597 1 c-329 0 -618 4 -643 8 -25 5 241 9 598 10 l642 1 0 35 0 35 -504 0
c-326 0 -507 4 -511 10 -4 7 167 10 504 10 l511 0 0 120 c0 66 -2 120 -5 120
-3 0 -5 -36 -5 -80z"/>
<path d="M3286 9363 c-586 -4 -546 2 -566 -84 -7 -27 -16 -52 -21 -55 -5 -3
-9 -13 -9 -23 0 -10 -11 -28 -25 -41 -25 -24 -33 -64 -15 -75 6 -3 10 -1 10 4
0 16 25 13 67 -8 37 -19 99 -19 87 0 -6 11 -9 10 171 15 169 3 679 22 716 25
22 2 32 14 57 63 58 120 80 193 54 184 -4 -2 -241 -4 -526 -5z"/>
<path d="M4632 9351 c-9 -5 -11 -17 -6 -35 5 -20 1 -33 -14 -49 -31 -34 -50
-79 -57 -133 l-7 -49 159 7 c87 4 336 8 553 8 307 0 612 10 626 19 1 1 12 28
24 61 17 46 28 62 47 66 14 4 131 1 261 -5 131 -7 301 -15 380 -18 78 -3 142
-10 142 -14 0 -14 98 -11 102 3 3 9 11 9 34 0 16 -6 99 -14 184 -18 85 -3 160
-10 166 -15 6 -5 48 -8 95 -7 46 1 176 -4 289 -11 386 -24 701 -36 716 -28 8
5 14 4 14 -2 0 -16 186 -21 955 -27 727 -6 809 -3 833 30 5 6 22 41 38 79 15
37 32 67 36 67 5 0 8 18 8 41 l0 41 -682 -5 -683 -4 2 -36 c1 -23 -4 -37 -13
-41 -8 -3 -14 -15 -14 -26 0 -11 -7 -20 -15 -20 -9 0 -18 -7 -21 -15 -5 -12
-32 -15 -154 -15 -83 0 -150 4 -152 9 -1 5 -87 12 -190 15 -272 7 -569 26
-596 37 -13 5 -80 9 -149 9 -114 0 -280 8 -778 40 -88 5 -193 10 -232 10 -39
0 -73 4 -75 10 -2 6 -25 6 -66 -2 -51 -10 -68 -9 -85 1 -14 10 -95 16 -271 22
-314 11 -1387 11 -1404 0z"/>
<path d="M10840 9345 c0 -14 -12 -20 -33 -16 -5 1 6 -17 25 -39 37 -45 41 -46
91 -25 31 13 142 15 785 15 l749 0 -5 -25 c-2 -14 -9 -25 -16 -25 -17 0 -47
-100 -36 -121 15 -26 56 -35 85 -18 6 4 251 7 545 8 484 2 682 8 693 21 16 21
57 102 57 114 0 9 13 22 28 30 24 12 135 15 708 15 719 1 944 7 956 25 4 6 8
21 8 33 l0 22 -2320 1 c-2065 0 -2320 -1 -2320 -15z"/>
<path d="M2520 8820 l-55 -7 45 -2 c25 -1 54 -6 65 -10 15 -6 11 -9 -20 -14
-22 -4 -55 -7 -73 -7 -30 0 -34 -5 -57 -56 -14 -31 -25 -62 -25 -68 0 -6 -14
-20 -30 -31 -20 -14 -30 -28 -30 -46 0 -57 -5 -56 355 -48 182 4 373 11 425
15 52 4 132 7 178 8 45 0 82 4 82 7 0 4 9 9 20 12 11 3 23 13 26 22 4 9 18 28
30 41 13 12 24 32 24 42 0 20 45 72 62 72 6 0 8 7 4 15 -3 9 0 15 9 15 15 0
30 18 21 27 -12 12 -58 11 -53 -1 4 -9 -18 -12 -82 -12 -47 0 -232 -1 -411 -2
-340 -2 -385 1 -394 24 -6 15 -24 15 -116 4z"/>
<path d="M13405 8795 c-49 -18 -107 -19 -123 -3 -8 8 -15 8 -25 -1 -18 -14
-117 -12 -117 2 0 6 -7 2 -15 -9 -14 -16 -17 -17 -26 -4 -9 13 -32 14 -147 9
-214 -9 -1787 -7 -2081 3 -145 5 -274 7 -287 4 -13 -4 -24 -13 -24 -21 0 -8
-9 -15 -19 -15 -20 0 -37 -28 -24 -41 5 -5 297 -9 651 -9 481 -1 642 -5 642
-13 0 -9 2 -9 8 0 11 17 352 21 352 5 0 -5 -15 -26 -34 -47 -30 -34 -56 -108
-42 -122 2 -3 297 -5 655 -6 l651 -2 11 28 c6 15 15 27 20 27 5 0 9 8 9 18 0
22 36 93 52 104 7 4 133 8 281 8 207 0 267 -3 267 -12 0 -9 4 -8 10 2 9 13 11
13 20 0 7 -10 10 -11 10 -2 0 10 108 12 527 12 l526 -1 28 27 c16 15 26 31 23
36 -3 4 -241 8 -529 8 -316 0 -534 4 -549 10 -17 6 -26 6 -26 0 0 -15 -413
-13 -428 2 -18 18 -199 20 -247 3z"/>
<path d="M17436 8795 c-10 -11 -85 -12 -387 -8 -334 4 -493 4 -1072 -1 l-159
-1 -5 -27 c-3 -15 -9 -25 -13 -23 -5 3 -11 -1 -13 -7 -4 -10 -8 -10 -15 1 -17
23 -27 5 -27 -48 0 -33 -4 -52 -13 -56 -9 -3 -12 -18 -10 -47 l4 -43 1737 -3
1737 -3 0 40 0 39 -1080 -4 c-742 -3 -1080 -1 -1080 6 0 7 341 10 1080 10
l1080 0 0 83 0 84 -97 6 c-54 3 -111 4 -128 1 -62 -11 -1179 -13 -1191 -3 -7
5 -15 6 -17 2 -7 -11 -248 -15 -261 -4 -21 16 -57 19 -70 6z m1719 -94 c3 -6
-377 -10 -1010 -10 -657 0 -1015 3 -1015 9 0 13 2017 14 2025 1z"/>
<path d="M4402 8790 c-29 -12 -54 -38 -72 -75 -8 -16 -17 -32 -21 -35 -15 -14
-48 -78 -42 -83 3 -4 -8 -10 -25 -13 -34 -7 -53 -34 -24 -34 10 0 23 -5 30
-12 9 -9 142 -11 554 -9 297 2 589 6 647 11 58 4 107 3 109 -1 6 -16 28 -9 51
15 16 17 19 26 11 31 -16 10 -4 64 18 81 21 17 54 18 69 3 9 -9 24 -9 55 -2
50 12 204 9 398 -7 74 -6 227 -15 340 -20 113 -5 275 -14 360 -19 233 -16 480
-30 625 -37 147 -6 168 -10 145 -24 -11 -7 -5 -10 20 -9 29 0 31 2 15 9 -24
11 -19 12 72 13 44 0 77 -4 87 -12 10 -8 42 -12 93 -11 43 1 107 2 142 1 59
-1 63 -2 45 -16 -18 -13 -17 -14 18 -15 24 0 37 4 35 11 -1 9 29 11 108 10 60
-2 113 -4 116 -7 4 -2 320 -4 702 -4 485 -1 698 -4 703 -11 9 -15 20 4 39 67
8 28 23 58 34 68 10 9 22 32 25 51 4 18 13 38 21 45 18 15 20 40 3 40 -214 3
-998 -4 -1118 -10 -226 -12 -240 -15 -247 -51 -3 -16 -10 -32 -14 -35 -5 -3
-9 -14 -9 -25 0 -23 -26 -53 -39 -45 -4 3 -82 8 -172 11 -90 4 -213 11 -274
16 -60 6 -155 12 -210 15 -107 5 -674 35 -1125 59 -151 8 -336 20 -410 25 -74
6 -205 13 -290 16 -85 3 -180 9 -210 14 -71 12 -171 15 -190 7 -16 -8 -823 -2
-1040 7 -78 3 -145 2 -158 -4z"/>
<path d="M3144 8241 c11 -17 -64 -19 -514 -20 -245 -1 -451 -1 -457 -1 -7 0
-13 -9 -13 -19 0 -11 -9 -23 -20 -26 -11 -4 -18 -11 -15 -16 3 -5 1 -19 -6
-31 l-12 -22 -8 22 c-5 12 -13 22 -19 22 -15 0 -50 -61 -50 -86 0 -19 -7 -22
-82 -27 -46 -4 -184 -7 -308 -7 -236 -1 -259 -4 -283 -47 -7 -11 -24 -39 -39
-61 -16 -23 -28 -50 -28 -60 0 -11 -9 -27 -20 -37 -11 -10 -18 -20 -15 -23 2
-3 0 -13 -6 -23 -12 -24 -1 -26 171 -33 160 -7 187 -12 193 -38 6 -22 -101
-241 -128 -260 -7 -5 -7 -8 0 -8 6 0 3 -6 -6 -13 -18 -13 -17 -12 -26 -45 -4
-17 -11 -22 -24 -19 -15 4 -19 -1 -20 -24 -2 -41 -1 -39 -29 -97 -14 -28 -30
-52 -37 -52 -7 0 -13 -8 -13 -17 0 -10 -19 -56 -43 -103 -55 -112 -55 -120 11
-139 28 -8 52 -20 52 -26 0 -5 20 -10 44 -10 24 0 47 -3 50 -6 12 -12 -7 -39
-28 -39 -18 -1 -17 -3 9 -17 42 -23 169 -28 289 -12 56 7 198 13 316 14 260 1
415 10 453 24 16 6 40 11 54 11 15 0 24 3 20 6 -3 4 0 13 8 21 11 10 12 19 5
33 -6 10 -10 27 -10 37 1 16 2 16 10 1 16 -27 50 -11 50 23 0 19 -5 29 -15 29
-11 0 -13 7 -9 29 l6 28 -396 2 c-247 1 -404 -2 -415 -9 -13 -6 -47 -6 -105 2
-78 10 -86 13 -86 33 0 12 11 32 24 44 14 13 30 45 36 71 6 27 20 56 31 66 10
9 19 26 19 36 0 11 4 16 10 13 5 -3 15 5 21 19 16 34 32 35 410 40 205 3 324
8 337 15 15 8 28 8 46 -1 20 -8 43 -8 93 0 38 6 93 14 124 17 47 5 60 11 78
35 11 16 21 35 21 41 0 7 6 20 14 28 18 21 29 108 15 117 -6 3 -229 6 -495 5
-322 -1 -484 2 -484 9 0 5 12 10 28 11 15 0 21 3 15 6 -18 7 -16 25 6 75 10
24 26 60 35 81 9 20 21 36 28 35 7 -2 12 3 11 10 -2 6 2 12 7 12 6 0 10 14 10
31 l0 30 73 0 c39 0 151 4 247 9 96 4 265 9 375 9 110 1 227 7 260 12 33 6 70
13 82 15 12 2 28 11 37 19 8 8 18 15 23 15 13 0 30 32 38 70 4 19 14 43 22 52
17 19 9 78 -10 78 -7 0 -6 4 3 10 11 7 7 10 -18 10 -18 0 -31 -4 -28 -9z"/>
<path d="M4066 8222 c-10 -2 -35 -41 -61 -95 -36 -73 -45 -102 -45 -144 l0
-54 53 7 c28 4 57 10 63 15 6 5 233 10 505 12 591 5 546 4 640 12 74 7 75 7
72 33 -3 21 5 36 37 66 l40 39 98 -7 c53 -4 180 -10 281 -12 101 -3 188 -7
193 -10 4 -3 4 -12 -1 -21 -9 -17 -3 -53 9 -53 11 0 31 50 24 61 -7 12 311 3
330 -8 6 -4 119 -11 251 -14 241 -7 454 -22 553 -39 29 -5 88 -7 131 -3 44 3
87 3 98 -1 18 -8 331 -21 473 -20 41 0 77 -3 80 -7 11 -15 688 -30 1090 -24
352 6 422 4 463 -8 26 -8 47 -11 47 -6 0 5 -1 10 -2 12 -2 1 7 18 20 38 12 20
22 43 22 52 0 9 6 22 14 29 7 8 17 25 21 38 4 13 14 30 21 38 16 16 18 58 4
67 -6 4 -203 6 -437 6 -327 -1 -429 -4 -435 -14 -6 -9 -10 -9 -15 -1 -5 7 -34
12 -66 13 -32 0 -62 3 -67 6 -5 3 -18 1 -28 -4 -11 -6 -78 -11 -149 -12 -72 0
-136 -4 -142 -9 -7 -4 -12 -16 -11 -26 4 -33 0 -44 -14 -44 -7 0 -17 -15 -23
-32 -7 -27 -13 -32 -32 -30 -16 3 -21 0 -16 -9 6 -9 -1 -10 -26 -6 -41 7 -212
19 -323 22 -45 2 -155 8 -246 14 -91 6 -235 16 -320 21 -160 11 -398 24 -770
41 -118 5 -255 14 -305 19 -49 5 -156 11 -238 14 -81 3 -180 10 -220 16 -39 6
-94 10 -122 9 -27 -1 -185 2 -350 5 -328 8 -1142 13 -1169 8z"/>
<path d="M10887 8222 c-548 -2 -621 -4 -642 -18 -29 -19 -32 -39 -9 -48 9 -3
85 -6 170 -6 85 0 154 -4 154 -9 0 -5 233 -6 548 -3 721 8 726 8 734 -2 10
-15 -3 -36 -22 -36 -32 0 -50 -12 -65 -41 -24 -45 -19 -78 12 -90 34 -13 1091
-16 1172 -4 37 6 52 5 48 -2 -4 -6 14 -14 46 -19 68 -10 99 -7 115 13 6 9 12
13 12 9 0 -5 7 -3 15 4 10 8 14 32 14 81 -1 37 2 73 6 78 4 8 231 11 713 12
643 1 943 7 956 19 2 3 8 18 11 33 l8 29 -954 -1 c-525 -1 -967 -1 -984 0
-118 5 -355 -3 -360 -12 -5 -7 -11 -7 -19 0 -10 8 -294 16 -426 12 -36 -1 -47
-1 -375 2 -143 1 -538 1 -878 -1z"/>
<path d="M19006 8223 c-1 -1 -788 -4 -1750 -6 -1883 -3 -1765 0 -1766 -52 0
-11 -11 -33 -25 -49 -14 -16 -25 -38 -25 -48 0 -11 -7 -26 -15 -34 -18 -19
-20 -60 -2 -66 6 -3 237 -6 512 -7 322 -2 506 -6 518 -13 13 -6 37 -7 66 -2
25 4 92 8 149 8 81 1 105 -2 112 -14 7 -10 12 -12 18 -4 7 11 1278 21 2030 16
l372 -3 0 40 0 41 -494 2 c-486 3 -495 3 -500 -17 -4 -16 -8 -17 -18 -7 -10
10 -10 15 2 22 10 6 2 10 -26 13 -21 2 203 4 499 5 l537 2 0 34 0 33 -102 5
c-57 3 -107 3 -113 -1 -17 -10 -745 -2 -745 9 0 6 175 10 480 10 l480 0 0 39
0 40 -96 3 c-53 2 -97 2 -98 1z m-778 -94 c-2 -7 -52 -11 -136 -10 -73 0 -389
0 -703 1 -375 0 -568 3 -564 10 9 14 1408 13 1403 -1z m-140 -88 c17 -10 -931
-12 -1014 -1 -32 4 180 8 471 8 292 1 536 -2 543 -7z"/>
<path d="M9919 7652 c-27 -19 -24 -47 9 -69 22 -16 41 -19 107 -16 237 10
1171 13 1198 3 17 -5 35 -6 41 -1 16 12 293 14 301 1 4 -6 -4 -10 -19 -10 -23
0 -26 -4 -32 -59 -6 -56 -9 -60 -35 -66 -29 -7 -39 -28 -19 -40 20 -12 1124
-5 1131 7 5 8 32 9 88 5 100 -8 140 -1 135 22 -3 9 10 45 28 81 l33 65 830 5
c457 3 838 9 847 13 9 5 19 15 22 22 6 16 -19 45 -37 45 -9 0 -9 -2 0 -8 6 -4
-166 -7 -383 -7 -217 0 -394 2 -394 6 0 3 -24 2 -52 -3 -47 -9 -119 -7 -313 6
-141 9 -322 14 -345 8 l-25 -6 25 -6 c20 -5 14 -8 -29 -14 -32 -4 -57 -3 -60
2 -10 16 -437 18 -1561 10 -498 -4 -749 -3 -757 4 -7 6 -31 7 -55 3 -87 -13
-177 -16 -195 -7 -12 7 -25 7 -36 0 -12 -6 -29 -6 -51 2 -52 17 -373 19 -397
2z"/>
<path d="M3762 7652 c-27 -4 -44 -29 -66 -96 -9 -27 -25 -61 -35 -75 -10 -14
-22 -48 -26 -76 -7 -48 -6 -49 12 -33 16 15 67 16 523 17 592 1 775 8 807 29
13 8 21 18 18 22 -6 10 31 87 47 96 16 10 171 6 448 -12 129 -9 261 -15 293
-14 34 1 57 -3 57 -9 0 -7 21 -9 58 -6 31 2 122 -1 202 -7 80 -6 198 -10 263
-9 64 2 117 -1 117 -6 0 -4 24 -9 53 -10 28 0 140 -6 247 -12 107 -6 258 -15
335 -19 138 -7 139 -7 145 -32 5 -21 12 -25 48 -28 23 -2 50 1 59 7 15 8 10
10 -22 11 -30 0 -36 3 -25 10 19 12 227 12 350 0 100 -10 1404 -14 1474 -4 73
10 118 35 84 46 -11 4 14 52 38 73 7 6 14 24 18 40 3 17 8 45 12 63 l6 32 -43
0 c-24 0 -231 -1 -459 -2 -509 -3 -634 -3 -685 1 -41 3 -147 -11 -177 -24 -14
-5 -18 -19 -18 -55 0 -41 -4 -50 -27 -65 -25 -16 -41 -17 -217 -6 -105 7 -229
14 -276 16 -352 16 -678 36 -950 57 -74 6 -209 12 -300 14 -91 1 -172 5 -180
8 -8 2 -80 7 -160 10 -270 11 -495 28 -515 39 -14 8 -233 11 -765 12 -410 0
-755 -1 -768 -3z"/>
<path d="M18938 7655 c-2 -3 -837 -7 -1855 -9 -2011 -4 -1899 -1 -1890 -58 2
-21 -1 -28 -12 -28 -26 0 -62 -74 -59 -120 1 -22 6 -40 10 -40 4 0 8 4 8 9 0
11 79 -4 93 -18 14 -14 114 -15 122 -1 8 12 65 13 65 1 0 -5 15 -6 33 -2 17 4
44 4 60 0 15 -4 27 -4 27 -1 0 4 15 6 32 5 18 -1 47 -2 63 -3 26 -1 27 -3 10
-10 -18 -8 -17 -9 8 -9 17 -1 26 3 22 9 -4 7 471 10 1446 10 1074 0 1455 3
1465 11 11 9 14 8 14 -1 0 -9 12 -11 39 -7 22 2 43 2 48 -2 4 -3 122 -5 261
-3 l252 3 0 34 0 35 -1290 0 c-944 0 -1290 3 -1290 11 0 8 64 11 223 9 122 -2
702 -2 1290 -1 l1067 1 0 35 0 35 -657 0 c-1276 1 -1419 2 -1493 9 -65 7 364
10 1863 11 l287 0 0 45 0 45 -128 0 c-71 0 -131 -2 -134 -5z"/>
<path d="M3420 7019 c-17 -33 -28 -64 -25 -69 3 -5 -3 -15 -13 -22 -12 -8 -21
-30 -24 -60 l-6 -48 142 -1 c172 -1 843 1 1017 4 82 1 135 7 151 15 15 8 36
39 54 78 l29 64 70 -5 c39 -3 158 -10 265 -15 298 -15 373 -20 400 -27 14 -3
74 -5 133 -4 91 2 112 0 128 -15 12 -11 19 -13 19 -5 0 9 19 11 73 8 39 -2
115 -7 167 -9 188 -9 342 -17 775 -42 242 -14 539 -30 660 -35 238 -11 1316
-15 1403 -5 48 5 54 4 59 -15 3 -12 9 -21 14 -21 5 0 9 -7 9 -15 0 -25 69 -20
91 7 11 11 22 18 27 13 4 -4 1 -10 -5 -12 -22 -8 -14 -23 12 -23 15 0 28 7 32
18 4 9 13 23 21 31 7 8 10 17 5 20 -4 3 -13 15 -19 26 -9 15 -21 20 -52 19
-38 -1 -40 0 -51 38 -8 26 -9 43 -2 51 5 7 13 36 17 65 l7 53 -644 -1 -644 -2
-42 -26 c-27 -17 -48 -41 -60 -67 -9 -22 -22 -43 -28 -47 -14 -11 -195 -10
-370 2 -254 17 -570 33 -785 41 -113 4 -268 12 -345 18 -238 20 -572 39 -755
45 -183 6 -267 13 -274 25 -2 3 -260 8 -572 10 -465 2 -568 0 -575 -11 -6 -9
-9 -10 -9 -1 0 10 -54 12 -224 12 l-225 -1 -31 -59z"/>
<path d="M9624 7065 c-3 -8 -4 -22 -2 -32 3 -17 41 -18 817 -20 447 -1 816 -5
820 -8 3 -4 -2 -11 -12 -16 -9 -6 -17 -18 -17 -28 0 -10 -11 -39 -25 -65 -14
-26 -22 -53 -18 -59 18 -30 28 -34 63 -26 19 5 249 8 510 8 290 0 491 4 515
10 49 13 127 13 178 2 47 -11 51 -7 101 100 l38 84 821 -2 c719 -3 824 -1 844
12 26 18 30 40 8 49 -9 3 -1055 5 -2326 5 -1967 0 -2311 -2 -2315 -14z"/>
<path d="M14899 7064 c-7 -8 -9 -17 -6 -20 3 -3 -1 -17 -8 -31 -8 -15 -12 -30
-9 -35 3 -5 -9 -13 -26 -20 -26 -9 -31 -15 -27 -34 2 -13 1 -24 -3 -24 -4 0
-10 -12 -12 -27 -3 -22 0 -28 17 -30 11 -1 82 -5 158 -9 76 -4 133 -10 127
-14 -19 -12 48 -21 114 -15 145 11 505 15 511 5 8 -13 158 -13 171 0 7 7 533
10 1652 8 l1642 -3 0 127 c0 112 -2 127 -17 132 -10 3 -975 5 -2145 4 -1820 0
-2129 -2 -2139 -14z m1738 -51 c95 -3 170 -10 167 -15 -3 -4 32 -7 78 -6 l83
2 -75 5 -75 6 100 7 c97 7 364 5 415 -2 14 -2 -22 -7 -80 -10 l-105 -6 113 -2
c73 -1 111 2 107 8 -8 14 7 14 990 11 380 -1 700 -5 713 -8 12 -3 22 -10 22
-16 0 -6 -24 -7 -72 -2 -40 5 -111 8 -158 6 -47 -1 -660 -4 -1363 -6 -1102 -5
-1280 -3 -1293 9 -8 8 -14 17 -14 20 0 8 234 7 447 -1z m1123 -113 c0 -10
-900 -10 -1295 -1 -234 6 -146 8 449 9 406 1 740 3 742 4 6 7 104 -5 104 -12z
m1170 0 c0 -6 -214 -9 -581 -8 -323 0 -575 4 -567 9 19 12 1148 11 1148 -1z"/>
<path d="M1696 6519 c-17 -20 -25 -21 -119 -16 -56 3 -157 7 -224 9 l-121 3
-6 -47 c-4 -30 -12 -48 -20 -48 -14 0 -30 -32 -42 -83 -7 -32 -23 -45 -34 -27
-10 15 -20 -11 -20 -51 0 -25 3 -28 18 -22 9 5 55 8 102 8 47 -1 88 3 91 8 6
9 220 11 334 3 33 -2 69 1 79 6 15 8 22 7 30 -4 9 -12 15 -13 29 -4 13 8 20 8
26 -3 7 -11 10 -10 15 5 5 17 15 19 110 16 64 -2 112 1 125 7 17 10 20 9 14
-5 -6 -15 -1 -16 33 -10 21 4 48 9 60 9 11 1 28 8 37 15 9 8 23 15 30 16 8 1
21 7 28 12 8 6 22 14 32 17 21 8 23 55 2 83 -8 10 -15 29 -15 42 0 47 -17 62
-70 62 -27 0 -52 -5 -56 -11 -5 -9 -65 -10 -222 -5 -119 4 -218 9 -221 11 -2
3 1 5 7 5 7 0 12 5 12 10 0 17 -25 11 -44 -11z"/>
<path d="M17622 6525 c-11 -13 -110 -15 -673 -15 -363 0 -678 -3 -699 -6 -21
-4 -47 -1 -59 5 -16 9 -21 9 -21 0 0 -9 -20 -10 -72 -5 -73 7 -1142 7 -1343 1
-64 -3 -111 -8 -113 -15 -2 -5 -19 -10 -37 -10 -37 0 -56 -20 -48 -51 3 -10
-2 -26 -11 -34 -9 -9 -17 -28 -18 -43 -7 -100 -6 -102 34 -81 16 8 29 7 59 -6
31 -14 57 -17 138 -13 56 3 102 3 105 1 6 -6 1387 -4 1397 3 5 3 9 0 9 -6 0
-6 4 -9 8 -6 7 4 207 10 222 7 3 -1 611 -2 1353 -4 l1347 -2 0 36 0 36 -212 6
c-116 4 -299 8 -407 9 l-196 1 190 9 c105 5 196 11 203 13 14 5 16 41 3 50 -5
3 -272 5 -593 4 -666 -1 -662 -2 -666 11 -4 12 -44 13 -57 2 -6 -4 -52 -6
-103 -3 -52 4 -99 3 -105 -1 -7 -4 -314 -8 -682 -8 l-670 0 -14 21 c-12 20
-11 21 6 13 10 -5 263 -8 563 -7 308 1 536 -2 525 -7 -16 -7 -11 -9 20 -9 29
-1 36 2 25 9 -10 6 81 10 267 10 156 0 293 4 307 10 16 6 27 6 31 0 4 -6 292
-10 771 -10 757 0 764 0 764 -20 0 -11 7 -20 15 -20 12 0 15 13 15 55 l0 55
-132 2 c-73 1 -181 1 -239 -1 -92 -3 -107 -1 -112 14 -6 15 -8 15 -23 1 -8 -9
-23 -16 -32 -16 -9 0 -86 -3 -169 -6 -84 -3 -158 -2 -164 2 -6 3 -165 6 -353
6 -187 0 -335 2 -328 4 6 3 10 10 6 15 -7 13 -17 11 -32 -6z m-1030 -185 c211
-1 390 -5 397 -9 7 -5 -249 -8 -568 -7 -320 0 -581 4 -581 8 0 6 344 17 361
11 3 -1 179 -3 391 -3z"/>
<path d="M3141 6503 c-7 -8 -10 -17 -7 -20 7 -7 -41 -92 -66 -116 -10 -10 -18
-31 -18 -46 0 -21 -6 -30 -22 -35 -22 -6 -22 -6 7 -22 25 -13 72 -16 297 -16
147 1 272 3 278 7 5 3 15 3 21 0 5 -4 61 -8 124 -10 90 -2 115 1 119 12 5 12
10 11 35 -2 38 -19 48 -19 54 3 4 14 5 14 6 1 1 -11 11 -16 34 -16 17 0 26 2
19 5 -6 2 -10 7 -7 12 3 4 64 5 135 2 86 -3 138 -1 153 6 12 6 36 13 52 14 19
2 30 9 30 18 1 24 15 40 36 40 21 0 25 10 8 27 -6 6 -8 19 -5 30 6 17 13 18
89 12 45 -4 143 -10 217 -12 74 -3 148 -10 163 -16 16 -6 80 -11 143 -11 163
0 715 -30 734 -40 8 -4 36 -6 62 -3 25 3 122 0 215 -8 92 -7 182 -13 198 -13
17 0 125 -6 240 -13 116 -7 264 -14 330 -16 66 -1 125 -5 131 -9 5 -4 29 -7
52 -6 27 0 50 -6 62 -17 13 -12 25 -15 37 -9 10 4 317 9 683 10 366 1 698 3
738 3 66 1 74 3 82 24 5 12 9 16 9 10 1 -7 6 -13 12 -13 7 0 9 9 6 23 -6 21
-5 21 8 3 13 -17 15 -17 21 -3 3 10 3 28 0 42 -4 17 4 47 24 92 17 36 27 70
22 75 -4 4 -271 7 -593 6 -321 -1 -617 -1 -658 0 -84 1 -80 4 -133 -90 -40
-71 -16 -67 -348 -54 -91 3 -214 10 -275 15 -60 5 -139 12 -175 14 -63 5 -391
21 -634 31 -65 3 -121 8 -124 11 -3 3 -58 5 -123 5 -72 0 -120 4 -124 11 -4 5
-17 9 -28 8 -12 -2 -33 1 -47 6 -14 4 -117 9 -230 10 -113 2 -261 8 -330 14
-69 7 -305 14 -525 17 -220 2 -406 6 -413 9 -7 3 -11 1 -7 -4 9 -15 -15 -18
-79 -8 -34 4 -158 5 -276 2 -252 -8 -392 -7 -400 3 -9 12 -25 11 -39 -5z"/>
<path d="M9355 6512 c-29 -4 -50 -39 -34 -58 10 -12 127 -14 811 -14 439 1
803 -2 808 -5 15 -9 2 -25 -21 -25 -10 0 -19 -4 -19 -10 0 -5 5 -10 10 -10 6
0 10 -7 10 -15 0 -14 -5 -17 -40 -19 -11 -1 -16 -15 -18 -49 -3 -42 0 -48 20
-56 13 -5 27 -6 31 -4 7 4 442 6 442 2 0 0 30 -1 67 -2 49 -2 69 2 73 12 4 10
9 10 19 2 16 -13 306 -27 332 -16 11 4 29 7 41 6 12 -1 48 3 80 8 32 6 94 11
138 12 102 2 122 11 130 60 4 20 12 40 19 42 7 3 16 19 19 36 l7 31 187 1
c1322 5 1470 7 1497 18 27 11 28 13 14 27 -27 27 -96 35 -252 29 -245 -8
-1457 -11 -1438 -2 9 4 6 4 -8 0 -32 -10 -790 -10 -790 0 0 4 -8 7 -17 7 -15
0 -16 -2 -3 -10 12 -8 10 -10 -8 -10 -13 0 -20 4 -17 10 4 6 -5 10 -20 10 -17
0 -24 -4 -19 -12 5 -8 -56 -10 -247 -5 -261 7 -1768 14 -1804 9z"/>
<path d="M12440 5956 c-6 -6 -10 -6 -10 0 0 5 -5 2 -10 -6 -6 -10 -10 -11 -10
-2 0 6 -11 12 -25 12 -14 0 -25 -5 -25 -10 0 -7 -522 -10 -1666 -9 -1614 1
-1666 1 -1679 -17 -8 -11 -15 -27 -15 -36 0 -20 42 -20 1168 -18 263 0 472 -3
472 -8 0 -5 -9 -17 -20 -27 -11 -10 -20 -13 -20 -7 0 7 -4 12 -9 12 -5 0 -7
-18 -4 -39 4 -27 0 -48 -13 -70 -12 -21 -15 -34 -8 -41 12 -12 1035 -19 1027
-6 -3 4 46 7 108 6 186 -4 200 -3 206 20 3 11 9 20 13 20 5 0 14 16 20 35 6
19 16 35 21 35 5 0 9 8 9 18 0 11 8 26 18 35 16 15 97 17 829 20 l810 4 22 22
c11 11 21 25 21 29 0 13 -211 33 -225 22 -8 -7 -161 -10 -435 -9 -252 0 -417
4 -409 10 18 11 11 12 -79 13 -40 1 -77 -3 -82 -8z"/>
<path d="M2920 5953 c0 -7 -11 -13 -24 -13 -23 0 -96 -55 -96 -72 0 -4 10 -8
21 -8 17 0 19 -3 10 -14 -6 -7 -22 -11 -35 -9 -25 5 -38 -15 -41 -62 -1 -11
-9 -32 -19 -46 -31 -49 8 -58 147 -33 30 5 37 3 37 -10 0 -9 5 -16 10 -16 6 0
10 3 10 8 0 4 93 6 206 4 178 -2 210 -1 231 14 21 13 27 14 34 3 6 -10 9 -7
10 11 1 23 2 22 8 -5 3 -16 8 -30 11 -29 3 1 95 4 205 9 115 4 206 11 213 18
9 7 16 7 24 -1 18 -18 160 -3 181 19 10 11 15 24 11 31 -4 7 -3 8 5 4 8 -5 18
7 29 33 17 41 26 47 82 53 16 2 24 -2 23 -9 -2 -7 2 -13 7 -13 6 0 10 7 10 15
0 8 5 15 10 15 6 0 10 -6 10 -12 0 -10 20 -12 82 -7 46 3 91 1 101 -3 10 -5
93 -10 185 -11 92 -2 172 -6 178 -9 12 -8 154 -18 277 -20 62 0 77 -3 73 -14
-4 -11 9 -14 67 -12 l72 1 -60 8 c-55 6 -2 5 335 -7 63 -2 167 -9 230 -15 63
-6 188 -14 278 -18 127 -5 165 -9 172 -21 7 -12 14 -12 43 -2 41 15 103 15
220 2 136 -16 399 -23 1016 -27 516 -4 566 -6 578 -21 12 -16 14 -15 30 5 15
19 29 22 90 24 85 2 114 17 112 57 -2 32 18 82 55 136 14 22 23 43 19 47 -12
12 -1155 12 -1253 0 -47 -6 -88 -11 -92 -11 -4 0 -17 -21 -29 -47 -42 -95 -19
-90 -331 -76 -150 7 -291 15 -313 17 -22 3 -116 7 -209 10 -93 3 -171 8 -174
11 -3 3 -38 5 -78 5 -56 0 -73 3 -78 16 -5 12 -18 14 -61 11 -30 -2 -58 -7
-62 -10 -3 -4 -12 1 -19 11 -12 16 -13 16 -19 0 -8 -19 -38 -22 -70 -7 -17 8
-16 8 7 4 15 -3 30 -1 33 5 4 6 -8 10 -29 10 -19 0 -38 -5 -42 -11 -4 -7 -19
-8 -38 -5 -17 4 -156 9 -310 12 -153 3 -286 9 -295 13 -9 5 -90 12 -181 15
-91 3 -259 12 -375 20 -254 17 -686 21 -714 7 -15 -8 -20 -7 -25 5 -4 12 -10
13 -19 6 -7 -6 -62 -8 -139 -6 -99 3 -128 1 -128 -8 -1 -9 -5 -8 -13 3 -19 24
-56 30 -83 13 -13 -9 -28 -13 -33 -10 -5 4 -13 1 -17 -5 -5 -8 -9 -8 -14 1
-13 20 -32 0 -26 -26 4 -14 2 -24 -4 -24 -5 0 -10 15 -10 34 0 22 -6 36 -16
40 -26 10 -34 7 -27 -10 5 -14 3 -14 -16 -2 -18 11 -23 11 -31 -2 -8 -12 -10
-12 -10 -1 0 9 -6 11 -17 6 -27 -11 -106 -5 -115 8 -6 9 -8 9 -8 0z"/>
<path d="M1886 5943 c-2 -2 -210 -4 -463 -3 l-458 1 -25 -31 c-14 -17 -32 -39
-40 -49 -41 -44 -60 -109 -60 -198 0 -78 2 -85 14 -67 8 11 16 31 18 44 5 42
59 48 488 54 214 2 395 8 401 12 6 3 15 0 20 -7 6 -11 13 -11 26 -3 10 6 32 9
49 7 27 -4 34 0 54 31 12 21 20 46 17 56 -4 16 0 20 19 20 25 0 42 35 30 65
-3 8 -1 15 4 15 11 0 8 35 -4 47 -8 8 -83 12 -90 6z"/>
<path d="M14739 5946 c-3 -3 -107 -7 -232 -8 l-225 -1 -11 -24 c-6 -13 -11
-31 -11 -39 0 -19 -21 -56 -41 -71 -9 -7 -16 -30 -17 -56 l-3 -44 92 -6 c51
-4 143 -7 206 -7 62 0 113 -3 113 -7 0 -10 4222 -7 4366 2 94 6 103 9 115 31
8 16 9 28 3 34 -6 6 -168 9 -414 9 -223 0 -432 0 -465 0 -33 1 -194 1 -357 1
-269 0 -340 6 -292 24 9 3 19 4 23 2 10 -6 115 -8 529 -7 l362 1 0 30 c0 24
-4 30 -22 30 -19 0 -20 2 -8 10 19 12 9 12 -64 0 -61 -10 -192 -11 -1813 -10
-614 0 -983 3 -983 9 0 6 4 12 9 16 6 3 709 5 1563 4 854 -1 1656 -1 1781 0
211 2 230 1 243 -16 12 -16 13 -12 14 35 l0 52 -237 0 c-557 2 -2752 2 -3259
1 -303 -1 -643 1 -755 5 -112 4 -207 4 -210 0z m1786 -166 c4 -6 14 -5 29 1
16 8 29 8 42 1 11 -6 26 -7 34 -4 24 11 910 3 910 -8 0 -7 -354 -10 -1000 -10
-653 0 -1000 3 -1000 10 0 6 171 11 478 13 262 1 482 3 489 5 6 1 14 -2 18 -8z"/>
<path d="M17594 5422 c-6 -4 -14 -15 -17 -26 -7 -17 -15 -18 -100 -11 -69 5
-109 3 -160 -9 -59 -14 -171 -16 -822 -16 -493 0 -756 3 -760 10 -4 6 -13 7
-23 1 -9 -5 -401 -8 -870 -8 -944 1 -877 6 -886 -67 -3 -21 -11 -45 -19 -55
-13 -13 -37 -81 -37 -102 0 -24 864 -36 2440 -32 503 1 1248 2 1655 2 407 0
747 0 756 0 17 1 57 66 47 76 -9 10 -61 14 -73 6 -5 -3 -116 -5 -246 -3 -226
3 -237 4 -242 22 -3 11 -13 20 -22 20 -10 0 -24 8 -31 18 -12 16 -94 17 -1454
20 -948 1 -1439 6 -1435 12 3 6 1 10 -4 10 -6 0 -11 3 -11 8 0 12 2290 4 2330
-9 22 -6 65 -8 110 -4 41 3 316 9 610 13 562 7 590 10 587 51 -1 22 -43 37
-74 27 -10 -3 -51 -8 -91 -10 -61 -4 -73 -2 -68 10 6 15 -19 20 -28 5 -11 -17
-270 -22 -551 -12 -204 8 -281 7 -286 -1 -5 -7 -23 -8 -55 -3 -53 8 -91 8
-194 1 l-65 -4 63 10 c56 9 63 12 60 31 -3 23 -17 31 -34 19z m-839 -211 c20
-2 20 -2 -1 -11 -37 -15 -158 -24 -150 -11 4 6 2 11 -3 11 -6 0 -11 -5 -11
-11 0 -7 -7 -8 -17 -3 -21 9 -553 12 -547 3 5 -9 -435 -3 -463 6 -15 5 -23 3
-23 -4 0 -8 -46 -11 -150 -11 -126 0 -150 2 -150 15 0 12 31 15 198 17 216 3
1285 2 1317 -1z m1416 -10 c-12 -8 -331 -15 -526 -12 -320 6 -622 5 -618 -1 2
-5 -3 -8 -12 -8 -9 0 -13 5 -10 10 3 6 -1 10 -9 10 -8 0 -18 -4 -21 -10 -8
-13 -55 -13 -55 -1 0 6 -17 12 -37 14 -21 2 264 4 632 5 392 1 664 -2 656 -7z"/>
<path d="M2531 5386 c-12 -14 -10 -16 10 -16 l24 -1 -21 -17 c-12 -10 -25 -28
-29 -41 -8 -27 -76 -143 -87 -152 -5 -3 1 -14 13 -25 19 -17 37 -19 183 -19
88 0 167 -4 174 -8 6 -5 12 -6 12 -4 0 3 16 1 35 -3 41 -9 59 6 19 16 -19 5
-22 9 -12 15 19 12 20 12 52 -16 32 -27 86 -34 86 -11 0 11 19 16 73 20 105 8
101 8 242 -2 103 -7 136 -6 157 4 17 9 29 10 33 4 4 -6 58 -10 128 -10 105 0
126 3 152 20 17 11 24 20 17 20 -9 0 -11 7 -7 23 12 36 23 43 41 21 14 -18 15
-16 10 26 l-5 45 77 -7 c42 -3 125 -7 184 -7 64 -1 109 -5 113 -12 5 -7 13 -5
25 6 15 13 22 14 40 5 12 -7 31 -10 41 -7 10 3 21 1 24 -3 3 -5 25 -8 50 -8
24 0 49 -3 54 -6 5 -4 12 -2 16 4 3 5 13 10 21 10 8 0 12 -4 9 -10 -4 -6 23
-10 72 -11 87 -1 180 -5 563 -24 74 -4 149 -11 167 -16 21 -7 38 -7 51 0 14 7
25 6 40 -5 12 -8 22 -11 22 -6 0 13 43 7 48 -6 2 -7 13 -12 23 -12 11 0 18 4
15 9 -14 22 71 20 86 -3 5 -8 13 -7 28 2 11 7 24 11 28 8 4 -2 60 -7 125 -10
65 -3 122 -8 128 -12 6 -3 90 -7 187 -9 97 -2 213 -7 257 -11 44 -4 128 -8
187 -9 101 0 107 -1 102 -19 -5 -15 -3 -18 11 -13 9 4 19 7 21 7 2 0 4 10 4
23 0 17 2 19 10 7 8 -13 88 -15 562 -20 304 -3 556 -3 560 0 4 3 36 4 72 2 49
-3 66 -8 68 -19 2 -11 14 -5 43 23 50 48 75 87 75 115 0 11 14 41 30 66 17 24
28 48 25 53 -3 4 5 6 17 3 22 -4 22 -4 4 11 -33 26 -148 34 -133 9 3 -5 -198
-7 -446 -6 -391 2 -452 5 -460 18 -4 8 -13 15 -19 15 -9 0 -9 -3 0 -12 7 -7
12 -15 12 -18 0 -4 -70 -6 -155 -5 -85 1 -152 -2 -149 -7 3 -4 -1 -11 -9 -14
-8 -3 -27 -29 -42 -59 -16 -29 -38 -58 -50 -63 -13 -6 -86 -6 -200 0 -99 5
-189 7 -199 4 -10 -3 -31 1 -46 9 -18 10 -45 12 -84 8 -52 -5 -56 -4 -50 13 4
14 1 13 -15 -6 -11 -14 -21 -23 -22 -20 0 3 -2 13 -4 23 -5 27 -15 34 -15 11
0 -17 -8 -19 -63 -19 -37 0 -70 5 -79 13 -12 10 -22 10 -40 1 -17 -7 -36 -8
-60 -1 -20 5 -41 6 -48 2 -7 -5 -24 -3 -37 3 -18 8 -29 8 -42 0 -12 -8 -23 -8
-36 0 -17 9 -132 16 -370 20 -83 2 -90 4 -90 22 0 13 -8 21 -23 23 -17 3 -22
-1 -20 -14 5 -27 -48 -41 -82 -20 -22 13 -63 16 -204 18 -97 2 -176 7 -176 12
0 4 -33 6 -73 3 -40 -2 -102 0 -137 6 -55 9 -64 8 -75 -7 -12 -16 -14 -16 -27
2 -12 17 -27 19 -163 20 -82 1 -190 6 -240 12 -152 17 -272 22 -255 11 12 -9
9 -11 -12 -11 -16 0 -28 -4 -28 -10 0 -6 -9 -6 -26 0 -14 6 -45 10 -69 10 -24
0 -47 5 -50 10 -3 6 -13 10 -21 10 -8 0 -13 -3 -10 -8 5 -9 -374 -13 -388 -4
-15 9 -276 12 -276 3 0 -14 -139 -8 -144 6 -8 21 -26 15 -27 -9 -1 -17 -2 -19
-6 -5 -5 20 -14 22 -32 5 -11 -10 -14 -10 -18 0 -3 6 -11 12 -18 12 -7 0 -15
5 -17 11 -2 7 -9 5 -17 -5z"/>
<path d="M11095 5377 c20 -16 20 -16 -2 -17 -13 0 -23 3 -23 8 0 4 -530 6
-1178 5 l-1177 -1 -3 -35 c-2 -22 2 -36 10 -39 7 -2 373 -2 813 1 440 3 804 3
808 0 4 -3 1 -12 -8 -19 -8 -7 -15 -28 -15 -46 0 -27 -4 -34 -20 -34 -15 0
-20 -7 -20 -26 0 -15 -4 -23 -11 -19 -7 5 -9 -3 -7 -21 l3 -29 138 -9 c95 -6
145 -6 160 2 14 7 192 12 498 16 343 4 485 9 505 18 44 18 74 49 74 74 0 13 8
39 18 58 l17 36 355 0 c979 2 1263 -1 1282 -11 16 -8 24 -7 37 8 30 31 51 69
44 76 -10 11 -93 8 -93 -3 0 -21 -2153 -7 -2205 15 l-20 8 20 -16z"/>
<path d="M604 5368 c-3 -5 0 -8 7 -8 10 0 11 -2 0 -12 -9 -10 -85 -13 -312
-13 l-299 0 0 -147 0 -148 53 -1 c85 -2 112 -11 111 -36 -2 -30 -24 -83 -35
-83 -5 0 -9 -6 -9 -13 0 -7 -16 -39 -36 -71 -26 -41 -40 -54 -47 -47 -18 18
-37 13 -37 -9 0 -11 4 -20 10 -20 19 0 23 -49 6 -75 -14 -21 -16 -68 -16 -365
l1 -340 257 -2 c141 0 264 0 272 1 17 2 344 22 407 25 32 1 50 9 72 31 17 17
31 38 31 48 0 10 14 46 30 79 17 34 29 67 26 74 -4 11 -103 12 -500 8 -308 -3
-496 -2 -500 4 -3 6 12 17 34 26 37 15 40 19 40 53 0 48 18 115 29 108 15 -9
43 46 39 76 -4 26 -1 29 29 35 19 4 50 4 69 1 38 -6 598 8 810 21 l130 8 36
39 c23 25 39 54 43 78 4 21 13 41 21 44 19 7 18 59 -2 67 -9 3 -200 6 -425 6
-398 0 -409 1 -409 19 0 11 4 31 10 45 9 24 8 26 -20 26 -28 0 -30 -2 -30 -39
0 -35 -3 -40 -31 -50 -40 -14 -89 -14 -89 -1 0 6 4 10 8 10 5 0 19 24 33 53
13 28 29 55 36 60 6 4 17 24 24 45 6 20 22 57 35 82 21 39 24 41 24 19 0 -31
7 -39 26 -32 16 6 19 33 4 33 -5 0 -10 5 -10 10 0 6 25 10 55 10 29 0 76 4
102 9 26 6 191 12 366 15 l317 5 0 -45 c0 -24 4 -44 9 -44 5 0 7 18 4 40 -6
39 -5 40 25 40 17 0 34 5 37 10 3 6 26 10 49 10 54 0 99 38 139 118 52 103 36
118 -115 106 -49 -4 -88 -3 -88 2 0 11 -850 13 -856 2z"/>
<path d="M2253 4810 c-13 -5 -23 -14 -23 -19 0 -5 -14 -22 -30 -38 -22 -20
-29 -34 -25 -50 5 -22 -19 -87 -42 -111 -19 -20 -16 -29 13 -36 33 -9 1146 -8
1237 1 60 5 68 8 73 29 4 14 14 25 25 25 10 1 24 3 29 4 6 1 15 3 21 4 7 1 8
6 3 14 -5 6 -9 23 -9 37 0 24 3 25 60 24 33 0 85 -6 115 -12 83 -17 246 -20
242 -4 -3 15 64 17 73 2 3 -6 50 -10 106 -10 54 0 99 -4 99 -9 0 -5 33 -11 74
-13 41 -2 72 0 69 5 -6 10 28 9 63 -2 40 -13 134 -20 134 -10 0 4 -8 10 -17
12 -10 2 -4 2 12 -1 17 -3 65 -5 108 -3 55 2 77 -1 77 -10 0 -8 13 -10 45 -6
27 4 45 3 45 -3 0 -13 50 -13 90 1 26 10 34 9 41 -2 6 -11 23 -13 74 -9 42 4
69 2 71 -5 3 -6 40 -9 99 -7 90 3 95 2 120 -22 27 -27 60 -35 52 -13 -2 6 -10
11 -17 9 -6 -1 -10 3 -7 10 2 7 13 11 23 9 10 -3 58 -5 105 -6 93 -2 133 -14
89 -26 l-25 -7 27 -1 c14 -1 28 4 30 10 6 17 68 19 68 2 0 -7 7 -13 15 -13 8
0 15 7 15 16 0 12 7 14 29 9 18 -4 32 -2 36 5 6 9 10 9 16 -1 4 -7 4 -16 0
-19 -5 -3 21 -5 58 -6 36 0 54 1 39 3 -16 3 -28 9 -28 15 0 6 9 8 23 4 59 -18
329 -41 432 -38 17 1 339 1 716 1 764 0 708 -5 714 71 2 24 13 54 28 73 13 18
27 42 31 55 16 50 10 51 -352 50 -185 0 -398 3 -473 7 -145 8 -179 3 -179 -23
-1 -16 -1 -16 -10 0 -9 15 -27 16 -143 13 -72 -2 -143 -6 -155 -9 -32 -7 -72
-52 -72 -79 0 -12 -6 -33 -13 -47 -12 -24 -16 -25 -87 -22 -79 4 -150 19 -150
34 0 4 -9 8 -20 8 -11 0 -20 -4 -20 -10 0 -6 -31 -10 -72 -10 -40 0 -68 4 -62
8 7 4 -65 8 -160 10 -200 3 -235 5 -260 16 -12 6 -21 5 -26 -4 -6 -10 -45 -11
-207 -1 -109 7 -216 16 -238 21 -60 14 -155 13 -155 -2 0 -8 -3 -9 -8 -3 -4 6
-11 10 -17 11 -5 0 -22 4 -37 8 -16 5 -35 3 -48 -4 -13 -7 -25 -8 -29 -3 -8
12 -445 45 -686 53 -130 4 -174 8 -158 15 15 7 -55 10 -230 11 -139 1 -391 4
-562 7 -170 4 -389 6 -485 6 -204 -2 -241 -1 -335 6 -38 2 -80 0 -92 -5z"/>
<path d="M8435 4802 c-34 -8 -48 -49 -22 -64 9 -4 374 -9 811 -9 l796 -1 0
-23 c0 -32 -10 -56 -21 -49 -5 2 -17 1 -27 -5 -14 -7 -17 -19 -14 -50 4 -38 7
-41 45 -52 27 -7 180 -10 468 -7 235 2 425 0 422 -4 -2 -5 2 -8 11 -8 8 0 16
4 18 9 2 6 87 11 196 12 l192 3 12 39 c14 45 35 58 54 33 16 -23 48 -17 52 11
2 15 8 19 23 16 14 -4 19 0 19 17 0 19 -5 21 -40 19 -41 -3 -47 1 -32 26 7 14
108 15 835 13 l827 -3 0 38 0 37 -1998 0 c-1099 0 -2133 2 -2298 5 -164 2
-312 1 -329 -3z"/>
<path d="M13698 4793 c-10 -2 -18 -9 -18 -15 0 -6 -6 -19 -14 -27 -7 -9 -29
-45 -48 -81 -29 -54 -33 -69 -25 -91 l10 -26 236 -2 c130 -1 237 -5 238 -9 2
-4 732 -6 1623 -4 1076 2 1631 -1 1653 -8 28 -8 24 -9 -23 -5 -39 4 -51 3 -40
-5 8 -5 62 -9 120 -9 63 0 97 4 85 8 -36 15 94 20 544 24 414 3 434 4 448 22
7 11 12 26 11 35 -3 13 -49 15 -353 17 -513 2 -844 9 -852 16 -3 4 132 7 300
7 300 0 307 0 307 20 0 17 7 20 53 20 42 1 48 3 33 11 -13 8 -452 11 -1502 10
-816 0 -1484 3 -1484 8 0 25 230 28 1835 25 919 -2 1680 -6 1693 -9 26 -6 61
27 62 57 0 17 -126 18 -2437 17 -1341 -1 -2446 -3 -2455 -6z m2077 -163 c17
-4 -153 -8 -377 -9 -266 -1 -408 2 -408 9 0 12 738 12 785 0z"/>
<path d="M2635 4242 c-2 -2 -157 -4 -345 -4 l-341 0 -10 -25 c-5 -13 -13 -22
-17 -19 -4 2 -12 2 -18 -2 -12 -9 -64 -110 -64 -126 0 -7 -10 -23 -21 -35 -21
-23 -21 -23 -2 -43 23 -22 103 -38 103 -19 0 17 257 15 263 -1 4 -10 6 -10 6
0 1 8 17 12 47 12 27 0 43 -4 39 -10 -3 -5 3 -10 14 -10 12 0 21 4 21 8 0 5
148 9 328 10 306 2 329 1 345 -15 11 -13 28 -18 54 -17 21 1 47 3 57 3 40 2
-2 24 -46 24 -38 0 -40 1 -18 9 14 5 44 8 67 5 57 -6 87 14 80 56 -3 25 2 37
28 62 l32 30 109 -8 c60 -4 156 -9 214 -11 156 -4 334 -17 340 -25 3 -4 70 -8
150 -9 80 -1 213 -7 295 -13 83 -5 216 -11 297 -13 80 -2 161 -8 180 -12 18
-4 39 -7 46 -5 6 1 12 -6 12 -15 0 -10 3 -14 8 -10 4 4 7 13 7 19 0 7 12 11
25 10 14 -1 77 -5 140 -9 63 -4 118 -11 121 -16 3 -4 43 -3 88 4 65 9 87 9
103 -1 11 -7 45 -12 76 -11 67 0 122 -8 140 -22 8 -7 12 -6 12 3 0 11 3 11 11
-1 6 -9 12 -11 15 -4 2 5 19 9 37 7 17 -2 96 -5 174 -6 93 -1 146 -6 154 -14
9 -9 15 -8 27 4 12 11 27 14 61 9 25 -3 70 -2 99 3 38 6 57 5 65 -4 7 -7 31
-10 64 -7 39 3 53 1 53 -9 0 -8 6 -5 15 7 14 18 16 18 29 1 10 -13 15 -15 18
-5 3 9 24 13 69 12 35 -1 146 -3 247 -5 115 -3 184 0 186 6 3 6 8 5 13 -3 7
-8 26 -10 69 -6 68 8 77 8 160 2 34 -3 67 -9 74 -13 7 -4 15 -3 19 2 3 5 22 8
41 8 53 -1 78 14 101 61 11 24 25 47 30 50 6 3 7 14 4 23 -4 12 2 21 20 29 15
7 25 20 25 32 0 12 7 28 15 37 9 8 14 17 12 19 -2 2 -90 6 -196 9 -162 5 -197
3 -216 -9 -21 -14 -24 -14 -29 1 -6 15 -37 16 -334 10 -180 -4 -391 -10 -469
-13 -140 -7 -143 -8 -143 -30 0 -41 -17 -71 -44 -76 -14 -3 -26 -1 -26 5 0 5
-7 4 -15 -3 -24 -20 -18 -40 13 -41 l27 -1 -29 -8 c-16 -5 -33 -7 -37 -4 -16
10 -342 32 -634 44 -339 14 -497 27 -506 42 -7 11 -9 10 -9 -1 0 -11 -14 -12
-72 -7 -40 3 -165 11 -278 16 -113 5 -277 14 -365 20 -87 6 -222 13 -300 16
-231 9 -265 11 -272 18 -3 3 -44 6 -91 6 -46 0 -182 4 -301 10 -227 10 -540
17 -546 12z"/>
<path d="M8143 4240 c-13 -5 -23 -16 -23 -25 0 -8 -4 -15 -9 -15 -5 0 -11 -9
-14 -20 -5 -20 0 -20 296 -22 166 -1 537 0 825 2 370 2 522 0 522 -8 0 -6 -10
-18 -22 -27 -19 -13 -21 -17 -8 -25 12 -8 11 -13 -8 -33 -12 -13 -22 -29 -22
-35 0 -7 -5 -21 -12 -31 -12 -19 -2 -63 10 -46 4 6 14 12 22 15 31 10 1185 15
1192 5 4 -5 8 -19 8 -29 0 -18 1 -18 18 -3 10 10 29 17 43 18 l24 0 -25 12
c-24 11 -24 11 13 15 30 3 37 7 33 20 -7 22 29 82 49 82 9 0 13 5 10 10 -3 6
1 10 9 10 9 0 16 5 16 11 0 6 -7 9 -15 5 -8 -3 -15 -2 -15 3 0 5 15 12 33 15
17 4 392 11 832 15 440 4 809 11 820 16 27 12 47 33 38 38 -25 15 -177 17
-1233 22 -641 2 -1664 7 -2275 10 -718 3 -1118 2 -1132 -5z"/>
<path d="M13965 4232 c-494 -2 -541 -3 -552 -19 -8 -11 -13 -12 -13 -4 0 20
-33 8 -36 -13 -5 -33 -37 -89 -66 -114 -33 -28 -42 -55 -29 -80 9 -18 47 -19
1018 -23 1094 -4 1438 -5 1523 -2 97 3 170 -2 170 -11 0 -4 19 -6 43 -2 23 3
186 6 362 6 176 0 610 1 965 2 355 2 682 3 727 3 79 0 82 1 98 28 15 26 16 31
3 44 -13 12 -37 13 -174 3 -113 -8 -185 -8 -249 -1 -49 6 -164 12 -255 13
-100 1 -127 3 -70 5 129 4 140 7 140 41 l0 27 -716 -2 c-515 -2 -721 -6 -730
-14 -11 -9 -18 -8 -28 0 -10 9 -200 13 -713 15 -384 2 -699 4 -700 5 -28 13
123 16 774 15 428 -1 900 2 1048 5 149 3 271 4 272 1 2 -3 333 -4 735 -3 661
2 737 4 771 19 20 10 37 20 37 25 0 4 -20 15 -45 25 -40 15 -70 16 -253 10
-197 -6 -3439 -10 -3492 -4 -14 2 -268 2 -565 0z m3345 -162 c13 0 13 -1 0
-10 -8 -5 -115 -10 -245 -11 -362 -2 -952 -1 -1040 1 -44 1 -111 -2 -149 -6
-41 -4 -67 -3 -64 2 6 9 -83 9 -795 -2 -311 -5 -377 -3 -375 8 2 11 121 14
638 18 474 4 1886 4 2030 0z"/>
<path d="M0 3701 c0 -11 6 -22 13 -24 10 -4 10 -6 0 -6 -10 -1 -13 -34 -13
-132 l0 -131 78 3 c42 1 85 7 95 11 11 6 23 6 30 0 17 -14 263 -16 272 -2 3 5
36 10 73 10 42 0 75 5 88 14 11 8 30 16 43 18 19 2 28 14 40 50 17 51 59 110
73 102 11 -7 10 14 -2 36 -10 18 -27 19 -326 20 -324 0 -364 3 -364 25 0 14
-31 25 -72 25 -21 0 -28 -5 -28 -19z"/>
<path d="M5880 3660 c0 -11 -6 -20 -12 -20 -7 0 -24 -9 -37 -19 -18 -13 -24
-28 -25 -59 0 -27 -5 -42 -13 -42 -7 0 -13 -7 -13 -15 0 -8 -4 -15 -10 -15 -5
0 -10 5 -10 11 0 7 -12 9 -31 7 -22 -4 -34 0 -42 14 -14 22 -27 23 -27 3 0
-18 -109 -21 -253 -5 -51 5 -225 17 -387 25 -162 8 -412 23 -555 32 -143 10
-315 17 -382 18 -68 0 -123 4 -123 8 0 4 -37 7 -82 6 -45 -1 -83 2 -85 7 -2 5
-54 9 -115 8 l-113 -1 100 7 c89 7 84 7 -48 5 -81 -2 -248 4 -370 12 -303 20
-1601 30 -1622 13 -8 -7 -15 -21 -15 -31 0 -11 -4 -19 -10 -19 -5 0 -10 -13
-10 -28 0 -17 -9 -37 -21 -48 -13 -12 -19 -27 -16 -42 3 -15 -2 -26 -14 -33
-21 -11 -25 -34 -8 -44 5 -4 103 -6 217 -6 114 1 407 3 652 4 245 2 453 7 463
11 11 6 17 20 17 43 0 30 3 35 20 30 17 -4 20 0 20 23 0 36 15 46 46 30 17
-10 27 -10 37 -2 20 17 654 -16 785 -40 49 -9 76 -9 128 2 60 11 68 11 76 -3
6 -11 17 -15 36 -11 15 2 56 0 92 -5 59 -8 61 -9 21 -10 -35 -1 -42 -4 -33
-13 9 -9 24 -8 67 6 45 16 70 18 147 12 113 -8 252 -23 334 -35 33 -4 83 -5
110 -1 47 8 140 5 579 -20 258 -15 465 -18 471 -8 3 5 11 5 17 1 6 -4 282 -9
614 -10 552 -3 603 -2 615 13 7 9 30 34 50 56 26 27 43 59 54 100 16 57 16 62
0 73 -12 9 -110 13 -387 14 -204 1 -375 3 -379 6 -4 3 -11 -3 -14 -12 -6 -14
-9 -15 -16 -4 -5 10 -21 12 -54 9 -25 -3 -44 -2 -41 2 2 3 -24 3 -58 -2 -34
-5 -81 -6 -103 -3 -33 5 -43 2 -48 -10 -3 -9 -10 -13 -16 -10 -6 4 -8 9 -6 13
2 4 -18 8 -46 10 -37 2 -53 -1 -62 -13 -10 -14 -14 -14 -34 5 l-22 21 0 -21z"/>
<path d="M7800 3633 l0 -43 779 0 c428 0 792 -3 809 -6 43 -9 47 -29 12 -63
-40 -38 -50 -86 -22 -111 23 -21 52 -26 68 -11 5 6 264 11 619 13 336 2 618 8
628 12 10 5 16 15 13 22 -3 8 -2 14 3 14 14 0 73 100 67 115 -5 14 5 20 27 16
30 -5 1608 0 1621 5 16 6 51 62 44 70 -3 2 -1054 5 -2336 6 l-2332 3 0 -42z"/>
<path d="M16110 3666 c0 -8 -28 -10 -97 -5 -54 3 -699 7 -1433 7 -1383 2
-1494 -1 -1508 -37 -3 -9 -11 -20 -19 -24 -7 -4 -13 -16 -13 -26 0 -28 -50
-111 -66 -111 -8 0 -14 -6 -14 -14 0 -17 50 -38 98 -40 20 -1 603 -3 1295 -4
836 -1 1256 -5 1252 -12 -4 -6 10 -10 34 -10 23 0 41 5 41 10 0 7 369 10 1088
9 615 0 1078 -4 1067 -9 -20 -9 -20 -9 1 -9 29 -1 44 18 44 56 l0 33 -272 1
c-150 1 -376 1 -503 0 -143 -1 -236 2 -245 8 -11 8 39 11 165 12 167 1 365 14
285 18 l-35 1 22 18 c44 34 17 40 -177 35 -266 -5 -517 -7 -575 -2 -27 2 -106
3 -175 2 -506 -6 -1856 -2 -1920 6 -82 10 755 14 2319 12 l1183 -2 20 21 c11
11 17 28 14 36 -6 15 -257 18 -1346 14 -239 0 -456 3 -482 8 -35 7 -48 6 -48
-2z m700 -173 c0 -9 -45 -10 -1379 -11 -574 -1 -1049 2 -1055 6 -12 8 1517 18
2087 15 191 -2 347 -6 347 -10z"/>
<path d="M240 3110 c0 -6 -46 -10 -120 -10 l-120 0 0 -125 0 -125 61 0 c82 0
253 21 260 33 3 5 9 8 13 8 3 -1 20 -1 36 -1 24 0 30 4 30 23 0 14 9 26 23 32
14 7 23 20 25 40 2 17 10 37 18 46 7 8 15 26 16 40 3 23 1 24 -67 27 -38 2
-74 7 -79 13 -14 13 -44 11 -49 -3 -3 -10 -9 -10 -26 0 -12 7 -21 8 -21 2z"/>
<path d="M1340 3101 c-22 -27 -50 -81 -50 -98 0 -9 -14 -38 -31 -66 -38 -62
-51 -95 -39 -99 6 -2 69 0 142 3 168 9 486 1 510 -12 10 -5 18 -16 18 -23 0
-7 11 -18 25 -24 20 -9 26 -8 34 6 5 10 23 17 43 17 18 1 60 2 93 3 43 2 56 5
45 12 -13 9 -13 10 0 11 8 0 67 5 130 11 63 5 156 10 205 12 100 2 115 7 115
39 0 12 16 39 35 60 l35 37 85 0 c46 0 86 -4 89 -8 3 -5 60 -9 128 -10 68 -1
152 -4 188 -7 72 -5 319 -18 685 -35 132 -7 253 -16 270 -21 19 -6 31 -6 33 0
3 9 62 5 92 -7 8 -3 62 -6 120 -7 202 -3 605 -26 622 -35 10 -6 188 -13 410
-16 216 -4 395 -11 396 -15 5 -13 50 -11 54 1 2 7 158 11 469 10 525 0 515 -1
507 69 -4 27 0 41 16 56 32 30 90 114 84 121 -4 3 -107 7 -230 9 -122 2 -298
7 -390 11 -121 4 -168 3 -168 -5 0 -15 -25 -14 -39 3 -12 15 -62 10 -73 -8 -5
-7 -8 -4 -8 7 0 9 -4 17 -10 17 -5 0 -10 -4 -10 -9 0 -12 -128 -21 -292 -20
l-138 0 -22 -46 c-14 -28 -29 -45 -40 -45 -12 0 -18 -8 -18 -24 0 -14 -4 -27
-8 -30 -4 -2 -100 0 -212 6 -113 5 -237 9 -277 9 -63 -1 -74 2 -87 21 l-16 22
0 -22 c0 -22 -10 -28 -23 -15 -4 3 -2 12 4 19 9 11 4 13 -24 12 -30 -1 -33 -3
-21 -15 19 -19 18 -22 -6 -16 -11 3 -20 9 -20 13 0 4 -38 5 -85 3 -46 -3 -92
-2 -102 3 -10 4 -88 9 -173 10 -85 2 -263 10 -395 18 -310 20 -350 23 -595 36
-217 11 -295 18 -320 28 -17 6 -89 8 -714 16 -351 5 -462 9 -468 19 -6 9 -18
8 -56 -6 -62 -21 -91 -22 -120 -1 -21 15 -25 15 -42 -1 -13 -12 -27 -15 -49
-10 -17 4 -29 11 -25 16 8 14 -23 11 -38 -3 -17 -16 -204 -14 -200 1 4 17 -32
11 -48 -8z"/>
<path d="M7482 3095 c-20 -43 -15 -145 9 -184 15 -25 23 -31 32 -22 6 6 43 11
83 11 70 0 73 1 91 30 9 17 21 30 25 30 4 0 8 9 8 20 0 14 9 20 33 24 67 10
1377 17 1377 7 0 -5 -4 -13 -10 -16 -5 -3 -10 -15 -10 -25 0 -10 -6 -23 -13
-27 -18 -12 -51 -77 -46 -92 7 -20 1181 -16 1317 5 27 4 32 9 32 32 0 36 13
54 33 46 14 -5 17 0 17 26 0 62 -50 58 862 61 799 2 836 3 847 21 6 10 7 18 2
18 -5 0 -11 9 -14 20 -3 13 -14 20 -29 20 -2715 4 -4402 9 -4504 14 l-130 7
-12 -26z"/>
<path d="M12805 3108 c-34 -17 -74 -74 -81 -114 -3 -21 -15 -56 -26 -77 -18
-37 -18 -40 -2 -58 17 -19 70 -19 2421 -19 1595 0 2403 -3 2403 -10 0 -16 24
-11 42 9 8 10 21 20 28 23 9 3 11 13 7 29 l-6 24 -963 -3 c-1427 -5 -1418 -5
-2022 2 -453 6 -561 4 -567 -6 -6 -9 -9 -9 -9 -1 0 6 4 14 9 17 5 3 662 6
1460 6 1379 1 1451 2 1472 19 14 11 20 24 16 34 -6 16 -115 17 -1444 17 -920
0 -1443 4 -1453 10 -10 6 602 10 1765 10 1661 -1 1783 1 1815 16 19 10 29 19
22 22 -9 3 -8 8 5 17 17 13 16 14 -10 24 -16 6 -32 9 -37 6 -4 -3 -527 -5
-1161 -5 -635 0 -1642 0 -2239 -1 -1185 0 -1221 0 -1230 6 -16 10 -197 12
-215 3z"/>
<path d="M2052 2530 c-283 -4 -354 -8 -361 -19 -7 -10 -10 -10 -13 -1 -4 12
-179 19 -308 13 -19 0 -96 1 -169 4 -147 5 -181 0 -181 -22 0 -23 -49 -113
-66 -119 -8 -3 -14 -11 -14 -18 0 -7 -9 -30 -20 -50 -15 -29 -16 -37 -6 -41 8
-3 126 -6 264 -6 137 0 256 -3 265 -7 9 -3 25 4 37 16 12 12 25 18 29 13 9
-14 18 -14 391 -19 233 -3 340 -1 330 6 -8 5 -13 10 -10 11 3 0 13 2 23 4 10
2 17 -3 17 -13 0 -12 3 -13 12 -4 8 8 8 15 -1 26 -17 20 13 88 35 79 8 -3 15
0 15 6 1 6 2 17 3 24 1 14 -10 14 306 -3 129 -7 279 -14 333 -17 53 -3 97 -8
97 -12 0 -3 57 -7 128 -7 70 0 172 -3 227 -7 212 -16 435 -27 543 -27 62 0
121 -4 132 -10 10 -5 61 -10 112 -10 111 0 176 -9 156 -21 -8 -6 6 -9 37 -10
37 0 45 -3 30 -9 -17 -7 -15 -9 12 -9 44 -1 52 18 12 26 -27 5 -29 8 -14 13
11 4 37 3 60 -1 160 -30 862 -47 1554 -39 l414 5 15 23 c18 27 33 28 50 2 7
-11 17 -20 22 -20 15 0 12 36 -5 50 -8 7 -15 23 -15 37 0 26 33 98 50 108 21
13 10 43 -17 50 -33 8 -915 6 -1158 -4 l-169 -6 -7 -25 c-4 -16 -7 -19 -8 -7
-1 9 -7 17 -15 17 -11 0 -13 -9 -9 -36 5 -28 2 -39 -11 -46 -9 -5 -13 -14 -10
-20 4 -6 0 -14 -7 -19 -18 -11 -206 -12 -227 0 -15 8 -286 20 -542 25 -92 2
-140 13 -140 32 0 11 -9 13 -42 7 -24 -5 -116 -8 -206 -8 -144 0 -165 2 -176
18 -15 19 -81 24 -92 6 -10 -17 -224 -5 -235 13 -6 8 -9 9 -9 1 0 -6 -8 -10
-17 -8 -10 2 -72 4 -138 6 -66 1 -110 4 -97 6 30 6 28 23 -3 23 -14 0 -25 -4
-25 -9 0 -11 -109 -20 -130 -10 -8 3 -82 10 -165 14 -349 17 -411 22 -345 24
49 2 59 5 40 11 -27 9 -30 9 -568 0z"/>
<path d="M13455 2531 c-534 -4 -976 -10 -983 -15 -6 -4 -12 -13 -12 -21 0 -7
-13 -39 -30 -70 -16 -31 -30 -63 -30 -71 0 -8 -8 -19 -19 -25 -18 -12 -18 -12
0 -30 11 -11 29 -19 42 -19 13 0 26 -2 29 -5 3 -3 1040 -7 2304 -10 1265 -2
2324 -5 2354 -6 30 -1 77 2 104 7 42 8 51 13 59 37 5 16 7 31 4 33 -6 6 -104
6 -2036 5 -953 0 -1469 3 -1480 9 -11 7 90 10 309 9 179 -1 829 -1 1446 0
1052 1 1122 2 1141 19 11 9 22 26 25 37 5 20 1 20 -176 14 -100 -4 -185 -5
-189 -2 -5 3 -577 4 -1273 4 -875 -1 -1264 1 -1264 9 0 16 3308 16 3324 0 13
-13 73 -13 98 1 11 6 52 11 91 11 52 0 77 4 90 15 18 17 23 48 8 58 -5 3 -391
5 -858 4 -959 -2 -1554 0 -1883 5 -124 2 -662 0 -1195 -3z"/>
<path d="M0 2508 c0 -9 6 -19 13 -21 10 -4 10 -6 0 -6 -10 -1 -13 -26 -13 -92
0 -81 2 -90 18 -86 9 3 29 8 45 11 18 4 27 13 27 26 0 22 18 36 41 32 13 -2
20 13 33 69 9 40 15 73 14 75 -2 1 -42 4 -91 5 -76 4 -87 2 -87 -13z"/>
<path d="M7245 2523 c-33 -5 -45 -18 -45 -49 0 -17 7 -23 30 -26 17 -3 32 -3
33 -1 3 3 1577 10 1577 7 0 -8 -39 -77 -57 -100 -27 -36 -30 -69 -7 -78 24 -9
1193 -6 1249 4 36 6 53 5 60 -4 6 -6 18 -10 28 -8 16 3 16 5 -3 20 -17 15 -18
19 -5 36 15 19 15 19 15 -1 0 -25 17 -40 30 -27 15 15 24 94 11 94 -6 0 -11
-9 -11 -19 0 -11 -4 -23 -10 -26 -11 -7 -13 18 -4 51 6 24 68 48 124 50 19 0
380 1 803 2 674 2 767 4 767 17 0 8 7 15 15 15 9 0 15 9 15 24 l0 24 -2292 0
c-1261 -1 -2306 -3 -2323 -5z"/>
<path d="M6360 2130 c0 -5 -11 -10 -24 -10 -31 0 -56 -10 -56 -22 0 -15 27
-38 44 -38 9 0 16 -3 16 -8 0 -4 14 -13 31 -21 30 -13 31 -15 25 -62 -6 -40
-4 -49 9 -49 8 0 15 -6 15 -14 0 -8 6 -16 14 -19 21 -8 27 39 15 119 -6 47 -6
70 1 72 31 11 -18 62 -60 62 -16 0 -30 -4 -30 -10z"/>
<path d="M6051 1971 c-8 -5 -80 -7 -160 -5 -153 5 -900 -13 -938 -23 -13 -3
-23 -11 -23 -19 0 -8 -4 -14 -8 -14 -5 0 -17 -18 -27 -40 -10 -22 -23 -40 -29
-40 -6 0 -5 -4 3 -9 30 -19 -66 -24 -234 -13 -93 7 -216 14 -272 16 -56 2
-106 7 -112 10 -6 4 -11 3 -11 -3 0 -11 -34 -8 -108 11 -34 9 -46 8 -52 -2 -6
-9 -9 -9 -15 0 -4 7 -2 16 5 20 9 5 9 9 1 14 -6 4 -11 14 -11 22 0 14 -22 44
-33 44 -7 0 -29 -75 -25 -89 2 -7 -3 -16 -11 -18 -9 -4 -11 0 -7 15 8 26 -12
40 -21 15 -4 -10 -12 -23 -19 -30 -6 -6 -9 -24 -6 -40 4 -23 2 -26 -8 -16 -8
7 -13 26 -13 43 l0 30 -63 0 c-46 0 -63 4 -68 15 -3 8 -16 15 -30 15 -13 0
-26 -7 -30 -15 -3 -8 -11 -15 -17 -15 -9 0 -9 4 0 14 10 12 6 13 -21 7 -33 -6
-141 -1 -373 18 -66 5 -203 13 -305 16 -102 4 -214 9 -250 11 -36 1 -128 4
-205 4 -89 1 -145 6 -154 13 -8 7 -55 12 -115 12 -55 1 -199 5 -318 10 -174 6
-220 5 -233 -5 -12 -10 -19 -10 -27 -2 -14 14 -84 16 -93 3 -3 -6 -18 -6 -36
-1 -18 5 -128 8 -246 7 -118 -2 -217 1 -220 6 -3 4 -12 5 -22 1 -9 -3 -50 -7
-91 -8 l-75 -1 2 -27 c1 -16 -3 -28 -8 -28 -6 0 -7 5 -3 11 4 7 -2 9 -17 7
-16 -2 -25 -11 -27 -25 -2 -12 -10 -27 -18 -33 -17 -15 -17 -10 -3 26 14 38
-5 74 -39 74 -42 0 -92 -22 -89 -40 2 -15 -2 -15 -45 -3 -22 6 -24 -13 -3 -21
23 -9 18 -42 -11 -63 -22 -16 -26 -27 -27 -74 -2 -49 0 -54 20 -57 16 -2 23 2
23 13 0 9 5 13 10 10 6 -3 10 -14 10 -25 0 -10 7 -21 16 -24 22 -9 24 -8 24 9
0 18 51 21 81 5 12 -7 19 -7 19 -1 0 19 43 24 56 7 10 -15 12 -15 18 -1 3 8
12 15 20 15 9 0 13 -6 10 -14 -3 -8 -1 -17 5 -21 6 -3 11 1 11 9 0 19 26 24
73 13 27 -7 42 -6 50 2 15 15 27 14 27 -4 0 -8 5 -15 11 -15 5 0 8 4 5 9 -3 5
1 12 10 15 26 10 36 7 30 -9 -4 -10 1 -15 15 -15 11 0 17 5 14 10 -4 6 5 10
20 10 15 0 24 -4 20 -10 -4 -6 8 -10 29 -10 19 0 36 4 38 9 2 4 13 12 26 16
19 5 25 3 29 -16 6 -21 7 -21 20 -3 13 18 27 19 185 16 155 -3 174 -1 209 18
47 24 59 25 59 5 0 -24 41 -35 67 -18 12 8 26 14 30 12 4 -1 14 12 22 30 8 17
21 31 28 31 8 0 13 12 13 29 0 16 6 33 13 39 16 14 277 11 277 -3 0 -6 53 -10
137 -11 76 0 186 -2 245 -5 70 -3 109 -1 112 6 3 5 2 -3 -1 -20 -6 -27 -5 -29
10 -16 26 21 339 8 686 -28 71 -8 108 -8 115 -1 13 13 49 13 62 0 6 -6 53 -12
105 -14 52 -2 109 -7 128 -11 24 -5 36 -4 43 6 7 11 11 11 15 2 9 -23 25 -13
21 12 -6 27 5 41 22 30 8 -5 8 -11 0 -20 -16 -19 34 -53 53 -37 7 6 18 8 25 3
17 -10 82 -1 82 12 0 5 9 0 20 -13 11 -13 20 -19 20 -13 0 6 20 9 48 7 26 -2
115 -8 197 -14 83 -6 175 -14 205 -17 l55 -7 -45 -7 -45 -6 40 -1 c22 -1 47 3
55 8 10 6 11 10 3 10 -7 0 -13 5 -13 10 0 21 30 9 31 -12 1 -16 3 -18 6 -6 4
14 20 16 146 11 78 -2 156 -10 172 -16 43 -17 228 -15 249 2 10 9 16 10 16 2
0 -6 9 -11 20 -11 11 0 20 5 20 10 0 12 37 14 42 3 2 -5 116 -5 253 -2 188 4
253 2 262 -7 9 -9 22 -9 50 -2 21 6 72 14 113 18 96 9 118 17 126 44 10 32 53
96 64 96 6 0 10 -7 10 -15 0 -22 38 -18 45 5 3 11 15 25 26 31 16 8 18 13 9
25 -7 7 -10 20 -7 28 4 10 -8 22 -34 35 -42 22 -79 27 -79 11 0 -5 -7 -10 -16
-10 -8 0 -13 4 -10 9 3 5 -1 12 -10 15 -24 9 -117 7 -133 -3z"/>
<path d="M6927 1962 c-15 -10 -30 -25 -33 -35 -14 -46 -31 -45 823 -46 443 0
808 -3 811 -5 2 -3 -10 -29 -29 -58 -20 -32 -33 -69 -35 -93 l-2 -40 111 6
c62 4 357 8 657 10 320 1 550 6 557 12 7 5 10 13 7 18 -3 5 2 19 10 31 9 12
16 29 16 36 0 7 7 20 15 28 8 9 15 24 15 34 0 17 36 18 833 22 868 4 877 4
877 46 -1 25 -25 53 -36 42 -11 -11 -4564 -19 -4564 -8 0 4 44 9 98 11 l97 3
-100 1 c-77 1 -106 -3 -128 -15z"/>
<path d="M12535 1959 c-187 -4 -350 -10 -362 -14 -19 -6 -23 -15 -23 -51 0
-36 -3 -44 -18 -44 -19 0 -41 -46 -48 -104 l-4 -33 203 -6 c111 -4 639 -7
1174 -7 667 0 974 -3 978 -10 5 -8 11 -8 20 0 10 8 359 10 1249 8 680 -2 1236
0 1236 3 0 4 11 10 24 13 21 5 23 10 17 38 l-7 33 -100 -1 c-54 0 -171 -6
-259 -13 -117 -10 -298 -12 -670 -8 -280 3 -537 8 -570 10 -47 4 -50 4 -15 -2
63 -10 -1022 -13 -1513 -5 -225 4 -402 11 -395 15 7 5 636 9 1398 9 762 0
1416 3 1453 7 53 5 70 10 78 26 8 15 8 22 -2 28 -8 5 -647 9 -1421 9 -945 0
-1408 3 -1408 10 0 7 548 11 1668 11 917 1 1705 3 1751 5 75 3 87 6 108 28 13
14 23 30 23 36 0 7 -610 11 -1972 12 -1085 1 -2036 2 -2113 3 -77 0 -293 -3
-480 -6z"/>
<path d="M484 1401 c4 -5 -6 -8 -21 -6 -34 4 -53 -10 -53 -39 0 -12 -9 -27
-20 -33 -10 -7 -22 -28 -26 -48 -6 -31 -24 -50 -24 -25 0 6 -4 10 -10 10 -5 0
-10 -9 -10 -20 0 -11 -4 -20 -10 -20 -14 0 -12 -67 3 -77 6 -4 47 -8 90 -8 57
0 77 3 77 13 0 10 4 9 16 -3 12 -12 32 -15 78 -13 96 4 168 -1 161 -12 -3 -5
6 -3 19 4 14 7 47 11 73 9 26 -1 91 -2 143 -2 52 0 168 1 258 1 134 0 165 3
178 16 12 11 18 12 23 3 6 -8 35 -11 97 -10 84 3 90 4 116 33 18 20 24 34 18
41 -7 8 -3 11 13 11 13 -1 21 4 19 12 -1 8 -5 35 -8 60 -4 35 -3 43 5 32 6 -8
11 -22 11 -30 0 -12 21 -15 122 -17 73 -2 126 1 134 8 9 7 15 6 21 -3 9 -15
20 -16 186 -17 104 -1 117 -3 117 -18 0 -13 3 -14 8 -6 6 9 17 10 41 3 18 -5
53 -7 77 -3 29 4 49 1 59 -7 11 -9 15 -9 15 -1 0 8 5 9 19 1 11 -5 33 -10 50
-10 25 0 29 3 24 18 -3 9 -3 14 2 10 4 -4 14 -3 21 2 9 8 12 6 10 -6 -1 -20
77 -67 102 -62 10 2 16 11 14 21 -4 25 38 39 57 19 14 -13 16 -13 22 9 5 20 7
21 13 8 5 -10 24 -19 49 -23 44 -6 343 -25 482 -30 450 -18 492 -18 528 -7 20
7 37 16 37 21 0 4 9 6 21 3 12 -4 25 0 29 8 5 7 12 10 16 6 8 -8 -27 -38 -37
-31 -4 2 -12 -3 -18 -10 -14 -17 8 -27 61 -26 34 0 123 -7 123 -11 0 -1 97 -3
215 -6 497 -8 696 -9 711 -2 9 5 20 5 24 1 10 -10 286 -11 313 -1 16 6 30 4
47 -7 13 -9 29 -13 35 -9 6 3 104 7 219 8 162 2 212 5 225 16 9 8 15 20 12 27
-3 7 -1 16 4 19 6 4 10 14 10 24 0 20 29 83 41 91 5 3 10 21 11 40 3 33 2 34
-42 43 -24 5 -46 5 -47 1 -2 -5 -109 -8 -240 -6 -153 2 -240 -1 -247 -8 -14
-14 -26 -13 -26 3 0 18 -110 10 -117 -9 -7 -18 -23 -18 -23 0 0 17 -75 28
-145 20 -34 -4 -55 -3 -59 5 -4 6 -16 11 -27 11 -11 0 -18 -3 -15 -8 2 -4 -13
-6 -33 -4 -53 5 -253 -16 -265 -28 -6 -6 -20 -10 -31 -10 -23 0 -55 -28 -55
-48 0 -6 -10 -18 -22 -27 -16 -12 -19 -19 -10 -22 6 -3 12 -11 12 -18 0 -10
-22 -14 -81 -17 -44 -2 -83 -1 -86 2 -2 3 -39 6 -81 6 -43 1 -110 5 -149 9
l-73 8 0 -26 c0 -14 -5 -29 -10 -32 -7 -4 -8 3 -4 20 6 24 4 26 -14 21 -15 -5
-24 -1 -32 14 -11 20 -54 28 -64 12 -3 -5 -29 -5 -58 -1 -29 4 -94 8 -145 8
-55 1 -95 5 -99 12 -4 8 -54 10 -153 8 -80 -1 -166 0 -191 4 -25 4 -160 11
-301 17 -206 7 -264 13 -292 26 -33 16 -37 16 -52 1 -12 -12 -21 -14 -34 -7
-10 5 -100 10 -200 12 -99 1 -181 6 -181 11 0 11 -83 6 -92 -7 -3 -5 -13 -2
-23 7 -9 10 -22 17 -30 17 -7 0 -20 3 -29 6 -12 4 -16 0 -16 -15 0 -26 -16
-27 -31 -3 -10 16 -19 17 -66 10 -39 -6 -59 -5 -69 3 -9 8 -35 9 -79 4 -46 -5
-70 -3 -81 6 -9 8 -34 10 -74 6 -33 -3 -60 -2 -60 3 0 4 -19 4 -42 -1 -24 -4
-72 -5 -108 -2 -36 4 -69 6 -75 4 -5 -2 -40 -3 -77 -2 -59 2 -68 0 -68 -16 -1
-17 -1 -17 -11 0 -7 12 -23 17 -58 17 -44 0 -48 -2 -64 -35 -9 -19 -20 -35
-25 -35 -17 0 -21 12 -9 31 15 24 6 31 -54 39 -44 6 -52 4 -66 -14 -10 -13
-13 -15 -10 -5 3 9 0 16 -6 16 -7 0 -21 1 -32 3 -15 2 -13 4 10 10 22 6 9 8
-49 9 -57 1 -84 -3 -96 -14 -9 -8 -31 -15 -50 -17 -19 -1 -38 -7 -42 -13 -5
-6 -8 -4 -8 5 0 12 -16 16 -68 18 -37 2 -71 7 -76 13 -13 12 -69 12 -62 0z"/>
<path d="M6610 1403 c-62 -25 -43 -123 24 -123 34 1 116 35 97 41 -6 2 190 3
434 3 245 -1 449 -5 453 -8 3 -4 0 -11 -8 -17 -11 -7 -6 -8 15 -3 17 4 32 11
33 16 4 10 532 11 549 0 14 -9 12 -34 -4 -54 -6 -7 -17 -32 -25 -56 -7 -23
-16 -42 -20 -42 -4 0 -5 -7 -1 -16 5 -15 61 -16 627 -10 342 3 637 8 656 12
37 6 40 9 78 88 47 95 -48 86 883 86 771 0 823 1 835 18 17 22 18 52 2 52 -7
1 -697 0 -1533 -2 -1261 -2 -2469 -2 -2825 0 -41 0 -82 0 -90 0 -56 -2 -150 6
-150 13 0 10 -8 10 -30 2z"/>
<path d="M11940 1380 l-105 -5 -10 -50 c-7 -32 -16 -50 -26 -50 -9 0 -15 -13
-17 -37 -2 -21 -7 -38 -13 -38 -5 0 -9 -9 -9 -20 0 -49 86 -51 1850 -49 1309
2 2202 1 2867 -4 169 -2 214 1 218 11 8 21 6 29 -11 46 -17 18 -10 18 -2261
17 -829 0 -1283 3 -1283 9 0 6 195 10 538 11 1103 1 2376 10 2387 17 7 4 14
17 18 30 l5 23 -379 -3 c-286 -2 -379 0 -379 9 0 9 173 12 710 15 l710 3 27
28 c24 23 26 29 13 37 -16 10 -4655 11 -4850 0z m3333 -65 c26 -4 47 -10 47
-14 0 -3 -228 -6 -507 -5 l-508 0 465 -6 465 -5 -542 -3 c-357 -1 -543 1 -543
8 0 6 -35 10 -85 10 -48 0 -85 -4 -85 -10 0 -6 -134 -8 -367 -6 -349 4 -481
12 -425 25 35 9 2030 14 2085 6z"/>
<path d="M19189 843 c-1 -197 -2 -461 -3 -588 l-1 -230 -207 -5 c-113 -3 -210
-8 -214 -12 -4 -5 92 -8 214 -8 l222 0 0 600 c0 330 -2 600 -5 600 -3 0 -6
-161 -6 -357z"/>
<path d="M4647 851 c6 -22 -16 -39 -27 -21 -5 8 -9 7 -13 -4 -9 -22 -37 -20
-37 2 0 10 -3 13 -8 6 -11 -17 -61 -26 -137 -25 -50 1 -66 -2 -55 -9 12 -7 8
-10 -17 -10 -27 0 -32 -4 -38 -31 -4 -17 -16 -40 -26 -50 -10 -10 -19 -28 -19
-39 0 -13 -5 -18 -15 -14 -8 4 -15 1 -15 -4 0 -6 -9 -14 -20 -17 -11 -3 -20
-13 -20 -21 0 -8 -5 -14 -11 -14 -6 0 -8 7 -5 16 7 18 -11 47 -24 39 -5 -3
-20 -1 -35 5 -20 8 -27 7 -31 -5 -5 -12 -8 -12 -20 -1 -9 10 -39 13 -101 12
-67 -1 -92 3 -103 14 -12 13 -35 15 -130 10 -112 -5 -209 5 -221 23 -4 5 -48
6 -100 2 -148 -11 -180 -12 -184 -4 -8 12 -165 8 -165 -4 0 -8 -3 -7 -9 1 -5
9 -47 17 -122 24 -154 13 -147 12 -162 30 -8 12 -33 17 -84 20 -68 3 -87 -2
-63 -17 24 -15 6 -22 -42 -19 -29 2 -91 5 -138 7 -47 2 -103 7 -125 11 -22 3
-139 11 -260 17 -291 14 -304 15 -333 31 -20 10 -26 10 -29 1 -6 -17 -30 -17
-36 0 -4 9 -6 9 -6 -1 -1 -10 -6 -10 -23 -1 -18 9 -24 8 -34 -6 -7 -10 -18
-14 -25 -9 -7 4 -41 6 -75 5 -54 -2 -65 1 -76 18 -9 15 -16 17 -25 9 -8 -6
-64 -10 -142 -9 -81 1 -132 -2 -136 -9 -4 -7 -12 -7 -25 0 -29 16 -286 9 -283
-7 4 -18 -8 -16 -22 3 -9 13 -33 17 -121 18 -61 2 -115 6 -121 9 -7 4 -14 3
-18 -3 -4 -6 -82 -10 -209 -10 l-203 0 -23 -49 c-13 -28 -29 -52 -36 -55 -8
-3 -14 -16 -14 -28 0 -13 -11 -40 -25 -60 -33 -48 -34 -82 -2 -75 44 11 232 9
230 -2 -2 -6 6 -11 17 -11 11 0 17 5 15 12 -4 10 50 13 255 11 161 -1 260 1
260 7 0 13 11 12 30 0 13 -9 13 -11 0 -21 -12 -9 -12 -10 4 -5 31 11 193 26
351 34 l150 7 27 55 c15 30 27 61 28 69 0 11 13 12 62 7 33 -4 101 -7 151 -7
71 0 88 -2 84 -13 -8 -20 3 -27 25 -15 32 17 181 30 229 19 92 -20 104 -24
115 -38 9 -12 23 -13 80 -6 l69 9 -65 6 c-36 3 18 4 120 2 102 -3 200 -9 217
-13 19 -5 35 -4 39 1 7 12 41 12 46 -1 2 -6 119 -14 288 -20 391 -13 404 -14
410 -22 3 -3 73 -9 155 -12 83 -3 229 -8 325 -12 96 -3 177 -10 178 -15 9 -23
102 0 102 26 0 8 6 15 14 15 8 0 21 3 30 6 11 4 16 1 16 -10 0 -9 -8 -16 -20
-16 -12 0 -20 -7 -20 -17 0 -16 12 -18 128 -17 70 0 137 4 150 8 14 5 29 3 37
-4 14 -12 96 -9 161 5 28 6 31 4 41 -27 8 -25 11 -28 12 -11 2 33 19 37 23 6
l4 -28 11 27 c7 14 21 29 33 33 38 12 95 14 101 3 8 -13 159 -18 159 -5 0 5 6
7 13 5 6 -3 12 -11 12 -19 0 -39 52 -49 93 -17 20 14 47 18 158 19 184 2 194
3 194 14 0 5 5 4 12 -3 7 -7 31 -12 55 -12 24 0 43 -4 43 -10 0 -5 5 -10 10
-10 6 0 10 7 10 16 0 11 6 13 19 9 14 -4 22 2 32 25 10 21 19 28 31 24 14 -4
18 0 18 21 0 25 1 25 17 9 12 -12 18 -13 21 -4 3 7 0 15 -5 19 -11 7 -11 40 0
58 4 6 4 18 1 27 -4 10 -1 16 8 16 8 0 24 11 36 24 l21 25 -42 6 c-23 3 -77 4
-119 1 -43 -2 -78 0 -78 5 0 4 -6 6 -12 4 -7 -2 -42 -6 -77 -8 -45 -3 -68 -9
-76 -21 -16 -21 -27 -21 -23 2 2 13 -5 17 -33 18 -20 1 -42 5 -49 9 -24 15
-114 14 -147 -2 -24 -11 -46 -13 -85 -8 -59 9 -111 8 -139 0 -12 -4 -27 2 -42
18 -18 20 -26 23 -41 15 -13 -8 -15 -12 -6 -18 7 -5 -1 -10 -23 -14 -19 -4
-38 -14 -41 -23 -5 -12 -9 -14 -18 -5 -9 9 -9 15 0 24 14 14 16 44 3 52 -5 4
-7 -2 -4 -13z"/>
<path d="M12755 853 c-17 -17 -52 -19 -454 -25 -240 -4 -502 -13 -582 -19
l-146 -12 -21 -43 c-16 -32 -25 -41 -40 -37 -15 3 -22 -5 -35 -39 -41 -105
-47 -103 403 -115 375 -10 4273 -9 4424 1 73 4 119 22 89 33 -7 3 -13 9 -13
14 0 6 5 7 10 4 6 -4 10 10 10 34 0 34 -3 41 -20 41 -18 0 -25 -16 -22 -50 0
-3 -278 -7 -619 -8 -385 -1 -619 2 -619 8 0 5 127 10 320 12 274 3 322 5 335
19 14 14 14 17 -4 33 -17 16 -51 17 -422 15 -524 -2 -628 0 -662 13 -20 8 -31
7 -41 -2 -15 -12 -93 -12 -1276 -7 -431 2 -495 4 -498 17 -2 13 116 15 1025
13 566 -1 1281 -3 1590 -5 389 -3 566 -1 573 6 7 7 13 7 18 1 4 -6 82 -11 183
-13 l176 -4 31 33 c17 19 28 37 23 42 -12 12 -235 22 -258 12 -10 -5 -21 -7
-26 -7 -4 1 -694 2 -1535 2 -1466 0 -1826 6 -1842 31 -12 19 -57 20 -75 2z
m2240 -204 l90 -2 -110 -8 c-101 -7 -387 -13 -445 -9 -40 3 -524 8 -1055 12
l-490 3 530 5 c462 4 1207 4 1480 -1z"/>
<path d="M6405 825 c28 -13 25 -14 -37 -8 -77 7 -85 -1 -74 -62 6 -31 10 -35
39 -35 l32 1 -25 15 c-24 15 -24 15 22 10 28 -3 63 0 86 8 25 9 44 11 53 5 8
-6 76 -8 154 -6 77 3 123 2 103 0 -21 -2 -38 -9 -38 -15 0 -13 112 0 121 14 4
6 8 5 11 -3 3 -8 11 -10 24 -5 10 4 80 7 155 6 115 -1 137 2 142 15 7 16 42
21 51 6 8 -12 66 -20 72 -9 8 13 52 9 61 -5 13 -23 54 -27 83 -10 24 14 43 14
156 4 133 -12 191 -13 282 -6 28 2 52 1 52 -3 0 -4 -14 -23 -31 -42 -24 -27
-30 -41 -26 -65 3 -16 -2 -42 -9 -57 l-14 -27 48 4 c26 1 174 4 330 5 155 1
285 6 288 11 3 5 13 5 23 -1 10 -5 94 -9 186 -9 124 0 170 -3 176 -12 6 -10
11 -10 23 0 9 7 14 16 12 20 -2 3 44 5 102 3 80 -3 116 0 142 12 19 8 27 15
18 16 -10 0 -18 1 -18 3 0 7 43 92 49 97 3 3 15 23 25 45 17 35 20 37 24 18 3
-21 8 -23 77 -23 41 0 86 5 100 12 19 8 31 8 51 -1 16 -7 98 -13 204 -16 98
-2 182 -5 187 -6 4 -1 32 1 61 6 38 5 50 11 40 17 -8 6 11 7 52 2 74 -9 404
-8 689 1 140 5 198 10 207 20 11 11 9 16 -11 29 -23 15 -107 16 -912 12 -489
-2 -898 -7 -910 -11 -16 -5 -23 -2 -28 14 -5 18 -14 21 -53 20 -31 -1 -37 -3
-19 -6 23 -4 26 -7 16 -19 -6 -7 -16 -10 -23 -6 -12 8 -4 8 -376 11 -159 1
-257 6 -245 11 18 8 18 9 2 9 -10 1 -27 -3 -37 -9 -28 -15 -889 -17 -917 -1
-17 8 -42 9 -95 2 -64 -9 -579 -13 -770 -7 -38 1 -73 -1 -79 -5 -6 -3 -23 0
-38 7 -14 8 -37 14 -51 13 -24 -1 -24 -1 5 -14z"/>
<path d="M15679 255 c-4 -3 -937 -6 -2075 -6 -2232 -1 -2354 -3 -2354 -48 0
-20 -50 -124 -62 -129 -4 -2 -8 -19 -8 -38 l0 -34 2444 0 c2163 0 2445 2 2450
15 3 8 0 15 -6 15 -7 0 -7 4 1 14 7 8 8 17 3 20 -5 3 -722 4 -1593 2 -871 -2
-1665 -1 -1764 3 -197 8 3 10 1775 14 774 2 940 4 962 16 31 16 45 41 23 41
-8 0 -15 5 -15 10 0 6 -11 10 -24 10 -13 0 -26 6 -29 13 -3 9 46 11 237 7 132
-3 305 -4 384 -2 l142 5 0 27 c0 16 -6 30 -12 33 -7 2 -99 4 -203 4 -105 0
-209 4 -231 7 -22 4 -42 4 -45 1z m-311 -80 c17 -3 32 -10 32 -15 0 -17 -129
-22 -236 -10 -75 9 -170 10 -308 5 -251 -9 -2260 -10 -2275 -1 -6 4 -11 11
-11 17 0 14 2711 18 2798 4z"/>
<path d="M0 126 l0 -126 563 0 c398 1 557 4 544 11 -11 6 -30 9 -43 6 -30 -5
-30 -2 2 36 18 21 25 39 22 58 -4 24 0 29 21 33 44 9 95 9 114 1 10 -4 38 -5
63 -2 39 4 43 3 32 -11 -11 -13 -10 -14 12 -6 29 10 132 8 315 -6 72 -5 222
-12 334 -15 128 -4 210 -10 218 -17 10 -8 17 -8 24 -1 8 8 19 7 37 -3 14 -7
40 -11 58 -8 25 4 33 1 37 -13 4 -17 5 -17 6 -1 1 15 10 17 59 15 31 -2 67 -9
80 -15 16 -10 22 -10 22 -1 0 17 160 5 171 -13 5 -7 9 -9 9 -4 0 5 7 2 17 -5
13 -11 17 -11 20 -1 6 16 213 17 262 0 47 -16 48 -17 31 -28 -11 -7 -1 -9 30
-8 25 0 35 3 23 5 -13 2 -23 8 -23 13 0 12 83 24 108 16 10 -4 53 -7 93 -7 48
-1 67 -4 54 -9 -11 -5 -33 -7 -50 -4 -16 2 -46 0 -65 -5 -28 -7 -16 -9 63 -10
78 -1 97 2 97 13 0 11 11 15 40 13 39 -1 52 -11 28 -20 -7 -3 -1 -6 15 -6 15
-1 27 4 27 9 0 6 9 10 21 10 12 0 17 -4 13 -11 -8 -13 35 -3 51 12 5 5 15 9
23 9 12 0 12 -3 2 -15 -11 -14 0 -15 98 -14 61 0 110 5 109 9 -1 4 3 8 8 8 6
0 9 -4 7 -10 -3 -12 98 -7 115 5 9 6 13 5 13 -2 0 -17 437 -15 443 1 4 10 6
10 6 1 1 -10 157 -13 733 -13 402 0 729 2 727 4 -3 3 -353 13 -546 16 -13 0
-17 30 -7 65 3 11 20 30 38 41 30 20 68 96 54 110 -9 9 -250 10 -283 1 -21 -5
-26 -5 -15 3 11 7 3 10 -32 10 -27 0 -48 -4 -48 -8 0 -4 -32 -6 -71 -4 -53 3
-74 1 -80 -9 -7 -11 -9 -10 -9 4 0 23 -25 22 -50 -3 -17 -17 -56 -19 -46 -1 7
12 -210 18 -415 11 -47 -1 -94 0 -106 4 -11 4 -31 2 -44 -3 -13 -5 -18 -10
-11 -10 6 -1 12 -5 12 -9 0 -13 -61 -8 -87 6 -12 7 -27 12 -34 12 -16 0 -38
-31 -39 -53 0 -10 -11 -29 -24 -42 -14 -13 -27 -33 -30 -43 -5 -14 -19 -21
-53 -25 -29 -3 -52 -12 -61 -23 -14 -18 -14 -18 -9 3 7 30 -3 35 -79 36 -44 1
-68 -3 -73 -12 -6 -8 -11 -9 -15 -3 -3 6 -2 13 4 17 5 3 10 9 10 13 0 4 -124
8 -276 9 -152 2 -293 7 -312 13 -20 5 -108 13 -197 16 -121 5 -164 10 -177 22
-14 11 -21 12 -32 3 -12 -10 -51 -13 -190 -11 -21 0 -52 8 -69 16 -25 14 -36
14 -68 4 -29 -10 -55 -10 -116 -2 -89 13 -261 24 -345 23 -46 0 -58 3 -63 17
-4 15 -16 19 -58 19 -28 0 -38 -1 -22 -4 17 -2 34 -9 39 -14 13 -12 -17 -12
-180 1 -245 19 -321 21 -971 26 l-653 6 0 -126z"/>
<path d="M6065 240 c-11 -4 -30 -6 -42 -3 -20 4 -23 1 -23 -25 0 -17 6 -32 15
-36 8 -3 15 -1 15 5 0 6 5 7 11 4 6 -4 8 -13 5 -21 -3 -8 -1 -14 4 -14 6 0 10
10 10 23 1 20 2 20 13 5 8 -10 22 -14 38 -11 16 3 32 -1 42 -11 19 -19 27 -20
27 -3 0 7 7 22 15 33 13 16 16 17 25 4 5 -8 10 -11 10 -6 0 5 7 3 15 -4 15
-12 39 -5 30 10 -3 5 0 12 6 15 6 4 13 -2 16 -15 5 -20 11 -21 107 -19 55 1
109 7 119 13 12 7 20 8 25 1 12 -17 52 -18 52 -1 0 9 5 16 11 16 6 0 9 -9 6
-20 -3 -13 0 -20 9 -20 8 0 14 9 14 20 0 21 16 28 22 9 5 -16 169 -17 175 -1
3 6 10 12 15 12 7 0 6 -5 -1 -14 -9 -10 -8 -15 3 -19 9 -4 18 -2 22 4 3 5 15
7 25 4 11 -4 26 -1 34 5 8 7 20 8 27 4 13 -9 126 -6 140 3 5 2 14 1 21 -4 27
-17 47 -13 47 10 1 19 2 20 11 5 10 -18 11 -18 207 -9 6 1 12 8 12 16 0 8 4
15 9 15 5 0 7 -9 4 -20 -4 -16 0 -20 19 -20 13 0 30 6 36 12 9 9 15 10 20 2 4
-7 35 -11 74 -10 36 0 69 -2 73 -6 7 -7 -18 -50 -52 -88 -14 -15 -23 -38 -23
-57 l0 -33 393 0 c292 0 396 3 405 12 9 9 12 9 12 0 0 -8 68 -11 260 -10 l260
0 0 54 c0 50 2 54 23 54 16 0 26 9 34 31 l12 30 90 -3 c50 -2 91 0 91 4 0 12
100 20 114 9 8 -7 46 -9 102 -7 49 3 350 5 669 5 l580 1 29 25 c16 14 34 25
40 26 6 0 -2 5 -19 10 -40 12 -3124 10 -3147 -2 -10 -6 -19 -5 -23 1 -8 14
-122 13 -127 -1 -2 -7 -12 -7 -32 2 -22 10 -31 10 -48 0 -15 -9 -23 -10 -31
-2 -7 7 -80 11 -209 11 -177 0 -198 -2 -208 -17 -9 -17 -11 -17 -21 0 -8 14
-21 18 -52 16 -23 -1 -50 -6 -59 -11 -12 -6 -18 -5 -18 2 0 11 -344 5 -382 -6
-10 -3 -18 -1 -18 5 0 13 -185 14 -215 1z"/>
</g>
</svg>
