<?xml version="1.0" standalone="no"?>
<!DOCTYPE svg PUBLIC "-//W3C//DTD SVG 20010904//EN"
 "http://www.w3.org/TR/2001/REC-SVG-20010904/DTD/svg10.dtd">
<svg version="1.0" xmlns="http://www.w3.org/2000/svg"
 width="1920.000000pt" height="1080.000000pt" viewBox="0 0 1920.000000 1080.000000"
 preserveAspectRatio="xMidYMid meet">
<metadata>
Created by potrace 1.16, written by Peter Selinger 2001-2019
</metadata>
<g transform="translate(0.000000,1080.000000) scale(0.100000,-0.100000)"
fill="#000000" stroke="none">
<path d="M2 10178 l3 -623 2 617 3 618 7357 0 c4046 0 7359 2 7361 5 3 3
-3310 5 -7361 5 l-7367 0 2 -622z"/>
<path d="M17495 10793 c561 -7 1705 -7 1705 0 0 4 -433 6 -962 5 -530 -2 -864
-4 -743 -5z"/>
<path d="M18738 8432 c-9 -2 -19 -11 -22 -20 -3 -9 -19 -42 -35 -72 -16 -30
-28 -57 -26 -59 2 -1 125 -4 274 -5 l271 -1 0 77 0 77 -223 3 c-123 2 -231 2
-239 0z"/>
<path d="M18697 7133 c-7 -16 -23 -45 -35 -66 -41 -70 -53 -67 252 -67 l275 0
4 -27 c2 -16 5 20 6 80 l1 107 -244 0 -245 0 -14 -27z"/>
<path d="M16625 6883 c-36 -5 -64 -38 -65 -75 l0 -28 651 -2 651 -3 17 25 c27
38 33 61 20 76 -10 12 -116 14 -628 13 -339 -1 -629 -4 -646 -6z"/>
<path d="M2 3248 l-2 -3248 53 2 c50 1 50 2 10 5 -24 2 -44 5 -45 6 -2 1 -5
1460 -8 3242 l-5 3240 -3 -3247z"/>
<path d="M4607 5821 c-43 -6 -74 -19 -115 -47 -59 -41 -68 -55 -203 -312 -67
-127 -65 -195 6 -229 32 -16 475 -16 504 -1 28 15 85 114 77 134 -4 11 -43 14
-216 14 -115 0 -210 2 -210 5 0 2 16 34 35 70 19 36 50 94 69 129 19 35 32 67
29 70 -4 3 91 6 210 6 206 0 267 7 267 32 0 4 10 9 23 9 15 1 17 3 6 6 -15 4
-14 9 6 51 13 26 20 50 17 54 -10 11 -439 18 -505 9z"/>
<path d="M5235 5803 c-94 -38 -109 -59 -273 -373 -46 -89 -47 -142 -4 -182
l32 -28 272 0 c260 0 273 1 315 22 62 31 90 66 169 214 129 238 128 236 120
277 -15 79 -47 87 -351 86 -197 0 -247 -3 -280 -16z m402 -185 c-35 -60 -76
-135 -103 -190 -15 -29 -31 -48 -42 -49 -55 -2 -347 3 -350 6 -5 5 118 234
129 241 6 4 6 11 -2 20 -10 12 18 14 191 14 l202 0 -25 -42z"/>
<path d="M6001 5789 c-25 -18 -52 -56 -85 -120 -175 -338 -168 -322 -163 -363
3 -21 15 -48 27 -60 20 -20 32 -21 280 -24 258 -3 259 -3 307 22 68 34 93 65
164 201 68 132 122 234 163 309 15 27 25 50 24 52 -9 9 -146 6 -163 -3 -35
-19 -61 -55 -113 -153 -123 -233 -141 -264 -156 -270 -18 -6 -316 -5 -317 1
-1 6 25 63 32 69 3 3 8 12 12 20 4 8 43 84 87 169 44 85 79 159 77 164 -2 6
-34 11 -72 11 -59 1 -74 -3 -104 -25z"/>
<path d="M6805 5813 c-6 -5 -33 -51 -60 -103 -93 -182 -132 -256 -188 -356
-32 -55 -57 -108 -57 -117 0 -12 14 -16 66 -19 105 -5 126 13 213 182 78 152
95 177 101 155 3 -11 14 -38 24 -60 10 -22 37 -85 60 -140 61 -148 51 -138
145 -143 98 -5 104 -1 154 97 19 36 53 102 77 146 24 44 61 115 83 158 29 57
43 75 49 65 7 -9 8 -8 4 5 -3 10 6 41 20 69 14 27 24 52 22 54 -3 2 -37 4 -76
5 -62 1 -76 -2 -104 -23 -18 -14 -44 -46 -58 -72 -14 -26 -32 -60 -40 -75 -8
-15 -35 -64 -59 -109 -25 -45 -48 -79 -52 -75 -5 5 -39 82 -78 172 -48 114
-76 168 -91 176 -25 14 -140 19 -155 8z"/>
<path d="M7541 5745 c-46 -89 -42 -95 70 -95 l91 0 -25 -42 c-13 -24 -50 -92
-82 -153 -31 -60 -62 -113 -69 -117 -6 -4 -8 -8 -4 -8 4 0 -4 -21 -18 -46 -14
-25 -23 -52 -20 -60 7 -19 102 -19 147 0 45 19 60 37 107 126 22 41 63 120 91
175 29 55 57 106 63 113 7 8 39 12 95 12 59 0 91 5 108 16 28 18 88 120 80
134 -4 6 -125 10 -304 10 l-297 0 -33 -65z"/>
<path d="M8249 5787 c-33 -22 -47 -44 -161 -257 -138 -258 -145 -277 -106
-304 19 -14 64 -16 293 -16 198 1 274 4 286 13 22 17 72 114 66 130 -3 9 -56
12 -214 12 -191 0 -209 2 -205 17 2 9 13 26 23 37 19 20 30 21 193 21 127 0
176 3 184 13 19 23 52 88 52 101 0 18 -178 31 -280 21 l-72 -7 17 31 c9 17 13
36 10 41 -4 6 76 10 219 10 220 0 226 0 246 22 26 29 70 106 70 124 0 12 -51
14 -294 14 -289 0 -294 0 -327 -23z"/>
<path d="M8949 5797 c-9 -7 -49 -75 -89 -152 -40 -77 -85 -162 -100 -190 -94
-174 -120 -225 -120 -234 0 -7 27 -11 73 -11 86 0 130 22 153 75 7 19 23 39
33 45 11 5 76 10 146 10 l126 0 30 -65 c19 -40 37 -65 47 -66 83 -6 165 -3
173 7 6 7 0 31 -16 68 l-25 57 23 8 c34 13 49 35 127 184 64 122 72 144 67
179 -7 49 -29 75 -76 88 -54 15 -552 13 -572 -3z m441 -158 c0 -9 -59 -120
-70 -132 -6 -7 -340 -16 -340 -9 0 2 16 33 35 68 20 36 33 69 30 74 -4 6 59 9
169 8 97 -1 176 -5 176 -9z"/>
<path d="M10245 5788 c-33 -12 -93 -53 -112 -78 -6 -8 -28 -47 -49 -87 -42
-82 -41 -127 1 -169 24 -23 28 -24 198 -24 95 0 176 -3 179 -6 3 -3 -1 -18 -9
-35 l-14 -29 -239 0 c-235 0 -240 0 -260 -22 -12 -13 -27 -34 -34 -48 -7 -14
-19 -35 -27 -48 -12 -20 -12 -24 1 -32 9 -6 130 -10 281 -10 300 0 329 5 398
68 56 51 113 156 113 210 1 34 -5 49 -27 72 l-29 30 -183 0 -183 0 16 26 c15
22 15 27 3 35 -9 5 83 9 240 8 249 0 254 0 277 22 29 28 68 105 59 119 -8 14
-560 12 -600 -2z"/>
<path d="M10876 5735 c-20 -36 -36 -70 -36 -75 0 -12 11 -13 107 -10 40 1 77
-1 82 -5 6 -3 -2 -25 -19 -54 -17 -27 -30 -51 -30 -53 0 -3 -21 -43 -46 -89
-83 -149 -124 -229 -124 -239 0 -17 138 -12 169 6 39 23 71 76 208 344 l43 84
96 3 c110 2 127 12 166 91 19 37 20 45 8 52 -8 6 -144 10 -302 10 l-286 0 -36
-65z"/>
<path d="M11574 5793 c-7 -4 -34 -51 -62 -103 -27 -52 -68 -129 -91 -170 -23
-41 -61 -111 -84 -154 -23 -43 -50 -93 -59 -110 -29 -52 -25 -56 55 -56 90 0
133 26 173 103 l15 27 136 -2 136 -2 22 -47 c36 -78 37 -79 136 -79 48 0 90 4
93 9 3 5 -5 34 -18 64 l-25 55 37 23 c29 19 51 54 116 180 l81 157 -17 35
c-34 71 -39 72 -353 75 -154 1 -285 -1 -291 -5z m404 -228 c-26 -50 -46 -77
-61 -80 -12 -3 -88 -4 -170 -3 l-147 3 30 55 c16 30 29 65 30 78 0 22 0 22
179 22 l178 0 -39 -75z"/>
<path d="M12403 5792 c-7 -4 -31 -43 -53 -86 -22 -42 -54 -102 -71 -132 -17
-31 -51 -97 -77 -147 -25 -51 -61 -118 -79 -150 -19 -31 -32 -61 -29 -66 12
-18 112 -23 152 -6 44 17 47 21 117 155 28 52 69 129 91 170 23 41 57 107 76
145 19 39 39 73 44 76 17 13 -3 39 -31 39 -15 0 -50 3 -78 6 -27 3 -56 1 -62
-4z"/>
<path d="M13245 5790 l-130 -5 -173 -112 c-95 -62 -174 -113 -176 -113 -2 0
21 47 50 104 30 58 54 110 54 116 0 7 -29 10 -91 8 l-91 -3 -35 -65 c-20 -36
-58 -108 -85 -160 -67 -127 -113 -212 -155 -288 -20 -35 -34 -65 -32 -66 2 -2
43 -7 91 -11 98 -8 85 -16 146 95 l30 55 85 3 c96 3 91 7 148 -95 l29 -53 95
0 c52 0 97 4 100 10 6 9 -10 39 -107 198 -21 35 -38 67 -38 71 0 5 45 37 100
72 267 169 330 212 330 224 0 20 -3 20 -145 15z"/>
<path d="M13476 5789 c-34 -10 -77 -40 -87 -63 -5 -12 -24 -48 -42 -81 -18
-33 -68 -127 -112 -210 -43 -82 -81 -154 -85 -160 -10 -13 -5 -42 10 -60 10
-13 61 -15 300 -15 l288 0 18 28 c35 52 57 103 48 112 -5 5 -102 10 -216 12
-113 2 -205 5 -204 8 1 3 8 16 14 30 l13 25 161 -3 c102 -2 171 1 188 8 24 10
80 94 80 120 0 6 -65 10 -176 10 -164 0 -176 1 -168 18 4 9 8 29 8 45 l1 27
228 0 228 0 24 26 c30 33 67 106 57 115 -9 9 -545 16 -576 8z"/>
<path d="M14472 5733 c-22 -38 -37 -71 -34 -75 4 -4 114 -10 244 -14 l237 -7
-12 -23 c-12 -22 -16 -23 -220 -28 -291 -8 -306 -16 -421 -239 -36 -71 -64
-133 -61 -138 4 -5 146 -9 340 -9 l333 0 26 46 c32 57 32 65 3 92 -22 20 -34
22 -229 24 l-207 3 15 30 14 30 213 -3 c218 -3 271 3 301 37 8 9 36 58 62 110
49 96 56 139 33 182 -23 45 -53 49 -332 49 l-265 0 -40 -67z"/>
<path d="M19188 1808 l-3 -1793 -5515 -5 -5515 -5 5523 -3 5522 -2 0 1800 c0
990 -2 1800 -5 1800 -3 0 -6 -807 -7 -1792z"/>
<path d="M2247 3 c1069 -2 2817 -2 3885 0 1069 1 195 2 -1942 2 -2137 0 -3011
-1 -1943 -2z"/>
</g>
</svg>
