<?xml version="1.0" standalone="no"?>
<!DOCTYPE svg PUBLIC "-//W3C//DTD SVG 20010904//EN"
 "http://www.w3.org/TR/2001/REC-SVG-20010904/DTD/svg10.dtd">
<svg version="1.0" xmlns="http://www.w3.org/2000/svg"
 width="1920.000000pt" height="1080.000000pt" viewBox="0 0 1920.000000 1080.000000"
 preserveAspectRatio="xMidYMid meet">
<metadata>
Created by potrace 1.16, written by Peter Selinger 2001-2019
</metadata>
<g transform="translate(0.000000,1080.000000) scale(0.100000,-0.100000)"
fill="#000000" stroke="none">
<path d="M0 5400 l0 -5400 9600 0 9600 0 -2 5383 c-1 2960 -4 5337 -5 5282 -2
-55 -4 -2473 -6 -5374 l-2 -5274 -9465 -4 c-5206 -3 -9520 -2 -9587 2 l-123 7
0 2540 1 2539 22 -3 c14 -2 23 3 25 15 2 11 -3 17 -16 17 -18 0 -19 10 -24
148 -2 81 -5 1351 -6 2823 -2 2154 0 2678 10 2681 18 7 483 8 546 1 43 -4 52
-9 52 -25 0 -11 5 -18 12 -15 7 2 12 11 10 20 -2 11 7 18 30 21 18 3 4194 4
9280 3 5087 -1 9248 1 9248 6 0 4 -4320 7 -9600 7 l-9600 0 0 -5400z"/>
<path d="M7727 7303 c-43 -4 -48 -7 -45 -26 2 -16 11 -23 31 -25 35 -4 30 -26
-6 -30 -15 -2 -27 -7 -27 -12 0 -10 134 -6 168 5 12 4 22 14 22 21 0 8 7 14
15 14 8 0 15 9 15 20 0 11 -7 20 -15 20 -8 0 -15 5 -15 10 0 10 -43 10 -143 3z"/>
<path d="M6807 6983 c-4 -3 -7 -37 -7 -75 0 -61 2 -68 20 -68 13 0 20 -7 20
-20 0 -11 6 -20 14 -20 8 0 17 -15 20 -35 4 -19 11 -35 16 -35 6 0 10 -6 10
-13 0 -7 9 -19 20 -27 11 -8 20 -22 20 -31 0 -24 45 -32 80 -14 16 8 36 15 45
15 12 0 15 15 15 86 0 63 4 89 15 100 8 9 15 29 15 45 0 19 -5 29 -15 29 -8 0
-15 8 -15 19 0 16 -12 19 -97 25 -54 4 -99 11 -101 16 -4 11 -65 14 -75 3z"/>
<path d="M7528 6857 c11 -13 10 -17 -6 -29 -10 -7 -24 -22 -30 -33 -10 -17
-11 -18 -12 -2 0 21 -28 23 -36 2 -4 -10 -20 -15 -51 -15 -25 0 -51 -6 -59
-14 -21 -22 -18 -73 6 -86 14 -8 20 -21 20 -45 0 -19 5 -35 10 -35 6 0 10 -6
10 -14 0 -8 9 -18 20 -21 20 -6 29 -45 10 -45 -5 0 -10 -9 -10 -20 0 -13 7
-20 19 -20 24 0 28 -14 23 -72 -3 -39 -8 -48 -23 -48 -10 0 -19 -7 -19 -15 0
-28 -50 -68 -83 -67 -18 0 -33 6 -35 11 -2 6 -19 11 -38 11 -22 0 -37 6 -40
15 -4 10 -20 15 -45 15 -28 0 -39 4 -39 15 0 8 -9 15 -20 15 -17 0 -20 7 -20
40 0 33 -3 40 -20 40 -13 0 -20 -7 -20 -20 0 -13 -7 -20 -20 -20 -13 0 -20 -7
-20 -20 0 -13 -7 -20 -20 -20 -11 0 -20 -7 -20 -15 0 -8 -9 -15 -20 -15 -11 0
-20 7 -20 15 0 11 -12 15 -48 15 -36 0 -54 5 -67 20 -10 11 -30 20 -45 20 -25
0 -28 4 -39 60 l-12 60 -63 0 c-56 0 -64 -2 -69 -21 -3 -12 -10 -18 -16 -15
-15 10 -24 -39 -18 -94 6 -47 5 -48 -26 -55 -80 -17 -126 -17 -142 -1 -9 9
-23 16 -31 16 -8 0 -14 10 -15 23 -1 21 -1 21 -9 -3 l-8 -25 -1 27 c-1 17 -6
26 -13 24 -7 -1 -10 -1 -5 1 13 8 7 33 -8 33 -8 0 -15 7 -15 15 0 10 -11 15
-35 15 -19 0 -35 -4 -35 -10 0 -5 -12 -10 -27 -10 -44 0 -73 -11 -73 -27 0
-10 6 -12 20 -8 17 5 20 2 20 -24 0 -29 -2 -30 -30 -24 l-30 6 0 -62 0 -61
-39 0 c-24 0 -41 5 -44 14 -3 7 -22 16 -41 20 -27 5 -36 12 -36 26 0 12 -7 20
-18 20 -16 0 -32 25 -47 78 -4 13 -18 28 -31 34 -28 13 -30 35 -8 97 17 50 12
91 -12 91 -21 0 -39 -20 -48 -53 -3 -15 -13 -27 -21 -27 -10 0 -15 -10 -15
-30 0 -20 -5 -30 -15 -30 -11 0 -15 -11 -15 -35 0 -22 6 -38 15 -41 17 -7 21
-74 5 -74 -5 0 -10 -7 -10 -15 0 -8 -6 -15 -13 -15 -7 0 -23 -9 -35 -20 -12
-11 -28 -20 -37 -20 -8 0 -15 -4 -15 -10 0 -5 -11 -10 -25 -10 -14 0 -25 5
-25 10 0 6 -9 10 -20 10 -13 0 -20 7 -20 20 0 16 -7 20 -35 20 -31 0 -35 -3
-35 -25 0 -18 -5 -25 -20 -25 -11 0 -23 7 -26 15 -4 8 -12 15 -19 15 -8 0 -20
7 -28 15 -13 13 -17 10 -31 -20 -16 -33 -20 -35 -66 -35 -38 0 -50 4 -50 15 0
9 -8 19 -17 22 -20 8 -31 16 -74 54 -30 27 -39 69 -15 69 20 0 26 12 35 70 l8
50 -68 0 -69 0 0 -40 c0 -33 3 -40 20 -40 13 0 20 -7 20 -20 0 -13 -7 -20 -20
-20 -11 0 -20 -4 -20 -10 0 -5 -7 -10 -15 -10 -8 0 -15 -4 -15 -10 0 -5 -4
-10 -10 -10 -14 0 -70 -61 -70 -76 0 -8 -5 -14 -11 -14 -6 0 -9 -7 -5 -15 3
-9 0 -15 -9 -15 -8 0 -15 -9 -15 -20 0 -11 -7 -23 -15 -26 -8 -4 -15 -12 -15
-19 0 -27 -46 -32 -93 -11 -105 46 -127 46 -127 -4 0 -22 5 -40 11 -40 6 0 9
-10 7 -22 -2 -18 -13 -25 -53 -35 -27 -7 -57 -16 -65 -20 -8 -5 -33 -10 -55
-12 -22 -2 -42 -6 -45 -11 -3 -4 -16 -11 -30 -15 -14 -4 -34 -18 -45 -30 -14
-16 -37 -25 -75 -31 -30 -4 -58 -7 -62 -6 -5 1 -8 -25 -8 -57 l0 -59 -51 -4
c-41 -2 -53 1 -60 15 -13 23 -2 40 22 34 17 -5 19 1 19 44 0 42 -3 49 -20 49
-11 0 -20 5 -20 10 0 6 -11 10 -25 10 -14 0 -25 -4 -25 -9 0 -5 -8 -11 -17
-15 -10 -3 -23 -9 -30 -12 -7 -3 -13 4 -15 18 -2 17 -12 24 -43 30 -26 6 -41
5 -43 -2 -2 -6 -10 -17 -19 -25 -22 -22 -5 -38 33 -32 25 4 32 3 27 -6 -5 -7
-9 -61 -9 -122 -1 -60 -6 -122 -13 -137 -9 -25 -8 -28 8 -28 13 0 22 -10 26
-30 4 -16 13 -30 21 -30 8 0 14 -4 14 -10 0 -5 7 -10 16 -10 30 0 43 -27 44
-86 0 -33 -1 -116 -2 -187 -2 -70 0 -127 5 -127 4 0 7 -17 8 -37 1 -37 16
-100 18 -75 1 13 31 17 31 3 0 -4 25 -11 57 -14 62 -6 73 -16 73 -64 0 -17 4
-34 9 -37 4 -3 9 -43 10 -89 2 -68 -1 -86 -14 -90 -25 -10 -18 -37 10 -37 14
0 25 5 25 10 0 6 5 10 11 10 15 0 39 26 39 43 0 9 13 18 30 22 16 4 30 13 30
21 0 19 7 18 32 -6 12 -11 28 -20 35 -20 7 0 13 -4 13 -9 0 -15 63 -23 72 -9
5 9 8 8 8 -4 0 -10 -4 -18 -10 -18 -5 0 -10 -4 -10 -10 0 -5 7 -10 15 -10 8 0
15 -4 15 -10 0 -5 11 -10 25 -10 16 0 25 -6 25 -15 0 -9 7 -18 15 -21 8 -4 15
-15 15 -25 0 -15 7 -19 35 -19 19 0 35 5 35 10 0 6 9 10 20 10 17 0 20 -7 20
-50 0 -29 -5 -50 -11 -50 -16 0 14 -27 37 -33 16 -4 16 -5 -3 -6 -47 -2 -21
-44 50 -81 26 -13 47 -28 47 -32 0 -5 14 -8 30 -8 25 0 30 -4 30 -25 0 -14 5
-25 10 -25 6 0 10 -7 10 -15 0 -11 11 -15 40 -15 33 0 40 -3 40 -20 0 -17 7
-20 40 -20 33 0 40 3 40 20 0 16 7 20 30 20 17 0 30 5 30 11 0 7 18 10 48 8
71 -4 93 0 91 14 -5 40 2 57 27 63 20 5 31 1 49 -20 12 -14 27 -26 34 -26 6 0
11 -8 11 -19 0 -10 9 -21 20 -24 11 -3 20 -12 20 -21 0 -12 16 -16 78 -19 l77
-3 -77 -2 c-44 -1 -78 -6 -78 -12 0 -5 5 -10 10 -10 6 0 10 -22 10 -50 0 -27
-4 -50 -10 -50 -5 0 -10 -9 -10 -20 0 -17 7 -20 40 -20 35 0 40 -3 41 -22 l0
-23 11 23 c6 12 15 22 20 22 4 0 8 31 8 69 l0 69 180 0 180 -1 0 -28 c0 -26 3
-29 34 -29 29 0 34 4 40 30 5 27 9 30 46 30 60 0 120 -21 120 -42 0 -10 -4
-18 -10 -18 -30 0 3 -44 45 -60 36 -14 45 -13 45 5 0 10 10 15 30 15 20 0 30
5 30 15 0 27 42 65 71 65 15 0 31 -5 34 -10 9 -15 25 -2 25 20 0 11 11 30 25
44 14 14 25 23 25 21 0 -2 16 3 36 11 21 9 63 15 103 14 36 -1 111 3 166 8
l100 9 -78 1 c-98 2 -108 11 -104 86 2 51 5 58 30 69 15 6 27 20 27 29 0 21
36 25 43 6 4 -10 8 -9 17 2 9 11 13 12 17 3 2 -7 13 -13 24 -13 23 0 24 -6 2
-28 -12 -12 -18 -13 -21 -4 -4 14 -32 17 -32 3 0 -5 7 -16 15 -25 8 -8 15 -22
15 -30 0 -13 12 -16 60 -16 l60 0 0 -60 0 -60 40 0 40 0 0 -60 c0 -53 2 -60
20 -60 13 0 20 7 20 20 0 18 7 20 60 20 l60 0 0 40 0 40 60 0 c53 0 60 -2 60
-20 0 -11 5 -20 10 -20 6 0 10 -9 10 -20 0 -11 -4 -20 -10 -20 -5 0 -10 -9
-10 -20 0 -13 7 -20 20 -20 11 0 20 -6 20 -14 0 -10 14 -16 43 -19 l42 -4 -42
-1 c-31 -1 -43 -6 -43 -17 0 -12 16 -15 80 -15 64 0 80 3 80 15 0 11 11 15 40
15 33 0 40 3 40 20 0 11 5 20 10 20 6 0 10 9 10 20 0 11 -6 20 -14 20 -20 0
-22 118 -1 126 8 4 15 17 15 30 0 17 7 25 24 30 13 3 29 16 36 30 12 22 20 24
82 24 68 0 69 0 75 30 4 21 11 30 24 30 11 0 19 4 19 9 0 16 50 -13 56 -32 3
-10 19 -20 35 -24 20 -4 29 -12 29 -24 0 -14 7 -19 29 -19 25 0 30 5 36 36 7
38 55 94 80 94 8 0 15 5 15 10 0 6 7 10 15 10 8 0 15 -9 15 -20 0 -17 7 -20
45 -20 25 0 45 5 45 10 0 6 9 10 20 10 11 0 20 -4 20 -9 0 -5 18 -12 40 -16
22 -4 40 -11 40 -17 0 -6 14 -8 35 -4 20 4 35 3 35 -2 0 -13 33 -21 64 -15 17
4 26 12 26 24 0 11 5 19 10 19 6 0 10 26 10 59 0 68 12 107 40 131 11 10 20
25 20 34 0 9 8 16 20 16 11 0 20 -6 20 -14 0 -8 16 -15 41 -19 22 -3 42 -7 43
-9 2 -1 1 -45 -2 -95 l-4 -93 -39 0 c-26 0 -39 -5 -39 -13 0 -14 -40 -37 -65
-37 -8 0 -15 -7 -15 -15 0 -8 7 -15 16 -15 18 0 44 -23 44 -39 0 -6 5 -11 10
-11 6 0 10 -18 10 -40 l0 -40 40 0 c33 0 40 -3 40 -20 0 -16 7 -20 33 -20 62
0 77 9 77 46 0 24 -5 34 -15 34 -8 0 -15 9 -15 20 0 13 7 20 20 20 16 0 20 7
20 34 0 44 -9 66 -26 66 -8 0 -14 7 -14 15 0 8 -9 15 -20 15 -11 0 -20 7 -20
15 0 8 9 15 20 15 13 0 20 7 20 20 0 11 5 20 10 20 6 0 10 9 10 20 0 11 -4 20
-9 20 -5 0 -11 20 -13 45 -2 31 1 45 9 45 7 0 17 9 23 20 9 16 21 20 63 20 29
-1 71 -5 95 -9 33 -7 42 -5 42 6 0 11 3 11 13 2 7 -7 11 -25 9 -41 -3 -16 0
-28 7 -28 6 0 12 12 12 28 1 16 3 20 6 10 3 -13 15 -18 44 -18 32 0 39 -3 39
-20 0 -13 7 -20 20 -20 13 0 20 -7 20 -20 0 -11 5 -20 10 -20 6 0 10 -17 10
-39 l0 -39 108 -4 c59 -2 109 -1 112 2 3 4 17 10 33 14 15 3 36 14 47 24 54
49 74 55 83 22 4 -15 14 -20 41 -20 29 0 36 4 36 20 0 13 7 20 20 20 13 0 20
7 20 20 0 17 -7 20 -40 20 -33 0 -40 3 -40 20 0 16 -7 20 -34 20 -31 0 -34 3
-40 35 -5 26 -13 36 -31 41 -32 8 -75 59 -75 89 0 35 10 55 29 55 36 0 91 -22
91 -35 0 -8 6 -15 13 -15 8 0 7 -4 -3 -10 -10 -6 -11 -10 -2 -10 6 0 12 -7 12
-15 0 -8 9 -15 20 -15 13 0 20 -7 20 -20 0 -13 7 -20 20 -20 13 0 20 7 20 20
0 13 7 20 20 20 13 0 20 -7 20 -20 0 -18 7 -20 80 -20 73 0 80 -2 80 -20 0
-13 7 -20 20 -20 18 0 20 -7 20 -60 l0 -60 36 0 c27 0 37 5 41 20 5 18 14 20
113 20 125 0 170 -7 170 -26 0 -8 9 -14 20 -14 11 0 20 -6 20 -14 0 -14 42
-26 91 -26 22 0 29 -5 29 -20 0 -17 7 -20 40 -20 l39 0 3 98 3 97 31 9 c17 5
39 21 47 35 9 14 17 20 17 14 0 -8 13 -13 30 -13 17 0 30 -4 30 -8 0 -4 20
-14 45 -21 40 -12 45 -16 45 -42 0 -26 3 -29 35 -29 32 0 35 -2 35 -30 0 -28
2 -30 40 -30 22 0 40 -4 40 -10 0 -5 18 -10 40 -10 22 0 40 -4 40 -9 0 -16 31
-21 53 -9 12 6 58 13 102 16 44 2 81 8 83 13 2 4 19 11 38 15 21 4 45 19 64
40 27 31 34 34 85 34 l55 0 0 50 c0 43 3 50 20 50 11 0 20 5 20 10 0 6 18 10
40 10 l40 0 0 -40 c0 -33 3 -40 20 -40 17 0 20 -7 20 -40 0 -33 -3 -40 -20
-40 -12 0 -20 -7 -20 -17 0 -16 11 -18 102 -16 142 2 138 1 138 18 0 11 11 15
40 15 22 0 40 5 40 10 0 6 9 10 20 10 11 0 20 5 20 10 0 6 9 10 20 10 11 0 20
5 20 10 0 16 70 12 86 -5 11 -10 13 -25 9 -44 -5 -23 -2 -30 12 -34 14 -4 13
-5 -4 -6 -13 0 -23 -5 -23 -10 0 -10 48 -21 91 -21 29 0 29 1 29 60 0 33 4 60
10 60 6 0 10 -12 11 -27 0 -25 1 -26 9 -8 l9 20 1 -20 c1 -11 4 -14 7 -7 2 6
11 12 19 12 8 0 14 9 14 20 0 14 7 20 21 20 17 0 19 4 13 23 -3 12 -11 24 -15
25 -5 2 -9 12 -9 23 0 20 29 26 46 9 5 -5 25 -11 43 -13 18 -2 36 -9 40 -16 5
-8 15 -2 31 19 13 16 31 30 42 30 10 0 22 8 25 18 8 21 28 42 41 42 17 0 67
-53 54 -58 -7 -2 -12 -21 -12 -43 0 -32 3 -39 20 -39 11 0 20 -4 20 -9 0 -5 9
-13 20 -16 13 -4 20 -15 20 -31 0 -21 4 -24 40 -24 29 0 40 -4 40 -15 0 -8 5
-15 10 -15 6 0 10 -9 10 -20 0 -16 7 -20 31 -20 22 0 32 -5 36 -20 3 -11 12
-20 19 -20 8 0 14 9 14 20 0 12 7 20 16 20 9 0 18 -9 21 -20 3 -11 14 -20 24
-20 11 0 19 -7 19 -15 0 -21 13 -19 28 5 7 11 18 20 26 20 8 0 17 7 20 16 5
12 14 14 46 9 l40 -7 0 61 c0 45 -4 61 -14 61 -16 0 -28 52 -20 86 4 15 13 24
25 24 22 0 59 -29 59 -46 0 -7 14 -15 30 -19 27 -6 30 -10 30 -46 0 -28 -4
-39 -15 -39 -11 0 -15 -11 -15 -40 l0 -40 54 0 c30 0 58 4 61 10 11 18 117 12
151 -9 17 -10 44 -22 60 -25 26 -6 30 -3 39 26 11 33 0 88 -17 88 -4 0 -8 6
-8 13 1 19 66 47 110 47 32 0 39 -4 42 -22 3 -20 9 -23 53 -25 37 -1 42 0 20
5 -19 5 -31 14 -33 27 -3 19 -2 19 12 1 11 -14 23 -17 44 -13 16 3 34 1 41 -6
8 -8 11 -4 11 15 0 15 6 29 13 31 25 11 -18 26 -56 20 -31 -5 -41 -1 -60 18
-32 32 -38 64 -25 118 11 45 36 77 73 96 22 12 55 8 55 -6 0 -5 5 -9 10 -9 6
0 10 9 10 20 0 11 5 20 10 20 14 0 12 37 -2 44 -10 5 -10 7 0 12 15 7 16 24 1
24 -25 0 -77 89 -62 104 4 4 -3 9 -15 13 -12 3 -22 7 -22 10 0 4 20 45 25 51
7 8 45 -20 45 -33 0 -8 5 -15 10 -15 6 0 10 -4 10 -9 0 -5 14 -23 30 -39 17
-17 30 -26 30 -21 0 6 4 8 9 5 5 -3 14 17 21 44 8 33 19 54 34 62 11 6 22 10
24 9 11 -8 31 21 36 54 6 32 3 46 -12 65 -27 35 -32 66 -23 132 9 71 2 87 -30
64 -37 -25 -43 -19 -15 15 14 17 26 35 26 40 0 6 5 7 10 4 6 -3 10 2 10 13 0
30 13 35 32 10 18 -23 18 -22 16 44 -3 69 6 94 23 68 8 -13 10 -13 19 0 15 24
12 70 -5 70 -8 0 -15 5 -15 11 0 29 -94 62 -103 36 -7 -21 -78 12 -121 56
l-39 40 -81 -1 c-111 -1 -170 13 -210 52 -19 17 -47 33 -62 34 -15 1 -37 8
-49 16 -12 8 -42 13 -68 12 -38 -1 -53 -7 -71 -29 -13 -15 -30 -27 -37 -28 -8
0 -5 -4 6 -9 11 -5 14 -9 8 -9 -7 -1 -13 -9 -13 -18 0 -10 -7 -27 -15 -37 -13
-17 -18 -18 -39 -7 -13 7 -30 25 -37 40 -8 14 -21 31 -29 38 -12 10 -11 11 10
7 14 -2 19 -2 13 2 -7 3 -13 12 -13 20 0 7 -11 16 -25 20 -14 3 -25 12 -25 20
0 8 -9 14 -20 14 -11 0 -20 7 -20 15 0 10 -10 15 -29 15 -57 0 -91 12 -91 31
0 12 -7 19 -20 19 -13 0 -20 7 -20 20 0 16 -7 20 -36 20 -42 0 -64 -19 -64
-54 0 -14 -4 -26 -10 -26 -5 0 -10 -9 -10 -20 0 -13 -7 -20 -20 -20 -13 0 -20
-7 -20 -20 0 -13 -7 -20 -20 -20 -11 0 -20 -7 -20 -15 0 -8 -14 -28 -30 -44
-27 -25 -36 -28 -78 -23 -26 3 -48 9 -50 13 -2 5 -12 9 -23 9 -10 0 -19 5 -19
10 0 6 -6 10 -14 10 -8 0 -18 9 -21 20 -3 11 -11 20 -16 20 -5 0 -9 18 -9 40
l0 40 -78 0 c-146 0 -262 -12 -262 -26 0 -8 -9 -14 -20 -14 -11 0 -20 5 -20
10 0 6 -24 10 -52 11 -29 0 -62 5 -73 10 -17 8 -17 9 5 5 45 -9 53 5 48 80 -2
40 -9 69 -16 72 -7 2 -12 10 -12 17 0 9 -18 14 -57 17 -67 5 -83 -7 -83 -60 0
-18 -6 -39 -13 -46 -19 -20 -67 -28 -83 -15 -16 13 -19 95 -4 104 6 3 10 17
10 31 0 20 -5 24 -30 24 -16 0 -30 5 -30 10 0 6 -7 10 -15 10 -8 0 -15 7 -15
15 0 7 -7 18 -16 23 -8 5 -17 17 -18 28 -4 29 -50 26 -54 -3 -2 -13 -8 -23
-13 -23 -5 0 -9 -9 -9 -20 0 -11 5 -20 10 -20 6 0 10 -4 10 -10 0 -5 -7 -10
-15 -10 -8 0 -15 -6 -15 -13 0 -19 -57 -20 -64 -1 -3 8 -12 14 -21 14 -8 0
-15 8 -15 19 0 11 -12 23 -30 31 -16 7 -30 16 -30 21 0 5 -13 9 -30 9 -17 0
-30 -5 -30 -12 0 -9 -2 -10 -8 -2 -10 17 -104 23 -97 7 2 -7 1 -13 -4 -13 -5
0 -17 -21 -28 -46 -14 -32 -22 -41 -26 -30 -4 9 -19 16 -34 17 l-28 1 25 8 25
8 -28 1 c-32 1 -66 -24 -44 -32 6 -3 2 -6 -10 -6 -13 -1 -23 5 -23 13 0 21
-23 26 -120 26 -111 0 -120 3 -120 46 l0 34 -59 0 c-48 0 -60 3 -64 18 -4 16
-5 16 -6 0 0 -10 -8 -18 -16 -18 -8 0 -15 -9 -15 -20 0 -13 -7 -20 -20 -20
-13 0 -20 -7 -20 -20 0 -13 7 -20 20 -20 13 0 20 -7 20 -20 0 -18 -7 -20 -80
-20 -64 0 -80 -3 -80 -15 0 -11 -12 -15 -49 -15 -82 0 -111 -9 -111 -35 0 -43
11 -55 46 -55 27 0 34 -4 34 -19 0 -17 -10 -20 -79 -27 l-79 -6 -6 -39 -6 -39
-115 0 c-96 0 -115 -3 -115 -15 0 -8 -7 -15 -15 -15 -17 0 -75 -52 -75 -67 0
-10 -32 -23 -57 -23 -7 0 -13 9 -13 20 0 26 -41 43 -86 34 -22 -4 -34 -2 -34
5 0 6 -13 11 -29 11 -17 0 -33 5 -36 10 -3 6 -17 10 -31 10 -20 0 -29 9 -44
45 -11 25 -35 60 -55 77 -19 18 -35 37 -35 43 0 6 -54 11 -140 12 -134 3 -140
2 -140 -17 0 -11 -7 -20 -15 -20 -8 0 -15 -7 -15 -15 0 -8 -9 -15 -20 -15 -11
0 -20 -6 -20 -14 0 -18 -31 -29 -54 -20 -9 3 -16 12 -16 20 0 8 -7 14 -15 14
-9 0 -18 7 -21 15 -5 12 -26 15 -104 15 -81 0 -102 3 -116 18 -17 16 -16 17
19 20 20 2 37 7 37 11 0 14 -40 20 -87 16 -24 -3 -63 -7 -88 -10 -35 -4 -45
-1 -45 10 0 8 -6 15 -13 15 -6 0 -32 18 -56 40 -24 22 -47 40 -52 40 -5 0 -9
5 -9 10 0 6 -9 10 -20 10 -13 0 -20 7 -20 20 0 13 -7 20 -20 20 -11 0 -20 5
-20 10 0 12 -37 13 -42 1 -1 -5 -21 -11 -43 -13 -22 -1 -42 -6 -45 -9 -10 -13
-110 3 -110 17 0 8 -9 14 -20 14 -11 0 -20 4 -20 8 0 9 -81 27 -167 38 -42 5
-54 4 -59 -9 -3 -8 -25 -21 -50 -28 -24 -7 -44 -19 -44 -26 0 -7 -11 -13 -25
-13 -16 0 -25 6 -25 15 0 8 -5 15 -11 15 -6 0 -17 6 -25 14 -17 18 -19 50 -2
40 7 -4 8 -3 4 4 -4 7 -16 12 -26 12 -26 0 -50 38 -50 79 0 19 -8 43 -17 54
-17 18 -17 19 0 32 9 6 17 19 17 28 0 18 -47 54 -70 54 -8 0 -33 4 -55 8 -36
7 -39 6 -27 -8z m732 -414 c28 7 39 -5 41 -51 3 -51 -6 -62 -60 -69 -40 -6
-41 -7 -41 -44 0 -22 -4 -39 -9 -39 -14 0 -33 -57 -26 -79 4 -13 2 -21 -5 -21
-7 0 -10 -6 -7 -14 4 -9 -3 -16 -18 -19 -15 -2 -22 0 -18 6 4 6 -9 8 -35 4
-32 -4 -42 -2 -42 9 0 8 -9 14 -20 14 -11 0 -30 11 -41 24 -12 13 -32 27 -45
30 -13 4 -24 11 -24 16 0 6 -7 10 -15 10 -10 0 -15 -10 -15 -30 0 -23 -4 -30
-20 -30 -11 0 -20 4 -20 9 0 5 -3 23 -6 40 -6 26 -4 30 10 25 15 -6 16 3 15
81 -1 47 3 90 7 95 18 16 118 20 138 5 11 -8 32 -15 48 -15 18 0 28 -5 28 -15
0 -11 11 -15 40 -15 29 0 40 4 40 15 0 8 -6 15 -12 16 -25 1 28 18 59 18 29 1
32 4 29 29 -2 15 -1 19 1 9 3 -12 11 -17 23 -14z"/>
<path d="M14058 4183 c-8 -10 -19 -30 -26 -45 -18 -44 -1 -49 142 -42 104 6
126 10 121 21 -3 8 -5 17 -5 19 0 2 -31 4 -69 4 -71 0 -101 6 -101 20 0 5 12
10 27 12 14 2 28 9 31 16 6 21 -102 16 -120 -5z"/>
</g>
</svg>
