<?xml version="1.0" standalone="no"?>
<!DOCTYPE svg PUBLIC "-//W3C//DTD SVG 20010904//EN"
 "http://www.w3.org/TR/2001/REC-SVG-20010904/DTD/svg10.dtd">
<svg version="1.0" xmlns="http://www.w3.org/2000/svg"
 width="1920.000000pt" height="1080.000000pt" viewBox="0 0 1920.000000 1080.000000"
 preserveAspectRatio="xMidYMid meet">
<metadata>
Created by potrace 1.16, written by Peter Selinger 2001-2019
</metadata>
<g transform="translate(0.000000,1080.000000) scale(0.100000,-0.100000)"
fill="#000000" stroke="none">
<path d="M4853 10793 c25 -7 21 -30 -7 -37 -18 -4 -23 -11 -19 -26 7 -28 49
-27 56 1 4 14 10 18 18 13 8 -5 9 -9 2 -11 -5 -2 -8 -15 -5 -30 3 -16 1 -24
-5 -20 -13 8 -34 -15 -37 -40 -2 -10 -13 -19 -24 -21 -12 -2 -22 -8 -22 -14 0
-5 8 -7 17 -4 16 6 16 6 0 -12 -9 -10 -17 -27 -17 -38 0 -11 -9 -30 -19 -41
-11 -12 -17 -23 -14 -26 3 -3 -4 -16 -16 -28 -12 -13 -21 -17 -21 -11 0 15
-36 16 -45 2 -3 -5 3 -10 14 -10 29 0 37 -21 15 -39 -16 -13 -46 -68 -50 -91
-1 -9 -29 -65 -34 -70 -3 -3 -11 -17 -17 -32 -7 -16 -17 -28 -23 -28 -5 0 -10
-10 -11 -22 0 -13 -3 -17 -6 -10 -2 6 -9 12 -14 12 -13 0 -11 -28 2 -32 8 -3
6 -10 -6 -21 -9 -10 -21 -33 -26 -51 -8 -28 -13 -33 -30 -29 -19 5 -20 4 -10
-15 14 -26 14 -35 0 -26 -7 4 -7 -1 1 -16 14 -26 -2 -44 -32 -35 -10 3 -27 8
-38 11 -12 4 -20 2 -20 -5 0 -6 8 -11 18 -11 18 0 40 -19 57 -50 8 -13 7 -13
-9 -1 -15 13 -19 13 -27 0 -7 -11 -9 -9 -9 7 0 12 -7 24 -15 28 -18 7 -18 4
-3 -29 10 -21 7 -33 -17 -83 -15 -31 -33 -67 -38 -79 -6 -13 -19 -25 -29 -29
-10 -3 -16 -9 -13 -14 9 -14 -11 -88 -29 -105 -9 -9 -16 -21 -16 -26 0 -5 -6
-9 -13 -9 -7 0 -20 -22 -30 -50 -17 -47 -19 -49 -47 -43 -19 3 -30 1 -30 -6 0
-6 5 -11 10 -11 15 0 11 -52 -5 -74 -8 -11 -15 -28 -15 -38 0 -10 -7 -18 -16
-18 -13 0 -15 -7 -10 -30 3 -16 1 -30 -4 -30 -5 0 -10 9 -12 20 -2 14 -7 17
-17 11 -11 -7 -12 -13 -3 -23 8 -11 9 -31 2 -72 -6 -35 -6 -66 0 -81 8 -20 6
-27 -10 -35 -25 -13 -26 -47 -2 -53 9 -3 0 -5 -21 -6 -23 -1 -36 -5 -32 -11 3
-5 19 -9 35 -7 16 1 29 -2 29 -8 0 -5 -11 -9 -25 -9 -19 1 -22 -1 -13 -12 6
-8 9 -20 6 -28 -4 -10 -1 -13 8 -10 7 3 16 12 19 20 6 16 42 19 51 4 5 -8 11
-7 21 1 25 21 24 4 -1 -23 -14 -15 -22 -33 -19 -41 4 -12 11 -12 44 -1 43 15
70 10 70 -12 0 -8 5 -14 10 -14 6 0 10 -7 10 -15 0 -11 -7 -14 -25 -9 -14 3
-25 2 -25 -4 0 -12 24 -22 55 -22 14 0 25 -7 28 -20 3 -11 10 -20 16 -20 6 0
8 6 5 14 -4 9 8 15 42 20 26 3 56 6 68 5 19 -1 18 -2 -4 -9 -22 -6 -23 -8 -7
-15 10 -4 28 -3 40 3 27 13 69 10 75 -6 2 -8 -7 -10 -30 -6 -25 4 -29 3 -18
-5 8 -6 25 -11 37 -11 12 0 26 -7 30 -15 8 -13 14 -13 51 5 23 11 42 23 42 26
0 8 -53 1 -68 -10 -8 -6 -17 -5 -23 1 -17 17 2 22 95 27 70 4 88 3 93 -9 6
-17 33 -20 33 -5 0 7 50 10 140 9 76 0 143 2 149 5 5 3 11 1 13 -5 2 -6 12 -7
28 -2 40 14 253 4 280 -12 5 -3 10 0 10 8 0 12 8 13 46 5 38 -8 48 -7 65 8 16
15 19 15 19 2 0 -9 -10 -19 -22 -23 -29 -9 -27 -9 -61 -1 -19 4 -26 3 -22 -4
3 -5 17 -10 31 -10 13 0 24 -4 24 -10 0 -5 7 -10 15 -10 8 0 15 5 15 11 0 25
43 46 87 43 37 -3 43 -1 43 16 0 11 5 20 11 20 5 0 7 -5 4 -11 -8 -12 23 -49
42 -49 7 0 13 9 13 20 0 15 7 20 28 21 15 0 35 2 44 4 11 2 25 -10 39 -33 l21
-37 18 23 c18 22 60 31 60 12 0 -5 -7 -10 -15 -10 -8 0 -15 -4 -15 -10 0 -15
27 -12 33 4 4 10 30 17 79 23 95 10 93 10 91 -4 -1 -6 4 -17 12 -23 13 -11 14
-8 9 19 -7 35 -3 37 31 15 16 -10 29 -13 40 -7 9 5 41 6 72 2 34 -5 64 -4 75
2 10 5 23 7 30 3 11 -7 70 -16 98 -15 149 5 265 10 265 11 0 2 12 3 28 4 16 1
27 -3 27 -11 0 -16 26 -17 35 -2 4 6 13 8 21 5 7 -3 16 -1 19 4 3 6 15 6 29 0
13 -5 27 -6 30 -3 3 4 6 0 6 -8 0 -8 10 -20 21 -27 20 -13 21 -12 16 10 l-6
24 97 -4 c187 -6 274 -3 290 10 13 11 15 10 9 -10 -4 -16 1 -30 15 -44 24 -24
45 -18 54 17 6 23 28 33 59 25 6 -1 33 -2 60 -2 32 0 43 -3 31 -7 -14 -5 -16
-10 -7 -15 6 -4 18 -3 26 4 20 17 65 23 65 9 0 -7 -3 -9 -7 -6 -3 4 -12 -2
-20 -13 -8 -11 -23 -20 -34 -20 -22 0 -24 -8 -6 -31 26 -32 105 -2 91 35 -5
12 1 14 30 9 25 -4 36 -2 36 7 0 7 -8 10 -18 8 -10 -3 -27 1 -37 8 -17 12 -10
14 53 14 65 0 88 -9 63 -25 -6 -3 -9 -14 -8 -24 1 -23 37 -16 37 7 0 14 2 14
13 -1 15 -20 77 -35 77 -18 0 6 -9 11 -20 11 -11 0 -20 4 -20 9 0 5 -9 13 -20
16 -11 3 -20 10 -20 15 0 10 95 18 133 10 l29 -5 -21 -27 c-34 -43 -28 -53 31
-53 42 0 53 4 56 17 3 15 -1 16 -29 8 -41 -12 -45 -8 -30 29 16 37 80 58 105
33 14 -14 19 -14 42 -1 21 11 28 11 31 1 3 -6 10 -9 16 -6 7 4 0 -5 -15 -18
-35 -32 -36 -52 -4 -46 17 4 23 1 19 -9 -3 -7 1 -13 10 -13 12 0 15 10 14 43
-1 38 1 42 23 45 15 1 36 -7 54 -23 16 -14 24 -25 18 -25 -7 0 -12 -5 -12 -12
0 -6 8 -4 19 6 17 16 19 16 23 -2 4 -12 17 -21 37 -24 17 -2 31 -3 31 -2 0 19
-38 74 -49 73 -9 -1 -26 -1 -38 0 -19 1 -20 4 -10 25 12 24 22 25 22 3 0 -7 7
-12 15 -12 8 0 20 -4 27 -8 6 -4 18 -1 25 6 11 12 15 12 26 -2 7 -9 11 -10 7
-3 -8 15 0 15 25 2 13 -7 21 -7 25 0 3 6 17 7 30 4 12 -3 26 -1 29 5 5 7 15 6
30 -4 21 -14 24 -14 30 1 5 14 9 14 22 3 13 -10 17 -10 23 0 7 10 13 10 29 2
12 -6 34 -11 49 -11 165 1 198 2 205 6 4 3 14 2 20 -2 21 -13 52 -13 73 1 21
13 34 6 49 -25 3 -8 4 -5 2 8 -3 18 0 22 20 22 14 0 24 -6 24 -14 0 -28 28
-25 40 5 7 16 18 29 25 29 8 0 15 6 18 13 3 9 11 9 33 2 38 -14 106 3 101 25
-2 8 -10 14 -18 12 -8 -1 8 18 34 44 27 26 53 59 59 73 9 24 10 25 23 8 12
-17 13 -17 19 0 7 16 9 15 26 -7 22 -29 37 -22 18 9 -7 12 -23 21 -35 21 -27
0 -27 -1 -11 36 7 16 19 29 27 29 8 0 16 6 19 14 3 9 0 12 -10 8 -10 -3 -15 0
-14 11 1 10 -8 18 -21 20 -13 2 -23 8 -23 13 0 13 13 11 36 -6 25 -19 34 -19
34 3 0 10 5 23 12 30 9 9 7 13 -5 18 -37 14 -14 40 30 35 7 -1 10 7 8 19 -6
31 18 24 33 -10 8 -18 21 -30 33 -30 24 0 25 20 1 27 -13 3 -22 20 -29 48 -6
25 -6 42 -2 39 5 -3 9 -1 9 3 0 5 16 33 35 62 19 30 32 58 29 62 -2 4 0 10 6
14 5 3 10 15 10 26 0 10 6 19 14 19 9 0 17 15 21 40 4 22 11 40 16 40 5 0 9 9
9 20 0 11 5 20 10 20 6 0 10 -4 10 -10 0 -5 7 -10 15 -10 11 0 12 5 5 26 -6
14 -8 29 -5 34 7 12 -26 22 -39 11 -6 -5 -37 -5 -76 0 -74 11 -110 5 -110 -16
0 -8 -8 -15 -17 -15 -12 0 -14 3 -6 8 18 11 4 62 -18 62 -27 0 -34 -21 -9 -27
14 -4 18 -8 10 -13 -19 -11 -52 1 -46 16 3 8 -1 14 -10 14 -10 0 -14 -6 -11
-15 5 -12 -10 -14 -98 -11 -70 2 -106 -1 -108 -8 -3 -8 -8 -8 -18 1 -9 7 -38
10 -75 8 -33 -2 -66 0 -74 5 -20 13 -70 -16 -70 -41 0 -16 -3 -18 -18 -10 -14
8 -18 20 -16 55 2 25 -1 46 -7 46 -5 0 -10 -4 -10 -10 -1 -5 -3 -14 -4 -20 -1
-5 -3 -15 -4 -21 -1 -7 -12 -9 -31 -6 -16 4 -32 2 -35 -3 -6 -10 -43 6 -58 25
-5 6 -12 4 -20 -7 -7 -9 -22 -17 -32 -19 -26 -4 -65 10 -65 22 0 15 -14 10
-42 -16 -20 -18 -27 -21 -31 -10 -4 9 -29 14 -85 17 -44 2 -78 0 -76 -3 2 -4
-7 -9 -21 -11 -13 -3 -26 -1 -27 4 -2 6 -27 10 -56 10 -48 -1 -51 0 -40 18 7
11 10 22 7 25 -11 10 -59 -14 -59 -29 0 -26 -21 -29 -44 -7 -18 19 -19 23 -6
31 11 7 4 9 -25 7 -33 -2 -41 -6 -43 -25 -2 -12 -10 -22 -18 -22 -8 0 -14 -4
-14 -10 0 -5 -6 -7 -13 -4 -18 6 -61 11 -114 13 -36 1 -43 4 -43 21 0 12 -7
20 -16 20 -12 0 -15 -6 -10 -25 6 -24 -7 -35 -18 -16 -3 4 -64 7 -136 5 -132
-3 -151 3 -112 32 15 12 14 13 -11 14 -25 0 -27 3 -21 23 4 12 12 30 20 41 13
19 9 46 -7 46 -5 0 -9 -11 -9 -24 0 -13 -7 -26 -15 -30 -8 -3 -15 -12 -15 -21
0 -8 -7 -15 -15 -15 -8 0 -15 -7 -15 -15 0 -8 -6 -15 -13 -15 -7 0 -18 -9 -25
-20 -11 -18 -20 -20 -78 -16 -66 4 -83 10 -70 23 4 4 11 1 16 -7 7 -10 10 -11
10 -2 0 6 7 12 15 12 8 0 15 5 15 10 0 6 0 13 0 18 0 10 -42 11 -60 1 -8 -5
-11 -9 -6 -9 6 0 1 -8 -10 -19 -12 -11 -43 -21 -78 -25 l-57 -6 41 49 c41 49
63 55 96 29 18 -13 42 1 37 22 -3 10 0 21 7 25 8 5 8 11 -2 22 -6 8 -12 27
-13 41 0 18 -6 26 -15 24 -11 -3 -11 0 0 13 16 19 10 25 -35 41 -32 11 -35 10
-35 -8 0 -10 4 -16 10 -13 6 3 10 2 10 -4 0 -5 -5 -11 -12 -13 -7 -3 -9 -12
-5 -22 5 -12 13 -15 27 -11 15 5 20 2 20 -11 0 -10 7 -26 17 -36 9 -10 13 -21
9 -25 -4 -4 -18 6 -31 22 -14 15 -28 25 -31 22 -4 -4 -1 -13 5 -21 10 -12 8
-17 -8 -25 -11 -6 -29 -11 -40 -11 -10 0 -22 -6 -24 -12 -3 -7 -6 -4 -7 7 0
11 -12 28 -25 38 -24 17 -25 17 -25 -1 0 -11 7 -23 16 -26 12 -4 13 -10 6 -19
-6 -6 -10 -16 -10 -22 0 -5 -5 -11 -11 -13 -6 -2 -11 1 -11 7 0 6 -7 11 -16
11 -10 0 -14 -6 -10 -15 3 -8 1 -15 -4 -15 -6 0 -10 7 -10 15 0 20 -24 19 -40
0 -11 -13 -15 -13 -22 -3 -7 9 -8 7 -6 -7 2 -13 12 -21 31 -23 16 -2 27 -8 24
-15 -5 -17 -38 -21 -47 -7 -6 9 -13 9 -28 1 -31 -16 -73 -14 -66 3 3 8 1 23
-5 34 -8 15 -6 24 9 40 30 32 24 40 -22 39 -43 -2 -43 -2 -45 -42 -1 -37 -1
-38 7 -10 l8 30 1 -28 c0 -16 5 -26 10 -22 16 9 23 -13 11 -34 -6 -12 -16 -18
-25 -15 -9 4 -22 1 -30 -6 -11 -9 -15 -9 -15 -1 0 8 -6 7 -21 -1 -17 -11 -22
-10 -33 4 -7 10 -15 15 -18 13 -9 -9 -88 -13 -82 -4 3 5 -1 9 -9 9 -7 0 -20
-11 -27 -25 -15 -28 -25 -32 -33 -12 -6 15 -77 22 -77 7 0 -5 -4 -10 -10 -10
-5 0 -10 7 -10 16 0 13 -7 15 -40 9 -47 -8 -80 1 -80 21 0 12 8 15 33 11 37
-5 67 11 67 37 0 9 5 16 11 16 5 0 7 -4 4 -10 -11 -17 5 -32 21 -19 10 8 14 8
14 0 0 -6 7 -11 15 -11 18 0 19 11 3 29 -10 11 -10 13 0 7 7 -4 12 -1 12 8 0
9 -8 16 -18 16 -15 0 -17 6 -14 37 4 34 3 36 -12 24 -9 -7 -16 -22 -16 -32 0
-11 -5 -19 -11 -19 -7 0 -9 10 -7 25 4 19 1 25 -13 25 -11 0 -19 -1 -19 -3 0
-1 4 -17 9 -35 10 -35 -6 -104 -16 -72 -7 19 -44 60 -55 60 -16 0 -7 -22 20
-45 15 -13 22 -25 15 -25 -6 0 -15 5 -18 10 -8 13 -65 13 -65 0 0 -6 6 -13 14
-16 17 -6 10 -40 -10 -48 -16 -6 -18 3 -4 24 6 10 2 19 -18 32 -36 24 -72 23
-79 -1 -5 -19 -5 -19 -25 1 -20 20 -20 21 -3 35 14 9 16 16 8 24 -13 13 -34 3
-32 -14 1 -7 1 -27 0 -45 -1 -28 -4 -32 -20 -27 -10 3 -23 -1 -30 -9 -12 -14
-28 -14 -113 -3 -15 3 -40 -2 -55 -10 -18 -9 -30 -10 -37 -3 -5 5 -20 10 -33
10 -13 0 -23 4 -23 9 0 9 -59 37 -63 30 -2 -2 -8 -16 -15 -31 -9 -22 -18 -28
-42 -28 -34 0 -40 19 -13 41 9 8 18 13 20 12 1 -2 6 -3 11 -3 4 0 0 5 -8 10
-13 9 -12 13 5 28 11 9 21 30 23 46 1 16 11 38 22 48 11 10 23 31 26 46 4 15
11 32 16 39 6 7 3 15 -9 22 -17 9 -17 10 3 18 27 10 102 104 96 121 -2 6 1 12
6 12 12 0 48 80 44 101 -2 10 6 19 19 22 16 4 19 3 10 -6 -18 -18 -13 -27 15
-27 21 0 24 -3 15 -13 -8 -11 -4 -25 20 -60 17 -26 38 -47 47 -47 12 0 10 6
-8 26 -16 16 -21 28 -14 32 6 4 13 15 17 25 5 13 1 17 -18 17 -14 0 -25 5 -25
10 0 6 8 10 18 8 9 -2 16 2 15 9 -2 7 2 25 7 40 l10 28 -20 -24 c-11 -12 -17
-27 -14 -32 3 -5 -6 -9 -20 -9 -27 0 -27 24 0 34 8 3 14 14 14 25 0 25 31 37
42 16 6 -9 17 -13 31 -10 50 12 87 12 87 0 0 -9 8 -9 34 -1 19 6 32 14 30 18
-2 3 1 10 7 14 8 4 9 3 5 -4 -5 -8 2 -12 21 -13 142 -6 171 -13 152 -35 -13
-15 -65 -19 -73 -5 -14 22 -75 5 -76 -21 0 -13 28 -9 33 5 3 8 14 4 33 -14 33
-30 71 -42 78 -25 8 21 27 -18 20 -44 -3 -14 -6 -35 -7 -47 -1 -13 -5 -23 -9
-23 -5 0 -8 -9 -8 -20 0 -11 7 -20 15 -20 7 0 18 -7 23 -16 13 -23 46 -13 50
14 3 19 -1 22 -27 22 -38 0 -41 20 -3 21 16 1 20 3 10 6 -22 6 -25 58 -3 66 8
4 17 2 20 -2 3 -5 15 -7 28 -5 l22 5 -23 -12 c-30 -16 -23 -34 14 -35 45 -2
46 -3 24 -26 -26 -28 -26 -41 0 -33 11 4 20 2 20 -4 0 -14 37 -14 45 -1 3 6 1
11 -4 11 -6 1 -15 3 -21 4 -5 1 -13 3 -17 4 -5 1 0 8 11 16 13 10 16 20 11 32
-5 10 -7 26 -6 36 3 24 -20 22 -26 -3 -3 -11 -9 -20 -14 -20 -13 0 -11 12 6
34 20 26 19 62 -1 70 -22 9 -24 8 -24 -9 0 -8 5 -15 10 -15 6 0 5 -8 -2 -19
-14 -23 -28 -18 -28 10 0 10 -7 19 -15 19 -8 0 -15 -4 -15 -8 0 -4 -11 -9 -25
-10 -14 -1 -25 3 -25 8 0 6 4 10 9 10 11 0 9 39 -2 57 -5 8 14 11 65 9 76 -3
118 -17 118 -41 0 -7 5 -17 11 -21 9 -5 10 1 5 21 -6 23 -2 32 21 50 25 21 29
21 50 8 26 -17 138 -19 158 -3 10 8 19 8 34 1 25 -14 104 -14 117 -1 7 7 21 6
45 -4 l34 -14 -27 -7 c-21 -5 -28 -13 -28 -31 0 -29 30 -33 37 -5 4 16 12 19
44 16 28 -3 38 -1 33 7 -5 8 -2 9 9 5 11 -4 17 -1 17 8 0 8 8 16 18 16 44 3
145 -1 150 -6 3 -3 -7 -5 -21 -5 -18 0 -25 -4 -21 -14 3 -8 1 -17 -5 -21 -14
-8 -14 -45 -1 -45 6 0 10 5 10 11 0 6 6 17 14 24 12 12 15 12 20 -1 10 -26 28
-4 21 27 -5 22 -3 29 9 29 9 0 16 -7 16 -15 0 -8 9 -15 19 -15 11 0 21 -6 24
-12 4 -10 7 -10 17 -1 11 10 8 15 -16 24 l-29 12 29 8 c17 5 35 5 40 1 6 -5
52 -6 101 -5 143 5 335 8 335 5 0 -1 -11 -7 -25 -12 -27 -10 -33 -25 -12 -33
19 -7 57 11 57 28 0 22 157 20 183 -3 15 -13 17 -14 17 0 0 22 32 47 37 31 3
-9 30 -13 89 -13 l84 0 0 -29 c0 -29 15 -42 48 -40 11 0 6 6 -13 15 -29 14
-29 15 -4 10 19 -4 29 -1 33 9 7 18 -16 30 -40 21 -8 -3 -12 -2 -9 4 3 6 29
10 57 10 42 0 49 -3 44 -16 -5 -14 -4 -15 9 -4 10 8 15 9 15 1 0 -6 7 -11 15
-11 11 0 13 8 9 30 -7 35 10 42 20 8 l6 -23 20 25 c17 21 20 22 20 7 0 -15 7
-18 34 -16 19 2 38 1 41 -3 10 -10 45 3 38 15 -4 6 -1 7 8 2 15 -10 17 -10
142 -19 57 -4 87 -3 87 4 0 5 9 10 20 10 19 0 20 -4 14 -37 -4 -21 -11 -39
-15 -41 -13 -5 -11 -36 3 -50 15 -15 38 -16 38 -2 0 6 -6 10 -13 10 -8 0 -14
8 -14 17 0 20 20 43 37 43 6 0 10 10 8 23 -2 17 4 25 32 35 19 8 45 15 57 15
12 1 28 8 35 15 6 6 22 12 35 12 13 0 26 7 29 15 4 10 13 13 25 10 14 -5 17
-2 13 9 -4 10 -1 16 8 16 21 0 60 48 46 56 -19 12 21 21 61 14 20 -3 35 -12
34 -18 -6 -24 25 -11 31 13 4 14 11 23 16 20 12 -8 12 -3 0 29 -10 26 -40 27
-40 1 0 -7 -10 -15 -22 -18 -27 -7 -34 -2 -20 15 6 7 10 15 10 18 -1 3 9 24
20 46 12 23 19 44 15 47 -7 8 22 37 36 37 6 0 11 14 11 30 0 20 5 30 15 30 13
0 21 25 16 53 0 4 4 7 10 7 7 0 9 -10 5 -26 -5 -17 -3 -23 4 -19 5 3 10 17 10
31 0 25 15 33 22 12 3 -7 7 -6 11 5 3 9 2 17 -3 17 -6 0 -10 4 -10 10 0 6 23
8 58 5 31 -3 64 -1 72 5 10 6 -834 9 -2480 9 -1372 -1 -2487 -3 -2477 -6z"/>
<path d="M11260 10781 c0 -10 -7 -24 -15 -31 -8 -7 -15 -17 -15 -23 0 -15 -51
-87 -62 -87 -5 0 -4 9 2 20 9 16 7 22 -7 27 -10 3 -21 8 -25 10 -4 2 -17 -6
-28 -17 l-21 -21 -6 20 c-10 37 -20 13 -16 -36 5 -56 10 -64 26 -43 7 8 21 22
31 30 18 14 19 13 14 -6 -5 -18 -2 -21 15 -16 20 5 20 5 -2 -26 -12 -18 -19
-32 -16 -32 4 0 -1 -8 -11 -17 -15 -16 -17 -16 -30 2 -13 17 -15 17 -38 -6
-17 -18 -22 -29 -16 -39 8 -13 12 -12 24 5 13 17 15 18 21 4 3 -8 1 -27 -4
-42 -9 -23 -12 -25 -39 -15 -23 9 -33 8 -55 -7 -15 -9 -27 -24 -27 -31 0 -16
16 -19 24 -5 7 11 66 20 66 10 0 -4 -5 -9 -11 -11 -8 -3 -6 -9 4 -20 14 -14
14 -16 -9 -26 -13 -7 -24 -16 -24 -21 0 -15 -59 -41 -78 -34 -16 6 -16 6 0
-10 19 -19 38 -22 38 -6 0 5 5 7 10 4 17 -10 -9 -35 -35 -35 -13 0 -25 -5 -27
-12 -3 -8 -21 -11 -51 -9 -28 1 -47 -2 -47 -8 0 -6 7 -8 15 -5 8 4 15 2 15 -2
0 -5 16 -10 35 -11 19 -1 35 3 35 8 0 5 7 9 15 9 20 0 19 -6 -5 -40 -11 -15
-24 -38 -29 -51 -5 -13 -10 -18 -10 -11 -2 29 -17 9 -17 -23 0 -38 -30 -74
-61 -76 -11 0 -5 -6 15 -15 l34 -15 -27 -21 c-15 -12 -24 -26 -21 -35 4 -9 1
-13 -6 -10 -7 2 -12 12 -12 21 1 9 -4 16 -12 16 -8 0 -14 -7 -14 -15 0 -8 -3
-15 -7 -15 -5 0 -9 -11 -9 -26 -2 -23 -1 -24 12 -7 12 16 13 14 7 -17 -3 -19
-17 -45 -30 -58 -13 -12 -23 -32 -23 -42 0 -22 -30 -28 -31 -7 0 6 -4 3 -9 -8
-12 -28 -12 -37 0 -30 18 11 11 -23 -7 -37 -10 -7 -20 -22 -21 -33 -2 -11 -9
-23 -15 -27 -7 -4 -12 -13 -13 -20 -1 -21 -26 -68 -36 -68 -5 0 -6 -5 -3 -10
3 -6 0 -12 -7 -15 -7 -3 -14 -16 -14 -30 -1 -13 -11 -37 -23 -53 -11 -16 -17
-33 -13 -37 4 -5 -1 -5 -10 -2 -13 4 -18 1 -18 -10 0 -9 -12 -40 -26 -70 -20
-43 -23 -57 -13 -69 9 -11 8 -14 -9 -14 -14 0 -22 8 -24 22 -2 12 -9 23 -17
26 -8 3 -11 0 -7 -7 4 -6 0 -11 -11 -11 -17 -1 -17 -1 0 -14 10 -8 18 -22 19
-33 1 -26 -20 -73 -32 -73 -7 0 -9 -8 -5 -21 5 -15 2 -22 -14 -26 -16 -4 -19
-11 -15 -29 4 -15 2 -24 -5 -24 -6 0 -11 -7 -11 -16 0 -8 -4 -13 -8 -10 -4 2
-14 1 -22 -5 -9 -5 -10 -9 -3 -9 6 0 9 -9 6 -20 -3 -11 -9 -18 -13 -15 -10 6
-32 -44 -25 -56 4 -5 -2 -9 -11 -9 -16 0 -16 -1 2 -16 12 -10 14 -14 4 -11
-21 5 -40 -34 -26 -52 9 -12 7 -13 -11 -9 -20 5 -23 2 -23 -22 0 -32 29 -42
83 -31 18 4 55 5 82 3 28 -2 60 -3 72 -4 21 0 22 -1 7 -29 -15 -29 -12 -49 7
-49 5 0 9 8 9 18 0 10 3 22 8 26 4 4 7 13 7 19 0 21 49 14 68 -10 24 -30 16
-50 -28 -69 -32 -13 -48 -34 -26 -34 15 0 71 34 71 43 0 4 9 18 20 29 24 26
21 43 -6 43 -10 0 -18 3 -16 8 1 4 2 13 2 21 0 9 7 12 21 9 12 -3 18 -11 15
-19 -4 -10 1 -13 17 -11 12 2 17 2 11 0 -6 -2 -11 -17 -11 -33 0 -20 6 -30 21
-34 36 -10 38 -7 31 35 l-7 42 46 -5 c25 -3 48 -2 51 2 2 4 26 4 52 0 26 -4
69 -6 96 -3 30 3 47 1 47 -6 0 -6 -7 -11 -15 -11 -8 0 -15 -6 -15 -14 0 -11 7
-13 30 -6 17 5 30 6 30 2 0 -4 4 0 10 8 6 9 5 20 -3 29 -9 11 -9 13 0 8 6 -4
30 -8 52 -9 43 -1 49 -6 29 -26 -9 -9 -6 -12 14 -12 39 0 58 10 58 30 0 15 5
16 47 9 30 -6 51 -5 57 1 15 15 26 12 20 -5 -5 -12 2 -15 27 -15 25 0 30 3 19
10 -12 7 -12 12 4 29 10 11 25 17 33 14 8 -3 19 0 23 7 4 7 21 12 36 12 16 0
35 5 42 10 6 6 27 14 45 17 19 4 32 13 31 22 -1 9 10 14 33 15 19 0 38 6 42
13 8 13 32 28 81 53 14 7 40 28 59 48 19 19 44 39 55 45 12 6 22 21 24 33 2
12 7 20 11 17 13 -7 1 -52 -19 -70 -10 -9 -16 -23 -13 -31 9 -24 20 -15 40 31
10 25 21 45 26 45 14 0 7 38 -8 44 -21 8 -19 28 2 24 12 -2 18 4 18 17 0 11 8
21 18 23 9 2 17 -2 17 -8 0 -10 4 -9 15 0 8 7 15 18 15 25 0 19 -28 26 -38 9
-5 -9 -15 -12 -25 -8 -23 9 -22 27 2 19 12 -3 21 0 25 10 3 8 13 15 21 15 12
0 15 6 10 20 -5 16 -2 20 14 20 12 0 21 -4 21 -10 0 -5 4 -10 9 -10 5 0 3 13
-4 28 -14 28 -10 72 6 72 5 0 9 -4 9 -10 0 -16 27 -11 34 6 5 12 2 15 -10 10
-25 -9 -37 4 -21 22 8 10 17 30 21 45 4 16 11 25 17 21 6 -3 8 -17 5 -30 -5
-17 -1 -26 14 -34 18 -10 20 -8 18 17 -3 46 11 75 33 68 14 -5 19 -2 19 12 0
28 28 63 50 63 23 0 60 29 60 47 0 7 -7 13 -15 13 -8 0 -15 5 -15 10 0 18 -17
10 -28 -12 -9 -19 -11 -20 -11 -5 -1 12 -7 17 -18 15 -11 -2 -17 -11 -15 -22
2 -12 -1 -16 -9 -10 -9 5 -10 2 -6 -9 3 -8 -1 -21 -9 -27 -8 -7 -14 -20 -14
-29 -1 -20 -38 -66 -47 -57 -9 9 34 96 48 96 5 0 8 8 5 18 -3 9 3 27 13 39 17
20 27 22 102 21 64 0 87 -4 97 -17 12 -15 13 -14 8 2 -4 14 1 17 32 17 27 0
33 -3 22 -10 -12 -7 -12 -12 -2 -22 10 -10 14 -10 22 2 5 8 6 18 4 22 -3 4 -1
8 4 8 6 0 12 -7 16 -15 3 -8 15 -15 27 -15 15 0 19 5 15 15 -4 12 5 15 49 15
41 0 56 4 64 18 7 11 10 12 11 3 0 -7 6 -11 15 -7 8 3 15 1 15 -4 0 -6 13 -10
29 -10 26 0 30 -3 28 -26 -1 -17 6 -31 21 -41 20 -14 22 -14 22 1 0 9 -6 16
-14 16 -25 0 -25 27 0 41 21 11 29 10 55 -5 17 -10 37 -15 47 -11 15 6 15 8
-3 15 -17 8 -16 9 8 9 16 1 26 -3 22 -8 -3 -5 -1 -12 5 -16 5 -3 10 1 10 9 0
12 10 16 35 16 27 0 35 -4 35 -19 0 -14 -6 -17 -27 -13 -16 2 -25 2 -22 -2 4
-4 21 -8 38 -8 24 -1 31 -5 26 -16 -4 -12 -3 -13 10 -2 17 14 20 40 4 40 -5 0
-7 5 -4 10 3 6 15 10 26 10 10 0 19 -4 19 -10 0 -5 -4 -10 -10 -10 -16 0 -12
-32 8 -53 16 -19 16 -19 -5 -13 -19 6 -23 3 -23 -12 0 -11 -7 -22 -14 -25 -10
-4 -13 -1 -9 9 3 8 -1 14 -11 14 -20 0 -21 -30 -1 -56 18 -24 19 -34 1 -34 -8
0 -16 -14 -19 -37 -5 -43 2 -56 23 -43 10 7 11 10 3 10 -8 0 -13 13 -13 31 0
28 3 31 24 27 20 -4 23 -1 22 19 0 12 -4 23 -8 23 -15 0 -8 27 10 43 11 10 26
14 40 10 18 -4 22 -1 22 16 0 13 6 21 18 21 14 0 15 2 2 10 -9 6 -17 5 -21 -2
-6 -9 -12 -8 -24 2 -19 16 -9 29 31 36 16 3 36 12 45 20 18 17 56 7 78 -20 11
-13 11 -16 -1 -16 -8 0 -19 5 -26 12 -13 13 -16 0 -4 -18 16 -26 56 -20 85 13
26 30 31 31 97 31 38 0 67 -4 64 -9 -2 -5 -20 -8 -39 -7 -35 1 -60 -11 -39
-19 7 -2 9 -13 7 -24 -5 -18 -7 -17 -21 10 -8 17 -18 31 -23 31 -13 0 -11 -28
2 -32 9 -3 9 -9 0 -25 -27 -52 0 -96 44 -73 25 14 34 45 14 52 -15 5 0 36 22
43 11 4 17 11 14 16 -4 5 -2 9 3 9 6 0 13 -7 16 -16 6 -15 8 -14 24 3 42 49
129 61 161 24 19 -22 51 -28 51 -11 0 6 -9 10 -20 10 -25 0 -26 12 0 27 12 8
21 9 25 3 3 -5 16 -10 28 -10 43 1 87 -13 87 -26 0 -8 9 -14 19 -14 14 0 18 5
14 20 -3 11 0 20 6 20 6 0 11 -9 11 -20 0 -11 7 -20 15 -20 8 0 15 9 15 20 0
15 7 20 25 20 18 0 25 -5 25 -20 0 -25 16 -26 29 -2 8 14 23 17 105 15 53 -1
98 2 101 7 3 5 20 4 38 -1 18 -5 46 -5 62 -1 46 12 87 3 92 -19 3 -10 9 -19
13 -19 5 0 6 8 3 19 -3 11 2 21 11 24 9 4 16 2 16 -3 0 -6 26 -8 60 -6 60 3
86 -6 53 -18 -13 -5 -14 -9 -5 -15 10 -6 10 -11 -3 -21 -22 -18 -19 -30 9 -30
21 0 23 4 22 38 -1 35 1 38 37 46 27 7 44 6 57 -2 15 -9 27 -8 54 3 21 9 36
11 38 5 2 -6 15 -7 35 -1 24 7 35 6 43 -4 8 -9 22 -12 41 -8 35 7 73 -21 66
-49 -4 -15 11 -32 51 -57 12 -7 18 -24 21 -53 1 -5 4 -7 9 -7 21 4 30 -4 37
-28 5 -20 2 -31 -12 -41 -15 -11 -16 -14 -3 -22 8 -5 22 -9 30 -9 11 1 10 3
-2 6 -21 5 -24 23 -4 23 20 0 46 -28 46 -49 0 -10 7 -24 15 -31 8 -7 12 -16 9
-21 -3 -5 -2 -9 3 -8 14 4 43 -13 43 -25 0 -6 14 -23 32 -37 21 -18 29 -32 25
-43 -9 -24 -47 -21 -47 4 0 11 -4 20 -10 20 -5 0 -10 -11 -10 -25 0 -20 5 -25
24 -25 14 0 36 4 50 10 22 8 26 7 26 -9 0 -10 -6 -19 -12 -18 -53 2 -91 -4
-79 -12 8 -5 21 -7 29 -3 12 4 14 0 8 -22 -7 -29 -4 -29 50 -9 7 2 11 -5 10
-17 -1 -17 11 -26 54 -43 39 -16 54 -28 52 -39 -1 -9 2 -19 8 -23 5 -3 10 -14
9 -23 0 -11 -3 -12 -6 -4 -8 20 -22 14 -16 -8 3 -11 10 -17 15 -14 5 3 12 -4
15 -16 4 -15 11 -20 24 -17 10 3 17 0 16 -6 -1 -6 7 -13 18 -15 11 -2 24 -10
28 -18 4 -8 16 -14 26 -14 14 0 17 -6 13 -29 -3 -22 1 -32 15 -40 23 -12 165
-3 157 10 -3 5 -1 9 5 9 5 0 11 -5 13 -12 3 -8 49 -11 158 -10 135 1 156 3
167 18 11 15 13 16 13 2 0 -12 13 -17 48 -20 89 -9 413 -5 418 4 3 5 19 6 35
3 20 -5 29 -3 29 6 0 10 3 10 12 1 15 -15 58 -16 58 0 0 6 8 4 20 -7 17 -15
35 -17 144 -13 85 3 129 8 140 17 13 11 20 11 28 3 11 -11 78 -18 78 -8 0 16
-28 52 -38 48 -7 -2 -10 2 -7 10 3 8 -10 32 -29 54 -19 23 -38 53 -41 67 -4
15 -12 25 -18 24 -6 -1 -13 7 -15 18 -4 18 -2 18 22 -4 14 -13 23 -28 20 -32
-3 -5 1 -9 9 -9 8 0 17 9 20 20 4 15 0 20 -15 20 -11 0 -22 8 -25 20 -3 11 -9
20 -14 20 -5 0 -9 9 -9 20 0 28 -20 25 -21 -2 -1 -16 -3 -18 -6 -7 -2 9 -16
19 -31 22 -18 4 -32 16 -40 36 -8 17 -20 31 -28 31 -8 0 -14 6 -14 13 0 23
-29 75 -45 81 -19 7 -19 26 0 26 8 0 15 -7 15 -15 0 -8 5 -15 10 -15 14 0 12
22 -4 43 -14 19 -46 23 -46 6 0 -5 -5 -7 -11 -3 -6 3 -9 14 -6 24 3 13 -1 16
-19 14 -22 -2 -24 1 -24 42 0 32 -4 44 -15 44 -8 0 -15 4 -15 9 0 5 -14 14
-31 20 -16 6 -29 16 -28 23 3 27 -2 38 -18 38 -9 0 -14 3 -10 6 10 10 -22 64
-38 64 -8 0 -15 4 -15 9 0 5 -7 11 -14 14 -10 4 -13 1 -9 -9 3 -7 0 -14 -6
-14 -15 0 -14 16 2 40 10 17 9 22 -3 30 -25 16 7 30 65 28 28 0 58 2 68 7 9 4
29 5 43 2 20 -3 24 -1 20 12 -4 11 -2 10 9 -3 13 -17 15 -18 15 -3 0 12 8 17
29 17 16 0 34 7 41 15 7 9 18 14 24 12 6 -2 25 3 41 11 17 9 35 16 42 16 6 1
22 10 35 22 13 11 32 23 42 27 9 4 15 11 12 15 -3 5 5 7 18 5 19 -4 26 2 37
26 8 17 19 31 26 31 16 0 32 31 26 50 -4 12 -3 12 5 1 7 -10 14 -6 28 18 10
17 24 31 30 31 14 0 29 54 19 70 -3 5 0 10 8 10 16 0 57 53 57 75 0 8 5 15 10
15 6 0 10 9 10 20 0 11 -7 20 -16 20 -8 0 -12 5 -9 11 7 10 -38 59 -54 59 -5
0 -11 7 -15 15 -3 8 0 15 7 15 6 0 0 11 -15 25 -28 25 -48 32 -48 16 0 -5 7
-12 16 -15 15 -6 15 -8 -1 -26 -9 -10 -14 -24 -10 -29 4 -7 -3 -11 -17 -11
-17 0 -19 3 -9 9 15 10 8 15 -30 25 -37 8 -41 27 -16 67 16 27 22 30 25 17 6
-30 22 -20 18 12 -3 27 -1 30 25 30 16 0 29 -4 29 -9 0 -17 39 -19 61 -3 21
14 22 14 16 -1 -3 -9 -3 -17 1 -17 5 0 18 -13 30 -30 17 -22 19 -30 8 -30 -7
0 -16 9 -19 20 -5 20 -27 28 -27 10 0 -17 -22 -11 -47 12 -20 18 -23 19 -23 5
0 -9 7 -17 16 -17 9 0 21 -13 27 -29 10 -27 12 -28 24 -13 7 10 12 12 13 5 0
-9 10 -11 32 -6 22 4 29 3 24 -6 -4 -6 -12 -9 -17 -6 -13 8 -53 -31 -44 -44 9
-15 42 -14 49 2 5 10 7 10 12 0 8 -18 17 -16 32 8 8 12 9 18 3 14 -6 -3 -11 1
-11 9 0 9 6 16 13 16 15 1 77 96 77 121 0 10 -5 21 -10 24 -6 4 -10 14 -9 23
4 47 -1 62 -23 62 -19 0 -20 2 -8 10 8 5 18 10 21 10 8 0 39 -68 39 -86 0 -8
5 -12 10 -9 6 3 10 15 10 27 0 11 11 29 25 40 14 11 24 25 22 32 -2 6 2 17 9
24 7 7 11 19 8 26 -3 7 2 16 10 19 9 4 16 14 16 23 0 10 5 14 15 10 13 -4 13
-2 5 14 -13 25 -13 30 4 30 8 0 20 16 27 35 7 19 16 35 19 35 4 0 12 11 18 24
7 15 21 26 39 29 15 2 -72 4 -194 5 -123 1 -223 -3 -223 -7 0 -5 -11 -11 -24
-13 -17 -4 -23 -1 -19 8 4 11 -44 14 -265 14 l-270 0 -6 -24 c-5 -19 -11 -22
-32 -18 -31 6 -77 -17 -70 -35 3 -7 1 -13 -4 -13 -6 0 -10 11 -10 24 0 13 -3
32 -7 42 -5 13 -3 15 7 9 9 -5 11 -4 6 3 -4 7 -32 12 -67 12 -49 0 -59 -3 -59
-17 -1 -17 -1 -17 -14 0 -11 14 -30 17 -110 17 l-98 0 -11 -30 c-6 -16 -15
-30 -19 -30 -4 0 -8 -7 -8 -15 0 -8 -8 -25 -17 -37 -35 -44 -115 -118 -126
-117 -27 3 -39 -2 -34 -15 4 -10 -7 -16 -41 -21 -26 -4 -60 -12 -77 -19 -18
-7 -81 -11 -162 -11 -88 1 -133 -2 -133 -9 0 -6 -4 -5 -9 3 -6 9 -11 10 -15 2
-4 -6 -15 -7 -30 -1 -20 7 -164 7 -191 0 -5 -2 -19 1 -29 5 -11 5 -31 4 -48
-3 -23 -8 -35 -8 -49 1 -16 10 -21 9 -28 -1 -7 -11 -12 -12 -29 -1 -16 10 -24
10 -34 1 -10 -8 -24 -9 -46 -3 -20 6 -34 6 -38 0 -3 -6 -12 -5 -22 3 -12 11
-16 11 -20 0 -3 -9 -8 -10 -16 -3 -8 7 -24 7 -47 1 -25 -8 -37 -7 -44 3 -12
15 -49 14 -69 -2 -8 -7 -17 -8 -20 -3 -6 9 -222 8 -273 -2 -22 -4 -33 -2 -33
5 0 7 -14 10 -36 7 -29 -3 -38 -1 -42 14 -5 22 -42 24 -42 3 0 -8 4 -15 9 -15
5 0 7 -9 4 -20 -7 -25 -23 -26 -23 -2 0 12 -8 17 -29 17 -16 0 -33 -3 -37 -7
-4 -4 -13 -3 -21 3 -10 9 -17 8 -28 -1 -12 -10 -16 -9 -21 4 -6 17 -44 23 -44
7 0 -9 -75 -7 -101 3 -8 4 -26 3 -40 -2 -13 -5 -46 -6 -72 -2 -26 4 -50 4 -52
0 -6 -9 -75 1 -75 11 0 5 -4 9 -10 9 -5 0 -10 -7 -10 -15 0 -11 -9 -14 -37
-10 -20 2 -40 10 -44 17 -6 9 -12 8 -27 -5 -10 -10 -26 -15 -35 -11 -8 3 -24
1 -34 -4 -13 -7 -25 -7 -38 1 -22 12 -225 16 -225 5 0 -11 -43 -3 -47 9 -4 11
-63 5 -80 -9 -7 -6 -19 -6 -31 1 -11 6 -22 7 -26 3 -4 -3 -11 0 -15 7 -7 11
-11 10 -22 -2 -25 -26 -86 2 -69 33 10 19 4 30 -16 30 -9 0 -12 -10 -10 -30 5
-43 -10 -50 -84 -40 -44 6 -76 6 -98 -1 -37 -12 -62 1 -62 32 0 13 -5 17 -16
12 -14 -5 -15 -3 -3 18 7 13 12 27 11 32 -3 11 13 8 27 -5 11 -11 11 -9 2 9
-16 31 -15 33 21 33 17 0 28 3 25 7 -4 3 -2 12 4 20 9 10 7 13 -9 13 -15 0
-19 5 -15 20 3 11 9 20 14 20 5 0 9 11 9 25 0 36 33 50 72 30 18 -8 34 -11 37
-6 10 15 74 18 78 4 3 -7 -1 -13 -7 -13 -7 0 -10 -7 -6 -15 4 -13 1 -12 -20 1
-19 13 -28 14 -37 5 -8 -8 -7 -11 6 -11 12 0 17 -8 17 -30 0 -32 14 -40 24
-15 3 8 15 15 27 15 16 0 20 5 16 20 -3 11 -1 17 4 14 5 -3 8 8 7 25 l-2 31
-622 0 c-584 0 -623 -1 -627 -17 -4 -17 -5 -17 -6 0 -1 16 -18 17 -206 17
-194 0 -205 -1 -205 -19z"/>
<path d="M14920 10793 c0 -5 77 -8 170 -8 141 0 172 -3 180 -15 8 -13 14 -13
42 3 29 17 56 18 327 15 163 -3 307 -1 321 3 14 4 -215 7 -507 8 -293 1 -533
-2 -533 -6z"/>
<path d="M19190 10653 c-4 -157 2 -6808 5 -6812 3 -2 5 1533 5 3412 0 1879 -2
3417 -5 3417 -3 0 -5 -8 -5 -17z"/>
<path d="M7719 10253 c-1 -5 -1 -11 0 -15 0 -5 -8 -8 -19 -8 -11 0 -20 -5 -20
-10 0 -12 52 -9 61 3 9 13 59 -4 59 -19 0 -8 12 -19 26 -24 23 -9 24 -13 13
-26 -11 -14 -11 -18 4 -29 21 -15 22 -35 2 -35 -8 0 -15 -7 -15 -15 0 -20 38
-19 42 1 4 21 58 29 58 8 0 -8 4 -14 9 -14 14 0 22 31 11 45 -5 6 -7 15 -3 18
11 12 23 7 23 -9 0 -9 6 -14 13 -11 6 2 12 13 12 25 0 11 10 31 23 45 l23 25
-26 26 c-15 15 -30 24 -33 21 -4 -4 1 -11 11 -16 37 -21 17 -45 -35 -41 -10 1
-18 -5 -18 -13 0 -9 -9 -15 -24 -15 -13 0 -31 -3 -40 -6 -10 -4 -16 -1 -16 9
0 8 7 17 15 21 8 3 15 12 15 21 0 18 -16 20 -23 3 -3 -7 -6 -3 -6 10 -1 12 -5
22 -10 22 -5 0 -7 -9 -4 -20 7 -26 -2 -25 -30 1 -13 12 -31 19 -45 16 -12 -2
-25 0 -28 4 -6 11 -24 12 -25 2z"/>
<path d="M7340 10214 c0 -13 -9 -15 -38 -12 -29 2 -43 -2 -60 -19 -15 -15 -18
-23 -9 -23 7 0 18 5 24 11 6 6 22 12 37 13 22 3 26 -1 26 -23 0 -14 -4 -21 -8
-15 -7 10 -52 14 -52 4 0 -10 41 -31 49 -25 5 3 11 -2 15 -10 3 -8 1 -17 -4
-20 -6 -4 -10 -1 -10 4 0 6 -5 11 -11 11 -6 0 -9 -7 -5 -15 3 -8 2 -23 -1 -32
-6 -15 -8 -14 -13 7 -4 18 -14 26 -33 28 -33 4 -46 -20 -23 -43 14 -15 16 -15
16 -1 0 9 7 16 16 16 14 0 15 -2 3 -17 -11 -13 -11 -17 -1 -21 10 -3 10 -7 1
-18 -9 -11 -7 -14 9 -14 12 0 23 9 27 20 3 11 17 23 30 26 14 3 23 11 22 17
-1 6 11 13 27 16 17 3 29 10 29 16 -2 13 -23 19 -23 6 0 -17 -27 -13 -34 5 -9
23 -8 24 14 24 23 0 41 31 22 38 -7 2 -12 14 -12 27 0 12 -7 25 -15 29 -9 3
-15 0 -15 -10z"/>
<path d="M6435 10180 c3 -5 16 -10 28 -11 19 -1 18 -2 -8 -14 -16 -7 -31 -9
-33 -4 -5 14 -29 11 -35 -5 -7 -16 11 -36 33 -36 8 0 23 -8 31 -17 9 -10 24
-23 34 -29 12 -7 16 -15 10 -24 -7 -11 -10 -10 -16 6 -7 18 -8 18 -15 -3 -3
-13 -10 -23 -13 -23 -4 0 -6 -13 -3 -29 3 -20 8 -28 18 -24 8 3 14 10 13 17
-4 29 2 37 20 31 14 -4 21 0 27 17 8 21 9 20 14 -11 3 -19 11 -36 18 -39 20
-6 13 39 -13 88 -14 25 -33 62 -43 82 -14 31 -22 38 -45 38 -16 0 -26 -4 -22
-10z"/>
<path d="M7087 10184 c-3 -3 -2 -16 3 -29 6 -17 5 -25 -4 -28 -7 -3 -16 -19
-19 -37 -6 -27 -10 -30 -28 -25 -17 6 -21 4 -16 -9 3 -8 0 -21 -7 -28 -7 -7
-11 -19 -8 -26 4 -13 -7 -15 -32 -6 -9 3 -16 13 -16 21 0 25 -25 8 -26 -18 0
-14 -4 -30 -8 -37 -4 -7 -2 -19 4 -27 15 -18 4 -54 -26 -82 -13 -12 -24 -25
-24 -28 0 -10 36 -5 48 7 9 9 12 8 12 -6 0 -16 4 -15 26 7 21 22 29 24 44 14
22 -13 28 -37 25 -89 -3 -45 7 -49 24 -10 8 15 17 34 21 43 5 9 4 22 -1 30 -5
8 -9 10 -9 4 0 -5 -5 -2 -11 8 -5 9 -19 17 -29 17 -11 0 -20 5 -20 11 0 5 5 7
10 4 6 -3 10 -1 10 5 0 6 -6 13 -14 16 -8 3 -12 12 -9 20 4 10 0 12 -11 8 -11
-4 -16 -1 -16 11 0 9 4 13 10 10 6 -3 7 1 4 9 -3 9 -10 14 -14 11 -4 -3 -13 2
-20 10 -10 12 -7 14 23 10 28 -4 37 -1 40 13 4 13 5 12 6 -5 0 -12 5 -24 10
-27 11 -7 35 20 28 31 -2 4 -1 17 4 28 7 18 8 18 8 2 1 -11 7 -17 17 -15 10 2
19 -3 22 -11 3 -9 -1 -11 -17 -6 -24 7 -29 -10 -5 -19 44 -17 70 4 42 32 -7 7
2 6 20 -3 37 -19 56 -15 72 15 11 20 10 21 -10 10 -26 -14 -38 -6 -21 14 9 11
9 16 0 21 -12 8 -28 -11 -29 -35 -1 -11 -4 -10 -15 4 -8 11 -11 22 -7 25 5 3
12 21 15 40 6 27 3 37 -12 47 -12 9 -17 21 -14 34 4 16 0 20 -19 20 -14 0 -27
-3 -31 -6z"/>
<path d="M8044 10175 c3 -8 -3 -20 -13 -27 -10 -7 -25 -25 -35 -40 -17 -25
-17 -27 1 -37 23 -12 38 -4 47 25 7 23 36 29 36 7 0 -7 -6 -29 -14 -48 -14
-33 -14 -35 8 -53 l23 -18 -28 -28 c-16 -16 -26 -33 -23 -37 8 -14 34 -10 34
5 0 7 7 19 15 26 15 13 21 60 8 60 -5 0 -9 14 -10 30 -1 17 2 30 7 30 15 0 30
-36 30 -69 0 -35 5 -38 26 -16 10 9 24 13 40 9 18 -5 24 -2 24 10 0 9 5 16 11
16 5 0 7 5 4 10 -10 16 -38 12 -32 -5 4 -8 1 -17 -5 -21 -7 -4 -8 -3 -4 4 4 7
1 12 -8 12 -10 0 -15 8 -13 23 2 18 -3 22 -25 20 -27 -2 -37 15 -39 67 0 20
-2 21 -7 7 -7 -16 -8 -16 -24 3 -10 11 -15 26 -12 35 4 10 0 15 -11 15 -11 0
-15 -5 -11 -15z"/>
<path d="M7665 10168 c-7 -17 17 -53 28 -42 10 10 47 -7 58 -27 9 -18 8 -19
-10 -7 -16 10 -23 10 -33 0 -18 -18 -39 -15 -36 6 2 11 -4 18 -19 20 -20 3
-23 -1 -23 -27 0 -28 3 -30 48 -37 26 -3 51 -9 56 -12 14 -8 -23 -20 -62 -21
-22 -1 -32 -5 -29 -13 2 -8 20 -12 45 -12 30 1 42 -2 42 -12 0 -8 7 -14 15
-14 15 0 18 -9 16 -40 0 -10 1 -11 5 -2 3 6 12 12 19 12 7 0 15 8 17 17 2 12
14 18 37 19 35 2 53 18 48 44 -3 19 -39 27 -36 8 3 -28 -2 -38 -21 -38 -11 0
-20 7 -20 15 0 8 5 15 11 15 5 0 7 5 4 10 -4 6 -12 10 -18 9 -31 -4 -47 2 -47
18 0 13 3 14 12 5 19 -19 31 -14 25 9 -4 15 0 23 14 26 22 6 25 31 5 39 -8 3
-24 0 -36 -6 -20 -11 -21 -10 -15 9 6 21 -13 30 -29 14 -16 -16 -44 -11 -54
10 -9 20 -11 20 -17 5z"/>
<path d="M4560 8690 c0 -5 -8 -10 -18 -10 -24 0 -42 -19 -42 -44 1 -20 1 -20
14 -3 17 22 46 12 46 -15 0 -16 -5 -19 -24 -14 -18 4 -28 1 -35 -11 -10 -17
-12 -17 -21 0 -14 22 -21 22 -49 -5 -19 -17 -27 -19 -42 -10 -22 14 -33 1 -24
-28 8 -25 31 -26 44 -2 9 14 12 14 20 3 6 -9 10 -10 16 -2 5 9 10 9 20 1 8 -6
16 -7 19 -2 3 5 17 7 30 5 22 -4 24 -2 20 18 -5 21 -4 22 6 7 13 -21 64 -25
57 -5 -2 6 5 23 15 37 19 24 19 24 0 40 -11 8 -22 23 -25 33 -7 18 -27 24 -27
7z"/>
<path d="M8264 8676 c-18 -14 -18 -15 -1 -21 33 -13 16 -25 -30 -21 -53 4 -73
-6 -73 -38 0 -19 -6 -21 -57 -22 -35 0 -58 -5 -61 -12 -2 -7 -12 -12 -23 -12
-10 0 -19 -5 -19 -12 0 -6 2 -9 6 -6 3 3 21 2 40 -2 19 -4 36 -5 38 -1 3 4 19
8 36 9 17 1 41 11 52 22 23 21 75 23 82 3 3 -7 -1 -10 -7 -7 -7 2 -22 -5 -34
-16 -12 -11 -34 -20 -48 -20 -14 0 -25 -4 -25 -10 0 -21 171 0 196 24 8 9 22
16 29 16 9 0 12 6 9 15 -7 17 9 19 36 5 13 -7 21 -5 31 7 9 10 9 14 2 10 -8
-5 -13 4 -15 30 -3 34 -28 62 -28 30 0 -17 -28 -43 -37 -33 -3 3 -1 17 5 30 7
17 7 27 -1 35 -16 16 -79 14 -103 -3z"/>
<path d="M6999 8628 c-8 -99 7 -143 45 -133 19 5 19 5 4 -5 -10 -6 -18 -20
-18 -31 0 -16 5 -19 20 -14 11 4 20 2 20 -4 0 -6 9 -11 19 -11 12 0 21 -8 24
-22 3 -21 4 -21 12 -5 6 14 1 25 -19 42 -18 16 -23 26 -15 30 6 4 15 1 20 -6
4 -7 11 -10 15 -6 4 4 -10 22 -31 40 l-39 33 22 22 c22 22 31 82 12 82 -5 0
-10 -11 -10 -24 0 -29 -30 -30 -45 -2 -12 24 -35 33 -36 14z"/>
<path d="M0 6607 c0 -1027 3 -1867 8 -1867 4 0 7 837 7 1859 0 1023 -3 1863
-7 1867 -5 4 -8 -833 -8 -1859z"/>
<path d="M1 3700 c0 -476 4 -856 8 -845 5 11 8 181 8 378 0 289 3 361 13 367
11 7 11 11 1 23 -14 18 -20 443 -8 539 5 36 4 59 -3 63 -6 4 -9 59 -6 153 2
81 0 156 -4 167 -5 11 -8 -369 -9 -845z"/>
<path d="M4590 3455 c0 -35 -29 -65 -62 -65 -40 0 -35 -20 5 -21 28 0 29 -1
11 -9 -46 -18 -39 -33 11 -27 34 3 44 2 32 -5 -13 -7 -15 -13 -7 -28 9 -17 8
-20 -12 -17 -18 2 -24 -4 -26 -26 -4 -33 -22 -26 -22 8 0 13 -4 27 -10 30 -5
3 -10 18 -10 32 0 18 -4 24 -15 19 -18 -6 -20 15 -4 31 6 6 8 16 4 23 -10 16
-33 -19 -33 -50 0 -14 -3 -36 -6 -50 -4 -14 -2 -32 3 -40 8 -12 13 -12 30 4
22 20 30 9 9 -12 -10 -10 -8 -14 9 -18 15 -4 19 -11 15 -27 -4 -16 -2 -19 13
-14 9 4 24 2 32 -5 11 -9 16 -9 24 3 13 21 10 -3 -4 -26 -7 -11 -18 -20 -24
-21 -29 -2 -33 -5 -33 -24 0 -11 -7 -20 -15 -20 -11 0 -13 8 -8 33 7 41 7 39
-1 60 -5 9 -14 17 -22 17 -8 0 -11 6 -8 15 5 11 2 13 -10 9 -19 -7 -21 -30 -3
-37 10 -4 10 -6 0 -6 -7 -1 -13 -8 -13 -17 0 -11 6 -14 20 -9 23 7 26 -6 9
-37 -7 -14 -8 -23 -1 -27 11 -7 15 -26 12 -56 -1 -11 -4 -15 -7 -7 -2 6 -11
12 -20 12 -10 0 -12 -6 -7 -22 6 -21 6 -21 -11 -4 -12 11 -21 14 -28 7 -5 -5
-16 -7 -25 -4 -8 4 -13 2 -11 -3 21 -44 28 -61 33 -76 7 -24 28 -23 44 3 10
16 10 24 1 35 -9 11 -8 14 4 14 8 0 17 6 19 12 3 9 9 8 22 -5 10 -9 21 -17 26
-17 5 0 15 -3 24 -6 9 -3 16 -1 16 5 0 6 -9 11 -20 11 -10 0 -25 10 -31 22
-10 18 -8 24 7 35 10 7 28 13 40 13 34 0 54 10 54 29 0 9 13 24 28 35 38 25
40 62 5 71 l-27 6 26 22 c14 12 27 29 31 37 3 9 6 10 6 3 1 -7 8 -10 17 -6 13
5 15 2 10 -14 -4 -12 -1 -25 9 -33 13 -11 15 -9 15 12 0 13 5 29 12 36 18 18
-9 41 -52 45 -27 2 -36 8 -41 27 -4 14 -7 19 -8 13 -1 -18 -21 -16 -21 1 0 22
-19 30 -35 16 -8 -7 -15 -8 -15 -3 0 5 11 15 24 23 20 10 25 20 24 51 0 26 -5
39 -14 39 -8 0 -14 -10 -14 -25z"/>
<path d="M4290 3092 c0 -11 -17 -35 -46 -66 -7 -7 -14 -21 -16 -32 -5 -27 -38
-31 -45 -6 -3 13 -11 18 -19 15 -16 -6 -19 -43 -4 -43 6 0 10 -7 10 -14 0 -12
-6 -13 -32 -4 -26 9 -33 8 -45 -7 -12 -18 -13 -18 -13 2 0 11 -7 26 -15 33
-20 17 -19 30 3 31 14 0 14 2 -3 9 -35 15 -55 12 -48 -7 4 -10 13 -24 20 -32
10 -10 11 -17 3 -26 -13 -16 3 -51 33 -74 13 -9 17 -20 12 -38 -4 -18 -1 -29
12 -39 16 -13 15 -13 -10 -2 -36 15 -56 -1 -32 -26 9 -9 21 -14 26 -11 5 4 9
-8 9 -24 0 -32 16 -41 37 -20 8 8 11 1 10 -26 -1 -21 -3 -33 -5 -26 -2 6 -10
11 -17 11 -8 0 -20 9 -28 20 -9 13 -20 18 -31 14 -11 -4 -16 -1 -16 10 0 9 -8
16 -18 16 -16 0 -19 -7 -17 -45 1 -35 -4 -50 -21 -66 l-21 -20 4 25 c4 21 2
26 -16 26 -12 0 -34 -6 -49 -13 -17 -8 -40 -11 -62 -6 -19 3 -27 7 -17 8 9 0
17 7 17 15 0 18 -38 10 -65 -15 -17 -15 -32 -17 -77 -13 -35 3 -59 1 -63 -6
-3 -6 -11 -8 -16 -4 -6 4 -6 11 2 20 14 17 12 19 -18 28 -17 6 -22 2 -25 -16
-3 -20 -8 -23 -38 -20 -45 5 -46 7 -33 42 14 37 2 46 -36 27 -16 -8 -34 -11
-41 -7 -9 6 -9 9 1 13 12 4 11 7 -1 16 -10 7 -11 11 -2 11 6 0 12 7 12 16 0 9
-7 14 -17 12 -13 -2 -17 -11 -15 -31 2 -19 -1 -27 -12 -27 -20 0 -26 -12 -19
-38 7 -28 17 -28 31 1 10 21 11 21 11 1 1 -31 -17 -44 -47 -33 -14 5 -33 7
-41 3 -33 -14 -82 -11 -94 6 -13 19 -73 22 -70 4 1 -6 -9 -11 -22 -11 -28 0
-29 1 -15 26 7 15 4 21 -18 31 -36 18 -51 20 -58 9 -3 -5 -10 -7 -15 -4 -5 4
-9 -3 -9 -14 0 -10 -6 -21 -12 -24 -7 -2 -9 -8 -5 -13 5 -5 17 2 27 16 l20 25
0 -27 c0 -15 -5 -30 -10 -33 -6 -4 -8 -11 -5 -16 4 -5 1 -9 -4 -9 -6 0 -11 6
-11 14 0 17 -27 29 -35 15 -4 -5 -11 -7 -16 -3 -6 3 -25 7 -44 8 -22 1 -31 -3
-28 -11 7 -17 -9 -17 -25 -1 -10 10 -15 10 -22 -2 -9 -13 -11 -13 -19 -1 -5 8
-16 11 -25 8 -9 -4 -26 -1 -37 6 -17 10 -22 9 -33 -5 -12 -16 -14 -16 -24 6
-8 18 -20 25 -51 28 -24 2 -40 -1 -40 -7 1 -5 1 -19 0 -30 -1 -17 -3 -18 -11
-5 -5 8 -10 11 -11 5 -1 -5 -5 8 -8 30 -5 28 -3 45 8 58 10 13 11 21 4 28 -17
17 -33 1 -33 -30 0 -15 -3 -31 -7 -35 -4 -4 -8 -15 -8 -24 0 -15 -17 -17 -140
-20 -131 -2 -138 -1 -111 13 16 9 32 12 35 7 3 -5 22 -9 42 -10 35 -1 37 1 41
33 5 42 -11 45 -72 16 -22 -11 -40 -16 -40 -12 0 12 36 42 43 35 3 -3 5 8 5
25 -1 31 -28 46 -28 16 0 -8 -4 -15 -9 -15 -13 0 -41 -58 -35 -73 2 -7 -5 -18
-17 -25 -17 -11 -23 -11 -36 0 -13 10 -17 10 -20 1 -6 -17 -33 -16 -47 1 -6 8
-24 16 -41 18 -23 2 -32 -2 -40 -19 -11 -26 -25 -30 -25 -9 0 24 12 46 21 40
14 -8 10 9 -7 34 -9 13 -14 24 -13 25 2 1 18 12 36 25 42 29 46 28 38 -7 -4
-21 -2 -30 11 -35 14 -5 16 -1 11 27 -5 30 14 85 27 80 15 -7 24 -1 36 22 12
22 11 27 -4 44 -23 25 -49 17 -41 -13 4 -15 3 -17 -3 -8 -5 8 -23 12 -43 10
-29 -3 -34 0 -31 17 2 11 10 25 18 31 23 18 16 34 -16 34 -31 0 -37 -9 -20
-26 8 -8 6 -15 -5 -24 -13 -11 -15 -9 -15 14 0 14 -4 26 -10 26 -5 0 -10 -9
-10 -20 0 -14 -7 -20 -22 -20 -21 -1 -21 -2 -5 -11 9 -5 17 -19 17 -29 0 -23
-4 -24 -30 -10 -13 7 -21 7 -25 0 -3 -5 -1 -10 5 -10 6 0 19 -7 28 -16 15 -15
17 -15 34 6 9 12 22 19 27 16 13 -9 1 -88 -17 -108 -16 -19 -32 -15 -32 8 0 8
5 12 10 9 6 -3 10 3 10 14 0 10 6 21 13 24 23 8 0 18 -27 11 -17 -4 -26 -13
-26 -25 0 -11 -7 -22 -15 -25 -21 -9 -19 -32 5 -39 11 -3 20 -15 20 -26 0 -10
6 -19 14 -19 8 0 14 -10 14 -24 0 -18 -7 -25 -24 -29 -17 -3 -24 0 -22 10 2
10 -17 22 -58 36 -64 21 -98 18 -88 -7 3 -8 12 -12 20 -9 8 3 14 0 14 -5 0
-14 -29 -22 -65 -18 -16 2 -42 -2 -56 -10 -27 -14 -42 -9 -52 19 -8 20 -29 23
-25 3 2 -8 -1 -14 -7 -13 -5 1 -9 23 -7 50 1 26 -1 47 -5 47 -18 -1 -31 -17
-37 -46 -5 -24 -3 -33 9 -38 9 -3 13 -10 10 -16 -4 -6 -12 -7 -18 -3 -7 4 -25
6 -40 4 -25 -2 -28 0 -22 18 4 13 -1 27 -16 42 -19 19 -20 23 -5 31 21 12 21
30 -1 27 -40 -4 -51 1 -46 20 7 26 -14 36 -33 16 -12 -12 -20 -13 -29 -5 -10
9 -16 6 -25 -9 -12 -24 -32 -29 -24 -6 10 25 -22 17 -40 -10 -16 -24 -16 -25
9 -25 14 0 25 -5 25 -11 0 -8 5 -7 15 1 24 20 28 6 9 -36 -9 -22 -16 -43 -15
-47 1 -5 -8 -6 -19 -2 -11 3 -20 2 -20 -3 0 -5 -11 -7 -24 -5 -37 7 -23 41 16
39 17 0 33 5 35 12 3 7 -4 12 -18 12 -21 0 -21 1 -5 13 16 12 16 13 -3 14 -11
1 -23 -2 -26 -8 -4 -5 -14 -9 -25 -9 -21 0 -34 -26 -17 -34 8 -3 6 -10 -7 -20
-23 -18 -36 -20 -36 -6 0 6 5 10 10 10 6 0 10 4 10 10 0 5 -7 7 -15 4 -11 -5
-13 -2 -9 10 3 9 1 16 -5 16 -6 0 -11 -5 -11 -12 0 -6 -7 -3 -15 8 -13 17 -14
17 -15 2 0 -29 -22 -32 -42 -7 l-19 24 3 -37 4 -38 -156 -2 c-85 0 -167 0
-182 1 -14 1 -29 -3 -33 -9 -4 -6 -13 -7 -23 -1 -22 11 -57 8 -75 -7 -12 -10
-16 -9 -21 3 -6 17 -42 20 -52 4 -3 -6 -17 -9 -31 -6 -28 5 -42 -16 -24 -37
15 -18 5 -40 -25 -56 -30 -17 -31 -28 -2 -40 13 -5 21 -9 18 -10 -32 -9 -50
-8 -51 3 -1 6 -2 19 -3 27 0 8 8 17 19 21 19 5 18 6 -7 23 -28 18 -58 16 -58
-4 0 -5 7 -10 16 -10 11 0 14 -5 10 -16 -4 -9 1 -28 10 -41 8 -14 13 -31 10
-39 -3 -8 0 -14 6 -14 6 0 6 -6 -3 -16 -11 -13 -10 -17 4 -25 9 -6 17 -17 17
-26 0 -12 -8 -8 -31 15 -26 26 -29 34 -19 52 9 16 8 22 -5 26 -21 8 -25 3 -30
-39 -4 -29 -1 -37 15 -42 26 -8 26 -29 1 -22 -13 3 -18 0 -15 -7 3 -7 -4 -20
-15 -30 l-20 -19 20 -29 c12 -16 18 -32 14 -36 -3 -4 -11 1 -17 11 -8 15 -12
16 -24 6 -11 -9 -12 -14 -3 -19 6 -4 8 -13 5 -19 -4 -6 -12 -8 -18 -5 -6 4 -8
2 -4 -4 3 -6 0 -16 -7 -24 -21 -21 -27 -46 -13 -57 7 -6 16 -8 19 -4 4 3 7 -4
7 -16 0 -12 -4 -20 -9 -17 -5 3 -12 -2 -15 -11 -6 -15 -9 -15 -16 -3 -7 11
-14 12 -34 2 -21 -9 -24 -15 -17 -34 6 -16 20 -25 50 -31 22 -4 41 -12 41 -18
0 -12 -27 -12 -35 1 -11 18 -61 11 -81 -12 -28 -32 -45 -75 -37 -95 4 -10 2
-14 -4 -10 -6 4 -22 -2 -36 -13 -13 -11 -38 -25 -53 -32 l-29 -12 27 -4 c20
-2 28 -9 28 -23 0 -10 -4 -19 -10 -19 -14 0 -12 -37 3 -43 6 -3 3 -6 -8 -6
-17 -1 -17 -3 -5 -11 12 -7 8 -11 -16 -16 -23 -4 -36 -15 -47 -40 -15 -31 -15
-34 1 -43 17 -11 17 -11 -24 -15 -6 -1 -18 -8 -27 -17 -12 -13 -15 -45 -16
-181 -1 -127 1 -167 11 -171 10 -4 10 -6 1 -6 -18 -1 -18 -247 0 -254 9 -4 9
-6 0 -6 -9 -1 -13 -17 -13 -46 0 -43 1 -45 20 -35 11 6 20 7 20 2 0 -6 -9 -12
-20 -15 -15 -4 -20 -14 -20 -37 0 -24 4 -31 15 -26 9 3 15 0 15 -10 0 -10 -6
-14 -15 -10 -13 5 -15 -13 -15 -124 0 -78 4 -130 10 -130 14 0 23 45 16 76 -5
20 -3 27 14 31 20 5 28 23 10 23 -5 0 -10 7 -10 15 0 8 -4 15 -10 15 -5 0 -10
8 -10 18 1 15 2 16 13 1 7 -9 22 -19 35 -23 16 -5 21 -13 17 -25 -7 -23 34
-45 74 -39 16 2 28 1 25 -4 -7 -11 -1 -10 33 3 36 15 86 11 96 -7 15 -26 26
-14 33 36 4 28 11 53 16 56 6 4 7 -2 3 -15 -4 -13 -1 -28 5 -36 9 -11 9 -15 1
-15 -6 0 -11 -6 -11 -13 0 -9 15 -12 52 -11 61 3 98 -4 98 -18 0 -6 -7 -8 -15
-4 -10 4 -15 -1 -15 -15 0 -11 4 -17 10 -14 6 4 18 1 26 -6 13 -11 18 -10 26
4 5 10 13 15 19 12 5 -4 9 3 9 14 0 23 0 23 127 25 35 0 63 -2 63 -6 0 -5 9
-8 19 -8 10 0 18 -6 17 -13 0 -6 4 -12 9 -12 6 0 9 8 8 17 -3 18 6 22 40 18
10 -1 24 5 30 14 7 8 24 18 39 21 20 5 27 3 32 -13 5 -14 19 -21 53 -26 67 -9
103 -7 103 5 0 5 5 7 10 4 6 -4 17 -1 25 5 9 7 15 8 15 2 0 -5 11 -12 25 -14
14 -3 25 -2 25 2 0 5 9 6 20 3 16 -4 21 1 26 26 7 33 21 41 30 16 4 -8 10 -13
14 -10 5 3 6 -4 3 -15 -4 -15 0 -20 16 -20 11 0 21 6 21 13 0 8 4 7 10 -3 9
-13 11 -13 20 0 6 10 10 11 10 3 0 -19 45 2 80 37 35 35 40 37 40 10 0 -12
-10 -25 -25 -32 -14 -6 -25 -15 -25 -21 0 -11 65 0 91 16 18 11 18 12 -3 28
l-21 17 22 7 c15 5 21 14 20 28 -5 38 21 96 52 118 39 28 49 17 16 -17 -15
-15 -27 -31 -27 -35 0 -14 51 -22 63 -10 17 17 33 13 34 -10 2 -18 -2 -20 -24
-14 -24 6 -25 4 -18 -22 8 -35 14 -41 24 -24 6 10 12 9 25 -4 9 -9 16 -22 16
-28 0 -9 -2 -9 -8 -1 -7 12 -67 12 -78 1 -12 -12 6 -37 26 -37 12 0 19 -4 16
-8 -3 -5 17 -9 45 -11 59 -2 78 12 76 60 -2 26 2 34 18 37 16 4 17 2 7 -11 -9
-10 -10 -22 -2 -41 8 -21 7 -26 -5 -26 -8 0 -15 -4 -15 -10 0 -5 16 -10 35
-10 31 0 35 3 35 25 0 14 -6 28 -14 31 -12 5 -11 9 5 25 28 28 24 49 -9 49
-22 0 -30 7 -39 30 -9 25 -9 30 3 30 8 0 19 -12 24 -26 17 -45 35 -22 41 54 5
66 19 113 19 64 0 -11 6 -23 13 -25 9 -4 8 -8 -3 -16 -13 -10 -13 -12 0 -21
30 -20 42 -12 38 24 -3 27 0 36 14 39 10 3 18 13 18 22 0 12 5 15 16 11 9 -3
21 -6 27 -6 6 0 1 -10 -11 -22 -11 -13 -22 -30 -24 -38 -2 -8 -10 -20 -18 -27
-13 -11 -12 -12 8 -13 25 0 30 -15 8 -23 -8 -3 -17 1 -20 10 -5 12 -9 13 -21
3 -8 -7 -15 -18 -15 -25 0 -8 -3 -15 -7 -18 -5 -2 -3 -2 4 -1 7 2 15 -1 18 -6
4 -6 1 -10 -6 -10 -6 0 -10 -10 -7 -23 5 -24 -16 -52 -31 -42 -13 7 -25 -51
-14 -67 4 -7 8 -22 8 -32 0 -11 6 -21 13 -23 7 -3 12 5 12 20 0 14 -4 27 -10
29 -6 2 -6 9 0 18 8 12 11 12 27 -2 13 -12 36 -17 81 -16 49 1 69 -4 91 -20
26 -19 29 -19 42 -4 14 17 18 25 20 40 0 4 4 -3 9 -15 10 -26 28 -30 36 -10 7
18 -14 70 -25 63 -5 -3 -14 1 -21 10 -10 12 -11 17 -1 27 10 9 11 8 6 -4 -4
-12 1 -18 19 -21 14 -3 26 -2 26 1 0 3 16 6 35 7 19 0 35 -3 35 -8 0 -8 -22
-12 -52 -10 -10 1 -18 -4 -18 -11 1 -23 27 -47 51 -46 13 0 18 3 12 6 -24 9
-13 19 25 21 30 2 34 0 19 -9 -9 -5 -15 -14 -12 -20 9 -13 85 -11 85 2 0 11
11 10 55 -6 14 -5 16 -4 7 3 -11 7 -9 10 8 15 12 3 19 10 15 16 -3 7 2 11 14
11 26 0 27 -15 4 -25 -16 -6 -15 -8 7 -17 l25 -10 -22 -9 c-28 -10 -30 -29 -3
-29 11 0 20 5 20 10 0 6 8 10 18 10 9 0 30 12 46 27 27 25 64 36 76 23 3 -3
23 -13 45 -21 32 -12 43 -13 52 -4 9 9 4 18 -17 34 -32 23 -31 51 1 51 13 0
19 -7 19 -24 0 -28 14 -42 53 -51 27 -7 27 -6 23 28 -3 27 -1 34 9 30 10 -3
12 -14 8 -34 -6 -30 4 -38 24 -18 8 8 13 5 18 -10 6 -20 8 -20 35 -6 37 19 36
19 45 -7 6 -22 7 -22 20 7 11 25 14 27 20 13 4 -11 18 -18 34 -18 33 0 48 10
52 34 2 11 10 21 18 24 10 3 13 -2 9 -22 -4 -21 -1 -26 16 -27 138 -8 166 -6
166 12 0 6 -14 9 -30 7 -25 -2 -33 2 -45 25 -15 29 -5 37 16 11 8 -10 21 -13
36 -10 18 5 24 1 29 -19 7 -26 5 -26 124 -29 l45 -1 -1 42 c0 24 2 43 5 43 11
-1 42 -50 31 -50 -5 0 -10 -7 -10 -16 0 -17 40 -16 52 1 5 6 8 4 8 -6 0 -8 -5
-20 -12 -27 -9 -9 -9 -15 0 -24 15 -15 27 -3 36 34 4 19 2 28 -6 28 -9 0 -9 3
-1 11 6 6 9 18 6 25 -3 8 3 17 13 21 11 3 21 10 24 13 3 4 25 10 50 14 l45 6
-25 -20 c-14 -11 -31 -18 -37 -15 -7 2 -13 0 -13 -4 0 -5 6 -12 13 -15 6 -3 2
-3 -11 0 -30 7 -57 -13 -41 -32 6 -8 15 -11 20 -8 5 3 18 -1 29 -9 24 -16 70
-11 70 8 0 14 37 31 47 22 2 -3 -5 -8 -17 -12 -22 -7 -22 -32 0 -27 7 2 17 -2
21 -9 4 -7 14 -9 25 -4 28 12 47 16 68 16 13 0 17 5 13 20 -3 11 0 19 8 19 7
0 15 -9 18 -20 3 -11 13 -20 24 -20 17 1 17 2 -2 17 -19 15 -18 15 14 9 18 -3
40 -6 47 -6 8 0 14 -6 14 -14 0 -17 50 -28 66 -15 7 5 16 9 20 8 5 -1 14 -1
19 0 6 1 48 2 95 2 65 1 87 -3 96 -15 6 -9 14 -13 17 -10 3 3 15 1 26 -6 14
-7 21 -7 21 0 0 5 14 10 30 10 22 0 30 5 30 18 0 10 3 13 8 6 11 -17 35 -22
56 -12 13 7 21 6 26 -3 6 -9 16 -9 43 4 41 20 54 21 59 6 4 -13 58 -1 58 12 0
6 8 5 19 -1 20 -10 51 -4 62 13 4 5 18 2 33 -8 26 -17 26 -17 24 6 -2 18 1 23
15 21 25 -4 95 58 102 90 6 27 30 38 37 18 2 -5 18 -14 36 -19 28 -9 32 -7 32
10 0 13 -7 19 -22 20 -13 0 -17 3 -10 6 26 10 12 41 -24 53 -30 10 -38 9 -55
-6 -10 -9 -19 -23 -19 -29 0 -7 -10 -15 -22 -19 -41 -10 -44 -6 -13 19 17 14
24 25 18 25 -7 0 -13 7 -13 15 0 8 -4 15 -9 15 -11 0 -25 -30 -22 -47 1 -7 -3
-13 -9 -13 -5 0 -10 5 -10 11 0 6 -9 9 -20 6 -21 -5 -28 7 -10 18 13 8 13 52
1 60 -5 3 -12 -3 -14 -12 -3 -10 -4 -3 -3 15 3 37 10 47 26 37 9 -6 9 -9 0
-15 -9 -6 -6 -11 9 -20 27 -14 55 -5 47 15 -3 8 0 15 7 15 7 0 13 -12 14 -26
0 -15 6 -30 12 -34 7 -3 9 -14 5 -23 -3 -10 -1 -17 5 -17 6 0 11 7 11 15 0 8
6 15 13 15 18 0 17 71 -2 91 -9 9 -26 22 -38 28 -13 6 -23 16 -23 21 0 18 35
10 48 -10 7 -11 19 -20 27 -20 19 0 19 10 1 35 -7 11 -16 30 -20 42 -6 18 -4
22 7 17 9 -3 16 3 20 16 3 12 10 19 15 16 6 -3 8 -15 5 -26 -4 -16 0 -20 21
-20 14 0 26 -4 26 -10 0 -5 -7 -10 -15 -10 -17 0 -19 -9 -5 -30 9 -13 11 -13
20 0 5 8 10 30 10 48 0 31 1 31 18 15 11 -11 17 -28 14 -43 -2 -14 -3 -33 -3
-43 0 -15 -5 -18 -24 -13 -13 3 -27 1 -30 -5 -5 -6 -11 -4 -19 7 -18 24 -30 0
-14 -28 7 -13 11 -29 10 -35 -2 -7 6 -23 18 -35 11 -12 20 -26 20 -31 0 -7 38
-1 48 9 2 1 -11 16 -29 32 -27 24 -30 32 -21 48 6 10 12 13 12 7 0 -20 30 -15
31 5 0 10 3 12 6 5 2 -7 13 -13 24 -13 20 0 26 15 9 25 -5 3 -10 14 -10 23 1
16 1 16 11 0 13 -22 49 -24 49 -2 0 8 -5 24 -11 36 -9 17 -8 19 8 14 27 -9 89
49 74 68 -9 10 -8 15 4 20 11 4 14 13 9 30 -3 14 -3 34 1 46 5 17 9 19 21 9
12 -10 16 -8 21 9 3 12 9 22 14 22 5 0 9 15 9 33 0 21 9 40 25 56 14 13 25 29
25 35 0 19 47 77 71 90 27 13 37 36 16 36 -9 0 -17 -3 -20 -7 -2 -5 -2 -3 -1
4 2 6 -3 14 -10 16 -24 9 -186 5 -186 -4 0 -6 -6 -7 -12 -2 -18 11 -52 10 -60
-2 -5 -7 -14 -6 -27 2 -24 15 -65 3 -74 -21 -5 -13 -1 -15 21 -10 l27 6 -25
-21 c-22 -17 -23 -23 -12 -40 19 -32 14 -37 -8 -8 -11 14 -20 30 -20 36 0 6
-7 11 -15 11 -8 0 -15 -7 -15 -16 0 -9 -6 -14 -12 -11 -7 2 -12 14 -10 25 2
15 -2 22 -13 22 -9 0 -15 5 -13 12 6 18 -39 61 -57 54 -8 -3 -14 -11 -13 -17
4 -15 -48 -18 -86 -6 -20 7 -30 6 -36 -3 -5 -7 -7 -2 -7 14 0 15 -3 29 -6 32
-10 10 -27 -6 -27 -26 0 -23 -22 -31 -60 -23 -18 3 -30 1 -30 -5 0 -7 -10 -8
-30 -2 -47 13 -53 20 -33 35 17 13 17 14 -2 10 -11 -2 -23 -4 -27 -4 -5 -1 -8
-10 -8 -21 0 -13 -7 -20 -20 -20 -11 0 -20 -3 -20 -7 0 -5 -11 -13 -25 -20
-33 -15 -33 0 0 17 33 18 32 34 -2 27 -29 -5 -83 16 -83 33 0 13 -56 13 -80 0
-15 -8 -18 -17 -13 -47 l6 -37 -27 18 c-33 21 -41 16 -38 -28 2 -30 0 -34 -18
-29 -28 7 -36 23 -11 23 17 0 20 5 14 30 -3 17 -2 30 3 29 27 -5 36 1 24 16
-10 12 -15 13 -28 3 -8 -7 -23 -12 -34 -10 -10 2 -18 -2 -18 -7 0 -7 -16 -9
-42 -5 -24 3 -79 8 -124 11 l-81 4 -38 -35 c-45 -43 -54 -45 -47 -11 3 19 11
25 29 25 22 0 24 2 13 15 -12 14 -15 14 -32 -1 -17 -16 -20 -16 -45 7 -14 13
-23 19 -20 12 9 -14 -43 -28 -90 -24 -26 2 -33 -1 -33 -15 0 -15 -3 -14 -25 6
-19 18 -27 20 -38 11 -8 -6 -22 -8 -31 -5 -10 4 -25 -1 -36 -11 -19 -18 -20
-17 -20 9 0 18 -5 26 -12 23 -7 -2 -13 -16 -13 -30 -1 -14 -4 -29 -8 -33 -4
-4 -7 2 -7 14 0 12 -6 22 -14 22 -8 0 -17 7 -20 17 -6 14 -8 14 -21 -3 -8 -11
-15 -14 -15 -6 0 6 -9 12 -20 12 -21 0 -27 -14 -11 -24 5 -3 7 -14 5 -24 -6
-20 37 -53 44 -33 7 20 20 12 15 -9 -3 -11 -12 -20 -19 -20 -8 0 -14 -4 -14
-10 0 -5 8 -10 18 -10 9 0 28 -3 41 -7 21 -5 23 -3 19 14 -4 17 -2 19 14 15
17 -4 19 -1 13 17 -4 12 -2 21 4 21 15 0 14 -36 -1 -60 -11 -17 -10 -22 2 -30
12 -8 12 -10 1 -10 -11 0 -11 -3 0 -17 13 -14 11 -16 -11 -10 -14 3 -35 9 -47
12 -18 6 -23 3 -23 -10 0 -15 -2 -15 -16 -4 -10 8 -12 15 -5 17 7 2 8 9 1 22
-12 22 -44 16 -36 -6 3 -8 1 -14 -4 -14 -6 0 -10 9 -10 21 0 14 -5 19 -14 16
-9 -4 -13 2 -12 16 1 11 7 22 14 23 7 1 8 0 2 -3 -8 -3 -7 -9 1 -19 15 -18 33
-18 26 0 -3 8 -1 17 6 19 8 3 4 12 -11 26 -12 12 -20 26 -17 31 7 12 -12 50
-25 50 -6 0 -10 -12 -10 -27 0 -16 -4 -23 -8 -17 -6 9 -64 34 -78 34 -2 0 -4
-8 -4 -17 0 -16 -3 -15 -18 3 -11 14 -29 22 -52 22 -29 1 -37 -4 -48 -25 -8
-18 -9 -30 -2 -37 5 -5 10 -15 10 -20 -1 -6 -9 -1 -20 12 -11 13 -24 21 -29
18 -5 -4 -12 -2 -15 3 -4 5 -2 12 4 16 17 11 11 23 -9 18 -10 -3 -22 0 -25 6
-4 6 -17 11 -30 11 -12 0 -28 6 -35 13 -9 8 -12 8 -7 0 3 -6 0 -14 -6 -16 -10
-4 -10 -8 -2 -14 7 -4 12 -21 12 -36 -1 -34 -11 -25 -27 22 -9 29 -8 37 5 53
17 18 9 23 -20 12 -9 -3 -13 -10 -10 -15 3 -5 -9 -22 -26 -38 -31 -28 -32 -29
-11 -43 22 -16 19 -58 -5 -58 -10 0 -12 8 -8 30 5 22 2 31 -10 36 -11 4 -15
13 -10 26 5 17 1 19 -38 17 -23 -1 -50 2 -59 5 -10 4 -20 3 -24 -3 -3 -7 2
-11 14 -11 26 0 61 -29 61 -50 -1 -12 -3 -12 -14 3 -16 21 -46 23 -46 2 0 -18
-12 -19 -28 -3 -10 10 -15 10 -22 -2 -5 -8 -12 -12 -15 -9 -9 10 6 39 21 39 8
0 14 7 14 16 0 8 -4 13 -9 9 -5 -3 -12 -1 -16 5 -8 12 -79 4 -83 -10 -2 -5 -8
-10 -13 -10 -6 0 -7 4 -4 10 3 6 -1 7 -9 4 -9 -4 -16 -1 -16 6 0 8 -13 10 -42
6 -56 -7 -55 -7 -113 0 -28 3 -68 1 -90 -5 -25 -7 -41 -7 -45 -1 -3 6 -59 10
-125 11 -102 0 -121 -2 -132 -17 -11 -15 -13 -15 -18 -2 -5 12 -27 15 -101 17
l-95 1 3 -27 c2 -20 -3 -31 -17 -38 -11 -6 -21 -21 -23 -33 -4 -27 -32 -30
-32 -3 0 10 -7 24 -15 31 -17 14 -20 30 -5 30 6 0 10 -7 10 -15 0 -17 25 -20
35 -5 4 6 10 8 15 5 10 -6 20 29 11 43 -3 5 -16 12 -28 16 -18 6 -23 3 -23
-11 0 -14 -2 -15 -9 -4 -12 19 -101 23 -128 6 -12 -8 -24 -11 -27 -6 -3 5 -17
9 -31 9 -33 0 -38 5 -40 46 0 27 3 32 17 28 15 -4 18 2 18 32 0 20 4 36 8 36
5 0 16 16 25 35 9 20 24 38 32 41 8 4 15 10 15 16 0 5 -4 7 -9 4 -5 -3 4 19
21 49 16 30 33 53 38 50 4 -3 6 4 3 15 -4 15 2 22 23 31 26 10 27 12 9 19 -19
7 -19 7 2 20 11 8 19 19 16 27 -3 7 6 26 20 42 13 16 27 48 31 70 5 35 10 41
31 41 14 0 25 5 25 10 0 6 12 10 26 10 22 0 25 -2 14 -15 -10 -13 -9 -15 8
-15 12 0 23 4 26 9 7 10 61 8 88 -4 10 -4 32 -2 49 4 45 15 51 14 47 -11 -4
-31 20 -34 32 -4 5 14 14 26 19 26 5 0 7 9 4 20 -3 11 0 20 6 20 6 0 11 -11
11 -24 0 -26 17 -29 42 -9 10 8 17 8 30 -1 9 -7 46 -11 89 -11 41 1 79 -2 86
-7 7 -6 22 -7 35 -3 18 5 20 4 8 -4 -13 -9 -11 -11 6 -11 16 0 23 8 28 31 5
29 27 59 41 59 4 0 0 -12 -10 -26 -12 -19 -14 -29 -6 -37 6 -6 11 -19 11 -28
0 -19 22 -29 60 -26 18 2 25 8 25 24 1 24 32 63 49 62 6 0 6 -3 -1 -6 -16 -6
-17 -33 -3 -33 6 0 15 10 19 23 8 19 10 20 16 5 4 -10 13 -18 20 -18 7 0 15
-9 18 -20 5 -18 9 -19 33 -10 16 6 51 13 79 15 27 2 52 4 55 5 3 1 45 2 94 1
72 -1 91 -4 102 -18 7 -10 14 -16 16 -13 3 3 13 16 22 30 l18 25 -7 -35 c-5
-31 -4 -33 8 -18 8 10 17 15 20 12 3 -3 3 3 0 14 -4 17 -1 20 16 15 12 -3 21
-12 21 -19 0 -19 16 -18 24 1 3 8 12 15 20 15 8 0 17 6 19 13 4 7 6 6 6 -4 1
-18 25 -32 35 -21 10 9 106 9 106 0 0 -22 21 -4 29 25 9 30 10 30 16 10 7 -21
24 -29 50 -23 6 1 20 3 33 4 12 2 25 6 29 9 3 4 11 7 17 7 6 0 5 -5 -2 -12
-14 -14 -16 -68 -2 -68 16 0 12 -19 -9 -36 -11 -10 -16 -24 -14 -35 7 -24 12
-24 29 -2 7 10 16 15 20 11 4 -4 1 -14 -5 -22 -17 -20 -4 -41 14 -26 10 8 11
18 4 36 -5 14 -9 31 -9 38 0 17 37 18 44 0 7 -18 50 -18 68 -1 7 8 18 12 23
10 6 -2 16 10 22 27 11 29 10 30 -18 30 -16 0 -29 -4 -29 -10 0 -5 8 -10 18
-10 14 0 15 -2 2 -10 -8 -5 -25 -7 -37 -3 -14 3 -23 1 -23 -6 0 -8 -9 -7 -29
3 -16 9 -31 13 -34 10 -3 -3 -8 4 -12 16 -11 34 30 56 42 23 11 -29 26 -33 41
-11 10 13 21 18 35 14 12 -3 27 0 34 5 8 8 16 7 26 -3 12 -11 12 -16 0 -35
-15 -22 -14 -23 10 -23 14 0 32 -7 41 -15 8 -8 28 -15 45 -15 29 0 30 2 19 20
-7 11 -19 21 -28 24 -8 2 -1 5 15 6 l30 2 -30 13 c-24 11 -26 14 -10 16 35 3
58 -2 82 -18 24 -16 32 -6 11 15 -19 19 -2 25 30 11 17 -7 28 -18 26 -24 -3
-6 13 -11 41 -13 27 -1 45 3 45 9 0 7 -11 9 -25 7 -29 -6 -34 7 -6 15 11 2 24
0 29 -5 7 -7 20 -7 41 0 35 12 50 0 31 -23 -10 -12 -9 -15 9 -15 14 0 21 6 21
18 0 10 11 25 25 32 22 12 31 10 84 -17 l59 -31 6 23 c5 19 11 22 42 18 20 -2
42 1 49 7 9 8 15 8 20 0 3 -6 10 -8 15 -5 5 3 11 1 15 -5 7 -11 67 -1 76 13 4
5 9 5 13 -2 4 -6 18 -11 31 -11 19 0 29 9 41 38 11 24 18 32 22 23 3 -8 0 -17
-6 -19 -19 -6 -14 -18 14 -37 22 -14 28 -15 47 -2 28 18 67 28 67 17 0 -5 -4
-12 -10 -15 -15 -9 -13 -85 3 -85 28 0 40 17 28 39 -8 15 -9 27 -1 40 10 20
47 37 57 27 4 -3 1 -6 -6 -6 -8 0 -11 -7 -7 -15 3 -8 1 -15 -4 -15 -6 0 -10
-7 -10 -15 0 -25 19 -17 26 11 4 14 17 30 30 34 17 7 24 17 24 37 0 16 3 23 8
16 4 -6 25 -14 47 -17 25 -4 33 -3 21 2 -14 6 -16 11 -7 16 9 6 9 11 -1 24
-12 14 -10 14 10 3 12 -6 26 -9 31 -6 5 3 7 -4 4 -16 -4 -12 0 -25 8 -30 17
-11 21 -11 38 0 10 7 11 13 2 30 -15 28 -4 48 13 25 7 -9 18 -14 24 -10 20 12
13 36 -14 46 -31 12 -21 34 12 26 17 -5 26 -1 35 16 6 12 20 31 30 41 10 11
15 25 11 31 -4 7 -8 4 -10 -6 -5 -24 -18 -23 -25 2 -6 22 7 34 37 35 21 0 64
51 53 62 -4 3 -18 -4 -32 -17 -14 -13 -25 -18 -25 -12 0 7 4 12 9 12 5 0 13
10 17 23 9 28 25 39 41 26 19 -16 56 -1 47 19 -6 15 -10 34 -13 64 -1 4 -8 5
-16 2 -8 -4 -15 -3 -15 1 0 12 28 35 44 35 9 0 16 2 16 5 0 11 -35 45 -47 45
-7 0 -13 6 -13 13 0 9 -2 9 -9 -1 -5 -9 -25 -12 -62 -10 -47 3 -54 6 -55 25
-1 13 5 23 17 26 18 5 28 47 12 47 -11 0 -63 -66 -63 -79 0 -18 -96 -30 -143
-18 -18 5 -26 4 -23 -2 9 -14 -14 -25 -27 -12 -6 6 -24 11 -40 11 -23 0 -31 6
-40 30 -6 17 -15 30 -20 30 -20 0 -48 -23 -43 -35 5 -15 -45 -37 -61 -26 -16
10 -34 51 -28 61 3 6 16 10 28 9 22 0 22 0 -1 -10 -22 -8 -22 -10 -7 -26 19
-18 40 -11 59 20 8 13 7 20 -4 27 -22 14 -77 12 -83 -2 -3 -8 -6 -6 -6 5 -1
22 -20 22 -28 1 -4 -10 0 -22 9 -28 8 -6 13 -17 11 -23 -3 -7 2 -13 11 -13 10
0 16 -9 16 -22 0 -17 -3 -19 -12 -10 -7 7 -24 12 -40 12 -20 0 -26 4 -22 15 4
8 1 15 -6 15 -6 0 -10 10 -8 23 2 16 -2 22 -17 22 -14 0 -20 -8 -22 -28 -3
-43 -21 -60 -57 -52 -45 9 -97 6 -113 -7 -20 -16 -25 -4 -10 25 10 20 17 23
25 15 17 -17 25 -3 17 31 -7 33 -22 41 -31 17 -4 -12 -9 -11 -26 6 -17 17 -18
21 -5 31 20 17 28 45 14 50 -9 3 -9 8 1 18 17 18 15 42 -3 35 -9 -3 -15 0 -15
9 0 9 -10 15 -25 15 -16 0 -25 -6 -25 -15 0 -8 6 -15 13 -15 8 0 19 -11 25
-24 9 -20 6 -29 -18 -57 l-28 -34 5 28 c3 15 1 27 -5 27 -5 0 -13 16 -16 35
-4 20 -13 35 -21 35 -7 0 -20 3 -28 6 -9 3 -16 -3 -20 -17 -8 -30 -4 -33 22
-19 18 9 21 8 21 -10 0 -11 -4 -20 -9 -20 -5 0 -11 -12 -13 -27 -4 -37 -27
-36 -48 1 -19 36 -14 82 11 107 11 11 19 15 19 9 0 -5 5 -10 11 -10 6 0 8 8 4
19 -4 13 0 23 11 29 21 12 11 47 -11 38 -12 -4 -13 -2 -4 12 6 10 22 19 36 20
13 1 31 8 39 16 17 18 8 47 -13 39 -13 -5 -13 -3 -2 15 11 17 11 24 1 34 -9 9
-12 9 -12 0z m-3119 -1634 c15 2 34 -4 43 -13 14 -15 14 -18 0 -41 -20 -30
-22 -30 -17 -1 4 19 0 22 -30 22 -44 0 -58 -13 -32 -28 19 -11 19 -11 -4 -17
-18 -4 -25 -13 -25 -33 -1 -15 2 -27 7 -27 5 0 4 -6 -2 -14 -15 -18 5 -96 25
-96 7 0 12 -8 12 -17 -1 -10 1 -31 5 -48 7 -27 6 -28 -7 -12 -10 13 -16 15
-21 7 -4 -7 -2 -17 4 -23 6 -6 11 -20 11 -32 0 -18 -6 -20 -54 -20 -30 1 -53
-2 -51 -6 10 -16 -45 -15 -60 1 -20 22 -19 36 1 19 15 -12 16 -10 10 18 -4 18
-3 34 3 38 7 3 8 0 5 -10 -5 -11 -1 -14 17 -12 23 4 40 27 20 27 -15 0 -14 27
2 33 9 4 8 8 -3 16 -9 6 -19 6 -26 1 -6 -6 -14 -7 -18 -3 -4 4 3 15 15 24 l22
17 -21 11 c-20 11 -21 12 -5 31 17 20 39 28 29 11 -10 -15 25 -71 43 -71 15 0
18 10 20 54 1 30 -3 57 -9 61 -10 6 6 43 23 56 5 4 2 20 -7 38 -16 30 -16 31
4 31 11 0 20 5 20 11 0 6 6 7 12 2 7 -4 25 -6 39 -5z m1439 -358 c0 -20 10
-24 63 -20 20 1 29 -4 36 -21 8 -24 2 -34 -34 -55 -31 -17 -29 -34 4 -40 37
-8 53 -25 42 -43 -7 -11 -11 -9 -20 8 -15 27 -34 28 -26 1 3 -11 2 -20 -3 -20
-6 0 -13 11 -16 24 -8 31 -46 42 -65 18 -13 -16 -13 -16 -8 0 4 11 0 21 -12
28 -10 5 -22 25 -25 44 -4 19 -12 37 -19 39 -7 2 -8 8 -3 13 5 5 11 4 13 -3 3
-7 21 -13 40 -13 35 0 36 1 19 19 -10 11 -15 25 -11 30 10 18 25 12 25 -9z"/>
<path d="M1329 3049 c25 -27 36 -76 22 -93 -6 -7 -7 -17 -3 -22 4 -4 -1 -2
-12 6 -10 8 -14 16 -7 18 12 4 15 32 3 32 -4 0 -16 -15 -27 -32 -10 -18 -23
-36 -29 -40 -16 -11 7 -30 27 -22 9 3 17 10 17 15 0 5 5 9 11 9 7 0 9 -9 5
-24 -4 -18 -1 -25 14 -29 13 -3 18 -10 14 -21 -4 -10 3 -19 21 -28 35 -16 45
-1 45 70 0 28 4 52 8 52 13 0 32 -23 32 -37 0 -8 6 -20 12 -27 10 -11 16 -9
31 10 10 13 25 24 34 24 13 0 13 -3 3 -15 -7 -8 -10 -22 -6 -30 5 -13 10 -14
27 -4 16 8 32 8 65 -1 46 -13 70 -7 44 11 -11 8 -10 9 8 4 13 -4 22 -2 22 5 0
6 4 9 9 6 5 -4 7 3 4 15 -4 14 -8 17 -13 9 -4 -7 -29 -15 -54 -17 -42 -5 -48
-3 -53 16 -5 18 -19 25 -44 23 -3 -1 -3 12 -1 29 3 18 0 29 -8 29 -7 0 -10 -7
-6 -16 7 -19 -21 -64 -40 -64 -22 0 -17 16 11 34 25 17 25 46 -1 46 -8 0 -11
-6 -8 -15 4 -10 0 -15 -14 -15 -11 0 -27 -3 -36 -6 -11 -4 -16 0 -16 12 -1 16
-5 15 -25 -9 -27 -30 -33 -57 -12 -57 8 0 7 -3 -3 -9 -20 -13 -27 -6 -28 28 0
17 5 32 14 35 13 5 13 10 -3 38 -10 18 -22 36 -28 40 -7 5 -7 8 0 8 12 1 -25
30 -37 30 -5 0 0 -10 11 -21z"/>
<path d="M1680 3057 c0 -9 10 -22 23 -28 12 -7 32 -21 43 -33 18 -16 20 -24
11 -43 -6 -13 -8 -24 -6 -26 2 -1 18 -12 35 -24 17 -12 35 -18 40 -13 5 5 15
2 22 -6 7 -8 8 -14 2 -14 -5 0 -10 -7 -10 -15 0 -8 5 -15 10 -15 6 0 10 -9 10
-20 0 -11 5 -20 10 -20 15 0 29 43 19 56 -5 6 -10 21 -12 33 -2 13 -8 26 -14
29 -5 4 -13 14 -16 22 -4 10 -6 8 -6 -7 -1 -13 -6 -23 -12 -23 -6 0 -9 9 -6
19 3 13 -1 21 -14 24 -12 3 -16 11 -12 26 4 16 14 21 42 23 20 0 42 2 50 2 8
1 18 12 21 26 6 21 3 26 -11 26 -10 0 -16 -3 -14 -6 2 -3 -3 -14 -12 -25 -13
-19 -15 -19 -27 -2 -15 19 -47 22 -63 6 -17 -17 -44 -3 -36 17 5 14 2 16 -17
11 -13 -3 -30 -1 -37 5 -10 8 -13 6 -13 -5z"/>
<path d="M4945 3040 c-4 -6 -13 -9 -20 -8 -8 2 -14 -1 -14 -7 -1 -5 10 -9 23
-10 30 0 53 -19 37 -29 -6 -4 -20 -2 -31 4 -17 9 -20 8 -20 -12 l-1 -23 -18
22 c-12 15 -25 20 -40 16 -24 -6 -25 -7 -10 -34 6 -11 16 -18 23 -16 7 3 19 1
27 -4 8 -5 10 -9 4 -10 -5 0 -26 -2 -45 -4 -50 -3 -50 -5 0 -21 57 -17 60 -17
60 1 0 8 4 15 9 15 5 0 12 11 15 25 5 18 13 25 31 25 16 0 25 6 25 15 0 13 3
13 19 3 16 -9 17 -15 9 -26 -12 -14 -12 -87 0 -108 5 -9 12 -10 22 -4 11 8 12
12 3 18 -16 10 5 82 24 82 7 0 13 7 13 16 0 8 -5 12 -10 9 -6 -3 -13 1 -16 9
-3 9 -14 16 -24 16 -10 0 -23 7 -30 15 -7 8 -19 15 -26 15 -8 0 -14 5 -14 10
0 13 -17 13 -25 0z"/>
<path d="M7336 2892 c-3 -2 2 -18 10 -33 11 -22 12 -34 4 -49 -12 -23 -26 -26
-33 -7 -4 8 -6 9 -6 0 -1 -6 6 -18 14 -27 10 -9 11 -17 5 -21 -12 -7 12 -35
30 -35 8 0 10 -9 6 -26 -6 -24 -5 -26 15 -21 15 4 23 1 26 -14 3 -10 12 -19
19 -19 17 0 18 -4 -5 61 -18 54 -18 55 1 56 16 2 19 -3 15 -23 -2 -13 0 -24 4
-24 5 0 9 -7 9 -15 0 -25 15 -17 27 15 7 18 7 28 1 24 -5 -3 -12 2 -14 13 -3
11 -22 24 -47 31 -37 12 -43 12 -54 -4 -12 -17 -13 -16 -13 3 0 11 7 23 15 27
8 3 15 14 15 25 0 11 4 21 9 23 5 2 11 12 13 23 2 16 -3 20 -29 21 -18 1 -35
-1 -37 -4z"/>
<path d="M4628 2844 c-39 -16 -50 -34 -23 -34 17 0 20 -16 5 -25 -23 -14 -5
-85 21 -85 8 0 4 34 -6 50 -8 13 21 24 37 14 7 -5 26 -9 42 -10 16 -1 31 -6
35 -11 10 -16 59 -24 67 -12 4 8 9 7 16 -2 8 -11 9 -11 6 1 -3 8 -18 24 -35
35 -18 11 -37 30 -44 42 -15 28 -39 19 -40 -16 0 -14 -3 -20 -6 -13 -2 6 -11
12 -18 12 -8 0 -19 9 -25 20 -10 19 -9 20 15 14 23 -6 26 -4 23 12 -4 25 -25
27 -70 8z"/>
<path d="M4883 2823 c-4 -10 -15 -24 -25 -31 -19 -14 -24 -47 -8 -57 9 -5 14
7 12 26 -1 4 8 9 19 12 16 4 18 3 9 -8 -7 -8 -10 -22 -7 -32 4 -14 5 -13 6 5
1 24 21 31 21 7 0 -9 6 -15 13 -14 28 3 39 -2 34 -16 -7 -15 8 -29 33 -31 8
-1 23 -2 33 -3 10 0 17 -9 17 -22 0 -21 2 -20 27 7 14 16 29 42 33 59 4 21 12
31 28 33 30 4 72 47 62 62 -9 15 -30 4 -30 -15 0 -23 -31 -27 -37 -5 -8 30
-20 24 -20 -11 0 -17 -6 -35 -14 -40 -8 -4 -14 -16 -14 -26 -1 -23 -47 -20
-76 5 -11 9 -29 19 -42 22 -15 4 -25 18 -33 45 -12 43 -30 56 -41 28z"/>
<path d="M11288 2779 c-15 -19 -15 -22 0 -40 11 -13 19 -16 27 -8 7 7 4 14 -8
24 -18 13 -18 14 1 24 12 6 27 8 36 5 17 -7 30 -35 14 -31 -7 1 -13 -10 -14
-25 -2 -16 1 -28 7 -28 5 0 9 5 9 10 0 6 9 10 21 10 31 0 20 -34 -13 -38 -16
-2 -28 -11 -31 -23 -4 -15 -14 -19 -44 -19 -35 0 -41 -4 -56 -35 -21 -43 -21
-51 -3 -36 11 9 14 8 12 -6 0 -12 6 -18 19 -19 11 0 27 -4 36 -8 9 -4 20 -6
25 -5 22 4 32 -2 30 -18 -2 -25 28 -23 32 2 7 43 10 47 33 35 32 -17 35 -4 5
23 -17 16 -44 27 -79 31 -48 7 -51 9 -33 22 11 8 28 14 38 14 10 0 21 7 24 15
4 8 16 15 28 15 17 0 24 9 35 44 7 25 10 54 6 66 -6 19 -8 20 -24 6 -17 -15
-61 -12 -61 5 0 18 -55 8 -72 -12z"/>
<path d="M11650 2774 c0 -3 5 -14 10 -24 8 -15 5 -25 -15 -46 -25 -27 -33 -54
-16 -54 6 0 13 5 16 10 4 6 10 8 15 5 6 -4 4 -14 -2 -25 -10 -15 -10 -22 -1
-31 19 -19 -24 -69 -58 -69 -22 0 -29 -6 -34 -30 -4 -16 -10 -30 -15 -30 -4 0
-6 9 -3 20 6 22 -7 26 -24 9 -7 -7 -9 -3 -6 15 3 14 12 26 19 26 8 0 14 5 14
10 0 6 7 10 16 10 10 0 14 7 12 18 -2 9 -11 15 -19 14 -8 -2 -31 -4 -51 -4
-26 1 -38 -4 -38 -13 0 -9 6 -12 17 -8 11 4 9 -1 -7 -17 -22 -22 -22 -24 -5
-36 16 -12 17 -15 2 -38 -15 -22 -15 -25 0 -38 9 -7 25 -11 36 -10 15 3 18 0
13 -13 -3 -9 -6 -19 -6 -21 0 -3 -10 1 -22 7 -20 11 -21 10 -10 -3 16 -20 -1
-28 -40 -21 -14 3 -29 0 -32 -6 -4 -6 -17 -11 -28 -11 -20 0 -20 -1 -5 -18 15
-16 15 -19 -3 -30 -16 -10 -20 -10 -21 0 -1 7 -2 20 -3 28 0 8 -7 15 -13 14
-7 -1 -26 -2 -43 -2 -38 -2 -40 -22 -2 -23 23 -1 21 -3 -12 -11 -28 -8 -48 -8
-68 0 -22 8 -28 7 -28 -4 0 -11 -4 -12 -19 -3 -13 9 -29 9 -59 2 -35 -9 -43
-8 -58 8 -9 10 -13 22 -10 28 9 13 -9 22 -28 15 -11 -4 -13 -10 -7 -18 15 -18
0 -34 -36 -37 -23 -3 -37 2 -47 16 -15 20 -15 20 -10 -1 5 -19 2 -21 -21 -16
-17 3 -24 9 -21 19 7 17 -14 53 -31 53 -7 0 -13 -6 -13 -14 0 -7 -9 -25 -20
-39 -15 -19 -27 -24 -43 -20 -44 11 -137 13 -137 2 0 -13 -42 -1 -52 15 -5 7
-11 8 -15 1 -5 -5 -12 -10 -18 -10 -37 -1 -105 -18 -105 -26 0 -6 -5 -7 -10
-4 -6 4 -7 11 -4 17 5 7 -4 9 -26 6 -19 -3 -45 1 -59 8 -14 8 -34 11 -45 8
-12 -4 -16 -2 -12 5 4 6 1 18 -7 26 -13 13 -16 13 -21 0 -3 -9 -3 -29 1 -45 3
-19 1 -30 -6 -30 -6 0 -11 -7 -11 -15 0 -13 -2 -14 -14 -3 -8 8 -10 17 -5 24
4 5 5 21 2 34 -5 17 -3 21 7 15 9 -5 11 -4 6 3 -12 19 -26 14 -36 -13 -5 -14
-14 -25 -20 -25 -13 0 -13 17 1 26 8 4 7 9 -2 15 -9 5 -9 9 -3 9 7 0 14 9 17
21 4 16 1 20 -16 17 -21 -3 -23 -7 -26 -55 0 -13 -7 -23 -16 -23 -12 0 -13 4
-3 25 6 14 9 28 6 31 -6 5 -58 -41 -57 -51 0 -3 -5 -13 -10 -23 -9 -15 -10
-15 -11 -1 0 21 -28 33 -44 20 -7 -6 -22 -8 -33 -5 -18 5 -21 3 -16 -17 4 -15
3 -20 -6 -15 -6 4 -9 11 -6 16 9 15 -15 22 -30 10 -11 -9 -15 -9 -15 -1 0 7
-9 9 -24 5 -15 -3 -27 -1 -32 8 -9 13 -10 18 -13 41 -1 7 -10 2 -21 -12 -11
-13 -30 -23 -42 -22 -13 0 -32 1 -43 1 -95 3 -225 -4 -225 -12 0 -6 -10 -8
-24 -4 -15 4 -26 1 -29 -7 -4 -9 -6 -9 -6 1 -1 6 -7 12 -15 12 -7 0 -16 10
-19 22 l-6 23 -21 -22 c-11 -12 -27 -20 -34 -17 -8 3 -24 0 -36 -6 -16 -9 -25
-9 -33 -1 -17 17 -27 13 -20 -6 7 -17 6 -17 -11 0 -9 9 -22 17 -27 17 -6 0 -7
5 -4 10 3 6 0 17 -9 25 -13 13 -15 13 -22 -7 -4 -15 -1 -26 12 -36 18 -13 18
-14 -1 -10 -11 2 -26 16 -33 31 -15 32 -37 36 -29 6 5 -20 3 -21 -44 -17 -27
3 -52 1 -55 -3 -3 -5 -13 -5 -23 1 -14 7 -21 4 -32 -16 -13 -24 -13 -24 -21
-5 -7 19 -15 20 -111 19 -57 -1 -109 2 -115 6 -6 3 -15 -8 -22 -29 -6 -19 -16
-32 -22 -29 -6 4 -6 10 1 17 6 6 11 16 11 23 0 14 -51 25 -65 14 -5 -4 -34 -6
-64 -4 -54 4 -77 13 -53 21 14 6 17 83 2 83 -5 0 -10 5 -10 12 0 6 8 4 19 -6
14 -13 21 -14 27 -5 4 7 0 17 -9 24 -10 7 -14 20 -10 33 9 36 -11 25 -30 -15
-11 -24 -13 -41 -7 -47 16 -16 12 -38 -12 -63 -19 -20 -19 -23 -4 -23 9 0 15
-4 11 -10 -3 -5 -12 -7 -20 -4 -8 3 -24 -1 -37 -10 -24 -17 -42 -21 -34 -8 3
5 -1 9 -9 9 -18 0 -18 -2 -4 -29 13 -25 5 -35 -16 -18 -13 11 -15 9 -16 -11
-1 -18 -2 -20 -6 -6 -3 11 -11 16 -19 13 -12 -4 -12 -2 -4 14 6 12 17 17 28
14 11 -4 8 2 -8 15 -14 11 -30 19 -37 16 -6 -2 -14 3 -17 11 -5 12 -10 13 -27
4 -13 -7 -18 -17 -15 -27 5 -12 1 -14 -21 -8 -37 9 -53 25 -25 25 24 0 42 25
35 51 -5 18 29 44 41 32 3 -3 6 1 6 10 0 8 -6 18 -12 21 -7 4 -3 4 10 2 12 -2
20 -1 17 3 -7 13 17 85 37 107 12 13 16 28 12 40 -4 10 -4 16 1 12 4 -4 17 -3
28 3 13 8 17 8 13 0 -4 -5 7 -17 23 -26 19 -9 32 -11 36 -5 9 14 -5 32 -20 26
-7 -2 -16 2 -19 10 -8 21 -7 31 2 18 5 -8 15 -8 32 -2 20 7 22 11 10 18 -27
17 -88 12 -99 -8 -7 -13 -19 -17 -43 -15 -18 1 -66 3 -107 4 -59 0 -76 -3 -84
-16 -8 -15 -10 -15 -23 2 -20 27 -17 33 16 27 20 -5 30 -3 30 6 0 8 -8 10 -21
7 -15 -4 -19 -2 -15 8 2 7 -1 18 -8 24 -11 9 -17 3 -30 -24 -16 -34 -19 -35
-71 -35 -34 0 -55 -5 -58 -12 -3 -10 -7 -10 -20 1 -16 13 -16 14 -1 26 10 7
14 17 10 24 -4 6 0 23 9 37 16 25 16 26 -7 22 -18 -2 -24 -11 -28 -38 -4 -27
-7 -32 -15 -20 -7 12 -10 10 -15 -10 -7 -28 7 -26 -254 -29 -124 -2 -164 4
-118 16 21 5 31 23 13 23 -5 0 -11 10 -14 22 -5 18 -8 19 -21 8 -9 -7 -16 -25
-16 -40 0 -30 -24 -58 -35 -40 -3 5 -19 10 -35 10 -16 0 -32 5 -35 10 -3 6
-13 10 -22 10 -9 0 -13 -3 -10 -7 13 -12 -45 -34 -59 -22 -7 5 -20 9 -30 7 -9
-2 -19 3 -21 10 -3 6 2 12 11 12 9 0 16 6 16 14 0 8 6 16 13 19 6 2 8 8 4 13
-4 5 -12 2 -17 -6 -7 -12 -12 -12 -22 -2 -14 14 -44 16 -53 2 -3 -5 0 -18 7
-29 11 -18 10 -23 -7 -35 -11 -8 -22 -11 -25 -6 -10 15 -137 11 -153 -5 -17
-16 -32 -20 -23 -6 6 8 -51 23 -99 26 -43 3 -46 5 -40 25 5 14 2 20 -9 20 -13
0 -16 -13 -15 -70 1 -49 5 -70 14 -70 7 0 18 -6 24 -14 9 -10 8 -15 -4 -20 -8
-3 -15 -12 -15 -20 0 -8 -10 -16 -22 -18 -18 -3 -22 -10 -23 -49 -3 -55 -11
-73 -32 -65 -11 4 -13 2 -9 -9 6 -17 -5 -20 -19 -6 -17 16 -48 -14 -40 -38 6
-20 29 -29 38 -13 2 4 2 1 0 -6 -1 -8 -3 -23 -3 -34 0 -12 -3 -18 -7 -15 -3 4
-12 2 -20 -4 -9 -9 -13 -8 -13 0 0 20 -15 11 -27 -16 -10 -21 -10 -29 -1 -34
9 -6 8 -12 -3 -26 -9 -10 -21 -37 -29 -60 -7 -24 -18 -43 -23 -43 -6 0 -7 -3
-4 -7 4 -3 2 -12 -4 -19 -13 -15 -39 -7 -39 12 0 16 -16 19 -24 5 -11 -17 5
-39 24 -34 14 4 19 0 17 -15 0 -11 -5 -18 -9 -16 -4 3 -13 -7 -18 -22 -6 -15
-20 -40 -32 -57 -12 -16 -27 -46 -34 -66 -7 -20 -18 -36 -26 -36 -7 0 -17 -4
-21 -10 -6 -6 -10 -6 -14 3 -7 17 -23 15 -23 -2 0 -8 9 -17 19 -21 24 -7 35
-44 15 -52 -17 -6 -19 -43 -3 -43 7 0 18 8 26 18 10 11 13 12 11 3 -4 -16 -15
-22 -65 -42 -30 -12 -38 -28 -45 -86 -2 -18 -18 -16 -18 2 0 9 -7 18 -15 21
-18 7 -20 41 -3 46 17 6 0 28 -23 28 -10 0 -19 -6 -19 -14 0 -8 -5 -16 -12
-18 -19 -7 -1 -38 22 -38 13 0 20 -7 20 -20 0 -13 -7 -20 -20 -20 -23 0 -27
-15 -5 -24 8 -3 15 -15 15 -26 0 -15 -7 -20 -25 -20 -26 0 -33 -14 -15 -25 6
-4 17 -1 25 5 12 10 15 10 15 0 0 -6 -9 -14 -20 -17 -14 -4 -20 -14 -20 -36 0
-17 -6 -38 -14 -46 -24 -28 -29 -59 -9 -64 17 -4 17 -4 -1 -12 -13 -6 -21 -4
-24 3 -8 25 -32 12 -31 -15 1 -16 -13 -54 -30 -86 -17 -32 -31 -67 -31 -79 0
-11 -10 -31 -22 -43 -13 -13 -23 -37 -24 -54 -2 -40 -22 -64 -50 -58 -23 4
-24 -4 -2 -50 6 -12 7 -30 3 -40 -7 -16 -8 -15 -14 6 -8 30 -31 40 -31 13 0
-25 -25 -46 -42 -36 -10 6 -11 5 -1 -8 14 -16 2 -69 -22 -98 -7 -8 -20 -32
-28 -52 -12 -29 -20 -35 -35 -31 -25 6 -38 -27 -23 -56 15 -28 14 -31 -14 -31
-26 0 -26 0 -8 -24 17 -22 18 -23 21 -5 5 30 22 22 22 -10 0 -16 6 -31 14 -34
12 -5 12 0 5 26 -6 23 -5 35 5 45 14 14 76 19 95 7 6 -3 11 1 11 9 0 20 4 20
39 2 24 -13 33 -13 70 0 26 9 48 11 55 6 6 -5 27 -8 46 -6 47 4 70 -4 63 -22
-3 -7 0 -14 6 -14 6 0 11 7 11 16 0 11 8 15 28 13 15 -1 34 1 42 4 34 14 70
15 77 3 10 -18 53 -31 53 -17 0 6 7 11 16 11 8 0 13 -4 10 -8 -4 -8 11 -81 19
-90 8 -9 35 13 35 30 0 10 4 17 8 14 4 -2 14 -1 21 3 10 7 11 13 2 27 -6 11
-11 15 -11 9 0 -5 -4 -3 -10 5 -5 8 -12 11 -17 6 -4 -4 0 -12 10 -17 24 -14
21 -24 -6 -27 -22 -1 -25 7 -18 59 1 4 20 3 44 -2 23 -4 47 -8 52 -9 6 0 2 -5
-7 -11 -10 -5 -18 -18 -17 -27 0 -10 3 -12 6 -5 3 10 9 10 24 0 26 -16 24 -30
-3 -21 -13 3 -20 3 -16 -1 4 -5 3 -14 -2 -20 -7 -9 -6 -14 3 -18 20 -8 35 5
56 46 l19 37 -25 0 c-15 0 -23 5 -20 13 2 6 11 12 20 11 75 -4 77 -4 83 -29 6
-25 28 -33 39 -15 3 6 -1 10 -10 10 -9 0 -14 4 -11 9 4 5 17 8 31 6 15 -1 29
4 34 13 7 12 22 15 56 13 30 -2 45 1 41 8 -4 6 5 9 23 9 27 -1 28 -2 20 -32
-5 -17 -9 -32 -9 -33 0 -7 30 -2 31 5 4 41 10 67 18 75 12 12 111 18 111 6 0
-5 7 -9 15 -9 8 0 15 7 15 15 0 8 -4 15 -10 15 -5 0 -10 6 -10 14 0 9 7 12 19
9 11 -3 21 2 24 11 8 20 37 21 37 1 0 -20 32 -19 56 3 27 24 42 25 62 6 16
-16 15 -17 -11 -12 -15 3 -27 1 -27 -3 0 -16 5 -24 13 -21 4 1 17 -7 30 -18
20 -19 22 -19 28 -3 5 16 7 16 17 -2 10 -19 11 -19 36 8 14 15 25 31 25 35 -3
20 3 32 15 32 22 0 49 42 33 52 -6 4 -16 3 -21 -2 -15 -15 -22 -12 -23 9 -1
14 3 18 14 14 10 -4 14 -2 10 4 -4 6 2 13 13 16 16 4 20 14 20 45 0 23 -4 44
-10 47 -5 3 -15 16 -22 28 -11 21 -10 21 7 7 10 -8 16 -10 12 -3 -5 7 1 16 12
22 26 15 29 14 27 -6 -1 -14 5 -17 24 -15 23 2 24 1 8 -11 -28 -22 -22 -33 28
-52 39 -15 48 -15 55 -4 6 9 9 10 9 2 0 -7 -8 -16 -17 -22 -15 -8 -12 -10 14
-9 18 1 30 4 28 8 -3 5 2 11 11 14 8 3 14 11 12 18 -1 7 1 26 5 42 6 23 4 33
-14 49 l-22 21 5 -22 c11 -39 -9 -33 -22 7 -9 29 -10 43 -1 60 7 12 16 19 21
16 4 -3 6 4 3 16 -4 12 -11 18 -20 15 -8 -3 -11 -2 -8 4 7 12 -33 33 -51 26
-8 -3 -13 -13 -11 -23 1 -10 -1 -19 -5 -20 -5 -2 -8 0 -9 5 0 4 -5 13 -11 20
-6 7 -9 14 -7 15 2 2 15 10 29 19 24 15 103 157 103 185 0 7 8 20 17 28 15 14
17 12 17 -14 0 -17 -5 -29 -10 -28 -5 1 -12 -4 -14 -12 -4 -10 1 -11 18 -6 36
11 39 17 33 57 -5 27 -12 38 -28 41 -15 3 -13 5 8 6 16 0 27 4 23 7 -3 4 2 23
12 43 10 20 16 42 14 49 -7 19 8 14 28 -9 21 -24 17 -39 -11 -39 -22 0 -35
-17 -18 -22 10 -4 10 -10 1 -30 -9 -21 -9 -27 2 -31 19 -8 25 2 25 37 l0 31
13 -24 c6 -14 18 -26 25 -29 14 -4 17 34 2 43 -5 3 -9 17 -8 30 1 13 6 21 11
18 4 -2 16 4 26 16 17 19 18 19 33 1 9 -10 22 -29 29 -41 11 -21 13 -21 24 -6
17 24 33 21 37 -5 4 -22 5 -21 24 10 15 26 24 31 42 27 13 -3 30 -1 38 6 8 7
14 7 14 1 0 -5 13 -12 29 -14 17 -2 28 -1 25 3 -8 13 16 21 30 10 8 -7 31 -11
52 -10 22 1 53 -1 70 -4 20 -3 31 -1 31 6 -1 32 4 48 13 42 6 -3 10 -17 10
-31 0 -27 7 -29 47 -13 40 16 84 17 78 1 -3 -9 0 -10 15 -2 11 6 30 8 44 4 13
-3 27 -1 30 5 9 15 46 -8 39 -25 -2 -6 0 -15 6 -18 5 -4 12 2 16 13 7 23 59
35 84 19 15 -9 22 -8 36 5 18 19 35 22 35 7 0 -5 -4 -10 -10 -10 -5 0 -10 -11
-10 -24 0 -14 -5 -28 -10 -31 -13 -8 -2 -27 13 -22 6 2 11 19 11 38 1 33 2 34
44 37 23 2 42 7 42 12 0 22 40 4 49 -22 12 -33 22 -35 39 -8 9 14 22 19 49 18
45 -1 84 5 102 16 19 12 27 -2 13 -24 -18 -30 -15 -50 9 -50 13 0 19 6 18 18
-4 31 23 72 58 84 18 7 33 17 33 23 0 5 7 18 15 29 13 17 15 17 30 2 9 -9 12
-16 6 -16 -6 0 -22 -12 -36 -27 -23 -25 -23 -28 -7 -35 28 -11 30 -9 34 20 4
24 5 25 12 7 4 -11 12 -28 16 -37 7 -12 5 -18 -9 -23 -13 -4 -18 -15 -17 -35
1 -21 5 -29 14 -25 8 3 16 5 18 5 2 0 4 13 4 29 0 17 5 33 10 36 6 3 10 15 10
25 0 10 5 22 12 26 6 4 8 3 5 -4 -9 -13 2 -42 15 -42 5 0 16 7 24 15 19 19 33
19 40 0 7 -18 94 -21 111 -4 8 8 17 8 31 0 11 -6 38 -11 60 -11 32 0 41 -4 45
-22 5 -18 8 -19 21 -8 11 8 16 9 16 1 0 -6 7 -11 15 -11 8 0 15 -7 15 -15 0
-8 5 -15 10 -15 6 0 10 14 10 31 0 27 -3 30 -23 26 -12 -4 -29 -2 -37 3 -11 7
-6 10 20 11 19 1 49 3 65 4 18 1 39 -6 52 -17 20 -19 21 -19 32 -1 10 17 10
17 11 -2 1 -19 1 -19 15 -1 8 11 21 16 30 13 10 -4 15 -1 15 11 1 15 2 15 13
2 15 -18 57 -14 57 6 0 16 35 49 53 49 6 0 16 13 21 28 8 22 7 30 -4 37 -8 6
-11 10 -6 10 5 0 3 7 -4 15 -7 8 -9 15 -5 15 15 0 34 -35 35 -62 0 -16 6 -28
13 -28 9 0 8 -3 -2 -9 -8 -5 -11 -16 -7 -29 4 -11 2 -23 -4 -27 -19 -12 -10
-27 14 -23 15 3 27 0 30 -8 7 -19 24 -17 52 5 14 11 33 17 44 14 22 -6 26 8
10 37 -7 13 -7 21 0 25 6 3 15 -6 21 -22 12 -32 26 -43 57 -43 13 0 22 6 22
15 0 19 14 19 30 0 7 -9 19 -14 25 -11 13 4 55 -45 55 -64 0 -5 11 -10 25 -10
25 0 33 -14 15 -25 -16 -10 -12 -19 13 -30 12 -6 23 -20 25 -32 2 -13 8 -23
13 -23 5 0 9 -7 9 -15 0 -8 9 -23 20 -32 22 -19 29 -96 9 -108 -6 -4 -8 -13
-5 -21 6 -16 -10 -19 -19 -4 -8 13 -25 13 -25 0 0 -15 26 -23 53 -16 20 5 23
12 22 38 -3 44 8 81 26 86 12 5 12 3 0 -12 -12 -15 -10 -22 20 -64 39 -55 57
-71 82 -72 18 0 22 -17 8 -39 -11 -18 -3 -41 14 -41 7 0 26 -20 42 -45 15 -25
32 -45 36 -45 11 0 37 -26 37 -37 0 -5 9 -28 20 -51 17 -35 25 -42 50 -42 36
0 46 -15 26 -36 -9 -8 -16 -23 -16 -31 0 -14 3 -13 22 3 12 10 18 13 14 6 -5
-9 6 -26 33 -51 23 -21 41 -45 41 -55 0 -15 3 -15 37 -1 33 14 38 14 45 0 12
-20 72 -21 65 -1 -3 8 -1 17 6 20 9 3 8 7 -2 14 -8 6 -9 12 -3 16 10 6 42 -35
42 -54 0 -6 15 -8 35 -6 26 3 35 1 35 -10 0 -8 5 -14 10 -14 6 0 10 7 10 15 0
11 10 13 45 9 26 -3 45 -1 45 5 0 6 12 6 32 0 55 -15 76 -11 93 19 13 22 15
23 10 5 -5 -18 -2 -23 12 -23 11 0 5 -7 -17 -18 -30 -16 -39 -16 -62 -5 -33
16 -37 2 -8 -27 24 -24 40 -26 40 -5 0 10 10 15 30 15 20 0 30 -5 30 -15 0 -8
7 -15 16 -15 8 0 12 5 9 10 -4 7 5 9 26 5 41 -7 49 -13 49 -31 0 -13 2 -13 16
1 9 8 13 22 10 30 -3 8 0 15 7 15 7 0 3 6 -7 12 -15 8 -21 8 -24 0 -2 -7 -15
-12 -29 -12 -18 0 -24 5 -21 17 2 14 13 17 49 17 26 -1 51 -4 58 -8 6 -4 19
-3 28 1 21 11 83 10 99 0 16 -9 73 -2 86 11 6 6 7 18 3 29 -12 28 -14 43 -5
43 10 0 20 -26 20 -51 0 -10 7 -19 15 -19 8 0 24 -6 36 -13 17 -10 22 -9 29 3
10 18 61 19 103 2 16 -7 33 -10 38 -6 5 3 9 -2 9 -10 0 -9 5 -16 11 -16 6 0 8
8 5 18 -5 15 1 17 49 17 37 0 55 -4 55 -12 0 -18 29 -16 36 2 4 8 10 15 16 15
5 0 6 -5 3 -11 -4 -6 2 -5 13 2 17 10 23 10 36 0 9 -8 16 -10 16 -5 0 5 11 14
25 20 23 11 24 10 18 -17 -3 -18 -1 -29 6 -29 6 0 11 6 11 14 0 7 6 19 14 25
11 10 17 8 25 -6 9 -17 10 -17 17 1 5 12 3 21 -4 24 -7 2 -12 10 -12 18 0 7
-9 19 -20 26 -11 7 -20 20 -20 30 0 9 -6 23 -12 30 -18 20 -38 50 -44 69 -7
20 -63 31 -81 17 -7 -6 -13 -18 -13 -27 -1 -14 -2 -14 -14 2 -8 10 -12 27 -9
37 3 11 0 20 -6 20 -5 0 -8 7 -5 15 8 21 22 19 20 -2 0 -10 5 -17 12 -15 8 1
11 -2 7 -8 -9 -15 4 -12 21 4 19 20 18 34 -7 48 -11 7 -27 28 -36 45 -8 18
-19 31 -23 28 -4 -3 -11 3 -14 12 -4 9 -1 20 5 24 6 4 8 12 5 18 -4 6 -12 9
-17 6 -5 -4 -9 -1 -9 4 0 6 -7 11 -15 11 -8 0 -15 6 -15 13 0 7 -12 28 -27 46
-16 19 -29 37 -29 42 -1 5 -2 14 -3 20 0 6 -8 9 -16 5 -10 -4 -15 1 -15 14 0
22 16 27 23 8 3 -10 9 -9 21 3 16 14 15 17 -4 41 -17 22 -17 27 -5 32 21 8 19
26 -4 26 -30 0 -32 -36 -4 -65 14 -14 22 -25 16 -25 -5 0 -14 5 -21 12 -8 8
-15 8 -26 -1 -18 -15 -30 -1 -35 40 0 5 -4 8 -8 6 -10 -5 -37 24 -41 44 -2 8
-13 24 -25 37 -12 13 -22 33 -23 45 -1 12 -2 29 -2 38 -2 21 -42 33 -42 13 0
-8 -4 -14 -10 -14 -5 0 -10 9 -10 21 0 12 -4 18 -11 13 -7 -4 -10 -1 -7 7 10
29 83 22 91 -9 3 -11 5 -7 6 10 1 21 5 25 21 21 11 -3 23 -10 27 -16 3 -6 1
-7 -5 -3 -6 3 -16 -2 -21 -13 -14 -26 -14 -64 0 -59 6 2 10 8 10 13 0 13 40
55 52 55 5 0 5 -6 -1 -13 -7 -8 -7 -18 -2 -27 12 -20 22 -7 26 34 2 34 1 35
-28 29 -23 -5 -29 -3 -24 6 5 7 10 10 13 7 3 -3 14 -1 24 5 13 6 19 6 19 -1 0
-15 30 -12 36 4 5 12 57 31 77 27 4 -1 17 3 27 9 15 8 20 8 20 -2 0 -7 8 -1
18 15 9 15 21 27 26 27 5 0 6 -3 3 -7 -7 -6 21 -32 36 -33 12 0 8 38 -5 43 -7
2 4 10 25 17 20 8 37 19 37 26 0 16 25 25 37 13 11 -11 63 -2 63 11 0 21 -13
39 -24 33 -6 -3 12 16 39 44 32 33 53 47 57 39 4 -6 5 5 2 25 -4 20 -2 39 3
42 5 3 10 1 10 -6 0 -7 4 -30 8 -51 7 -37 6 -39 -14 -33 -16 4 -21 1 -21 -14
0 -10 6 -19 14 -19 7 0 16 -9 19 -20 3 -11 1 -20 -4 -20 -16 0 -10 -60 7 -67
12 -4 13 -8 3 -13 -13 -9 -5 -40 11 -40 5 0 9 3 9 8 -3 20 2 32 16 32 25 0 17
20 -12 31 -21 8 -24 12 -13 22 10 9 13 9 17 0 7 -18 43 -16 43 2 0 9 -10 19
-22 24 l-23 8 23 7 c31 10 18 26 -21 26 -19 0 -27 4 -20 8 7 4 16 19 22 32 7
18 10 20 10 8 1 -24 13 -23 34 2 27 32 18 57 -10 29 -16 -16 -36 -1 -30 22 4
13 0 19 -12 19 -13 0 -18 8 -18 30 0 17 4 30 9 30 5 0 13 10 18 23 l9 22 0
-22 c1 -17 6 -21 29 -20 20 2 27 -2 26 -16 -2 -17 0 -17 22 -2 13 8 30 15 39
15 8 0 15 7 15 15 0 20 6 19 32 -7 24 -24 36 -11 19 20 -15 28 -49 35 -56 11
-8 -23 -25 -25 -25 -3 0 10 -6 14 -15 10 -8 -3 -15 -1 -15 4 0 6 8 10 18 11
12 0 10 3 -7 10 -33 13 -58 4 -42 -15 10 -12 8 -13 -8 -9 -21 5 -28 18 -13 25
4 2 18 24 31 50 15 31 28 45 37 41 8 -3 14 -1 14 5 0 6 -5 12 -10 14 -12 4 32
102 56 125 8 8 14 20 14 27 0 8 16 44 35 81 19 37 36 72 39 79 3 8 7 7 14 -2
5 -8 21 -12 38 -9 l29 4 -33 8 c-23 5 -31 12 -28 22 4 8 6 17 6 19 0 9 29 3
32 -7 5 -16 48 -1 48 17 0 8 5 14 10 14 14 0 33 52 23 59 -12 9 -33 72 -22 65
13 -7 31 45 23 68 -4 15 -14 19 -42 18 -21 -1 -60 -2 -88 -1 -45 1 -51 4 -61
29 l-11 27 -1 -26 c-1 -24 -5 -27 -43 -30 -45 -4 -157 6 -123 11 11 1 24 2 29
1 5 -1 6 8 2 21 -3 13 -6 26 -6 31 0 4 -10 7 -22 7 -21 -1 -22 -2 -5 -14 20
-16 23 -40 3 -33 -8 3 -20 -1 -26 -9 -16 -18 -44 -18 -60 2 -8 8 -21 19 -30
24 -14 8 -17 5 -14 -15 2 -22 -2 -25 -32 -25 -19 0 -34 4 -34 10 0 9 -62 40
-80 40 -4 0 -10 -8 -13 -19 -3 -15 -17 -20 -68 -25 -124 -12 -350 -10 -330 3
11 7 10 10 -5 14 -16 4 -17 5 -1 6 10 1 17 9 17 21 0 15 -7 20 -25 20 -26 0
-34 -15 -12 -23 8 -4 8 -6 0 -6 -6 -1 -9 -10 -6 -20 4 -17 -2 -20 -54 -23 -91
-5 -113 0 -131 32 -9 16 -28 31 -43 34 -15 3 -33 11 -40 19 -8 7 -29 20 -46
28 -18 7 -33 20 -33 26 0 7 -4 13 -10 13 -5 0 -10 -3 -10 -6z"/>
<path d="M8860 2651 c0 -6 5 -11 10 -11 14 0 13 -37 -1 -46 -8 -5 -6 -10 5
-16 9 -5 16 -18 16 -28 0 -12 9 -22 24 -26 15 -3 23 -11 20 -19 -5 -12 75 -60
84 -50 2 2 -3 14 -12 27 -21 30 -20 38 5 38 16 0 19 -4 14 -20 -4 -12 0 -26 9
-35 17 -17 29 -5 20 20 -6 15 -1 14 36 -5 23 -12 44 -19 47 -16 3 3 18 -1 34
-10 38 -19 37 -5 -2 32 -21 19 -33 25 -36 17 -6 -16 -23 -17 -23 -2 0 23 -44
48 -74 42 -21 -5 -33 -1 -42 12 -13 18 -15 18 -37 -3 -30 -28 -47 -28 -47 1 0
13 -4 27 -9 33 -5 5 -11 22 -13 38 -3 27 -28 51 -28 27z"/>
<path d="M11089 2539 c-9 -17 -13 -19 -20 -8 -10 17 -15 12 -24 -24 -6 -24 -5
-27 16 -25 13 2 29 9 34 15 17 22 55 4 56 -26 0 -22 2 -23 8 -7 5 13 10 16 15
8 3 -6 13 -9 22 -5 8 3 14 1 12 -5 -5 -20 37 -72 66 -82 38 -13 61 3 43 31 -7
11 -15 15 -20 10 -12 -12 -54 6 -61 25 -3 7 -1 16 4 19 6 4 10 1 10 -5 0 -6 8
-10 18 -8 9 1 22 -1 29 -5 13 -8 27 8 18 22 -3 6 -13 10 -23 10 -40 1 -50 5
-45 16 4 13 -74 38 -89 29 -4 -3 -8 4 -8 15 0 29 -45 29 -61 0z"/>
<path d="M6423 2286 c-13 -6 -23 -16 -23 -23 0 -17 -17 -17 -23 0 -2 6 -8 8
-13 4 -4 -4 -3 -17 4 -27 7 -11 8 -20 3 -20 -5 0 -11 6 -14 13 -2 6 -8 8 -13
4 -5 -5 -1 -13 9 -18 9 -6 17 -17 17 -24 0 -8 5 -15 10 -15 6 0 10 10 10 23 1
20 1 21 11 3 8 -13 8 -24 -1 -41 -10 -20 -9 -26 9 -44 12 -12 31 -21 44 -22
12 0 16 -3 10 -6 -21 -8 -15 -44 7 -50 22 -6 22 -8 11 -38 -8 -20 14 -54 27
-41 12 13 8 86 -5 86 -16 0 -16 5 -1 33 11 20 11 21 18 3 3 -11 14 -20 23 -22
10 -1 14 2 11 7 -3 6 -1 16 5 23 9 10 7 15 -5 20 -17 7 -11 21 9 21 5 0 12 6
15 13 5 17 -23 15 -42 -3 -19 -19 -26 -19 -26 1 0 9 -5 12 -12 8 -16 -10 -58
-12 -64 -3 -2 4 4 14 14 21 29 21 35 48 11 48 -11 0 -17 -4 -14 -10 3 -5 1
-10 -5 -10 -7 0 -10 6 -7 14 3 7 0 19 -6 25 -8 8 -5 16 8 31 22 24 18 30 -12
16z"/>
<path d="M19188 845 c-2 -465 0 -845 5 -845 4 0 7 380 7 845 0 465 -2 845 -5
845 -3 0 -6 -380 -7 -845z"/>
<path d="M7240 145 c0 -11 -3 -31 -7 -44 -5 -20 -3 -23 11 -18 13 5 19 1 23
-13 7 -25 18 -26 33 -2 10 15 11 15 7 -5 -3 -15 -1 -20 9 -16 8 3 14 0 14 -6
0 -18 -51 -33 -97 -29 -24 2 -43 0 -43 -4 0 -5 110 -8 245 -7 144 0 245 4 245
10 0 5 -11 9 -25 9 -15 0 -28 7 -32 16 -6 15 -7 15 -19 -1 -24 -33 -169 -28
-179 6 -9 28 -28 23 -23 -6 4 -21 1 -25 -19 -25 -22 0 -24 3 -18 32 6 26 5 30
-9 25 -10 -4 -16 -1 -16 8 0 8 6 12 14 9 19 -7 31 15 16 29 -10 9 -14 9 -17
-1 -3 -6 -9 -10 -13 -7 -5 3 -7 12 -4 19 7 18 -15 33 -58 38 -33 3 -38 1 -38
-17z"/>
<path d="M330 57 c0 -35 -34 -47 -131 -47 -93 1 -129 11 -129 39 0 6 -9 11
-20 11 -24 0 -26 -15 -4 -24 9 -4 14 -13 10 -21 -5 -13 33 -15 294 -15 165 0
300 4 300 8 0 4 3 17 6 30 5 16 2 22 -10 22 -15 0 -20 -11 -17 -37 2 -16 -27
-6 -53 19 -21 20 -36 23 -36 9 0 -5 8 -12 18 -16 15 -7 14 -9 -8 -15 -50 -16
-80 -12 -80 10 0 29 -60 29 -67 0 -8 -30 -33 -24 -46 10 -12 31 -27 40 -27 17z"/>
<path d="M2605 41 c-3 -6 3 -15 12 -21 14 -8 -5 -9 -72 -5 -49 4 -102 9 -117
11 -16 3 -28 1 -28 -5 0 -7 -63 -12 -182 -13 -101 -2 170 -4 601 -6 431 -1
782 0 779 3 -2 3 -104 6 -226 7 -177 2 -222 5 -218 15 3 7 1 13 -5 13 -5 0
-12 -6 -15 -14 -4 -11 -48 -14 -233 -15 -216 -1 -228 0 -246 19 -19 21 -40 26
-50 11z"/>
<path d="M14550 10 l-795 -5 818 -3 c544 -1 816 1 812 8 -3 6 -14 9 -23 8 -9
-2 -375 -5 -812 -8z"/>
</g>
</svg>
