<?xml version="1.0" standalone="no"?>
<!DOCTYPE svg PUBLIC "-//W3C//DTD SVG 20010904//EN"
 "http://www.w3.org/TR/2001/REC-SVG-20010904/DTD/svg10.dtd">
<svg version="1.0" xmlns="http://www.w3.org/2000/svg"
 width="1920.000000pt" height="1080.000000pt" viewBox="0 0 1920.000000 1080.000000"
 preserveAspectRatio="xMidYMid meet">
<metadata>
Created by potrace 1.16, written by Peter Selinger 2001-2019
</metadata>
<g transform="translate(0.000000,1080.000000) scale(0.100000,-0.100000)"
fill="#000000" stroke="none">
<path d="M0 5400 l0 -5400 9600 0 9600 0 0 5400 0 5400 -9600 0 -9600 0 0
-5400z m16317 5380 l2873 0 -3 -5382 -2 -5383 -9580 -2 c-5268 -2 -9581 0
-9585 5 -3 4 -4 2428 -2 5388 l2 5381 6713 -3 c3691 -2 8005 -3 9584 -4z"/>
<path d="M11915 10120 c-360 -5 -382 -6 -425 -26 -25 -12 -55 -25 -67 -28 -13
-4 -23 -12 -23 -17 0 -5 -7 -9 -16 -9 -21 0 -87 -52 -157 -125 -55 -56 -146
-195 -147 -222 0 -7 -4 -13 -8 -13 -4 0 -14 -17 -21 -37 -8 -21 -17 -40 -20
-43 -8 -7 -41 -76 -58 -120 -7 -19 -13 -67 -13 -105 0 -78 19 -126 73 -182 66
-70 47 -67 609 -73 278 -3 510 -9 514 -13 5 -4 2 -18 -6 -30 -7 -12 -35 -60
-61 -107 l-47 -85 -680 -5 c-730 -5 -686 -2 -737 -56 -11 -11 -42 -63 -69
-115 -27 -52 -54 -101 -60 -109 -23 -29 -44 -87 -37 -99 12 -18 1606 -11 1641
7 15 8 43 47 71 100 25 48 51 86 58 84 7 -1 10 2 6 8 -5 8 79 194 95 210 5 5
36 63 78 145 14 28 29 52 34 53 4 2 8 9 8 16 0 14 25 63 94 183 69 121 68 130
-14 174 l-45 24 -507 3 c-280 2 -508 5 -508 7 0 3 16 34 35 69 19 36 35 71 35
79 0 8 -28 28 -62 46 l-63 31 670 -5 c369 -3 675 -2 681 2 5 5 18 24 28 43 9
19 30 58 45 85 82 148 121 226 121 245 0 20 -4 20 -332 18 -183 -1 -504 -5
-713 -8z"/>
<path d="M4565 5812 c-70 -24 -136 -86 -177 -168 -57 -112 -131 -250 -139
-258 -5 -6 -9 -31 -9 -56 0 -38 5 -51 30 -75 l30 -29 243 1 c133 1 247 2 254
2 6 1 22 18 34 39 13 20 28 40 33 44 6 4 7 8 2 8 -5 0 -3 7 4 15 7 8 10 22 6
30 -5 13 -38 15 -221 15 l-215 0 23 38 c13 20 40 71 61 112 21 41 43 79 47 85
5 5 9 18 9 30 0 20 4 20 216 17 182 -2 220 0 240 13 28 18 78 111 70 130 -4
11 -56 14 -263 14 -142 -1 -267 -4 -278 -7z"/>
<path d="M5223 5795 c-75 -35 -104 -70 -178 -210 -37 -71 -79 -150 -93 -174
-45 -81 -24 -167 44 -182 16 -4 143 -7 282 -8 248 -1 253 -1 300 23 26 13 59
37 73 53 23 25 83 132 171 305 16 32 34 60 39 63 31 20 -11 130 -53 139 -13 3
-138 7 -280 9 -251 5 -257 5 -305 -18z m414 -178 c-13 -23 -48 -86 -76 -139
-34 -63 -59 -98 -69 -98 -15 -1 -354 -1 -359 0 -1 0 9 21 23 48 85 155 113
213 109 224 -4 10 36 12 196 10 l200 -3 -24 -42z"/>
<path d="M6002 5790 c-22 -16 -51 -58 -84 -120 -186 -354 -177 -332 -157 -387
21 -61 45 -65 329 -61 l255 3 48 33 c26 18 55 45 64 60 10 15 20 29 23 32 3 3
21 37 41 75 84 168 134 260 142 266 5 3 8 9 8 13 -1 11 12 41 30 67 10 14 16
29 12 33 -3 3 -39 6 -78 6 -67 0 -74 -2 -108 -32 -20 -19 -58 -76 -88 -133
-114 -222 -139 -263 -162 -268 -32 -7 -317 -9 -317 -2 0 3 12 27 26 53 97 171
197 372 190 379 -4 4 -37 7 -73 7 -56 1 -72 -3 -101 -24z"/>
<path d="M6749 5717 c-62 -123 -149 -290 -159 -302 -22 -28 -90 -177 -85 -185
9 -14 128 -13 159 2 14 6 36 27 48 47 32 53 138 253 145 274 9 27 17 21 37
-31 11 -26 30 -69 43 -96 12 -28 23 -53 23 -58 0 -14 59 -136 68 -142 5 -3 46
-6 91 -7 96 -2 98 -1 152 106 20 39 54 104 76 145 123 232 173 329 173 334 0
3 -34 6 -77 6 -90 0 -123 -19 -161 -91 -13 -24 -37 -69 -53 -99 -17 -30 -45
-83 -63 -118 -36 -69 -32 -70 -72 23 -9 22 -24 58 -34 80 -10 22 -30 72 -45
110 -16 39 -35 76 -44 83 -9 7 -45 12 -95 12 l-81 -1 -46 -92z"/>
<path d="M7572 5798 c-7 -7 -12 -17 -12 -24 0 -7 -3 -14 -7 -16 -11 -4 -43
-67 -43 -84 0 -19 39 -27 120 -22 39 2 70 3 70 1 0 -1 -20 -39 -44 -85 -24
-46 -62 -118 -84 -160 -22 -42 -43 -74 -48 -70 -4 4 -4 2 0 -5 4 -7 -5 -30
-19 -52 -14 -23 -25 -45 -25 -50 0 -24 99 -29 151 -7 41 17 56 34 92 102 15
28 40 76 56 105 16 30 47 91 70 137 l42 82 92 0 c72 0 97 4 114 18 29 23 86
119 78 132 -9 15 -587 14 -603 -2z"/>
<path d="M8246 5783 c-38 -28 -44 -37 -203 -343 -36 -69 -70 -129 -74 -134
-17 -19 -9 -65 13 -80 19 -14 64 -16 293 -16 197 1 274 4 286 13 21 16 72 116
66 131 -3 8 -67 11 -219 11 l-215 0 19 31 c10 18 25 34 32 37 7 3 89 6 181 7
92 0 172 3 176 5 16 10 59 99 55 112 -4 10 -44 13 -176 13 -93 0 -170 2 -170
4 0 2 7 16 14 32 8 15 13 31 10 36 -3 4 95 8 218 8 163 1 227 4 240 13 20 16
78 113 78 132 0 13 -43 15 -294 15 l-293 0 -37 -27z"/>
<path d="M8948 5793 c-20 -25 -44 -66 -123 -218 -38 -71 -80 -150 -93 -175
-55 -100 -90 -174 -86 -182 3 -4 36 -8 75 -8 65 0 71 2 108 35 21 19 44 49 51
65 l12 30 142 0 142 0 17 -37 c9 -21 21 -50 26 -65 10 -26 15 -28 68 -29 32 0
69 -2 83 -5 14 -2 32 1 40 6 15 9 11 30 -25 112 -5 13 -1 20 16 27 37 13 51
35 128 184 45 89 71 151 71 172 0 43 -32 82 -78 95 -21 5 -150 10 -298 10
-236 0 -262 -2 -276 -17z m452 -152 c0 -5 -7 -14 -15 -21 -8 -7 -15 -18 -15
-24 0 -6 -14 -32 -30 -58 l-30 -48 -165 0 c-91 0 -165 3 -165 7 0 3 16 35 35
70 20 36 33 69 30 74 -4 5 65 9 174 9 100 0 181 -4 181 -9z"/>
<path d="M10260 5793 c-46 -7 -122 -74 -162 -143 -20 -36 -40 -79 -43 -96 -9
-42 17 -101 50 -114 15 -6 103 -10 196 -10 93 0 169 -2 169 -5 0 -9 -25 -50
-35 -57 -5 -4 -113 -8 -240 -8 -168 -1 -234 -4 -246 -13 -9 -7 -31 -39 -49
-71 -25 -46 -29 -61 -18 -67 7 -5 138 -9 291 -9 309 0 313 1 388 71 41 39 103
142 111 183 9 44 -8 90 -41 109 -25 14 -56 17 -205 17 -176 0 -177 0 -166 21
7 11 9 27 6 35 -5 12 33 14 247 14 l253 0 25 28 c33 37 63 98 55 111 -7 11
-523 14 -586 4z"/>
<path d="M10876 5733 c-20 -37 -36 -71 -36 -75 0 -8 6 -9 75 -12 22 -1 59 -3
82 -4 l43 -2 -30 -49 c-17 -26 -30 -51 -30 -53 0 -3 -19 -41 -43 -84 -95 -173
-127 -234 -127 -245 0 -8 26 -10 79 -8 68 4 83 8 106 29 33 31 99 144 200 345
l35 70 96 2 c85 1 99 4 120 24 30 28 70 106 60 116 -4 5 -140 9 -301 11 l-293
3 -36 -68z"/>
<path d="M11579 5794 c-9 -3 -35 -42 -59 -87 -23 -45 -59 -113 -80 -152 -85
-156 -180 -340 -180 -347 0 -4 33 -8 73 -8 65 0 78 3 109 27 19 15 43 44 53
65 l18 38 142 0 141 0 30 -62 29 -63 89 -3 c49 -2 93 1 98 6 6 6 -1 29 -16 60
-14 28 -26 53 -26 56 0 2 15 13 33 24 35 20 48 41 144 230 l57 112 -17 35
c-33 68 -39 70 -347 71 -151 1 -282 0 -291 -2z m441 -152 c0 -7 -55 -110 -72
-134 l-19 -28 -165 0 c-90 0 -164 2 -164 6 0 3 14 31 32 62 17 31 31 66 30 77
-1 19 5 20 178 20 99 0 180 -1 180 -3z"/>
<path d="M12478 5792 c-44 -2 -80 -8 -86 -15 -10 -13 -77 -136 -121 -222 -14
-27 -29 -52 -32 -55 -3 -3 -11 -21 -19 -40 -8 -19 -23 -51 -35 -70 -45 -75
-94 -177 -88 -184 11 -10 140 -7 166 5 29 13 30 14 172 284 26 50 51 94 56
100 5 5 9 17 9 26 0 10 4 19 8 21 9 3 72 126 72 139 0 12 -21 14 -102 11z"/>
<path d="M13245 5790 l-130 -5 -160 -104 c-88 -57 -168 -111 -177 -119 -28
-24 -22 -7 38 104 30 57 53 108 49 114 -3 5 -43 10 -88 10 -95 0 -80 14 -166
-150 -30 -58 -90 -170 -133 -250 -110 -202 -110 -190 -1 -190 l89 0 21 38 c12
20 31 55 42 77 l20 40 90 -3 90 -3 41 -75 41 -74 94 0 c52 0 96 4 99 8 3 4 -1
17 -7 29 -7 11 -24 42 -40 69 -28 50 -33 60 -74 126 -13 21 -23 42 -23 46 0 5
30 29 68 53 37 23 110 70 162 104 52 34 119 77 148 95 47 30 64 54 45 62 -5 2
-66 1 -138 -2z"/>
<path d="M14508 5785 c-27 -32 -33 -42 -50 -74 -34 -63 -42 -61 222 -61 132 0
240 -2 240 -5 0 -4 -7 -19 -15 -35 l-16 -30 -205 0 c-198 0 -206 -1 -253 -25
-27 -13 -62 -41 -78 -62 -40 -50 -155 -272 -147 -284 3 -5 148 -9 340 -9 l334
0 27 55 27 55 -22 23 c-22 21 -32 22 -232 27 l-209 5 15 30 14 30 213 -3 c293
-4 281 -9 378 177 47 92 40 154 -21 186 -44 22 -543 22 -562 0z"/>
<path d="M13465 5782 c-50 -17 -67 -39 -150 -197 -31 -60 -81 -155 -111 -210
-29 -55 -53 -110 -54 -123 0 -51 7 -52 309 -52 276 0 281 0 301 22 30 32 64
108 53 119 -5 5 -102 10 -215 11 l-207 3 15 30 14 30 165 -3 c153 -3 167 -2
194 17 27 19 71 89 71 111 0 6 -69 10 -176 10 -164 0 -176 1 -168 18 4 9 8 29
8 45 l1 27 226 0 c165 0 229 3 241 13 9 6 31 36 48 66 24 42 28 56 18 62 -15
10 -553 10 -583 1z"/>
</g>
</svg>
