<?xml version="1.0" standalone="no"?>
<!DOCTYPE svg PUBLIC "-//W3C//DTD SVG 20010904//EN"
 "http://www.w3.org/TR/2001/REC-SVG-20010904/DTD/svg10.dtd">
<svg version="1.0" xmlns="http://www.w3.org/2000/svg"
 width="1920.000000pt" height="1080.000000pt" viewBox="0 0 1920.000000 1080.000000"
 preserveAspectRatio="xMidYMid meet">
<metadata>
Created by potrace 1.16, written by Peter Selinger 2001-2019
</metadata>
<g transform="translate(0.000000,1080.000000) scale(0.100000,-0.100000)"
fill="#000000" stroke="none">
<path d="M0 5400 l0 -5400 9600 0 9600 0 0 5400 0 5400 -9600 0 -9600 0 0
-5400z m16317 5380 l2873 0 -3 -5382 -2 -5383 -9579 -3 c-5269 -1 -9582 1
-9585 5 -4 5 -5 2430 -3 5389 l2 5382 6713 -4 c3691 -2 8005 -4 9584 -4z"/>
<path d="M11473 9763 c-42 -4 -63 -28 -48 -53 3 -5 0 -10 -8 -10 -17 0 -29
-24 -21 -43 3 -10 27 -14 77 -14 40 -1 85 -6 100 -12 42 -16 122 -14 137 4 7
8 10 15 7 15 -4 0 5 16 18 36 30 44 31 54 7 54 -10 0 -22 3 -26 7 -3 4 -14 8
-24 10 -31 7 -176 10 -219 6z"/>
<path d="M9234 7623 c-24 -3 -36 -13 -53 -44 -12 -21 -21 -49 -19 -62 3 -21 9
-22 113 -28 61 -4 194 -7 296 -8 172 -1 187 0 203 18 23 25 13 41 -25 41 -54
0 -21 37 37 42 26 2 40 8 42 19 2 13 -14 17 -110 22 -117 7 -429 7 -484 0z"/>
<path d="M9882 7560 l-33 -60 28 -11 c39 -15 139 -6 173 16 8 5 61 11 118 13
92 4 102 6 102 23 0 17 -9 19 -101 19 -64 0 -98 4 -94 10 3 6 51 10 110 10
112 0 135 5 135 26 0 12 -36 14 -203 14 l-202 0 -33 -60z"/>
<path d="M4565 5812 c-70 -24 -136 -86 -177 -168 -57 -112 -131 -250 -139
-258 -5 -6 -9 -31 -9 -56 0 -38 5 -51 30 -75 l30 -29 243 1 c133 1 247 2 254
2 6 1 22 18 34 39 13 20 28 40 33 44 6 4 7 8 2 8 -5 0 -3 7 4 15 7 8 10 22 6
30 -5 13 -38 15 -221 15 l-215 0 23 38 c13 20 40 71 61 112 21 41 43 79 47 85
5 5 9 18 9 30 0 20 4 20 216 17 182 -2 220 0 240 13 28 18 78 111 70 130 -4
11 -56 14 -263 14 -142 -1 -267 -4 -278 -7z"/>
<path d="M5223 5795 c-75 -35 -104 -70 -178 -210 -37 -71 -79 -150 -93 -174
-45 -81 -24 -167 44 -182 16 -4 143 -7 282 -8 248 -1 253 -1 300 23 26 13 59
37 73 53 23 25 83 132 171 305 16 32 34 60 39 63 31 20 -11 130 -53 139 -13 3
-138 7 -280 9 -251 5 -257 5 -305 -18z m414 -178 c-13 -23 -48 -86 -76 -139
-34 -63 -59 -98 -69 -98 -15 -1 -354 -1 -359 0 -1 0 9 21 23 48 85 155 113
213 109 224 -4 10 36 12 196 10 l200 -3 -24 -42z"/>
<path d="M6002 5790 c-22 -16 -51 -58 -84 -120 -186 -354 -177 -332 -157 -387
21 -61 45 -65 329 -61 l255 3 48 33 c26 18 55 45 64 60 10 15 20 29 23 32 3 3
21 37 41 75 84 168 134 260 142 266 5 3 8 9 8 13 -1 11 12 41 30 67 10 14 16
29 12 33 -3 3 -39 6 -78 6 -67 0 -74 -2 -108 -32 -20 -19 -58 -76 -88 -133
-114 -222 -139 -263 -162 -268 -32 -7 -317 -9 -317 -2 0 3 12 27 26 53 97 171
197 372 190 379 -4 4 -37 7 -73 7 -56 1 -72 -3 -101 -24z"/>
<path d="M6749 5717 c-62 -123 -149 -290 -159 -302 -22 -28 -90 -177 -85 -185
9 -14 128 -13 159 2 14 6 36 27 48 47 32 53 138 253 145 274 9 27 17 21 37
-31 11 -26 30 -69 43 -96 12 -28 23 -53 23 -58 0 -14 59 -136 68 -142 5 -3 46
-6 91 -7 96 -2 98 -1 152 106 20 39 54 104 76 145 123 232 173 329 173 334 0
3 -34 6 -77 6 -90 0 -123 -19 -161 -91 -13 -24 -37 -69 -53 -99 -17 -30 -45
-83 -63 -118 -36 -69 -32 -70 -72 23 -9 22 -24 58 -34 80 -10 22 -30 72 -45
110 -16 39 -35 76 -44 83 -9 7 -45 12 -95 12 l-81 -1 -46 -92z"/>
<path d="M7572 5798 c-7 -7 -12 -17 -12 -24 0 -7 -3 -14 -7 -16 -11 -4 -43
-67 -43 -84 0 -19 39 -27 120 -22 39 2 70 3 70 1 0 -1 -20 -39 -44 -85 -24
-46 -62 -118 -84 -160 -22 -42 -43 -74 -48 -70 -4 4 -4 2 0 -5 4 -7 -5 -30
-19 -52 -14 -23 -25 -45 -25 -50 0 -24 99 -29 151 -7 41 17 56 34 92 102 15
28 40 76 56 105 16 30 47 91 70 137 l42 82 92 0 c72 0 97 4 114 18 29 23 86
119 78 132 -9 15 -587 14 -603 -2z"/>
<path d="M8246 5783 c-38 -28 -44 -37 -203 -343 -36 -69 -70 -129 -74 -134
-17 -19 -9 -65 13 -80 19 -14 64 -16 293 -16 197 1 274 4 286 13 21 16 72 116
66 131 -3 8 -67 11 -219 11 l-215 0 19 31 c10 18 25 34 32 37 7 3 89 6 181 7
92 0 172 3 176 5 16 10 59 99 55 112 -4 10 -44 13 -176 13 -93 0 -170 2 -170
4 0 2 7 16 14 32 8 15 13 31 10 36 -3 4 95 8 218 8 163 1 227 4 240 13 20 16
78 113 78 132 0 13 -43 15 -294 15 l-293 0 -37 -27z"/>
<path d="M8948 5793 c-20 -25 -44 -66 -123 -218 -38 -71 -80 -150 -93 -175
-55 -100 -90 -174 -86 -182 3 -4 36 -8 75 -8 65 0 71 2 108 35 21 19 44 49 51
65 l12 30 142 0 142 0 17 -37 c9 -21 21 -50 26 -65 10 -26 15 -28 68 -29 32 0
69 -2 83 -5 14 -2 32 1 40 6 15 9 11 30 -25 112 -5 13 -1 20 16 27 37 13 51
35 128 184 45 89 71 151 71 172 0 43 -32 82 -78 95 -21 5 -150 10 -298 10
-236 0 -262 -2 -276 -17z m452 -152 c0 -5 -7 -14 -15 -21 -8 -7 -15 -18 -15
-24 0 -6 -14 -32 -30 -58 l-30 -48 -165 0 c-91 0 -165 3 -165 7 0 3 16 35 35
70 20 36 33 69 30 74 -4 5 65 9 174 9 100 0 181 -4 181 -9z"/>
<path d="M10642 5788 c-13 -17 -48 -88 -56 -115 -7 -23 -6 -23 86 -23 90 0 95
1 119 28 33 37 63 98 55 111 -10 16 -191 15 -204 -1z"/>
<path d="M10876 5733 c-20 -37 -36 -71 -36 -75 0 -8 6 -9 75 -12 126 -5 129
-6 117 -18 -30 -30 -13 -38 77 -38 87 0 90 1 106 28 16 26 19 27 112 29 84 1
98 4 119 24 30 28 70 106 60 116 -4 5 -140 9 -301 11 l-293 3 -36 -68z"/>
<path d="M11579 5794 c-9 -3 -35 -42 -59 -87 -23 -45 -59 -113 -80 -152 -85
-156 -180 -340 -180 -347 0 -4 33 -8 73 -8 65 0 78 3 109 27 19 15 43 44 53
65 l18 38 142 0 141 0 30 -62 29 -63 89 -3 c49 -2 93 1 98 6 6 6 -1 29 -16 60
-14 28 -26 53 -26 56 0 2 15 13 33 24 35 20 48 41 144 230 l57 112 -17 35
c-33 68 -39 70 -347 71 -151 1 -282 0 -291 -2z m441 -152 c0 -7 -55 -110 -72
-134 l-19 -28 -165 0 c-90 0 -164 2 -164 6 0 3 14 31 32 62 17 31 31 66 30 77
-1 19 5 20 178 20 99 0 180 -1 180 -3z"/>
<path d="M12478 5792 c-44 -2 -80 -8 -86 -15 -10 -13 -77 -136 -121 -222 -14
-27 -29 -52 -32 -55 -3 -3 -11 -21 -19 -40 -8 -19 -23 -51 -35 -70 -45 -75
-94 -177 -88 -184 11 -10 140 -7 166 5 29 13 30 14 172 284 26 50 51 94 56
100 5 5 9 17 9 26 0 10 4 19 8 21 9 3 72 126 72 139 0 12 -21 14 -102 11z"/>
<path d="M13245 5790 l-130 -5 -160 -104 c-88 -57 -168 -111 -177 -119 -28
-24 -22 -7 38 105 36 67 53 108 47 114 -6 6 -47 9 -92 7 l-83 -3 -29 -55 c-16
-30 -81 -152 -144 -270 -64 -118 -118 -225 -121 -237 -6 -23 -5 -23 83 -23
l89 0 21 38 c12 20 31 55 42 77 l20 40 90 -3 90 -3 41 -75 41 -74 94 0 c52 0
96 4 99 8 3 4 -1 17 -7 29 -7 11 -24 42 -40 69 -28 50 -33 60 -74 126 -13 21
-23 42 -23 46 0 5 30 29 68 53 37 23 110 70 162 104 52 34 119 77 148 95 47
30 64 54 45 62 -5 2 -66 1 -138 -2z"/>
<path d="M14508 5785 c-27 -32 -33 -42 -50 -74 -37 -69 -45 -66 222 -63 l241
3 -7 -25 -6 -26 89 0 89 0 19 32 c20 34 22 87 4 119 -23 45 -53 49 -328 49
-222 0 -262 -2 -273 -15z"/>
<path d="M13465 5782 c-50 -17 -67 -39 -150 -197 -31 -60 -81 -155 -111 -210
-29 -55 -53 -110 -54 -123 0 -50 9 -52 292 -52 l264 0 25 43 c26 45 49 96 46
99 -1 1 -88 4 -194 7 l-192 6 15 30 14 30 168 -3 168 -3 28 26 c20 18 31 23
36 15 11 -18 64 -8 68 14 3 16 -1 18 -32 14 -40 -4 -42 -2 -21 26 33 44 25 46
-161 46 -164 0 -176 1 -168 18 4 9 8 29 8 45 l1 27 226 0 c165 0 229 3 241 13
9 6 31 36 48 66 24 42 28 56 18 62 -15 10 -553 10 -583 1z"/>
<path d="M10100 5621 c-18 -5 -29 -19 -39 -48 -13 -35 -13 -46 0 -79 22 -58
41 -64 232 -64 142 0 167 -2 167 -15 0 -8 -4 -15 -9 -15 -5 0 -11 -9 -14 -20
-5 -19 -14 -20 -239 -20 -171 -1 -237 -4 -249 -13 -9 -7 -31 -39 -49 -71 -25
-46 -29 -61 -18 -67 16 -11 469 -12 484 -1 6 4 21 26 33 50 13 26 26 40 33 36
7 -4 8 -3 4 5 -4 6 -4 20 -1 31 5 17 15 20 71 20 78 0 134 20 134 49 0 11 -8
25 -17 30 -15 9 -12 10 15 11 39 0 55 26 27 46 -13 9 -37 12 -82 8 l-64 -6 20
33 c36 59 36 59 -129 59 -140 0 -150 1 -150 19 0 11 -9 21 -22 25 -29 7 -106
6 -138 -3z"/>
<path d="M10762 5485 c-58 -26 -35 -40 71 -43 l97 -3 -14 -22 c-8 -12 -17 -32
-21 -44 -6 -22 -5 -23 72 -23 91 0 123 7 123 26 0 7 16 29 35 48 60 60 53 66
-89 66 -67 0 -150 2 -182 5 -41 4 -69 1 -92 -10z"/>
<path d="M14345 5476 c-11 -8 -16 -19 -12 -30 4 -9 1 -16 -6 -16 -13 0 -47
-50 -47 -69 0 -8 101 -11 341 -11 l341 0 -5 25 c-2 14 -2 23 1 21 5 -5 52 40
52 49 0 2 -10 13 -22 25 -21 19 -34 20 -323 20 -238 0 -305 -3 -320 -14z"/>
<path d="M3460 3350 c-157 -3 -286 -7 -287 -8 -9 -9 -53 -78 -53 -83 0 -4 16
-14 36 -24 32 -15 70 -17 312 -16 151 1 279 4 284 7 14 9 9 42 -8 48 -9 3
-106 6 -216 6 -136 0 -199 3 -196 11 2 7 82 11 233 12 l230 2 0 25 c0 30 34
28 -335 20z"/>
<path d="M3879 3342 c-52 -20 -76 -82 -41 -108 20 -15 142 -19 142 -4 0 5 14
31 30 57 17 26 27 50 23 54 -14 13 -120 14 -154 1z"/>
</g>
</svg>
