<?xml version="1.0" standalone="no"?>
<!DOCTYPE svg PUBLIC "-//W3C//DTD SVG 20010904//EN"
 "http://www.w3.org/TR/2001/REC-SVG-20010904/DTD/svg10.dtd">
<svg version="1.0" xmlns="http://www.w3.org/2000/svg"
 width="1920.000000pt" height="1080.000000pt" viewBox="0 0 1920.000000 1080.000000"
 preserveAspectRatio="xMidYMid meet">
<metadata>
Created by potrace 1.16, written by Peter Selinger 2001-2019
</metadata>
<g transform="translate(0.000000,1080.000000) scale(0.100000,-0.100000)"
fill="#000000" stroke="none">
<path d="M0 6523 l0 -4278 191 5 192 5 48 90 c27 50 61 113 75 140 14 28 44
86 68 130 23 44 63 118 88 165 25 47 51 95 58 107 7 11 10 28 7 37 -6 14 -38
16 -304 17 -164 0 -319 4 -345 8 -32 5 -49 4 -52 -3 -5 -13 -6 269 -9 4511
l-2 3321 60 4 c33 2 3534 2 7780 1 4246 -2 8532 -3 9525 -3 l1805 0 -1 -5381
0 -5380 -9425 -3 c-5183 -2 -9495 0 -9581 3 l-158 6 0 1103 c-1 690 -5 1102
-10 1102 -6 0 -10 -416 -10 -1115 l0 -1115 9600 0 9600 0 0 5400 0 5400 -9600
0 -9600 0 0 -4277z"/>
<path d="M4545 5806 c-11 -9 -27 -16 -35 -16 -8 0 -29 -15 -46 -33 -36 -37
-114 -168 -114 -191 0 -9 -4 -16 -9 -16 -5 0 -18 -21 -30 -47 -12 -27 -33 -68
-46 -92 -44 -77 -27 -155 37 -180 13 -5 129 -9 257 -10 215 0 235 1 258 19 13
10 24 21 24 24 -1 11 13 41 21 46 4 4 11 20 14 38 l7 32 -223 0 c-177 0 -220
3 -213 13 6 6 25 39 43 72 18 33 42 74 52 90 22 37 43 87 40 98 -1 4 96 7 217
7 245 0 250 2 285 75 10 19 20 34 24 31 4 -2 7 9 7 24 l0 28 -275 1 c-231 1
-278 -1 -295 -13z"/>
<path d="M5228 5801 c-76 -35 -115 -81 -179 -206 -34 -66 -75 -145 -92 -175
-40 -73 -41 -130 -3 -168 l26 -27 288 0 c284 0 287 0 327 24 22 13 46 32 53
42 7 11 18 16 24 13 6 -4 8 -3 5 3 -3 5 3 25 15 44 11 19 56 102 99 186 87
166 96 204 57 241 -42 38 -71 42 -331 41 -216 -1 -257 -3 -289 -18z m419 -156
c0 -8 -3 -15 -7 -15 -4 0 -15 -20 -24 -45 -10 -25 -24 -45 -31 -45 -8 0 -13
-8 -13 -17 2 -21 -48 -125 -65 -135 -7 -4 -95 -8 -197 -8 -155 1 -182 3 -168
14 10 7 15 16 11 19 -3 4 -1 7 5 7 7 0 12 6 12 14 0 7 16 44 37 82 20 38 41
79 47 91 6 13 15 23 20 23 5 0 3 7 -4 15 -11 13 10 15 182 15 166 0 195 -2
195 -15z"/>
<path d="M6045 5813 c-42 -10 -85 -55 -119 -126 -20 -39 -54 -103 -76 -142
-21 -38 -42 -77 -46 -85 -3 -8 -17 -36 -30 -61 -13 -26 -24 -56 -24 -68 0 -11
-4 -21 -10 -21 -5 0 -10 -8 -10 -17 0 -15 2 -16 10 -3 8 12 12 9 21 -15 20
-52 39 -55 319 -55 l257 0 45 30 c58 39 104 92 119 139 6 20 15 41 19 46 5 6
23 39 42 75 34 65 68 121 78 130 3 3 17 30 29 60 13 30 30 65 39 78 22 34 12
38 -95 34 -55 -2 -105 -33 -124 -76 -24 -54 -79 -141 -88 -139 -6 2 -8 -3 -5
-11 6 -16 -34 -96 -52 -103 -7 -2 -10 -11 -7 -19 3 -8 -1 -14 -8 -14 -7 0 -9
-3 -6 -6 8 -9 -24 -64 -38 -64 -31 -2 -200 -3 -258 -1 l-68 1 18 31 c10 18 23
39 28 48 37 60 175 335 173 343 -4 11 -99 19 -133 11z"/>
<path d="M6802 5812 c-6 -2 -12 -9 -12 -16 0 -7 -8 -21 -18 -32 -10 -10 -26
-41 -36 -69 -10 -27 -23 -56 -29 -63 -15 -19 -46 -74 -57 -102 -6 -14 -23 -48
-38 -76 -15 -28 -40 -75 -56 -105 -16 -30 -33 -56 -37 -57 -5 -2 -7 -8 -3 -13
3 -5 0 -9 -5 -9 -20 0 -12 -48 8 -55 24 -7 108 0 142 13 36 14 69 66 156 244
48 97 63 116 63 79 0 -11 5 -23 10 -26 6 -3 10 -16 10 -27 0 -12 6 -29 13 -37
8 -9 24 -41 36 -71 44 -106 70 -158 82 -165 6 -4 48 -7 93 -6 90 2 94 4 137
86 15 28 49 93 77 145 27 52 62 118 77 145 84 153 105 199 96 208 -12 12 -122
10 -155 -3 -30 -11 -63 -55 -112 -149 -22 -40 -48 -90 -59 -110 -11 -20 -28
-49 -37 -65 l-15 -30 -33 70 c-17 38 -41 92 -51 119 -11 28 -24 59 -29 70 -5
11 -16 37 -24 58 -9 23 -25 41 -41 47 -24 9 -127 11 -153 2z"/>
<path d="M7572 5798 c-7 -7 -12 -16 -12 -20 0 -5 -11 -26 -25 -48 -14 -22 -25
-46 -25 -55 0 -20 38 -28 120 -23 39 2 70 3 70 1 0 -1 -20 -39 -45 -85 -25
-46 -50 -94 -56 -108 -5 -13 -13 -27 -17 -30 -17 -13 -104 -199 -98 -209 10
-15 101 -14 145 2 35 12 83 52 74 61 -3 3 4 18 15 33 11 16 32 54 47 86 15 31
31 57 36 57 5 0 9 6 9 13 0 13 65 144 82 165 7 8 40 12 98 12 101 0 127 13
160 83 40 82 57 77 -273 77 -215 0 -296 -3 -305 -12z"/>
<path d="M8252 5793 c-20 -9 -42 -34 -59 -64 -14 -27 -30 -46 -36 -42 -5 3 -7
-3 -3 -14 4 -12 -1 -27 -14 -41 -12 -12 -18 -22 -15 -22 4 0 -6 -23 -21 -50
-17 -32 -33 -49 -41 -46 -9 4 -12 -1 -8 -17 4 -15 -8 -44 -35 -91 -22 -37 -40
-74 -40 -82 0 -8 -6 -14 -14 -14 -17 0 -14 -66 4 -84 15 -15 561 -21 589 -7
24 14 82 124 72 139 -6 9 -62 12 -219 10 -117 -2 -212 -2 -212 -2 0 1 7 15 15
30 17 33 69 46 118 31 15 -5 60 -7 100 -3 40 3 79 6 87 6 62 3 81 12 105 50
13 21 27 50 31 64 l6 26 -163 2 c-90 0 -169 1 -175 1 -9 0 -8 9 2 32 7 18 10
35 7 39 -4 3 95 6 219 6 255 0 246 -2 290 80 48 88 75 80 -260 80 -252 0 -302
-3 -330 -17z"/>
<path d="M8936 5787 c-14 -13 -26 -27 -26 -31 0 -4 -7 -23 -17 -44 -9 -20 -17
-41 -17 -45 -1 -4 -5 -11 -11 -15 -5 -4 -43 -73 -84 -154 -41 -82 -80 -148
-87 -148 -8 0 -11 -6 -8 -14 3 -7 -6 -35 -20 -61 -14 -26 -23 -51 -20 -56 8
-14 132 -10 162 5 15 8 40 35 56 60 l29 46 62 0 c34 0 96 3 138 6 l76 7 13
-29 c7 -16 16 -31 19 -34 4 -3 11 -21 16 -40 l9 -35 56 3 c46 3 58 1 67 -15 9
-16 10 -16 11 -1 0 10 6 15 18 12 24 -6 58 22 45 38 -5 7 -9 20 -8 28 0 8 -8
24 -17 34 -25 27 -23 33 15 51 17 8 37 25 43 38 6 12 24 45 39 72 73 130 105
201 105 233 0 37 -25 87 -49 99 -9 4 -145 9 -302 11 l-287 3 -26 -24z m447
-144 c5 -9 -11 -45 -47 -108 l-22 -40 -168 -2 c-92 -1 -166 1 -164 5 2 4 12
24 21 45 11 23 22 35 29 31 7 -4 8 -3 4 4 -4 6 0 22 9 36 13 19 13 25 3 29 -7
3 64 6 159 6 94 1 174 -2 176 -6z"/>
<path d="M10238 5786 c-56 -20 -93 -55 -130 -121 -61 -111 -67 -133 -49 -176
24 -56 44 -61 228 -60 88 1 163 -2 166 -6 3 -4 1 -18 -4 -30 -8 -23 -11 -23
-196 -24 -257 -1 -298 -7 -329 -47 -14 -17 -25 -34 -24 -37 0 -3 -7 -19 -15
-35 -9 -17 -13 -35 -10 -40 4 -6 117 -10 289 -10 l282 0 51 26 c54 26 104 76
137 135 11 19 20 36 20 39 1 3 5 10 9 17 10 15 12 83 3 108 -15 47 -42 53
-227 57 -167 3 -174 4 -171 23 7 49 -3 47 261 43 137 -1 247 0 244 5 -2 4 2
10 10 13 9 3 21 19 27 35 7 16 16 26 21 23 5 -3 6 1 3 9 -3 8 2 20 11 27 12
10 13 16 4 26 -16 20 -556 19 -611 0z"/>
<path d="M10914 5792 c-18 -12 -76 -123 -71 -136 3 -7 35 -13 93 -14 48 -1 90
-5 92 -7 3 -3 0 -10 -6 -18 -6 -7 -40 -69 -75 -137 -35 -69 -78 -151 -95 -183
-18 -31 -32 -67 -32 -78 0 -21 4 -21 87 -17 61 3 88 9 91 18 3 8 15 23 27 34
12 12 26 32 30 46 4 14 19 45 33 70 13 25 46 86 72 135 74 143 62 133 151 134
42 0 88 5 101 10 26 10 58 44 77 83 8 15 17 25 21 23 4 -3 7 3 6 13 0 9 -8 20
-16 24 -20 9 -572 10 -586 0z"/>
<path d="M11563 5778 c-11 -13 -29 -41 -39 -63 -11 -22 -42 -80 -69 -130 -27
-49 -66 -123 -87 -163 -42 -82 -78 -144 -89 -152 -4 -3 -9 -18 -10 -35 l-4
-30 83 0 c82 0 83 0 115 35 17 19 38 47 46 63 l14 27 134 0 133 0 33 -67 34
-67 99 3 c55 1 100 4 102 6 2 2 -4 17 -12 34 -9 17 -17 34 -17 38 0 5 -8 16
-16 26 -9 9 -14 18 -12 20 64 44 80 64 129 159 29 56 62 118 72 136 10 18 18
48 18 66 0 43 -24 102 -45 110 -9 3 -146 6 -304 6 -286 0 -288 0 -308 -22z
m427 -197 c-13 -25 -32 -58 -42 -73 l-19 -28 -123 5 c-67 3 -132 5 -144 5 -11
0 -23 8 -25 18 -4 13 -5 11 -6 -5 0 -13 -7 -23 -16 -23 -12 0 -13 5 -3 28 7
15 18 34 25 43 8 9 16 33 20 53 l6 36 171 2 c94 2 173 -1 175 -6 2 -4 -7 -29
-19 -55z"/>
<path d="M12407 5793 c-9 -2 -29 -30 -44 -61 -14 -31 -29 -59 -33 -62 -3 -3
-23 -39 -44 -80 -76 -148 -133 -256 -165 -313 l-33 -58 21 -20 c16 -15 25 -17
40 -9 11 5 40 10 65 10 54 0 79 21 116 95 14 28 30 53 37 58 6 4 15 22 18 40
4 17 14 39 22 47 7 8 43 74 79 145 36 72 73 142 81 156 28 47 13 59 -69 58
-40 -1 -81 -3 -91 -6z"/>
<path d="M12761 5791 l-75 -6 -44 -85 c-24 -47 -70 -132 -101 -190 -31 -58
-70 -131 -86 -162 -16 -31 -32 -55 -37 -52 -4 3 -8 -3 -8 -13 0 -10 -7 -27
-15 -37 -31 -40 -21 -46 80 -46 87 0 95 2 106 22 17 31 35 48 44 40 3 -4 4 4
0 18 -4 18 0 32 15 48 18 19 31 22 98 22 42 0 82 -4 88 -8 6 -4 24 -32 39 -62
15 -30 31 -57 35 -60 3 -3 9 -13 13 -22 5 -14 12 -15 39 -7 18 5 58 9 89 8 31
-1 61 1 67 5 12 7 6 33 -15 57 -7 9 -10 18 -7 21 3 4 -3 9 -13 12 -10 4 -27
25 -37 49 -11 23 -33 63 -49 89 l-30 48 24 19 c13 11 27 20 32 21 10 0 121 73
125 83 2 4 9 7 15 7 7 0 32 16 56 35 24 19 48 35 53 35 5 0 29 15 53 33 23 17
50 37 60 42 9 6 14 17 11 25 -5 12 -28 15 -132 13 -124 -2 -125 -2 -177 -36
-85 -55 -175 -111 -205 -126 -15 -8 -44 -27 -65 -44 -21 -16 -41 -26 -45 -23
-3 4 -2 10 4 14 5 4 25 38 44 75 19 38 41 73 47 79 7 6 13 18 13 27 0 17 -19
43 -29 39 -4 -1 -39 -4 -80 -7z"/>
<path d="M14505 5792 c-5 -4 -15 -16 -21 -27 -6 -11 -21 -39 -34 -63 -18 -33
-21 -45 -12 -51 7 -4 118 -5 247 -3 129 2 235 2 235 0 0 -3 -7 -19 -16 -36
l-15 -32 -205 0 c-194 0 -207 -1 -247 -23 -64 -35 -87 -51 -87 -61 0 -5 -6
-17 -14 -25 -7 -9 -27 -42 -44 -73 -17 -32 -32 -54 -35 -50 -2 4 -2 1 -1 -5 2
-7 -10 -37 -26 -67 -17 -30 -30 -59 -30 -65 0 -8 101 -11 343 -11 l344 0 12
40 c6 22 16 40 21 40 6 0 10 9 10 20 0 11 -5 20 -11 20 -6 0 -9 8 -7 18 4 12
0 18 -11 18 -443 2 -441 2 -408 47 11 16 39 18 247 21 230 4 273 6 265 14 -2
2 9 21 24 43 16 21 34 52 41 69 7 16 17 30 22 30 5 0 8 6 7 13 -1 6 5 29 14
49 21 47 21 77 1 106 -34 49 -54 52 -336 52 -145 0 -267 -4 -273 -8z"/>
<path d="M13440 5772 c-23 -12 -44 -35 -60 -68 -47 -89 -103 -189 -116 -204
-7 -8 -13 -18 -14 -22 -1 -12 -57 -127 -67 -141 -6 -6 -17 -31 -26 -54 -15
-39 -15 -43 1 -62 16 -20 27 -21 292 -22 193 0 283 3 301 11 17 8 31 26 40 52
7 21 19 43 27 47 9 5 12 15 9 25 -6 14 -32 16 -222 16 l-215 0 16 33 15 32
167 0 c94 0 176 4 188 10 30 15 56 43 50 54 -3 4 3 16 14 26 10 9 16 23 13 31
-4 11 -36 14 -157 14 -162 0 -202 5 -187 24 5 6 11 22 13 36 l3 25 217 1 c189
2 221 5 247 20 17 10 31 24 31 32 0 7 4 10 10 7 6 -4 7 1 3 10 -3 10 -1 20 5
24 6 4 13 18 14 31 l3 25 -290 3 c-265 2 -293 1 -325 -16z"/>
</g>
</svg>
