<?xml version="1.0" standalone="no"?>
<!DOCTYPE svg PUBLIC "-//W3C//DTD SVG 20010904//EN"
 "http://www.w3.org/TR/2001/REC-SVG-20010904/DTD/svg10.dtd">
<svg version="1.0" xmlns="http://www.w3.org/2000/svg"
 width="1920.000000pt" height="1080.000000pt" viewBox="0 0 1920.000000 1080.000000"
 preserveAspectRatio="xMidYMid meet">
<metadata>
Created by potrace 1.16, written by Peter Selinger 2001-2019
</metadata>
<g transform="translate(0.000000,1080.000000) scale(0.100000,-0.100000)"
fill="#000000" stroke="none">
<path d="M54 10793 c9 -9 19146 -10 19146 0 0 4 -4309 7 -9577 7 -5267 0
-9573 -3 -9569 -7z"/>
<path d="M19195 5900 c0 -2676 1 -3770 2 -2432 2 1337 2 3527 0 4865 -1 1337
-2 243 -2 -2433z"/>
<path d="M0 5312 c0 -2922 3 -5312 8 -5312 9 0 8 10607 -1 10616 -4 4 -7
-2383 -7 -5304z"/>
<path d="M4530 5804 c-27 -13 -50 -28 -50 -34 0 -5 -9 -10 -20 -10 -13 0 -20
-7 -20 -18 0 -11 -9 -27 -20 -37 -11 -10 -26 -30 -34 -44 -7 -14 -32 -62 -55
-106 -23 -43 -45 -82 -49 -85 -22 -16 -51 -116 -52 -177 0 -24 5 -33 22 -39
13 -4 28 -14 34 -23 10 -13 45 -15 265 -13 l254 3 26 30 c15 17 39 37 53 45
25 12 27 11 35 -9 5 -12 19 -31 31 -42 21 -19 41 -20 324 -26 168 -4 306 -3
312 2 6 5 14 6 17 2 4 -3 7 3 7 14 0 23 23 46 35 35 5 -4 5 -2 2 4 -7 12 28
46 37 37 3 -4 6 0 6 8 0 9 9 24 19 36 11 11 21 31 23 44 2 13 9 23 16 21 9 -2
11 4 8 16 -7 20 49 142 64 142 4 0 10 14 14 30 3 18 12 30 21 30 13 0 17 11
17 40 0 3 9 14 19 24 19 19 19 19 19 -17 0 -20 -4 -37 -10 -37 -5 0 -10 -6
-10 -14 0 -8 -7 -17 -16 -20 -8 -3 -12 -11 -8 -17 4 -7 -3 -19 -15 -28 -12 -9
-23 -28 -23 -41 -2 -32 -17 -52 -32 -43 -6 4 -5 -1 3 -10 11 -14 11 -18 -3
-23 -29 -11 -49 -70 -44 -129 4 -45 11 -62 36 -88 l31 -32 103 6 c57 4 180 7
275 8 l171 1 26 31 c15 17 32 29 40 26 19 -7 36 12 36 40 0 13 3 23 8 23 4 0
15 12 24 28 l17 27 1 -43 c0 -23 -7 -58 -15 -78 -24 -58 -15 -65 79 -58 98 7
121 17 133 58 5 17 15 30 21 29 6 -2 16 15 22 37 10 37 13 40 46 40 35 0 64
18 64 39 0 6 -6 11 -12 11 -33 1 -41 16 -28 56 12 35 14 36 21 16 5 -13 17
-22 29 -22 17 0 19 -4 14 -25 -3 -14 -3 -37 0 -51 5 -20 12 -25 27 -21 24 6
31 -9 49 -97 7 -35 15 -54 20 -47 5 10 9 9 13 -3 5 -13 24 -16 97 -16 83 0 90
-1 90 -20 0 -11 4 -20 8 -20 16 0 44 39 37 50 -4 6 1 23 11 38 10 15 30 50 44
78 14 27 31 49 38 46 6 -2 16 16 23 40 7 24 18 50 26 59 7 8 13 19 13 24 0 4
9 16 21 26 14 12 19 24 14 38 -3 12 -2 21 3 21 5 0 12 13 15 29 3 16 19 48 36
72 16 24 32 61 36 82 l7 37 -68 -1 c-112 -1 -149 -23 -184 -109 -18 -45 -39
-75 -51 -72 -7 2 -9 -4 -6 -13 4 -9 1 -15 -8 -15 -15 0 -20 -17 -17 -53 1 -10
-5 -20 -13 -23 -8 -4 -15 -14 -15 -23 0 -10 -7 -26 -15 -37 -14 -19 -14 -19
-15 2 0 12 -6 27 -14 33 -8 7 -17 23 -21 38 -3 14 -13 32 -20 40 -8 8 -15 30
-15 49 0 19 -3 34 -7 34 -13 0 -43 60 -43 86 0 14 -4 23 -9 19 -5 -3 -12 4
-16 14 -7 24 -73 37 -140 26 -50 -7 -95 -41 -95 -72 0 -11 -13 -34 -30 -51
-19 -20 -30 -42 -30 -61 0 -25 -3 -28 -25 -23 -14 2 -28 8 -30 13 -5 8 13 49
26 59 4 3 19 31 35 63 34 73 29 78 -78 72 -79 -5 -118 -19 -118 -43 0 -7 -4
-11 -9 -8 -5 3 -11 -8 -15 -24 -6 -31 -65 -130 -77 -130 -4 0 -5 -9 -2 -20 3
-10 -4 -32 -16 -49 -12 -16 -21 -39 -21 -50 0 -12 -6 -21 -14 -21 -8 0 -22
-20 -33 -45 l-18 -45 -165 1 c-91 1 -157 3 -147 6 14 4 17 11 13 29 -4 15 -1
31 6 39 29 32 36 42 42 62 4 12 13 27 21 33 8 7 15 21 15 31 0 11 4 19 9 19
10 0 71 121 71 141 0 7 10 23 22 36 12 13 18 26 14 30 -4 5 -49 7 -99 5 -84
-2 -94 -4 -112 -27 -12 -14 -28 -25 -38 -25 -9 0 -17 -5 -17 -11 0 -5 5 -7 10
-4 6 3 10 -1 10 -9 0 -9 -7 -16 -15 -16 -14 0 -19 12 -16 33 0 4 -4 7 -9 7 -6
0 -10 9 -10 20 0 21 -24 27 -35 9 -5 -7 -14 -4 -26 7 -18 16 -50 18 -297 22
-228 3 -282 1 -305 -11 -15 -8 -41 -13 -57 -12 -21 2 -27 -1 -23 -12 4 -9 -10
-30 -32 -52 -21 -21 -39 -44 -41 -53 -3 -21 -34 -68 -46 -68 -5 0 -6 -5 -2
-11 8 -14 -27 -79 -43 -79 -7 0 -13 -10 -13 -22 0 -13 -15 -45 -32 -73 -18
-28 -31 -60 -29 -74 2 -15 -1 -21 -8 -17 -6 4 -11 16 -11 27 0 18 -9 19 -231
19 -151 0 -228 3 -224 10 3 6 15 10 26 10 14 0 19 7 19 29 0 20 10 39 30 58
17 15 30 37 30 48 0 31 33 104 50 109 11 3 11 4 -2 5 -10 0 -18 4 -18 9 0 4
105 6 233 4 l234 -4 19 29 c10 15 17 31 16 35 -1 4 7 12 18 18 11 6 20 20 20
30 0 11 6 20 13 20 6 1 -1 8 -18 17 -26 15 -68 17 -282 19 -245 1 -254 1 -303
-22z m1110 -150 c0 -3 -9 -18 -19 -33 -11 -15 -21 -42 -23 -61 -2 -21 -8 -34
-15 -32 -7 1 -13 -5 -13 -13 0 -8 -3 -15 -7 -15 -8 0 -38 -60 -48 -97 -6 -23
-8 -23 -191 -23 l-184 0 17 28 c10 15 23 32 29 37 6 6 19 31 29 58 10 26 24
47 31 47 8 0 14 9 14 19 0 11 5 23 10 26 6 3 10 19 10 36 l0 29 180 0 c99 0
180 -3 180 -6z"/>
<path d="M7578 5809 c-10 -5 -18 -16 -18 -24 0 -8 -6 -18 -13 -22 -7 -4 -23
-27 -34 -49 -29 -56 -18 -64 84 -64 92 0 97 -5 58 -55 -13 -18 -21 -36 -17
-40 4 -3 -1 -12 -10 -19 -10 -7 -23 -26 -29 -42 l-12 -29 -6 30 c-4 17 -13 30
-21 30 -22 0 -25 -34 -4 -49 22 -16 13 -58 -21 -91 -13 -13 -26 -38 -30 -55
-4 -16 -10 -30 -14 -30 -11 0 -33 -68 -26 -80 9 -14 146 -12 171 3 44 25 83
66 100 103 16 38 17 39 25 14 7 -24 7 -24 7 5 1 46 16 96 44 140 13 22 33 59
43 83 15 33 21 39 28 27 10 -18 27 -11 27 11 0 8 -4 13 -9 10 -5 -4 -7 3 -4
14 5 18 14 20 103 20 80 0 100 3 112 18 27 30 58 92 58 116 l0 23 -202 6
c-275 9 -370 8 -390 -4z"/>
<path d="M8312 5808 c-68 -6 -77 -9 -103 -40 -17 -18 -43 -61 -59 -95 -16 -35
-34 -63 -40 -63 -6 0 -9 -4 -5 -9 3 -5 1 -12 -5 -16 -5 -3 -10 -17 -10 -30 0
-13 -4 -27 -10 -30 -5 -3 -10 -1 -10 4 0 6 -5 11 -11 11 -7 0 -9 -10 -7 -25 3
-15 -2 -32 -13 -44 -10 -11 -16 -27 -13 -35 4 -10 1 -16 -7 -16 -22 0 -69 -95
-69 -138 0 -74 1 -75 226 -73 147 2 206 -1 225 -11 17 -9 50 -11 108 -8 l83 5
3 37 c2 40 44 118 45 83 0 -17 2 -18 11 -5 9 13 10 13 6 0 -2 -8 -10 -14 -16
-12 -6 1 -11 -2 -11 -8 0 -5 5 -10 10 -10 6 0 10 -8 10 -17 0 -15 -2 -16 -10
-3 -10 16 -12 15 -28 -22 -13 -32 -4 -41 33 -32 18 4 25 2 25 -9 0 -21 66 -30
99 -12 l26 14 -30 2 -30 1 35 9 c19 4 44 9 55 11 11 2 26 16 34 31 10 21 16
25 22 15 6 -9 9 -3 10 17 1 17 1 33 0 38 -1 4 65 6 146 5 l148 -3 8 -30 c5
-16 15 -43 23 -58 8 -16 12 -32 9 -37 -9 -15 155 -24 181 -9 31 16 30 35 -2
93 -15 26 -23 50 -19 54 4 4 10 2 12 -5 2 -7 20 7 41 30 20 23 41 45 45 48 5
4 12 22 16 40 4 19 11 33 16 31 5 -2 17 22 27 52 10 30 30 72 44 93 21 31 25
45 20 81 -3 23 -16 56 -28 72 l-22 30 -312 0 c-198 0 -315 -4 -319 -10 -8 -14
-48 -13 -62 1 -13 13 -426 19 -551 7z m608 -38 c0 -5 -4 -10 -10 -10 -5 0 -10
-8 -10 -17 -1 -24 -21 -48 -40 -48 -11 0 -15 -11 -15 -39 0 -22 -6 -41 -13
-44 -7 -2 -10 -8 -6 -13 3 -5 -2 -12 -10 -15 -10 -4 -16 -18 -16 -36 0 -25 -4
-29 -22 -27 -46 6 -64 -24 -25 -42 l22 -10 -24 5 c-21 4 -23 2 -18 -22 8 -39
-32 -87 -64 -77 -36 12 -51 32 -43 57 4 13 8 35 9 50 2 16 10 40 20 54 9 14
15 28 12 30 -2 3 -76 6 -165 7 -88 1 -164 6 -169 10 -4 5 0 14 10 22 11 8 15
19 11 29 -6 16 10 17 207 13 118 -3 220 -6 227 -8 6 -1 12 -9 12 -18 0 -14 2
-14 10 -1 7 10 6 18 -4 24 -14 10 2 41 54 109 21 26 60 38 60 17z m460 -130
c0 -5 -5 -10 -11 -10 -6 0 -8 -7 -5 -15 7 -19 -33 -85 -51 -85 -7 0 -13 -6
-13 -14 0 -11 -29 -15 -132 -18 -147 -5 -216 4 -138 17 35 7 40 10 25 16 -11
4 -14 8 -6 8 10 1 12 12 7 50 -6 42 -4 50 11 54 37 10 313 7 313 -3z"/>
<path d="M10225 5790 c-3 -5 -15 -10 -25 -10 -19 0 -102 -109 -115 -152 -4
-12 -13 -32 -19 -43 -22 -34 -38 -117 -27 -128 8 -8 11 -7 11 3 0 9 9 5 26
-11 24 -23 34 -24 175 -29 90 -3 149 -9 149 -15 -1 -5 8 -11 20 -13 11 -2 18
-8 15 -13 -4 -5 -101 -9 -224 -9 -133 0 -230 -4 -250 -11 -38 -13 -81 -81 -81
-127 l0 -32 268 0 c290 0 409 7 393 23 -6 6 0 19 18 36 39 39 81 96 81 112 0
8 9 25 20 39 12 16 20 41 20 67 l0 42 43 4 42 4 -46 1 c-34 2 -51 8 -69 27
-23 24 -26 25 -204 27 -175 3 -181 4 -178 23 7 48 -4 46 294 44 358 -3 418 -7
418 -24 0 -7 6 -15 12 -17 10 -4 8 -14 -7 -42 -13 -24 -21 -32 -23 -22 -2 9
-8 16 -13 16 -13 0 -11 -38 2 -42 11 -4 -48 -124 -77 -159 -8 -8 -14 -20 -14
-26 0 -6 -7 -13 -15 -17 -9 -3 -15 -18 -15 -36 0 -17 -6 -39 -12 -50 -18 -29
2 -40 71 -40 66 0 151 34 151 61 0 20 75 175 97 200 8 9 34 54 58 100 l43 84
61 3 c50 2 61 0 61 -13 0 -8 -7 -15 -15 -15 -17 0 -22 -55 -6 -64 16 -10 40 5
43 27 4 29 34 34 43 7 4 -14 -1 -37 -14 -63 -11 -23 -23 -49 -26 -57 -13 -33
-35 -65 -45 -65 -5 0 -10 -3 -10 -8 0 -4 -13 -34 -30 -67 -17 -33 -30 -75 -30
-96 l0 -36 78 7 c87 8 111 19 141 69 12 19 31 38 41 41 11 4 20 11 20 17 0 7
41 9 120 7 105 -4 121 -6 134 -24 9 -11 15 -31 14 -45 0 -14 5 -36 13 -50 13
-22 20 -25 69 -23 30 1 71 4 90 6 19 3 41 5 48 6 14 1 16 37 3 46 -5 3 -9 24
-8 47 1 31 9 50 30 71 15 15 41 57 58 93 17 35 34 64 39 64 4 0 16 23 26 51
11 28 25 54 31 56 9 3 13 26 13 63 0 50 -3 60 -20 65 -11 3 -20 11 -20 16 0 5
-7 9 -15 9 -8 0 -15 3 -15 8 0 4 -138 8 -306 10 -168 1 -303 -1 -301 -5 3 -5
-7 -26 -22 -48 -14 -22 -37 -61 -51 -87 -28 -54 -36 -58 -42 -23 -4 18 0 26
13 30 11 4 19 12 19 20 0 7 7 16 16 19 9 4 14 9 11 13 -4 3 1 19 11 35 14 24
15 30 3 37 -7 5 -145 10 -305 10 l-292 2 -27 -32 c-15 -18 -27 -40 -27 -49 0
-20 -34 -54 -49 -49 -6 2 3 24 19 49 36 54 37 66 8 74 -40 10 -606 7 -613 -4z
m1775 -160 c0 -5 -4 -10 -9 -10 -5 0 -8 -12 -8 -27 0 -15 -6 -29 -12 -31 -6
-2 -11 -9 -11 -15 -1 -7 -9 -23 -20 -36 -19 -22 -25 -23 -172 -24 -109 0 -153
3 -156 12 -2 6 13 32 33 56 20 25 33 50 29 56 -3 6 0 15 7 20 20 12 319 12
319 -1z"/>
<path d="M12377 5765 c-11 -24 -21 -33 -32 -29 -8 4 -15 1 -15 -5 0 -6 5 -11
12 -11 9 0 9 -3 0 -12 -7 -7 -12 -19 -12 -28 0 -9 -9 -25 -20 -35 -11 -10 -20
-28 -20 -41 0 -12 -11 -36 -25 -52 -14 -17 -25 -39 -25 -49 0 -11 -12 -30 -26
-44 -14 -13 -33 -39 -41 -58 -9 -18 -25 -36 -35 -39 -15 -3 -16 -7 -7 -19 13
-14 1 -49 -29 -85 -7 -9 -12 -27 -10 -40 3 -22 7 -23 86 -23 46 0 86 3 89 8 2
4 17 7 32 7 24 0 30 5 36 33 4 17 9 35 10 40 1 4 3 19 4 35 2 24 3 24 10 7 7
-17 9 -14 14 15 4 20 16 52 27 73 11 20 20 43 20 50 0 8 9 22 20 32 11 10 20
24 20 32 0 7 5 13 10 13 6 0 10 5 10 11 0 21 74 161 104 196 34 40 17 48 -91
50 l-100 2 -16 -34z"/>
<path d="M12682 5781 c-3 -9 -12 -20 -19 -26 -7 -5 -48 -81 -92 -167 -43 -87
-86 -165 -95 -173 -9 -9 -16 -23 -16 -31 0 -8 -4 -13 -9 -9 -5 3 -15 -11 -22
-32 -6 -20 -20 -51 -31 -69 -11 -18 -18 -43 -16 -56 3 -22 8 -23 94 -26 l91
-2 24 45 c15 28 31 45 42 45 14 0 17 5 12 23 -4 15 -3 18 3 8 12 -17 24 1 16
23 -5 13 1 16 30 16 20 0 36 -4 36 -8 0 -5 20 -6 45 -2 25 4 48 3 51 -2 3 -4
2 -8 -1 -8 -4 0 1 -7 9 -16 9 -8 16 -21 16 -28 0 -7 9 -21 20 -31 11 -10 20
-30 20 -44 0 -36 17 -61 29 -43 5 9 41 16 110 19 87 5 101 8 101 23 0 10 -7
23 -15 30 -8 7 -15 18 -15 25 0 8 -5 15 -11 17 -5 2 -13 22 -16 46 -5 37 -13
48 -27 40 -12 -7 -63 87 -59 106 4 18 3 19 -7 6 -10 -13 -11 -12 -6 3 3 10 6
21 6 23 0 2 10 4 23 4 40 0 67 12 67 29 0 9 9 22 21 29 18 11 23 11 34 -5 13
-17 14 -17 20 -1 4 10 11 15 16 12 5 -3 15 1 23 8 11 11 11 14 -1 23 -12 9 -5
18 39 46 29 20 64 39 78 42 32 8 105 81 95 96 -4 8 -51 10 -150 7 -135 -3
-145 -5 -167 -27 -30 -31 -63 -49 -88 -49 -13 0 -18 -4 -15 -11 10 -15 -25
-49 -51 -49 -13 0 -26 -4 -29 -10 -3 -5 -17 -10 -31 -10 -17 0 -27 -8 -34 -25
-6 -17 -14 -23 -25 -19 -9 4 -14 13 -11 21 3 8 6 18 6 22 0 5 11 19 24 32 28
28 62 106 51 117 -3 4 -47 8 -97 8 -74 1 -91 -1 -96 -15z"/>
<path d="M13417 5780 c3 -10 -4 -26 -14 -36 -11 -11 -25 -33 -32 -51 -7 -18
-19 -38 -27 -44 -8 -6 -37 -59 -65 -116 -28 -57 -57 -107 -65 -110 -8 -3 -14
-18 -14 -34 0 -17 -5 -29 -13 -29 -15 0 -47 -67 -47 -99 0 -12 11 -33 25 -46
l24 -25 283 0 284 0 17 29 c9 16 17 34 17 41 0 6 7 18 16 27 8 9 14 25 12 37
-3 21 -7 21 -215 24 l-212 2 11 26 c8 17 18 24 30 21 10 -3 16 -1 12 4 -3 5
68 9 170 9 150 0 176 2 176 15 0 8 4 15 9 15 5 0 13 9 16 20 3 11 12 26 19 33
7 7 16 22 20 34 6 18 1 21 -45 26 -28 4 -109 3 -180 0 -116 -5 -129 -4 -129
10 0 12 9 17 32 17 30 0 31 0 13 20 -10 11 -16 23 -13 26 4 3 99 5 212 4 200
-1 261 4 251 20 -3 4 2 10 10 14 8 3 15 12 15 21 0 8 9 24 21 36 12 12 19 30
17 45 l-3 24 -321 4 c-304 4 -321 3 -317 -14z"/>
<path d="M19189 583 c-1 -170 -4 -366 -8 -437 l-6 -129 -8149 -4 c-4483 -2
-8152 -6 -8155 -8 -2 -3 3671 -5 8162 -5 l8167 0 0 445 c0 245 -2 445 -5 445
-3 0 -6 -138 -6 -307z"/>
</g>
</svg>
