<?xml version="1.0" standalone="no"?>
<!DOCTYPE svg PUBLIC "-//W3C//DTD SVG 20010904//EN"
 "http://www.w3.org/TR/2001/REC-SVG-20010904/DTD/svg10.dtd">
<svg version="1.0" xmlns="http://www.w3.org/2000/svg"
 width="1920.000000pt" height="1080.000000pt" viewBox="0 0 1920.000000 1080.000000"
 preserveAspectRatio="xMidYMid meet">
<metadata>
Created by potrace 1.16, written by Peter Selinger 2001-2019
</metadata>
<g transform="translate(0.000000,1080.000000) scale(0.100000,-0.100000)"
fill="#000000" stroke="none">
<path d="M0 5400 l0 -5400 9600 0 9600 0 0 5400 0 5400 -9582 0 c-5271 0
-9578 -4 -9571 -8 6 -4 4256 -6 9445 -6 5188 1 9490 -1 9560 -5 l128 -6 2
-5380 3 -5380 -9420 -2 c-5181 -1 -9493 1 -9582 5 l-162 7 -3 5372 c-1 2955 1
5375 5 5379 12 12 8 24 -8 24 -13 0 -15 -607 -15 -5400z"/>
<path d="M4538 5818 c-2 -15 -11 -24 -26 -26 -13 -2 -26 -10 -29 -18 -3 -8
-11 -14 -18 -14 -8 0 -27 -24 -43 -52 -51 -90 -84 -151 -110 -198 -13 -25 -27
-49 -30 -55 -4 -5 -7 -13 -7 -17 0 -12 -15 -22 -15 -10 0 7 -7 12 -15 12 -8 0
-15 -4 -15 -10 0 -5 4 -10 9 -10 6 0 7 -10 4 -22 -10 -42 -3 -109 15 -133 29
-40 62 -45 306 -45 209 1 233 2 253 19 12 10 25 30 29 45 3 14 10 24 14 21 8
-5 20 28 20 58 0 16 -17 17 -220 17 -215 0 -220 0 -208 19 7 11 16 17 20 15 4
-3 8 2 8 10 0 9 14 38 30 64 17 27 30 54 30 60 0 5 6 12 14 15 12 5 22 36 28
85 1 9 53 12 223 12 l221 0 26 28 c29 31 46 62 58 103 l9 29 -280 0 c-179 0
-279 4 -279 10 0 20 -19 9 -22 -12z"/>
<path d="M6856 5821 c-4 -6 -18 -8 -31 -5 -19 5 -27 0 -41 -28 -9 -18 -20 -35
-24 -38 -4 -3 -15 -29 -25 -57 -11 -29 -22 -53 -26 -53 -4 0 -19 -25 -34 -56
-17 -36 -31 -54 -40 -50 -7 2 -16 -2 -19 -10 -3 -9 -1 -12 4 -9 6 3 10 -3 10
-13 0 -11 -7 -22 -15 -26 -9 -3 -15 -18 -15 -35 0 -17 -8 -36 -18 -43 -9 -7
-23 -24 -30 -38 -6 -14 -16 -32 -20 -40 -52 -92 -46 -110 34 -110 84 0 118 21
165 101 23 38 45 69 49 69 4 0 8 6 7 13 -1 18 26 77 35 77 4 0 8 5 8 12 0 14
33 87 40 88 3 0 11 -19 18 -42 16 -53 51 -126 63 -134 5 -3 9 -14 9 -25 0 -18
3 -26 31 -81 7 -12 15 -33 18 -47 7 -23 9 -24 101 -22 52 1 100 7 106 12 6 5
34 53 62 107 28 53 67 126 87 162 20 36 43 80 51 97 8 18 23 39 34 45 11 7 20
21 20 31 0 25 19 59 30 52 4 -3 6 4 3 15 -3 11 0 20 6 20 13 0 14 20 1 40 -12
19 -121 15 -161 -6 -21 -11 -28 -11 -32 -1 -2 6 -7 -2 -11 -19 -4 -18 -16 -40
-27 -50 -10 -9 -19 -23 -19 -30 0 -25 -24 -65 -36 -60 -8 3 -11 0 -8 -8 4 -10
-64 -155 -81 -174 -4 -5 -35 59 -35 72 0 6 -8 27 -19 46 -10 19 -24 53 -31 74
-27 82 -70 157 -98 167 -45 18 -89 22 -96 10z"/>
<path d="M5226 5806 c-22 -7 -42 -18 -44 -24 -2 -7 -11 -12 -19 -12 -9 0 -14
-3 -10 -6 3 -4 -7 -18 -23 -32 -17 -15 -30 -31 -30 -37 0 -6 -7 -20 -15 -30
-8 -11 -40 -69 -71 -130 -31 -60 -65 -126 -75 -145 -22 -40 -23 -59 -8 -110
17 -58 46 -62 360 -58 245 4 267 5 304 25 48 26 72 53 104 117 13 27 31 57 39
67 28 33 131 264 132 295 0 34 -28 66 -73 83 -41 16 -520 13 -571 -3z m394
-206 c-19 -38 -35 -58 -42 -54 -8 5 -9 2 -5 -10 4 -9 -3 -37 -15 -62 -19 -37
-24 -42 -30 -27 -6 12 -6 8 -3 -10 11 -54 -1 -57 -195 -57 l-178 0 11 35 c6
19 16 35 22 35 7 0 15 18 18 40 3 23 17 56 31 75 15 19 28 48 29 65 l2 30 193
0 192 0 -30 -60z"/>
<path d="M6030 5813 c-8 -4 -21 -12 -28 -19 -7 -8 -19 -17 -26 -21 -7 -5 -28
-37 -45 -73 -18 -36 -48 -92 -66 -125 -18 -33 -46 -85 -62 -115 -15 -30 -31
-57 -34 -60 -15 -12 -20 -75 -9 -114 8 -30 19 -45 38 -53 17 -7 117 -14 262
-16 129 -3 250 -8 269 -12 28 -6 33 -5 29 7 -4 9 8 23 30 39 41 27 72 56 72
66 0 3 10 20 23 37 13 17 38 60 55 96 18 36 36 72 41 80 5 8 15 30 21 48 7 17
16 32 21 32 5 0 9 7 9 15 0 8 4 15 9 15 5 0 12 10 16 23 4 13 8 17 12 9 2 -6
9 -10 14 -6 12 7 12 44 -1 44 -5 0 2 21 15 47 14 25 23 48 20 51 -5 5 -39 6
-115 4 -36 -2 -53 -9 -82 -35 -21 -19 -38 -41 -38 -51 0 -9 -7 -19 -15 -22 -8
-4 -15 -14 -15 -24 0 -10 -7 -25 -15 -34 -8 -8 -15 -18 -15 -23 0 -18 -47
-103 -53 -96 -4 3 -7 -4 -7 -16 0 -12 -6 -24 -14 -27 -8 -3 -12 -12 -9 -20 3
-8 0 -14 -7 -14 -6 0 -9 -4 -6 -9 3 -5 -4 -21 -16 -36 -15 -19 -23 -23 -29
-14 -6 10 -11 10 -25 -2 -13 -11 -45 -13 -148 -10 -72 1 -133 4 -134 6 -2 2
11 30 28 62 81 145 181 346 177 356 -4 12 -122 20 -147 10z"/>
<path d="M7608 5813 c-34 -3 -48 -9 -48 -19 0 -8 -12 -37 -27 -64 -22 -40 -25
-54 -16 -68 6 -9 17 -15 25 -13 17 6 86 4 115 -4 22 -5 32 -38 15 -49 -4 -2
-26 -40 -47 -83 -22 -43 -43 -79 -47 -81 -5 -2 -8 -9 -8 -16 0 -6 -11 -27 -23
-46 -13 -19 -27 -47 -30 -62 -4 -15 -16 -30 -27 -33 -20 -7 -25 -21 -14 -49 5
-12 21 -16 74 -16 38 0 72 5 75 10 3 6 15 10 26 10 10 0 19 5 19 10 0 6 16 20
35 31 19 12 35 26 35 32 0 7 -4 6 -10 -3 -5 -8 -12 -11 -16 -7 -4 3 5 24 19
46 14 22 29 51 32 64 4 14 15 34 24 44 10 10 23 32 28 48 6 17 16 29 22 28 6
-2 11 9 11 24 0 14 3 23 7 19 4 -3 14 13 23 36 l15 43 96 5 c102 5 149 24 149
59 0 10 9 25 19 32 15 10 18 21 14 42 l-5 27 -237 0 c-130 0 -245 2 -256 4
-11 1 -41 1 -67 -1z"/>
<path d="M8238 5788 c-21 -11 -38 -25 -38 -32 0 -13 -88 -188 -99 -196 -3 -3
-28 -49 -55 -102 -27 -54 -53 -98 -57 -98 -5 0 -9 -9 -9 -21 0 -11 -7 -28 -16
-36 -10 -10 -13 -24 -9 -37 4 -12 7 -27 7 -33 2 -23 79 -28 341 -22 144 4 268
8 275 9 6 2 12 11 12 21 0 10 12 39 26 65 14 25 23 49 19 52 -4 4 -103 7 -221
7 -138 0 -213 4 -211 10 4 10 8 11 43 14 10 1 14 7 10 16 -7 19 -11 18 163 15
79 -1 146 2 150 6 3 5 15 14 26 20 21 12 66 92 62 112 -1 10 -41 13 -173 13
l-172 1 16 39 15 39 221 0 c122 0 226 4 232 8 10 6 58 90 76 135 7 16 -11 17
-295 16 -284 0 -304 -2 -339 -21z"/>
<path d="M8940 5790 c-12 -12 -25 -18 -30 -15 -6 4 -10 -5 -10 -19 0 -14 -4
-35 -9 -48 -5 -13 -12 -31 -15 -42 -5 -14 -9 -16 -20 -7 -9 8 -17 8 -20 2 -3
-5 0 -11 6 -14 17 -5 -129 -297 -148 -297 -8 0 -11 -6 -7 -16 3 -8 -4 -28 -15
-43 -11 -15 -22 -39 -24 -52 -3 -24 -2 -24 78 -24 64 0 86 4 101 18 11 9 22
15 25 12 3 -3 10 13 17 35 6 21 17 42 23 47 7 4 73 6 147 5 l135 -1 22 -48
c12 -26 25 -56 28 -65 4 -14 13 -16 54 -11 37 4 52 2 65 -12 14 -13 17 -14 17
-2 0 9 7 14 18 11 9 -2 26 3 36 11 15 12 17 17 7 29 -7 8 -10 20 -6 25 3 6 -3
21 -14 33 -25 26 -27 38 -6 38 28 0 74 62 130 176 31 62 61 116 66 119 16 11
10 108 -9 133 -28 36 -77 42 -359 42 -251 0 -264 -1 -283 -20z m442 -147 c10
-5 -11 -49 -48 -103 l-31 -45 -119 -3 c-65 -2 -134 0 -153 3 -31 6 -33 8 -27
38 4 18 11 34 16 35 6 2 17 19 24 37 12 27 21 35 48 38 38 5 279 5 290 0z"/>
<path d="M10223 5781 c-54 -25 -100 -74 -129 -138 -13 -28 -29 -55 -34 -58
-13 -8 -13 -64 0 -102 18 -49 46 -55 235 -54 136 2 168 0 158 -10 -7 -7 -13
-21 -13 -30 0 -15 -24 -17 -237 -21 -240 -5 -273 -9 -273 -33 0 -8 -11 -22
-25 -33 -15 -12 -21 -22 -14 -24 8 -3 4 -12 -11 -25 -13 -13 -20 -28 -17 -37
6 -14 44 -16 302 -16 l295 0 43 26 c50 31 107 84 107 99 0 6 14 28 31 49 27
31 32 46 33 92 l0 54 51 2 50 2 -49 3 c-34 3 -59 12 -79 29 -27 23 -35 24
-180 26 -198 2 -202 2 -199 11 1 4 2 16 2 26 0 24 11 25 280 25 147 1 211 -3
227 -12 12 -6 24 -8 27 -3 3 5 -4 11 -15 14 -12 3 -18 10 -14 16 3 6 11 9 16
6 5 -4 9 -1 9 4 0 6 11 21 24 32 14 12 22 28 19 36 -3 8 0 19 7 23 11 7 11 11
1 24 -12 14 -51 16 -300 16 -259 0 -290 -2 -328 -19z"/>
<path d="M10894 5773 c-47 -73 -64 -114 -54 -134 11 -20 30 -26 30 -9 0 6 33
10 80 10 44 0 80 -3 80 -7 0 -3 -11 -21 -25 -39 -14 -18 -25 -38 -25 -43 0
-16 -23 -54 -37 -64 -6 -4 -15 -21 -18 -38 -4 -18 -22 -57 -40 -88 -49 -84
-68 -129 -62 -145 3 -8 20 -22 36 -31 26 -13 31 -13 31 -2 0 10 17 16 52 20
29 4 55 12 57 19 2 6 15 22 27 35 13 13 24 26 24 28 0 12 155 312 172 332 9
12 36 17 146 27 38 4 52 2 52 -8 0 -7 7 -13 15 -13 8 0 15 7 15 14 0 8 -4 11
-10 8 -20 -12 -9 11 17 35 l26 25 -7 -27 c-4 -20 -3 -28 6 -28 9 0 10 -2 2 -8
-12 -8 -54 -94 -54 -111 0 -6 -3 -11 -8 -11 -4 0 -25 -37 -47 -82 -37 -78 -82
-157 -96 -168 -3 -3 -8 -18 -11 -33 -7 -34 8 -43 75 -46 45 -2 107 22 107 41
0 4 6 8 13 8 18 0 44 33 39 49 -3 8 0 11 7 7 7 -5 11 1 11 13 0 20 5 21 135
21 l135 0 35 -69 c33 -66 55 -95 55 -72 0 7 35 11 96 11 86 0 94 2 80 15 -8 9
-18 31 -22 50 -3 18 -12 36 -20 39 -21 8 -17 20 15 39 30 17 131 159 131 183
0 8 13 37 28 66 16 29 31 63 35 76 7 30 -20 110 -42 121 -9 5 -147 10 -306 11
l-290 1 -33 -34 c-18 -19 -32 -40 -30 -47 4 -19 -19 -23 -26 -5 -3 9 2 27 10
41 9 13 13 28 10 32 -4 4 -142 8 -305 10 l-298 3 -19 -28z m1116 -136 c0 -16
-62 -136 -76 -148 -12 -10 -39 -10 -127 -1 -62 6 -125 8 -141 5 -28 -6 -28 -5
-23 33 5 36 15 86 22 109 3 12 345 14 345 2z"/>
<path d="M12387 5779 c-4 -13 -10 -18 -18 -13 -7 4 -10 3 -5 -4 7 -12 -2 -36
-49 -117 -19 -33 -39 -71 -46 -85 -52 -114 -135 -265 -162 -297 -14 -16 -17
-30 -12 -52 7 -32 23 -38 54 -22 10 6 45 11 80 12 48 2 61 5 57 16 -3 8 1 16
10 20 8 3 27 32 41 64 15 33 30 59 34 59 5 0 11 15 15 34 4 25 12 36 26 38 22
3 59 48 39 48 -6 0 -11 -7 -11 -15 0 -8 -4 -15 -9 -15 -6 0 -6 12 0 30 7 20
18 30 31 30 17 0 19 5 13 30 -6 25 -3 32 17 39 13 6 17 10 11 10 -22 1 -14 19
14 33 22 10 27 20 28 50 1 20 9 48 18 62 10 14 17 34 17 46 0 19 -6 20 -94 20
-87 0 -94 -2 -99 -21z"/>
<path d="M12667 5751 c-12 -25 -29 -55 -39 -65 -10 -11 -18 -25 -18 -31 0 -6
-15 -40 -34 -75 -119 -230 -149 -285 -157 -288 -5 -2 -9 -10 -9 -18 0 -18 -31
-54 -42 -48 -4 3 -8 1 -8 -5 0 -21 40 -31 120 -29 79 2 83 3 100 30 9 15 20
25 23 21 4 -3 7 1 7 11 0 28 32 68 65 81 16 7 59 12 94 11 64 -1 65 -1 73 -33
5 -18 12 -33 17 -33 5 0 14 -13 21 -30 7 -16 16 -30 20 -30 4 0 10 -9 13 -20
4 -17 9 -18 38 -9 47 14 131 9 152 -9 11 -10 17 -11 17 -4 0 7 3 11 8 10 4 -2
8 0 10 5 1 4 -1 6 -4 5 -7 -4 -49 74 -46 85 1 5 -1 6 -6 3 -5 -3 -16 10 -25
29 -9 19 -21 35 -27 35 -5 0 -10 9 -10 19 0 11 -5 23 -10 26 -6 3 -19 25 -30
47 l-19 40 22 19 c12 10 30 16 39 13 10 -3 26 -1 35 5 10 6 12 11 6 11 -7 0
-13 3 -13 8 0 9 58 42 75 42 7 0 15 3 17 8 8 19 88 72 109 72 12 0 19 3 16 7
-8 7 92 82 111 83 13 0 15 10 7 32 -4 10 -34 12 -130 11 l-126 -3 -67 -39
c-37 -22 -92 -57 -122 -78 -30 -21 -59 -38 -65 -38 -5 0 -23 -12 -39 -27 -17
-16 -36 -28 -42 -28 -7 0 -14 -6 -17 -12 -2 -8 -8 -9 -13 -4 -5 5 -4 11 4 13
6 3 12 11 12 19 0 8 7 14 15 14 8 0 15 8 15 18 0 25 38 102 50 102 6 0 10 7
10 16 0 9 5 12 13 8 6 -4 3 2 -8 14 -16 16 -37 21 -103 24 l-83 5 -22 -46z"/>
<path d="M14490 5785 c0 -8 -13 -37 -30 -65 -16 -28 -30 -57 -30 -65 0 -11 41
-13 245 -8 135 3 245 4 245 1 0 -3 -7 -19 -16 -36 l-15 -32 -204 0 c-138 0
-213 -4 -232 -12 -49 -22 -103 -60 -103 -74 0 -8 -9 -19 -20 -26 -11 -7 -20
-20 -20 -29 0 -9 -9 -26 -20 -39 -11 -13 -20 -29 -20 -37 0 -8 -5 -11 -12 -7
-7 4 -8 3 -4 -5 8 -12 -14 -71 -26 -71 -9 0 -31 -70 -25 -77 3 -3 155 -4 338
-4 329 2 363 5 364 36 1 6 7 22 14 37 8 15 11 33 9 40 -3 7 -6 18 -6 23 -1 19
-46 23 -244 24 -175 1 -198 3 -198 17 0 11 6 15 20 11 22 -6 28 8 8 16 -37 13
23 18 248 20 l249 2 40 77 c21 42 43 74 48 71 5 -3 8 3 6 13 -1 11 5 36 15 56
23 53 20 83 -13 120 l-29 33 -291 2 c-245 2 -291 0 -291 -12z"/>
<path d="M13440 5773 c-30 -13 -45 -33 -90 -121 -30 -58 -64 -119 -75 -136
-12 -17 -36 -62 -55 -101 -18 -38 -43 -83 -55 -100 -12 -16 -20 -38 -18 -47 3
-10 -1 -18 -7 -18 -6 0 0 -12 13 -26 l24 -26 252 1 c169 1 251 -2 251 -9 0 -5
8 -10 18 -10 10 0 23 -5 30 -12 9 -9 12 -8 12 5 0 9 -6 17 -12 17 -7 0 -2 6
12 14 16 8 31 10 42 4 14 -6 16 -5 12 7 -10 25 5 85 21 85 9 0 15 10 15 25 0
29 16 28 -253 27 l-187 -1 15 28 14 29 134 7 c74 4 153 4 176 0 62 -10 97 8
106 53 4 20 12 43 17 50 23 27 -8 35 -137 33 -69 -1 -145 1 -169 4 -44 7 -44
7 -30 33 8 15 14 32 14 37 0 6 79 10 217 10 183 0 222 3 248 16 18 10 29 23
27 33 -2 9 6 32 18 51 12 19 19 39 15 45 -4 6 -109 10 -293 9 -240 0 -293 -3
-322 -16z"/>
</g>
</svg>
